<svg width="41" height="40" viewBox="0 0 41 40" fill="none" xmlns="http://www.w3.org/2000/svg">
<path d="M0.884766 0H40.2038V21.2784L38.2576 24.3269L40.2038 27.0401V39.4169H0.884766V19.3579L2.10113 17.9556L0.884766 16.6142V0Z" fill="#016FD0"/>
<path d="M8.51758 27.4667V21.2783H15.0537L15.755 22.1947L16.4794 21.2783H40.2039V27.0399C40.2039 27.0399 39.5835 27.4605 38.8659 27.4667H25.7292L24.9385 26.4912V27.4667H22.3477V25.8014C22.3477 25.8014 21.9937 26.0339 21.2286 26.0339H20.3467V27.4667H16.424L15.7237 26.5306L15.0127 27.4667H8.51758Z" fill="white"/>
<path d="M0.884766 16.6141L2.35869 13.1693H4.90768L5.74415 15.0989V13.1693H8.91278L9.41073 14.564L9.89348 13.1693H24.1174V13.8705C24.1174 13.8705 24.8651 13.1693 26.094 13.1693L30.7091 13.1855L31.5311 15.0899V13.1693H34.1828L34.9126 14.2632V13.1693H37.5886V19.3577H34.9126L34.2132 18.2603V19.3577H30.3173L29.9255 18.3822H28.8782L28.4927 19.3577H25.8507C24.7933 19.3577 24.1174 18.6709 24.1174 18.6709V19.3577H20.1338L19.3431 18.3822V19.3577H4.53006L4.13854 18.3822H3.09453L2.70578 19.3577H0.884766V16.6141Z" fill="white"/>
<path d="M2.88058 13.9322L0.892578 18.5659H2.18687L2.55368 17.638H4.68612L5.05103 18.5659H6.37383L4.38773 13.9322H2.88058ZM3.6161 15.0106L4.26609 16.632H2.9642L3.6161 15.0106Z" fill="#016FD0"/>
<path d="M6.51074 18.5651V13.9314L8.35 13.9382L9.41977 16.9258L10.4639 13.9314H12.2885V18.5651H11.1329V15.1508L9.90803 18.5651H8.89461L7.66629 15.1508V18.5651H6.51074Z" fill="#016FD0"/>
<path d="M13.0781 18.5651V13.9314H16.8489V14.9679H14.2458V15.7605H16.788V16.736H14.2458V17.5591H16.8489V18.5651H13.0781Z" fill="#016FD0"/>
<path d="M17.5186 13.9322V18.5659H18.6741V16.9197H19.1606L20.5462 18.5659H21.9583L20.4378 16.8587C21.0618 16.8059 21.7055 16.269 21.7055 15.4355C21.7055 14.4604 20.9421 13.9322 20.09 13.9322H17.5186ZM18.6741 14.9687H19.995C20.3119 14.9687 20.5424 15.2172 20.5424 15.4564C20.5424 15.7643 20.2437 15.9442 20.0121 15.9442H18.6741V14.9687Z" fill="#016FD0"/>
<path d="M23.3576 18.5651H22.1777V13.9314H23.3576V18.5651Z" fill="#016FD0"/>
<path d="M26.155 18.5651H25.9003C24.6681 18.5651 23.9199 17.5919 23.9199 16.2673C23.9199 14.91 24.6597 13.9314 26.2158 13.9314H27.493V15.0289H26.1691C25.5374 15.0289 25.0907 15.5231 25.0907 16.2787C25.0907 17.1761 25.6015 17.553 26.3375 17.553H26.6415L26.155 18.5651Z" fill="#016FD0"/>
<path d="M28.6696 13.9322L26.6816 18.5659H27.9759L28.3427 17.638H30.4752L30.8401 18.5659H32.1629L30.1768 13.9322H28.6696ZM29.4052 15.0106L30.0552 16.632H28.7533L29.4052 15.0106Z" fill="#016FD0"/>
<path d="M32.2969 18.5651V13.9314H33.766L35.6419 16.8427V13.9314H36.7974V18.5651H35.3758L33.4524 15.5776V18.5651H32.2969Z" fill="#016FD0"/>
<path d="M9.30762 26.674V22.0403H13.0784V23.0768H10.4753V23.8694H13.0175V24.845H10.4753V25.668H13.0784V26.674H9.30762Z" fill="#016FD0"/>
<path d="M27.7842 26.674V22.0403H31.5549V23.0768H28.9519V23.8694H31.4819V24.845H28.9519V25.668H31.5549V26.674H27.7842Z" fill="#016FD0"/>
<path d="M13.2254 26.674L15.0613 24.3858L13.1816 22.0403H14.6375L15.7569 23.4903L16.8802 22.0403H18.279L16.424 24.3572L18.2633 26.674H16.8077L15.7208 25.247L14.6603 26.674H13.2254Z" fill="#016FD0"/>
<path d="M18.4004 22.0412V26.6749H19.5863V25.2116H20.8027C21.8319 25.2116 22.6121 24.6642 22.6121 23.5997C22.6121 22.7179 22.0002 22.0412 20.9529 22.0412H18.4004ZM19.5863 23.0891H20.8673C21.1998 23.0891 21.4375 23.2934 21.4375 23.6226C21.4375 23.9319 21.201 24.1561 20.8635 24.1561H19.5863V23.0891Z" fill="#016FD0"/>
<path d="M23.1143 22.0403V26.674H24.2698V25.0279H24.7564L26.1419 26.674H27.554L26.0335 24.9669C26.6575 24.9141 27.3012 24.3772 27.3012 23.5436C27.3012 22.5685 26.5378 22.0403 25.6857 22.0403H23.1143ZM24.2698 23.0768H25.5907C25.9076 23.0768 26.1381 23.3253 26.1381 23.5646C26.1381 23.8724 25.8394 24.0523 25.6078 24.0523H24.2698V23.0768Z" fill="#016FD0"/>
<path d="M32.0911 26.674V25.668H34.4037C34.7459 25.668 34.894 25.4827 34.894 25.2794C34.894 25.0846 34.7463 24.8876 34.4037 24.8876H33.3586C32.4502 24.8876 31.9443 24.3328 31.9443 23.4998C31.9443 22.7568 32.4076 22.0403 33.7575 22.0403H36.0078L35.5212 23.0829H33.575C33.203 23.0829 33.0885 23.2786 33.0885 23.4655C33.0885 23.6576 33.23 23.8694 33.5142 23.8694H34.6089C35.6216 23.8694 36.061 24.4453 36.061 25.1993C36.061 26.01 35.5713 26.674 34.5538 26.674H32.0911Z" fill="#016FD0"/>
<path d="M36.3323 26.674V25.668H38.6449C38.9871 25.668 39.1352 25.4827 39.1352 25.2794C39.1352 25.0846 38.9875 24.8876 38.6449 24.8876H37.5998C36.6915 24.8876 36.1855 24.3328 36.1855 23.4998C36.1855 22.7568 36.6488 22.0403 37.9987 22.0403H40.249L39.7624 23.0829H37.8162C37.4442 23.0829 37.3297 23.2786 37.3297 23.4655C37.3297 23.6576 37.4712 23.8694 37.7554 23.8694H38.8502C39.8628 23.8694 40.3022 24.4453 40.3022 25.1993C40.3022 26.01 39.8125 26.674 38.795 26.674H36.3323Z" fill="#016FD0"/>
</svg>
