<svg width="52" height="42" viewBox="0 0 52 42" fill="none" xmlns="http://www.w3.org/2000/svg">
<g clip-path="url(#clip0_240_369)">
<path d="M33.061 4.41272H19.0225V29.6718H33.061V4.41272Z" fill="#FF5A00"/>
<path d="M19.9565 17.0422C19.9565 11.9103 22.3655 7.35559 26.062 4.41269C23.3415 2.2705 19.9098 0.97583 16.1665 0.97583C7.29902 0.97583 0.124023 8.16151 0.124023 17.0422C0.124023 25.9229 7.29902 33.1086 16.1665 33.1086C19.9098 33.1086 23.3415 31.8139 26.062 29.6718C22.3603 26.7705 19.9565 22.1741 19.9565 17.0422Z" fill="#EB001B"/>
<path d="M51.9995 17.0422C51.9995 25.9229 44.8245 33.1086 35.957 33.1086C32.2137 33.1086 28.782 31.8139 26.0615 29.6718C29.8048 26.7237 32.167 22.1741 32.167 17.0422C32.167 11.9103 29.758 7.35559 26.0615 4.41269C28.7768 2.2705 32.2086 0.97583 35.9518 0.97583C44.8245 0.97583 51.9995 8.20831 51.9995 17.0422Z" fill="#F79E1B"/>
<path d="M9.70121 17.9125V15.2647C9.70121 14.2519 9.08876 13.5886 8.03739 13.5886C7.5117 13.5886 6.94009 13.7634 6.5471 14.3393C6.24087 13.856 5.80195 13.5886 5.14357 13.5886C4.70465 13.5886 4.26573 13.7223 3.91867 14.2056V13.676H3V17.9125H3.91867V15.5732C3.91867 14.8226 4.31166 14.4678 4.92411 14.4678C5.53656 14.4678 5.84278 14.8637 5.84278 15.5732V17.9125H6.76146V15.5732C6.76146 14.8226 7.20038 14.4678 7.76689 14.4678C8.37934 14.4678 8.68556 14.8637 8.68556 15.5732V17.9125H9.70121ZM23.3282 13.676H21.8379V12.3958H20.9192V13.676H20.0873V14.5141H20.9192V16.4575C20.9192 17.4292 21.3122 17.9999 22.3636 17.9999C22.7566 17.9999 23.1955 17.8663 23.5017 17.6915L23.2363 16.8945C22.9709 17.0693 22.6647 17.1156 22.4452 17.1156C22.0063 17.1156 21.8328 16.8483 21.8328 16.4112V14.5141H23.3231V13.676H23.3282ZM31.1267 13.5835C30.601 13.5835 30.2489 13.8508 30.0294 14.2005V13.6709H29.1107V17.9074H30.0294V15.5218C30.0294 14.8174 30.3356 14.4164 30.9072 14.4164C31.0808 14.4164 31.3002 14.4627 31.4789 14.5038L31.7443 13.6195C31.5605 13.5835 31.3002 13.5835 31.1267 13.5835ZM19.3422 14.0256C18.9033 13.7172 18.2908 13.5835 17.6324 13.5835C16.5811 13.5835 15.8818 14.1131 15.8818 14.9511C15.8818 15.6555 16.4075 16.0565 17.3262 16.185L17.7651 16.2313C18.2449 16.3187 18.5103 16.4524 18.5103 16.6735C18.5103 16.9819 18.1581 17.203 17.5457 17.203C16.9332 17.203 16.4484 16.9819 16.1421 16.7609L15.7032 17.4652C16.183 17.82 16.8413 17.9948 17.4997 17.9948C18.7246 17.9948 19.4289 17.419 19.4289 16.6272C19.4289 15.8765 18.8573 15.4807 17.9846 15.347L17.5457 15.3007C17.1527 15.2544 16.8464 15.167 16.8464 14.9048C16.8464 14.5963 17.1527 14.4215 17.6375 14.4215C18.1632 14.4215 18.6889 14.6426 18.9543 14.7763L19.3422 14.0256ZM43.784 13.5835C43.2583 13.5835 42.9061 13.8508 42.6867 14.2005V13.6709H41.768V17.9074H42.6867V15.5218C42.6867 14.8174 42.9929 14.4164 43.5645 14.4164C43.738 14.4164 43.9575 14.4627 44.1361 14.5038L44.4015 13.6298C44.2229 13.5835 43.9626 13.5835 43.784 13.5835ZM32.0454 15.7943C32.0454 17.0745 32.9232 17.9999 34.2808 17.9999C34.8933 17.9999 35.3322 17.8663 35.7711 17.5166L35.3322 16.766C34.98 17.0334 34.633 17.1619 34.2349 17.1619C33.4897 17.1619 32.9641 16.6323 32.9641 15.7943C32.9641 14.9974 33.4897 14.4678 34.2349 14.4267C34.6279 14.4267 34.98 14.5604 35.3322 14.8226L35.7711 14.0719C35.3322 13.7172 34.8933 13.5886 34.2808 13.5886C32.9232 13.5835 32.0454 14.5141 32.0454 15.7943ZM40.5431 15.7943V13.676H39.6244V14.2056C39.3182 13.8097 38.8793 13.5886 38.3077 13.5886C37.1236 13.5886 36.2049 14.5141 36.2049 15.7943C36.2049 17.0745 37.1236 17.9999 38.3077 17.9999C38.9201 17.9999 39.359 17.7789 39.6244 17.383V17.9125H40.5431V15.7943ZM37.1695 15.7943C37.1695 15.0436 37.6493 14.4267 38.4404 14.4267C39.1855 14.4267 39.7112 15.0025 39.7112 15.7943C39.7112 16.5449 39.1855 17.1619 38.4404 17.1619C37.6544 17.1156 37.1695 16.5398 37.1695 15.7943ZM26.1761 13.5835C24.9512 13.5835 24.0733 14.4678 24.0733 15.7891C24.0733 17.1156 24.9512 17.9948 26.222 17.9948C26.8345 17.9948 27.4469 17.82 27.9318 17.419L27.4928 16.7557C27.1407 17.0231 26.7018 17.1979 26.2679 17.1979C25.6963 17.1979 25.1298 16.9305 24.9971 16.185H28.1053C28.1053 16.0514 28.1053 15.9639 28.1053 15.8303C28.1461 14.4678 27.355 13.5835 26.1761 13.5835ZM26.1761 14.3804C26.7477 14.3804 27.1407 14.7352 27.2274 15.3933H25.0379C25.1247 14.8226 25.5177 14.3804 26.1761 14.3804ZM49 15.7943V11.9999H48.0813V14.2056C47.7751 13.8097 47.3362 13.5886 46.7646 13.5886C45.5805 13.5886 44.6618 14.5141 44.6618 15.7943C44.6618 17.0745 45.5805 17.9999 46.7646 17.9999C47.377 17.9999 47.8159 17.7789 48.0813 17.383V17.9125H49V15.7943ZM45.6264 15.7943C45.6264 15.0436 46.1062 14.4267 46.8973 14.4267C47.6424 14.4267 48.1681 15.0025 48.1681 15.7943C48.1681 16.5449 47.6424 17.1619 46.8973 17.1619C46.1062 17.1156 45.6264 16.5398 45.6264 15.7943ZM14.8713 15.7943V13.676H13.9526V14.2056C13.6464 13.8097 13.2075 13.5886 12.6359 13.5886C11.4518 13.5886 10.5331 14.5141 10.5331 15.7943C10.5331 17.0745 11.4518 17.9999 12.6359 17.9999C13.2483 17.9999 13.6872 17.7789 13.9526 17.383V17.9125H14.8713V15.7943ZM11.4569 15.7943C11.4569 15.0436 11.9366 14.4267 12.7277 14.4267C13.4729 14.4267 13.9986 15.0025 13.9986 15.7943C13.9986 16.5449 13.4729 17.1619 12.7277 17.1619C11.9366 17.1156 11.4569 16.5398 11.4569 15.7943Z" fill="white"/>
</g>
<defs>
<clipPath id="clip0_240_369">
<rect width="51.876" height="40.348" fill="white" transform="translate(0.124023 0.97583)"/>
</clipPath>
</defs>
</svg>
