<svg width="69" height="22" viewBox="0 0 69 22" fill="none" xmlns="http://www.w3.org/2000/svg">
<g clip-path="url(#clip0_240_362)">
<path d="M30.1624 21.487H24.626L28.0888 0.76239H33.6249L30.1624 21.487Z" fill="#00579F"/>
<path d="M50.2326 1.26905C49.1406 0.849714 47.4086 0.386719 45.2669 0.386719C39.7996 0.386719 35.9495 3.20865 35.9259 7.24315C35.8805 10.2198 38.6824 11.8731 40.7781 12.8656C42.92 13.8798 43.6481 14.5418 43.6481 15.4458C43.6263 16.8342 41.9173 17.4742 40.3233 17.4742C38.113 17.4742 36.9286 17.1442 35.1288 16.3718L34.3997 16.0406L33.625 20.6929C34.9235 21.2655 37.3158 21.7736 39.7996 21.7959C45.6087 21.7959 49.3907 19.0176 49.4355 14.7182C49.4576 12.359 47.9781 10.5512 44.7883 9.07403C42.8519 8.12577 41.666 7.48637 41.666 6.51613C41.6887 5.6341 42.669 4.73067 44.8549 4.73067C46.6547 4.68642 47.9772 5.10517 48.979 5.52421L49.4797 5.74428L50.2326 1.26905Z" fill="#00579F"/>
<path d="M57.5911 14.145C58.047 12.9544 59.8015 8.34643 59.8015 8.34643C59.7785 8.39068 60.2565 7.13385 60.5299 6.36229L60.9168 8.14804C60.9168 8.14804 61.9652 13.1088 62.1929 14.145C61.3276 14.145 58.6846 14.145 57.5911 14.145ZM64.4251 0.76239H60.1427C58.8221 0.76239 57.8188 1.13689 57.249 2.48192L49.0254 21.4867H54.8345C54.8345 21.4867 55.7909 18.9288 55.9965 18.3779C56.6338 18.3779 62.2849 18.3779 63.1048 18.3779C63.2637 19.1055 63.7654 21.4867 63.7654 21.4867H68.8915L64.4251 0.76239Z" fill="#00579F"/>
<path d="M20.0019 0.76239L14.5799 14.8946L13.9874 12.0284C12.985 8.72122 9.84127 5.12802 6.33301 3.34139L11.2993 21.465H17.1539L25.8561 0.76239H20.0019Z" fill="#00579F"/>
<path d="M9.5455 0.76239H0.638002L0.546875 1.18114C7.49528 2.90096 12.0971 7.04652 13.9878 12.0293L12.0514 2.50448C11.7326 1.18084 10.7529 0.806052 9.5455 0.76239Z" fill="#FAA61A"/>
</g>
<defs>
<clipPath id="clip0_240_362">
<rect width="68.3445" height="21.4091" fill="white" transform="translate(0.546875 0.386719)"/>
</clipPath>
</defs>
</svg>
