<svg width="24" height="24" viewBox="0 0 24 24" fill="none" xmlns="http://www.w3.org/2000/svg">
<g clip-path="url(#clip0_263_485)">
<path d="M11.9865 0.131897C7.76285 0.131897 4.0576 2.34266 1.95801 5.66804C2.67693 6.18701 3.55681 6.49655 4.51151 6.49655H13.0466C17.5461 6.49655 21.509 8.78951 23.8339 12.2698C23.8362 12.1752 23.8412 12.0814 23.8412 11.9866C23.8412 5.43937 18.5338 0.131897 11.9865 0.131897Z" fill="#006699"/>
<path d="M23.8412 11.9866C23.8412 11.6686 23.8249 11.3546 23.8004 11.0427C21.4708 7.43831 17.524 5.63376 13.0466 5.63376H4.51149C3.67929 5.63376 2.90426 5.50362 2.24224 5.23755C1.0241 6.99336 0.266194 9.09243 0.148438 11.3619C2.52543 14.2932 6.15323 16.1689 10.2212 16.1689H10.4172C12.7982 16.1689 13.8685 17.2074 13.9286 19.5738C13.9296 19.5361 13.9344 19.4995 13.9344 19.4616C13.9344 21.6789 13.0081 23.5067 10.9913 23.7967C11.3198 23.8239 11.6509 23.8412 11.9865 23.8412C18.5337 23.8412 23.8412 18.5338 23.8412 11.9866Z" fill="#015C8A"/>
<path d="M11.0039 23.7976C13.1082 23.5152 14.7365 21.7422 14.7916 19.5736C14.7315 17.2072 12.7984 15.3059 10.4175 15.3059H10.2215C6.19195 15.3059 2.59577 13.464 0.21798 10.5804C0.163185 11.0419 0.131836 11.5106 0.131836 11.9866C0.131836 18.2024 4.91691 23.2976 11.0039 23.7976Z" fill="#00537C"/>
<path d="M5.87191 9.86644H8.49312V18.2978H5.87191V9.86644ZM7.18278 5.67542C8.02051 5.67542 8.7015 6.3564 8.7015 7.19545C8.7015 8.03371 8.02051 8.71469 7.18278 8.71469C6.34294 8.71469 5.66406 8.03371 5.66406 7.19545C5.66406 6.35614 6.34294 5.67542 7.18278 5.67542Z" fill="white"/>
<path d="M10.137 9.86642H12.6504V11.0195H12.6862C13.0361 10.3564 13.8912 9.65778 15.1657 9.65778C17.8193 9.65751 18.3091 11.4033 18.3091 13.6736V18.298H15.6897V14.1976C15.6897 13.2195 15.6726 11.9621 14.328 11.9621C12.9642 11.9621 12.7563 13.0279 12.7563 14.1275V18.298H10.137V9.86642Z" fill="white"/>
<path d="M11.9894 11.9305C11.9894 11.9684 11.9847 12.005 11.9839 12.0427C11.9847 12.005 11.9894 11.9684 11.9894 11.9305Z" fill="white"/>
</g>
<defs>
<clipPath id="clip0_263_485">
<rect width="24" height="24" fill="white"/>
</clipPath>
</defs>
</svg>
