<?xml version="1.0" encoding="UTF-8"?>
<svg xmlns="http://www.w3.org/2000/svg" xmlns:xlink="http://www.w3.org/1999/xlink" width="25px" height="25px" viewBox="0 0 25 25" version="1.1">
<g id="surface1">
<path style=" stroke:none;fill-rule:nonzero;fill:rgb(41.568627%,41.568627%,41.568627%);fill-opacity:1;" d="M 12.5 0 C 9.105469 0 8.679688 0.015625 7.34375 0.0742188 C 6.007812 0.136719 5.109375 0.347656 4.3125 0.65625 C 3.476562 0.96875 2.722656 1.460938 2.097656 2.097656 C 1.460938 2.722656 0.96875 3.476562 0.65625 4.3125 C 0.347656 5.109375 0.136719 6.015625 0.0742188 7.347656 C 0.015625 8.675781 0 9.105469 0 12.5 C 0 15.894531 0.015625 16.320312 0.0742188 17.652344 C 0.136719 18.988281 0.347656 19.894531 0.65625 20.6875 C 0.96875 21.523438 1.460938 22.277344 2.097656 22.902344 C 2.722656 23.539062 3.476562 24.03125 4.3125 24.34375 C 5.109375 24.652344 6.015625 24.863281 7.347656 24.925781 C 8.675781 24.984375 9.105469 25 12.503906 25 C 15.902344 25 16.324219 24.984375 17.65625 24.925781 C 18.988281 24.863281 19.894531 24.652344 20.691406 24.34375 C 22.371094 23.695312 23.699219 22.367188 24.347656 20.6875 C 24.65625 19.890625 24.867188 18.984375 24.929688 17.652344 C 24.988281 16.324219 25.003906 15.894531 25.003906 12.5 C 25.003906 9.105469 24.988281 8.679688 24.929688 7.34375 C 24.867188 6.007812 24.652344 5.109375 24.34375 4.3125 C 24.03125 3.476562 23.539062 2.722656 22.902344 2.097656 C 22.277344 1.460938 21.523438 0.96875 20.6875 0.65625 C 19.894531 0.347656 18.984375 0.136719 17.652344 0.0742188 C 16.324219 0.015625 15.894531 0 12.5 0 Z M 12.5 2.253906 C 15.835938 2.253906 16.234375 2.265625 17.550781 2.324219 C 18.769531 2.378906 19.433594 2.585938 19.871094 2.753906 C 20.414062 2.957031 20.90625 3.277344 21.308594 3.691406 C 21.722656 4.097656 22.042969 4.585938 22.246094 5.128906 C 22.414062 5.570312 22.621094 6.234375 22.675781 7.453125 C 22.734375 8.769531 22.75 9.164062 22.75 12.503906 C 22.75 15.839844 22.734375 16.234375 22.675781 17.554688 C 22.621094 18.773438 22.414062 19.433594 22.246094 19.875 C 21.824219 20.964844 20.960938 21.828125 19.871094 22.246094 C 19.433594 22.417969 18.769531 22.621094 17.550781 22.675781 C 16.234375 22.738281 15.835938 22.75 12.5 22.75 C 9.164062 22.75 8.765625 22.734375 7.449219 22.675781 C 6.230469 22.621094 5.566406 22.414062 5.128906 22.246094 C 4.585938 22.042969 4.09375 21.722656 3.691406 21.308594 C 3.273438 20.90625 2.953125 20.414062 2.753906 19.871094 C 2.582031 19.433594 2.378906 18.769531 2.324219 17.550781 C 2.261719 16.234375 2.25 15.835938 2.25 12.5 C 2.25 9.164062 2.265625 8.765625 2.324219 7.449219 C 2.378906 6.230469 2.585938 5.566406 2.753906 5.128906 C 2.957031 4.585938 3.277344 4.09375 3.691406 3.691406 C 4.097656 3.273438 4.585938 2.953125 5.128906 2.753906 C 5.570312 2.582031 6.234375 2.378906 7.453125 2.324219 C 8.769531 2.261719 9.164062 2.25 12.503906 2.25 "/>
<path style=" stroke:none;fill-rule:nonzero;fill:rgb(41.568627%,41.568627%,41.568627%);fill-opacity:1;" d="M 12.5 16.667969 C 10.199219 16.667969 8.332031 14.800781 8.332031 12.5 C 8.332031 10.199219 10.199219 8.332031 12.5 8.332031 C 14.800781 8.332031 16.667969 10.199219 16.667969 12.5 C 16.667969 14.800781 14.800781 16.667969 12.5 16.667969 Z M 12.5 6.082031 C 8.953125 6.082031 6.082031 8.953125 6.082031 12.5 C 6.082031 16.046875 8.953125 18.917969 12.5 18.917969 C 16.042969 18.917969 18.917969 16.046875 18.917969 12.5 C 18.917969 8.957031 16.046875 6.082031 12.5 6.082031 M 20.671875 5.828125 C 20.671875 6.65625 20 7.328125 19.171875 7.328125 C 18.34375 7.328125 17.671875 6.65625 17.671875 5.828125 C 17.671875 5 18.34375 4.328125 19.171875 4.328125 C 20 4.328125 20.671875 5 20.671875 5.828125 "/>
</g>
</svg>
