<svg xmlns="http://www.w3.org/2000/svg" viewBox="0 0 757 533.34"><defs><style>.cls-1{fill:#6a6a6a;}</style></defs><g id="Layer_2" data-name="Layer 2"><g id="Layer_1-2" data-name="Layer 1"><path class="cls-1" d="M741.18,83.28a95.11,95.11,0,0,0-66.93-67.35C615.22,0,378.5,0,378.5,0S141.78,0,82.75,15.93A95.11,95.11,0,0,0,15.82,83.28C0,142.7,0,266.67,0,266.67s0,124,15.82,183.39a95.14,95.14,0,0,0,66.93,67.36c59,15.92,295.75,15.92,295.75,15.92s236.72,0,295.75-15.92a95.14,95.14,0,0,0,66.93-67.36C757,390.64,757,266.67,757,266.67S757,142.7,741.18,83.28ZM301.08,379.22V154.12L498.93,266.67Z"/></g></g></svg>