<svg width="147" height="28" viewBox="0 0 147 28" fill="none" xmlns="http://www.w3.org/2000/svg">
<path d="M26.084 0L21.0961 10.6531L18.4796 16.3265L13.042 28L0 0H5.47845L13.042 16.8571L15.863 10.6531L18.4796 4.77551L20.6464 0H26.084ZM18.4796 4.77551L16.3536 0H10.8751L15.863 10.6531L18.4796 16.3265L23.9171 28L37 0H31.5215L23.9171 16.8571L21.0961 10.6531L18.4796 4.77551Z" fill="#0A8EF2"/>
<path d="M67.398 5.238H72.736L66.412 22.986H61.244L57.368 11.936L53.492 22.986H48.324L42 5.238H47.338L50.976 16.594L55.022 5.238H59.714L63.76 16.594L67.398 5.238ZM87.2923 5.306H92.6642V22.986H87.2923V21.218C87.0543 21.83 85.4563 23.326 82.7363 23.326C78.6903 23.326 74.0322 20.436 74.0322 14.112C74.0322 8.026 78.6903 5 82.7363 5C85.4563 5 87.0543 6.564 87.2923 6.938V5.306ZM83.5182 18.6C85.7282 18.6 87.5303 17.07 87.5303 14.112C87.5303 11.256 85.7282 9.726 83.5182 9.726C81.2062 9.726 79.2342 11.29 79.2342 14.112C79.2342 17.036 81.2062 18.6 83.5182 18.6ZM108.104 5.306H113.477V22.986H108.104V21.218C107.866 21.83 106.269 23.326 103.549 23.326C99.5025 23.326 94.8445 20.436 94.8445 14.112C94.8445 8.026 99.5025 5 103.549 5C106.269 5 107.866 6.564 108.104 6.938V5.306ZM104.331 18.6C106.541 18.6 108.342 17.07 108.342 14.112C108.342 11.256 106.541 9.726 104.331 9.726C102.019 9.726 100.047 11.29 100.047 14.112C100.047 17.036 102.019 18.6 104.331 18.6ZM141.021 5.238H146.359L140.035 22.986H134.867L130.991 11.936L127.115 22.986H121.947L115.623 5.238H120.961L124.599 16.594L128.645 5.238H133.337L137.383 16.594L141.021 5.238Z" fill="#605C5C"/>
</svg>
