<svg version="1.2" xmlns="http://www.w3.org/2000/svg" viewBox="0 0 720 720" width="100" height="100">
	<title>avatar-1577909_960_720</title>
	<style>
		.s0 { fill: #94bbe0 } 
		.s1 { fill: #fefffe } 
	</style>
	<g id="Background">
		<path id="Path 0" class="s0" d="m0 0h720v720h-720v-360z"/>
		<path id="Path 1" class="s1" d="m365 52.5c8.1 0.3 19.8 1.4 26.5 2.5 6.6 1.1 16.1 3.4 21 5.1 4.9 1.7 13.5 5.4 18.9 8.2 5.4 2.9 13.5 8.1 18 11.7 4.4 3.6 10.7 9.7 13.9 13.5 3.2 3.8 8.1 10.6 10.8 15 2.7 4.4 6.2 11.2 7.8 15 1.6 3.8 4.1 11.1 5.6 16 1.4 4.9 3.3 13.1 4.2 18 1.3 6.7 1.7 14.6 1.7 31 0 17.6-0.5 24.8-2.3 36-1.2 7.7-3.3 19.2-4.7 25.5-1.4 6.3-3.7 15.3-5.1 20-1.3 4.7-4 12.8-6 18-1.9 5.2-5.7 14-8.4 19.5-2.6 5.5-7.6 14.3-11.1 19.5-3.4 5.2-10.4 13.8-15.4 19-5 5.2-12.4 11.8-16.5 14.6-4.1 2.8-10.1 6.5-13.4 8.1-3.3 1.7-9.6 4.2-14 5.6-4.4 1.5-12.1 3.3-17 4.2-4.9 0.8-13.7 1.5-19.5 1.5-5.8 0-14.6-0.7-19.5-1.5-4.9-0.9-12.6-2.7-17-4.2-4.4-1.4-10.7-3.9-14-5.6-3.3-1.6-8.7-4.8-12-7.1-3.3-2.2-9.3-7.2-13.4-11.1-4.1-3.8-10.1-10.4-13.4-14.5-3.3-4.1-8.3-11.6-11.2-16.5-2.9-4.9-7.2-13.3-9.5-18.5-2.3-5.2-5.7-14-7.6-19.5-1.9-5.5-4.8-15.2-6.4-21.5-1.6-6.3-4-17.8-5.4-25.5-1.3-7.7-3-20.1-3.6-27.5-0.8-8.1-1-18.9-0.7-27 0.4-7.4 1.3-17.6 2.1-22.5 0.9-4.9 2.7-13.1 4.1-18 1.4-4.9 4.3-12.8 6.3-17.5 2.1-4.7 6.4-12.5 9.7-17.5 3.2-5 9.5-12.6 14-17 4.4-4.4 11.1-10.1 15-12.6 3.9-2.6 10.4-6.4 14.5-8.4 4.1-2.1 11.3-5 16-6.5 4.7-1.6 12.6-3.6 17.5-4.5 4.9-0.9 12.6-2.1 17-2.5 4.4-0.5 14.5-0.7 22.5-0.5zm-111.5 312.6c0-0.1 3.1 2.8 7 6.5 3.9 3.6 10.1 9 14 11.8 3.9 2.9 10.6 7.4 15 9.9 4.4 2.6 10.8 5.8 14.3 7.2 3.4 1.4 10.1 3.6 15 5.1 4.8 1.4 13 3.2 18.2 3.9 5.2 0.8 15.6 1.5 23 1.5 7.4 0 17.8-0.7 23-1.5 5.2-0.7 13.4-2.5 18.3-3.9 4.8-1.5 11.5-3.7 15-5.1 3.4-1.4 9.8-4.6 14.2-7.2 4.4-2.5 11.1-7 15-9.9 3.9-2.8 10-8.1 20.4-17.9l7.3 3.4c4 1.8 10.7 4.7 14.8 6.3 4.1 1.7 15.4 5.7 25 8.9 9.6 3.3 21.5 8 26.5 10.4 5 2.5 11.7 6.6 15 9.3 3.3 2.7 8.4 8 11.3 11.8 2.9 3.8 7.4 11.4 10.1 16.9 2.7 5.5 6.5 15.2 8.5 21.5 2 6.3 4.7 16.7 6.2 23 1.4 6.3 4.3 21.9 6.4 34.5 2.2 12.6 4.8 31.1 6 41 1.1 9.9 2.3 25.9 2.7 35.5 0.4 11.6 0.2 18.9-0.6 21.8-0.6 2.3-2.6 5.8-4.3 7.8-1.8 2-6 4.9-9.3 6.4-3.3 1.6-12.1 4.9-19.5 7.5-7.4 2.5-20.7 6.6-29.5 9-8.8 2.5-24.3 6.3-34.5 8.4-10.2 2.2-24.8 5.2-32.5 6.6-7.7 1.4-21.2 3.7-30 5-8.8 1.3-22.3 3.1-30 3.9-7.7 0.8-23.4 2-35 2.7-16.1 0.9-25.8 0.9-41.5 0-11.3-0.7-26.8-1.9-34.5-2.7-7.7-0.8-21.2-2.6-30-3.9-8.8-1.3-22.3-3.6-30-5-7.7-1.4-22.3-4.4-32.5-6.6-10.2-2.1-25.7-5.9-34.5-8.4-8.8-2.4-22.1-6.5-29.5-9-7.4-2.6-16.2-5.9-19.5-7.5-3.3-1.5-7.5-4.4-9.2-6.4-1.8-2-3.8-5.5-4.4-7.8-0.8-2.9-1-10.2-0.6-21.8 0.4-9.6 1.6-25.6 2.7-35.5 1.2-9.9 3.8-28.4 6-41 2.1-12.6 5-28.2 6.4-34.5 1.5-6.3 4.2-16.7 6.2-23 2-6.3 5.8-16 8.5-21.5 2.7-5.5 7.2-13.1 10.1-16.9 2.9-3.8 8-9.1 11.3-11.8 3.3-2.7 10.1-6.8 15-9.3 4.9-2.4 17.6-7.3 28-10.9 10.4-3.5 22.8-8.1 27.5-10.1 4.7-2 10.5-4.6 13-5.9 2.5-1.3 4.5-2.4 4.5-2.5z"/>
	</g>
</svg>