<svg width="141" height="142" viewBox="0 0 141 142" fill="none" xmlns="http://www.w3.org/2000/svg">
<path d="M70.5 0C31.584 0 0 31.808 0 71C0 110.192 31.584 142 70.5 142C109.416 142 141 110.192 141 71C141 31.808 109.416 0 70.5 0ZM70.5 21.3C82.203 21.3 91.65 30.814 91.65 42.6C91.65 54.386 82.203 63.9 70.5 63.9C58.797 63.9 49.35 54.386 49.35 42.6C49.35 30.814 58.797 21.3 70.5 21.3ZM70.5 122.12C52.875 122.12 37.2945 113.032 28.2 99.258C28.4115 85.129 56.4 77.39 70.5 77.39C84.5295 77.39 112.589 85.129 112.8 99.258C103.706 113.032 88.125 122.12 70.5 122.12Z" fill="#999999"/>
</svg>
