<svg width="649" height="433" viewBox="0 0 649 433" fill="none" xmlns="http://www.w3.org/2000/svg">
<path d="M591.544 296.118C592.156 298.32 592.639 300.571 592.987 302.855L593.842 302.725C593.489 300.407 592.998 298.12 592.377 295.886L591.544 296.118ZM593.608 309.716C593.625 310.264 593.634 310.812 593.634 311.359C593.634 313.1 593.552 314.847 593.385 316.599L594.246 316.681C594.417 314.901 594.499 313.126 594.499 311.359C594.499 310.803 594.491 310.247 594.473 309.69L593.608 309.716ZM592.308 323.399C591.814 325.612 591.176 327.818 590.387 330.011L591.202 330.303C592.003 328.078 592.65 325.837 593.154 323.59L592.308 323.399ZM587.661 336.331C586.644 338.337 585.491 340.323 584.191 342.276L584.911 342.754C586.229 340.775 587.401 338.76 588.433 336.722L587.661 336.331ZM580.059 347.783C578.618 349.498 577.052 351.178 575.356 352.819L575.957 353.443C577.675 351.782 579.261 350.078 580.721 348.342L580.059 347.783ZM570.179 357.368C568.431 358.764 566.577 360.124 564.611 361.438L565.091 362.159C567.077 360.83 568.952 359.457 570.718 358.045L570.179 357.368ZM558.728 365.049C556.777 366.149 554.735 367.21 552.6 368.23L552.972 369.011C555.124 367.985 557.186 366.913 559.152 365.805L558.728 365.049ZM546.274 371.009C544.193 371.85 542.034 372.653 539.795 373.419L540.074 374.238C542.328 373.469 544.502 372.659 546.596 371.811L546.274 371.009ZM533.199 375.491C531.036 376.115 528.807 376.703 526.51 377.256L526.711 378.098C529.022 377.541 531.263 376.95 533.437 376.325L533.199 375.491ZM519.75 378.739C517.536 379.178 515.267 379.587 512.937 379.962L513.076 380.817C515.414 380.44 517.694 380.029 519.918 379.587L519.75 378.739ZM506.086 380.951C503.843 381.237 501.547 381.495 499.204 381.724L499.287 382.586C501.64 382.356 503.942 382.099 506.194 381.811L506.086 380.951ZM492.301 382.296C490.04 382.452 487.734 382.581 485.385 382.683L485.422 383.549C487.78 383.447 490.092 383.315 492.362 383.159L492.301 382.296ZM478.458 382.904C476.398 382.943 474.304 382.965 472.178 382.965C471.961 382.965 471.745 382.965 471.527 382.965L471.524 383.831C471.743 383.831 471.961 383.831 472.178 383.831C474.311 383.831 476.409 383.809 478.475 383.768L478.458 382.904ZM464.595 382.878C462.322 382.828 460.011 382.755 457.666 382.657L457.629 383.523C459.981 383.621 462.296 383.694 464.576 383.744L464.595 382.878ZM450.741 382.309C448.468 382.174 446.162 382.019 443.823 381.839L443.758 382.703C446.101 382.882 448.411 383.038 450.689 383.172L450.741 382.309ZM436.913 381.259C434.642 381.051 432.342 380.823 430.012 380.574L429.921 381.436C432.254 381.685 434.56 381.912 436.833 382.122L436.913 381.259ZM423.122 379.791C420.855 379.516 418.562 379.224 416.243 378.912L416.126 379.771C418.451 380.083 420.747 380.375 423.018 380.65L423.122 379.791ZM409.374 377.946C407.113 377.615 404.827 377.264 402.516 376.896L402.382 377.751C404.695 378.119 406.984 378.47 409.249 378.803L409.374 377.946ZM395.674 375.768C393.42 375.383 391.142 374.982 388.842 374.564L388.686 375.415C390.99 375.835 393.27 376.236 395.527 376.621L395.674 375.768ZM382.023 373.287C379.775 372.856 377.508 372.408 375.217 371.943L375.046 372.791C377.337 373.257 379.609 373.705 381.859 374.138L382.023 373.287ZM368.424 370.533C366.185 370.059 363.925 369.568 361.644 369.061L361.456 369.908C363.741 370.414 366.001 370.906 368.245 371.382L368.424 370.533ZM354.878 367.53C352.645 367.015 350.393 366.487 348.124 365.943L347.922 366.786C350.194 367.329 352.448 367.859 354.683 368.375L354.878 367.53ZM341.383 364.3C339.159 363.748 336.915 363.183 334.655 362.605L334.441 363.443C336.703 364.023 338.947 364.588 341.175 365.14L341.383 364.3ZM327.94 360.858C327.291 360.687 326.64 360.516 325.988 360.343C324.39 359.916 322.798 359.509 321.212 359.119L321.004 359.959C322.585 360.349 324.173 360.754 325.766 361.178C326.417 361.351 327.068 361.525 327.719 361.696L327.94 360.858ZM314.438 357.55C312.156 357.054 309.885 356.591 307.624 356.162L307.464 357.013C309.716 357.441 311.979 357.9 314.255 358.396L314.438 357.55ZM300.77 354.956C298.464 354.581 296.169 354.242 293.889 353.934L293.772 354.791C296.046 355.099 298.332 355.439 300.632 355.811L300.77 354.956ZM286.981 353.092C284.66 352.841 282.35 352.62 280.057 352.432L279.985 353.293C282.272 353.484 284.574 353.702 286.888 353.954L286.981 353.092ZM273.117 351.947C270.784 351.815 268.468 351.711 266.168 351.637L266.14 352.503C268.433 352.577 270.741 352.678 273.067 352.813L273.117 351.947ZM259.213 351.496C258.404 351.49 257.597 351.488 256.792 351.488C255.273 351.488 253.763 351.499 252.262 351.52L252.275 352.386C253.772 352.365 255.278 352.354 256.792 352.354C257.595 352.354 258.399 352.356 259.206 352.362L259.213 351.496ZM245.313 351.704C242.979 351.793 240.664 351.906 238.369 352.04L238.421 352.906C240.71 352.769 243.018 352.657 245.346 352.57L245.313 351.704ZM231.436 352.523C229.106 352.707 226.797 352.914 224.513 353.142L224.597 354.003C226.877 353.776 229.181 353.57 231.505 353.384L231.436 352.523ZM217.603 353.889C215.28 354.161 212.982 354.452 210.708 354.757L210.823 355.614C213.092 355.309 215.386 355.021 217.703 354.748L217.603 353.889ZM203.828 355.731C201.512 356.077 199.223 356.437 196.962 356.805L197.102 357.66C199.359 357.292 201.643 356.933 203.955 356.588L203.828 355.731ZM190.112 357.963C187.801 358.366 185.521 358.775 183.274 359.189L183.43 360.042C185.675 359.628 187.952 359.219 190.26 358.816L190.112 357.963ZM176.447 360.468C174.136 360.91 171.863 361.349 169.627 361.782L169.792 362.633C172.027 362.198 174.299 361.758 176.609 361.319L176.447 360.468ZM162.811 363.105C160.493 363.553 158.221 363.991 155.993 364.408L156.154 365.259C158.383 364.841 160.657 364.404 162.975 363.956L162.811 363.105ZM149.169 365.658C146.832 366.071 144.551 366.457 142.329 366.805L142.464 367.66C144.692 367.31 146.978 366.924 149.319 366.511L149.169 365.658ZM135.469 367.786C133.098 368.087 130.803 368.331 128.586 368.511L128.655 369.375C130.888 369.193 133.196 368.948 135.578 368.645L135.469 367.786ZM121.684 368.847C121.37 368.851 121.057 368.851 120.746 368.851C118.677 368.851 116.693 368.769 114.796 368.591L114.716 369.455C116.643 369.635 118.654 369.717 120.746 369.717C121.06 369.717 121.376 369.717 121.694 369.713L121.684 368.847ZM108.028 367.448C105.73 366.855 103.602 366.058 101.648 365.03L101.246 365.798C103.266 366.859 105.458 367.68 107.812 368.288L108.028 367.448ZM96.1375 361.061C94.5674 359.544 93.1653 357.773 91.9348 355.709L91.1919 356.153C92.4587 358.277 93.909 360.113 95.5365 361.685L96.1375 361.061ZM89.0604 349.492C88.2679 347.305 87.5491 345.114 86.9024 342.916L86.0724 343.163C86.7242 345.376 87.4485 347.584 88.247 349.788L89.0604 349.492ZM85.1538 336.222C84.6379 333.962 84.1955 331.697 83.8247 329.433L82.9708 329.571C83.3442 331.855 83.7903 334.137 84.3103 336.415L85.1538 336.222ZM82.9193 322.572C82.6876 320.271 82.528 317.969 82.438 315.67L81.5733 315.702C81.6639 318.021 81.8251 320.34 82.0585 322.659L82.9193 322.572ZM82.3761 308.748C82.4246 306.443 82.5414 304.141 82.7246 301.842L81.8621 301.773C81.6773 304.087 81.5597 306.408 81.511 308.731L82.3761 308.748ZM83.4707 294.973C83.7838 292.693 84.1606 290.422 84.5996 288.157L83.75 287.993C83.3083 290.272 82.9286 292.559 82.6134 294.853L83.4707 294.973ZM86.0942 281.417C86.6519 279.183 87.2689 276.958 87.9432 274.747L87.1155 274.494C86.4369 276.719 85.816 278.958 85.2548 281.207L86.0942 281.417ZM90.1256 268.176C90.9046 266.009 91.7381 263.857 92.624 261.718L91.8245 261.387C90.9336 263.537 90.0953 265.704 89.3115 267.882L90.1256 268.176ZM95.421 255.383C96.3986 253.298 97.4255 251.229 98.5001 249.178L97.7338 248.776C96.6535 250.837 95.6207 252.917 94.6377 255.015L95.421 255.383ZM101.846 243.112C103.001 241.118 104.2 239.146 105.443 237.191L104.713 236.725C103.464 238.689 102.258 240.674 101.097 242.677L101.846 243.112ZM109.268 231.436C110.578 229.546 111.929 227.68 113.318 225.835L112.627 225.314C111.231 227.167 109.874 229.044 108.557 230.943L109.268 231.436ZM117.582 220.39C119.036 218.604 120.526 216.844 122.05 215.108L121.4 214.536C119.869 216.281 118.372 218.05 116.911 219.843L117.582 220.39ZM126.712 209.994C128.297 208.318 129.913 206.671 131.56 205.051L130.954 204.432C129.299 206.06 127.675 207.717 126.084 209.399L126.712 209.994ZM136.586 200.282C138.29 198.723 140.022 197.195 141.781 195.696L141.221 195.038C139.453 196.541 137.713 198.078 136.002 199.643L136.586 200.282ZM147.14 191.297C148.954 189.864 150.792 188.461 152.655 187.093L152.143 186.396C150.272 187.768 148.425 189.178 146.603 190.62L147.14 191.297ZM158.32 183.088C160.235 181.784 162.172 180.518 164.129 179.29L163.669 178.556C161.703 179.79 159.757 181.063 157.834 182.371L158.32 183.088ZM170.076 175.707C172.084 174.549 174.111 173.429 176.154 172.349L175.751 171.583C173.697 172.667 171.661 173.793 169.643 174.958L170.076 175.707ZM182.358 169.227C184.445 168.227 186.547 167.27 188.662 166.356L188.32 165.562C186.194 166.48 184.081 167.441 181.984 168.446L182.358 169.227H182.358ZM195.075 163.743C197.235 162.914 199.407 162.13 201.59 161.396L201.314 160.576C199.12 161.314 196.937 162.1 194.765 162.934L195.075 163.743ZM208.198 159.333C210.421 158.69 212.652 158.101 214.889 157.562L214.687 156.72C212.437 157.261 210.193 157.854 207.958 158.5L208.198 159.333H208.198ZM221.653 156.101C223.925 155.666 226.2 155.287 228.478 154.964L228.357 154.107C226.066 154.432 223.775 154.813 221.491 155.25L221.653 156.101ZM235.366 154.167C237.67 153.96 239.974 153.81 242.278 153.724L242.246 152.86C239.927 152.946 237.608 153.096 235.289 153.304L235.366 154.167ZM249.194 153.652C251.503 153.693 253.807 153.795 256.104 153.964L256.167 153.1C253.854 152.931 251.533 152.827 249.21 152.788L249.194 153.652ZM262.984 154.67C265.266 154.973 267.542 155.341 269.807 155.78L269.971 154.93C267.689 154.488 265.396 154.115 263.096 153.812L262.984 154.67ZM276.55 157.298C278.774 157.87 280.987 158.513 283.185 159.225L283.451 158.402C281.236 157.683 279.005 157.036 276.764 156.458L276.55 157.298ZM289.686 161.561C291.819 162.403 293.934 163.315 296.035 164.3L296.403 163.514C294.287 162.522 292.152 161.604 290.004 160.756L289.686 161.561ZM302.2 167.426C304.208 168.521 306.196 169.688 308.165 170.925L308.626 170.191C306.642 168.946 304.638 167.77 302.616 166.666L302.2 167.426ZM313.908 174.776C315.765 176.103 317.601 177.497 319.416 178.961L319.959 178.286C318.131 176.813 316.282 175.408 314.41 174.072L313.908 174.778V174.776ZM324.68 183.449C325.779 184.438 326.869 185.456 327.948 186.502C328.541 187.075 329.136 187.641 329.731 188.199L330.322 187.569C329.731 187.013 329.14 186.448 328.55 185.878C327.462 184.828 326.365 183.802 325.259 182.806L324.68 183.449ZM334.886 192.858C336.66 194.397 338.441 195.878 340.23 197.305L340.768 196.627C338.99 195.209 337.218 193.735 335.453 192.204L334.886 192.858ZM345.755 201.52C347.65 202.902 349.551 204.224 351.46 205.491L351.938 204.77C350.04 203.51 348.15 202.194 346.265 200.819L345.755 201.52ZM357.333 209.206C359.341 210.414 361.352 211.562 363.371 212.655L363.782 211.893C361.776 210.806 359.775 209.665 357.779 208.466L357.333 209.206ZM369.556 215.829C371.659 216.849 373.766 217.814 375.875 218.726L376.219 217.929C374.118 217.024 372.024 216.065 369.932 215.049L369.556 215.829ZM382.317 221.341C384.498 222.172 386.681 222.952 388.866 223.681L389.14 222.861C386.966 222.133 384.794 221.358 382.627 220.531L382.317 221.341ZM395.503 225.753C397.74 226.403 399.979 227.005 402.216 227.565L402.425 226.725C400.199 226.167 397.971 225.567 395.745 224.92L395.503 225.753ZM408.991 229.133C411.267 229.618 413.541 230.064 415.814 230.473L415.968 229.62C413.703 229.213 411.438 228.769 409.171 228.286L408.991 229.133ZM422.674 231.603C424.976 231.947 427.271 232.259 429.564 232.543L429.671 231.683C427.384 231.399 425.095 231.09 422.804 230.746L422.674 231.603ZM436.474 233.316C438.787 233.549 441.095 233.757 443.397 233.946L443.466 233.082C441.171 232.893 438.869 232.686 436.561 232.454L436.474 233.316ZM450.328 234.454C452.649 234.608 454.962 234.744 457.266 234.87L457.311 234.004C455.012 233.881 452.701 233.742 450.384 233.59L450.328 234.454ZM464.204 235.216C466.529 235.325 468.844 235.426 471.144 235.524L471.181 234.66C468.881 234.56 466.568 234.459 464.245 234.353L464.204 235.216ZM478.082 235.82C480.409 235.922 482.722 236.026 485.017 236.139L485.06 235.273C482.761 235.16 480.448 235.056 478.12 234.957L478.082 235.82ZM491.946 236.511C494.274 236.647 496.58 236.801 498.869 236.974L498.934 236.111C496.641 235.937 494.328 235.784 491.998 235.645L491.946 236.511ZM505.777 237.568C508.096 237.795 510.391 238.048 512.66 238.338L512.771 237.479C510.49 237.189 508.187 236.933 505.859 236.706L505.777 237.568ZM519.512 239.332C521.807 239.709 524.074 240.129 526.311 240.601L526.488 239.754C524.238 239.28 521.96 238.856 519.652 238.477L519.512 239.332ZM533.032 242.203C535.269 242.8 537.474 243.461 539.639 244.19L539.916 243.37C537.731 242.634 535.509 241.969 533.255 241.365L533.032 242.203ZM546.105 246.624C548.221 247.509 550.296 248.475 552.329 249.527L552.727 248.756C550.672 247.695 548.576 246.719 546.439 245.825L546.105 246.624ZM558.298 252.943C560.221 254.158 562.101 255.463 563.938 256.871L564.466 256.182C562.607 254.76 560.706 253.439 558.761 252.209L558.298 252.943ZM569.199 261.292C570.858 262.816 572.474 264.437 574.049 266.163L574.687 265.578C573.097 263.836 571.462 262.197 569.785 260.653L569.199 261.292ZM578.469 271.43C579.84 273.208 581.173 275.076 582.469 277.042L583.191 276.566C581.885 274.583 580.539 272.695 579.155 270.902L578.469 271.43ZM586.064 282.942C586.149 283.093 586.233 283.243 586.317 283.394C587.432 285.388 588.433 287.46 589.312 289.599L590.11 289.27C589.221 287.101 588.204 284.994 587.075 282.97C586.988 282.818 586.904 282.667 586.819 282.517L586.064 282.942Z" fill="#E4E4E4"/>
<path d="M585.268 390.012H78.1655C94.0357 272.669 201.493 181.903 331.717 181.903C461.932 181.903 569.398 272.669 585.268 390.012Z" fill="#F6F5F5"/>
<path d="M519.168 388.981H328.431C319.55 388.981 312.351 381.776 312.351 372.889V99.0812C312.351 90.1939 319.55 82.9888 328.431 82.9888H519.168C528.046 82.9888 535.245 90.1939 535.245 99.0812V372.889C535.245 381.776 528.046 388.981 519.168 388.981Z" fill="#A9BAE6"/>
<path d="M515.955 95.3206V362.023H332.496V95.3206H515.955Z" fill="#F6F5F5"/>
<path d="M515.955 95.3228C516.011 199.321 519.367 324.75 507.693 352.52C456.279 357.535 396.076 359.143 332.494 359.442L356.662 96.1259L515.955 95.3228Z" fill="#E4E4E4"/>
<path d="M499.477 344.116C419.338 356.952 365.776 357.63 322.337 354.402C327.968 294.429 330.224 194.802 332.494 95.3336L429.063 95.5479L516.461 101.322C517.733 204.56 517.874 299.922 499.477 344.116Z" fill="white"/>
<path d="M470.815 136.902L374.304 134.628L374.65 119.917L471.161 122.19L470.815 136.902Z" fill="#708CD5"/>
<path d="M489.766 158.19L402.713 156.14L402.555 162.875L489.608 164.925L489.766 158.19Z" fill="#708CD5"/>
<path d="M461.539 172.217L402.369 170.823L402.209 177.556L461.381 178.95L461.539 172.217Z" fill="#D3DFFF"/>
<path d="M374.797 176.515L354.19 176.03L354.674 155.406L375.284 155.891L374.797 176.515Z" fill="white"/>
<path d="M374.798 176.515L374.815 175.865L354.854 175.395L355.308 156.07L374.62 156.525L374.151 176.499L374.798 176.515L374.815 175.865L374.798 176.515L375.447 176.53L375.948 155.256L354.043 154.741L353.526 176.664L375.431 177.179L375.447 176.53L374.798 176.515Z" fill="#708CD5"/>
<path d="M358.034 160.831C358.67 163.269 359.845 173.481 364.954 170.626C366.133 169.968 367.131 168.227 368.013 167.225C369.597 165.425 371.18 163.624 372.766 161.825C375.935 158.225 379.105 154.622 382.272 151.022C383.085 150.099 379.498 147.785 378.48 148.943C375.663 152.143 372.846 155.345 370.03 158.545C368.621 160.145 367.213 161.745 365.802 163.347C364.827 164.458 362.566 168.039 361.114 168.357C361.904 168.612 362.694 168.866 363.481 169.121C364.039 169.578 363.003 166.335 362.981 166.246C362.588 164.741 362.194 163.234 361.8 161.728C361.476 160.485 357.554 158.989 358.034 160.831Z" fill="#EE6F57"/>
<path d="M473.517 195.324L401.833 193.635L401.675 200.371L473.359 202.059L473.517 195.324Z" fill="#708CD5"/>
<path d="M488.539 210.369L401.487 208.318L401.329 215.054L488.381 217.104L488.539 210.369Z" fill="#D3DFFF"/>
<path d="M373.917 214.01L353.309 213.525L353.794 192.901L374.402 193.386L373.917 214.01Z" fill="white"/>
<path d="M373.917 214.01L373.932 213.361L353.973 212.891L354.428 193.566L373.737 194.021L373.268 213.995L373.917 214.01L373.932 213.361L373.917 214.01L374.566 214.025L375.066 192.752L353.16 192.237L352.645 214.16L374.551 214.675L374.566 214.025L373.917 214.01Z" fill="#708CD5"/>
<path d="M357.138 198.909C357.774 201.347 358.949 211.559 364.059 208.704C365.238 208.046 366.235 206.305 367.118 205.303C368.701 203.503 370.287 201.702 371.871 199.903C375.04 196.301 378.209 192.7 381.378 189.1C382.19 188.177 378.603 185.863 377.584 187.021C374.767 190.221 371.951 193.423 369.134 196.623C367.726 198.223 366.317 199.823 364.909 201.423C363.931 202.534 361.67 206.117 360.221 206.435C361.008 206.688 361.798 206.944 362.586 207.199C363.144 207.656 362.107 204.413 362.086 204.324C361.692 202.819 361.298 201.313 360.907 199.806C360.58 198.563 356.658 197.067 357.138 198.909Z" fill="#EE6F57"/>
<path d="M488.003 233.183L400.95 231.133L400.792 237.866L487.845 239.917L488.003 233.183Z" fill="#708CD5"/>
<path d="M439.535 246.732L400.604 245.814L400.446 252.549L439.377 253.465L439.535 246.732Z" fill="#D3DFFF"/>
<path d="M373.034 251.506L352.427 251.021L352.911 230.397L373.519 230.882L373.034 251.506Z" fill="white"/>
<path d="M373.034 251.506L373.05 250.858L353.091 250.387L353.545 231.062L372.855 231.516L372.385 251.491L373.034 251.506L373.05 250.858L373.034 251.506L373.683 251.521L374.183 230.248L352.277 229.732L351.762 251.655L373.668 252.17L373.683 251.521L373.034 251.506Z" fill="#708CD5"/>
<path d="M356.537 236.671C357.173 239.109 358.348 249.321 363.457 246.466C364.636 245.808 365.634 244.067 366.514 243.064C368.1 241.265 369.683 239.464 371.269 237.665C374.436 234.065 377.606 230.462 380.775 226.862C381.586 225.939 378.001 223.625 376.982 224.783C374.166 227.983 371.347 231.185 368.53 234.385C367.122 235.985 365.714 237.585 364.305 239.187C363.328 240.298 361.069 243.879 359.617 244.197C360.407 244.452 361.194 244.706 361.984 244.961C362.54 245.418 361.506 242.175 361.482 242.086C361.091 240.581 360.697 239.074 360.303 237.568C359.979 236.325 356.054 234.829 356.537 236.671Z" fill="#EE6F57"/>
<path d="M487.12 270.679L400.07 268.629L399.909 275.362L486.962 277.412L487.12 270.679Z" fill="#708CD5"/>
<path d="M468.492 284.931L399.723 283.31L399.566 290.045L468.334 291.664L468.492 284.931Z" fill="#D3DFFF"/>
<path d="M372.154 289.004L351.544 288.517L352.031 267.893L372.638 268.378L372.154 289.004Z" fill="white"/>
<path d="M372.154 289.004L372.169 288.354L352.208 287.882L352.664 268.557L371.974 269.012L371.505 288.988L372.154 289.004L372.169 288.354L372.154 289.004L372.803 289.019L373.303 267.743L351.397 267.228L350.88 289.151L372.788 289.668L372.803 289.019L372.154 289.004Z" fill="#708CD5"/>
<path d="M355.661 273.922C356.297 276.36 357.471 286.57 362.581 283.715C363.76 283.056 364.757 281.316 365.638 280.315C367.224 278.514 368.807 276.715 370.393 274.914C373.562 271.313 376.729 267.713 379.899 264.113C380.712 263.19 377.125 260.874 376.106 262.034C373.29 265.234 370.471 268.434 367.654 271.636C366.246 273.236 364.838 274.836 363.429 276.436C362.451 277.546 360.193 281.13 358.741 281.446C359.531 281.701 360.318 281.957 361.108 282.21C361.664 282.669 360.63 279.426 360.606 279.337C360.214 277.83 359.821 276.325 359.427 274.819C359.103 273.574 355.178 272.078 355.661 273.922Z" fill="#EE6F57"/>
<path d="M433.701 306.653L399.193 305.841L399.036 312.574L433.543 313.388L433.701 306.653Z" fill="#708CD5"/>
<path d="M485.9 322.574L398.847 320.524L398.689 327.257C432.37 328.047 475.252 329.628 484.003 328.283C485.331 326.772 486.047 324.917 485.9 322.574Z" fill="#D3DFFF"/>
<path d="M371.565 326.222L350.958 325.737L351.442 305.111L372.052 305.598L371.565 326.222Z" fill="white"/>
<path d="M371.566 326.222L371.581 325.573L351.622 325.103L352.076 305.776L371.388 306.231L370.917 326.207L371.566 326.222L371.581 325.573L371.566 326.222L372.215 326.237L372.716 304.964L350.811 304.447L350.293 326.369L372.199 326.887L372.215 326.237L371.566 326.222Z" fill="#708CD5"/>
<path d="M354.793 310.846C355.429 313.284 356.604 323.494 361.714 320.639C362.89 319.98 363.89 318.24 364.77 317.24C366.354 315.438 367.94 313.637 369.523 311.838C372.693 308.238 375.862 304.637 379.031 301.037C379.842 300.112 376.258 297.798 375.237 298.956C372.42 302.158 369.603 305.358 366.787 308.558C365.378 310.16 363.97 311.76 362.562 313.36C361.584 314.471 359.323 318.051 357.874 318.37C358.663 318.625 359.451 318.881 360.24 319.134C360.796 319.593 359.762 316.348 359.739 316.261C359.345 314.754 358.951 313.247 358.56 311.743C358.235 310.498 354.311 309.002 354.793 310.846Z" fill="#EE6F57"/>
<path d="M465.117 84.842V105.427H382.477V84.842C382.477 81.5599 383.81 78.5895 385.956 76.4332C386.224 76.1647 386.501 75.9135 386.795 75.6797C388.846 73.9737 391.485 72.9518 394.358 72.9518C396.513 72.9518 398.581 72.4582 400.433 71.5662C401.238 71.1765 401.999 70.7176 402.717 70.1893C405.08 68.44 406.888 65.9545 407.788 62.9928C408.706 59.9705 410.583 57.4418 413.015 55.6838C415.351 54.0038 418.198 53.0338 421.218 53.0338H426.376C429.396 53.0338 432.243 54.0038 434.579 55.6838C437.011 57.4418 438.888 59.9705 439.806 62.9928C440.706 65.9545 442.514 68.44 444.876 70.1893C445.595 70.7176 446.356 71.1765 447.161 71.5662C449.013 72.4582 451.081 72.9518 453.236 72.9518C456.109 72.9518 458.748 73.9737 460.799 75.6797C463.438 77.8534 465.117 81.1528 465.117 84.842Z" fill="#EE6F57"/>
<path d="M471.823 95.3206V110.623H375.771V95.3206H382.477V105.427H465.117V95.3206H471.823Z" fill="#E4E4E4"/>
<path d="M431.129 65.3721C431.129 69.2237 427.847 72.3456 423.799 72.3456C419.749 72.3456 416.468 69.2237 416.468 65.3721C416.468 61.5228 419.749 58.4008 423.799 58.4008C427.847 58.4008 431.129 61.5228 431.129 65.3721Z" fill="white"/>
<path d="M265.424 161.745C262.492 161.189 259.754 156.289 258.802 154.41C258.568 153.949 258.495 153.427 258.59 152.918L259.758 146.731C259.758 146.731 262.449 147.188 262.241 150.775C262.22 151.147 262.296 151.52 262.427 151.868L263.459 154.566L266.505 152.206L264.835 147.484C264.835 147.484 262.598 148.099 261.443 147.731C259.074 146.973 262.181 145.124 263.163 144.927C264.147 144.73 266.309 143.944 267.291 145.616C268.275 147.287 268.863 148.272 268.863 148.272C268.863 148.272 269.945 144.533 269.207 136.174C269.175 135.797 270.116 135.806 270.38 136.077C271.172 136.882 272.433 139.335 272.5 146.796C272.5 146.796 272.632 138.101 274.12 137.207C275.349 136.469 275.97 140.725 275.105 147.941C275.105 147.941 276.708 141.693 277.856 141.682C279.793 141.662 277.88 158.37 273.013 163.349L265.424 161.745Z" fill="#F9B384"/>
<path d="M274.614 159.188C274.527 160.019 274.432 160.825 274.328 161.604V161.613C273.982 164.384 273.549 166.861 273.047 168.983C273.021 169.086 273.004 169.182 272.978 169.277C271.498 175.348 271.23 178.318 266.177 177.521L260.976 171.598L260.924 171.537L260.543 171.104L261.599 167.987L261.737 167.58L262.516 165.311L262.611 165.016L263.944 161.111L264.48 159.526L274.614 159.188Z" fill="#F9B384"/>
<path d="M177.997 374.878L176.673 379.02C167.596 382.003 162.302 385.422 161.962 389.412H188.211L190.315 375.547C184.999 376.846 180.739 375.944 177.997 374.878Z" fill="#1F3C88"/>
<path d="M181.288 364.586L177.997 374.878C180.739 375.944 184.999 376.846 190.315 375.547L191.672 366.606L181.288 364.586Z" fill="#F9B384"/>
<path d="M226.164 374.419L226.934 363.936L214.603 364.586L213.93 374.251C219.15 375.915 223.466 375.264 226.164 374.419Z" fill="#F9B384"/>
<path d="M240.995 389.412C240.656 385.422 236.02 379.957 225.852 378.658L226.164 374.419C223.466 375.264 219.15 375.915 213.93 374.25L212.873 389.412H240.995Z" fill="#1F3C88"/>
<path d="M216.169 164.436L201.294 164.54V142.024H215.72L215.728 143.401L215.797 150.537L215.901 161.994L216.169 164.436Z" fill="#F9B384"/>
<path d="M215.798 151.619C213.124 154.434 206.149 151.256 203.207 148.155L215.728 144.483L215.798 151.619Z" fill="#E28B6D"/>
<path d="M219.25 136.828C219.241 138.491 219.137 140.231 218.86 141.894C218.133 146.432 216.213 150.355 211.782 150.476C201.312 150.779 198.326 144.787 196.353 139.885C194.38 134.975 197.582 123.171 197.582 123.171L211.133 121.829L218.575 127.934C218.575 127.934 219.293 132.082 219.25 136.828Z" fill="#F9B384"/>
<path d="M196.776 137.077C196.776 137.077 199.763 136.941 200.273 129.224C205.615 131.013 209.518 129.383 212.611 125.821C215.25 129.309 222.637 130.402 225.132 123.26C226.934 118.101 221.958 110.415 214.711 115.07C207.609 111.478 196.836 111.725 193.736 120.534C193.736 120.534 182.959 125.507 194.37 136.456C194.599 136.674 196.776 137.077 196.776 137.077Z" fill="#102048"/>
<path d="M237.969 245.359L229.746 369.782H210.421L215.252 249.046L218.209 247.676L237.969 245.359Z" fill="#102048"/>
<path d="M187.634 228.336L174.077 369.782H195.133L215.18 252.294L237.967 245.366L238.977 220.252L188.211 219.098L187.634 228.336Z" fill="#1F3C88"/>
<path d="M233.661 220.131H233.65L233.64 220.089L233.661 220.131Z" fill="#6C758D"/>
<path d="M203.87 230.191C204.144 228.925 204.4 227.661 204.636 226.405C204.881 226.407 205.124 226.409 205.368 226.409C206.412 226.409 207.452 226.381 208.485 226.329C211.791 226.173 215.036 225.757 218.151 225.143C223.368 224.129 228.266 222.597 232.567 220.847C232.956 220.7 233.337 220.536 233.709 220.38L233.651 220.131H233.662L234.743 222.3C230.787 226.364 216.17 229.912 203.87 230.191Z" fill="#162B62"/>
<path d="M233.709 220.38C233.337 220.536 232.956 220.7 232.567 220.847C228.266 222.597 223.369 224.129 218.151 225.143C215.036 225.757 211.791 226.173 208.485 226.329C203.501 226.58 198.378 226.251 193.307 225.099L199.754 164.947L200.542 157.612C200.542 157.612 208.979 168.004 218.28 156.529L233.709 220.38Z" fill="white"/>
<path d="M205.368 226.409C205.124 226.409 204.881 226.407 204.636 226.405C208.655 205.032 207.299 185.023 203.523 165.555C208.665 180.665 213.127 207.844 208.485 226.329C207.452 226.381 206.412 226.409 205.368 226.409Z" fill="#BBC4DB"/>
<path d="M201.299 155.23C207.709 182.466 210.346 210.492 200.902 241.614C193.899 244.279 186.274 244.249 178.115 241.902L180.134 185.324L132.613 218.015L129.729 200.191C147.996 182.709 179.58 156.302 201.299 155.23Z" fill="#708CD5"/>
<path d="M218.151 225.143C215.287 208.706 214.655 181.704 216.982 169.519L232.567 220.847C228.266 222.597 223.369 224.129 218.151 225.143Z" fill="#BBC4DB"/>
<path d="M267.639 177.649C267.202 177.649 266.717 177.606 266.177 177.521L260.976 171.598L260.924 171.537L261.599 167.987L261.737 167.58L262.516 165.311L262.611 165.016L273.047 168.983C273.021 169.086 273.004 169.182 272.978 169.277C271.656 174.698 271.301 177.649 267.639 177.649Z" fill="#EB9B76"/>
<path d="M272.147 174.499C272.147 174.499 259.384 201.561 251.812 202.211C244.472 202.841 240.995 195.716 240.995 195.716L246.187 235.266C240.087 238.124 233.432 239.518 225.705 238.15C218.843 215.85 216.25 187.017 215.739 154.906C221.294 155.252 232.297 155.726 236.236 158.261C243.304 162.808 252.028 179.045 252.028 179.045L262.196 165.189L272.147 174.499Z" fill="#708CD5"/>
<path d="M116.548 136.367C116.548 136.367 117.321 123.422 118.637 124.033C119.954 124.643 122.594 135.899 122.594 135.899L119.771 140.461L116.548 136.367Z" fill="#6F3428"/>
<path d="M155.392 370.144L155.775 374.404C156.45 381.925 150.904 388.572 143.389 389.247L142.294 389.345C134.779 390.02 128.138 384.471 127.463 376.95L127.08 372.69L155.392 370.144Z" fill="#EE6F57"/>
<path d="M136.87 163.828L155.392 370.144L127.08 372.69L108.558 166.372L136.87 163.828Z" fill="#FBC343"/>
<path d="M116.822 165.629L116.374 160.63L128.152 159.571L128.601 164.57L126.877 164.726L126.583 161.451L118.252 162.2L118.546 165.475L116.822 165.629Z" fill="#D4C2BE"/>
<path d="M132.763 343.198L116.822 165.629L118.546 165.475L134.332 341.317L142.664 340.567L126.877 164.726L128.601 164.57L144.465 341.275L143.603 341.353L144.465 341.275L144.542 342.139L132.763 343.198Z" fill="#D1983B"/>
<path d="M155.389 370.146L127.084 372.692L126.339 364.378L125.82 358.602L124.219 340.849L152.533 338.303L154.125 356.056L154.644 361.832L155.389 370.146Z" fill="#102048"/>
<path d="M154.644 361.832L126.339 364.378L125.82 358.602L154.125 356.056L154.644 361.832Z" fill="#FBC343"/>
<path d="M108.555 166.374L116.419 134.83C116.419 134.83 119.133 136.036 122.426 134L136.869 163.828L108.555 166.374Z" fill="#EE6F57"/>
<path d="M198.342 135.771C198.215 135.306 196.102 134.667 195.637 134.54C194.917 134.34 194.132 134.243 193.43 134.559C190.875 135.715 191.216 139.376 192.54 141.301C193.29 142.39 194.388 143.23 195.665 143.596C196.129 143.728 200.525 143.782 200.332 143.074L198.342 135.771Z" fill="#F9B384"/>
<path d="M117.902 209.355C117.238 207.268 115.053 206.099 112.986 206.814C109.765 207.927 106.96 209.814 106.525 213.027C106.129 215.952 107.591 225.294 114.12 226.496L113.587 221.694C113.587 221.694 117.585 220.761 118.385 219.027C118.944 217.814 118.981 212.746 117.902 209.355Z" fill="#F9B384"/>
<path d="M239.001 177.223C239.345 179.266 239.637 181.317 239.916 183.369C240.208 185.419 240.437 187.478 240.701 189.533L241.372 195.707C241.566 197.771 241.759 199.832 241.884 201.904L241.549 201.943C241.194 199.899 240.907 197.846 240.621 195.796L239.849 189.632C239.632 187.571 239.381 185.517 239.191 183.453C238.99 181.392 238.802 179.329 238.665 177.262L239.001 177.223Z" fill="#1F3C88"/>
<path d="M180.808 176.889C180.803 179.184 180.747 181.479 180.679 183.772C180.621 186.064 180.503 188.357 180.418 190.648L180.043 197.519C179.89 199.81 179.732 202.098 179.51 204.385L179.172 204.367C179.166 202.072 179.225 199.778 179.288 197.485L179.562 190.609C179.693 188.318 179.791 186.025 179.95 183.737C180.098 181.449 180.258 179.158 180.47 176.872L180.808 176.889Z" fill="#1F3C88"/>
<path d="M208.844 135.557C209.026 136.373 208.69 137.144 208.093 137.278C207.495 137.413 206.863 136.858 206.68 136.042C206.497 135.226 206.833 134.455 207.431 134.321C208.028 134.187 208.661 134.741 208.844 135.557Z" fill="#102048"/>
<path d="M217.469 134.548C217.432 135.384 216.909 136.04 216.297 136.014C215.685 135.988 215.218 135.291 215.253 134.453C215.289 133.617 215.813 132.961 216.424 132.987C217.036 133.013 217.504 133.71 217.469 134.548Z" fill="#102048"/>
<path d="M212.659 135.232C212.956 135.949 212.909 136.72 213.101 137.306C213.198 137.603 213.333 137.865 213.52 138.027C213.693 138.185 213.975 138.287 214.332 138.426C214.699 138.569 215.09 138.822 215.357 139.201C215.64 139.567 215.718 140.201 215.462 140.617C215.232 141.032 214.901 141.262 214.616 141.472C214.319 141.673 214.034 141.885 213.725 142.074L213.503 141.818C213.73 141.539 213.98 141.284 214.218 141.017C214.464 140.762 214.69 140.515 214.777 140.288C214.96 139.887 214.568 139.448 214 139.222C213.707 139.088 213.286 138.971 212.945 138.623C212.617 138.287 212.455 137.869 212.39 137.477C212.247 136.674 212.411 135.988 212.333 135.321L212.659 135.232Z" fill="#E28B6D"/>
<path d="M204.715 133.364C204.843 132.851 205.155 132.364 205.598 132.015C206.034 131.651 206.603 131.457 207.167 131.426C208.303 131.357 209.428 132.004 209.895 132.961L209.63 133.171C208.879 132.58 208.051 132.258 207.208 132.288C206.363 132.31 205.595 132.745 205.022 133.507L204.715 133.364Z" fill="#102048"/>
<path d="M213.646 132.303C213.774 131.903 213.999 131.522 214.326 131.21C214.645 130.889 215.09 130.677 215.554 130.601C216.483 130.448 217.482 130.92 217.848 131.747L217.577 131.95C216.969 131.541 216.306 131.368 215.681 131.454C215.368 131.496 215.071 131.613 214.777 131.786C214.488 131.965 214.225 132.21 213.938 132.476L213.646 132.303Z" fill="#102048"/>
<path d="M208.859 143.62C210.37 145.986 212.384 146.244 213.938 143.754L208.859 143.62Z" fill="white"/>
<path d="M218.86 141.894C218.862 141.885 218.864 141.877 218.864 141.868C218.864 141.877 218.862 141.885 218.86 141.894ZM219.172 139.14C219.221 138.363 219.245 137.588 219.25 136.828C219.252 136.637 219.252 136.447 219.252 136.256C219.265 136.254 219.278 136.252 219.291 136.25C219.286 137.101 219.245 138.123 219.172 139.14Z" fill="#FECFC9"/>
<path d="M218.86 141.894C217.813 141.556 217.052 140.578 217.052 139.409C217.052 138.114 218.032 136.484 219.252 136.256C219.252 136.447 219.252 136.637 219.25 136.828C219.245 137.588 219.221 138.363 219.172 139.14C219.1 140.104 218.999 141.061 218.864 141.868C218.864 141.877 218.862 141.885 218.86 141.894Z" fill="#FAA280"/>
<path d="M205.171 143.747C203.63 143.747 202.38 142.498 202.38 140.957C202.38 139.413 203.63 138.164 205.171 138.164C206.712 138.164 207.962 139.413 207.962 140.957C207.962 142.498 206.712 143.747 205.171 143.747Z" fill="#FAA280"/>
<path d="M196.513 138.553C195.962 138.179 195.456 137.77 194.953 137.525C194.703 137.404 194.471 137.33 194.264 137.348C194.056 137.363 193.815 137.484 193.545 137.677L193.26 137.493C193.378 137.148 193.627 136.761 194.083 136.609C194.536 136.451 194.995 136.579 195.335 136.754C196.024 137.131 196.495 137.685 196.782 138.35L196.513 138.553Z" fill="#E28B6D"/>
<path d="M114.368 231.239L113.967 226.617L114.379 231.209L114.368 231.239Z" fill="#A9857E"/>
<path d="M114.379 231.209L113.967 226.617L113.953 226.463C114.009 226.474 114.064 226.485 114.12 226.496L113.587 221.694C113.587 221.694 113.728 221.661 113.961 221.596C114.626 221.43 115.205 221.228 115.714 220.999C116.806 220.549 117.988 219.886 118.385 219.027L114.379 231.209Z" fill="#A76D33"/>
<path d="M114.12 226.496C114.064 226.485 114.009 226.474 113.953 226.463L113.539 221.696C113.683 221.664 113.824 221.631 113.961 221.596C113.728 221.661 113.587 221.694 113.587 221.694L114.12 226.496ZM115.714 220.999C116.915 220.46 117.732 219.771 118.384 219.027C117.988 219.886 116.806 220.549 115.714 220.999Z" fill="#A6674D"/>
<path opacity="0.1" d="M52.012 390.356H611.424V388.624H52.012V390.356Z" fill="#102048"/>
</svg>
