<svg width="522" height="347" viewBox="0 0 522 347" fill="none" xmlns="http://www.w3.org/2000/svg">
<path d="M447.749 319.391C421.964 319.391 73.3591 318.641 73.3591 318.6C73.2154 318.261 29.105 264.355 84.6487 207.993C112.17 180.067 59.3756 143.885 84.6487 112.822C112.757 78.2728 140.673 78.788 166.564 79.3033C180.549 79.5827 193.945 79.862 206.461 74.6119C212.767 71.9712 219.094 67.7187 225.427 61.1934C228.992 57.5256 232.899 54.3159 237.082 51.5451C237.724 51.1183 238.371 50.7019 239.025 50.2976C241.531 48.7483 244.127 47.3499 246.801 46.0902C248.599 45.2453 250.429 44.4628 252.295 43.7462H252.296C255.254 42.6046 258.294 41.6209 261.398 40.7898C265.806 39.6083 270.345 38.7304 274.974 38.1353C276.992 37.8733 279.028 37.6685 281.078 37.5141C320.952 34.5247 365.823 51.3369 388.98 75.9097C393.642 80.8579 414.842 106.46 398.131 141.651C387.58 163.869 431.781 185.088 447.49 210.459C487.423 274.964 448.111 318.549 447.749 319.391Z" fill="#EBF3FA"/>
<path d="M334.059 196.574L322.674 179.559L315.843 154.12L315.789 153.917H305.52L286.994 126.228C288.729 126.535 291.08 128.019 294.076 130.035C295.172 130.772 296.002 131.077 296.656 131.077C299.094 131.077 299.099 126.844 301.46 125.021C302.017 124.59 302.739 124.424 303.547 124.424C304.932 124.424 306.572 124.915 308.078 125.404C309.583 125.895 310.95 126.384 311.792 126.384C312.257 126.384 312.56 126.235 312.636 125.852C313.07 123.683 309.899 122.534 307.15 121.717C304.399 120.9 303.362 119.809 305.883 115.357C308.401 110.905 305.436 112.156 303.606 106.841C302.774 104.426 301.203 103.22 299.738 102.629C298.475 102.885 297.218 103.193 295.981 103.547C293.385 104.287 290.855 105.233 288.417 106.371C284.718 108.096 281.228 110.263 278.031 112.832C281.228 110.263 284.718 108.096 288.417 106.371C290.855 105.233 293.385 104.287 295.981 103.547C297.218 103.193 298.475 102.885 299.738 102.629C303.059 101.947 306.465 101.595 309.905 101.595C315.65 101.595 321.495 102.577 327.211 104.648C328.422 105.087 329.607 105.568 330.762 106.088C332.394 106.82 333.969 107.629 335.484 108.512C341.868 112.223 347.21 117.204 351.306 123.001L351.308 123.003C353.86 126.613 355.928 130.538 357.457 134.674C358.261 136.845 358.917 139.074 359.415 141.343C359.726 142.757 359.978 144.184 360.168 145.627C360.624 149.092 360.718 152.626 360.431 156.178C360.086 155.839 359.688 155.59 359.239 155.44C359.239 155.44 360.036 154.12 353.685 152.354C347.334 150.589 350.045 143.524 344.287 141.973C343.182 141.677 342.269 141.56 341.479 141.56C340.158 141.56 339.189 141.883 338.263 142.206C337.339 142.528 336.459 142.849 335.312 142.849C334.729 142.849 334.077 142.766 333.315 142.556C332.037 142.204 330.786 142.013 329.657 142.013C326.682 142.013 324.581 143.349 325.246 146.606C326.165 151.098 320.917 149.999 321.931 155.329C322.948 160.661 329.018 160.984 334.007 161.317C338.997 161.65 331.232 167.821 334.548 172.376C337.865 176.932 344.442 177.706 340.901 180.043C337.358 182.381 330.63 187.184 335.707 191.707C336.786 192.67 338.068 193.145 339.478 193.189C337.743 194.431 335.932 195.562 334.059 196.574ZM349.827 139.157C352.072 139.157 353.192 140.785 354.395 142.41C355.599 144.038 356.886 145.664 359.468 145.664C359.691 145.664 359.924 145.651 360.168 145.627C359.978 144.184 359.726 142.757 359.415 141.343C358.917 139.074 358.261 136.845 357.457 134.674C355.928 130.538 353.86 126.613 351.308 123.003L351.306 123.001C350.988 122.918 350.671 122.876 350.36 122.876C350.342 122.876 350.325 122.876 350.307 122.876C350.307 122.876 348.252 121.747 346.198 121.747C345.12 121.747 344.045 122.057 343.266 123.006C341.005 125.763 336.18 122.763 334.425 126.596C332.669 130.43 341.308 128.378 343.873 132.167C346.291 135.745 344.454 139.215 348.592 139.215C348.839 139.215 349.105 139.202 349.396 139.176C349.544 139.164 349.688 139.157 349.827 139.157ZM312.567 107.476C310.545 107.476 309.468 109.376 310.604 112.241C311.874 115.436 312.093 120.421 314.246 120.421C314.59 120.421 314.984 120.293 315.438 120.012C318.34 118.211 318.968 116.195 320.943 116.195C321.216 116.195 321.516 116.233 321.851 116.316C321.851 116.316 325.958 113.419 322.097 110.726C318.236 108.031 317.769 109.557 314.573 107.999C313.844 107.643 313.164 107.476 312.567 107.476Z" fill="#DBE8FE"/>
<path d="M296.656 131.078C296.002 131.078 295.172 130.772 294.076 130.035C291.08 128.019 288.729 126.535 286.994 126.228L278.031 112.832C281.228 110.263 284.718 108.096 288.417 106.371C290.855 105.233 293.385 104.287 295.981 103.547C297.218 103.193 298.475 102.885 299.738 102.629C301.203 103.22 302.774 104.426 303.606 106.841C305.436 112.156 308.401 110.905 305.883 115.357C303.362 119.809 304.399 120.9 307.15 121.717C309.899 122.534 313.07 123.683 312.636 125.852C312.56 126.235 312.257 126.384 311.792 126.384C310.95 126.384 309.583 125.895 308.078 125.404C306.572 124.915 304.932 124.424 303.547 124.424C302.739 124.424 302.017 124.59 301.46 125.021C299.099 126.844 299.094 131.078 296.656 131.078Z" fill="#BACDFE"/>
<path d="M339.478 193.189C338.068 193.145 336.786 192.67 335.707 191.707C330.63 187.184 337.358 182.381 340.901 180.043C344.442 177.706 337.865 176.932 334.548 172.376C331.232 167.821 338.997 161.65 334.007 161.317C329.019 160.984 322.948 160.661 321.932 155.329C320.917 149.999 326.165 151.098 325.246 146.606C324.582 143.349 326.682 142.013 329.657 142.013C330.786 142.013 332.037 142.204 333.315 142.556C334.077 142.766 334.729 142.849 335.312 142.849C336.459 142.849 337.339 142.528 338.263 142.206C339.189 141.883 340.158 141.56 341.479 141.56C342.269 141.56 343.182 141.677 344.287 141.973C350.045 143.524 347.334 150.589 353.685 152.354C360.036 154.12 359.239 155.44 359.239 155.44C359.688 155.59 360.086 155.839 360.431 156.178C360.074 160.598 359.122 165.047 357.528 169.416C356.465 172.334 355.159 175.1 353.64 177.692C349.994 183.913 345.134 189.144 339.478 193.189Z" fill="#BACDFE"/>
<path d="M359.468 145.664C356.886 145.664 355.598 144.038 354.394 142.41C353.192 140.785 352.071 139.157 349.826 139.157C349.687 139.157 349.543 139.164 349.395 139.176C349.104 139.202 348.838 139.215 348.591 139.215C344.453 139.215 346.291 135.745 343.872 132.167C341.307 128.378 332.668 130.43 334.424 126.596C336.18 122.763 341.005 125.763 343.265 123.006C344.044 122.057 345.12 121.747 346.197 121.747C348.252 121.747 350.307 122.876 350.307 122.876C350.324 122.876 350.341 122.876 350.359 122.876C350.67 122.876 350.987 122.918 351.305 123.001L351.307 123.003C353.86 126.613 355.927 130.538 357.456 134.674C358.26 136.845 358.916 139.074 359.414 141.343C359.725 142.757 359.978 144.184 360.167 145.627C359.924 145.651 359.69 145.664 359.468 145.664Z" fill="#BACDFE"/>
<path d="M314.245 120.421C312.093 120.421 311.874 115.436 310.603 112.241C309.467 109.376 310.544 107.476 312.566 107.476C313.163 107.476 313.843 107.643 314.572 107.999C317.769 109.557 318.235 108.032 322.096 110.726C325.957 113.419 321.851 116.316 321.851 116.316C321.515 116.233 321.216 116.195 320.942 116.195C318.967 116.195 318.339 118.211 315.437 120.012C314.983 120.293 314.59 120.421 314.245 120.421Z" fill="#BACDFE"/>
<path d="M84.8724 318.744H102.55C103.498 317.942 101.895 316.122 100.22 316.001C99.4926 315.945 98.5728 316.098 97.5219 316.318C97.2786 313.096 95.8894 298.614 90.6537 299.196C84.7668 299.848 90.6537 305.573 92.3179 308.964C93.5507 311.476 94.8511 315.076 95.4453 316.776C94.9675 316.88 94.4727 316.981 93.9672 317.073C93.187 314.686 90.2836 306.649 86.5915 307.118C82.2567 307.666 83.9991 310.888 87.0716 312.8C89.3258 314.207 92.0938 316.205 93.409 317.17C92.2946 317.352 91.1315 317.474 89.9516 317.448C86.9237 317.375 85.4456 318.265 84.8724 318.744Z" fill="#A8D29F"/>
<path d="M366.212 318.744H349.794C348.913 317.999 350.403 316.31 351.958 316.195C352.633 316.145 353.488 316.285 354.464 316.492C354.69 313.499 355.979 300.046 360.843 300.587C366.312 301.193 360.843 306.51 359.298 309.661C358.153 311.993 356.945 315.338 356.392 316.917C356.837 317.012 357.297 317.106 357.766 317.193C358.49 314.974 361.187 307.51 364.617 307.945C368.643 308.453 367.025 311.446 364.171 313.223C362.076 314.529 359.506 316.386 358.285 317.283C359.319 317.451 360.399 317.564 361.495 317.54C364.309 317.472 365.682 318.3 366.212 318.744Z" fill="#A8D29F"/>
<path d="M377.94 211.42C377.94 211.42 378.331 207.544 376.297 207.676C374.265 207.81 373.727 208.74 373.953 209.484C374.181 210.228 376.158 212.694 376.158 212.694L377.94 211.42Z" fill="#FFB27D"/>
<path d="M409.613 219.186C409.613 219.186 407.361 221.823 402.522 224.865C402.065 225.154 401.584 225.444 401.08 225.737C399.201 226.829 396.996 227.948 394.45 228.99C394.17 229.105 393.841 229.232 393.471 229.363C390.572 230.408 385.235 231.888 381.929 232.022C381.641 232.032 381.369 232.032 381.115 232.023C376.081 231.82 375.469 212.343 375.469 212.343C375.469 212.343 376.029 210.395 378.615 210.886C378.615 210.886 382.54 221.886 383.948 222.781C385.199 223.579 392.382 212.72 398.566 211.96C402.729 211.45 409.613 219.186 409.613 219.186Z" fill="#739AF0"/>
<path d="M396.092 314.163C396.092 314.163 396.464 318.45 395.556 318.896L383.924 318.874C383.924 318.874 383.924 317.534 385.791 317.238C387.66 316.939 390.941 315.85 391.498 313.419C392.053 310.99 396.092 314.163 396.092 314.163Z" fill="#1C3154"/>
<path d="M387.554 262.273C387.611 265.077 387.745 267.967 388.01 270.566C389.266 282.899 389.708 297.799 389.889 300.672C390.202 305.658 391.189 313.626 391.189 313.626C391.189 313.626 393.15 315.48 396.969 314.595C396.969 314.595 400.134 303.12 400.84 291.039C400.851 290.84 400.861 290.642 400.872 290.442C400.953 288.845 401.04 287.018 401.127 285.048C401.71 271.857 402.342 252.26 402.342 252.26L387.745 248.842C387.745 248.842 387.409 255.284 387.554 262.273Z" fill="#2A4E96"/>
<path d="M387.554 262.273C391.253 268.637 398.303 280.36 401.127 285.048C401.71 271.857 402.342 252.26 402.342 252.26L387.745 248.842C387.745 248.842 387.409 255.284 387.554 262.273Z" fill="#233862"/>
<path d="M393.471 229.363C390.572 230.408 385.236 231.888 381.93 232.021C382.434 231.926 386.116 231.199 387.479 229.56C388.94 227.798 391.404 223.012 393.361 224.965C394.284 225.885 394.014 227.701 393.471 229.363Z" fill="#6385DB"/>
<path d="M417.998 260.2C417.998 260.2 418.905 263.743 418.755 264.529C418.607 265.316 417.723 267.983 417.172 268.644C416.62 269.307 416.597 265.769 416.23 265.214C415.863 264.657 416.061 266.534 415.767 266.687C415.475 266.841 414.984 265.266 414.765 264.707C414.548 264.15 415.55 262.207 415.642 260.814C415.734 259.421 417.998 260.2 417.998 260.2Z" fill="#FFB27D"/>
<path d="M425.068 309.291C425.068 309.291 427.138 311.174 426.735 312.513C426.331 313.853 424.462 314.745 424.21 316.381C423.958 318.017 422.949 318.909 422.039 318.909C421.13 318.909 417.706 318.909 417.706 318.909C417.706 318.909 417.036 317.758 418.653 317.411C420.269 317.064 420.878 315.14 420.777 313.357C420.676 311.571 420.928 309.191 420.928 309.191L424.361 308.398L425.068 309.291Z" fill="#1C3154"/>
<path d="M390.045 252.559C390.045 252.559 403.709 281.71 410.981 294.501C418.252 307.291 420.524 310.862 420.524 310.862C420.524 310.862 424.69 309.226 425.068 308.11C425.068 308.11 422.287 283.416 417.419 277.397C414.666 273.995 411.435 263.788 411.283 260.219C411.132 256.648 407.939 248.129 407.939 248.129L390.045 252.559Z" fill="#2A4E96"/>
<path d="M387.499 251.042C387.499 251.042 391.948 255.817 399.509 257.259C402.827 257.892 409.562 258.503 411.233 256.148C411.624 255.595 411.628 254.776 411.541 253.497C411.316 250.175 410.478 243.75 414.262 230.84C414.615 229.639 414.852 228.487 414.989 227.389C415.816 220.786 415.727 215.799 409.98 213.136C401.369 209.146 397.835 212.428 397.835 212.428C397.835 212.428 393.255 214.562 391.164 220.78C386.979 233.22 387.499 251.042 387.499 251.042Z" fill="#739AF0"/>
<path d="M404.811 212.039C403.361 213.067 400.81 213.672 398.38 212.459C398.192 212.366 398.214 211.083 398.261 209.824C398.308 208.589 398.425 207.376 398.425 207.376L401.489 205.37L404.412 203.458C404.062 210.034 405.465 211.573 404.811 212.039Z" fill="#FFB27D"/>
<path d="M403.899 206.172C403.899 206.172 401.91 209.147 398.262 209.824C398.309 208.589 398.441 207.227 398.441 207.227L401.489 205.37L403.899 206.172Z" fill="#ED985F"/>
<path d="M395.681 206.602C395.681 206.602 403.094 209.361 404.743 204.806C406.393 200.252 408.46 197.542 403.797 195.588C399.135 193.635 397.581 195.043 396.654 196.43C395.726 197.816 393.797 205.767 395.681 206.602Z" fill="#FFB27D"/>
<path d="M409.361 196.1C409.446 196.034 409.619 196.001 409.981 196.053C409.981 196.053 409.73 195.819 409.351 195.734C409.373 195.224 409.283 194.296 408.472 193.916C408.472 193.916 408.883 194.249 408.837 194.787C408.049 193.579 406.076 192.424 400.113 191.73C392.257 190.815 393.828 196.256 394.712 197.042C395.598 197.828 398.439 196.711 400.275 197.226C402.112 197.741 401.935 200.5 402.495 200.995C403.054 201.487 402.935 200.786 403.868 200.57C404.801 200.351 404.602 201.782 404.172 202.655C403.743 203.526 404.679 204.971 404.679 204.971C404.679 204.971 404.679 204.971 406.121 203.928C407.564 202.886 409.756 197.696 409.445 196.437C409.417 196.326 409.389 196.213 409.361 196.1Z" fill="#2C3A64"/>
<path d="M411.541 253.497C411.317 250.175 410.478 243.75 414.263 230.84C414.616 229.639 414.852 228.487 414.99 227.389C412.178 226.464 407.054 228.522 407.054 228.522C407.054 228.522 405.85 245.587 411.541 253.497Z" fill="#6385DB"/>
<path d="M411.531 214C411.531 214 414.99 215.254 417.198 224.388C418.656 230.424 421.339 239.293 421.642 242.081C421.945 244.869 418.574 261.189 418.574 261.189C418.574 261.189 418.097 261.534 416.933 261.301C415.818 261.079 415.3 260.328 415.3 260.328C415.3 260.328 414.492 249.45 414.701 244.314C414.788 242.18 404.795 228.687 399.401 226.948C397.284 226.267 411.531 214 411.531 214Z" fill="#739AF0"/>
<path d="M363.136 202.176C363.136 202.176 373.136 201.891 384.677 204.01L385.881 200.981L387.203 197.662C387.203 197.662 375.618 192.689 368.655 185.763L363.136 202.176Z" fill="#AEC3FF"/>
<path d="M368.813 185.602L363.071 202.502C362.233 202.254 361.773 201.355 362.066 200.531L367.119 186.332C367.364 185.645 368.144 185.308 368.813 185.602Z" fill="#F99746"/>
<path d="M374.295 214.753C375.41 214.977 376.507 214.248 376.729 213.134L378.706 203.271C378.93 202.159 378.2 201.066 377.082 200.844C375.965 200.621 374.871 201.35 374.646 202.462L372.67 212.326C372.447 213.438 373.178 214.531 374.295 214.753Z" fill="#F99746"/>
<path d="M363.136 202.176C363.136 202.176 373.136 201.891 384.677 204.01L385.881 200.981C375.039 198.774 363.136 202.176 363.136 202.176Z" fill="#739AF0"/>
<path d="M381.486 203.401L384.611 203.949C384.563 203.951 387.514 204.522 388.481 201.914C388.57 201.735 388.626 201.56 388.666 201.352C389.417 198.102 387.629 197.504 387.629 197.504L383.606 195.94L382.328 200.45C382.328 200.45 382.328 200.45 382.328 200.465L381.486 203.401Z" fill="#F99746"/>
<path d="M381.486 203.401L384.611 203.949C384.563 203.951 387.514 204.522 388.481 201.914C386.713 200.632 382.328 200.45 382.328 200.45C382.328 200.45 382.328 200.45 382.328 200.465L381.486 203.401Z" fill="#ED7D2B"/>
<path d="M374.561 205.204C374.561 205.204 376.089 205.811 375.808 206.482C375.528 207.152 373.585 208.075 373.278 207.546C372.972 207.017 373.599 204.636 374.561 205.204Z" fill="#FFB27D"/>
<path d="M377.97 210.809C377.97 210.809 378.258 209.25 378.276 208.533C378.293 207.817 378.378 207.232 378.21 207.211C378.039 207.192 377.917 207.324 377.848 207.555C377.778 207.784 377.514 209.213 377.514 209.213L377.648 210.591L377.97 210.809Z" fill="#FFB27D"/>
<path d="M226.775 209.791L218.115 312.468C218.115 312.468 217.209 318.693 221.851 318.704C229.485 318.723 259.849 318.704 259.849 318.704C259.849 318.704 254.102 317.408 254.172 314.493C254.255 311.058 264.295 208.819 264.295 208.819L226.775 209.791Z" fill="#7599EA"/>
<path d="M262.707 316.882C261.205 316.887 231.809 316.936 224.376 316.84C221.136 316.801 220.567 313.969 220.541 312.135C220.527 311.257 220.639 310.607 220.639 310.607L220.865 307.938L221.439 301.137L221.945 295.127L222.596 287.404L223.146 280.888L229.299 207.928L266.818 206.956C266.818 206.956 262.59 249.743 259.599 280.888C259.265 284.358 258.947 287.684 258.654 290.791C258.559 291.782 258.466 292.752 258.378 293.696C258.101 296.642 257.847 299.348 257.626 301.737C257.509 302.997 257.403 304.166 257.306 305.239C256.923 309.439 256.7 312.121 256.697 312.631C256.695 312.928 256.721 313.204 256.77 313.462C257.386 316.735 262.143 316.882 262.707 316.882Z" fill="#90AFF4"/>
<path d="M135.659 153.917L156.754 238.408L159.642 249.98L169.468 289.334H352.002L315.789 153.917H135.659Z" fill="#AEC3FF"/>
<path d="M135.659 153.917L132.735 154.889L165.581 292.273L169.468 289.334L135.659 153.917Z" fill="#90AFF4"/>
<path d="M165.581 292.273H346.992L352.002 289.334H169.468L165.581 292.273Z" fill="#7599EA"/>
<path d="M229.286 318.744H268.565V316.882H229.286V318.744Z" fill="#AEC3FF"/>
<path d="M258.581 292.273L258.378 293.696L221.439 301.137L221.946 295.127L222.188 292.273H258.581Z" fill="#5888DD"/>
<path d="M262.706 316.882H231.038C228.209 316.873 225.857 316.86 224.376 316.84C221.136 316.801 220.567 313.969 220.541 312.135L257.305 305.238C256.923 309.439 256.7 312.121 256.696 312.631C256.696 312.64 256.696 312.649 256.696 312.659C256.696 312.945 256.723 313.213 256.77 313.462C257.386 316.735 262.143 316.882 262.706 316.882Z" fill="#7A9FEB"/>
<path d="M244.724 316.899C239.95 316.899 235.022 316.894 231.039 316.882H262.707C261.926 316.886 253.588 316.899 244.724 316.899Z" fill="#8CABF1"/>
<path d="M135.659 153.917H315.789L345.014 262.75H162.831L135.659 153.917Z" fill="#AEC3FF"/>
<path d="M336.519 258.033H167.863L161.836 234.093L159.504 224.83L158.554 221.053L152.359 196.45L152.038 195.17L148.764 182.165L147.299 176.347L146.049 171.383L143.12 159.748H309.344L312.561 171.383L313.934 176.347L315.542 182.165L326.14 220.499V220.501L327.038 223.749L327.456 225.257L334.774 251.721L336.519 258.033Z" fill="#739AF0"/>
<path d="M312.562 171.383H146.05L143.121 159.747H309.346L312.562 171.383Z" fill="#607CF4"/>
<path d="M149.997 165.005C149.796 164.202 150.287 163.551 151.092 163.551C151.898 163.551 152.714 164.202 152.915 165.005C153.116 165.809 152.625 166.461 151.82 166.461C151.014 166.461 150.198 165.809 149.997 165.005Z" fill="#E9F3FE"/>
<path d="M154.845 165.005C154.644 164.202 155.134 163.551 155.94 163.551C156.746 163.551 157.562 164.202 157.762 165.005C157.963 165.809 157.473 166.461 156.667 166.461C155.862 166.461 155.046 165.809 154.845 165.005Z" fill="#E9F3FE"/>
<path d="M160.064 165.005C159.863 164.202 160.353 163.551 161.159 163.551C161.964 163.551 162.78 164.202 162.981 165.005C163.182 165.809 162.692 166.461 161.886 166.461C161.08 166.461 160.264 165.809 160.064 165.005Z" fill="#E9F3FE"/>
<path d="M276.279 92.099C283.096 84.118 293.608 68.0866 300.684 59.8766C302.141 58.1867 300.931 55.579 298.695 55.579H285.818L297.965 28.192C298.483 27.0226 296.886 26.091 296.118 27.1146L266.747 66.3134C265.891 67.4568 266.827 69.0652 268.249 68.8917L282.827 67.1011L274.153 90.8585C273.676 92.1667 275.374 93.1574 276.279 92.099Z" fill="#F77D48"/>
<path d="M215.648 140.707C217.181 132.865 218.149 118.296 219.771 110.204C220.103 108.538 218.321 107.258 216.837 108.092L208.285 112.895L206.078 90.1732C205.983 89.2033 204.573 89.1807 204.446 90.1471L199.644 127.136C199.503 128.215 200.73 128.935 201.608 128.289L210.62 121.662L213.771 140.677C213.945 141.723 215.445 141.748 215.648 140.707Z" fill="#AEC3FF"/>
<path d="M343.887 260.351L197.339 272.66C186.21 273.596 178.157 262.285 182.714 252.118L244.801 113.566C249.511 103.055 263.99 101.839 270.396 111.416L354.858 237.657C361.055 246.92 355.014 259.415 343.887 260.351Z" fill="#E6EFFF"/>
<path d="M257.43 110.485C254.075 110.768 251.253 112.764 249.88 115.829L187.791 254.382C186.464 257.345 186.796 260.694 188.68 263.342C190.565 265.989 193.627 267.407 196.871 267.134L343.419 254.823C346.664 254.55 349.444 252.642 350.857 249.717C352.272 246.793 352.037 243.436 350.231 240.735L265.769 114.494C263.901 111.701 260.783 110.204 257.43 110.485ZM344.353 265.876L197.805 278.188C190.598 278.794 183.795 275.645 179.608 269.763C175.422 263.883 174.684 256.44 177.635 249.856L239.722 111.304C242.772 104.495 249.043 100.056 256.495 99.431C263.948 98.8047 270.875 102.134 275.024 108.337L359.486 234.579C363.5 240.578 364.02 248.037 360.88 254.535C357.739 261.031 351.56 265.271 344.353 265.876Z" fill="#F77D48"/>
<path d="M276.652 212.716L255.543 214.489L246.476 142.822L273.566 140.545L276.652 212.716ZM253.994 239.152C253.836 237.27 254.025 235.5 254.565 233.845C255.104 232.192 255.939 230.727 257.072 229.454C258.205 228.182 259.607 227.143 261.283 226.341C262.957 225.541 264.878 225.047 267.049 224.865C269.217 224.682 271.21 224.847 273.024 225.356C274.839 225.864 276.412 226.652 277.742 227.717C279.073 228.784 280.141 230.089 280.952 231.629C281.759 233.17 282.245 234.882 282.405 236.765C282.563 238.649 282.372 240.405 281.831 242.029C281.288 243.656 280.451 245.107 279.32 246.379C278.187 247.652 276.769 248.691 275.064 249.495C273.36 250.298 271.424 250.792 269.256 250.975C267.084 251.157 265.108 250.992 263.322 250.482C261.537 249.972 259.98 249.182 258.65 248.115C257.319 247.05 256.249 245.761 255.444 244.246C254.636 242.733 254.154 241.035 253.994 239.152Z" fill="#F77D48"/>
<path d="M162.994 217.111C162.994 217.111 163.454 216.08 163.751 215.593C164.049 215.105 165.32 213.676 165.536 214C165.753 214.323 166.619 216.502 166.159 217.111C165.699 217.722 166.188 218.783 163.901 219.425L162.994 217.111Z" fill="#FFB27D"/>
<path d="M137.577 210.605C137.577 210.605 149.285 220.35 153.85 219.448C157.42 218.742 163.064 216.956 163.064 216.956C163.064 216.956 164.553 218.37 164.132 220.064C164.132 220.064 156.942 226.81 151.819 226.853C143.812 226.921 140.036 222.897 140.036 222.897L137.577 210.605Z" fill="#ED7D2B"/>
<path d="M117.044 313.395C117.044 313.395 117.384 318.862 118.445 318.94C118.586 318.95 123.825 318.95 123.825 318.95L130.512 318.912C130.512 318.912 130.469 317.304 128.514 316.965C126.559 316.625 123.287 315.255 122.103 312.678C120.857 309.968 117.044 313.395 117.044 313.395Z" fill="#113C68"/>
<path d="M116.658 313.773C116.658 313.773 118.691 314.451 120.279 314.451C122.049 314.451 123.658 313.971 123.658 313.971C123.658 313.971 124.041 310.28 126.147 302.148C127.252 297.886 128.829 292.405 131.072 285.595C137.275 266.774 139.162 255.763 139.334 254.72C139.343 254.667 139.347 254.639 139.347 254.639L139.327 254.63L120.255 246.28C120.255 246.28 122.613 272.22 119.605 282.177C119.184 283.568 118.823 285.189 118.514 286.946C116.614 297.761 116.658 313.773 116.658 313.773Z" fill="#2A4E96"/>
<path d="M126.147 302.148C127.252 297.886 128.829 292.405 131.072 285.595C137.275 266.774 139.162 255.763 139.334 254.72C139.332 254.689 139.33 254.66 139.327 254.63L120.255 246.28C120.255 246.28 122.613 272.22 119.605 282.177C119.184 283.568 126.147 302.148 126.147 302.148Z" fill="#233862"/>
<path d="M131.939 313.395C131.939 313.395 132.279 318.862 133.34 318.94C133.481 318.95 138.72 318.95 138.72 318.95L145.408 318.912C145.408 318.912 145.364 317.304 143.409 316.965C141.454 316.625 138.182 315.255 136.998 312.678C135.752 309.968 131.939 313.395 131.939 313.395Z" fill="#15447C"/>
<path d="M142.753 246.89C142.753 246.89 143 263.701 140.084 284.339C137.167 304.978 138.156 313.738 138.156 313.738C138.156 313.738 136.152 314.385 135.343 314.451C133.283 314.62 131.17 313.971 131.17 313.971C131.17 313.971 126.995 293.324 128.192 282.994C129.389 272.664 122.476 247.546 122.476 247.546L142.753 246.89Z" fill="#2A4E96"/>
<path d="M129.229 207.556L132.952 209.989L136.343 209.033C136.963 208.151 137.127 206.451 137.136 204.98C137.145 203.517 137.003 202.28 137.003 202.28L131.981 200.07L130.106 199.246C130.112 199.275 130.252 200.781 130.272 201C130.622 204.903 129.229 207.556 129.229 207.556Z" fill="#FFB27D"/>
<path d="M142.838 251.565C138.205 256.025 120.668 255.276 119.588 250.36C118.509 245.445 120.766 208.519 128.681 206.199C130.324 205.719 139.105 208.549 139.105 208.549C139.105 208.549 140.483 212.144 141.386 216.719C141.562 217.611 142.074 227.046 142.457 235.873C142.636 240.002 142.787 243.998 142.864 246.925C142.935 249.666 142.938 251.467 142.838 251.565Z" fill="#F99746"/>
<path d="M130.648 201.069C131.667 202.787 135.242 204.291 137.136 204.98C137.145 203.517 137.003 202.28 137.003 202.28L131.981 200.07C130.87 200.054 130.194 200.302 130.648 201.069Z" fill="#FCA56B"/>
<path d="M138.898 201.975C138.898 201.975 130.805 204.492 129.311 199.443C127.816 194.393 125.765 191.318 130.869 189.497C135.973 187.677 137.552 189.306 138.462 190.871C139.371 192.436 140.965 201.191 138.898 201.975Z" fill="#FFB27D"/>
<path d="M138.143 190.385C138.143 190.385 137.627 196.26 136.408 196.005C135.19 195.75 133.848 195.205 134.027 196.976C134.205 198.746 132.842 201.784 131.084 201.775C127.316 201.76 123.221 192.117 124.253 190.29C127.229 185.013 142.446 183.948 138.143 190.385Z" fill="#163560"/>
<path d="M136.953 206.328C136.848 206.285 130.928 203.635 130.236 203.864C129.544 204.091 128.681 206.199 128.681 206.199L139.105 208.55C139.105 208.55 138.284 206.887 136.953 206.328Z" fill="#ED7D2B"/>
<path d="M173.809 234.924L140.624 266.08C139.973 266.69 139.153 266.885 138.801 266.512L137.681 265.325C137.329 264.952 137.573 264.149 138.223 263.538L171.409 232.382C172.059 231.772 172.88 231.577 173.231 231.95L174.352 233.135C174.703 233.508 174.459 234.313 173.809 234.924Z" fill="#1F4D84"/>
<path d="M155.186 252.408L140.624 266.08C139.973 266.69 139.153 266.885 138.801 266.512L137.681 265.325C137.329 264.952 137.573 264.149 138.223 263.538L152.786 249.866L155.186 252.408Z" fill="#739AF0"/>
<path d="M173.616 199.225C179.344 193.152 187.506 190.734 195.171 192.056C199.637 192.828 203.932 194.866 207.479 198.196C217.117 207.235 217.578 222.352 208.511 231.962C205.174 235.498 201.012 237.796 196.603 238.837C189.032 240.624 180.737 238.706 174.647 232.993C165.011 223.952 164.548 208.835 173.616 199.225ZM166.182 223.161C167.456 227.347 169.815 231.268 173.241 234.483C183.704 244.298 200.166 243.795 210.008 233.364C219.722 223.069 219.36 206.952 209.294 197.098C209.16 196.964 209.025 196.834 208.885 196.706C198.424 186.891 181.964 187.389 172.121 197.821C165.5 204.837 163.558 214.56 166.182 223.161Z" fill="#1F4D84"/>
<path d="M182.917 238.064C181.212 237.452 179.561 236.638 178 235.623C176.827 234.86 175.703 233.984 174.647 232.993C165.011 223.952 164.548 208.835 173.616 199.225C173.993 198.824 174.381 198.441 174.779 198.073C179.347 193.841 185.2 191.705 191.066 191.705C192.439 191.705 193.812 191.823 195.17 192.057C197.673 192.489 200.123 193.319 202.416 194.552L182.917 238.064Z" fill="#93B5F5"/>
<path d="M194.584 239.224L211.067 202.44C211.133 202.539 211.199 202.639 211.264 202.74C213.397 206.068 214.625 209.817 214.94 213.632C215.474 220.137 213.35 226.834 208.511 231.963C205.174 235.498 201.012 237.796 196.602 238.837C195.936 238.994 195.261 239.123 194.584 239.224Z" fill="#CCDFFC"/>
<path d="M191.057 239.482C190.298 239.482 189.539 239.446 188.783 239.374C186.794 239.187 184.822 238.75 182.917 238.065L202.415 194.553C203.32 195.038 204.202 195.587 205.052 196.197C205.892 196.803 206.705 197.467 207.479 198.196C208.866 199.496 210.063 200.922 211.067 202.44L194.584 239.224C193.416 239.395 192.236 239.482 191.057 239.482Z" fill="#D5A6A1"/>
<path d="M191.059 239.482C190.3 239.482 189.54 239.446 188.783 239.374C189.54 239.446 190.299 239.482 191.057 239.482C192.237 239.482 193.417 239.395 194.584 239.224C195.261 239.123 195.936 238.995 196.603 238.837C201.012 237.796 205.174 235.498 208.511 231.963C213.35 226.834 215.475 220.137 214.941 213.632C215.475 220.137 213.35 226.834 208.513 231.963C205.174 235.498 201.012 237.796 196.603 238.838C194.784 239.267 192.921 239.482 191.059 239.482ZM178 235.623C176.826 234.86 175.704 233.984 174.647 232.993C165.011 223.952 164.548 208.835 173.616 199.225C173.993 198.824 174.381 198.441 174.78 198.073C174.381 198.441 173.993 198.824 173.616 199.225C164.548 208.835 165.011 223.952 174.647 232.993C175.704 233.984 176.828 234.86 178 235.623ZM211.264 202.74C211.2 202.639 211.133 202.539 211.067 202.44C210.063 200.922 208.866 199.496 207.479 198.196C206.705 197.467 205.893 196.803 205.052 196.197C205.893 196.803 206.705 197.467 207.479 198.194C208.957 199.581 210.22 201.111 211.264 202.74Z" fill="#698EBF"/>
<path d="M142.864 246.925C124.579 233.933 126.099 216.596 126.099 216.596C132.782 220.354 139.414 228.664 142.457 235.873C142.636 240.003 142.787 243.998 142.864 246.925Z" fill="#ED7D2B"/>
<path d="M160.911 241.009C162.201 240.712 163.067 239.74 163.247 239.57C163.247 239.57 163.797 239.607 163.157 240.776C163.103 240.875 162.984 241.127 162.894 241.304C162.858 241.377 162.909 241.462 162.99 241.467C163.734 241.524 164.482 241.231 165.916 241.528C166.114 241.569 166.171 242.041 166.163 242.242C166.151 242.584 166.175 242.966 165.778 243.488C165.547 243.792 164.903 244.12 163.468 244.694C162.921 244.914 161.358 244.749 159.892 244.246L158.722 243.707L159.085 241.536L159.379 241.599C159.846 241.696 160.424 241.127 160.911 241.009Z" fill="#FFB27D"/>
<path d="M131.774 208.55C131.774 208.55 115.344 211.67 136.608 235.394C140.008 239.189 158.382 244.128 158.382 244.128C158.382 244.128 160.245 242.548 159.306 241.267C159.306 241.267 146.655 232.106 143.872 230.651C142.62 229.995 139.012 216.03 136.971 212.668C134.93 209.303 131.774 208.55 131.774 208.55Z" fill="#F99746"/>
<path d="M163.439 217.399C163.439 217.399 163.977 216.375 164.082 215.836C164.187 215.294 164.863 213.719 165.142 213.441C165.254 213.33 165.622 213.474 165.665 213.951C165.684 214.16 165.582 214.538 165.401 214.989C165.107 215.721 165.156 216.715 165.053 217.047C164.799 217.873 163.439 217.399 163.439 217.399Z" fill="#FFB27D"/>
<path d="M169.978 176.751C169.699 177.071 169.663 177.428 169.801 177.808L169.804 177.815C170.059 178.519 170.904 179.305 171.885 180.091C172.01 180.192 172.121 180.284 172.218 180.369C172.244 180.391 172.27 180.414 172.293 180.436C172.313 180.454 172.332 180.471 172.351 180.489C173.266 181.33 172.921 181.523 174.565 183.23C176.437 185.175 177.728 185.209 178.096 185.032C178.407 184.882 177.775 183.851 177.078 182.692C177.043 182.635 177.01 182.579 176.975 182.522C176.883 182.368 176.789 182.211 176.697 182.057C175.879 180.662 176.089 180.006 176.284 177.931C176.443 176.243 178.919 168.507 178.919 168.507L175.327 167.887C175.327 167.887 174.245 174.05 173.052 174.997C172.415 175.504 171.701 175.509 171.089 175.884C171.045 175.91 171.003 175.938 170.961 175.965C170.613 176.194 170.258 176.432 169.978 176.751Z" fill="#FFB27D"/>
<path d="M169.978 176.751C169.699 177.071 169.663 177.428 169.801 177.808L169.804 177.815C170.117 178.518 170.94 179.302 171.888 180.084C172.012 180.187 172.121 180.282 172.218 180.369C172.244 180.391 172.27 180.414 172.293 180.436C172.313 180.454 172.332 180.471 172.351 180.489C173.266 181.33 172.921 181.523 174.565 183.23C176.437 185.175 177.728 185.209 178.096 185.032C178.407 184.882 177.775 183.851 177.078 182.692C176.712 182.558 175.018 181.871 173.737 180.235C172.65 178.851 171.912 177.088 171.172 176.004C171.091 175.99 171.043 175.979 170.961 175.965C170.613 176.194 170.258 176.432 169.978 176.751Z" fill="#233862"/>
<path d="M198.941 174.525C199.162 175.63 200.743 175.447 202.508 175.018C204.274 174.588 203.854 175.1 206.367 174.822C208.879 174.546 209.642 173.613 209.718 173.24C209.788 172.908 208.545 172.792 207.214 172.638C207.047 172.62 206.878 172.599 206.71 172.579C205.206 172.39 204.105 171.421 202.741 170.627C201.446 169.874 199.516 166.806 199.516 166.806L196.071 167.077C196.071 167.077 197.877 169.817 198.577 171.008C198.988 171.708 198.967 172.634 198.914 173.349C198.888 173.738 198.862 174.135 198.941 174.525Z" fill="#FFB27D"/>
<path d="M202.508 175.018C204.274 174.588 203.855 175.1 206.367 174.822C208.88 174.546 209.642 173.613 209.718 173.24C209.788 172.908 208.546 172.792 207.215 172.638L207.202 172.664C207.202 172.664 205.694 173.729 203.602 173.778C201.897 173.819 200.093 173.332 198.915 173.349C198.889 173.738 198.863 174.135 198.941 174.525C199.162 175.63 200.744 175.447 202.508 175.018Z" fill="#233862"/>
<path d="M185.742 152.548L182.518 161.192L178.308 172.476C178.308 172.476 177.167 172.586 176.074 172.272C175.067 171.982 173.913 171.222 173.913 171.222C173.913 171.222 175.084 159.105 177.266 152.149C177.825 150.362 178.451 148.919 179.142 148.107C182.521 144.128 185.742 152.548 185.742 152.548Z" fill="#233862"/>
<path d="M182.471 138.819C180.637 138.229 175.852 138.807 170.662 139.742C169.228 140.001 167.783 139.348 167.028 138.104L153.967 137.084C153.967 137.084 149.654 146.613 152.011 152.685C152.358 153.579 153.119 154.136 154.293 154.155C154.293 154.155 162.186 154.169 164.71 154.169C171.205 154.17 178.459 149.722 179.397 149.534C180.932 149.229 181.546 152.291 183.079 155.506C184.613 158.723 197.507 169.749 197.507 169.749C197.507 169.749 199.489 169.77 200.308 169.464C201.189 169.135 201.51 168.708 201.51 168.708C201.51 168.708 187.23 140.351 182.471 138.819Z" fill="#2A4E96"/>
<path d="M165.654 99.8597C164.684 99.2836 163.739 99.1952 163.159 99.2125C162.756 99.2229 162.354 99.1969 161.955 99.1396C156.97 98.4075 153.966 105.627 153.789 107.809C153.465 111.814 151.34 112.423 148.348 114.932C142.349 119.958 144.106 125.803 147.384 127.975C149.351 129.28 152.82 127.977 152.82 127.977C152.869 128.012 162.306 122.722 166.958 120.17C173.931 119.184 168.454 101.524 165.654 99.8597Z" fill="#233862"/>
<path d="M163.06 117.994C163.08 118.008 160.771 118.792 159.228 118.11C157.776 117.47 156.676 115.088 156.698 115.086C157.358 115.055 158.084 114.48 158.644 110.7L158.925 110.801L163.655 112.501C163.655 112.501 163.312 114.014 163.089 115.454C162.902 116.665 162.802 117.824 163.06 117.994Z" fill="#FFB27D"/>
<path d="M163.655 112.501C163.655 112.501 163.466 113.316 163.191 114.841C160.474 114.354 159.308 112.267 158.926 110.801L163.655 112.501Z" fill="#ED975D"/>
<path d="M164.359 114.003C164.359 114.003 157.888 113.134 158.492 109.125C159.096 105.113 158.668 102.301 162.826 102.686C166.983 103.071 167.554 104.721 167.678 106.109C167.803 107.495 166.058 114.125 164.359 114.003Z" fill="#FFB27D"/>
<path d="M167.443 103.909C167.443 103.909 163.299 107.469 160.48 107.754C157.662 108.04 156.596 107.138 156.596 107.138C156.596 107.138 158.257 105.764 159.257 103.545C159.552 102.891 160.175 102.441 160.892 102.381C162.904 102.209 166.719 102.131 167.443 103.909Z" fill="#233862"/>
<path d="M164.854 103.59C164.854 103.59 166.239 104.928 166.675 105.918C167.096 106.874 167.221 109.163 166.886 110.07C166.886 110.07 169.047 105.885 167.825 103.85C166.529 101.692 164.854 103.59 164.854 103.59Z" fill="#233862"/>
<path d="M168.507 127.503C168.307 140.566 168.45 137.835 167.016 139.076C166.671 139.374 165.7 139.551 164.422 139.635C160.405 139.9 153.343 139.237 153.075 138.496C152.149 135.935 152.804 135.139 152.032 131.218C151.952 130.8 151.852 130.349 151.735 129.858C151.092 127.163 150.465 126.247 152.753 121.922C154.828 118.003 156.984 114.822 157.177 114.937C162.647 118.178 163.09 115.456 163.09 115.456C163.09 115.456 168.605 121.131 168.507 127.503Z" fill="#F99746"/>
<path d="M182.518 161.192L178.308 172.476C178.308 172.476 177.167 172.586 176.074 172.272C175.067 171.982 173.913 171.222 173.913 171.222C173.913 171.222 175.084 159.105 177.266 152.149L182.518 161.192Z" fill="#2A4E96"/>
<path d="M163.09 115.454C163.09 115.454 168.719 116.408 169.379 118.825C170.04 121.243 172.211 135.913 172.211 135.913C172.211 135.913 170.623 137.459 169.301 136.14C167.979 134.822 165.145 122.413 165.145 122.413L163.09 115.454Z" fill="#F99746"/>
<path d="M164.422 139.635C160.405 139.9 153.343 139.237 153.075 138.496C152.149 135.935 152.804 135.139 152.032 131.218L153.972 125.777C153.972 125.777 153.649 131.836 155.44 133.43C157.23 135.025 162.775 136.508 163.646 137.841C164.066 138.479 164.342 139.121 164.422 139.635Z" fill="#ED7D2B"/>
<path d="M159.82 137.086C159.82 137.086 163.784 136.206 164.423 136.558C165.063 136.909 166.625 138.186 166.82 138.63C167.016 139.076 165.397 138.293 164.87 138.151C164.529 138.061 163.631 138.371 163.187 138.519C161.316 139.14 160.17 138.819 160.17 138.819L159.82 137.086Z" fill="#FFB27D"/>
<path d="M157.174 114.933C157.174 114.933 151.852 115.259 150.009 117.82C147.414 121.426 142.265 136.794 145.213 138.845C148.532 141.154 160.323 139.454 160.323 139.454C160.323 139.454 160.716 137.625 160.17 136.74C159.625 135.856 150.754 134.424 150.345 134.015C149.935 133.607 155.465 126.056 155.466 124.831C155.466 123.607 157.174 114.933 157.174 114.933Z" fill="#F99746"/>
<path d="M164.614 137.658C164.614 137.658 165.444 138.725 165.716 138.854C165.989 138.98 166.164 138.949 166.164 138.949L165.605 137.945L164.614 137.658Z" fill="#FFB27D"/>
<path d="M164.423 136.558L166.837 137.728C166.837 137.728 166.734 137.894 166.437 137.882C166.14 137.868 165.39 137.594 165.39 137.594L164.423 136.558Z" fill="#FFB27D"/>
<path d="M185.039 139.313L159.82 139.305L159.819 139.86L184.814 139.869L185.039 139.313Z" fill="#233862"/>
<path d="M165.717 139.862L184.814 139.869L190.565 125.624L171.496 125.617L165.717 139.862Z" fill="#233862"/>
<path d="M179.996 132.743C180.14 132.243 179.85 131.837 179.347 131.837C178.846 131.836 178.322 132.242 178.178 132.743C178.033 133.243 178.324 133.649 178.825 133.651C179.328 133.651 179.852 133.245 179.996 132.743Z" fill="white"/>
<path d="M309.244 193.581C306.673 192.729 304.891 193.803 304.891 193.803C297.484 194.107 297.209 201.678 298.079 204.496C299.3 208.453 294.978 211.573 299.77 213.174C305.331 215.032 309.998 212.829 309.679 213.785C327.266 215.168 315.096 195.517 309.244 193.581Z" fill="#163560"/>
<path d="M301.562 230.404C301.562 230.404 300.858 231.794 299.582 233.39C298.042 235.313 289.967 230.751 290.661 230.404C291.357 230.057 295.417 218.398 296.382 216.934C297.35 215.468 300.642 214.708 300.642 214.708L301.562 230.404Z" fill="#F99746"/>
<path d="M328.818 309.035C328.818 309.035 331.047 311.065 330.612 312.505C330.177 313.946 328.166 314.908 327.894 316.669C327.621 318.43 326.534 319.391 325.556 319.391C324.576 319.391 320.889 319.391 320.889 319.391C320.889 319.391 320.169 318.152 321.909 317.777C323.649 317.404 324.305 315.334 324.197 313.412C324.087 311.491 324.359 308.929 324.359 308.929L328.056 308.075L328.818 309.035Z" fill="#1F447F"/>
<path d="M309.949 309.897C309.949 309.897 310.751 318.49 309.774 318.971L297.249 318.945C297.249 318.945 297.249 317.503 299.26 317.184C301.272 316.863 304.806 315.688 305.404 313.072C306.003 310.457 309.949 309.897 309.949 309.897Z" fill="#1C3154"/>
<path d="M319.584 224.608C319.584 224.608 319.772 227.231 319.584 230.38C319.46 232.467 317.343 235.263 317.043 235.953C316.288 237.688 315.439 237.971 315.439 237.971L308.864 239.577L306.551 240.141L299.259 237.971C299.259 237.971 295.939 228.727 297.272 223.524C298.604 218.32 300.642 214.708 300.642 214.708C300.642 214.708 305.598 213.598 314.339 214.215L319.584 224.608Z" fill="#F99746"/>
<path d="M320.21 230.453C320.086 232.54 317.342 235.262 317.043 235.953C316.288 237.688 315.439 237.971 315.439 237.971L308.863 239.577L307.675 236.184C307.675 236.184 317.283 233.668 315.738 224.8L320.21 230.453Z" fill="#ED7D2B"/>
<path d="M299.723 239.373C299.723 239.373 296.113 250.581 295.88 254.396C295.648 258.211 302.782 308.601 303.069 310.359C303.341 312.017 305.404 313.072 305.404 313.072C305.404 313.072 306.353 313.631 307.708 313.249C309.587 312.72 310.182 312.087 310.182 312.087C310.182 312.087 312.992 276.15 311.252 263.312C309.514 250.475 309.493 239.373 309.493 239.373H299.723Z" fill="#233862"/>
<path d="M315.022 239.04C315.022 239.04 320.531 246.408 321.044 251.389C321.557 256.372 321.85 273.87 322.944 278.726C324.037 283.582 328.056 292.927 328.056 308.075C328.056 308.075 327.639 308.943 326.349 309.404C325.937 309.553 325.384 309.696 324.848 309.819C323.783 310.062 322.692 309.545 322.206 308.57C319.488 303.113 310.832 285.518 310.388 281.866C310.075 279.281 307.341 262.174 301.38 252.135C299.948 249.725 302.259 240.141 302.259 240.141L315.022 239.04Z" fill="#2A4E96"/>
<path d="M299.145 237.643C299.145 237.643 300.595 238.786 303.475 238.845C306.915 238.913 315.439 237.971 315.439 237.971C315.439 237.971 315.816 239.026 315.802 240.14C315.802 240.14 305.392 242.758 299.359 240.521C299.359 240.521 298.582 239.062 299.145 237.643Z" fill="#233862"/>
<path d="M302.651 238.776C302.073 238.776 301.601 239.338 301.601 240.028C301.601 240.719 302.073 241.281 302.651 241.281C303.23 241.281 303.7 240.719 303.7 240.028C303.7 239.338 303.23 238.776 302.651 238.776ZM302.651 241.8C301.786 241.8 301.081 241.005 301.081 240.028C301.081 239.052 301.786 238.257 302.651 238.257C303.517 238.257 304.22 239.052 304.22 240.028C304.22 241.005 303.517 241.8 302.651 241.8Z" fill="white"/>
<path d="M310.17 245.022L294.524 245.168L286.826 227.127L302.472 226.981L310.17 245.022Z" fill="#B5453C"/>
<path d="M308.125 236.869L306.978 235.464C306.978 235.464 306.202 234.773 305.638 234.657C305.076 234.539 303.886 233.855 303.771 234.048C303.656 234.241 304.685 235.615 304.685 235.615L304.737 235.623C303.555 236.508 300.573 235.727 300.206 236.088C299.759 236.526 300.82 237.473 301.389 238.006C301.958 238.536 303.585 239.423 304.853 239.029C305.779 238.741 307.239 238.448 307.239 238.448L308.125 236.869Z" fill="#FFB27D"/>
<path d="M288.003 230.3C288.003 230.3 288.986 229.186 289.612 229.721C290.237 230.255 289.449 232.886 288.852 232.618C288.257 232.351 287.66 230.627 288.003 230.3Z" fill="#FFB27D"/>
<path d="M314.34 214.215C314.34 214.215 318.818 214.708 322.034 220.531C324.567 225.123 328.902 233.588 327.266 235.981C326.547 237.03 319.667 240.766 306.396 238.63C306.396 238.63 306.605 236.959 307.675 236.184C307.675 236.184 318.844 232.61 318.825 231.898C318.789 230.552 317.317 229.39 311.077 223.168C309.381 221.474 314.34 214.215 314.34 214.215Z" fill="#F99746"/>
<path d="M310.892 214.451C311.047 214.245 310.849 213.589 310.602 212.367C310.379 211.261 310.001 209.548 310.01 207.622L309.68 207.678L304.129 208.609C304.129 208.609 304.254 210.089 304.258 211.483L304.259 211.517C304.265 212.728 303.931 214.559 304.341 214.798C306.443 216.027 310.301 215.244 310.892 214.451Z" fill="#FFB27D"/>
<path d="M304.129 208.609C304.129 208.609 304.239 210.697 304.242 212.09C307.35 212.015 309.006 209.008 309.68 207.678L304.129 208.609Z" fill="#E8945B"/>
<path d="M303.794 211.097C303.794 211.097 311.07 210.065 310.355 205.556C309.64 201.047 310.098 197.877 305.422 198.345C300.745 198.815 300.117 200.677 299.988 202.24C299.861 203.803 301.883 211.25 303.794 211.097Z" fill="#FFB27D"/>
<path d="M302.099 198.76C302.099 198.76 304.93 203.734 308.105 204.031C311.279 204.329 312.472 203.304 312.472 203.304C312.472 203.304 309.836 201.822 308.834 198.664C308.834 198.664 303.195 196.005 302.099 198.76Z" fill="#163560"/>
<path d="M302.659 199.112C302.659 199.112 301.274 199.895 300.839 201.062C300.413 202.206 300.129 203.673 300.519 205.358C300.519 205.358 298.446 202.001 299.804 199.7C301.244 197.259 302.659 199.112 302.659 199.112Z" fill="#163560"/>
<path d="M462.99 320.04H59.598C59.3206 320.04 59.0938 319.813 59.0938 319.537V319.247C59.0938 318.969 59.3206 318.744 59.598 318.744H462.99C463.268 318.744 463.494 318.969 463.494 319.247V319.537C463.494 319.813 463.268 320.04 462.99 320.04Z" fill="#233862"/>
</svg>
