<svg width="365" height="247" viewBox="0 0 365 247" fill="none" xmlns="http://www.w3.org/2000/svg">
<path d="M54.1119 146.044L53.8529 146.03C53.7985 147.13 53.7715 148.212 53.7715 149.276C53.7714 156.545 55.029 162.947 57.3662 168.517C60.8716 176.871 66.8065 183.343 74.5332 188.062C82.2602 192.782 91.7777 195.754 102.471 197.128C110.896 198.211 119.376 198.647 127.879 198.647C152.811 198.646 177.946 194.903 202.494 192.729C214.412 191.674 226.363 190.87 238.327 190.87C238.813 190.87 239.3 190.872 239.786 190.875C244.37 190.9 249.113 191.419 253.883 191.933C258.654 192.446 263.452 192.955 268.151 192.955C270.745 192.955 273.308 192.801 275.82 192.404C288.608 190.389 298.671 183.341 305.525 173.826C312.379 164.312 316.035 152.332 316.035 140.424C316.035 137.237 315.774 134.056 315.241 130.926C313.884 122.968 310.722 115.175 305.69 109.358C303.175 106.45 300.191 104.036 296.733 102.351C293.276 100.665 289.347 99.7077 284.949 99.7077C284.374 99.7077 283.791 99.725 283.2 99.7584C276.66 100.126 270.502 101.75 264.429 103.668C258.357 105.585 252.37 107.796 246.173 109.344C239.118 111.109 231.87 111.989 224.622 111.989C215.103 111.989 205.584 110.472 196.497 107.457C188.502 104.8 180.861 101.024 173.049 97.7095C157.49 91.1171 141.025 86.3561 124.244 86.0943C123.773 86.0869 123.302 86.0832 122.831 86.0832C106.507 86.0832 89.9218 90.5996 76.7179 100.797C62.385 111.868 54.7123 128.614 53.8529 146.03L54.1119 146.044L54.3711 146.056C55.225 128.778 62.8316 112.184 77.0322 101.217C90.1256 91.1022 106.599 86.6093 122.831 86.6093C123.299 86.6093 123.768 86.613 124.235 86.6204C140.924 86.881 157.327 91.6197 172.849 98.1949C180.643 101.501 188.295 105.285 196.336 107.959C205.476 110.991 215.05 112.515 224.622 112.515C231.911 112.515 239.2 111.632 246.297 109.856C252.53 108.297 258.526 106.083 264.582 104.171C270.64 102.258 276.755 100.648 283.228 100.283C283.809 100.251 284.384 100.235 284.949 100.235C289.272 100.235 293.121 101.174 296.508 102.825C301.59 105.302 305.64 109.39 308.674 114.341C311.708 119.292 313.722 125.105 314.73 131.016C315.257 134.114 315.517 137.267 315.517 140.424C315.517 152.224 311.891 164.099 305.106 173.515C298.321 182.932 288.385 189.89 275.739 191.884C273.261 192.275 270.724 192.429 268.151 192.429C263.489 192.429 258.707 191.923 253.938 191.409C249.167 190.895 244.409 190.374 239.789 190.348C239.301 190.346 238.813 190.344 238.327 190.344C226.341 190.344 214.374 191.148 202.449 192.204C177.88 194.38 152.76 198.121 127.879 198.12C119.393 198.12 110.935 197.685 102.536 196.606C88.3495 194.783 76.2831 190.136 67.7744 182.363C63.5193 178.476 60.1508 173.808 57.8435 168.31C55.5365 162.813 54.2904 156.484 54.2903 149.276C54.2903 148.222 54.317 147.149 54.3711 146.056L54.1119 146.044Z" fill="#F0F0F0"/>
<path d="M309.64 155.417C311.167 186.118 290.832 201.881 261.501 205.625C228.6 209.825 194.818 204.16 162.056 201.279C149.714 200.194 137.332 199.377 124.935 199.446C113.253 199.511 100.607 202.756 89.1309 200.96C60.444 196.469 45.6606 166.588 50.1307 140.527C52.2191 128.352 56.8306 114.883 67.1969 107.489C77.6232 100.054 89.7509 101.955 101.181 105.185C121.997 111.065 144.678 122.098 166.734 117.781C179.374 115.306 190.391 108.04 202.396 103.692C214.365 99.357 227.154 96.656 239.88 96.4547C256.522 96.1904 273.539 100.604 286.997 110.926C301.188 121.812 308.788 138.28 309.64 155.417Z" fill="#F0F0F0"/>
<path d="M288.58 181.163C288.58 181.163 277.115 189.37 263.946 182.259L276.263 175.282L288.58 181.163Z" fill="#6F3428"/>
<path d="M204.171 126.313C204.171 126.313 193.017 147.548 196.509 153.82L209.21 146.664L204.171 126.313Z" fill="#6F3428"/>
<path d="M199.369 147.87C197.974 146.812 196.63 145.623 195.337 144.327C192.796 141.767 190.456 138.797 188.323 135.626V135.622C186.891 133.494 185.553 131.271 184.313 129.022C180.728 122.534 177.926 115.82 175.934 110.442C173.854 104.833 172.644 100.672 172.323 99.7201C172.286 99.6089 172.261 99.541 172.245 99.52L178.279 81.9348C181.195 77.1949 182.829 92.5781 182.829 92.5781C183.633 92.0989 184.609 90.6934 185.184 89.9339C185.833 89.0756 186.332 90.4353 186.419 90.9195C186.923 93.7476 184.682 99.1248 184.682 99.1248L199.068 120.527C199.95 121.839 200.937 123.076 202.005 124.219C202.69 124.956 203.416 125.658 204.174 126.316C205.45 131.819 205.32 142.43 199.369 147.87Z" fill="#F9B384"/>
<path d="M199.369 147.87C197.973 146.812 196.629 145.623 195.337 144.327C199.836 139.096 203.281 130.421 204.163 126.361C204.154 126.353 204.144 126.344 204.136 126.336C204.031 126.234 203.934 126.133 203.947 126.133C203.957 126.133 204.02 126.182 204.174 126.316C203.592 130.693 202.091 140.45 199.374 147.867C199.373 147.868 199.37 147.869 199.369 147.87Z" fill="#EB9B76"/>
<path d="M288.581 181.166C280.721 179.612 274.526 179.712 269.297 180.764C267.398 181.15 265.629 181.655 263.947 182.261L262.364 188.016L259.241 199.398L257.213 206.792L255.366 213.507L254.328 217.293H198.574L207.395 158.92L196.51 153.822C197.211 152.774 197.854 151.542 198.45 150.177C201.755 142.62 203.53 131.166 204.174 126.316C207.286 129.033 210.954 131.066 214.954 132.224C219.702 133.599 225.424 134.789 230.778 134.662C230.966 134.657 231.147 134.652 231.328 134.647C243.713 134.157 249.239 137.975 249.239 137.975C252.04 138.539 259.346 141.388 265.721 144.237C268.534 145.485 271.164 146.739 273.156 147.791C278.511 150.63 282.397 155.675 283.838 161.632L288.581 181.166Z" fill="#EE6F57"/>
<path d="M263.947 182.261L267.304 170.037L269.297 180.764C269.067 180.811 268.838 180.86 268.613 180.91C266.971 181.273 265.426 181.728 263.948 182.26C263.947 182.26 263.947 182.261 263.947 182.261Z" fill="#C85D49"/>
<path d="M188.323 135.622C188.313 135.607 188.304 135.592 188.293 135.577C188.304 135.592 188.313 135.607 188.323 135.622ZM188.284 135.562C188.279 135.556 188.276 135.55 188.271 135.544C188.276 135.55 188.279 135.556 188.284 135.562ZM183.093 126.751C183.088 126.741 183.083 126.732 183.078 126.723C183.078 126.723 183.078 126.723 183.078 126.722C183.083 126.732 183.088 126.741 183.093 126.751Z" fill="#EFC9C2"/>
<path d="M188.323 135.622C188.313 135.607 188.304 135.592 188.293 135.577C188.29 135.572 188.287 135.567 188.284 135.562C188.279 135.556 188.276 135.55 188.271 135.544C186.867 133.45 185.74 131.52 183.093 126.751C183.088 126.741 183.083 126.732 183.078 126.722C183.504 126.575 183.912 126.506 184.301 126.506C187.767 126.506 189.671 131.98 188.323 135.622Z" fill="#F69E76"/>
<path d="M259.241 199.398L262.364 188.016L262.97 185.814L259.241 199.398Z" fill="#C89186"/>
<path d="M217.466 203.985L218.427 199.781C243.124 197.894 255.015 193.023 262.97 185.814L262.364 188.016L259.241 199.398L240.035 202.394C238.986 202.557 237.948 202.794 236.926 203.101C234.985 203.681 233.169 203.887 231.489 203.887C228.069 203.887 225.214 203.033 223.011 202.747C222.659 202.701 222.306 202.678 221.953 202.678C220.375 202.678 218.819 203.135 217.466 203.985Z" fill="#C85D49"/>
<path d="M175.933 110.442C173.853 104.833 172.643 100.672 172.322 99.7201L181.683 93.8341C182.041 99.1903 177.868 106.824 175.933 110.442Z" fill="#EB9B76"/>
<path d="M235.138 147.826C235.684 149.797 236.859 151.518 238.4 152.762C239.946 154.002 241.809 154.818 243.753 155.172C245.696 155.53 247.718 155.436 249.634 154.915C250.596 154.659 251.529 154.287 252.41 153.807C253.303 153.346 254.132 152.763 254.927 152.12L255.203 152.42C254.489 153.196 253.659 153.865 252.771 154.445C251.871 155.007 250.902 155.463 249.891 155.798C247.864 156.462 245.669 156.596 243.567 156.203C241.471 155.806 239.441 154.892 237.835 153.443C237.036 152.72 236.335 151.882 235.801 150.942C235.278 149.998 234.899 148.972 234.741 147.913L235.138 147.826Z" fill="#AE5140"/>
<path d="M257.877 127.705L256.326 140.013C255.749 144.611 251.828 148.023 247.262 147.897C242.369 147.765 238.598 143.684 238.598 138.886C238.598 138.418 238.633 137.938 238.706 137.459L238.986 135.659L240.081 128.638L246.244 128.316L257.877 127.705Z" fill="#F9B384"/>
<path d="M236.29 107.428C236.463 105.613 237.299 103.451 238.251 101.49C240.074 97.7416 243.6 95.1395 247.674 94.543C253.795 93.6464 261.711 94.5207 266.02 100.488C270.88 107.217 266.842 120.669 261.632 121.817C256.422 122.964 236.29 107.428 236.29 107.428Z" fill="#102048"/>
<path d="M261.12 110.6L260.191 115.503L259.963 116.704L259.049 121.528L258.526 124.293L257.877 127.705L254.707 129.638C254.707 129.638 253.84 130.228 252.248 130.866L252.243 130.87C249.84 131.84 245.788 132.914 240.59 132.219C240.226 132.172 239.884 132.087 239.563 131.971C237.114 131.124 235.858 128.505 235.308 125.246C234.903 122.85 234.872 120.106 235.022 117.457C235.256 113.301 235.936 109.379 236.289 107.43C241.742 102.484 249.187 101.584 254.707 100.488L261.12 110.6Z" fill="#F9B384"/>
<path d="M236.29 107.428C244.976 100.488 256.677 107.519 256.677 107.519C256.677 107.519 254.888 118.449 258.347 117.546C261.806 116.645 265.315 109.337 265.315 109.337L257.398 97.7515L240.08 100.78L236.29 107.428Z" fill="#102048"/>
<path d="M257.899 117.905C259.6 114.872 262.913 113.899 264.694 116.2C266.474 118.501 266.544 125.74 257.786 124.177L257.899 117.905Z" fill="#F9B384"/>
<path d="M249.161 115.836C248.948 116.564 248.361 117.031 247.852 116.878C247.342 116.725 247.101 116.01 247.314 115.281C247.526 114.551 248.112 114.084 248.622 114.238C249.132 114.391 249.372 115.106 249.161 115.836Z" fill="#102048"/>
<path d="M239.935 115.391C239.722 116.121 239.137 116.588 238.627 116.435C238.117 116.281 237.875 115.566 238.088 114.836C238.301 114.108 238.886 113.641 239.396 113.794C239.906 113.947 240.148 114.662 239.935 115.391Z" fill="#102048"/>
<path d="M245.915 113.022C246.353 112.6 246.871 112.249 247.457 112.015C248.039 111.777 248.698 111.677 249.344 111.756C249.99 111.835 250.604 112.098 251.113 112.473C251.624 112.846 252.04 113.316 252.362 113.836L252.133 114.04C251.672 113.674 251.223 113.327 250.745 113.058C250.268 112.79 249.766 112.605 249.247 112.537C248.729 112.465 248.195 112.517 247.666 112.654C247.135 112.794 246.615 113.024 246.088 113.275L245.915 113.022Z" fill="#102048"/>
<path d="M241.343 113.064C240.918 112.379 240.226 112.053 239.518 112.054C239.165 112.055 238.81 112.139 238.469 112.291C238.127 112.443 237.802 112.663 237.463 112.914L237.226 112.72C237.428 112.312 237.74 111.945 238.141 111.682C238.538 111.417 239.026 111.262 239.52 111.269C240.013 111.273 240.511 111.43 240.902 111.738C241.295 112.039 241.579 112.494 241.632 112.968L241.343 113.064Z" fill="#102048"/>
<path d="M240.03 124.361L245.677 124.481C245.677 124.481 242.546 128.791 240.247 124.779L240.03 124.361Z" fill="white"/>
<path d="M252.215 125.974C250.017 125.974 248.237 124.166 248.237 121.936C248.237 119.706 250.017 117.899 252.215 117.899C254.411 117.899 256.192 119.706 256.192 121.936C256.192 124.166 254.411 125.974 252.215 125.974Z" fill="#F69E76"/>
<path d="M235.308 125.246C235.045 123.693 234.941 121.992 234.939 120.267C234.939 119.332 234.97 118.388 235.022 117.457C236.786 117.873 238.099 119.474 238.099 121.391C238.099 123.197 236.921 124.73 235.308 125.246Z" fill="#F69E76"/>
<path d="M158.075 104.593C158.075 104.593 169.4 110.219 167.3 119.554L159.811 121.682L158.075 104.593Z" fill="#102048"/>
<path d="M158.075 104.593C159.292 103.378 165.522 96.3881 165.306 87.6529C165.14 81.0284 168.034 84.0208 168.406 88.5915C168.406 88.5915 169.997 79.2425 174.385 80.1898L173.096 81.9818C173.096 81.9818 174.759 78.8152 176.101 79.6624C177.445 80.5097 176.228 83.2192 176.228 83.2192C176.228 83.2192 176.854 80.8703 178.005 80.6912C179.156 80.5121 180.212 84.1912 177.638 93.7946C177.638 93.7946 180.428 90.9874 181.529 90.5144C182.631 90.0401 182.557 97.3872 174.739 105.206C166.922 113.025 161.391 119.071 161.391 119.071L158.075 104.593Z" fill="#F9B384"/>
<path d="M112.448 142.894C112.723 143.325 158.076 104.593 158.076 104.593L167.3 119.554L121.009 174.887L112.448 142.894Z" fill="#708CD5"/>
<path d="M94.1346 176.526C94.1346 176.526 78.4653 170.252 72.0663 182.255C64.0203 197.348 76.11 215.084 76.11 215.084H97.3777L94.1346 176.526Z" fill="#FBC343"/>
<path d="M78.7947 181.475C78.3953 181.894 78.0548 182.369 77.7488 182.863C77.4402 183.355 77.1852 183.883 76.9537 184.419C76.4944 185.492 76.1444 186.616 75.9018 187.762C75.4128 190.057 75.2566 192.419 75.3651 194.764C75.466 197.113 75.8546 199.445 76.4321 201.724C77.0217 204.002 77.8408 206.218 78.8148 208.367L78.6335 208.458C78.3681 207.93 78.0875 207.406 77.8499 206.861C77.7288 206.591 77.5974 206.324 77.4845 206.05L77.1407 205.227C76.7099 204.118 76.3218 202.992 75.995 201.846C75.3589 199.549 74.9498 197.179 74.8493 194.789C74.7473 192.402 74.9166 189.991 75.4751 187.662C75.7516 186.499 76.1309 185.356 76.6341 184.271C76.8925 183.731 77.1744 183.201 77.5112 182.706C77.8431 182.208 78.2176 181.738 78.6536 181.326L78.7947 181.475Z" fill="#102048"/>
<path d="M134.553 123.888C139.692 127.072 143.244 125.178 144.281 121.743C145.319 118.308 149.113 105.365 133.256 107.452C133.256 107.452 113.824 99.499 105.601 111.233C98.3467 121.583 105.002 128.739 93.9184 137.321C86.1895 143.306 77.4276 153.82 94.8084 171.803L113.659 166.531L134.553 123.888Z" fill="#AE5140"/>
<path d="M128.698 138.896C129.082 140.716 133.241 145.431 134.904 147.201C139.935 152.547 141.045 162.579 126.703 165.644L118.634 146.566L128.698 138.896Z" fill="#6F3428"/>
<path d="M129.414 141.282L127.718 149.207L125.082 161.54L110.373 158.386L113.834 134.198L128.833 141.017L129.414 141.282Z" fill="#F9B384"/>
<path d="M139.458 136.605C138.862 141.196 137.357 144.725 134.14 145.041C125.248 145.915 112.448 135.804 112.448 135.804L113.138 117.287L122.809 111.23L138.462 114.179C138.649 116.27 139.609 122.664 139.765 129.095C139.827 131.686 139.759 134.282 139.458 136.605Z" fill="#F9B384"/>
<path d="M140.922 117.287L138.992 118.796C128.932 110.828 131.017 122.306 130.083 125.982C129.15 129.658 124.381 128.689 120.661 126.313L119.997 131.46L108.816 131.818L108.168 117.435L119.317 108.587L139.957 112.674L140.922 117.287Z" fill="#AE5140"/>
<path d="M126.478 170.692C131.97 167.701 130.413 159.895 128.275 157.224C126.137 154.553 117.053 150.071 115.951 141.661C115.338 136.982 119.997 131.46 119.997 131.46L110.546 126.312L100.861 141.768L108.168 168.312L126.478 170.692Z" fill="#AE5140"/>
<path d="M133.32 213.531L87.2223 213.564C85.2093 183.602 92.5661 168.282 98.9271 160.756C102.932 156.021 108.982 153.678 115.083 154.437C120.391 155.1 124.998 157.66 129.667 168.815L107.846 179.116L121.854 204.152C123.26 206.67 125.299 208.766 127.758 210.229L133.32 213.531Z" fill="#708CD5"/>
<path d="M107.846 179.116C107.846 179.116 114.705 206.984 117.247 210.65C119.894 214.469 125.576 213.509 135.478 213.532C166.147 213.598 135.478 213.532 135.478 213.532L122.968 185.24L107.846 179.116Z" fill="#1F3C88"/>
<path d="M163.809 205.956L161.826 213.361L135.478 213.531H133.32L127.758 210.229C125.299 208.766 123.26 206.67 121.854 204.152L107.846 179.116L129.667 168.815C132.013 174.402 134.368 182.154 136.832 192.897C137.164 194.346 138.156 195.557 139.499 196.153L163.809 205.956Z" fill="#708CD5"/>
<path d="M122.969 128.35C122.177 123.888 116.961 123.297 116.053 126.312C115.145 129.327 115.367 134.506 121.916 134.199L122.969 128.35Z" fill="#F9B384"/>
<path d="M139.229 138.069C139.317 137.595 139.394 137.106 139.458 136.605C139.552 135.883 139.622 135.137 139.674 134.372C139.677 134.37 139.681 134.368 139.683 134.366C139.601 135.71 139.458 137.012 139.229 138.069Z" fill="#8986BC"/>
<path d="M139.674 134.372C139.729 133.564 139.761 132.737 139.776 131.899C139.764 132.708 139.735 133.545 139.684 134.366C139.681 134.368 139.677 134.37 139.674 134.372ZM139.765 129.119C139.765 129.111 139.765 129.103 139.765 129.095C139.765 129.103 139.765 129.111 139.765 129.119Z" fill="#E48569"/>
<path d="M139.211 138.075C138.851 138.075 134.822 136.829 134.822 132.905C134.822 130.772 136.662 128.953 138.763 128.953C139.11 128.953 139.448 128.999 139.764 129.095C139.764 129.103 139.764 129.111 139.764 129.119C139.784 129.944 139.792 130.9 139.775 131.899C139.761 132.737 139.728 133.564 139.673 134.372C139.622 135.137 139.551 135.883 139.458 136.605C139.393 137.106 139.317 137.595 139.229 138.069C139.228 138.071 139.228 138.072 139.228 138.074C139.223 138.075 139.218 138.075 139.211 138.075Z" fill="#F7A57B"/>
<path d="M215.217 213.818H160.38L170.739 168.528H225.576L215.217 213.818Z" fill="#1F3C88"/>
<path d="M215.217 213.818H160.38C186.611 209.426 209.902 205.346 225.576 168.528L217.466 203.985C217.433 204.006 217.4 204.027 217.367 204.048C214.332 206.018 209.969 208.451 207.183 210.663C205.922 211.658 206.793 213.67 207.645 213.67L215.256 213.644L215.217 213.818Z" fill="#162B62"/>
<path d="M196.011 192.464C195.176 194.485 193.141 195.545 191.467 194.832C189.79 194.119 189.11 191.903 189.944 189.881C190.779 187.861 192.815 186.8 194.49 187.514C196.165 188.226 196.847 190.443 196.011 192.464Z" fill="white"/>
<path d="M283.185 180.322L283.02 184.925L282.273 205.555V205.581C282.211 207.139 281.806 208.646 281.116 210.004C280.425 211.353 279.439 212.553 278.215 213.507H255.366L207.645 213.67C206.793 213.67 205.922 211.658 207.183 210.663C209.969 208.451 214.332 206.018 217.367 204.048C219.043 202.964 221.041 202.489 223.012 202.747C226.297 203.174 231.033 204.864 236.927 203.101C237.949 202.794 238.986 202.557 240.035 202.394L259.241 199.398L266.801 198.219L267.014 185.22L267.082 181.287C267.802 181.092 268.539 180.918 269.297 180.764C273.266 179.964 277.794 179.717 283.185 180.322Z" fill="#F9B384"/>
<path d="M283.019 184.925C280.421 183.999 270.901 181.239 267.688 181.239C267.448 181.239 267.244 181.254 267.081 181.287C267.801 181.092 268.539 180.918 269.297 180.764C271.755 180.269 274.43 179.985 277.39 179.985C279.209 179.985 281.135 180.093 283.185 180.322L283.019 184.925Z" fill="#EB9B76"/>
<path d="M278.215 213.507H271.272C272.308 207.729 276.137 205.346 280.172 205.346C280.871 205.346 281.574 205.416 282.272 205.555V205.581C282.21 207.139 281.805 208.646 281.115 210.004C280.424 211.353 279.439 212.553 278.215 213.507Z" fill="#F69E76"/>
<path d="M320.729 219.781H43.7998V213.553H320.729V219.781Z" fill="#D3DFFF"/>
<path d="M43.7998 213.934H320.729V213.193H43.7998V213.934Z" fill="#102048"/>
<path d="M85.2425 103.77C83.1173 92.1286 72.0978 84.4407 60.63 86.5982C49.162 88.7558 41.5884 99.9412 43.7138 111.581C45.8391 123.222 56.8584 130.91 68.3262 128.752C71.1962 128.213 73.8223 127.107 76.1134 125.571L83.419 128.804L79.9035 122.314C84.3187 117.513 86.5121 110.723 85.2425 103.77Z" fill="#C6EAE9"/>
<path d="M56.5748 115.158V108.636L56.2001 108.824C55.815 109.018 55.3984 109.117 54.9619 109.117C53.4127 109.117 52.1523 107.838 52.1523 106.264C52.1523 104.69 53.4127 103.409 54.9619 103.409C55.3966 103.409 55.8137 103.507 56.2017 103.699L56.5748 103.883V97.3686H62.1392C62.0519 97.6712 62.0076 97.9849 62.0076 98.3072C62.0076 100.172 63.5023 101.689 65.3394 101.689C67.1766 101.689 68.6711 100.172 68.6711 98.3072C68.6711 97.9849 68.627 97.6712 68.5395 97.3686H74.1041V103.068C73.7572 102.945 73.3907 102.883 73.0101 102.883C71.173 102.883 69.6783 104.399 69.6783 106.264C69.6783 108.128 71.173 109.643 73.0101 109.643C73.3826 109.643 73.7544 109.578 74.1041 109.454V115.158H56.5748Z" fill="white"/>
<path d="M74.3632 97.1044H68.1711C68.3268 97.4761 68.4114 97.8812 68.4114 98.3073C68.4114 100.028 67.0342 101.426 65.3391 101.426C63.6439 101.426 62.2667 100.028 62.2667 98.3073C62.2667 97.8812 62.3513 97.4761 62.5069 97.1044H56.3149V103.462C55.9055 103.26 55.4488 103.146 54.9615 103.146C53.2663 103.146 51.8926 104.54 51.8926 106.264C51.8926 107.986 53.2663 109.38 54.9615 109.38C55.4488 109.38 55.9055 109.267 56.3149 109.06V115.422H74.3632V109.057C73.9571 109.263 73.4969 109.38 73.0098 109.38C71.3112 109.38 69.9374 107.986 69.9374 106.264C69.9374 104.54 71.3112 103.146 73.0098 103.146C73.4969 103.146 73.9571 103.26 74.3632 103.466V97.1044ZM73.8443 97.6317V102.717C73.5748 102.652 73.2959 102.62 73.0098 102.62C71.0295 102.62 69.4185 104.255 69.4185 106.264C69.4185 108.272 71.0295 109.906 73.0098 109.906C73.2908 109.906 73.5718 109.873 73.8443 109.805V114.895H56.8337V109.06V108.212L56.0845 108.589C55.7357 108.764 55.3578 108.853 54.9615 108.853C53.5554 108.853 52.4114 107.692 52.4114 106.264C52.4114 104.835 53.5554 103.673 54.9615 103.673C55.3564 103.673 55.7353 103.761 56.0875 103.935L56.8337 104.304V103.462V97.6317H61.8099C61.7686 97.8528 61.7479 98.0775 61.7479 98.3073C61.7479 100.317 63.3588 101.952 65.3391 101.952C67.3192 101.952 68.9302 100.317 68.9302 98.3073C68.9302 98.0775 68.9094 97.8528 68.8681 97.6317H73.8443Z" fill="#8CBFBE"/>
<path d="M286.141 104.028C286.844 92.2113 296.852 83.2094 308.494 83.9232C320.135 84.637 329.004 94.7961 328.301 106.614C327.597 118.43 317.589 127.432 305.947 126.718C303.034 126.539 300.294 125.769 297.835 124.529L290.974 128.647L293.679 121.769C288.717 117.553 285.721 111.087 286.141 104.028Z" fill="#D3DFFF"/>
<path d="M310.814 114.36C310.265 113.193 309.107 112.447 307.821 112.447C306.535 112.447 305.38 113.193 304.835 114.36H299.043V107.843L298.692 108.022C298.303 108.218 297.885 108.318 297.447 108.318C295.887 108.318 294.618 107.031 294.618 105.45C294.618 103.867 295.887 102.579 297.447 102.579C297.889 102.579 298.308 102.677 298.692 102.872L299.043 103.051V96.5375H305.268L305.154 96.2077C305.049 95.9039 304.995 95.5841 304.995 95.2593C304.995 93.676 306.263 92.3879 307.821 92.3879C309.381 92.3879 310.65 93.676 310.65 95.2593C310.65 95.5841 310.597 95.9039 310.491 96.2077L310.378 96.5375H316.602V114.36H310.814Z" fill="white"/>
<path d="M307.822 92.1409C306.126 92.1409 304.752 93.5389 304.752 95.2592C304.752 95.6199 304.813 95.9669 304.925 96.2905H298.8V102.651C298.395 102.444 297.934 102.332 297.447 102.332C295.749 102.332 294.375 103.726 294.375 105.45C294.375 107.171 295.749 108.565 297.447 108.565C297.934 108.565 298.395 108.449 298.8 108.243V114.607H304.993C305.453 113.484 306.545 112.694 307.822 112.694C309.1 112.694 310.193 113.484 310.656 114.607H316.846V96.2905H310.721C310.833 95.9669 310.894 95.6199 310.894 95.2592C310.894 93.5389 309.52 92.1409 307.822 92.1409ZM307.822 92.6349C309.246 92.6349 310.407 93.8131 310.407 95.2592C310.407 95.5569 310.358 95.8483 310.262 96.1262L310.035 96.7845H310.721H316.359V114.113H310.964C310.35 112.941 309.149 112.2 307.822 112.2C306.493 112.2 305.296 112.941 304.684 114.113H299.287V108.243V107.444L298.582 107.801C298.229 107.98 297.846 108.071 297.447 108.071C296.021 108.071 294.862 106.895 294.862 105.45C294.862 104.003 296.021 102.826 297.447 102.826C297.851 102.826 298.233 102.915 298.582 103.093L299.287 103.45V102.651V96.7845H304.925H305.611L305.383 96.1262C305.287 95.8483 305.239 95.5569 305.239 95.2592C305.239 93.8131 306.397 92.6349 307.822 92.6349Z" fill="#708CD5"/>
<path d="M178.435 66.6962V66.1046C178.435 64.2052 179.266 62.4206 180.626 61.0238C181.87 59.7481 182.629 58.0475 182.629 56.1764C182.629 52.2146 179.231 49.0023 175.04 49.0023C174.914 49.0023 174.787 49.0048 174.658 49.011C170.788 49.19 167.62 52.2072 167.458 55.8677C167.367 57.9104 168.182 59.7715 169.553 61.1251C171.007 62.5614 171.9 64.4225 171.9 66.4109V66.6962C166.871 65.2981 163.172 60.1988 163.172 54.6487C163.172 47.9958 168.485 42.6025 175.04 42.6025C181.595 42.6025 186.908 47.9958 186.908 54.6487C186.908 60.0543 183.266 65.1709 178.435 66.6962Z" fill="#FEF3D9"/>
<path d="M174.521 39.5163H175.559V30.5212H174.521V39.5163Z" fill="#FBC343"/>
<path d="M167.037 41.6479L159.27 35.7619L158.649 36.6066L166.417 42.4914" fill="#FBC343"/>
<path d="M183.663 42.4914L191.431 36.6066L190.81 35.7619L183.043 41.6479" fill="#FBC343"/>
<path d="M171.296 40.2129L169.675 35.9929L168.708 36.3757L170.329 40.5957" fill="#FBC343"/>
<path d="M179.751 40.5957L181.372 36.3757L180.405 35.9929L178.785 40.2129" fill="#FBC343"/>
<path d="M182.629 56.1764C182.629 52.0948 179.024 48.8084 174.658 49.011C170.788 49.19 167.62 52.2072 167.458 55.8677C167.367 57.9104 168.182 59.7715 169.553 61.1251C171.007 62.5614 171.9 64.4225 171.9 66.4109V66.6962H178.435V66.1046C178.435 64.2052 179.266 62.4206 180.626 61.0238C181.87 59.7481 182.629 58.0475 182.629 56.1764Z" fill="#FBC343"/>
<path d="M175.04 72.5871C173.235 72.5871 171.772 71.1014 171.772 69.2699V69.1069H178.307V69.2699C178.307 71.1014 176.845 72.5871 175.04 72.5871Z" fill="#FBC343"/>
<path d="M172.606 56.9409C171.615 56.9409 170.812 56.1258 170.812 55.1193C170.812 54.114 171.615 53.2989 172.606 53.2989C173.596 53.2989 174.401 54.114 174.401 55.1193C174.401 56.1258 173.596 56.9409 172.606 56.9409Z" fill="#FEF3D9"/>
<path d="M240.578 74.4668V70.3876H238.66C238.412 69.2403 237.959 68.1708 237.341 67.2198L238.716 65.8243L235.875 62.9406L234.466 64.3694C233.534 63.7791 232.493 63.3481 231.38 63.1196V61.051H227.361V63.1913C226.29 63.4506 225.29 63.8952 224.396 64.4929L222.867 62.9406L220.025 65.8243L221.588 67.4113C221.033 68.314 220.623 69.3169 220.392 70.3876H218.163V74.4668H220.392C220.623 75.5376 221.033 76.5404 221.588 77.4419L220.025 79.0301L222.867 81.9139L224.396 80.3615C225.29 80.9592 226.29 81.4038 227.361 81.6632V83.8034H231.38V81.7348C232.493 81.5063 233.534 81.0753 234.466 80.4837L235.875 81.9139L238.716 79.0301L237.341 77.6346C237.959 76.6836 238.412 75.6141 238.66 74.4668H240.578Z" fill="#F0F0F0"/>
<path d="M235.641 72.4278C235.641 75.9426 232.834 78.793 229.371 78.793C225.907 78.793 223.099 75.9426 223.099 72.4278C223.099 68.9118 225.907 66.0614 229.371 66.0614C232.834 66.0614 235.641 68.9118 235.641 72.4278Z" fill="white"/>
<path d="M260.995 68.03L261.898 65.2216L260.578 64.7844C260.66 63.9384 260.585 63.0986 260.371 62.302L261.625 61.6561L260.308 59.0219L259.023 59.6851C258.511 59.0651 257.889 58.5303 257.173 58.1203L257.632 56.6951L254.865 55.7788L254.391 57.2521C253.596 57.1854 252.809 57.2645 252.061 57.472L251.352 56.0542L248.756 57.3917L249.482 58.8403C248.9 59.3356 248.395 59.9321 247.999 60.6163L246.464 60.1087L245.562 62.9171L247.096 63.4247C247.019 64.2151 247.079 64.9993 247.261 65.7465L245.833 66.4825L247.15 69.1168L248.547 68.3968C249.031 69.0118 249.622 69.5465 250.302 69.9702L249.827 71.4435L252.594 72.3599L253.053 70.9359C253.869 71.0323 254.682 70.9742 255.454 70.7791L256.108 72.0845L258.702 70.747L258.065 69.4737C258.7 68.9587 259.249 68.3264 259.674 67.5928L260.995 68.03Z" fill="#F0F0F0"/>
<path d="M258.047 65.5007C257.269 67.9213 254.705 69.2428 252.32 68.4524C249.935 67.662 248.632 65.0598 249.411 62.638C250.19 60.2174 252.754 58.8959 255.139 59.6863C257.524 60.4767 258.826 63.0789 258.047 65.5007Z" fill="white"/>
<path d="M132.821 76.2477L134.846 73.4393L133.526 72.4575C133.925 71.5399 134.144 70.5716 134.192 69.6009L135.831 69.344L135.308 65.9033L133.629 66.1676C133.279 65.2821 132.777 64.4534 132.124 63.726L133.152 62.3008L130.385 60.2445L129.322 61.7191C128.455 61.3486 127.545 61.1436 126.633 61.0967L126.35 59.2454L122.961 59.7765L123.249 61.6697C122.418 62.0069 121.638 62.4873 120.947 63.106L119.412 61.9649L117.386 64.7733L118.921 65.9144C118.548 66.7703 118.332 67.6706 118.266 68.5759L116.401 68.8686L116.925 72.3093L118.749 72.0227C119.068 72.8922 119.536 73.711 120.145 74.4372L119.081 75.9118L121.848 77.968L122.876 76.5428C123.755 76.9566 124.687 77.1924 125.623 77.2628L125.882 78.9684L129.272 78.4361L129.019 76.7726C129.915 76.4329 130.758 75.9291 131.499 75.2659L132.821 76.2477Z" fill="#F0F0F0"/>
<path d="M130.435 72.3167C128.688 74.7373 125.339 75.2634 122.954 73.4899C120.569 71.7177 120.052 68.3165 121.798 65.8959C123.545 63.4753 126.895 62.9504 129.279 64.7227C131.664 66.4961 132.182 69.8961 130.435 72.3167Z" fill="white"/>
<path d="M108.04 70.1183L110.057 68.6475L109.365 67.6706C109.842 67.1297 110.208 66.5134 110.456 65.8551L111.641 66.0527L112.042 63.5642L110.828 63.3629C110.784 62.6738 110.621 61.9883 110.332 61.3387L111.355 60.5928L109.906 58.5452L108.847 59.317C108.333 58.865 107.752 58.5155 107.134 58.2759L107.35 56.936L104.899 56.5296L104.678 57.898C104.031 57.9412 103.387 58.0944 102.774 58.3624L101.97 57.2262L99.9537 58.6983L100.758 59.8333C100.312 60.3371 99.9637 60.9089 99.7178 61.5166L98.369 61.293L97.9678 63.7803L99.2874 64.0002C99.3143 64.6708 99.4549 65.3414 99.7134 65.9811L98.6548 66.753L100.104 68.8006L101.128 68.0534C101.642 68.5388 102.23 68.9142 102.859 69.176L102.661 70.4086L105.112 70.8161L105.306 69.6132C105.999 69.5836 106.691 69.4292 107.348 69.1415L108.04 70.1183Z" fill="#F0F0F0"/>
<path d="M107.267 66.8678C105.529 68.1362 103.106 67.7335 101.857 65.9687C100.607 64.2039 101.004 61.745 102.742 60.4767C104.481 59.2084 106.903 59.611 108.153 61.3758C109.402 63.1406 109.006 65.5995 107.267 66.8678Z" fill="white"/>
</svg>
