<?xml version="1.0" encoding="utf-8"?>
<!-- Generator: Adobe Illustrator 25.0.0, SVG Export Plug-In . SVG Version: 6.00 Build 0)  -->
<svg version="1.1" xmlns="http://www.w3.org/2000/svg" xmlns:xlink="http://www.w3.org/1999/xlink" x="0px" y="0px"
	 viewBox="0 0 500 500" style="enable-background:new 0 0 500 500;" xml:space="preserve">
<style type="text/css">
	.st0{fill:#EBEBEB;}
	.st1{fill:#E6E6E6;}
	.st2{fill:#E0E0E0;}
	.st3{fill:#F0F0F0;}
	.st4{fill:#F5F5F5;}
	.st5{fill:#FFFFFF;}
	.st6{opacity:0.8;fill:#FFFFFF;}
	.st7{fill:#9FDBD8;}
	.st8{fill:#639CCE;}
	.st9{fill:#407BFF;}
	.st10{opacity:0.4;fill:#FFFFFF;}
	.st11{opacity:0.4;fill:#407BFF;}
	.st12{opacity:0.5;fill:#FFFFFF;}
	.st13{opacity:0.2;}
	.st14{opacity:0.8;}
	.st15{opacity:0.6;}
	.st16{opacity:0.7;}
	.st17{fill:#B7D2F1;}
	.st18{opacity:0.5;}
	.st19{fill:#FF8B7B;}
	.st20{opacity:0.3;enable-background:new    ;}
	.st21{fill:#263238;}
	.st22{opacity:0.1;}
	.st23{fill:#22C6B6;}
	.st24{opacity:0.2;enable-background:new    ;}
	.st25{fill:#FF5652;}
	.st26{fill:#2177B7;}
</style>
<g id="Background_Complete">
</g>
<g id="Shadow">
</g>
<g id="Chart_2">
</g>
<g id="Coins">
</g>
<g id="Chart_1">
</g>
<g id="Arrow">
</g>
<g id="Symbol">
</g>
<g id="Character">
	<g>
		<rect x="416.78" y="398.49" class="st0" width="33.12" height="0.25"/>
		<rect x="322.53" y="401.21" class="st0" width="8.69" height="0.25"/>
		<rect x="396.59" y="389.21" class="st0" width="19.19" height="0.25"/>
		<rect x="52.46" y="390.89" class="st0" width="43.19" height="0.25"/>
		<rect x="104.56" y="390.89" class="st0" width="6.33" height="0.25"/>
		<rect x="131.47" y="395.11" class="st0" width="93.68" height="0.25"/>
		<path class="st0" d="M237.01,337.8H43.92c-3.15,0-5.71-2.56-5.71-5.71V60.66c0-3.15,2.56-5.71,5.71-5.71h193.1
			c3.15,0,5.71,2.56,5.71,5.71v271.43C242.72,335.24,240.16,337.8,237.01,337.8z M43.92,55.2c-3.01,0-5.46,2.45-5.46,5.46v271.43
			c0,3.01,2.45,5.46,5.46,5.46h193.1c3.01,0,5.46-2.45,5.46-5.46V60.66c0-3.01-2.45-5.46-5.46-5.46H43.92z"/>
		<path class="st0" d="M453.31,337.8h-193.1c-3.15,0-5.71-2.56-5.71-5.71V60.66c0-3.15,2.56-5.71,5.71-5.71h193.1
			c3.15,0,5.71,2.56,5.71,5.71v271.43C459.02,335.24,456.46,337.8,453.31,337.8z M260.21,55.2c-3.01,0-5.46,2.45-5.46,5.46v271.43
			c0,3.01,2.45,5.46,5.46,5.46h193.1c3.01,0,5.46-2.45,5.46-5.46V60.66c0-3.01-2.45-5.46-5.46-5.46H260.21z"/>
		<rect y="382.4" class="st0" width="500" height="0.25"/>
		<g>
			<g>
				<rect x="126.78" y="242.62" class="st1" width="22.4" height="94.96"/>
				<g>
					<rect x="164.12" y="210.24" class="st2" width="22.4" height="127.34"/>
				</g>
				<g>
					<rect x="201.46" y="242.62" class="st0" width="22.4" height="94.96"/>
				</g>
				<g>
					<rect x="52.1" y="274.99" class="st3" width="22.4" height="62.58"/>
				</g>
				<g>
					<rect x="89.44" y="259.36" class="st0" width="22.4" height="78.21"/>
				</g>
				<rect x="238.8" y="274.99" class="st4" width="22.4" height="62.58"/>
				<g>
					<rect x="425.49" y="177.86" class="st2" width="22.4" height="159.72"/>
				</g>
				<g>
					<rect x="276.14" y="242.62" class="st3" width="22.4" height="94.96"/>
				</g>
				<g>
					<rect x="388.15" y="210.24" class="st1" width="22.4" height="127.34"/>
				</g>
				<rect x="350.82" y="226.98" class="st0" width="22.4" height="110.59"/>
				<g>
					<rect x="313.48" y="259.36" class="st3" width="22.4" height="78.21"/>
				</g>
			</g>
			<g>
				<g>
					<g>
						
							<ellipse transform="matrix(0.2298 -0.9732 0.9732 0.2298 -154.4113 229.6985)" class="st2" cx="67.91" cy="212.4" rx="15.63" ry="15.63"/>
					</g>
					
						<ellipse transform="matrix(0.7071 -0.7071 0.7071 0.7071 -129.7509 111.5591)" class="st1" cx="69.79" cy="212.4" rx="15.63" ry="15.63"/>
					<circle class="st3" cx="69.79" cy="212.4" r="11.7"/>
				</g>
				<g>
					<path class="st5" d="M74.93,214.89c0.45,2.59-1.32,4.32-4.52,4.59l-0.05,2.14H68.4l0.05-2.14c-1.88-0.17-3.61-0.76-4.73-1.5
						l0.88-2.41c1.16,0.76,2.55,1.24,3.92,1.38l0.09-3.29c-1.9-0.54-4.01-1.26-4.42-3.62c-0.45-2.59,1.36-4.33,4.63-4.57l0.05-2.14
						h1.94l-0.05,2.16c1.4,0.14,2.74,0.53,3.77,1.11l-0.76,2.41c-0.93-0.56-2-0.9-3.07-1.01l-0.08,3.42
						C72.49,211.96,74.53,212.66,74.93,214.89z M68.66,210.89l0.07-2.8c-1.07,0.21-1.59,0.82-1.48,1.56
						C67.37,210.24,67.91,210.59,68.66,210.89z M71.86,215.4c-0.1-0.56-0.61-0.91-1.33-1.17l-0.06,2.66
						C71.49,216.68,71.99,216.14,71.86,215.4z"/>
				</g>
			</g>
			<g>
				<g>
					<path class="st3" d="M440.05,126.23h-81.39c-4.14,0-7.49-3.36-7.49-7.49l0-30.75c0-4.14,3.36-7.49,7.49-7.49h81.39
						c4.14,0,7.49,3.36,7.49,7.49v30.75C447.54,122.87,444.19,126.23,440.05,126.23z"/>
				</g>
				<g>
					<path class="st5" d="M376.18,120.63h-6.77c-0.4,0-0.72-0.32-0.72-0.72V87.44c0-0.4,0.32-0.72,0.72-0.72h6.77
						c0.4,0,0.72,0.32,0.72,0.72v32.47C376.91,120.31,376.58,120.63,376.18,120.63z"/>
					<path class="st5" d="M431.69,120.63h-6.77c-0.4,0-0.72-0.32-0.72-0.72V87.44c0-0.4,0.32-0.72,0.72-0.72h6.77
						c0.4,0,0.72,0.32,0.72,0.72l0,32.47C432.41,120.31,432.09,120.63,431.69,120.63z"/>
					<path class="st5" d="M404.9,120.63h-6.77c-0.4,0-0.72-0.32-0.72-0.72l0-21.29c0-0.4,0.32-0.72,0.72-0.72h6.77
						c0.4,0,0.72,0.32,0.72,0.72v21.29C405.62,120.31,405.3,120.63,404.9,120.63z"/>
					<path class="st5" d="M390.66,120.63h-6.77c-0.4,0-0.72-0.32-0.72-0.72v-15.83c0-0.4,0.32-0.72,0.72-0.72h6.77
						c0.4,0,0.72,0.32,0.72,0.72v15.83C391.39,120.31,391.06,120.63,390.66,120.63z"/>
					<path class="st5" d="M418.29,120.63h-6.77c-0.4,0-0.72-0.32-0.72-0.72l0-2.55c0-0.4,0.32-0.72,0.72-0.72h6.77
						c0.4,0,0.72,0.32,0.72,0.72l0,2.55C419.02,120.31,418.69,120.63,418.29,120.63z"/>
				</g>
				<path class="st2" d="M428.42,86.51c-0.38-0.19-0.83-0.02-0.99,0.37l-11.99,26.04c-0.23,0.55-0.99,0.61-1.29,0.1l-11.17-16.95
					c-0.21-0.36-0.68-0.46-1.03-0.23l-13.92,5.6c-0.22,0.15-0.52,0.16-0.75,0.03l-15.26-15.39c-0.37-0.2-0.83-0.05-1.01,0.33
					l-0.04,0.08c-0.16,0.34-0.02,0.75,0.31,0.94l16.06,15.83c0.24,0.13,0.53,0.12,0.75-0.03l13.41-5.26
					c0.35-0.23,0.81-0.13,1.03,0.23l11.84,18.07c0.31,0.51,1.07,0.46,1.29-0.1l13.1-28.75C428.91,87.09,428.76,86.68,428.42,86.51z"
					/>
			</g>
			<g>
				<g>
					<g>
						<circle class="st2" cx="221.2" cy="108.78" r="16.31"/>
						<circle class="st6" cx="221.01" cy="108.78" r="13.09"/>
					</g>
				</g>
				<g>
					<circle class="st2" cx="220.97" cy="109.87" r="1.33"/>
				</g>
				<g>
					<polygon class="st2" points="220.82,110.36 215.19,105.06 215.74,104.48 220.84,109.28 229.98,101.2 230.51,101.8 					"/>
				</g>
			</g>
		</g>
		<ellipse id="_x3C_Path_x3E__359_" class="st4" cx="250" cy="415.69" rx="193.89" ry="11.32"/>
		<g>
			<g>
				<rect x="217.2" y="242.7" class="st7" width="66.02" height="173.73"/>
				<rect x="234.2" y="242.7" class="st8" width="49.23" height="173.73"/>
			</g>
			<g>
				<rect x="303.45" y="301.93" class="st7" width="66.02" height="114.49"/>
				<rect x="320.24" y="301.66" class="st8" width="49.23" height="114.77"/>
			</g>
			<g>
				<rect x="130.53" y="273.68" class="st7" width="66.02" height="142.74"/>
				<rect x="147.32" y="273.33" class="st8" width="49.23" height="143.09"/>
			</g>
		</g>
		<g>
			<g>
				<g>
					<g>
						<path class="st9" d="M156.23,416.61c-0.09,2.13,6.64,4.14,15.03,4.49c8.39,0.36,15.27-1.08,15.36-3.2
							c0.09-2.13-6.64-4.14-15.03-4.49C163.2,413.05,156.32,414.49,156.23,416.61z"/>
						
							<rect x="169.58" y="400.13" transform="matrix(0.0424 -0.9991 0.9991 0.0424 -250.7314 569.0601)" class="st9" width="3.85" height="30.42"/>
					</g>
					<g>
						<path class="st9" d="M156.39,412.76c-0.09,2.13,6.64,4.14,15.03,4.5c8.39,0.36,15.27-1.08,15.36-3.2
							c0.09-2.13-6.64-4.14-15.03-4.49C163.36,409.2,156.48,410.64,156.39,412.76z"/>
						<path class="st10" d="M156.39,412.76c-0.09,2.13,6.64,4.14,15.03,4.5c8.39,0.36,15.27-1.08,15.36-3.2
							c0.09-2.13-6.64-4.14-15.03-4.49C163.36,409.2,156.48,410.64,156.39,412.76z"/>
					</g>
					<g>
						<path class="st9" d="M158.33,412.7c-0.01,0.12,0.04,0.28,0.13,0.38c1.02-1.25,6.57-1.98,13.21-1.7
							c6.66,0.28,12.13,1.49,13.02,2.82c0.09-0.1,0.16-0.24,0.16-0.37c0.06-1.44-5.82-2.88-13.15-3.19
							C164.39,410.32,158.39,411.26,158.33,412.7z"/>
						<path class="st11" d="M158.33,412.7c-0.01,0.12,0.04,0.28,0.13,0.38c1.02-1.25,6.57-1.98,13.21-1.7
							c6.66,0.28,12.13,1.49,13.02,2.82c0.09-0.1,0.16-0.24,0.16-0.37c0.06-1.44-5.82-2.88-13.15-3.19
							C164.39,410.32,158.39,411.26,158.33,412.7z"/>
					</g>
					<g>
						<path class="st11" d="M158.46,413.08c0.91,1.33,6.38,2.53,13.02,2.82c6.66,0.28,12.21-0.45,13.21-1.7
							c-0.89-1.33-6.36-2.53-13.02-2.82C165.03,411.09,159.48,411.83,158.46,413.08z"/>
					</g>
				</g>
				<g>
					<g>
						<path class="st9" d="M153.04,410.78c-0.09,2.13,6.64,4.14,15.03,4.49c8.39,0.36,15.27-1.08,15.36-3.2
							c0.09-2.13-6.64-4.14-15.03-4.49C160,407.22,153.13,408.66,153.04,410.78z"/>
						
							<rect x="166.39" y="394.3" transform="matrix(0.0424 -0.9991 0.9991 0.0424 -247.9581 560.3111)" class="st9" width="3.85" height="30.42"/>
					</g>
					<g>
						<path class="st9" d="M153.2,406.94c-0.09,2.13,6.64,4.14,15.03,4.49c8.39,0.36,15.27-1.08,15.36-3.2
							c0.09-2.13-6.64-4.14-15.03-4.49C160.17,403.38,153.29,404.81,153.2,406.94z"/>
						<path class="st10" d="M153.2,406.94c-0.09,2.13,6.64,4.14,15.03,4.49c8.39,0.36,15.27-1.08,15.36-3.2
							c0.09-2.13-6.64-4.14-15.03-4.49C160.17,403.38,153.29,404.81,153.2,406.94z"/>
					</g>
					<g>
						<path class="st9" d="M155.14,406.87c-0.01,0.12,0.04,0.28,0.13,0.38c1.02-1.25,6.57-1.98,13.21-1.7
							c6.66,0.28,12.13,1.49,13.02,2.82c0.09-0.1,0.16-0.24,0.16-0.37c0.06-1.44-5.82-2.88-13.15-3.19
							C161.2,404.49,155.2,405.43,155.14,406.87z"/>
						<path class="st11" d="M155.14,406.87c-0.01,0.12,0.04,0.28,0.13,0.38c1.02-1.25,6.57-1.98,13.21-1.7
							c6.66,0.28,12.13,1.49,13.02,2.82c0.09-0.1,0.16-0.24,0.16-0.37c0.06-1.44-5.82-2.88-13.15-3.19
							C161.2,404.49,155.2,405.43,155.14,406.87z"/>
					</g>
					<g>
						<path class="st11" d="M155.27,407.25c0.91,1.33,6.38,2.53,13.02,2.82c6.66,0.28,12.21-0.45,13.21-1.7
							c-0.89-1.33-6.36-2.53-13.02-2.82C161.84,405.26,156.28,406,155.27,407.25z"/>
					</g>
				</g>
				<g>
					<g>
						<path class="st9" d="M153.45,403.76c-0.09,2.13,6.64,4.14,15.03,4.49c8.39,0.36,15.27-1.08,15.36-3.2
							c0.09-2.13-6.64-4.14-15.03-4.49C160.42,400.2,153.54,401.64,153.45,403.76z"/>
						
							<rect x="166.8" y="387.28" transform="matrix(0.0424 -0.9991 0.9991 0.0424 -240.5514 553.9904)" class="st9" width="3.85" height="30.42"/>
					</g>
					<g>
						<path class="st9" d="M153.61,399.91c-0.09,2.13,6.64,4.14,15.03,4.49c8.39,0.36,15.27-1.08,15.36-3.2
							c0.09-2.13-6.64-4.14-15.03-4.49C160.58,396.35,153.7,397.79,153.61,399.91z"/>
						<path class="st10" d="M153.61,399.91c-0.09,2.13,6.64,4.14,15.03,4.49c8.39,0.36,15.27-1.08,15.36-3.2
							c0.09-2.13-6.64-4.14-15.03-4.49C160.58,396.35,153.7,397.79,153.61,399.91z"/>
					</g>
					<g>
						<path class="st9" d="M155.55,399.85c-0.01,0.12,0.04,0.28,0.13,0.38c1.02-1.25,6.57-1.98,13.21-1.7
							c6.66,0.28,12.13,1.49,13.02,2.82c0.09-0.1,0.16-0.24,0.16-0.37c0.06-1.44-5.82-2.88-13.15-3.19
							C161.61,397.47,155.61,398.41,155.55,399.85z"/>
						<path class="st11" d="M155.55,399.85c-0.01,0.12,0.04,0.28,0.13,0.38c1.02-1.25,6.57-1.98,13.21-1.7
							c6.66,0.28,12.13,1.49,13.02,2.82c0.09-0.1,0.16-0.24,0.16-0.37c0.06-1.44-5.82-2.88-13.15-3.19
							C161.61,397.47,155.61,398.41,155.55,399.85z"/>
					</g>
					<g>
						<path class="st11" d="M155.68,400.23c0.91,1.33,6.38,2.53,13.02,2.82c6.66,0.28,12.21-0.45,13.21-1.7
							c-0.89-1.33-6.36-2.53-13.02-2.82C162.25,398.24,156.7,398.98,155.68,400.23z"/>
					</g>
				</g>
				<g>
					<g>
						<path class="st9" d="M150.26,397.94c-0.09,2.13,6.64,4.14,15.03,4.49c8.39,0.36,15.27-1.08,15.36-3.2
							c0.09-2.13-6.64-4.14-15.03-4.49C157.22,394.38,150.35,395.81,150.26,397.94z"/>
						
							<rect x="163.61" y="381.45" transform="matrix(0.0425 -0.9991 0.9991 0.0425 -237.7938 545.1978)" class="st9" width="3.85" height="30.42"/>
					</g>
					<g>
						<path class="st9" d="M150.42,394.09c-0.09,2.13,6.64,4.14,15.03,4.49c8.39,0.36,15.27-1.08,15.36-3.2
							c0.09-2.13-6.64-4.14-15.03-4.49C157.39,390.53,150.51,391.96,150.42,394.09z"/>
						<path class="st10" d="M150.42,394.09c-0.09,2.13,6.64,4.14,15.03,4.49c8.39,0.36,15.27-1.08,15.36-3.2
							c0.09-2.13-6.64-4.14-15.03-4.49C157.39,390.53,150.51,391.96,150.42,394.09z"/>
					</g>
					<g>
						<path class="st9" d="M152.36,394.02c-0.01,0.12,0.04,0.28,0.13,0.38c1.02-1.25,6.57-1.98,13.21-1.7
							c6.66,0.28,12.13,1.49,13.02,2.82c0.09-0.1,0.16-0.24,0.16-0.37c0.06-1.44-5.82-2.88-13.15-3.19
							C158.42,391.64,152.42,392.58,152.36,394.02z"/>
						<path class="st11" d="M152.36,394.02c-0.01,0.12,0.04,0.28,0.13,0.38c1.02-1.25,6.57-1.98,13.21-1.7
							c6.66,0.28,12.13,1.49,13.02,2.82c0.09-0.1,0.16-0.24,0.16-0.37c0.06-1.44-5.82-2.88-13.15-3.19
							C158.42,391.64,152.42,392.58,152.36,394.02z"/>
					</g>
					<g>
						<path class="st11" d="M152.49,394.4c0.91,1.33,6.38,2.53,13.02,2.82c6.66,0.28,12.21-0.45,13.21-1.7
							c-0.89-1.33-6.36-2.53-13.02-2.82C159.06,392.42,153.5,393.15,152.49,394.4z"/>
					</g>
				</g>
				<g>
					<g>
						<path class="st9" d="M155.13,393c-0.09,2.13,6.64,4.14,15.03,4.49c8.39,0.36,15.27-1.08,15.36-3.2
							c0.09-2.13-6.64-4.14-15.03-4.49C162.1,389.44,155.22,390.87,155.13,393z"/>
						
							<rect x="168.48" y="376.51" transform="matrix(0.0424 -0.9991 0.9991 0.0424 -228.1818 545.3599)" class="st9" width="3.85" height="30.42"/>
					</g>
					<g>
						<path class="st9" d="M155.3,389.15c-0.09,2.13,6.64,4.14,15.03,4.49c8.39,0.36,15.27-1.08,15.36-3.2
							c0.09-2.13-6.64-4.14-15.03-4.49C162.26,385.59,155.39,387.02,155.3,389.15z"/>
						<path class="st10" d="M155.3,389.15c-0.09,2.13,6.64,4.14,15.03,4.49c8.39,0.36,15.27-1.08,15.36-3.2
							c0.09-2.13-6.64-4.14-15.03-4.49C162.26,385.59,155.39,387.02,155.3,389.15z"/>
					</g>
					<g>
						<path class="st9" d="M157.23,389.08c-0.01,0.12,0.04,0.28,0.13,0.38c1.02-1.25,6.57-1.98,13.21-1.7
							c6.66,0.28,12.13,1.49,13.02,2.82c0.09-0.1,0.16-0.24,0.16-0.37c0.06-1.44-5.82-2.88-13.15-3.19
							C163.3,386.7,157.3,387.64,157.23,389.08z"/>
						<path class="st11" d="M157.23,389.08c-0.01,0.12,0.04,0.28,0.13,0.38c1.02-1.25,6.57-1.98,13.21-1.7
							c6.66,0.28,12.13,1.49,13.02,2.82c0.09-0.1,0.16-0.24,0.16-0.37c0.06-1.44-5.82-2.88-13.15-3.19
							C163.3,386.7,157.3,387.64,157.23,389.08z"/>
					</g>
					<g>
						<path class="st11" d="M157.36,389.46c0.91,1.33,6.38,2.53,13.02,2.82c6.66,0.28,12.21-0.45,13.21-1.7
							c-0.89-1.33-6.36-2.53-13.02-2.82C163.94,387.48,158.38,388.21,157.36,389.46z"/>
					</g>
				</g>
				<g>
					<g>
						<path class="st9" d="M151.94,387.17c-0.09,2.13,6.64,4.14,15.03,4.49c8.39,0.36,15.27-1.08,15.36-3.2
							c0.09-2.13-6.64-4.14-15.03-4.49C158.91,383.61,152.03,385.04,151.94,387.17z"/>
						
							<rect x="165.29" y="370.68" transform="matrix(0.0424 -0.9991 0.9991 0.0424 -225.4205 536.5782)" class="st9" width="3.85" height="30.42"/>
					</g>
					<g>
						<path class="st9" d="M152.1,383.32c-0.09,2.13,6.64,4.14,15.03,4.49c8.39,0.36,15.27-1.08,15.36-3.2
							c0.09-2.13-6.64-4.14-15.03-4.49C159.07,379.76,152.19,381.19,152.1,383.32z"/>
						<path class="st10" d="M152.1,383.32c-0.09,2.13,6.64,4.14,15.03,4.49c8.39,0.36,15.27-1.08,15.36-3.2
							c0.09-2.13-6.64-4.14-15.03-4.49C159.07,379.76,152.19,381.19,152.1,383.32z"/>
					</g>
					<g>
						<path class="st9" d="M154.04,383.25c-0.01,0.12,0.04,0.28,0.13,0.38c1.02-1.25,6.57-1.98,13.21-1.7
							c6.66,0.28,12.13,1.49,13.02,2.82c0.09-0.1,0.16-0.24,0.16-0.37c0.06-1.44-5.82-2.88-13.15-3.19
							C160.1,380.87,154.1,381.81,154.04,383.25z"/>
						<path class="st11" d="M154.04,383.25c-0.01,0.12,0.04,0.28,0.13,0.38c1.02-1.25,6.57-1.98,13.21-1.7
							c6.66,0.28,12.13,1.49,13.02,2.82c0.09-0.1,0.16-0.24,0.16-0.37c0.06-1.44-5.82-2.88-13.15-3.19
							C160.1,380.87,154.1,381.81,154.04,383.25z"/>
					</g>
					<g>
						<path class="st11" d="M154.17,383.63c0.91,1.33,6.38,2.53,13.02,2.82c6.66,0.28,12.21-0.45,13.21-1.7
							c-0.89-1.33-6.36-2.53-13.02-2.82C160.74,381.65,155.19,382.38,154.17,383.63z"/>
					</g>
				</g>
				<g>
					<g>
						<path class="st9" d="M110.91,414.75c-0.09,2.13,6.64,4.14,15.03,4.49c8.39,0.36,15.27-1.08,15.36-3.2
							c0.09-2.13-6.64-4.14-15.03-4.49C117.87,411.19,111,412.62,110.91,414.75z"/>
						
							<rect x="124.26" y="398.26" transform="matrix(0.0424 -0.9991 0.9991 0.0424 -292.2708 521.9928)" class="st9" width="3.85" height="30.42"/>
					</g>
					<g>
						<path class="st9" d="M111.07,410.9c-0.09,2.13,6.64,4.14,15.03,4.49c8.39,0.36,15.27-1.08,15.36-3.2
							c0.09-2.13-6.64-4.14-15.03-4.49C118.04,407.34,111.16,408.77,111.07,410.9z"/>
						<path class="st10" d="M111.07,410.9c-0.09,2.13,6.64,4.14,15.03,4.49c8.39,0.36,15.27-1.08,15.36-3.2
							c0.09-2.13-6.64-4.14-15.03-4.49C118.04,407.34,111.16,408.77,111.07,410.9z"/>
					</g>
					<g>
						<path class="st9" d="M113.01,410.83c-0.01,0.12,0.04,0.28,0.13,0.38c1.02-1.25,6.57-1.98,13.21-1.7
							c6.66,0.28,12.13,1.49,13.02,2.82c0.09-0.1,0.16-0.24,0.16-0.37c0.06-1.44-5.82-2.88-13.15-3.19
							C119.07,408.46,113.07,409.39,113.01,410.83z"/>
						<path class="st11" d="M113.01,410.83c-0.01,0.12,0.04,0.28,0.13,0.38c1.02-1.25,6.57-1.98,13.21-1.7
							c6.66,0.28,12.13,1.49,13.02,2.82c0.09-0.1,0.16-0.24,0.16-0.37c0.06-1.44-5.82-2.88-13.15-3.19
							C119.07,408.46,113.07,409.39,113.01,410.83z"/>
					</g>
					<g>
						<path class="st11" d="M113.14,411.21c0.91,1.33,6.38,2.53,13.02,2.82c6.66,0.28,12.21-0.45,13.21-1.7
							c-0.89-1.33-6.36-2.53-13.02-2.82C119.71,409.23,114.15,409.96,113.14,411.21z"/>
					</g>
				</g>
				<g>
					<g>
						<path class="st9" d="M124.13,411c-0.49,2.07,5.73,5.32,13.9,7.27c8.17,1.94,15.2,1.84,15.69-0.23
							c0.49-2.07-5.73-5.32-13.9-7.27C131.64,408.82,124.62,408.93,124.13,411z"/>
						
							<rect x="137.44" y="397.43" transform="matrix(0.2314 -0.9729 0.9729 0.2314 -294.3227 452.7579)" class="st9" width="3.85" height="30.42"/>
					</g>
					<g>
						<path class="st9" d="M125.02,407.25c-0.49,2.07,5.73,5.32,13.9,7.27c8.17,1.94,15.19,1.84,15.69-0.23
							c0.49-2.07-5.73-5.32-13.9-7.27C132.53,405.08,125.51,405.18,125.02,407.25z"/>
						<path class="st10" d="M125.02,407.25c-0.49,2.07,5.73,5.32,13.9,7.27c8.17,1.94,15.19,1.84,15.69-0.23
							c0.49-2.07-5.73-5.32-13.9-7.27C132.53,405.08,125.51,405.18,125.02,407.25z"/>
					</g>
					<g>
						<path class="st9" d="M126.93,407.55c-0.03,0.12-0.01,0.28,0.05,0.4c1.23-1.03,6.83-0.7,13.29,0.84
							c6.48,1.54,11.63,3.76,12.25,5.24c0.11-0.08,0.2-0.21,0.23-0.33c0.33-1.4-5.17-3.94-12.3-5.63
							C133.34,406.37,127.27,406.15,126.93,407.55z"/>
						<path class="st11" d="M126.93,407.55c-0.03,0.12-0.01,0.28,0.05,0.4c1.23-1.03,6.83-0.7,13.29,0.84
							c6.48,1.54,11.63,3.76,12.25,5.24c0.11-0.08,0.2-0.21,0.23-0.33c0.33-1.4-5.17-3.94-12.3-5.63
							C133.34,406.37,127.27,406.15,126.93,407.55z"/>
					</g>
					<g>
						<path class="st11" d="M126.99,407.95c0.64,1.48,5.78,3.7,12.25,5.24c6.48,1.54,12.08,1.88,13.29,0.84
							c-0.62-1.48-5.77-3.7-12.25-5.24C133.82,407.25,128.22,406.91,126.99,407.95z"/>
					</g>
				</g>
			</g>
			<g>
				<g>
					<g>
						<g>
							<circle class="st9" cx="162.7" cy="372.2" r="13.7"/>
						</g>
						<circle class="st9" cx="164.34" cy="372.2" r="13.7"/>
						<circle class="st12" cx="164.34" cy="372.2" r="13.7"/>
						
							<ellipse transform="matrix(0.7071 -0.7071 0.7071 0.7071 -215.0514 225.2232)" class="st9" cx="164.34" cy="372.2" rx="10.26" ry="10.26"/>
					</g>
				</g>
			</g>
			<g>
				<g>
					<g>
						<path class="st9" d="M356.27,418.49c-0.08,2.13-6.94,3.61-15.34,3.3c-8.39-0.3-15.14-2.27-15.06-4.4
							c0.08-2.13,6.94-3.61,15.34-3.31C349.6,414.39,356.35,416.36,356.27,418.49z"/>
						
							<rect x="339.22" y="400.81" transform="matrix(0.0358 -0.9994 0.9994 0.0358 -86.8343 742.0266)" class="st9" width="3.85" height="30.42"/>
					</g>
					<g>
						<path class="st9" d="M356.41,414.64c-0.08,2.13-6.94,3.61-15.34,3.31c-8.39-0.3-15.14-2.27-15.06-4.4
							c0.08-2.13,6.94-3.61,15.34-3.3C349.74,410.54,356.49,412.51,356.41,414.64z"/>
						<path class="st10" d="M356.41,414.64c-0.08,2.13-6.94,3.61-15.34,3.31c-8.39-0.3-15.14-2.27-15.06-4.4
							c0.08-2.13,6.94-3.61,15.34-3.3C349.74,410.54,356.49,412.51,356.41,414.64z"/>
					</g>
					<g>
						<path class="st9" d="M354.48,414.42c0,0.12-0.06,0.27-0.16,0.37c-0.92-1.33-6.4-2.49-13.04-2.73
							c-6.66-0.24-12.21,0.53-13.2,1.79c-0.09-0.1-0.14-0.25-0.13-0.38c0.05-1.44,6.03-2.42,13.36-2.16
							C348.62,411.57,354.53,412.98,354.48,414.42z"/>
						<path class="st11" d="M354.48,414.42c0,0.12-0.06,0.27-0.16,0.37c-0.92-1.33-6.4-2.49-13.04-2.73
							c-6.66-0.24-12.21,0.53-13.2,1.79c-0.09-0.1-0.14-0.25-0.13-0.38c0.05-1.44,6.03-2.42,13.36-2.16
							C348.62,411.57,354.53,412.98,354.48,414.42z"/>
					</g>
					<g>
						<path class="st11" d="M354.32,414.79c-1.01,1.26-6.56,2.03-13.2,1.79c-6.66-0.24-12.14-1.41-13.04-2.73
							c0.99-1.26,6.54-2.03,13.2-1.79C347.93,412.29,353.41,413.46,354.32,414.79z"/>
					</g>
				</g>
				<g>
					<g>
						<path class="st9" d="M359.91,412.93c-0.08,2.13-6.94,3.61-15.34,3.3c-8.39-0.3-15.14-2.27-15.06-4.4
							c0.08-2.13,6.94-3.61,15.34-3.31C353.24,408.83,359.99,410.8,359.91,412.93z"/>
						
							<rect x="342.85" y="395.25" transform="matrix(0.0359 -0.9994 0.9994 0.0359 -77.7857 740.2803)" class="st9" width="3.85" height="30.42"/>
					</g>
					<g>
						<path class="st9" d="M360.05,409.08c-0.08,2.13-6.94,3.61-15.34,3.31c-8.39-0.3-15.14-2.27-15.06-4.4
							c0.08-2.13,6.94-3.61,15.34-3.31C353.38,404.98,360.12,406.95,360.05,409.08z"/>
						<path class="st10" d="M360.05,409.08c-0.08,2.13-6.94,3.61-15.34,3.31c-8.39-0.3-15.14-2.27-15.06-4.4
							c0.08-2.13,6.94-3.61,15.34-3.31C353.38,404.98,360.12,406.95,360.05,409.08z"/>
					</g>
					<g>
						<path class="st9" d="M358.12,408.86c0,0.12-0.06,0.27-0.16,0.37c-0.92-1.33-6.4-2.49-13.04-2.73
							c-6.66-0.24-12.21,0.53-13.2,1.79c-0.09-0.1-0.14-0.25-0.13-0.38c0.05-1.44,6.03-2.42,13.36-2.16
							C352.26,406.01,358.17,407.42,358.12,408.86z"/>
						<path class="st11" d="M358.12,408.86c0,0.12-0.06,0.27-0.16,0.37c-0.92-1.33-6.4-2.49-13.04-2.73
							c-6.66-0.24-12.21,0.53-13.2,1.79c-0.09-0.1-0.14-0.25-0.13-0.38c0.05-1.44,6.03-2.42,13.36-2.16
							C352.26,406.01,358.17,407.42,358.12,408.86z"/>
					</g>
					<g>
						<path class="st11" d="M357.96,409.22c-1.01,1.26-6.56,2.03-13.2,1.79c-6.66-0.24-12.14-1.4-13.04-2.73
							c0.99-1.26,6.54-2.03,13.2-1.79C351.57,406.73,357.05,407.9,357.96,409.22z"/>
					</g>
				</g>
				<g>
					<g>
						<path class="st9" d="M360.05,405.89c-0.08,2.13-6.94,3.61-15.34,3.3c-8.39-0.3-15.14-2.27-15.06-4.4
							c0.08-2.13,6.94-3.61,15.34-3.3C353.38,401.8,360.12,403.77,360.05,405.89z"/>
						
							<rect x="342.99" y="388.21" transform="matrix(0.0359 -0.9994 0.9994 0.0359 -70.6261 733.6382)" class="st9" width="3.85" height="30.42"/>
					</g>
					<g>
						<path class="st9" d="M360.19,402.04c-0.08,2.13-6.94,3.61-15.34,3.31c-8.39-0.3-15.14-2.27-15.06-4.4
							c0.08-2.13,6.94-3.61,15.34-3.3C353.52,397.95,360.26,399.92,360.19,402.04z"/>
						<path class="st10" d="M360.19,402.04c-0.08,2.13-6.94,3.61-15.34,3.31c-8.39-0.3-15.14-2.27-15.06-4.4
							c0.08-2.13,6.94-3.61,15.34-3.3C353.52,397.95,360.26,399.92,360.19,402.04z"/>
					</g>
					<g>
						<path class="st9" d="M358.26,401.83c0,0.12-0.06,0.27-0.16,0.37c-0.92-1.33-6.4-2.49-13.04-2.73
							c-6.66-0.24-12.21,0.53-13.2,1.79c-0.09-0.1-0.14-0.25-0.13-0.38c0.05-1.44,6.03-2.42,13.36-2.16
							C352.4,398.98,358.31,400.39,358.26,401.83z"/>
						<path class="st11" d="M358.26,401.83c0,0.12-0.06,0.27-0.16,0.37c-0.92-1.33-6.4-2.49-13.04-2.73
							c-6.66-0.24-12.21,0.53-13.2,1.79c-0.09-0.1-0.14-0.25-0.13-0.38c0.05-1.44,6.03-2.42,13.36-2.16
							C352.4,398.98,358.31,400.39,358.26,401.83z"/>
					</g>
					<g>
						<path class="st11" d="M358.1,402.19c-1.01,1.26-6.56,2.03-13.2,1.79c-6.66-0.24-12.14-1.41-13.04-2.73
							c0.99-1.26,6.54-2.03,13.2-1.79C351.7,399.7,357.18,400.87,358.1,402.19z"/>
					</g>
				</g>
				<g>
					<g>
						<path class="st9" d="M363.69,400.33c-0.08,2.13-6.94,3.61-15.34,3.31c-8.39-0.3-15.14-2.27-15.06-4.4
							c0.08-2.13,6.94-3.61,15.34-3.31C357.02,396.24,363.76,398.21,363.69,400.33z"/>
						
							<rect x="346.63" y="382.65" transform="matrix(0.0358 -0.9994 0.9994 0.0358 -61.5433 731.9353)" class="st9" width="3.85" height="30.42"/>
					</g>
					<g>
						<path class="st9" d="M363.82,396.48c-0.08,2.13-6.94,3.61-15.34,3.31c-8.39-0.3-15.14-2.27-15.06-4.4
							c0.08-2.13,6.94-3.61,15.34-3.3C357.16,392.39,363.9,394.36,363.82,396.48z"/>
						<path class="st10" d="M363.82,396.48c-0.08,2.13-6.94,3.61-15.34,3.31c-8.39-0.3-15.14-2.27-15.06-4.4
							c0.08-2.13,6.94-3.61,15.34-3.3C357.16,392.39,363.9,394.36,363.82,396.48z"/>
					</g>
					<g>
						<path class="st9" d="M361.9,396.27c0,0.12-0.06,0.27-0.16,0.37c-0.92-1.33-6.4-2.49-13.04-2.73
							c-6.66-0.24-12.21,0.53-13.2,1.79c-0.09-0.1-0.14-0.25-0.13-0.38c0.05-1.44,6.03-2.42,13.36-2.16
							C356.04,393.42,361.95,394.83,361.9,396.27z"/>
						<path class="st11" d="M361.9,396.27c0,0.12-0.06,0.27-0.16,0.37c-0.92-1.33-6.4-2.49-13.04-2.73
							c-6.66-0.24-12.21,0.53-13.2,1.79c-0.09-0.1-0.14-0.25-0.13-0.38c0.05-1.44,6.03-2.42,13.36-2.16
							C356.04,393.42,361.95,394.83,361.9,396.27z"/>
					</g>
					<g>
						<path class="st11" d="M361.74,396.63c-1.01,1.26-6.56,2.03-13.2,1.79c-6.66-0.24-12.14-1.41-13.04-2.73
							c0.99-1.26,6.54-2.03,13.2-1.79C355.34,394.14,360.82,395.31,361.74,396.63z"/>
					</g>
				</g>
			</g>
			<g>
				<g>
					<g>
						<path class="st9" d="M242.97,414.21c-0.09,2.13,6.64,4.14,15.03,4.49c8.39,0.36,15.27-1.08,15.36-3.2
							c0.09-2.13-6.64-4.14-15.03-4.49C249.93,410.65,243.06,412.09,242.97,414.21z"/>
						
							<rect x="256.32" y="397.72" transform="matrix(0.0424 -0.9991 0.9991 0.0424 -165.2763 653.4178)" class="st9" width="3.85" height="30.42"/>
					</g>
					<g>
						<path class="st9" d="M243.13,410.36c-0.09,2.13,6.64,4.14,15.03,4.5c8.39,0.36,15.27-1.08,15.36-3.2
							c0.09-2.13-6.64-4.14-15.03-4.49C250.1,406.8,243.22,408.24,243.13,410.36z"/>
						<path class="st10" d="M243.13,410.36c-0.09,2.13,6.64,4.14,15.03,4.5c8.39,0.36,15.27-1.08,15.36-3.2
							c0.09-2.13-6.64-4.14-15.03-4.49C250.1,406.8,243.22,408.24,243.13,410.36z"/>
					</g>
					<g>
						<path class="st9" d="M245.07,410.3c-0.01,0.12,0.04,0.28,0.13,0.38c1.02-1.25,6.57-1.98,13.21-1.7
							c6.66,0.28,12.13,1.49,13.02,2.82c0.09-0.1,0.16-0.24,0.16-0.37c0.06-1.44-5.82-2.88-13.15-3.19
							C251.13,407.92,245.13,408.86,245.07,410.3z"/>
						<path class="st11" d="M245.07,410.3c-0.01,0.12,0.04,0.28,0.13,0.38c1.02-1.25,6.57-1.98,13.21-1.7
							c6.66,0.28,12.13,1.49,13.02,2.82c0.09-0.1,0.16-0.24,0.16-0.37c0.06-1.44-5.82-2.88-13.15-3.19
							C251.13,407.92,245.13,408.86,245.07,410.3z"/>
					</g>
					<g>
						<path class="st11" d="M245.2,410.67c0.91,1.33,6.38,2.53,13.02,2.82c6.66,0.28,12.21-0.45,13.21-1.7
							c-0.89-1.33-6.36-2.53-13.02-2.82C251.77,408.69,246.21,409.42,245.2,410.67z"/>
					</g>
				</g>
				<g>
					<g>
						<path class="st9" d="M239.77,408.38c-0.09,2.13,6.64,4.14,15.03,4.49c8.39,0.36,15.27-1.08,15.36-3.2
							c0.09-2.13-6.64-4.14-15.03-4.49C246.74,404.82,239.86,406.26,239.77,408.38z"/>
						
							<rect x="253.12" y="391.89" transform="matrix(0.0424 -0.9991 0.9991 0.0424 -162.4983 644.6689)" class="st9" width="3.85" height="30.42"/>
					</g>
					<g>
						<path class="st9" d="M239.94,404.53c-0.09,2.13,6.64,4.14,15.03,4.49c8.39,0.36,15.27-1.08,15.36-3.2
							c0.09-2.13-6.64-4.14-15.03-4.49C246.9,400.97,240.03,402.41,239.94,404.53z"/>
						<path class="st10" d="M239.94,404.53c-0.09,2.13,6.64,4.14,15.03,4.49c8.39,0.36,15.27-1.08,15.36-3.2
							c0.09-2.13-6.64-4.14-15.03-4.49C246.9,400.97,240.03,402.41,239.94,404.53z"/>
					</g>
					<g>
						<path class="st9" d="M241.87,404.47c-0.01,0.12,0.04,0.28,0.13,0.38c1.02-1.25,6.57-1.98,13.21-1.7
							c6.66,0.28,12.13,1.49,13.02,2.82c0.09-0.1,0.16-0.24,0.16-0.37c0.06-1.44-5.82-2.88-13.15-3.19
							C247.94,402.09,241.94,403.03,241.87,404.47z"/>
						<path class="st11" d="M241.87,404.47c-0.01,0.12,0.04,0.28,0.13,0.38c1.02-1.25,6.57-1.98,13.21-1.7
							c6.66,0.28,12.13,1.49,13.02,2.82c0.09-0.1,0.16-0.24,0.16-0.37c0.06-1.44-5.82-2.88-13.15-3.19
							C247.94,402.09,241.94,403.03,241.87,404.47z"/>
					</g>
					<g>
						<path class="st11" d="M242,404.85c0.91,1.33,6.38,2.53,13.02,2.82c6.66,0.28,12.21-0.45,13.21-1.7
							c-0.89-1.33-6.36-2.53-13.02-2.82C248.58,402.86,243.02,403.6,242,404.85z"/>
					</g>
				</g>
				<g>
					<g>
						<path class="st9" d="M240.19,401.36c-0.09,2.13,6.64,4.14,15.03,4.49c8.39,0.36,15.27-1.08,15.36-3.2
							c0.09-2.13-6.64-4.14-15.03-4.49C247.15,397.8,240.28,399.24,240.19,401.36z"/>
						
							<rect x="253.54" y="384.87" transform="matrix(0.0424 -0.9991 0.9991 0.0424 -155.0939 638.3481)" class="st9" width="3.85" height="30.42"/>
					</g>
					<g>
						<path class="st9" d="M240.35,397.51c-0.09,2.13,6.64,4.14,15.03,4.49c8.39,0.36,15.27-1.08,15.36-3.2
							c0.09-2.13-6.64-4.14-15.03-4.49C247.32,393.95,240.44,395.39,240.35,397.51z"/>
						<path class="st10" d="M240.35,397.51c-0.09,2.13,6.64,4.14,15.03,4.49c8.39,0.36,15.27-1.08,15.36-3.2
							c0.09-2.13-6.64-4.14-15.03-4.49C247.32,393.95,240.44,395.39,240.35,397.51z"/>
					</g>
					<g>
						<path class="st9" d="M242.29,397.45c-0.01,0.12,0.04,0.28,0.13,0.38c1.02-1.25,6.57-1.98,13.21-1.7
							c6.66,0.28,12.13,1.49,13.02,2.82c0.09-0.1,0.16-0.24,0.16-0.37c0.06-1.44-5.82-2.88-13.15-3.19
							C248.35,395.07,242.35,396.01,242.29,397.45z"/>
						<path class="st11" d="M242.29,397.45c-0.01,0.12,0.04,0.28,0.13,0.38c1.02-1.25,6.57-1.98,13.21-1.7
							c6.66,0.28,12.13,1.49,13.02,2.82c0.09-0.1,0.16-0.24,0.16-0.37c0.06-1.44-5.82-2.88-13.15-3.19
							C248.35,395.07,242.35,396.01,242.29,397.45z"/>
					</g>
					<g>
						<path class="st11" d="M242.42,397.82c0.91,1.33,6.38,2.53,13.02,2.82c6.66,0.28,12.21-0.45,13.21-1.7
							c-0.89-1.33-6.36-2.53-13.02-2.82C248.99,395.84,243.43,396.58,242.42,397.82z"/>
					</g>
				</g>
				<g>
					<g>
						<path class="st9" d="M236.99,395.53c-0.09,2.13,6.64,4.14,15.03,4.49c8.39,0.36,15.27-1.08,15.36-3.2
							c0.09-2.13-6.64-4.14-15.03-4.49C243.96,391.97,237.08,393.41,236.99,395.53z"/>
						
							<rect x="250.34" y="379.05" transform="matrix(0.0425 -0.9991 0.9991 0.0425 -152.3409 629.5555)" class="st9" width="3.85" height="30.42"/>
					</g>
					<g>
						<path class="st9" d="M237.16,391.68c-0.09,2.13,6.64,4.14,15.03,4.49c8.39,0.36,15.27-1.08,15.36-3.2
							c0.09-2.13-6.64-4.14-15.03-4.49C244.12,388.12,237.25,389.56,237.16,391.68z"/>
						<path class="st10" d="M237.16,391.68c-0.09,2.13,6.64,4.14,15.03,4.49c8.39,0.36,15.27-1.08,15.36-3.2
							c0.09-2.13-6.64-4.14-15.03-4.49C244.12,388.12,237.25,389.56,237.16,391.68z"/>
					</g>
					<g>
						<path class="st9" d="M239.1,391.62c-0.01,0.12,0.04,0.28,0.13,0.38c1.02-1.25,6.57-1.98,13.21-1.7
							c6.66,0.28,12.13,1.49,13.02,2.82c0.09-0.1,0.16-0.24,0.16-0.37c0.06-1.44-5.82-2.88-13.15-3.19
							C245.16,389.24,239.16,390.18,239.1,391.62z"/>
						<path class="st11" d="M239.1,391.62c-0.01,0.12,0.04,0.28,0.13,0.38c1.02-1.25,6.57-1.98,13.21-1.7
							c6.66,0.28,12.13,1.49,13.02,2.82c0.09-0.1,0.16-0.24,0.16-0.37c0.06-1.44-5.82-2.88-13.15-3.19
							C245.16,389.24,239.16,390.18,239.1,391.62z"/>
					</g>
					<g>
						<path class="st11" d="M239.22,392c0.91,1.33,6.38,2.53,13.02,2.82c6.66,0.28,12.21-0.45,13.21-1.7
							c-0.89-1.33-6.36-2.53-13.02-2.82C245.8,390.01,240.24,390.75,239.22,392z"/>
					</g>
				</g>
				<g>
					<g>
						<path class="st9" d="M241.87,390.59c-0.09,2.13,6.64,4.14,15.03,4.49c8.39,0.36,15.27-1.08,15.36-3.2
							c0.09-2.13-6.64-4.14-15.03-4.49C248.84,387.03,241.96,388.47,241.87,390.59z"/>
						
							<rect x="255.22" y="374.11" transform="matrix(0.0424 -0.9991 0.9991 0.0424 -142.7243 629.7177)" class="st9" width="3.85" height="30.42"/>
					</g>
					<g>
						<path class="st9" d="M242.03,386.74c-0.09,2.13,6.64,4.14,15.03,4.49c8.39,0.36,15.27-1.08,15.36-3.2
							c0.09-2.13-6.64-4.14-15.03-4.49C249,383.18,242.12,384.62,242.03,386.74z"/>
						<path class="st10" d="M242.03,386.74c-0.09,2.13,6.64,4.14,15.03,4.49c8.39,0.36,15.27-1.08,15.36-3.2
							c0.09-2.13-6.64-4.14-15.03-4.49C249,383.18,242.12,384.62,242.03,386.74z"/>
					</g>
					<g>
						<path class="st9" d="M243.97,386.68c-0.01,0.12,0.04,0.28,0.13,0.38c1.02-1.25,6.57-1.98,13.21-1.7
							c6.66,0.28,12.13,1.49,13.02,2.82c0.09-0.1,0.16-0.24,0.16-0.37c0.06-1.44-5.82-2.88-13.15-3.19
							C250.03,384.3,244.03,385.24,243.97,386.68z"/>
						<path class="st11" d="M243.97,386.68c-0.01,0.12,0.04,0.28,0.13,0.38c1.02-1.25,6.57-1.98,13.21-1.7
							c6.66,0.28,12.13,1.49,13.02,2.82c0.09-0.1,0.16-0.24,0.16-0.37c0.06-1.44-5.82-2.88-13.15-3.19
							C250.03,384.3,244.03,385.24,243.97,386.68z"/>
					</g>
					<g>
						<path class="st11" d="M244.1,387.06c0.91,1.33,6.38,2.53,13.02,2.82c6.66,0.28,12.21-0.45,13.21-1.7
							c-0.89-1.33-6.36-2.53-13.02-2.82C250.67,385.07,245.12,385.81,244.1,387.06z"/>
					</g>
				</g>
				<g>
					<g>
						<path class="st9" d="M238.68,384.77c-0.09,2.13,6.64,4.14,15.03,4.49c8.39,0.36,15.27-1.08,15.36-3.2
							c0.09-2.13-6.64-4.14-15.03-4.49C245.64,381.2,238.77,382.64,238.68,384.77z"/>
						
							<rect x="252.03" y="368.28" transform="matrix(0.0424 -0.9991 0.9991 0.0424 -139.9652 620.9359)" class="st9" width="3.85" height="30.42"/>
					</g>
					<g>
						<path class="st9" d="M238.84,380.92c-0.09,2.13,6.64,4.14,15.03,4.49c8.39,0.36,15.27-1.08,15.36-3.2
							c0.09-2.13-6.64-4.14-15.03-4.49C245.81,377.36,238.93,378.79,238.84,380.92z"/>
						<path class="st10" d="M238.84,380.92c-0.09,2.13,6.64,4.14,15.03,4.49c8.39,0.36,15.27-1.08,15.36-3.2
							c0.09-2.13-6.64-4.14-15.03-4.49C245.81,377.36,238.93,378.79,238.84,380.92z"/>
					</g>
					<g>
						<path class="st9" d="M240.78,380.85c-0.01,0.12,0.04,0.28,0.13,0.38c1.02-1.25,6.57-1.98,13.21-1.7
							c6.66,0.28,12.13,1.49,13.02,2.82c0.09-0.1,0.16-0.24,0.16-0.37c0.06-1.44-5.82-2.88-13.15-3.19
							C246.84,378.47,240.84,379.41,240.78,380.85z"/>
						<path class="st11" d="M240.78,380.85c-0.01,0.12,0.04,0.28,0.13,0.38c1.02-1.25,6.57-1.98,13.21-1.7
							c6.66,0.28,12.13,1.49,13.02,2.82c0.09-0.1,0.16-0.24,0.16-0.37c0.06-1.44-5.82-2.88-13.15-3.19
							C246.84,378.47,240.84,379.41,240.78,380.85z"/>
					</g>
					<g>
						<path class="st11" d="M240.91,381.23c0.91,1.33,6.38,2.53,13.02,2.82c6.66,0.28,12.21-0.45,13.21-1.7
							c-0.89-1.33-6.36-2.53-13.02-2.82C247.48,379.24,241.92,379.98,240.91,381.23z"/>
					</g>
				</g>
			</g>
			<g>
				<g>
					<g>
						<path class="st9" d="M272.25,380.63c0.09,2.13-6.64,4.14-15.03,4.49c-8.39,0.36-15.27-1.08-15.36-3.2
							c-0.09-2.13,6.64-4.14,15.03-4.49C265.28,377.07,272.15,378.5,272.25,380.63z"/>
						
							<rect x="241.76" y="377.42" transform="matrix(0.9991 -0.0424 0.0424 0.9991 -15.8661 11.2461)" class="st9" width="30.42" height="3.85"/>
					</g>
					<g>
						<path class="st9" d="M272.08,376.78c0.09,2.13-6.64,4.14-15.03,4.5c-8.39,0.36-15.27-1.08-15.36-3.2
							c-0.09-2.13,6.64-4.14,15.03-4.49C265.12,373.22,271.99,374.65,272.08,376.78z"/>
						<path class="st10" d="M272.08,376.78c0.09,2.13-6.64,4.14-15.03,4.5c-8.39,0.36-15.27-1.08-15.36-3.2
							c-0.09-2.13,6.64-4.14,15.03-4.49C265.12,373.22,271.99,374.65,272.08,376.78z"/>
					</g>
					<g>
						<path class="st9" d="M270.14,376.71c0.01,0.12-0.04,0.28-0.13,0.38c-1.02-1.25-6.57-1.98-13.21-1.7
							c-6.66,0.28-12.13,1.49-13.02,2.82c-0.09-0.1-0.16-0.24-0.16-0.37c-0.06-1.44,5.82-2.88,13.15-3.19
							C264.08,374.33,270.08,375.27,270.14,376.71z"/>
						<path class="st11" d="M270.14,376.71c0.01,0.12-0.04,0.28-0.13,0.38c-1.02-1.25-6.57-1.98-13.21-1.7
							c-6.66,0.28-12.13,1.49-13.02,2.82c-0.09-0.1-0.16-0.24-0.16-0.37c-0.06-1.44,5.82-2.88,13.15-3.19
							C264.08,374.33,270.08,375.27,270.14,376.71z"/>
					</g>
					<g>
						<path class="st11" d="M270.01,377.09c-0.91,1.33-6.38,2.53-13.02,2.82c-6.66,0.28-12.21-0.45-13.21-1.7
							c0.89-1.33,6.36-2.53,13.02-2.82C263.44,375.11,269,375.84,270.01,377.09z"/>
					</g>
				</g>
				<g>
					<g>
						<path class="st9" d="M275.44,374.8c0.09,2.13-6.64,4.14-15.03,4.49c-8.39,0.36-15.27-1.08-15.36-3.2
							c-0.09-2.13,6.64-4.14,15.03-4.49C268.47,371.24,275.35,372.67,275.44,374.8z"/>
						
							<rect x="244.95" y="371.59" transform="matrix(0.9991 -0.0424 0.0424 0.9991 -15.5975 11.3624)" class="st9" width="30.42" height="3.85"/>
					</g>
					<g>
						<path class="st9" d="M275.27,370.95c0.09,2.13-6.64,4.14-15.03,4.49c-8.39,0.36-15.27-1.08-15.36-3.2
							c-0.09-2.13,6.64-4.14,15.03-4.49C268.31,367.39,275.18,368.82,275.27,370.95z"/>
						<path class="st10" d="M275.27,370.95c0.09,2.13-6.64,4.14-15.03,4.49c-8.39,0.36-15.27-1.08-15.36-3.2
							c-0.09-2.13,6.64-4.14,15.03-4.49C268.31,367.39,275.18,368.82,275.27,370.95z"/>
					</g>
					<g>
						<path class="st9" d="M273.34,370.88c0.01,0.12-0.04,0.28-0.13,0.38c-1.02-1.25-6.57-1.98-13.21-1.7
							c-6.66,0.28-12.13,1.49-13.02,2.82c-0.09-0.1-0.16-0.24-0.16-0.37c-0.06-1.44,5.82-2.88,13.15-3.19
							C267.27,368.51,273.27,369.44,273.34,370.88z"/>
						<path class="st11" d="M273.34,370.88c0.01,0.12-0.04,0.28-0.13,0.38c-1.02-1.25-6.57-1.98-13.21-1.7
							c-6.66,0.28-12.13,1.49-13.02,2.82c-0.09-0.1-0.16-0.24-0.16-0.37c-0.06-1.44,5.82-2.88,13.15-3.19
							C267.27,368.51,273.27,369.44,273.34,370.88z"/>
					</g>
					<g>
						<path class="st11" d="M273.21,371.26c-0.91,1.33-6.38,2.53-13.02,2.82c-6.66,0.28-12.21-0.45-13.21-1.7
							c0.89-1.33,6.36-2.53,13.02-2.82C266.63,369.28,272.19,370.01,273.21,371.26z"/>
					</g>
				</g>
				<g>
					<g>
						<path class="st9" d="M275.02,367.78c0.09,2.13-6.64,4.14-15.03,4.49c-8.39,0.36-15.27-1.08-15.36-3.2
							c-0.09-2.13,6.64-4.14,15.03-4.49C268.06,364.22,274.93,365.65,275.02,367.78z"/>
						
							<rect x="244.54" y="364.57" transform="matrix(0.9991 -0.0424 0.0424 0.9991 -15.3095 11.3457)" class="st9" width="30.42" height="3.85"/>
					</g>
					<g>
						<path class="st9" d="M274.86,363.93c0.09,2.13-6.64,4.14-15.03,4.49c-8.39,0.36-15.27-1.08-15.36-3.2
							c-0.09-2.13,6.64-4.14,15.03-4.49C267.89,360.37,274.77,361.8,274.86,363.93z"/>
						<path class="st10" d="M274.86,363.93c0.09,2.13-6.64,4.14-15.03,4.49c-8.39,0.36-15.27-1.08-15.36-3.2
							c-0.09-2.13,6.64-4.14,15.03-4.49C267.89,360.37,274.77,361.8,274.86,363.93z"/>
					</g>
					<g>
						<path class="st9" d="M272.92,363.86c0.01,0.12-0.04,0.28-0.13,0.38c-1.02-1.25-6.57-1.98-13.21-1.7
							c-6.66,0.28-12.13,1.49-13.02,2.82c-0.09-0.1-0.16-0.24-0.16-0.37c-0.06-1.44,5.82-2.88,13.15-3.19
							C266.86,361.49,272.86,362.42,272.92,363.86z"/>
						<path class="st11" d="M272.92,363.86c0.01,0.12-0.04,0.28-0.13,0.38c-1.02-1.25-6.57-1.98-13.21-1.7
							c-6.66,0.28-12.13,1.49-13.02,2.82c-0.09-0.1-0.16-0.24-0.16-0.37c-0.06-1.44,5.82-2.88,13.15-3.19
							C266.86,361.49,272.86,362.42,272.92,363.86z"/>
					</g>
					<g>
						<path class="st11" d="M272.79,364.24c-0.91,1.33-6.38,2.53-13.02,2.82c-6.66,0.28-12.21-0.45-13.21-1.7
							c0.89-1.33,6.36-2.53,13.02-2.82C266.22,362.26,271.78,362.99,272.79,364.24z"/>
					</g>
				</g>
				<g>
					<g>
						<path class="st9" d="M278.22,361.95c0.09,2.13-6.64,4.14-15.03,4.49c-8.39,0.36-15.27-1.08-15.36-3.2
							c-0.09-2.13,6.64-4.14,15.03-4.49C271.25,358.39,278.13,359.82,278.22,361.95z"/>
						
							<rect x="247.73" y="358.74" transform="matrix(0.9991 -0.0425 0.0425 0.9991 -15.0772 11.4899)" class="st9" width="30.42" height="3.85"/>
					</g>
					<g>
						<path class="st9" d="M278.05,358.1c0.09,2.13-6.64,4.14-15.03,4.49c-8.39,0.36-15.27-1.08-15.36-3.2
							c-0.09-2.13,6.64-4.14,15.03-4.49C271.09,354.54,277.96,355.98,278.05,358.1z"/>
						<path class="st10" d="M278.05,358.1c0.09,2.13-6.64,4.14-15.03,4.49c-8.39,0.36-15.27-1.08-15.36-3.2
							c-0.09-2.13,6.64-4.14,15.03-4.49C271.09,354.54,277.96,355.98,278.05,358.1z"/>
					</g>
					<g>
						<path class="st9" d="M276.12,358.04c0.01,0.12-0.04,0.28-0.13,0.38c-1.02-1.25-6.57-1.98-13.21-1.7
							c-6.66,0.28-12.13,1.49-13.02,2.82c-0.09-0.1-0.16-0.24-0.16-0.37c-0.06-1.44,5.82-2.88,13.15-3.19
							C270.05,355.66,276.05,356.6,276.12,358.04z"/>
						<path class="st11" d="M276.12,358.04c0.01,0.12-0.04,0.28-0.13,0.38c-1.02-1.25-6.57-1.98-13.21-1.7
							c-6.66,0.28-12.13,1.49-13.02,2.82c-0.09-0.1-0.16-0.24-0.16-0.37c-0.06-1.44,5.82-2.88,13.15-3.19
							C270.05,355.66,276.05,356.6,276.12,358.04z"/>
					</g>
					<g>
						<path class="st11" d="M275.99,358.41c-0.91,1.33-6.38,2.53-13.02,2.82c-6.66,0.28-12.21-0.45-13.21-1.7
							c0.89-1.33,6.36-2.53,13.02-2.82C269.41,356.43,274.97,357.16,275.99,358.41z"/>
					</g>
				</g>
				<g>
					<g>
						<path class="st9" d="M273.34,357.01c0.09,2.13-6.64,4.14-15.03,4.49c-8.39,0.36-15.27-1.08-15.36-3.2
							c-0.09-2.13,6.64-4.14,15.03-4.49C266.38,353.45,273.25,354.89,273.34,357.01z"/>
						
							<rect x="242.86" y="353.8" transform="matrix(0.9991 -0.0424 0.0424 0.9991 -14.8451 11.2572)" class="st9" width="30.42" height="3.85"/>
					</g>
					<g>
						<path class="st9" d="M273.18,353.16c0.09,2.13-6.64,4.14-15.03,4.5c-8.39,0.36-15.27-1.08-15.36-3.2
							c-0.09-2.13,6.64-4.14,15.03-4.49C266.21,349.6,273.09,351.04,273.18,353.16z"/>
						<path class="st10" d="M273.18,353.16c0.09,2.13-6.64,4.14-15.03,4.5c-8.39,0.36-15.27-1.08-15.36-3.2
							c-0.09-2.13,6.64-4.14,15.03-4.49C266.21,349.6,273.09,351.04,273.18,353.16z"/>
					</g>
					<g>
						<path class="st9" d="M271.24,353.1c0.01,0.12-0.04,0.28-0.13,0.38c-1.02-1.25-6.57-1.98-13.21-1.7
							c-6.66,0.28-12.13,1.49-13.02,2.82c-0.09-0.1-0.16-0.24-0.16-0.37c-0.06-1.44,5.82-2.88,13.15-3.19
							C265.18,350.72,271.18,351.66,271.24,353.1z"/>
						<path class="st11" d="M271.24,353.1c0.01,0.12-0.04,0.28-0.13,0.38c-1.02-1.25-6.57-1.98-13.21-1.7
							c-6.66,0.28-12.13,1.49-13.02,2.82c-0.09-0.1-0.16-0.24-0.16-0.37c-0.06-1.44,5.82-2.88,13.15-3.19
							C265.18,350.72,271.18,351.66,271.24,353.1z"/>
					</g>
					<g>
						<path class="st11" d="M271.11,353.47c-0.91,1.33-6.38,2.53-13.02,2.82c-6.66,0.28-12.21-0.45-13.21-1.7
							c0.89-1.33,6.36-2.53,13.02-2.82C264.54,351.49,270.09,352.22,271.11,353.47z"/>
					</g>
				</g>
				<g>
					<g>
						<path class="st9" d="M276.54,351.18c0.09,2.13-6.64,4.14-15.03,4.49c-8.39,0.36-15.27-1.08-15.36-3.2
							c-0.09-2.13,6.64-4.14,15.03-4.49C269.57,347.62,276.44,349.06,276.54,351.18z"/>
						
							<rect x="246.05" y="347.98" transform="matrix(0.9991 -0.0424 0.0424 0.9991 -14.6127 11.4016)" class="st9" width="30.42" height="3.85"/>
					</g>
					<g>
						<path class="st9" d="M276.37,347.33c0.09,2.13-6.64,4.14-15.03,4.49c-8.39,0.36-15.27-1.08-15.36-3.2
							c-0.09-2.13,6.64-4.14,15.03-4.49C269.41,343.77,276.28,345.21,276.37,347.33z"/>
						<path class="st10" d="M276.37,347.33c0.09,2.13-6.64,4.14-15.03,4.49c-8.39,0.36-15.27-1.08-15.36-3.2
							c-0.09-2.13,6.64-4.14,15.03-4.49C269.41,343.77,276.28,345.21,276.37,347.33z"/>
					</g>
					<g>
						<path class="st9" d="M274.43,347.27c0.01,0.12-0.04,0.28-0.13,0.38c-1.02-1.25-6.57-1.98-13.21-1.7
							c-6.66,0.28-12.13,1.49-13.02,2.82c-0.09-0.1-0.16-0.24-0.16-0.37c-0.06-1.44,5.82-2.88,13.15-3.19
							C268.37,344.89,274.37,345.83,274.43,347.27z"/>
						<path class="st11" d="M274.43,347.27c0.01,0.12-0.04,0.28-0.13,0.38c-1.02-1.25-6.57-1.98-13.21-1.7
							c-6.66,0.28-12.13,1.49-13.02,2.82c-0.09-0.1-0.16-0.24-0.16-0.37c-0.06-1.44,5.82-2.88,13.15-3.19
							C268.37,344.89,274.37,345.83,274.43,347.27z"/>
					</g>
					<g>
						<path class="st11" d="M274.3,347.65c-0.91,1.33-6.38,2.53-13.02,2.82c-6.66,0.28-12.21-0.45-13.21-1.7
							c0.89-1.33,6.36-2.53,13.02-2.82C267.73,345.66,273.29,346.4,274.3,347.65z"/>
					</g>
				</g>
			</g>
			<g>
				<g>
					
						<ellipse transform="matrix(0.9363 -0.3511 0.3511 0.9363 -100.7588 112.2176)" class="st9" cx="259.08" cy="333.97" rx="13.7" ry="13.7"/>
				</g>
				
					<ellipse transform="matrix(0.6481 -0.7616 0.7616 0.6481 -163.1576 316.2212)" class="st9" cx="260.58" cy="334.65" rx="13.7" ry="13.7"/>
				
					<ellipse transform="matrix(0.6481 -0.7616 0.7616 0.6481 -163.1576 316.2212)" class="st10" cx="260.58" cy="334.65" rx="13.7" ry="13.7"/>
				<path class="st9" d="M269.91,338.89c-2.34,5.16-8.42,7.44-13.58,5.09c-5.16-2.34-7.44-8.42-5.09-13.58
					c2.34-5.16,8.42-7.44,13.58-5.09C269.98,327.66,272.26,333.74,269.91,338.89z"/>
			</g>
			<g>
				<g>
					<path class="st9" d="M389.7,412.22c-0.31,1.25-4.55,1.26-9.47,0.03c-4.92-1.23-8.66-3.24-8.34-4.49
						c0.31-1.25,4.55-1.26,9.47-0.03C386.28,408.96,390.01,410.97,389.7,412.22z"/>
					
						<rect x="379.91" y="399.68" transform="matrix(0.2429 -0.97 0.97 0.2429 -108.1102 679.1994)" class="st9" width="2.33" height="18.37"/>
				</g>
				<g>
					<path class="st9" d="M390.27,409.96c-0.31,1.25-4.55,1.26-9.47,0.03c-4.92-1.23-8.66-3.24-8.34-4.49
						c0.31-1.25,4.55-1.26,9.47-0.03C386.84,406.71,390.58,408.72,390.27,409.96z"/>
					<path class="st10" d="M390.27,409.96c-0.31,1.25-4.55,1.26-9.47,0.03c-4.92-1.23-8.66-3.24-8.34-4.49
						c0.31-1.25,4.55-1.26,9.47-0.03C386.84,406.71,390.58,408.72,390.27,409.96z"/>
				</g>
				<g>
					<path class="st9" d="M389.15,409.59c-0.02,0.07-0.07,0.15-0.14,0.2c-0.37-0.9-3.47-2.28-7.36-3.25
						c-3.9-0.98-7.28-1.22-8.02-0.6c-0.04-0.07-0.05-0.17-0.03-0.24c0.21-0.84,3.86-0.67,8.16,0.4
						C386.05,407.18,389.37,408.75,389.15,409.59z"/>
					<path class="st11" d="M389.15,409.59c-0.02,0.07-0.07,0.15-0.14,0.2c-0.37-0.9-3.47-2.28-7.36-3.25
						c-3.9-0.98-7.28-1.22-8.02-0.6c-0.04-0.07-0.05-0.17-0.03-0.24c0.21-0.84,3.86-0.67,8.16,0.4
						C386.05,407.18,389.37,408.75,389.15,409.59z"/>
				</g>
				<g>
					<path class="st11" d="M389.01,409.79c-0.75,0.62-4.13,0.37-8.02-0.6c-3.9-0.98-6.99-2.35-7.36-3.25
						c0.74-0.62,4.12-0.38,8.02,0.6C385.55,407.51,388.64,408.89,389.01,409.79z"/>
				</g>
			</g>
			<g>
				<g>
					<path class="st9" d="M398.26,416.32c0.05,1.28-4.01,2.5-9.08,2.71c-5.07,0.22-9.22-0.65-9.27-1.93
						c-0.05-1.28,4.01-2.5,9.08-2.71C394.05,414.17,398.21,415.03,398.26,416.32z"/>
					
						<rect x="379.85" y="414.38" transform="matrix(0.9991 -0.0425 0.0425 0.9991 -17.2938 16.894)" class="st9" width="18.37" height="2.33"/>
				</g>
				<g>
					<path class="st9" d="M398.16,413.99c0.05,1.28-4.01,2.5-9.08,2.71c-5.07,0.22-9.22-0.65-9.27-1.93
						c-0.05-1.28,4.01-2.5,9.08-2.71C393.96,411.84,398.11,412.71,398.16,413.99z"/>
					<path class="st10" d="M398.16,413.99c0.05,1.28-4.01,2.5-9.08,2.71c-5.07,0.22-9.22-0.65-9.27-1.93
						c-0.05-1.28,4.01-2.5,9.08-2.71C393.96,411.84,398.11,412.71,398.16,413.99z"/>
				</g>
				<g>
					<path class="st9" d="M396.99,413.95c0,0.07-0.03,0.17-0.08,0.23c-0.61-0.75-3.97-1.2-7.98-1.03c-4.02,0.17-7.33,0.9-7.86,1.7
						c-0.06-0.06-0.09-0.15-0.1-0.22c-0.04-0.87,3.51-1.74,7.94-1.93C393.33,412.52,396.96,413.08,396.99,413.95z"/>
					<path class="st11" d="M396.99,413.95c0,0.07-0.03,0.17-0.08,0.23c-0.61-0.75-3.97-1.2-7.98-1.03c-4.02,0.17-7.33,0.9-7.86,1.7
						c-0.06-0.06-0.09-0.15-0.1-0.22c-0.04-0.87,3.51-1.74,7.94-1.93C393.33,412.52,396.96,413.08,396.99,413.95z"/>
				</g>
				<g>
					<path class="st11" d="M396.91,414.18c-0.55,0.8-3.85,1.53-7.86,1.7c-4.02,0.17-7.38-0.27-7.98-1.03
						c0.54-0.8,3.84-1.53,7.86-1.7C392.95,412.98,396.3,413.43,396.91,414.18z"/>
				</g>
			</g>
			<g>
				<g>
					<g>
						
							<ellipse transform="matrix(0.5488 -0.836 0.836 0.5488 -167.7777 497.6938)" class="st9" cx="377.16" cy="404.27" rx="13.7" ry="13.7"/>
					</g>
					<path class="st9" d="M388.62,414.48c-5.04,5.65-13.7,6.15-19.35,1.11c-5.65-5.04-6.15-13.7-1.11-19.35
						c5.04-5.65,13.7-6.15,19.35-1.11C393.16,400.17,393.65,408.84,388.62,414.48z"/>
					<path class="st10" d="M388.62,414.48c-5.04,5.65-13.7,6.15-19.35,1.11c-5.65-5.04-6.15-13.7-1.11-19.35
						c5.04-5.65,13.7-6.15,19.35-1.11C393.16,400.17,393.65,408.84,388.62,414.48z"/>
					<path class="st9" d="M386.04,412.19c-3.77,4.23-10.25,4.6-14.48,0.83c-4.23-3.77-4.6-10.25-0.83-14.48
						c3.77-4.23,10.25-4.6,14.48-0.83C389.44,401.48,389.81,407.96,386.04,412.19z"/>
				</g>
			</g>
			<g>
				<g>
					<g>
						<path class="st9" d="M208.78,417.59c-0.05,1.28,4.01,2.5,9.08,2.71c5.07,0.22,9.22-0.65,9.27-1.93
							c0.05-1.28-4.01-2.5-9.08-2.71C212.99,415.44,208.84,416.3,208.78,417.59z"/>
						
							<rect x="216.84" y="407.63" transform="matrix(0.0424 -0.9991 0.9991 0.0424 -207.6741 616.9622)" class="st9" width="2.33" height="18.37"/>
					</g>
					<g>
						<path class="st9" d="M208.88,415.26c-0.05,1.28,4.01,2.5,9.08,2.71c5.07,0.22,9.22-0.65,9.27-1.93
							c0.05-1.28-4.01-2.5-9.08-2.71C213.09,413.11,208.93,413.98,208.88,415.26z"/>
						<path class="st10" d="M208.88,415.26c-0.05,1.28,4.01,2.5,9.08,2.71c5.07,0.22,9.22-0.65,9.27-1.93
							c0.05-1.28-4.01-2.5-9.08-2.71C213.09,413.11,208.93,413.98,208.88,415.26z"/>
					</g>
					<g>
						<path class="st9" d="M210.05,415.22c0,0.08,0.03,0.17,0.08,0.23c0.61-0.75,3.97-1.2,7.98-1.03c4.02,0.17,7.33,0.9,7.86,1.7
							c0.06-0.06,0.09-0.15,0.1-0.22c0.04-0.87-3.51-1.74-7.94-1.93C213.71,413.79,210.09,414.35,210.05,415.22z"/>
						<path class="st11" d="M210.05,415.22c0,0.08,0.03,0.17,0.08,0.23c0.61-0.75,3.97-1.2,7.98-1.03c4.02,0.17,7.33,0.9,7.86,1.7
							c0.06-0.06,0.09-0.15,0.1-0.22c0.04-0.87-3.51-1.74-7.94-1.93C213.71,413.79,210.09,414.35,210.05,415.22z"/>
					</g>
					<g>
						<path class="st11" d="M210.13,415.45c0.55,0.8,3.85,1.53,7.86,1.7c4.02,0.17,7.38-0.27,7.98-1.03
							c-0.54-0.8-3.84-1.53-7.86-1.7C214.1,414.25,210.74,414.7,210.13,415.45z"/>
					</g>
				</g>
				<g>
					<g>
						<path class="st9" d="M206.85,414.07c-0.05,1.28,4.01,2.5,9.08,2.71c5.07,0.22,9.22-0.65,9.27-1.93
							c0.05-1.28-4.01-2.5-9.08-2.71C211.06,411.92,206.91,412.79,206.85,414.07z"/>
						
							<rect x="214.91" y="404.11" transform="matrix(0.0425 -0.9991 0.9991 0.0425 -206.0208 611.6299)" class="st9" width="2.33" height="18.37"/>
					</g>
					<g>
						<path class="st9" d="M206.95,411.74c-0.05,1.28,4.01,2.5,9.08,2.71c5.07,0.22,9.22-0.65,9.27-1.93
							c0.05-1.28-4.01-2.5-9.08-2.71C211.16,409.59,207.01,410.46,206.95,411.74z"/>
						<path class="st10" d="M206.95,411.74c-0.05,1.28,4.01,2.5,9.08,2.71c5.07,0.22,9.22-0.65,9.27-1.93
							c0.05-1.28-4.01-2.5-9.08-2.71C211.16,409.59,207.01,410.46,206.95,411.74z"/>
					</g>
					<g>
						<path class="st9" d="M208.12,411.7c0,0.08,0.03,0.17,0.08,0.23c0.61-0.75,3.97-1.2,7.98-1.03c4.02,0.17,7.33,0.9,7.86,1.7
							c0.06-0.06,0.09-0.15,0.1-0.22c0.04-0.87-3.51-1.74-7.94-1.93C211.78,410.27,208.16,410.83,208.12,411.7z"/>
						<path class="st11" d="M208.12,411.7c0,0.08,0.03,0.17,0.08,0.23c0.61-0.75,3.97-1.2,7.98-1.03c4.02,0.17,7.33,0.9,7.86,1.7
							c0.06-0.06,0.09-0.15,0.1-0.22c0.04-0.87-3.51-1.74-7.94-1.93C211.78,410.27,208.16,410.83,208.12,411.7z"/>
					</g>
					<g>
						<path class="st11" d="M208.2,411.93c0.55,0.8,3.85,1.53,7.86,1.7c4.02,0.17,7.38-0.27,7.98-1.03c-0.54-0.8-3.84-1.53-7.86-1.7
							C212.17,410.74,208.81,411.18,208.2,411.93z"/>
					</g>
				</g>
				<g>
					<g>
						<path class="st9" d="M207.1,409.83c-0.05,1.28,4.01,2.5,9.08,2.71c5.07,0.22,9.22-0.65,9.27-1.93
							c0.05-1.28-4.01-2.5-9.08-2.71C211.31,407.68,207.16,408.55,207.1,409.83z"/>
						
							<rect x="215.16" y="399.87" transform="matrix(0.0425 -0.9991 0.9991 0.0425 -201.546 607.8188)" class="st9" width="2.33" height="18.37"/>
					</g>
					<g>
						<path class="st9" d="M207.2,407.5c-0.05,1.28,4.01,2.5,9.08,2.71c5.07,0.22,9.22-0.65,9.27-1.93c0.05-1.28-4.01-2.5-9.08-2.71
							C211.41,405.35,207.26,406.22,207.2,407.5z"/>
						<path class="st10" d="M207.2,407.5c-0.05,1.28,4.01,2.5,9.08,2.71c5.07,0.22,9.22-0.65,9.27-1.93
							c0.05-1.28-4.01-2.5-9.08-2.71C211.41,405.35,207.26,406.22,207.2,407.5z"/>
					</g>
					<g>
						<path class="st9" d="M208.37,407.46c0,0.08,0.03,0.17,0.08,0.23c0.61-0.75,3.97-1.2,7.98-1.03c4.02,0.17,7.33,0.9,7.86,1.7
							c0.06-0.06,0.09-0.15,0.1-0.22c0.04-0.87-3.51-1.74-7.94-1.93C212.03,406.03,208.41,406.6,208.37,407.46z"/>
						<path class="st11" d="M208.37,407.46c0,0.08,0.03,0.17,0.08,0.23c0.61-0.75,3.97-1.2,7.98-1.03c4.02,0.17,7.33,0.9,7.86,1.7
							c0.06-0.06,0.09-0.15,0.1-0.22c0.04-0.87-3.51-1.74-7.94-1.93C212.03,406.03,208.41,406.6,208.37,407.46z"/>
					</g>
					<g>
						<path class="st11" d="M208.45,407.69c0.55,0.8,3.85,1.53,7.86,1.7c4.02,0.17,7.38-0.27,7.98-1.03
							c-0.54-0.8-3.84-1.53-7.86-1.7C212.42,406.5,209.06,406.94,208.45,407.69z"/>
					</g>
				</g>
				<g>
					<g>
						<path class="st9" d="M205.17,406.31c-0.05,1.28,4.01,2.5,9.08,2.71c5.07,0.22,9.22-0.65,9.27-1.93
							c0.05-1.28-4.01-2.5-9.08-2.71C209.38,404.16,205.23,405.03,205.17,406.31z"/>
						
							<rect x="213.24" y="396.35" transform="matrix(0.0424 -0.9991 0.9991 0.0424 -199.8676 602.5401)" class="st9" width="2.33" height="18.37"/>
					</g>
					<g>
						<path class="st9" d="M205.27,403.98c-0.05,1.28,4.01,2.5,9.08,2.71c5.07,0.22,9.22-0.65,9.27-1.93
							c0.05-1.28-4.01-2.5-9.08-2.71C209.48,401.83,205.33,402.7,205.27,403.98z"/>
						<path class="st10" d="M205.27,403.98c-0.05,1.28,4.01,2.5,9.08,2.71c5.07,0.22,9.22-0.65,9.27-1.93
							c0.05-1.28-4.01-2.5-9.08-2.71C209.48,401.83,205.33,402.7,205.27,403.98z"/>
					</g>
					<g>
						<path class="st9" d="M206.44,403.95c0,0.08,0.03,0.17,0.08,0.23c0.61-0.75,3.97-1.2,7.98-1.03c4.02,0.17,7.33,0.9,7.86,1.7
							c0.06-0.06,0.09-0.15,0.1-0.22c0.04-0.87-3.51-1.74-7.94-1.93C210.1,402.51,206.48,403.08,206.44,403.95z"/>
						<path class="st11" d="M206.44,403.95c0,0.08,0.03,0.17,0.08,0.23c0.61-0.75,3.97-1.2,7.98-1.03c4.02,0.17,7.33,0.9,7.86,1.7
							c0.06-0.06,0.09-0.15,0.1-0.22c0.04-0.87-3.51-1.74-7.94-1.93C210.1,402.51,206.48,403.08,206.44,403.95z"/>
					</g>
					<g>
						<path class="st11" d="M206.52,404.17c0.55,0.8,3.85,1.53,7.86,1.7c4.02,0.17,7.38-0.27,7.98-1.03
							c-0.54-0.8-3.84-1.53-7.86-1.7C210.49,402.98,207.14,403.42,206.52,404.17z"/>
					</g>
				</g>
				<g>
					<g>
						<path class="st9" d="M208.12,403.33c-0.05,1.28,4.01,2.5,9.08,2.71c5.07,0.22,9.22-0.65,9.27-1.93
							c0.05-1.28-4.01-2.5-9.08-2.71C212.33,401.18,208.17,402.04,208.12,403.33z"/>
						
							<rect x="216.18" y="393.37" transform="matrix(0.0425 -0.9991 0.9991 0.0425 -194.076 602.6082)" class="st9" width="2.33" height="18.37"/>
					</g>
					<g>
						<path class="st9" d="M208.22,401c-0.05,1.28,4.01,2.5,9.08,2.71c5.07,0.22,9.22-0.65,9.27-1.93c0.05-1.28-4.01-2.5-9.08-2.71
							C212.42,398.85,208.27,399.72,208.22,401z"/>
						<path class="st10" d="M208.22,401c-0.05,1.28,4.01,2.5,9.08,2.71c5.07,0.22,9.22-0.65,9.27-1.93c0.05-1.28-4.01-2.5-9.08-2.71
							C212.42,398.85,208.27,399.72,208.22,401z"/>
					</g>
					<g>
						<path class="st9" d="M209.39,400.96c0,0.08,0.03,0.17,0.08,0.23c0.61-0.75,3.97-1.2,7.98-1.03c4.02,0.17,7.33,0.9,7.86,1.7
							c0.06-0.06,0.09-0.15,0.1-0.22c0.04-0.87-3.51-1.74-7.94-1.93C213.05,399.53,209.42,400.09,209.39,400.96z"/>
						<path class="st11" d="M209.39,400.96c0,0.08,0.03,0.17,0.08,0.23c0.61-0.75,3.97-1.2,7.98-1.03c4.02,0.17,7.33,0.9,7.86,1.7
							c0.06-0.06,0.09-0.15,0.1-0.22c0.04-0.87-3.51-1.74-7.94-1.93C213.05,399.53,209.42,400.09,209.39,400.96z"/>
					</g>
					<g>
						<path class="st11" d="M209.47,401.19c0.55,0.8,3.85,1.53,7.86,1.7c4.02,0.17,7.38-0.27,7.98-1.03
							c-0.54-0.8-3.84-1.53-7.86-1.7C213.43,399.99,210.08,400.44,209.47,401.19z"/>
					</g>
				</g>
				<g>
					<g>
						<path class="st9" d="M195.18,417.38c0.31,1.25,4.55,1.26,9.47,0.03c4.92-1.23,8.66-3.24,8.34-4.49
							c-0.31-1.25-4.55-1.26-9.47-0.03C198.61,414.13,194.87,416.14,195.18,417.38z"/>
						
							<rect x="194.62" y="412.86" transform="matrix(0.97 -0.2429 0.2429 0.97 -94.4701 61.9106)" class="st9" width="18.37" height="2.33"/>
					</g>
					<g>
						<path class="st9" d="M194.62,415.13c0.31,1.25,4.55,1.26,9.47,0.03c4.92-1.23,8.66-3.24,8.34-4.49
							c-0.31-1.25-4.55-1.26-9.47-0.03C198.04,411.87,194.3,413.88,194.62,415.13z"/>
						<path class="st10" d="M194.62,415.13c0.31,1.25,4.55,1.26,9.47,0.03c4.92-1.23,8.66-3.24,8.34-4.49
							c-0.31-1.25-4.55-1.26-9.47-0.03C198.04,411.87,194.3,413.88,194.62,415.13z"/>
					</g>
					<g>
						<path class="st9" d="M195.73,414.76c0.02,0.07,0.07,0.15,0.14,0.2c0.37-0.9,3.47-2.28,7.36-3.25c3.9-0.98,7.28-1.22,8.02-0.6
							c0.04-0.07,0.05-0.17,0.03-0.24c-0.21-0.84-3.86-0.67-8.16,0.4C198.83,412.34,195.52,413.91,195.73,414.76z"/>
						<path class="st11" d="M195.73,414.76c0.02,0.07,0.07,0.15,0.14,0.2c0.37-0.9,3.47-2.28,7.36-3.25c3.9-0.98,7.28-1.22,8.02-0.6
							c0.04-0.07,0.05-0.17,0.03-0.24c-0.21-0.84-3.86-0.67-8.16,0.4C198.83,412.34,195.52,413.91,195.73,414.76z"/>
					</g>
					<g>
						<path class="st11" d="M195.87,414.95c0.75,0.62,4.13,0.37,8.02-0.6c3.9-0.98,6.99-2.35,7.36-3.25
							c-0.74-0.62-4.12-0.38-8.02,0.6C199.33,412.68,196.24,414.06,195.87,414.95z"/>
					</g>
				</g>
				<g>
					<g>
						<path class="st9" d="M186.67,417.59c-0.05,1.28,4.01,2.5,9.08,2.71c5.07,0.22,9.22-0.65,9.27-1.93
							c0.05-1.28-4.01-2.5-9.08-2.71C190.88,415.44,186.73,416.3,186.67,417.59z"/>
						
							<rect x="194.73" y="407.63" transform="matrix(0.0425 -0.9991 0.9991 0.0425 -228.8602 594.8388)" class="st9" width="2.33" height="18.37"/>
					</g>
					<g>
						<path class="st9" d="M186.77,415.26c-0.05,1.28,4.01,2.5,9.08,2.71c5.07,0.22,9.22-0.65,9.27-1.93
							c0.05-1.28-4.01-2.5-9.08-2.71C190.98,413.11,186.83,413.98,186.77,415.26z"/>
						<path class="st10" d="M186.77,415.26c-0.05,1.28,4.01,2.5,9.08,2.71c5.07,0.22,9.22-0.65,9.27-1.93
							c0.05-1.28-4.01-2.5-9.08-2.71C190.98,413.11,186.83,413.98,186.77,415.26z"/>
					</g>
					<g>
						<path class="st9" d="M187.94,415.22c0,0.08,0.03,0.17,0.08,0.23c0.61-0.75,3.97-1.2,7.98-1.03c4.02,0.17,7.33,0.9,7.86,1.7
							c0.06-0.06,0.09-0.15,0.1-0.22c0.04-0.87-3.51-1.74-7.94-1.93C191.6,413.79,187.98,414.35,187.94,415.22z"/>
						<path class="st11" d="M187.94,415.22c0,0.08,0.03,0.17,0.08,0.23c0.61-0.75,3.97-1.2,7.98-1.03c4.02,0.17,7.33,0.9,7.86,1.7
							c0.06-0.06,0.09-0.15,0.1-0.22c0.04-0.87-3.51-1.74-7.94-1.93C191.6,413.79,187.98,414.35,187.94,415.22z"/>
					</g>
					<g>
						<path class="st11" d="M188.02,415.45c0.55,0.8,3.85,1.53,7.86,1.7c4.02,0.17,7.38-0.27,7.98-1.03
							c-0.54-0.8-3.84-1.53-7.86-1.7C191.99,414.25,188.63,414.7,188.02,415.45z"/>
					</g>
				</g>
			</g>
			<g>
				<g>
					<g>
						<path class="st9" d="M281.46,417.48c-0.06,1.32,4.12,2.57,9.33,2.79c5.21,0.22,9.48-0.67,9.54-1.99
							c0.06-1.32-4.12-2.57-9.33-2.79C285.78,415.27,281.51,416.16,281.46,417.48z"/>
						
							<rect x="289.75" y="407.25" transform="matrix(0.0425 -0.9991 0.9991 0.0425 -137.7256 689.6742)" class="st9" width="2.39" height="18.89"/>
					</g>
					<g>
						<path class="st9" d="M281.56,415.09c-0.06,1.32,4.12,2.57,9.33,2.79c5.21,0.22,9.48-0.67,9.54-1.99
							c0.06-1.32-4.12-2.57-9.33-2.79C285.88,412.88,281.61,413.77,281.56,415.09z"/>
						<path class="st10" d="M281.56,415.09c-0.06,1.32,4.12,2.57,9.33,2.79c5.21,0.22,9.48-0.67,9.54-1.99
							c0.06-1.32-4.12-2.57-9.33-2.79C285.88,412.88,281.61,413.77,281.56,415.09z"/>
					</g>
					<g>
						<path class="st9" d="M282.76,415.05c0,0.08,0.03,0.17,0.08,0.24c0.63-0.78,4.08-1.23,8.2-1.06c4.13,0.18,7.53,0.92,8.08,1.75
							c0.06-0.06,0.1-0.15,0.1-0.23c0.04-0.89-3.61-1.79-8.16-1.98C286.53,413.58,282.8,414.16,282.76,415.05z"/>
						<path class="st11" d="M282.76,415.05c0,0.08,0.03,0.17,0.08,0.24c0.63-0.78,4.08-1.23,8.2-1.06c4.13,0.18,7.53,0.92,8.08,1.75
							c0.06-0.06,0.1-0.15,0.1-0.23c0.04-0.89-3.61-1.79-8.16-1.98C286.53,413.58,282.8,414.16,282.76,415.05z"/>
					</g>
					<g>
						<path class="st11" d="M282.84,415.29c0.56,0.83,3.96,1.57,8.08,1.75c4.13,0.18,7.58-0.28,8.2-1.06
							c-0.55-0.83-3.95-1.57-8.08-1.75C286.92,414.06,283.47,414.51,282.84,415.29z"/>
					</g>
				</g>
				<g>
					<g>
						<path class="st9" d="M279.47,413.86c-0.06,1.32,4.12,2.57,9.33,2.79c5.21,0.22,9.48-0.67,9.54-1.99
							c0.06-1.32-4.12-2.57-9.33-2.79C283.8,411.65,279.53,412.54,279.47,413.86z"/>
						
							<rect x="287.76" y="403.63" transform="matrix(0.0424 -0.9991 0.9991 0.0424 -135.998 684.2444)" class="st9" width="2.39" height="18.89"/>
					</g>
					<g>
						<path class="st9" d="M279.58,411.47c-0.06,1.32,4.12,2.57,9.33,2.79c5.21,0.22,9.48-0.67,9.54-1.99
							c0.06-1.32-4.12-2.57-9.33-2.79C283.9,409.26,279.63,410.15,279.58,411.47z"/>
						<path class="st10" d="M279.58,411.47c-0.06,1.32,4.12,2.57,9.33,2.79c5.21,0.22,9.48-0.67,9.54-1.99
							c0.06-1.32-4.12-2.57-9.33-2.79C283.9,409.26,279.63,410.15,279.58,411.47z"/>
					</g>
					<g>
						<path class="st9" d="M280.78,411.43c0,0.08,0.03,0.17,0.08,0.24c0.63-0.78,4.08-1.23,8.2-1.06c4.13,0.18,7.53,0.92,8.08,1.75
							c0.06-0.06,0.1-0.15,0.1-0.23c0.04-0.89-3.61-1.79-8.16-1.98C284.54,409.96,280.82,410.54,280.78,411.43z"/>
						<path class="st11" d="M280.78,411.43c0,0.08,0.03,0.17,0.08,0.24c0.63-0.78,4.08-1.23,8.2-1.06c4.13,0.18,7.53,0.92,8.08,1.75
							c0.06-0.06,0.1-0.15,0.1-0.23c0.04-0.89-3.61-1.79-8.16-1.98C284.54,409.96,280.82,410.54,280.78,411.43z"/>
					</g>
					<g>
						<path class="st11" d="M280.86,411.67c0.56,0.83,3.96,1.57,8.08,1.75c4.13,0.18,7.58-0.28,8.2-1.06
							c-0.55-0.83-3.95-1.57-8.08-1.75C284.94,410.44,281.49,410.89,280.86,411.67z"/>
					</g>
				</g>
				<g>
					<g>
						<path class="st9" d="M283.73,411.19c-0.06,1.32,4.12,2.57,9.33,2.79c5.21,0.22,9.48-0.67,9.54-1.99
							c0.06-1.32-4.12-2.57-9.33-2.79C288.05,408.97,283.78,409.87,283.73,411.19z"/>
						
							<rect x="292.01" y="400.95" transform="matrix(0.0425 -0.9991 0.9991 0.0425 -129.2617 685.9086)" class="st9" width="2.39" height="18.89"/>
					</g>
					<g>
						<path class="st9" d="M283.83,408.79c-0.06,1.32,4.12,2.57,9.33,2.79c5.21,0.22,9.48-0.67,9.54-1.99
							c0.06-1.32-4.12-2.57-9.33-2.79C288.15,406.58,283.88,407.48,283.83,408.79z"/>
						<path class="st10" d="M283.83,408.79c-0.06,1.32,4.12,2.57,9.33,2.79c5.21,0.22,9.48-0.67,9.54-1.99
							c0.06-1.32-4.12-2.57-9.33-2.79C288.15,406.58,283.88,407.48,283.83,408.79z"/>
					</g>
					<g>
						<path class="st9" d="M285.03,408.75c0,0.08,0.03,0.17,0.08,0.24c0.63-0.78,4.08-1.23,8.2-1.06c4.13,0.18,7.53,0.92,8.08,1.75
							c0.06-0.06,0.1-0.15,0.1-0.23c0.04-0.89-3.61-1.79-8.16-1.98C288.79,407.28,285.07,407.86,285.03,408.75z"/>
						<path class="st11" d="M285.03,408.75c0,0.08,0.03,0.17,0.08,0.24c0.63-0.78,4.08-1.23,8.2-1.06c4.13,0.18,7.53,0.92,8.08,1.75
							c0.06-0.06,0.1-0.15,0.1-0.23c0.04-0.89-3.61-1.79-8.16-1.98C288.79,407.28,285.07,407.86,285.03,408.75z"/>
					</g>
					<g>
						<path class="st11" d="M285.11,408.99c0.56,0.83,3.96,1.57,8.08,1.75c4.13,0.18,7.58-0.28,8.2-1.06
							c-0.55-0.83-3.95-1.57-8.08-1.75C289.19,407.76,285.74,408.21,285.11,408.99z"/>
					</g>
				</g>
				<g>
					<g>
						<path class="st9" d="M283.78,407.57c-0.06,1.32,4.12,2.57,9.33,2.79c5.21,0.22,9.48-0.67,9.54-1.99
							c0.06-1.32-4.12-2.57-9.33-2.79C288.1,405.36,283.83,406.25,283.78,407.57z"/>
						
							<rect x="292.07" y="397.33" transform="matrix(0.0424 -0.9991 0.9991 0.0424 -125.5854 682.5123)" class="st9" width="2.39" height="18.89"/>
					</g>
					<g>
						<path class="st9" d="M283.88,405.18c-0.06,1.32,4.12,2.57,9.33,2.79c5.21,0.22,9.48-0.67,9.54-1.99
							c0.06-1.32-4.12-2.57-9.33-2.79C288.2,402.97,283.93,403.86,283.88,405.18z"/>
						<path class="st10" d="M283.88,405.18c-0.06,1.32,4.12,2.57,9.33,2.79c5.21,0.22,9.48-0.67,9.54-1.99
							c0.06-1.32-4.12-2.57-9.33-2.79C288.2,402.97,283.93,403.86,283.88,405.18z"/>
					</g>
					<g>
						<path class="st9" d="M285.08,405.14c0,0.08,0.03,0.17,0.08,0.23c0.63-0.78,4.08-1.23,8.2-1.06c4.13,0.18,7.53,0.92,8.08,1.75
							c0.06-0.06,0.1-0.15,0.1-0.23c0.04-0.89-3.61-1.79-8.16-1.98C288.85,403.66,285.12,404.24,285.08,405.14z"/>
						<path class="st11" d="M285.08,405.14c0,0.08,0.03,0.17,0.08,0.23c0.63-0.78,4.08-1.23,8.2-1.06c4.13,0.18,7.53,0.92,8.08,1.75
							c0.06-0.06,0.1-0.15,0.1-0.23c0.04-0.89-3.61-1.79-8.16-1.98C288.85,403.66,285.12,404.24,285.08,405.14z"/>
					</g>
					<g>
						<path class="st11" d="M285.16,405.37c0.56,0.83,3.96,1.57,8.08,1.75c4.13,0.18,7.58-0.28,8.2-1.06
							c-0.55-0.83-3.95-1.57-8.08-1.75C289.24,404.14,285.79,404.59,285.16,405.37z"/>
					</g>
				</g>
				<g>
					<g>
						<path class="st9" d="M279.9,404.61c-0.06,1.32,4.12,2.57,9.33,2.79c5.21,0.22,9.48-0.67,9.54-1.99
							c0.06-1.32-4.12-2.57-9.33-2.79C284.22,402.4,279.96,403.29,279.9,404.61z"/>
						
							<rect x="288.19" y="394.37" transform="matrix(0.0425 -0.9991 0.9991 0.0425 -126.3665 675.7714)" class="st9" width="2.39" height="18.89"/>
					</g>
					<g>
						<path class="st9" d="M280,402.22c-0.06,1.32,4.12,2.57,9.33,2.79c5.21,0.22,9.48-0.67,9.54-1.99
							c0.06-1.32-4.12-2.57-9.33-2.79C284.33,400.01,280.06,400.9,280,402.22z"/>
						<path class="st10" d="M280,402.22c-0.06,1.32,4.12,2.57,9.33,2.79c5.21,0.22,9.48-0.67,9.54-1.99
							c0.06-1.32-4.12-2.57-9.33-2.79C284.33,400.01,280.06,400.9,280,402.22z"/>
					</g>
					<g>
						<path class="st9" d="M281.2,402.18c0,0.08,0.03,0.17,0.08,0.24c0.63-0.78,4.08-1.23,8.2-1.06c4.13,0.18,7.53,0.92,8.08,1.75
							c0.06-0.06,0.1-0.15,0.1-0.23c0.04-0.89-3.61-1.79-8.16-1.98C284.97,400.7,281.24,401.28,281.2,402.18z"/>
						<path class="st11" d="M281.2,402.18c0,0.08,0.03,0.17,0.08,0.24c0.63-0.78,4.08-1.23,8.2-1.06c4.13,0.18,7.53,0.92,8.08,1.75
							c0.06-0.06,0.1-0.15,0.1-0.23c0.04-0.89-3.61-1.79-8.16-1.98C284.97,400.7,281.24,401.28,281.2,402.18z"/>
					</g>
					<g>
						<path class="st11" d="M281.28,402.41c0.56,0.83,3.96,1.57,8.08,1.75c4.13,0.18,7.58-0.28,8.2-1.06
							c-0.55-0.83-3.95-1.57-8.08-1.75C285.37,401.18,281.92,401.64,281.28,402.41z"/>
					</g>
				</g>
			</g>
			<g>
				<g>
					<path class="st9" d="M304.26,411.81c-0.55,1.16,2.73,3.85,7.32,6.01c4.59,2.16,8.76,2.96,9.3,1.8
						c0.55-1.16-2.73-3.85-7.32-6.01C308.97,411.46,304.8,410.65,304.26,411.81z"/>
					
						<rect x="311.9" y="405.48" transform="matrix(0.4252 -0.9051 0.9051 0.4252 -195.3695 521.679)" class="st9" width="2.33" height="18.37"/>
				</g>
				<g>
					<path class="st9" d="M305.25,409.71c-0.55,1.16,2.73,3.85,7.32,6.01c4.59,2.16,8.76,2.96,9.3,1.8
						c0.55-1.16-2.73-3.85-7.32-6.01C309.96,409.35,305.79,408.54,305.25,409.71z"/>
					<path class="st10" d="M305.25,409.71c-0.55,1.16,2.73,3.85,7.32,6.01c4.59,2.16,8.76,2.96,9.3,1.8
						c0.55-1.16-2.73-3.85-7.32-6.01C309.96,409.35,305.79,408.54,305.25,409.71z"/>
				</g>
				<g>
					<path class="st9" d="M306.34,410.12c-0.03,0.07-0.04,0.16-0.02,0.24c0.86-0.46,4.12,0.43,7.76,2.14
						c3.64,1.71,6.41,3.66,6.59,4.61c0.08-0.03,0.14-0.1,0.18-0.17c0.37-0.79-2.57-2.96-6.58-4.85
						C310.27,410.21,306.71,409.34,306.34,410.12z"/>
					<path class="st11" d="M306.34,410.12c-0.03,0.07-0.04,0.16-0.02,0.24c0.86-0.46,4.12,0.43,7.76,2.14
						c3.64,1.71,6.41,3.66,6.59,4.61c0.08-0.03,0.14-0.1,0.18-0.17c0.37-0.79-2.57-2.96-6.58-4.85
						C310.27,410.21,306.71,409.34,306.34,410.12z"/>
				</g>
				<g>
					<path class="st11" d="M306.33,410.36c0.19,0.95,2.96,2.9,6.59,4.61c3.64,1.71,6.91,2.6,7.76,2.14
						c-0.18-0.95-2.95-2.9-6.59-4.61C310.45,410.79,307.18,409.9,306.33,410.36z"/>
				</g>
			</g>
			<g>
				<g>
					<path class="st9" d="M294.61,415.94c-0.05,1.28,4.01,2.5,9.08,2.71c5.07,0.22,9.22-0.65,9.27-1.93
						c0.05-1.28-4.01-2.5-9.08-2.71C298.82,413.79,294.67,414.65,294.61,415.94z"/>
					
						<rect x="302.68" y="405.98" transform="matrix(0.0425 -0.9991 0.9991 0.0425 -123.8507 701.0997)" class="st9" width="2.33" height="18.37"/>
				</g>
				<g>
					<path class="st9" d="M294.71,413.61c-0.05,1.28,4.01,2.5,9.08,2.71c5.07,0.22,9.22-0.65,9.27-1.93
						c0.05-1.28-4.01-2.5-9.08-2.71C298.92,411.46,294.77,412.33,294.71,413.61z"/>
					<path class="st10" d="M294.71,413.61c-0.05,1.28,4.01,2.5,9.08,2.71c5.07,0.22,9.22-0.65,9.27-1.93
						c0.05-1.28-4.01-2.5-9.08-2.71C298.92,411.46,294.77,412.33,294.71,413.61z"/>
				</g>
				<g>
					<path class="st9" d="M295.88,413.57c0,0.08,0.03,0.17,0.08,0.23c0.61-0.75,3.97-1.2,7.98-1.03c4.02,0.17,7.33,0.9,7.86,1.7
						c0.06-0.06,0.09-0.15,0.1-0.22c0.04-0.87-3.51-1.74-7.94-1.93C299.54,412.14,295.92,412.7,295.88,413.57z"/>
					<path class="st11" d="M295.88,413.57c0,0.08,0.03,0.17,0.08,0.23c0.61-0.75,3.97-1.2,7.98-1.03c4.02,0.17,7.33,0.9,7.86,1.7
						c0.06-0.06,0.09-0.15,0.1-0.22c0.04-0.87-3.51-1.74-7.94-1.93C299.54,412.14,295.92,412.7,295.88,413.57z"/>
				</g>
				<g>
					<path class="st11" d="M295.96,413.8c0.55,0.8,3.85,1.53,7.86,1.7c4.02,0.17,7.38-0.27,7.98-1.03c-0.54-0.8-3.84-1.53-7.86-1.7
						C299.93,412.6,296.58,413.04,295.96,413.8z"/>
				</g>
			</g>
		</g>
		<g>
			<g>
				<g>
					<path class="st9" d="M132.93,159.03v6.04c3.89,0.31,7.44,1.85,10.25,4.24l4.27-4.27C143.54,161.58,138.49,159.36,132.93,159.03
						z"/>
				</g>
				<g>
					<path class="st9" d="M130.02,201.09c-8.82-0.7-15.85-7.73-16.55-16.55h-6.04c0.73,12.15,10.45,21.87,22.59,22.59V201.09z"/>
				</g>
				<g>
					<path class="st9" d="M113.46,181.62c0.7-8.82,7.74-15.85,16.55-16.55v-6.04c-12.15,0.73-21.87,10.45-22.59,22.59H113.46z"/>
					<path class="st13" d="M113.46,181.62c0.7-8.82,7.74-15.85,16.55-16.55v-6.04c-12.15,0.73-21.87,10.45-22.59,22.59H113.46z"/>
				</g>
				<path class="st9" d="M149.51,167.11l-4.27,4.27c2.68,3.15,4.31,7.24,4.31,11.71c0,9.49-7.32,17.27-16.62,18.01v6.04
					c12.63-0.75,22.64-11.23,22.64-24.05C155.57,176.95,153.28,171.36,149.51,167.11z"/>
			</g>
			<g>
				<g class="st14">
					<path class="st5" d="M132.93,159.03v6.04c3.89,0.31,7.44,1.85,10.25,4.24l4.27-4.27C143.54,161.58,138.49,159.36,132.93,159.03
						z"/>
				</g>
				<g class="st15">
					<path class="st5" d="M130.02,201.09c-8.82-0.7-15.85-7.73-16.55-16.55h-6.04c0.73,12.15,10.45,21.87,22.59,22.59V201.09z"/>
				</g>
				<g class="st16">
					<path class="st5" d="M113.46,181.62c0.7-8.82,7.74-15.85,16.55-16.55v-6.04c-12.15,0.73-21.87,10.45-22.59,22.59H113.46z"/>
				</g>
				<path class="st12" d="M149.51,167.11l-4.27,4.27c2.68,3.15,4.31,7.24,4.31,11.71c0,9.49-7.32,17.27-16.62,18.01v6.04
					c12.63-0.75,22.64-11.23,22.64-24.05C155.57,176.95,153.28,171.36,149.51,167.11z"/>
			</g>
		</g>
		<g>
			<g>
				<g>
					<polygon class="st9" points="175.3,152.66 182.95,163.04 227.03,144.74 270,160.02 308.93,134.85 311.72,138.55 320.97,123.41 
						300.24,121.79 303.42,125.98 264.46,150.92 222.13,135.9 					"/>
				</g>
			</g>
			<g>
				<g>
					<polygon class="st17" points="175.3,152.66 182.95,163.04 227.03,144.74 270,160.02 308.93,134.85 311.72,138.55 
						320.97,123.41 300.24,121.79 303.42,125.98 264.46,150.92 222.13,135.9 					"/>
				</g>
			</g>
		</g>
		<g>
			<g>
				<path class="st9" d="M355.99,159.12c-5.36,0-9.7,4.34-9.7,9.7c0,5.35,4.34,9.7,9.7,9.7c5.35,0,9.7-4.35,9.7-9.7
					C365.69,163.46,361.34,159.12,355.99,159.12z M355.99,173.67c-2.68,0-4.85-2.17-4.85-4.85c0-2.68,2.17-4.85,4.85-4.85
					c2.68,0,4.85,2.17,4.85,4.85C360.83,171.5,358.67,173.67,355.99,173.67z"/>
				<path class="st9" d="M380.45,187.58c-5.36,0-9.7,4.34-9.7,9.7c0,5.35,4.34,9.7,9.7,9.7c5.35,0,9.7-4.35,9.7-9.7
					C390.14,191.92,385.8,187.58,380.45,187.58z M380.45,202.12c-2.68,0-4.85-2.17-4.85-4.85c0-2.68,2.17-4.85,4.85-4.85
					c2.68,0,4.85,2.17,4.85,4.85C385.29,199.96,383.12,202.12,380.45,202.12z"/>
				<g>
					<polygon class="st9" points="359.63,206.98 353.18,206.98 375.59,159.12 382.04,159.12 					"/>
				</g>
			</g>
			<g class="st18">
				<path class="st17" d="M355.99,159.12c-5.36,0-9.7,4.34-9.7,9.7c0,5.35,4.34,9.7,9.7,9.7c5.35,0,9.7-4.35,9.7-9.7
					C365.69,163.46,361.34,159.12,355.99,159.12z M355.99,173.67c-2.68,0-4.85-2.17-4.85-4.85c0-2.68,2.17-4.85,4.85-4.85
					c2.68,0,4.85,2.17,4.85,4.85C360.83,171.5,358.67,173.67,355.99,173.67z"/>
				<path class="st17" d="M380.45,187.58c-5.36,0-9.7,4.34-9.7,9.7c0,5.35,4.34,9.7,9.7,9.7c5.35,0,9.7-4.35,9.7-9.7
					C390.14,191.92,385.8,187.58,380.45,187.58z M380.45,202.12c-2.68,0-4.85-2.17-4.85-4.85c0-2.68,2.17-4.85,4.85-4.85
					c2.68,0,4.85,2.17,4.85,4.85C385.29,199.96,383.12,202.12,380.45,202.12z"/>
				<g>
					<polygon class="st17" points="359.63,206.98 353.18,206.98 375.59,159.12 382.04,159.12 					"/>
				</g>
			</g>
		</g>
		<g>
			<g>
				<g>
					<g>
						<g>
							<g>
								<g id="Character--inject-2_2_">
									<path class="st19" d="M244.96,163.41c0.27,1.24,0.51,2.31,0.81,3.44c0.3,1.13,0.59,2.2,0.93,3.34
										c0.65,2.19,1.4,4.36,2.23,6.58c1.65,4.59,3.92,8.94,6.74,12.92c0.83,1.11,1.76,2.15,2.76,3.11
										c1.13,1.08,2.41,1.99,3.81,2.69c2.68,1.3,5.65,1.88,8.63,1.67c2.6-0.18,5.16-0.78,7.57-1.78c1.14-0.46,2.25-0.99,3.32-1.59
										c0.54-0.29,1.06-0.61,1.56-0.97c0.5-0.36,0.98-0.67,1.56-1.09l-2.63-4.72l-1.4,0.37l-1.47,0.35
										c-0.99,0.22-1.96,0.4-2.96,0.54c-1.81,0.27-3.64,0.31-5.46,0.11c-1.45-0.15-2.85-0.65-4.06-1.46
										c-0.52-0.37-1-0.8-1.43-1.28c-0.53-0.62-1.02-1.27-1.46-1.96c-1.02-1.6-1.9-3.29-2.65-5.04c-0.82-1.81-1.54-3.72-2.22-5.68
										c-0.68-1.96-1.29-3.95-1.9-5.95l-0.86-3.03c-0.27-1-0.57-2.06-0.78-2.93L244.96,163.41z"/>
									<path class="st9" d="M244.09,157.35c4.53-5.76,11.42-3.65,15.29,5.53c2.15,4.89,3.85,9.96,5.08,15.15l-16.14,5.67
										C244.08,175.01,239.43,163.26,244.09,157.35z"/>
									<path class="st7" d="M244.09,157.35c4.53-5.76,11.42-3.65,15.29,5.53c2.15,4.89,3.85,9.96,5.08,15.15l-16.14,5.67
										C244.08,175.01,239.43,163.26,244.09,157.35z"/>
									<path class="st20" d="M250.83,166.98c-1.33-0.91-4.05,4.34-5.31,10.53c0.88,2.16,1.84,4.22,2.79,6.15l9.71-3.41
										C256.43,174.46,253.82,169.03,250.83,166.98z"/>
									<path class="st19" d="M283.07,184.63l3.53-1.93l1.23,7.89c0,0-5.9,3.55-7.59,0.61l0.18-2.04
										C280.63,187.35,281.59,185.7,283.07,184.63z"/>
									<polygon class="st19" points="291.03,182.31 294.12,188.65 287.81,190.59 286.57,182.7 									"/>
									<g>
										<g>
											<path class="st9" d="M244.03,152.19l-8.26-1.16l-10.29,0.9c-3.21,0.28-5.84,2.67-6.42,5.84
												c-1.14,6.22-1.76,15.05-2.08,22.66c-0.36,8.54,0.58,21.17,1.96,32.56l34.38-4.16c0.33-29.99,2.6-39.29,2.88-47.24
												c0.12-3.2-1.91-6.09-4.96-7.06L244.03,152.19z"/>
										</g>
										<g>
											<g>
												<g>
													<g>
														<g>
															<g>
																<polygon class="st19" points="254.42,300.95 261.73,302.98 268.29,285.79 260.99,283.77 																"/>
																<path class="st21" d="M265.01,300.7c-0.57-0.75-1.42-1.24-2.34-1.42l-7.53-1.46c-0.35-0.08-0.7,0.12-0.81,0.46
																	l-2.33,6.87c-0.28,0.78,0.14,1.64,0.92,1.92c0.02,0.01,0.03,0.01,0.05,0.02c2.78,1.09,4.65,0.72,8.99,1.56
																	c2.67,0.52,8.29,2.3,12.05,2.15c3.75-0.15,3.74-3.87,2.16-4.14C270.57,305.75,266.28,302.39,265.01,300.7z"/>
																<g class="st13">
																	<polygon points="268.29,285.8 264.8,294.94 257.6,292.63 260.98,283.77 																	"/>
																</g>
																<g>
																	<path class="st21" d="M286.54,235.11c-0.24,2.66-0.77,5.35-1.48,8.05c-1.93,7.46-5.23,15.06-7.96,22.47
																		c-5.4,14.64-10.09,27.4-10.09,27.4l-10.03-3.46c0,0,9.01-42.36,15.07-46.69h-37.21c-0.72,0-1.42-0.05-2.08-0.14
																		c6.41-0.83,16.4-4.78,25.67-8.73c8.19-3.5,15.85-6.97,20.01-8.32h0.01v0.01
																		C283.52,227.83,286.93,230.84,286.54,235.11z"/>
																	<path class="st22" d="M286.54,235.11c-0.24,2.66-0.77,5.35-1.48,8.05c-1.93,7.46-5.23,15.06-7.96,22.47
																		c-5.4,14.64-10.09,27.4-10.09,27.4l-10.03-3.46c0,0,9.01-42.36,15.07-46.69h-37.21c-0.72,0-1.42-0.05-2.08-0.14
																		c6.41-0.83,16.4-4.78,25.67-8.73c8.19-3.5,15.85-6.97,20.01-8.32h0.01v0.01
																		C283.52,227.83,286.93,230.84,286.54,235.11z"/>
																	<path class="st15" d="M278.45,225.7c-4.16,1.35-11.82,4.82-20.01,8.32c-9.27,3.95-19.26,7.9-25.67,8.73
																		c-10.8-1.44-14.86-14.31-3.57-29.14c7.33,0.01,14.7,7.02,14.7,7.02S266.07,220.49,278.45,225.7z"/>
																</g>
															</g>
															<g>
																<polygon class="st19" points="305.39,286.18 313.57,286.18 305,265.64 299.44,275.07 																"/>
																<path class="st21" d="M312.9,284.24l-9.61-2.18c-0.34-0.09-0.69,0.1-0.81,0.43l-2.68,7.39
																	c-0.23,0.78,0.22,1.6,1.01,1.83c0.02,0,0.03,0.01,0.05,0.01c3.37,0.7,5.03,0.87,9.25,1.83
																	c2.6,0.59,9.18,2.32,12.77,3.13c3.59,0.81,4.53-2.7,3.1-3.37c-6.41-2.97-9.88-5.8-11.74-8.22
																	C313.91,284.66,313.43,284.35,312.9,284.24z"/>
																<g class="st13">
																	<polygon points="305,265.64 308.65,274.39 301.28,278.5 299.44,275.07 																	"/>
																</g>
																<g>
																	<g>
																		<path class="st21" d="M308.76,271.28l-9.01,5.45c0,0-7.5-15.77-14.69-33.56c0.71-2.71,1.23-5.39,1.48-8.05
																			c0.39-4.28-3.02-7.29-8.08-9.4v-0.01h-0.01c-4.16,1.35-11.82,4.82-20.01,8.32c-9.27,3.95-19.26,7.9-25.67,8.73
																			c-0.8,0.1-1.53,0.16-2.22,0.16c-12.32,0-16.57-10.8-11.6-29.12c7.33-0.03,19.88-0.79,19.88-0.79
																			s24.22-5.82,41.65-3.83c8.49,0.96,15.37,7.34,17.04,15.75C301.95,247.16,308.76,271.28,308.76,271.28z"/>
																	</g>
																</g>
																<g>
																	<g>
																		<path class="st21" d="M308.76,271.28l-9.01,5.45c0,0-7.5-15.77-14.69-33.56c0.71-2.71,1.23-5.39,1.48-8.05
																			c0.39-4.28-3.02-7.29-8.08-9.4v-0.01h-0.01c-4.16,1.35-11.82,4.82-20.01,8.32c-9.27,3.95-19.26,7.9-25.67,8.73
																			c-0.8,0.1-1.53,0.16-2.22,0.16c-12.32,0-16.57-10.8-11.6-29.12c7.33-0.03,19.88-0.79,19.88-0.79
																			s24.22-5.82,41.65-3.83c8.49,0.96,15.37,7.34,17.04,15.75C301.95,247.16,308.76,271.28,308.76,271.28z"/>
																	</g>
																</g>
															</g>
														</g>
													</g>
												</g>
											</g>
											<path class="st7" d="M244.03,152.19l-8.26-1.16l-10.29,0.9c-3.21,0.28-5.84,2.67-6.42,5.84
												c-1.14,6.22-1.76,15.05-2.08,22.66c-0.36,8.54,0.58,21.17,1.96,32.56l34.38-4.16c0.33-29.99,2.6-39.29,2.88-47.24
												c0.12-3.2-1.91-6.09-4.96-7.06L244.03,152.19z"/>
											<path class="st21" d="M218.92,211.1l-0.89,2.79c-0.12,0.21,0.13,0.44,0.49,0.46l34.32-2.06c0.29,0,0.52-0.12,0.55-0.31
												l0.36-2.81c0-0.2-0.21-0.36-0.52-0.38l-33.77,2.08C219.26,210.84,219.05,210.93,218.92,211.1z"/>
											<path class="st22" d="M218.92,211.1l-0.89,2.79c-0.12,0.21,0.13,0.44,0.49,0.46l34.32-2.06c0.29,0,0.52-0.12,0.55-0.31
												l0.36-2.81c0-0.2-0.21-0.36-0.52-0.38l-33.77,2.08C219.26,210.84,219.05,210.93,218.92,211.1z"/>
										</g>
									</g>
									<path class="st20" d="M222.4,154.95c6.86-1.2,6.52,14.36,3.4,25.76c-0.9,3.3-4.81,1.92-6.13,1.06
										C215.34,178.95,213.88,159.92,222.4,154.95z"/>
									<g>
										<path class="st19" d="M221.57,178c0.26,6.74-1.88,10.26,1.7,12.51c3.59,2.25,24.8,9.28,25.32,8.4
											c-1.03,1.63-2.02,3.01-3.05,4.64c-6.11-0.92-12.22-1.76-18.35-2.54c-4.47-0.57-11.68-1.72-15.18-4.55
											c-3.17-2.56-2.61-13.81-2.07-21.91C212.81,172.88,221.57,178,221.57,178z"/>
									</g>
									<path class="st7" d="M219.74,152.2c7.05-2.07,9.72,3.58,7.57,13.26c-1.08,5.23-2.63,10.35-4.63,15.29l-14.74-4.65
										C209.54,166.59,212.52,154.32,219.74,152.2z"/>
									<path class="st9" d="M229.95,152.15c-0.25,1.47,0.25,2.98,1.06,4.23c0.81,1.24,1.92,2.26,3.02,3.27
										c1.39,1.28,3.05,2.64,4.93,2.39c1.73-0.23,2.72-1.1,3.42-3.16c1.48,2.39,1.55,3.58,3.18,3.73c1.06,0.1,1.98-0.67,2.72-1.43
										c1.31-1.34,1.89-2.11,2.13-3.97c0.39-3.02-2.07-5.83-4.92-6.89c-3.07-1.14-5.79-1.41-8.98-1.78
										C233.85,148.23,230.49,149.06,229.95,152.15z"/>
									<path class="st23" d="M229.95,152.15c-0.25,1.47,0.25,2.98,1.06,4.23c0.81,1.24,1.92,2.26,3.02,3.27
										c1.39,1.28,3.05,2.64,4.93,2.39c1.73-0.23,2.72-1.1,3.42-3.16c1.48,2.39,1.55,3.58,3.18,3.73c1.06,0.1,1.98-0.67,2.72-1.43
										c1.31-1.34,1.89-2.11,2.13-3.97c0.39-3.02-2.07-5.83-4.92-6.89c-3.07-1.14-5.79-1.41-8.98-1.78
										C233.85,148.23,230.49,149.06,229.95,152.15z"/>
									<path class="st19" d="M237.16,137.64l3.73,4.31l5.07,5.86c-0.47,0.62-0.82,1.33-1.04,2.08c-0.54,1.65-0.38,3.29,1.41,4.49
										c0.78,0.36,1.17,4.41-3.92,3.98c-3.47-0.19-5.67-1.4-7.69-3.5c-0.94-1.25-1.18-1.93-0.22-3.29
										C237.25,147.71,237.47,142.1,237.16,137.64z"/>
									<path class="st24" d="M244.74,146.36l-3.2-4.24c-0.04,0.13-0.08,0.26-0.13,0.4c-0.15,0.6-0.26,1.21-0.32,1.82
										c-0.19,2.1,1.78,4.79,3.7,5.94l0.15-0.42c0.22-0.7,0.54-1.37,0.95-1.99c0.03-0.03,0.06-0.06,0.09-0.09L244.74,146.36z"/>
									<path class="st19" d="M237.51,129.71c-0.58,6.95-1.22,10.99,1.77,14.94c4.51,5.97,13.48,3.86,16.1-2.82
										c2.36-6.01,2.85-16.37-3.53-19.95c-4.68-2.59-10.57-0.89-13.15,3.79C238.01,126.91,237.6,128.29,237.51,129.71z"/>
									<path class="st21" d="M236.49,135.86l2.97,1.29l0,0c1.03-0.42,1.23-1.63,1.16-2.73c-0.26-4.24,7.34-9.46,7.34-9.46
										s-8.09-2.65-10.52-3.06c-0.85-0.14-3.91,2.08-4.39,3.05c-1.34,2.72-0.79,5.95,1.05,8.36
										C234.81,134.23,235.61,135.09,236.49,135.86z"/>
									<path class="st19" d="M233.93,134.61c0.14,1.55,0.85,3,1.99,4.06c1.49,1.35,3.3-0.13,3.51-2.1
										c0.18-1.76-0.71-4.34-2.5-4.93C235.14,131.05,233.76,132.67,233.93,134.61z"/>
									<path class="st21" d="M247.94,133.88c-0.11,0.57,0.1,1.1,0.48,1.18c0.38,0.08,0.72-0.31,0.86-0.88
										c0.14-0.57-0.1-1.1-0.48-1.19C248.42,132.91,248.04,133.3,247.94,133.88z"/>
									<path class="st21" d="M254.35,135.29c-0.11,0.58,0.1,1.11,0.48,1.19c0.37,0.08,0.75-0.31,0.86-0.88
										c0.11-0.56-0.11-1.1-0.48-1.18C254.84,134.34,254.46,134.72,254.35,135.29z"/>
									<path class="st25" d="M252.21,135.26c0.2,1.63,0.61,3.23,1.22,4.76c-1.04,0.55-2.38-0.23-2.38-0.23L252.21,135.26z"/>
									<path class="st21" d="M249.44,143.03c-1.29-0.45-2.33-1.41-2.89-2.65c-0.04-0.09,0.01-0.19,0.09-0.22
										c0.09-0.03,0.19,0.01,0.22,0.1c0.63,1.34,1.85,2.32,3.3,2.64c0.09,0.01,0.16,0.1,0.15,0.2c-0.01,0.09-0.1,0.16-0.2,0.15
										c-0.01,0-0.02,0-0.02-0.01C249.87,143.18,249.65,143.12,249.44,143.03z"/>
									<path class="st21" d="M247.06,131.58c-0.06-0.02-0.1-0.05-0.14-0.09c-0.12-0.15-0.1-0.36,0.04-0.48
										c0.81-0.73,1.94-1,2.99-0.72c0.18,0.05,0.28,0.24,0.23,0.42c0,0,0,0.01,0,0.01c-0.06,0.18-0.25,0.28-0.43,0.22
										c-0.83-0.2-1.7,0.02-2.34,0.59C247.31,131.61,247.17,131.63,247.06,131.58z"/>
									<path class="st21" d="M255.08,131.59c-0.02-0.05-0.03-0.11-0.02-0.17c0.05-0.18,0.24-0.29,0.42-0.24
										c1.06,0.25,1.92,1.02,2.3,2.05c0.06,0.18-0.04,0.37-0.22,0.42c-0.18,0.06-0.37-0.04-0.42-0.22
										c-0.31-0.8-0.99-1.39-1.82-1.59C255.19,131.81,255.11,131.71,255.08,131.59z"/>
								</g>
								<g>
									<g>
										<g>
											<g>
												<g>
													<path class="st9" d="M257.2,210.38l43.88,0.13c1.55,0,2.93-1.26,3.07-2.81l2.01-22.21c0.14-1.55-1.01-2.82-2.56-2.82
														l-43.88-0.13c-1.55,0-2.93,1.26-3.07,2.81l-2.01,22.21C254.49,209.11,255.65,210.38,257.2,210.38z"/>
													<path class="st26" d="M257.2,210.38l43.88,0.13c1.55,0,2.93-1.26,3.07-2.81l2.01-22.21c0.14-1.55-1.01-2.82-2.56-2.82
														l-43.88-0.13c-1.55,0-2.93,1.26-3.07,2.81l-2.01,22.21C254.49,209.11,255.65,210.38,257.2,210.38z"/>
												</g>
												<g>
													<path class="st9" d="M258.49,210.29l43.88,0.13c1.55,0,2.93-1.26,3.07-2.81l2.01-22.21c0.14-1.55-1.01-2.82-2.56-2.82
														L261,182.45c-1.55,0-2.93,1.26-3.07,2.81l-2.01,22.21C255.79,209.02,256.94,210.29,258.49,210.29z"/>
													<path class="st8" d="M258.49,210.29l43.88,0.13c1.55,0,2.93-1.26,3.07-2.81l2.01-22.21c0.14-1.55-1.01-2.82-2.56-2.82
														L261,182.45c-1.55,0-2.93,1.26-3.07,2.81l-2.01,22.21C255.79,209.02,256.94,210.29,258.49,210.29z"/>
												</g>
											</g>
										</g>
										<path class="st5" d="M284.77,196.75c-0.17,1.7-1.69,2.94-3.4,2.77c-1.7-0.17-2.94-1.69-2.77-3.4
											c0.17-1.7,1.69-2.94,3.4-2.77C283.7,193.52,284.94,195.05,284.77,196.75z"/>
									</g>
									<g>
										<path class="st9" d="M302.97,210.39c0,1.33-0.79,2.41-1.75,2.41c-0.01,0-0.01,0-0.02,0l-45.29-0.18
											c-0.49,0-0.89-0.55-0.89-1.2c0.01-0.67,0.4-1.22,0.89-1.22L302.97,210.39z"/>
										<path class="st26" d="M302.97,210.39c0,1.33-0.79,2.41-1.75,2.41c-0.01,0-0.01,0-0.02,0l-45.29-0.18
											c-0.49,0-0.89-0.55-0.89-1.2c0.01-0.67,0.4-1.22,0.89-1.22L302.97,210.39z"/>
									</g>
									<path class="st8" d="M255.68,212.63h-21.8c-1.16,0-2.1-0.94-2.1-2.1l0,0c0-0.18,0.15-0.33,0.33-0.33h23.57
										c0.67,0,1.21,0.54,1.21,1.21l0,0C256.89,212.09,256.35,212.63,255.68,212.63z"/>
								</g>
								<g>
									<path class="st19" d="M243.9,195.8l3.62-1.06l-0.33,8.91c0,0-7.86,1.85-8.35-1.77l1.01-1.95
										C240.71,198.25,241.91,196.29,243.9,195.8z"/>
									<polygon class="st19" points="252.94,197.21 251.87,202.21 247.19,203.64 247.52,194.74 									"/>
								</g>
							</g>
						</g>
					</g>
					<polygon class="st9" points="254.37,288.81 269.37,293.9 272.44,287.7 255.85,282.43 					"/>
					<polygon class="st9" points="297.46,277.96 311.29,270.24 308.75,263.81 293.72,272.59 					"/>
				</g>
			</g>
			<path class="st21" d="M257.69,129.64c2.05-0.11,2.89-2.54,2.65-3.59c-0.32-1.36-1.13-2.59-2.31-3.32
				c0.66-2.05-0.23-4.45-2.71-6.13c-1.61-1.1-4.26-1.19-6-0.44c0-1.81-3.33-3-5.46-0.75c-1.87-1.04-4.21-0.98-5.74,0.52
				c-0.5,0.49-0.86,1.26-0.63,1.93c-1.69,0.02-3.34,1.02-4.13,2.52c-0.79,1.49-0.7,3.42,0.24,4.83c0.68,1.02,2.26,1,3.46,0.74
				c0.57,1.22,1.81,1.85,3.09,2.27c3.96,1.31,9.38,0.08,10.34-0.03c0.96-0.11,1.98,0,2.78,0.56c-0.27,0.53-0.98,0.77-1.57,0.86
				c-0.59,0.1-1.19,0-1.78-0.09c1.46,0.82,2.9,1.29,4.53,0.93c0.49-0.11,1.59-0.87,2.08-0.91
				C257.03,129.49,257.74,129.71,257.69,129.64z"/>
		</g>
	</g>
</g>
</svg>
