<svg width="610" height="629" viewBox="0 0 610 629" fill="none" xmlns="http://www.w3.org/2000/svg">
<path d="M44.4817 602.032C44.4962 603.611 43.7742 604.376 42.9238 604.384C42.2556 604.39 41.7667 604.078 41.64 603.511C41.3999 603.829 41.0372 604.022 40.5512 604.026C39.6401 604.035 38.9649 603.283 38.9556 602.273C38.9463 601.262 39.6076 600.498 40.5187 600.49C40.944 600.486 41.2494 600.672 41.4947 600.923L41.4918 600.607L42.4637 600.598L42.4864 603.061C42.491 603.566 42.6767 603.944 43.1019 603.94C43.6487 603.935 44.1294 603.362 44.1172 602.036C44.0998 600.141 42.6893 598.701 40.8062 598.718C38.9231 598.736 37.4184 600.265 37.4376 602.35C37.4567 604.434 38.9893 605.936 41.0546 605.917C41.7228 605.911 42.3291 605.779 42.8139 605.648L42.8174 606.027C42.3331 606.221 41.787 606.289 41.0581 606.296C38.8105 606.316 37.0946 604.69 37.0737 602.416C37.054 600.269 38.6778 598.485 40.8039 598.466C43.1718 598.318 44.4654 600.264 44.4817 602.032ZM41.5069 602.249C41.5023 601.744 41.1343 601.368 40.7091 601.372C40.2231 601.377 39.9223 601.695 39.9275 602.264C39.9322 602.769 40.2996 603.081 40.7248 603.077C41.2113 603.136 41.5116 602.754 41.5069 602.249Z" fill="#EEF2F4"/>
<path d="M48.2241 599.408L48.2357 600.671C47.5062 600.615 46.6592 601.002 46.6703 602.202L46.6952 604.917L45.541 604.928L45.4912 599.497L46.6453 599.486L46.6534 600.37C46.9508 599.673 47.5559 599.414 48.2241 599.408Z" fill="#EEF2F4"/>
<path d="M51.4246 603.927C52.0321 603.921 52.5151 603.601 52.7546 603.22L53.671 603.78C53.192 604.542 52.4064 604.991 51.3737 605.001C49.6729 605.016 48.5077 603.827 48.4926 602.185C48.4781 600.606 49.5599 599.333 51.2 599.318C52.7794 599.303 53.8242 600.62 53.8382 602.136C53.8399 602.325 53.8411 602.452 53.7821 602.642L49.6514 602.68C49.9019 603.498 50.5742 603.934 51.4246 603.927ZM52.8014 601.703C52.6105 600.758 51.9996 600.384 51.2706 600.391C50.4202 600.399 49.8781 600.909 49.7034 601.732L52.8014 601.703Z" fill="#EEF2F4"/>
<path d="M60.07 599.363L60.1199 604.794L58.9657 604.805L58.9587 604.047C58.5387 604.619 57.9348 605.004 57.1451 605.011C55.748 605.024 54.5214 603.772 54.5069 602.193C54.4919 600.551 55.635 599.34 57.0929 599.327C57.8826 599.32 58.4929 599.63 58.9233 600.194L58.9164 599.436L60.0705 599.426L60.07 599.363ZM59.0015 602.088C58.9922 601.078 58.2569 600.39 57.3457 600.398C56.4345 600.407 55.712 601.108 55.7213 602.119C55.7305 603.129 56.4659 603.817 57.377 603.809C58.2888 603.864 59.0108 603.099 59.0015 602.088Z" fill="#EEF2F4"/>
<path d="M61.3837 596.887L62.5379 596.877L62.6104 604.771L61.4562 604.782L61.3837 596.887Z" fill="#EEF2F4"/>
<path d="M68.5743 599.285L66.6196 604.734L65.3439 604.746L63.2895 599.333L64.5044 599.322L66 603.414L67.4201 599.295L68.5743 599.285Z" fill="#EEF2F4"/>
<path d="M69.364 599.277L70.5181 599.267L70.5698 604.888C70.5837 606.403 69.8611 607.105 68.4628 606.991L68.4524 605.855C69.1212 605.912 69.4833 605.656 69.4763 604.898L69.4247 599.277L69.364 599.277ZM69.2285 597.763C69.2245 597.32 69.5253 597.002 69.9505 596.998C70.3757 596.994 70.6824 597.307 70.6864 597.749C70.6899 598.128 70.3897 598.51 69.9644 598.514C69.5392 598.518 69.232 598.142 69.2285 597.763Z" fill="#EEF2F4"/>
<path d="M76.5319 599.211L74.5784 604.788C74.1052 606.182 73.2611 606.884 72.0456 606.832L72.0358 605.758C72.7653 605.815 73.187 605.432 73.423 604.672L73.4826 604.545L71.2471 599.26L72.462 599.249L74.0773 603.15L75.3777 599.222L76.5319 599.211V599.211Z" fill="#EEF2F4"/>
<path d="M134.691 588.255C134.703 589.582 133.802 590.664 132.526 590.675L130.704 590.692L130.659 585.892L132.482 585.875C133.757 585.864 134.678 586.929 134.691 588.255ZM134.083 588.261C134.074 587.25 133.398 586.435 132.487 586.444L131.272 586.455L131.305 590.055L132.52 590.044C133.432 590.099 134.093 589.271 134.083 588.261Z" fill="#EEF2F4"/>
<path d="M139.319 589.539L137.254 589.558L136.9 590.635L136.231 590.641L137.888 585.826L138.556 585.82L140.301 590.604L139.633 590.61L139.319 589.539ZM139.132 588.973L138.26 586.58L137.431 588.988L139.132 588.973Z" fill="#EEF2F4"/>
<path d="M143.503 588.617L143.521 590.574L142.913 590.58L142.895 588.622L141.229 585.795L141.897 585.789L143.194 588.051L144.449 585.766L145.117 585.759L143.503 588.617Z" fill="#EEF2F4"/>
<path d="M152.733 588.153L151.235 590.503L150.567 590.51L151.645 588.794C151.584 588.795 151.523 588.795 151.402 588.797C150.491 588.805 149.817 588.18 149.807 587.169C149.799 586.222 150.461 585.521 151.372 585.512C152.283 585.504 152.957 586.129 152.966 587.14C153.031 587.582 152.912 587.898 152.733 588.153ZM151.397 588.228C152.004 588.223 152.365 587.84 152.359 587.209C152.354 586.577 151.925 586.202 151.378 586.207C150.831 586.212 150.41 586.595 150.416 587.227C150.421 587.858 150.85 588.233 151.397 588.228Z" fill="#EEF2F4"/>
<path d="M158.152 589.556L157.605 589.561L157.614 590.445L157.006 590.451L156.998 589.566L154.629 589.588L154.624 589.02L156.234 585.72L156.902 585.714L155.292 589.014L156.993 588.998L156.98 587.608L157.587 587.603L157.6 588.992L158.147 588.987L158.152 589.556Z" fill="#EEF2F4"/>
<path d="M41.7506 589.109C41.7627 590.435 40.8614 591.517 39.5858 591.529L37.7634 591.546L37.7193 586.746L39.5417 586.729C40.8173 586.717 41.7384 587.783 41.7506 589.109ZM41.1431 589.115C41.1338 588.104 40.4581 587.289 39.5469 587.298L38.332 587.309L38.3651 590.909L39.58 590.897C40.4917 590.952 41.1524 590.125 41.1431 589.115Z" fill="#EEF2F4"/>
<path d="M46.6879 590.895L46.6937 591.527L43.8994 591.553L43.8553 586.753L46.5889 586.728L46.5947 587.359L44.4686 587.379L44.4819 588.831L46.4258 588.813L46.431 589.382L44.4872 589.4L44.5011 590.916L46.6879 590.895V590.895Z" fill="#EEF2F4"/>
<path d="M48.5056 590.373L49.0494 590.053C49.2363 590.556 49.6042 590.932 50.2724 590.926C50.9406 590.92 51.2415 590.601 51.2374 590.159C51.2328 589.654 50.8064 589.531 50.1359 589.285C49.4046 589.039 48.6733 588.793 48.6652 587.909C48.6571 587.024 49.3206 586.513 50.1103 586.506C50.9 586.499 51.4508 586.936 51.6996 587.565L51.2165 587.885C51.0302 587.445 50.7236 587.132 50.1769 587.137C49.6909 587.141 49.3288 587.397 49.3328 587.839C49.3369 588.281 49.6424 588.468 50.3123 588.651C51.1043 588.897 51.8963 589.142 51.905 590.09C51.9125 590.911 51.2496 591.485 50.3384 591.494C49.4278 591.565 48.755 591.066 48.5056 590.373Z" fill="#EEF2F4"/>
<path d="M54.5459 586.591L54.59 591.391L53.9825 591.397L53.9384 586.597L54.5459 586.591Z" fill="#EEF2F4"/>
<path d="M61.435 589.244C61.446 590.444 60.6049 591.462 59.2078 591.475C57.7499 591.489 56.7675 590.361 56.7547 588.971C56.742 587.582 57.7642 586.435 59.1613 586.423C60.0118 586.415 60.8061 586.913 61.1764 587.541L60.6326 587.862C60.3849 587.359 59.774 586.985 59.1666 586.991C58.0731 587.001 57.3518 587.829 57.3616 588.902C57.3715 589.976 58.108 590.791 59.2014 590.78C60.1733 590.772 60.7148 590.198 60.8299 589.502L59.129 589.518L59.1238 588.949L61.4321 588.928L61.435 589.244V589.244Z" fill="#EEF2F4"/>
<path d="M67.0594 586.476L67.1035 591.276L66.6175 591.281L64.2154 587.703L64.2484 591.303L63.641 591.308L63.5969 586.508L64.0829 586.504L66.485 590.082L66.4519 586.482L67.0594 586.476Z" fill="#EEF2F4"/>
<path d="M72.2616 590.66L72.2674 591.292L69.4731 591.318L69.429 586.518L72.1625 586.493L72.1683 587.124L70.0423 587.144L70.0556 588.596L71.9995 588.579L72.0047 589.147L70.0608 589.165L70.0748 590.681L72.2616 590.66V590.66Z" fill="#EEF2F4"/>
<path d="M78.38 588.773C78.3922 590.099 77.4909 591.181 76.2152 591.193L74.3929 591.209L74.3488 586.409L76.1711 586.393C77.386 586.382 78.3678 587.446 78.38 588.773ZM77.7726 588.778C77.7633 587.768 77.0875 586.953 76.1764 586.961L74.9615 586.972L74.9945 590.572L76.2094 590.561C77.1212 590.616 77.7818 589.789 77.7726 588.778Z" fill="#EEF2F4"/>
<path d="M86.8942 589.768C86.9011 590.526 86.2995 591.163 85.5705 591.17L83.5659 591.188L83.5219 586.388L85.3442 586.372C86.0731 586.365 86.6251 586.928 86.632 587.686C86.6361 588.128 86.4568 588.446 86.1554 588.701C86.5817 588.824 86.8889 589.2 86.8942 589.768ZM84.1339 586.888L84.1473 588.341L85.3622 588.329C85.7267 588.326 86.0275 588.008 86.0234 587.565C86.0199 587.187 85.7127 586.81 85.3483 586.814L84.1334 586.825L84.1339 586.888ZM86.2861 589.711C86.2821 589.268 85.9754 588.955 85.5502 588.959L84.1531 588.972L84.1676 590.551L85.5647 590.538C85.9899 590.534 86.2902 590.153 86.2861 589.711Z" fill="#EEF2F4"/>
<path d="M90.6546 589.102L90.6725 591.06L90.0651 591.065L90.0471 589.108L88.3809 586.281L89.0491 586.274L90.3456 588.536L91.6004 586.251L92.2686 586.245L90.6546 589.102Z" fill="#EEF2F4"/>
<path d="M130.806 601.871L130.758 596.629L131.973 596.618L132.021 601.797C132.029 602.744 132.521 603.371 133.675 603.361C134.829 603.35 135.309 602.714 135.301 601.767L135.253 596.588L136.468 596.576L136.516 601.819C136.532 603.524 135.326 604.545 133.686 604.561C132.046 604.576 130.822 603.576 130.806 601.871Z" fill="#EEF2F4"/>
<path d="M139.141 596.552L139.213 604.383L137.998 604.395L137.926 596.563L139.141 596.552Z" fill="#EEF2F4"/>
<path d="M143.32 601.756L143.272 596.514L144.486 596.503L144.534 601.682C144.543 602.629 145.034 603.256 146.189 603.246C147.343 603.235 147.823 602.599 147.814 601.652L147.767 596.473L148.982 596.462L149.03 601.704C149.045 603.409 147.84 604.43 146.2 604.446C144.499 604.461 143.335 603.461 143.32 601.756Z" fill="#EEF2F4"/>
<path d="M154.46 604.243L152.794 601.416L151.18 604.273L149.782 604.286L152.114 600.223L149.832 596.454L151.229 596.441L152.772 599.016L154.266 596.413L155.664 596.4L153.451 600.21L155.857 604.231L154.46 604.243Z" fill="#EEF2F4"/>
<path d="M519.936 584.717C519.948 586.043 519.047 587.125 517.771 587.137L515.949 587.153L515.905 582.353L517.727 582.337C519.003 582.325 519.924 583.39 519.936 584.717ZM519.389 584.722C519.38 583.711 518.704 582.896 517.793 582.904L516.578 582.916L516.611 586.516L517.826 586.504C518.738 586.559 519.398 585.732 519.389 584.722Z" fill="#EEF2F4"/>
<path d="M521.88 584.699C521.867 583.309 522.889 582.163 524.226 582.151C525.562 582.138 526.666 583.265 526.679 584.655C526.691 586.044 525.669 587.19 524.272 587.203C522.936 587.215 521.892 586.088 521.88 584.699ZM526.01 584.661C526 583.587 525.203 582.773 524.231 582.782C523.199 582.792 522.477 583.619 522.487 584.693C522.497 585.767 523.294 586.581 524.266 586.572C525.299 586.562 526.02 585.734 526.01 584.661Z" fill="#EEF2F4"/>
<path d="M528.236 582.24L528.904 582.234L529.973 586.203L531.091 582.214L531.698 582.208L532.889 586.177L533.885 582.188L534.553 582.182L533.261 586.994L532.532 587.001L531.403 583.158L530.345 587.021L529.616 587.028L528.236 582.24Z" fill="#EEF2F4"/>
<path d="M540.081 582.131L540.125 586.931L539.639 586.936L537.237 583.358L537.27 586.957L536.663 586.963L536.619 582.163L537.105 582.159L539.507 585.737L539.474 582.137L540.081 582.131Z" fill="#EEF2F4"/>
<path d="M545.101 586.317L545.107 586.949L542.495 586.973L542.451 582.173L543.058 582.167L543.097 586.399L545.102 586.38L545.101 586.317Z" fill="#EEF2F4"/>
<path d="M546.542 584.472C546.529 583.083 547.552 581.936 548.888 581.924C550.224 581.912 551.328 583.039 551.341 584.428C551.354 585.818 550.332 586.964 548.934 586.977C547.598 586.989 546.555 585.862 546.542 584.472ZM550.734 584.434C550.724 583.36 549.927 582.546 548.955 582.555C547.922 582.565 547.201 583.392 547.21 584.466C547.22 585.54 548.017 586.353 548.989 586.345C549.961 586.336 550.743 585.507 550.734 584.434Z" fill="#EEF2F4"/>
<path d="M555.97 585.712L553.904 585.731L553.55 586.808L552.882 586.814L554.538 581.999L555.207 581.992L556.952 586.777L556.344 586.782L555.97 585.712ZM555.782 585.145L554.91 582.753L554.081 585.161L555.782 585.145Z" fill="#EEF2F4"/>
<path d="M562.943 584.321C562.956 585.648 562.054 586.73 560.779 586.742L558.956 586.758L558.912 581.958L560.734 581.942C562.01 581.93 562.931 582.995 562.943 584.321ZM562.336 584.327C562.327 583.317 561.651 582.502 560.74 582.51L559.525 582.521L559.558 586.121L560.773 586.11C561.745 586.164 562.345 585.338 562.336 584.327Z" fill="#EEF2F4"/>
<path d="M568.758 582.436L568.773 584.015L570.716 583.997L570.722 584.629L568.778 584.647L568.797 586.668L568.189 586.673L568.145 581.874L570.818 581.849L570.824 582.481L568.759 582.5L568.758 582.436Z" fill="#EEF2F4"/>
<path d="M574.672 584.782L573.579 584.792L573.596 586.624L572.988 586.629L572.944 581.829L574.767 581.813C575.556 581.805 576.231 582.494 576.238 583.315C576.244 583.947 575.824 584.519 575.279 584.713L576.391 586.661L575.722 586.667L574.672 584.782ZM573.574 584.224L574.789 584.213C575.275 584.208 575.636 583.826 575.631 583.321C575.626 582.815 575.258 582.44 574.772 582.444L573.558 582.455L573.574 584.224Z" fill="#EEF2F4"/>
<path d="M578.13 584.182C578.117 582.793 579.139 581.646 580.475 581.634C581.812 581.622 582.916 582.748 582.928 584.138C582.941 585.527 581.919 586.674 580.522 586.687C579.186 586.699 578.142 585.571 578.13 584.182ZM582.321 584.143C582.311 583.07 581.514 582.256 580.542 582.265C579.509 582.274 578.788 583.102 578.798 584.176C578.808 585.25 579.605 586.063 580.577 586.054C581.549 586.045 582.331 585.217 582.321 584.143Z" fill="#EEF2F4"/>
<path d="M589.389 586.479L588.782 586.484L588.747 582.695L587.253 585.361L587.192 585.362L585.65 582.786L585.684 586.513L585.077 586.518L585.032 581.718L585.701 581.712L587.182 584.225L588.616 581.685L589.285 581.679L589.329 586.479L589.389 586.479Z" fill="#EEF2F4"/>
<path d="M515.888 593.723C515.884 593.281 516.184 592.962 516.61 592.958C517.035 592.954 517.341 593.267 517.345 593.709C517.35 594.152 517.049 594.47 516.623 594.474C516.259 594.477 515.892 594.165 515.888 593.723ZM516.084 595.3L517.238 595.289L517.29 600.91L516.136 600.921L516.084 595.3Z" fill="#EEF2F4"/>
<path d="M518.552 592.751L519.706 592.74L519.781 600.888L518.626 600.898L518.552 592.751Z" fill="#EEF2F4"/>
<path d="M521.042 592.728L522.196 592.717L522.271 600.865L521.117 600.875L521.042 592.728Z" fill="#EEF2F4"/>
<path d="M523.594 592.705L524.748 592.694L524.823 600.841L523.668 600.852L523.594 592.705Z" fill="#EEF2F4"/>
<path d="M530.906 595.164L530.958 600.785L529.804 600.796L529.797 600.101C529.438 600.673 528.894 600.993 528.165 601C526.95 601.011 526.092 600.198 526.079 598.745L526.048 595.335L527.202 595.324L527.232 598.608C527.24 599.43 527.73 599.93 528.459 599.924C529.249 599.916 529.791 599.469 529.781 598.332L529.754 595.364L530.908 595.353L530.906 595.164Z" fill="#EEF2F4"/>
<path d="M536.167 599.158C536.178 600.295 535.272 600.872 534.057 600.883C532.963 600.893 532.23 600.394 531.858 599.577L532.824 598.936C533.011 599.44 533.439 599.752 534.046 599.746C534.532 599.741 534.956 599.548 534.952 599.106C534.943 598.095 532.032 598.691 532.013 596.67C532.004 595.596 532.848 594.957 533.942 594.947C534.853 594.938 535.586 595.374 535.957 596.065L534.99 596.642C534.804 596.202 534.437 596.016 533.951 596.02C533.526 596.024 533.164 596.217 533.167 596.596C533.299 597.732 536.148 597.074 536.167 599.158Z" fill="#EEF2F4"/>
<path d="M538.632 596.293L538.656 598.946C538.663 599.64 539.088 599.637 539.998 599.565L540.008 600.639C538.249 600.907 537.515 600.346 537.501 598.893L537.477 596.241L536.505 596.249L536.495 595.113L537.467 595.104L537.456 593.904L538.606 593.514L538.621 595.093L539.957 595.081L539.968 596.218L538.631 596.23L538.632 596.293Z" fill="#EEF2F4"/>
<path d="M543.905 594.981L543.917 596.308C543.127 596.252 542.28 596.639 542.292 597.902L542.318 600.744L541.163 600.754L541.112 595.133L542.266 595.123L542.275 596.07C542.571 595.246 543.176 594.988 543.905 594.981Z" fill="#EEF2F4"/>
<path d="M549.919 594.989L549.971 600.61L548.817 600.621L548.809 599.8C548.389 600.372 547.785 600.757 546.935 600.764C545.477 600.778 544.25 599.526 544.235 597.821C544.22 596.179 545.422 594.841 546.88 594.828C547.731 594.82 548.342 595.193 548.772 595.758L548.765 594.937L549.919 594.926L549.919 594.989ZM548.791 597.842C548.782 596.831 548.046 596.08 547.074 596.089C546.102 596.098 545.38 596.863 545.39 597.873C545.399 598.884 546.135 599.635 547.107 599.626C548.079 599.617 548.801 598.852 548.791 597.842Z" fill="#EEF2F4"/>
<path d="M552.968 596.161L552.992 598.814C552.998 599.509 553.424 599.505 554.334 599.433L554.344 600.507C552.585 600.776 551.851 600.214 551.837 598.761L551.813 596.109L550.841 596.118L550.83 594.981L551.802 594.972L551.791 593.772L552.942 593.382L552.957 594.961L554.293 594.949L554.303 596.086L552.967 596.098L552.968 596.161Z" fill="#EEF2F4"/>
<path d="M555.129 593.362C555.125 592.92 555.426 592.602 555.851 592.598C556.276 592.594 556.583 592.907 556.587 593.349C556.591 593.791 556.29 594.11 555.865 594.114C555.5 594.117 555.133 593.804 555.129 593.362ZM555.326 594.94L556.48 594.929L556.531 600.55L555.377 600.561L555.326 594.94Z" fill="#EEF2F4"/>
<path d="M557.539 597.762C557.523 596.12 558.787 594.782 560.366 594.767C561.946 594.753 563.233 596.004 563.249 597.709C563.264 599.351 562 600.689 560.421 600.704C558.841 600.655 557.554 599.404 557.539 597.762ZM562.094 597.72C562.085 596.709 561.349 595.958 560.377 595.967C559.405 595.976 558.683 596.741 558.693 597.751C558.702 598.762 559.438 599.513 560.41 599.504C561.382 599.495 562.104 598.73 562.094 597.72Z" fill="#EEF2F4"/>
<path d="M569.196 597.023L569.227 600.433L568.073 600.444L568.043 597.16C568.035 596.339 567.545 595.838 566.816 595.845C566.026 595.852 565.483 596.299 565.494 597.436L565.521 600.404L564.367 600.415L564.315 594.794L565.469 594.783L565.476 595.478C565.835 594.906 566.379 594.585 567.108 594.579C568.263 594.694 569.182 595.57 569.196 597.023Z" fill="#EEF2F4"/>
<path d="M574.376 598.807C574.386 599.944 573.48 600.521 572.266 600.532C571.172 600.542 570.439 600.043 570.067 599.226L571.033 598.585C571.22 599.089 571.648 599.401 572.255 599.395C572.741 599.391 573.165 599.197 573.16 598.755C573.151 597.745 570.241 598.34 570.222 596.319C570.212 595.245 571.057 594.606 572.15 594.596C573.061 594.587 573.794 595.023 574.165 595.714L573.199 596.291C573.012 595.851 572.646 595.665 572.16 595.669C571.735 595.673 571.372 595.866 571.376 596.245C571.447 597.381 574.357 596.723 574.376 598.807Z" fill="#EEF2F4"/>
<path d="M575.174 599.684C575.17 599.242 575.531 598.86 575.956 598.856C576.381 598.852 576.749 599.227 576.753 599.669C576.757 600.111 576.396 600.494 575.971 600.497C575.546 600.501 575.178 600.126 575.174 599.684Z" fill="#EEF2F4"/>
<path d="M577.281 597.58C577.266 595.938 578.468 594.601 580.108 594.586C581.141 594.576 582.058 595.136 582.491 596.017L581.525 596.657C581.277 596.154 580.727 595.78 580.119 595.786C579.148 595.795 578.486 596.559 578.496 597.569C578.505 598.58 579.241 599.331 580.152 599.322C580.82 599.316 581.303 598.996 581.602 598.425L582.579 598.984C582.162 599.872 581.256 600.449 580.162 600.459C578.522 600.474 577.296 599.222 577.281 597.58Z" fill="#EEF2F4"/>
<path d="M582.991 597.528C582.976 595.886 584.239 594.548 585.818 594.533C587.398 594.519 588.685 595.77 588.701 597.475C588.716 599.117 587.452 600.455 585.873 600.47C584.293 600.421 583.006 599.17 582.991 597.528ZM587.547 597.486C587.537 596.475 586.801 595.724 585.829 595.733C584.858 595.742 584.136 596.507 584.145 597.517C584.154 598.528 584.89 599.279 585.862 599.27C586.834 599.261 587.556 598.496 587.547 597.486Z" fill="#EEF2F4"/>
<path d="M257.693 513.73L262.128 513.69L262.259 527.963C262.288 531.121 263.943 532.748 266.798 532.722C269.653 532.696 271.278 531.039 271.249 527.881L271.118 513.607L275.613 513.566L275.744 527.776C275.799 533.839 271.635 536.846 266.776 536.891C261.916 536.936 257.88 534.004 257.824 527.941L257.693 513.73V513.73Z" fill="white"/>
<path d="M283.085 513.497L287.519 513.456L287.731 536.509L283.297 536.55L283.085 513.497Z" fill="white"/>
<path d="M302.569 505.107L306.943 505.067L298.72 542.345L294.346 542.385L302.569 505.107Z" fill="white"/>
<path d="M313.579 513.217L318.013 513.176L318.144 527.45C318.173 530.608 319.829 532.235 322.684 532.209C325.539 532.182 327.164 530.525 327.135 527.367L327.004 513.094L331.499 513.052L331.629 527.263C331.685 533.326 327.521 536.333 322.661 536.378C317.802 536.422 313.765 533.491 313.709 527.428L313.579 513.217V513.217Z" fill="white"/>
<path d="M347.554 528.19L343.252 535.999L338.21 536.045L345.089 524.36L337.938 512.993L343.04 512.946L347.91 520.608L352.152 512.863L357.194 512.816L350.375 524.438L357.527 535.805L352.424 535.852L347.554 528.19Z" fill="white"/>
<path d="M557.05 412.321L62.5245 416.863C59.4873 416.891 57.0343 414.387 57.0053 411.229C56.9763 408.071 59.3829 405.523 62.4201 405.495L557.006 400.952C560.044 400.924 562.497 403.428 562.526 406.586C562.494 409.744 560.087 412.293 557.05 412.321Z" fill="#444E59"/>
<path d="M337.289 402.654L251.76 403.44L251.808 408.745L337.337 407.959L337.289 402.654Z" fill="#444E59"/>
<path d="M396.379 367.435L194.584 369.289C190.575 369.326 187.263 365.945 187.225 361.777L185.934 221.252C185.896 217.083 189.144 213.643 193.154 213.606L394.949 211.752C398.958 211.715 402.269 215.096 402.308 219.264L403.598 359.726C403.637 363.958 400.449 367.398 396.379 367.435Z" fill="#BBBFC2"/>
<path d="M390.598 340.821L389.544 226.064L199.655 227.808L200.709 342.565L390.598 340.821Z" fill="#28A8E0"/>
<path opacity="0.4" d="M396.865 367.431L365.217 367.721L364.667 307.848C364.623 303.048 368.293 299.162 372.909 299.119L396.235 298.905L396.865 367.431Z" fill="#848484"/>
<path opacity="0.4" d="M202.131 311.362L186.763 311.504L187.196 358.682C187.25 364.556 192.154 369.311 197.864 369.259L215.541 369.096L215.135 324.886C215.006 317.497 209.178 311.298 202.131 311.362Z" fill="#848484"/>
<path d="M396.986 367.43L194.827 369.286C190.817 369.323 187.506 365.943 187.468 361.775L186.177 221.25C186.139 217.081 189.387 213.641 193.397 213.604L395.556 211.747C399.565 211.71 402.877 215.09 402.915 219.259L404.205 359.72C404.244 363.952 400.995 367.393 396.986 367.43Z" stroke="#444E59" stroke-width="4" stroke-miterlimit="10" stroke-linecap="round" stroke-linejoin="round"/>
<path d="M390.354 340.821L389.3 226.064L199.957 227.803L201.011 342.56L390.354 340.821Z" stroke="#444E59" stroke-width="4" stroke-miterlimit="10" stroke-linecap="round" stroke-linejoin="round"/>
<path opacity="0.32" d="M353.501 335.616L249.141 336.575C246.772 336.596 244.87 334.593 244.848 332.193L244.137 254.762C244.114 252.299 246.04 250.323 248.348 250.302L352.708 249.343C355.077 249.321 356.979 251.325 357.001 253.725L357.712 331.093C357.734 333.556 355.87 335.594 353.501 335.616Z" fill="#848484"/>
<path d="M348.602 331.366L244.242 332.325C241.873 332.346 239.971 330.343 239.949 327.943L239.238 250.575C239.215 248.112 241.141 246.136 243.45 246.115L347.81 245.156C350.179 245.134 352.08 247.138 352.102 249.538L352.813 326.906C352.897 329.368 350.971 331.344 348.602 331.366Z" fill="#AFB1B2"/>
<path d="M348.602 331.366L244.242 332.325C241.873 332.346 239.971 330.343 239.949 327.943L239.238 250.575C239.215 248.112 241.141 246.136 243.45 246.115L347.81 245.156C350.179 245.134 352.08 247.138 352.102 249.538L352.813 326.906C352.897 329.368 350.971 331.344 348.602 331.366Z" stroke="#444E59" stroke-width="4" stroke-miterlimit="10" stroke-linecap="round" stroke-linejoin="round"/>
<path d="M321.677 402.798L270.773 403.265L276.772 368.534L315.041 368.182L321.677 402.798Z" fill="#AEAEAF"/>
<path opacity="0.32" d="M316.832 377.956L315.041 368.182L276.772 368.534L275.161 378.339L316.832 377.956Z" fill="#848484"/>
<path d="M321.677 402.798L270.773 403.265L276.772 368.534L315.041 368.182L321.677 402.798Z" stroke="#444E59" stroke-width="4" stroke-miterlimit="10" stroke-linecap="round" stroke-linejoin="round"/>
<path d="M337.289 402.654L251.76 403.44L251.808 408.745L337.337 407.959L337.289 402.654Z" stroke="#444E59" stroke-width="4" stroke-miterlimit="10" stroke-linecap="round" stroke-linejoin="round"/>
<path d="M295.492 356.361C297.573 356.342 299.243 354.573 299.223 352.411C299.203 350.248 297.501 348.51 295.421 348.529C293.341 348.548 291.67 350.317 291.69 352.48C291.71 354.642 293.412 356.38 295.492 356.361Z" fill="#444E59"/>
<path d="M339.963 323.487L235.603 324.445C233.234 324.467 231.333 322.463 231.311 320.063L230.599 242.633C230.577 240.169 232.503 238.194 234.811 238.172L339.171 237.214C341.54 237.192 343.442 239.196 343.464 241.596L344.174 318.964C344.258 321.426 342.332 323.465 339.963 323.487Z" fill="white"/>
<path d="M339.963 323.487L235.603 324.445C233.234 324.467 231.333 322.463 231.311 320.063L230.599 242.633C230.577 240.169 232.503 238.194 234.811 238.172L339.171 237.214C341.54 237.192 343.442 239.196 343.464 241.596L344.174 318.964C344.258 321.426 342.332 323.465 339.963 323.487Z" stroke="#444E59" stroke-width="4" stroke-miterlimit="10" stroke-linecap="round" stroke-linejoin="round"/>
<path d="M343.606 250.5L230.681 251.538L230.601 242.822C230.578 240.296 232.563 238.13 235.053 238.107L339.292 237.15C341.6 237.128 343.501 239.069 343.523 241.469L343.606 250.5Z" fill="#BBBFC2"/>
<path d="M343.606 250.5L230.681 251.538L230.601 242.822C230.578 240.296 232.563 238.13 235.053 238.107L339.292 237.15C341.6 237.128 343.501 239.069 343.523 241.469L343.606 250.5Z" stroke="#444E59" stroke-width="4" stroke-miterlimit="10" stroke-linecap="round" stroke-linejoin="round"/>
<path d="M241.512 246.89C242.619 246.879 243.508 245.938 243.497 244.787C243.487 243.637 242.581 242.712 241.474 242.722C240.367 242.732 239.478 243.674 239.489 244.824C239.5 245.975 240.405 246.9 241.512 246.89Z" fill="#444E59"/>
<path d="M248.134 246.829C249.24 246.819 250.129 245.877 250.119 244.727C250.108 243.576 249.202 242.651 248.095 242.661C246.988 242.672 246.1 243.613 246.11 244.763C246.121 245.914 247.027 246.839 248.134 246.829Z" fill="#444E59"/>
<path d="M254.694 246.769C255.801 246.758 256.69 245.817 256.679 244.666C256.668 243.516 255.763 242.591 254.656 242.601C253.549 242.611 252.66 243.552 252.671 244.703C252.681 245.854 253.587 246.779 254.694 246.769Z" fill="#444E59"/>
<path d="M333.188 273.714L240.674 274.564C240.005 274.57 239.453 274.006 239.447 273.312L239.323 259.859C239.317 259.164 239.859 258.591 240.527 258.585L333.041 257.735C333.71 257.729 334.262 258.292 334.268 258.987L334.392 272.439C334.398 273.134 333.856 273.708 333.188 273.714Z" fill="#6567C3"/>
<path opacity="0.2" d="M267.435 291.182L240.768 291.427C240.099 291.433 239.548 290.87 239.541 290.175L239.474 282.912C239.468 282.217 240.01 281.644 240.678 281.638L267.345 281.393C268.013 281.387 268.565 281.95 268.571 282.645L268.638 289.908C268.644 290.603 268.164 291.175 267.435 291.182Z" fill="#444E59"/>
<path opacity="0.2" d="M243.931 298.535L265.313 298.339" stroke="#444E59" stroke-width="4" stroke-miterlimit="10" stroke-linecap="round" stroke-linejoin="round"/>
<path opacity="0.2" d="M243.997 305.672L265.379 305.476" stroke="#444E59" stroke-width="4" stroke-miterlimit="10" stroke-linecap="round" stroke-linejoin="round"/>
<path opacity="0.2" d="M300.845 290.875L274.177 291.12C273.509 291.126 272.957 290.563 272.951 289.868L272.884 282.605C272.878 281.91 273.419 281.337 274.088 281.331L300.755 281.086C301.423 281.08 301.975 281.643 301.981 282.338L302.048 289.601C302.054 290.296 301.513 290.869 300.845 290.875Z" fill="#444E59"/>
<path opacity="0.2" d="M277.28 298.229L297.812 298.04" stroke="#444E59" stroke-width="4" stroke-miterlimit="10" stroke-linecap="round" stroke-linejoin="round"/>
<path opacity="0.2" d="M277.346 305.366L297.878 305.177" stroke="#444E59" stroke-width="4" stroke-miterlimit="10" stroke-linecap="round" stroke-linejoin="round"/>
<g opacity="0.2">
<path d="M334.333 305.727L307.666 305.972C306.998 305.978 306.446 305.414 306.439 304.72L306.234 282.362C306.227 281.667 306.769 281.094 307.437 281.088L334.104 280.843C334.772 280.837 335.324 281.4 335.331 282.095L335.536 304.452C335.542 305.147 335.001 305.72 334.333 305.727Z" fill="#444E59"/>
</g>
<g opacity="0.09">
<path d="M333.548 312.871L308.156 313.104C307.185 313.113 306.448 312.299 306.439 311.352C306.431 310.404 307.213 309.576 308.124 309.568L333.515 309.334C334.487 309.325 335.224 310.14 335.233 311.087C335.241 312.035 334.459 312.863 333.548 312.871Z" fill="#444E59"/>
</g>
<path d="M143.312 382.708L94.3518 383.158C93.7444 383.163 93.1994 383.358 92.7782 383.804L81.0316 394.649C79.9474 395.67 79.9637 397.438 81.0658 398.376L93.0115 409.193C93.4402 409.568 93.9903 409.942 94.5978 409.936L143.558 409.487C146.353 409.461 148.637 406.787 148.61 403.882L148.462 387.777C148.376 384.999 146.107 382.682 143.312 382.708ZM93.1657 399.528C91.5256 399.543 90.1157 398.166 90.0994 396.398C90.0832 394.629 91.4068 393.228 93.1077 393.212C94.8085 393.196 96.1577 394.574 96.1739 396.342C96.1902 398.11 94.8665 399.512 93.1657 399.528Z" fill="white"/>
<path d="M119.865 382.923L105.59 383.055L105.836 409.896L120.111 409.765L119.865 382.923Z" fill="#F09F54"/>
<path d="M134.14 382.792L119.865 382.923L120.111 409.765L134.386 409.634L134.14 382.792Z" fill="#ED8B3B"/>
<path d="M142.283 409.562L134.386 409.634L134.14 382.792L142.28 382.718C145.621 382.687 148.441 385.503 148.474 389.04L148.601 402.935C148.573 406.535 145.746 409.53 142.283 409.562Z" fill="#FF6C37"/>
<path opacity="0.4" d="M144.661 384.022C144.417 383.961 144.174 383.963 143.931 383.966L94.9709 384.415C94.3634 384.421 93.8184 384.615 93.3973 385.061L81.6506 395.907C80.5665 396.928 80.5827 398.696 81.6848 399.633L89.1578 406.323L97.1953 408.334C97.5609 408.457 97.9862 408.453 98.4114 408.449C99.2011 408.441 99.9283 408.245 100.654 407.86L144.056 384.343C144.238 384.279 144.48 384.15 144.661 384.022ZM93.7847 400.785C92.1446 400.8 90.7347 399.424 90.7185 397.655C90.7022 395.887 92.0258 394.485 93.7267 394.47C95.4276 394.454 96.7767 395.831 96.793 397.6C96.8092 399.368 95.4856 400.77 93.7847 400.785Z" fill="#848484"/>
<path d="M143.312 382.708L94.3518 383.158C93.7444 383.163 93.1994 383.358 92.7782 383.804L81.0316 394.649C79.9474 395.67 79.9637 397.438 81.0658 398.376L93.0115 409.193C93.4402 409.568 93.9903 409.942 94.5978 409.936L143.558 409.487C146.353 409.461 148.637 406.787 148.61 403.882L148.462 387.777C148.376 384.999 146.107 382.682 143.312 382.708ZM93.1657 399.528C91.5256 399.543 90.1157 398.166 90.0994 396.398C90.0832 394.629 91.4068 393.228 93.1077 393.212C94.8085 393.196 96.1577 394.574 96.1739 396.342C96.1902 398.11 94.8665 399.512 93.1657 399.528Z" stroke="#444E59" stroke-width="4" stroke-miterlimit="10" stroke-linecap="round" stroke-linejoin="round"/>
<path d="M119.865 382.923L105.59 383.055L105.836 409.896L120.111 409.765L119.865 382.923Z" stroke="#444E59" stroke-width="4" stroke-miterlimit="10" stroke-linecap="round" stroke-linejoin="round"/>
<path d="M134.14 382.792L119.865 382.923L120.111 409.765L134.386 409.634L134.14 382.792Z" stroke="#444E59" stroke-width="4" stroke-miterlimit="10" stroke-linecap="round" stroke-linejoin="round"/>
<path d="M142.283 409.562L134.386 409.634L134.14 382.792L142.28 382.718C145.621 382.687 148.441 385.503 148.474 389.04L148.601 402.935C148.573 406.535 145.746 409.53 142.283 409.562Z" stroke="#444E59" stroke-width="4" stroke-miterlimit="10" stroke-linecap="round" stroke-linejoin="round"/>
<path d="M130.443 357.309L87.0404 380.825C86.496 381.082 86.1362 381.591 85.8984 382.162L80.2061 397.373C79.6722 398.768 80.4764 400.339 81.877 400.705L97.1611 404.607C97.709 404.729 98.3158 404.66 98.8602 404.402L142.263 380.886C144.741 379.537 145.684 376.37 144.385 373.855L137.207 359.583C135.907 356.943 132.861 355.96 130.443 357.309Z" fill="white"/>
<path d="M122.268 361.71L109.613 368.573L121.426 392.096L134.08 385.233L122.268 361.71Z" fill="#8D91DB"/>
<path d="M130.443 357.309L87.0404 380.825C86.496 381.082 86.1362 381.591 85.8984 382.162L80.2061 397.373C79.6722 398.768 80.4764 400.339 81.877 400.705L97.1611 404.607C97.709 404.729 98.3158 404.66 98.8602 404.402L142.263 380.886C144.741 379.537 145.684 376.37 144.385 373.855L137.207 359.583C135.907 356.943 132.861 355.96 130.443 357.309Z" stroke="#444E59" stroke-width="4" stroke-miterlimit="10" stroke-linecap="round" stroke-linejoin="round"/>
<path d="M91.8049 396.887C93.7507 396.87 95.3131 395.215 95.2945 393.192C95.2759 391.169 93.6834 389.543 91.7376 389.561C89.7918 389.579 88.2295 391.234 88.2481 393.257C88.2666 395.28 89.8591 396.905 91.8049 396.887Z" fill="#444E59"/>
<path d="M109.586 368.607L96.9317 375.47L108.744 398.993L121.399 392.13L109.586 368.607Z" fill="#BECCD5" stroke="#444E59" stroke-width="4" stroke-miterlimit="10" stroke-linecap="round" stroke-linejoin="round"/>
<path d="M109.586 368.607L96.9317 375.47L108.744 398.993L121.399 392.13L109.586 368.607Z" stroke="#444E59" stroke-width="4" stroke-miterlimit="10" stroke-linecap="round" stroke-linejoin="round"/>
<path d="M122.268 361.71L109.613 368.573L121.426 392.096L134.08 385.233L122.268 361.71Z" stroke="#444E59" stroke-width="4" stroke-miterlimit="10" stroke-linecap="round" stroke-linejoin="round"/>
<path d="M141.295 381.337L134.041 385.257L122.222 361.742L129.476 357.823C132.438 356.216 136.093 357.383 137.702 360.526L143.89 372.849C145.437 375.93 144.257 379.731 141.295 381.337Z" fill="#6567C3"/>
<path d="M141.295 381.337L134.041 385.257L122.222 361.742L129.476 357.823C132.438 356.216 136.093 357.383 137.702 360.526L143.89 372.849C145.437 375.93 144.257 379.731 141.295 381.337Z" stroke="#444E59" stroke-width="4" stroke-miterlimit="10" stroke-linecap="round" stroke-linejoin="round"/>
<path d="M202.969 409.194L162.088 409.569C158.747 409.6 155.987 406.783 155.955 403.309L155.173 318.11C155.141 314.636 157.848 311.769 161.189 311.738L202.071 311.363C205.412 311.332 208.171 314.149 208.203 317.623L208.986 402.822C209.018 406.359 206.31 409.163 202.969 409.194Z" fill="white"/>
<path d="M209.265 340.667L155.385 341.162L155.172 317.984C155.14 314.573 157.788 311.77 161.068 311.74L202.678 311.357C206.141 311.326 208.962 314.268 208.995 317.805L209.205 340.668L209.265 340.667Z" fill="#6567C3"/>
<path d="M202.969 409.194L162.088 409.569C158.747 409.6 155.987 406.783 155.955 403.309L155.173 318.11C155.141 314.636 157.848 311.769 161.189 311.738L202.071 311.363C205.412 311.332 208.171 314.149 208.203 317.623L208.986 402.822C209.018 406.359 206.31 409.163 202.969 409.194Z" stroke="#444E59" stroke-width="4" stroke-miterlimit="10" stroke-linecap="round" stroke-linejoin="round"/>
<path d="M203.03 409.193L162.27 409.568C158.808 409.599 155.925 406.657 155.892 403.057L155.781 390.931L208.872 390.443L208.986 402.885C209.018 406.359 206.31 409.163 203.03 409.193Z" fill="#BBBFC2"/>
<path d="M203.152 409.192L162.27 409.568C158.808 409.599 155.925 406.657 155.892 403.057L155.781 390.931L208.872 390.443L208.988 403.012C209.019 406.422 206.371 409.162 203.152 409.192Z" stroke="#444E59" stroke-width="4" stroke-miterlimit="10" stroke-linecap="round" stroke-linejoin="round"/>
<path d="M182.863 402.809C184.541 402.794 185.887 401.368 185.871 399.624C185.855 397.88 184.483 396.478 182.805 396.494C181.128 396.509 179.781 397.935 179.797 399.679C179.813 401.423 181.186 402.825 182.863 402.809Z" fill="#444E59"/>
<path opacity="0.3" d="M167.441 350.842L197.389 350.567" stroke="#444E59" stroke-width="4" stroke-miterlimit="10" stroke-linecap="round" stroke-linejoin="round"/>
<path opacity="0.3" d="M173.484 360.577L192.315 360.404" stroke="#444E59" stroke-width="4" stroke-miterlimit="10" stroke-linecap="round" stroke-linejoin="round"/>
<path opacity="0.3" d="M167.613 369.536L197.56 369.261" stroke="#444E59" stroke-width="4" stroke-miterlimit="10" stroke-linecap="round" stroke-linejoin="round"/>
<path opacity="0.62" d="M182.245 335.547C186.003 335.512 189.02 332.317 188.984 328.411C188.948 324.504 185.873 321.365 182.115 321.4C178.358 321.434 175.341 324.629 175.377 328.536C175.413 332.442 178.488 335.581 182.245 335.547Z" fill="white"/>
<path d="M192.487 379.098C192.505 381.056 191.001 382.649 189.118 382.666L176.3 382.784C174.417 382.801 172.884 381.236 172.866 379.278C172.848 377.321 174.352 375.728 176.235 375.71L189.053 375.593C190.935 375.512 192.468 377.077 192.487 379.098Z" fill="#ED8B3B"/>
<path d="M519.466 394.728L372.281 396.08L371.436 304.123C371.411 301.407 373.517 299.177 376.129 299.153L513.899 297.887C516.45 297.864 518.535 299.992 518.56 302.645L519.406 394.728L519.466 394.728Z" fill="#BBBFC2"/>
<path d="M519.833 394.914L372.708 396.265L371.861 304.055C371.835 301.277 374.001 298.983 376.674 298.958L514.08 297.696C516.752 297.672 518.96 299.925 518.986 302.704L519.833 394.914Z" stroke="#444E59" stroke-width="4" stroke-miterlimit="10" stroke-linecap="round" stroke-linejoin="round"/>
<path opacity="0.71" d="M511.695 386.857L510.952 305.889L380.046 307.092L380.79 388.06L511.695 386.857Z" fill="#5D5D5D"/>
<path opacity="0.32" d="M412.644 372.339L401.346 372.442C400.677 372.449 400.125 371.885 400.119 371.19L399.749 330.959C399.743 330.265 400.285 329.691 400.953 329.685L412.251 329.581C412.92 329.575 413.471 330.138 413.478 330.833L413.848 371.128C413.854 371.759 413.312 372.333 412.644 372.339Z" fill="#848484"/>
<path opacity="0.32" d="M494.3 379.737L429.059 380.336C427.723 380.348 426.619 379.221 426.606 377.832L426.13 325.98C426.117 324.59 427.2 323.443 428.537 323.431L493.777 322.832C495.113 322.82 496.217 323.946 496.23 325.336L496.706 377.188C496.719 378.577 495.697 379.724 494.3 379.737Z" fill="#848484"/>
<path d="M511.576 386.475L510.839 306.202L380.055 307.404L380.792 387.677L511.576 386.475Z" stroke="#444E59" stroke-width="4" stroke-miterlimit="10" stroke-linecap="round" stroke-linejoin="round"/>
<path d="M535.869 394.766L356.611 396.413L356.665 402.35C356.691 405.129 358.898 407.382 361.571 407.358L531.111 405.8C533.783 405.776 535.949 403.482 535.924 400.703L535.869 394.766Z" fill="white"/>
<path opacity="0.8" d="M363.579 407.718L529.17 406.197C532.511 406.167 535.22 403.489 535.795 399.883L356.779 401.528C357.42 405.122 360.238 407.749 363.579 407.718Z" fill="#BBBFC2"/>
<path d="M535.869 394.766L356.611 396.413L356.665 402.35C356.691 405.129 358.898 407.382 361.571 407.358L531.111 405.8C533.783 405.776 535.949 403.482 535.924 400.703L535.869 394.766Z" stroke="#444E59" stroke-width="4" stroke-miterlimit="10" stroke-linecap="round" stroke-linejoin="round"/>
<path d="M410.156 326.379L396.489 326.505L396.619 340.715L410.287 340.589L410.156 326.379Z" fill="#F09F54"/>
<path d="M410.401 326.503L396.733 326.629L396.864 340.839L410.531 340.714L410.401 326.503Z" stroke="#444E59" stroke-width="4" stroke-miterlimit="10" stroke-linecap="round" stroke-linejoin="round"/>
<path d="M410.401 326.503L396.733 326.629L396.864 340.839L410.531 340.714L410.401 326.503Z" stroke="#444E59" stroke-width="4" stroke-miterlimit="10" stroke-linecap="round" stroke-linejoin="round"/>
<path d="M410.287 340.589L396.619 340.715L396.75 354.925L410.417 354.8L410.287 340.589Z" fill="#8D91DB"/>
<path d="M410.532 340.777L396.864 340.902L396.995 355.113L410.662 354.987L410.532 340.777Z" stroke="#444E59" stroke-width="4" stroke-miterlimit="10" stroke-linecap="round" stroke-linejoin="round"/>
<path d="M410.418 354.8L396.75 354.925L396.88 369.136L410.548 369.01L410.418 354.8Z" fill="#6567C3"/>
<path d="M410.662 354.987L396.995 355.113L397.125 369.323L410.793 369.198L410.662 354.987Z" stroke="#444E59" stroke-width="4" stroke-miterlimit="10" stroke-linecap="round" stroke-linejoin="round"/>
<path d="M490.311 375.415L425.01 376.015C423.674 376.027 422.57 374.9 422.557 373.511L422.081 321.659C422.068 320.269 423.151 319.122 424.487 319.11L489.788 318.51C491.125 318.498 492.229 319.625 492.241 321.014L492.718 372.866C492.731 374.319 491.648 375.403 490.311 375.415Z" fill="white"/>
<path d="M490.311 375.415L425.01 376.015C423.674 376.027 422.57 374.9 422.557 373.511L422.081 321.659C422.068 320.269 423.151 319.122 424.487 319.11L489.788 318.51C491.125 318.498 492.229 319.625 492.241 321.014L492.718 372.866C492.731 374.319 491.648 375.403 490.311 375.415Z" stroke="#444E59" stroke-width="4" stroke-miterlimit="10" stroke-linecap="round" stroke-linejoin="round"/>
<g opacity="0.3">
<path d="M472.071 360.613L472.08 361.56L471.169 361.569" stroke="#444E59" stroke-width="2" stroke-linejoin="round"/>
<path d="M470.015 361.579L444.563 361.813" stroke="#444E59" stroke-width="2" stroke-linejoin="round" stroke-dasharray="2.86 2.86"/>
<path d="M443.955 361.819L443.044 361.827L443.035 360.88" stroke="#444E59" stroke-width="2" stroke-linejoin="round"/>
<path d="M443.023 359.553L442.797 334.922" stroke="#444E59" stroke-width="2" stroke-linejoin="round" stroke-dasharray="3 3"/>
<path d="M442.791 334.29L442.783 333.343L443.694 333.335" stroke="#444E59" stroke-width="2" stroke-linejoin="round"/>
<path d="M444.848 333.324L470.3 333.09" stroke="#444E59" stroke-width="2" stroke-linejoin="round" stroke-dasharray="2.86 2.86"/>
<path d="M470.907 333.085L471.818 333.076L471.827 334.024" stroke="#444E59" stroke-width="2" stroke-linejoin="round"/>
<path d="M471.839 335.287L472.066 359.981" stroke="#444E59" stroke-width="2" stroke-linejoin="round" stroke-dasharray="3 3"/>
</g>
<path d="M445.07 331.111L440.758 331.151L440.799 335.634L445.111 335.595L445.07 331.111Z" fill="white"/>
<path d="M444.825 330.924L440.574 330.963L440.614 335.383L444.865 335.344L444.825 330.924Z" stroke="#444E59" stroke-miterlimit="10" stroke-linejoin="round"/>
<path d="M445.331 359.532L441.019 359.572L441.06 364.055L445.372 364.015L445.331 359.532Z" fill="white"/>
<path d="M445.086 359.408L440.835 359.447L440.876 363.867L445.127 363.828L445.086 359.408Z" stroke="#444E59" stroke-miterlimit="10" stroke-linejoin="round"/>
<path d="M473.984 330.846L469.672 330.885L469.713 335.369L474.025 335.329L473.984 330.846Z" fill="white"/>
<path d="M473.922 330.657L469.671 330.696L469.711 335.116L473.962 335.077L473.922 330.657Z" stroke="#444E59" stroke-miterlimit="10" stroke-linejoin="round"/>
<path d="M474.245 359.267L469.933 359.306L469.975 363.789L474.286 363.75L474.245 359.267Z" fill="white"/>
<path d="M474.183 359.141L469.932 359.18L469.973 363.6L474.224 363.561L474.183 359.141Z" stroke="#444E59" stroke-miterlimit="10" stroke-linejoin="round"/>
<path d="M403.796 348.165L408.197 357.726L412.409 359.961L415.297 356.903L413.13 352.501L403.796 348.165Z" fill="white"/>
<path d="M403.796 348.165L408.197 357.726L412.409 359.961L415.297 356.903L413.13 352.501L403.796 348.165Z" stroke="#444E59" stroke-miterlimit="10" stroke-linejoin="round"/>
<path d="M409.323 354.746C409.961 354.74 410.472 354.199 410.466 353.536C410.46 352.873 409.938 352.341 409.301 352.347C408.664 352.353 408.152 352.895 408.158 353.557C408.164 354.22 408.686 354.752 409.323 354.746Z" fill="#444E59"/>
<path d="M403.796 348.165L408.64 353.111" stroke="#444E59" stroke-miterlimit="10" stroke-linecap="round" stroke-linejoin="round"/>
<path d="M415.314 356.853L412.422 359.916L414.546 362.085L417.438 359.022L415.314 356.853Z" fill="white"/>
<path d="M415.314 356.853L412.422 359.916L414.546 362.085L417.438 359.022L415.314 356.853Z" stroke="#444E59" stroke-miterlimit="10" stroke-linejoin="round"/>
</svg>
