<svg width="368" height="275" viewBox="0 0 368 275" fill="none" xmlns="http://www.w3.org/2000/svg">
<g clip-path="url(#clip0_190_1659)">
<path d="M306.916 245.919H331.228V246.104H306.916V245.919Z" fill="#EEEEEE"/>
<path d="M237.734 247.925H244.115V248.109H237.734V247.925Z" fill="#EEEEEE"/>
<path d="M292.094 239.055H306.181V239.24H292.094V239.055Z" fill="#EEEEEE"/>
<path d="M39.5049 240.482H71.2088V240.298H39.5049V240.482Z" fill="#EEEEEE"/>
<path d="M77.7441 240.482H82.3927V240.298H77.7441V240.482Z" fill="#EEEEEE"/>
<path d="M97.5 243.603H166.258V243.418H97.5V243.603Z" fill="#EEEEEE"/>
<path d="M34.2523 -7.81741C32.0432 -7.81741 30.246 -6.00804 30.246 -3.78326V196.839C30.246 199.064 32.0432 200.873 34.2523 200.873H175.987C178.195 200.873 179.992 199.064 179.992 196.839V-3.78326C179.992 -6.00804 178.195 -7.81741 175.987 -7.81741H34.2523ZM175.987 201.058H34.2523C31.942 201.058 30.0625 199.166 30.0625 196.839V-3.78326C30.0625 -6.1093 31.942 -8.0022 34.2523 -8.0022H175.987C178.296 -8.0022 180.176 -6.1093 180.176 -3.78326V196.839C180.176 199.166 178.296 201.058 175.987 201.058Z" fill="#EEEEEE"/>
<path d="M193.014 -7.81741C190.806 -7.81741 189.009 -6.00804 189.009 -3.78326V196.839C189.009 199.064 190.806 200.873 193.014 200.873H334.749C336.958 200.873 338.755 199.064 338.755 196.839V-3.78326C338.755 -6.00804 336.958 -7.81741 334.749 -7.81741H193.014ZM334.749 201.058H193.014C190.705 201.058 188.825 199.166 188.825 196.839V-3.78326C188.825 -6.1093 190.705 -8.0022 193.014 -8.0022H334.749C337.059 -8.0022 338.938 -6.1093 338.938 -3.78326V196.839C338.938 199.166 337.059 201.058 334.749 201.058Z" fill="#EEEEEE"/>
<path d="M1 234.207H368V234.022H1V234.207Z" fill="#EEEEEE"/>
<path d="M257.953 229.731H327.813V136.124H257.953V229.731Z" fill="#F8F8F9"/>
<path d="M244.627 229.731H257.953V136.124H244.627V229.731Z" fill="#E9E9E8"/>
<path d="M262.487 165.802H322.92V143.07H262.487V165.802Z" fill="#FCFDFD"/>
<path d="M300.585 143.07L300.32 146.1C300.233 147.099 299.402 147.866 298.406 147.866H287.003C286.007 147.866 285.175 147.099 285.088 146.1L284.824 143.07H300.585Z" fill="#EEEEEE"/>
<path d="M262.487 191.017H322.92V168.284H262.487V191.017Z" fill="#FCFDFD"/>
<path d="M300.585 168.284L300.32 171.315C300.233 172.315 299.402 173.082 298.406 173.082H287.003C286.007 173.082 285.175 172.315 285.088 171.315L284.824 168.284H300.585Z" fill="#EEEEEE"/>
<path d="M262.487 216.231H322.92V193.5H262.487V216.231Z" fill="#FCFDFD"/>
<path d="M300.585 193.5L300.32 196.53C300.233 197.53 299.402 198.297 298.406 198.297H287.003C286.007 198.297 285.175 197.53 285.088 196.53L284.824 193.5H300.585Z" fill="#EEEEEE"/>
<path d="M262.487 234.404H322.186L322.92 229.723H262.487V234.404Z" fill="#E9E9E8"/>
<path d="M250.009 234.404H262.487V229.723H249.275L250.009 234.404Z" fill="#E3E3E2"/>
<path d="M290.549 136.225H314.404L311.757 105.761H287.902L290.549 136.225Z" fill="#FCFDFD"/>
<path d="M290.549 136.225H289.41L286.764 105.761H287.902L290.549 136.225Z" fill="#EEEEEE"/>
<path d="M292.711 133.119H311.702L309.595 108.867H290.604L292.711 133.119Z" fill="#F4F4F4"/>
<path d="M294.102 131.122H309.966L308.206 110.864H292.342L294.102 131.122Z" fill="#E9E9E8"/>
<path d="M283.847 136.225L285.485 117.369H261.738L260.1 136.225H283.847Z" fill="#F4F4F4"/>
<path d="M283.847 136.225L285.485 117.369H286.764L285.125 136.225H283.847Z" fill="#E3E3E2"/>
<path d="M281.592 134.303L282.897 119.291H263.992L262.688 134.303H281.592Z" fill="#EEEEEE"/>
<path d="M280.144 133.067L281.233 120.527H265.441L264.352 133.067H280.144Z" fill="#F8F8F9"/>
<path d="M229.013 221.731C229.013 226.728 228.234 229.96 226.923 232.034C225.937 233.594 224.166 234.47 222.329 234.47H215.145C213.308 234.47 211.538 233.594 210.551 232.034C209.24 229.96 208.461 226.728 208.461 221.731C208.461 214.484 211.599 208.683 212.623 204.049C212.993 202.38 211.764 197.268 211.764 197.268H225.71C225.71 197.268 224.481 202.38 224.85 204.049C225.875 208.683 229.013 214.484 229.013 221.731Z" fill="#EEEEEE"/>
<path d="M252.761 192.401C252.761 186.109 242.965 188.72 240.496 178.959C239.561 175.259 247.529 166.887 247.529 166.887H222.686C222.686 166.887 230.653 175.259 229.717 178.959C227.249 188.72 217.452 186.109 217.452 192.401C217.452 199.331 231.271 213.764 231.938 230.009C231.997 231.461 229.339 234.47 229.339 234.47H240.876C240.876 234.47 238.217 231.461 238.276 230.009C238.943 213.764 252.761 199.331 252.761 192.401Z" fill="#F8F8F9"/>
<path d="M245.254 208.752C246.698 205.695 243.712 195.297 243.712 195.297H254.478C254.478 195.297 251.493 205.695 252.936 208.752C253.955 210.911 256.275 212.29 256.275 214.845V230.198C256.275 234.174 253.043 234.47 249.095 234.47C245.147 234.47 241.916 234.174 241.916 230.198V214.845C241.916 212.29 244.235 210.912 245.254 208.752Z" fill="#F4F4F4"/>
<path d="M127.145 106.625C124.247 105.362 121.184 105.972 120.318 107.987C119.451 110.001 121.105 112.668 124.004 113.932C126.902 115.195 129.965 114.585 130.831 112.57C131.698 110.556 130.044 107.889 127.145 106.625ZM122.222 118.075C116.037 115.377 112.508 109.686 114.357 105.387C116.205 101.088 122.741 99.7856 128.927 102.482C135.112 105.179 138.641 110.871 136.792 115.171C134.944 119.469 128.408 120.772 122.222 118.075Z" fill="#E9E9E8"/>
<path d="M129.499 106.864L126.56 105.582L144.319 64.2388C144.671 63.422 145.613 63.0458 146.425 63.3991C147.237 63.7531 147.61 64.7022 147.259 65.5197L129.499 106.864Z" fill="#E9E9E8"/>
<path d="M148.621 69.5161L142.98 67.0356L144.252 64.0761L149.893 66.5567L148.621 69.5161Z" fill="#E9E9E8"/>
<path d="M145.84 72.8252L141.802 71.0587L143.075 68.0992L147.112 69.8657L145.84 72.8252Z" fill="#E9E9E8"/>
<path d="M144.691 78.6895L140.163 76.7145L141.436 73.755L145.964 75.73L144.691 78.6895Z" fill="#E9E9E8"/>
<path d="M130.641 102.45L129.026 101.746C128.222 101.395 127.852 100.454 128.201 99.6436L128.212 99.6185C128.56 98.8084 129.495 98.4359 130.299 98.787L131.913 99.4906C132.718 99.8417 133.088 100.783 132.74 101.593L132.729 101.619C132.38 102.429 131.446 102.801 130.641 102.45Z" fill="#E9E9E8"/>
<path d="M247.862 101.712C250.158 103.252 253.302 102.577 254.871 100.206C256.439 97.8358 255.847 94.6546 253.55 93.1135C251.254 91.5732 248.11 92.2472 246.541 94.6176C244.973 96.988 245.565 100.171 247.862 101.712ZM256.776 88.2382C261.677 91.5259 262.941 98.3162 259.594 103.376C256.247 108.434 249.536 109.875 244.636 106.587C239.735 103.299 238.471 96.5083 241.818 91.449C245.165 86.3904 251.875 84.9498 256.776 88.2382Z" fill="#E9E9E8"/>
<path d="M246.675 100.399L249.713 102.438L227.977 135.935C227.418 136.78 226.284 137.009 225.445 136.446C224.607 135.882 224.379 134.743 224.938 133.898L246.675 100.399Z" fill="#E9E9E8"/>
<path d="M225.074 126.595L231.467 130.918L228.276 135.741L221.871 131.41C220.951 130.788 220.704 129.534 221.318 128.606L222.28 127.153C222.897 126.219 224.15 125.969 225.074 126.595Z" fill="#E9E9E8"/>
<path d="M168.012 24.226L164.637 33.0275C164.333 33.8199 163.448 34.2153 162.66 33.9093C161.873 33.6033 161.481 32.7112 161.785 31.9181L165.159 23.1165C166.249 20.2753 164.84 17.0675 162.017 15.9707L158.89 14.7548C156.068 13.6579 152.884 15.0785 151.794 17.9212L150.417 21.5156L147.563 20.4062L148.942 16.8125C150.639 12.3852 155.597 10.1737 159.992 11.8825L163.118 13.0977C167.513 14.8065 169.709 19.7986 168.012 24.226Z" fill="#F4F4F4"/>
<path d="M154.548 38.8637L149.147 36.7646L152.003 31.7452C151.644 31.0171 151.577 30.1435 151.892 29.3231C152.487 27.7694 154.221 26.9918 155.764 27.592C157.308 28.1922 158.077 29.9424 157.482 31.4968C157.168 32.3165 156.535 32.9189 155.779 33.2131L154.548 38.8637ZM167.479 25.6126C167.254 25.3207 166.949 25.0827 166.582 24.94L149.553 18.3197C149.174 18.1726 148.774 18.1423 148.404 18.2169C147.723 18.3514 147.121 18.8252 146.852 19.5244L140.278 36.673C139.862 37.758 140.396 38.9731 141.474 39.3922L158.504 46.0126C159.581 46.4309 160.788 45.8928 161.204 44.8078L167.778 27.6593C168.051 26.9475 167.916 26.1766 167.479 25.6126Z" fill="#E9E9E8"/>
<path d="M51.7617 224.456H187.646V150.816H51.7617V224.456Z" fill="#E9E9E8"/>
<path d="M176.753 234.011H185.293V227.514H176.753V234.011Z" fill="#E9E9E8"/>
<path d="M41.3887 234.011H49.9289V145.337H41.3887V234.011Z" fill="#E9E9E8"/>
<path d="M54.3817 221.016V188.749H117.56V221.016H54.3817ZM185.293 221.016H122.115V153.363H185.293V221.016ZM54.3817 153.363H117.56V184.162H54.3817V153.363ZM49.8271 145.337V234.011H54.3817V229.042H185.293V234.011H189.848V145.337H187.571H185.293H54.3817H52.1045H49.8271Z" fill="#F4F4F4"/>
<path d="M122.114 221.016H181.022V156.676H122.114V221.016Z" fill="#F8F8F9"/>
<path d="M124.782 186.918C124.782 188.44 126.008 189.675 127.519 189.675C129.031 189.675 130.256 188.44 130.256 186.918C130.256 185.397 129.031 184.162 127.519 184.162C126.008 184.162 124.782 185.397 124.782 186.918Z" fill="#FCFDFD"/>
<path d="M127.519 189.675C128.623 189.675 129.569 189.012 130.001 188.065C130.161 188.415 130.256 188.801 130.256 189.212C130.256 190.733 129.031 191.967 127.519 191.967C126.008 191.967 124.782 190.733 124.782 189.212C124.782 188.801 124.878 188.415 125.038 188.065C125.47 189.012 126.415 189.675 127.519 189.675Z" fill="#E3E3E2"/>
<path d="M158.176 221.016H144.123L137.407 156.676H151.461L158.176 221.016Z" fill="#FCFDFD"/>
<path d="M140.523 221.016H137.726L131.011 156.676H133.808L140.523 221.016Z" fill="#FCFDFD"/>
<path d="M103.321 184.133H108.889V156.612H103.321V184.133Z" fill="#FCFDFD"/>
<path d="M80.2393 184.133H85.8059V156.612H80.2393V184.133Z" fill="#F8F8F9"/>
<path d="M97.7549 184.133H103.322V158.547H97.7549V184.133Z" fill="#F8F8F9"/>
<path d="M85.8066 184.133H91.3733V158.547H85.8066V184.133Z" fill="#FCFDFD"/>
<path d="M91.373 184.133H94.9714V156.612H91.373V184.133Z" fill="#EEEEEE"/>
<path d="M94.9707 184.133H97.7539V158.547H94.9707V184.133Z" fill="#FCFDFD"/>
<path d="M74.6729 184.133H80.2395V156.612H74.6729V184.133Z" fill="#EEEEEE"/>
<path d="M69.1055 184.133H74.6727V158.547H69.1055V184.133Z" fill="#E9E9E8"/>
<path d="M57.1582 184.133H62.7251V158.547H57.1582V184.133Z" fill="#E9E9E8"/>
<path d="M62.7246 184.133H66.3218V156.612H62.7246V184.133Z" fill="#FCFDFD"/>
<path d="M66.3223 184.133H69.106V158.547H66.3223V184.133Z" fill="#EEEEEE"/>
<path d="M54.374 184.133H57.1578V157.264H54.374V184.133Z" fill="#EEEEEE"/>
<path d="M59.941 221.016H54.374V193.497H59.941V221.016Z" fill="#EEEEEE"/>
<path d="M77.4561 221.016H83.0227V193.497H77.4561V221.016Z" fill="#FCFDFD"/>
<path d="M59.9414 221.016H65.5083V195.43H59.9414V221.016Z" fill="#FCFDFD"/>
<path d="M71.8896 221.016H77.4569V195.43H71.8896V221.016Z" fill="#EEEEEE"/>
<path d="M68.291 221.016H71.8888V193.497H68.291V221.016Z" fill="#FCFDFD"/>
<path d="M65.5078 221.016H68.2913V195.43H65.5078V221.016Z" fill="#F8F8F9"/>
<path d="M83.0234 221.016H88.5901V193.497H83.0234V221.016Z" fill="#EEEEEE"/>
<path d="M88.5898 221.016H94.1574V195.43H88.5898V221.016Z" fill="#F8F8F9"/>
<path d="M100.538 221.016H106.105V195.43H100.538V221.016Z" fill="#E9E9E8"/>
<path d="M96.9404 221.016H100.538V193.497H96.9404V221.016Z" fill="#FCFDFD"/>
<path d="M108.889 221.016H112.486V193.497H108.889V221.016Z" fill="#FCFDFD"/>
<path d="M94.1572 221.016H96.9404V195.43H94.1572V221.016Z" fill="#EEEEEE"/>
<path d="M106.105 221.016H108.889V194.149H106.105V221.016Z" fill="#EEEEEE"/>
<path d="M60.5861 97.9415C60.5861 97.9415 59.6517 98.3738 59.2245 99.2497C58.7973 100.125 60.1227 101.741 60.1227 101.741C60.1227 101.741 61.2347 102.52 62.3399 102.015C63.445 101.509 63.445 101.509 63.445 101.509C63.445 101.509 61.5552 98.2061 60.6377 98.1736L60.5861 97.9415Z" fill="#E9E9E8"/>
<path d="M65.3189 97.9149C65.4537 99.4818 64.4898 101.458 63.1009 101.579C61.712 101.7 60.4244 99.9209 60.2893 98.3547C60.1546 96.7877 61.2759 96.6354 62.6648 96.5142C64.0533 96.393 65.1842 96.3487 65.3189 97.9149Z" fill="#E9E9E8"/>
<path d="M61.2506 97.4536C61.2506 97.4536 62.3118 98.3051 64.4986 97.8084C64.4986 97.8084 61.0496 100.125 61.2506 97.4536Z" fill="#E9E9E8"/>
<path d="M62.1865 97.1424C62.1865 97.1424 63.4108 96.9281 63.4288 97.4425C63.4288 97.4425 64.4671 97.3841 64.3234 96.9466C64.1801 96.509 62.1865 97.1424 62.1865 97.1424Z" fill="#E9E9E8"/>
<path d="M62.1474 98.7405C61.6353 98.7405 61.2428 98.4774 61.2422 97.671C61.2422 97.6022 61.2448 97.5298 61.2508 97.4536C61.2508 97.4536 61.8868 97.9637 63.1882 97.9637C63.5681 97.9637 64.0047 97.9208 64.4988 97.8084C64.4988 97.8084 63.111 98.7405 62.1474 98.7405Z" fill="#EDEDEC"/>
<path d="M63.4288 97.4425C63.4191 97.1616 63.0504 97.0981 62.7172 97.0981C62.4397 97.0981 62.1865 97.1424 62.1865 97.1424C62.1865 97.1424 63.288 96.7921 63.9122 96.7921C64.1279 96.7921 64.2867 96.8342 64.3234 96.9466C64.3326 96.9746 64.3369 97.0013 64.3369 97.0264C64.3374 97.3915 63.4288 97.4425 63.4288 97.4425Z" fill="#EDEDEC"/>
<path d="M60.7695 102.075C61.2114 102.796 62.1128 103.166 62.9483 103.067C63.7838 102.965 64.5364 102.44 65.0187 101.745C65.501 101.05 65.7309 100.202 65.7836 99.3555C65.7977 99.1367 65.8146 98.5882 65.5282 98.504C65.2653 98.4264 65.1033 98.7967 64.9814 98.9696C64.6313 99.4656 64.2604 99.9305 63.8142 100.345C63.3818 100.746 62.9036 101.098 62.392 101.39C62.2484 101.472 60.8473 102.202 60.7695 102.075Z" fill="#E9E9E8"/>
<path d="M66.7277 98.9459C66.9909 99.5808 66.8945 100.353 66.4848 100.903C66.2156 101.265 65.8334 101.523 65.4492 101.756C65.182 101.918 64.8377 102.072 64.5755 101.902C64.2929 101.718 64.3181 101.299 64.3829 100.967C64.483 100.454 64.5965 99.9445 64.7244 99.4382C64.8288 99.0228 64.8921 98.328 65.1338 97.9754C65.3612 97.6443 65.6832 97.8402 66.0267 98.0812C66.334 98.2962 66.5838 98.5971 66.7277 98.9459Z" fill="#E9E9E8"/>
<path d="M61.1239 101.206C61.0952 101.205 61.0665 101.202 61.0378 101.2C60.914 101.103 60.779 101.021 60.637 100.956C60.4851 100.887 60.3377 100.823 60.2052 100.796C60.0668 100.659 59.9558 100.496 59.8852 100.313C59.7407 99.9415 59.7436 98.9962 60.223 98.8764C60.4354 99.7161 60.6186 100.478 61.1239 101.206Z" fill="#EDEDEC"/>
<path d="M64.7432 101.168C64.9366 100.821 65.0887 100.451 65.1964 100.067C65.2678 99.8136 65.2423 99.1854 65.3805 98.988C65.4525 98.8853 65.5156 98.8424 65.5697 98.8424C65.8338 98.8424 65.8963 99.8669 65.8255 100.099C65.6715 100.606 65.2501 101.023 64.7432 101.168Z" fill="#EDEDEC"/>
<path d="M62.609 102.745C62.3117 102.745 62.0634 102.642 61.777 102.509C61.7692 102.446 61.7586 102.384 61.7451 102.322C61.762 102.323 61.779 102.323 61.7964 102.323C62.1368 102.323 62.5677 102.273 62.8048 102.053C63.0087 102.228 63.2759 102.316 63.5431 102.316C63.5821 102.316 63.6211 102.313 63.6601 102.31C63.6343 102.373 63.6122 102.438 63.593 102.505C63.3736 102.584 63.1552 102.645 63.0422 102.678C62.8831 102.724 62.7412 102.745 62.609 102.745Z" fill="#EDEDEC"/>
<path d="M61.5889 130.842L61.6554 109.517L62.7415 103.031L63.1538 103.101L62.0732 109.558L61.9966 131.247L61.5889 130.842Z" fill="#E3E3E2"/>
<path d="M62.0305 109.409L61.6982 109.666C61.366 109.229 61.0663 108.66 60.72 108.001C60.1838 106.982 59.5763 105.827 58.6533 104.806L58.963 104.522C59.9212 105.583 60.5416 106.763 61.0892 107.804C61.4273 108.446 61.7195 109 62.0305 109.409Z" fill="#E3E3E2"/>
<path d="M62.2864 106.548C62.8498 106.399 63.355 106.037 63.6801 105.55C64.0497 104.997 64.1779 104.322 64.2983 103.666C63.8854 103.79 63.4554 103.73 63.0227 103.67C62.6889 103.624 62.3541 103.578 62.0241 103.616C61.4196 103.686 60.8571 104.057 60.5518 104.587C60.1561 105.273 59.9955 106.051 60.3445 106.365C60.6323 106.624 61.5324 106.748 62.2864 106.548Z" fill="#E9E9E8"/>
<path d="M59.4712 105.076C58.796 105.506 57.9276 105.616 57.1677 105.367C56.4077 105.117 56.1857 103.967 55.8916 103.219C56.5811 103.076 58.3319 103.176 58.7278 103.216C59.1246 103.256 59.5266 103.436 59.7399 103.775C59.9533 104.114 59.9137 104.622 59.5908 104.857L59.4712 105.076Z" fill="#E9E9E8"/>
<path d="M55.9974 106.322C56.4618 105.756 57.607 105.345 58.3244 105.476C59.0415 105.608 59.6531 106.105 59.9102 106.696C59.7207 107.155 59.2127 107.413 58.7207 107.45C58.2289 107.485 57.7441 107.338 57.2724 107.193C56.8007 107.048 56.3156 106.901 55.8242 106.937L55.9974 106.322Z" fill="#E9E9E8"/>
<path d="M70.1256 102.655C70.1256 102.655 70.8923 103.345 71.0454 104.308C71.1982 105.271 69.4595 106.424 69.4595 106.424C69.4595 106.424 68.1687 106.84 67.2599 106.03C66.3516 105.219 66.3516 105.219 66.3516 105.219C66.3516 105.219 69.1218 102.622 70.0086 102.862L70.1256 102.655Z" fill="#E9E9E8"/>
<path d="M65.6102 101.229C65.0242 102.687 65.3688 104.86 66.6608 105.387C67.9527 105.914 69.7035 104.595 70.2892 103.137C70.8756 101.681 69.8485 101.203 68.5566 100.675C67.2643 100.148 66.1963 99.7722 65.6102 101.229Z" fill="#E9E9E8"/>
<path d="M69.6329 101.993C69.6329 101.993 68.3699 102.492 66.4248 101.369C66.4248 101.369 69.0451 104.605 69.6329 101.993Z" fill="#E9E9E8"/>
<path d="M68.8289 101.418C68.8289 101.418 67.7217 100.85 67.5542 101.337C67.5542 101.337 66.5785 100.973 66.8435 100.598C67.1087 100.222 68.8289 101.418 68.8289 101.418Z" fill="#E9E9E8"/>
<path d="M68.732 103.012C67.7546 103.011 66.4248 101.37 66.4248 101.37C67.4538 101.964 68.2919 102.103 68.8533 102.103C69.3527 102.103 69.6329 101.993 69.6329 101.993C69.4637 102.744 69.1265 103.012 68.732 103.012Z" fill="#EDEDEC"/>
<path d="M68.8289 101.418C68.8289 101.418 68.2865 101.14 67.9034 101.14C67.7391 101.14 67.6044 101.191 67.5542 101.337C67.5542 101.337 66.7973 101.055 66.7979 100.731C66.7979 100.687 66.8119 100.643 66.8434 100.598C66.8795 100.547 66.9423 100.525 67.0241 100.525C67.5442 100.525 68.8289 101.418 68.8289 101.418Z" fill="#EDEDEC"/>
<path d="M68.7439 106.552C68.1113 107.11 67.1416 107.198 66.3721 106.855C65.6026 106.511 65.0369 105.786 64.7788 104.979C64.521 104.172 64.5492 103.292 64.745 102.468C64.7957 102.254 64.9396 101.727 65.2382 101.73C65.5122 101.734 65.559 102.135 65.6249 102.336C65.8147 102.915 66.0335 103.469 66.3392 103.997C66.6347 104.509 66.9891 104.987 67.3931 105.416C67.5064 105.537 68.6326 106.65 68.7439 106.552Z" fill="#E9E9E8"/>
<path d="M63.9618 101.797C63.5252 102.327 63.3915 103.092 63.6226 103.74C63.7743 104.166 64.0642 104.525 64.3635 104.862C64.5717 105.096 64.8561 105.345 65.1562 105.26C65.4802 105.167 65.5778 104.761 65.613 104.423C65.6669 103.903 65.707 103.383 65.7335 102.861C65.7547 102.433 65.8971 101.75 65.7687 101.342C65.648 100.958 65.283 101.049 64.8844 101.178C64.5281 101.293 64.2015 101.507 63.9618 101.797Z" fill="#E9E9E8"/>
<path d="M68.994 105.659C68.881 105.659 68.768 105.645 68.6582 105.617C69.3538 105.07 69.7515 104.396 70.1993 103.656C70.6225 103.913 70.349 104.817 70.1027 105.13C69.8392 105.465 69.4161 105.659 68.994 105.659Z" fill="#EDEDEC"/>
<path d="M65.2096 104.509C64.7678 104.22 64.4867 103.697 64.4873 103.166C64.4876 102.933 64.8194 102.036 65.0691 102.036C65.1327 102.036 65.1909 102.095 65.2374 102.236C65.312 102.466 65.1041 103.058 65.0983 103.322C65.0891 103.721 65.1264 104.12 65.2096 104.509Z" fill="#EDEDEC"/>
<path d="M67.2037 106.707C66.9391 106.707 66.6865 106.649 66.3954 106.455C66.1624 106.3 65.4014 105.822 65.4315 105.541C65.644 105.842 66.0121 106.015 66.3769 106.015C66.5237 106.015 66.6699 105.987 66.8051 105.928C67.1008 106.439 68.1763 106.6 68.1763 106.6C67.7944 106.638 67.4919 106.707 67.2037 106.707Z" fill="#EDEDEC"/>
<path d="M60.9883 127.658L61.2512 126.784L61.6079 125.607L62.0196 124.234L65.3123 113.316L65.7241 110.183L66.0894 107.403L66.1653 106.827L66.3697 106.853L66.3726 106.856L66.5802 106.883L66.5745 106.932L66.5014 107.476L66.1128 110.448L65.7943 112.869L65.7241 113.401L65.698 113.487L62.0168 125.681L61.6016 127.049L61.4121 127.685L61.1492 128.552L60.9883 127.658Z" fill="#E3E3E2"/>
<path d="M65.3975 113.188L65.6398 113.532C66.085 113.213 66.5371 112.758 67.0613 112.23C67.8707 111.416 68.7888 110.492 69.9689 109.788L69.7559 109.426C68.5301 110.156 67.5926 111.1 66.7651 111.933C66.2547 112.446 65.8141 112.89 65.3975 113.188Z" fill="#E3E3E2"/>
<path d="M65.9875 110.379C65.4925 110.069 65.1156 109.574 64.9464 109.012C64.7549 108.374 64.8294 107.69 64.9056 107.028C65.5405 107.455 66.3951 107.345 67.0942 107.654C67.6516 107.9 68.0808 108.421 68.2181 109.017C68.3959 109.79 68.3225 110.581 67.897 110.779C67.5466 110.941 66.6498 110.793 65.9875 110.379Z" fill="#E9E9E8"/>
<path d="M69.1073 109.804C69.6274 110.416 70.4254 110.778 71.2244 110.765C72.0238 110.751 72.5715 109.717 73.0712 109.089C72.4536 108.749 70.7514 108.326 70.3612 108.246C69.9703 108.167 69.5331 108.22 69.2303 108.481C68.9275 108.742 68.8171 109.24 69.0577 109.559L69.1073 109.804Z" fill="#E9E9E8"/>
<path d="M72.0648 112.023C71.7864 111.345 70.8115 110.613 70.0878 110.527C69.3639 110.44 68.6339 110.734 68.2158 111.224C68.2632 111.718 68.6729 112.116 69.1324 112.295C69.5924 112.475 70.0987 112.478 70.5918 112.479C71.0853 112.48 71.5913 112.484 72.051 112.663L72.0648 112.023Z" fill="#E9E9E8"/>
<path d="M55.2594 101.803C55.2594 101.803 54.4177 102.398 54.1536 103.336C53.8895 104.274 55.4814 105.624 55.4814 105.624C55.4814 105.624 56.7149 106.191 57.7115 105.493C58.7084 104.795 58.7084 104.795 58.7084 104.795C58.7084 104.795 56.2604 101.888 55.3518 102.022L55.2594 101.803Z" fill="#E9E9E8"/>
<path d="M59.9109 100.921C60.3229 102.438 59.7268 104.556 58.3824 104.927C57.0377 105.297 55.4536 103.78 55.0413 102.263C54.6293 100.746 55.705 100.393 57.0497 100.023C58.3942 99.6526 59.4986 99.4042 59.9109 100.921Z" fill="#E9E9E8"/>
<path d="M55.8262 101.203C55.8262 101.203 57.0224 101.849 59.0851 100.964C59.0851 100.964 56.1055 103.867 55.8262 101.203Z" fill="#E9E9E8"/>
<path d="M56.6914 100.728C56.6914 100.728 57.8575 100.295 57.9667 100.798C57.9667 100.798 58.9777 100.553 58.7584 100.148C58.539 99.7441 56.6914 100.728 56.6914 100.728Z" fill="#E9E9E8"/>
<path d="M56.7145 102.328C56.2689 102.328 55.914 102.041 55.8262 101.203C55.8262 101.203 56.2476 101.431 57.0212 101.431C57.5511 101.431 58.2464 101.324 59.0851 100.964C59.0851 100.964 57.685 102.328 56.7145 102.328Z" fill="#EDEDEC"/>
<path d="M57.9667 100.798C57.9266 100.613 57.7437 100.555 57.5284 100.555C57.1579 100.555 56.6914 100.728 56.6914 100.728C56.6914 100.728 57.9631 100.051 58.5216 100.051C58.6362 100.051 58.7211 100.08 58.7584 100.148C58.7799 100.188 58.7896 100.226 58.7896 100.262C58.7899 100.599 57.9667 100.798 57.9667 100.798Z" fill="#EDEDEC"/>
<path d="M56.1777 105.836C56.7412 106.466 57.6937 106.668 58.4979 106.417C59.3022 106.167 59.9484 105.514 60.2991 104.744C60.6494 103.973 60.724 103.095 60.6253 102.253C60.5998 102.036 60.519 101.494 60.2219 101.463C59.9495 101.435 59.8561 101.827 59.7672 102.019C59.5111 102.571 59.229 103.095 58.8643 103.584C58.5105 104.057 58.1031 104.489 57.6515 104.869C57.5254 104.975 56.277 105.946 56.1777 105.836Z" fill="#E9E9E8"/>
<path d="M61.4801 101.681C61.8523 102.257 61.8956 103.034 61.5905 103.65C61.3901 104.054 61.0601 104.377 60.7238 104.676C60.4898 104.884 60.1784 105.098 59.8903 104.977C59.5792 104.847 59.5296 104.432 59.5345 104.093C59.541 103.57 59.562 103.048 59.597 102.527C59.6262 102.1 59.5643 101.405 59.7392 101.014C59.9041 100.647 60.2556 100.782 60.6366 100.956C60.977 101.112 61.2763 101.364 61.4801 101.681Z" fill="#E9E9E8"/>
<path d="M56.1922 104.93C55.7169 104.93 55.2438 104.673 54.9932 104.264C54.7851 103.923 54.619 102.993 55.0692 102.789C55.4275 103.576 55.7435 104.293 56.3709 104.917C56.3115 104.926 56.2519 104.93 56.1922 104.93Z" fill="#EDEDEC"/>
<path d="M59.9248 104.225C60.053 103.849 60.1364 103.457 60.1739 103.061C60.1989 102.797 60.0618 102.184 60.1625 101.965C60.221 101.838 60.2815 101.786 60.3408 101.786C60.5937 101.786 60.8259 102.742 60.7987 102.977C60.7376 103.505 60.3973 103.99 59.9248 104.225Z" fill="#EDEDEC"/>
<path d="M57.8722 106.184C57.5238 106.184 57.1904 106.052 56.7354 105.951C56.7354 105.951 57.8223 105.919 58.1752 105.447C58.3433 105.544 58.5362 105.591 58.7298 105.591C59.0488 105.591 59.37 105.464 59.585 105.225C59.5822 105.506 58.771 105.892 58.5207 106.018C58.2816 106.139 58.0743 106.184 57.8722 106.184Z" fill="#EDEDEC"/>
<path d="M62.1161 133.987L58.377 112.997L58.2881 106.42L58.7064 106.414L58.795 112.961L62.5898 134.312L62.1161 133.987Z" fill="#E3E3E2"/>
<path d="M58.7261 112.822L58.4454 113.135C58.0405 112.766 57.6445 112.261 57.1858 111.675C56.4767 110.77 55.6728 109.744 54.583 108.905L54.8367 108.57C55.9689 109.442 56.7896 110.49 57.5144 111.414C57.9614 111.984 58.3473 112.477 58.7261 112.822Z" fill="#E3E3E2"/>
<path d="M58.4673 109.963C58.9954 109.714 59.4278 109.266 59.6608 108.729C59.9258 108.119 59.9315 107.43 59.9326 106.764C59.2526 107.112 58.4165 106.903 57.6865 107.126C57.1047 107.304 56.6173 107.77 56.4112 108.347C56.1445 109.093 56.125 109.888 56.5247 110.133C56.8538 110.336 57.7616 110.295 58.4673 109.963Z" fill="#E9E9E8"/>
<path d="M55.436 109.023C54.8482 109.569 54.0139 109.833 53.222 109.726C52.4295 109.618 52.0059 108.526 51.583 107.844C52.2362 107.579 53.9757 107.361 54.3728 107.328C54.7699 107.295 55.198 107.4 55.4681 107.695C55.7385 107.989 55.7904 108.496 55.5145 108.786L55.436 109.023Z" fill="#E9E9E8"/>
<path d="M52.2408 110.877C52.5966 110.236 53.65 109.626 54.3788 109.625C55.108 109.624 55.7987 110.003 56.1571 110.538C56.0518 111.023 55.5986 111.37 55.1212 111.493C54.6435 111.618 54.1403 111.561 53.6503 111.504C53.1609 111.447 52.6577 111.39 52.1797 111.514L52.2408 110.877Z" fill="#E9E9E8"/>
<path d="M63.6505 121.11H59.2623C58.9331 121.102 58.6392 121.316 58.5414 121.632C58.1813 122.778 57.4141 125.793 57.4141 130.542C57.4141 135.759 58.7648 142.685 59.1897 144.731C59.2611 145.076 59.561 145.324 59.9105 145.327H62.9658C63.315 145.324 63.6149 145.076 63.6863 144.731C64.1112 142.685 65.4625 135.759 65.4625 130.542C65.4625 125.793 64.695 122.778 64.3349 121.632C64.24 121.329 63.9656 121.119 63.6505 121.11Z" fill="#F4F4F4"/>
<path d="M326.815 258.631C326.815 263.253 263.098 267 184.5 267C105.902 267 42.1855 263.253 42.1855 258.631C42.1855 254.009 105.902 250.262 184.5 250.262C263.098 250.262 326.815 254.009 326.815 258.631Z" fill="#F8F8F9"/>
<path d="M89.6551 229.864C89.4056 229.848 89.2111 229.635 89.2169 229.381C89.7601 207.657 90.8728 172.023 90.9308 171.828C91.0049 171.578 91.2663 171.442 91.5136 171.51C91.761 171.584 91.9034 171.847 91.8307 172.097C91.8168 172.145 90.693 207.903 90.155 229.405C90.1491 229.665 89.9333 229.871 89.6742 229.865L89.6551 229.864Z" fill="#1D2A30"/>
<path d="M86.7553 157.324C86.9358 158.998 88.925 164.798 90.5868 164.617C92.2478 164.434 92.9524 158.339 92.7719 156.667C92.5913 154.993 91.0976 153.784 89.4366 153.966C87.7748 154.148 86.5747 155.653 86.7553 157.324Z" fill="#4870C0"/>
<path d="M94.8195 175.622C94.639 173.949 92.6498 168.148 90.9888 168.33C89.327 168.512 88.6224 174.608 88.8029 176.281C88.9835 177.954 90.4772 179.163 92.139 178.981C93.8 178.798 95.0008 177.295 94.8195 175.622Z" fill="#4870C0"/>
<path d="M81.7026 170.533C83.3644 170.352 89.1241 168.349 88.9428 166.675C88.7622 165.003 82.7097 164.292 81.0479 164.475C79.3861 164.657 78.186 166.16 78.3666 167.833C78.5479 169.507 80.0409 170.715 81.7026 170.533Z" fill="#4870C0"/>
<path d="M99.872 162.413C98.2102 162.595 92.4505 164.598 92.6311 166.272C92.8124 167.944 98.865 168.654 100.527 168.472C102.188 168.29 103.389 166.786 103.208 165.113C103.027 163.44 101.533 162.232 99.872 162.413Z" fill="#4870C0"/>
<path d="M81.5117 162.875C82.8145 163.93 88.2946 166.615 89.3413 165.303C90.3887 163.991 86.6071 159.18 85.3043 158.125C84.0014 157.071 82.0967 157.279 81.0493 158.591C80.0026 159.903 80.2096 161.821 81.5117 162.875Z" fill="#4870C0"/>
<path d="M100.062 170.071C98.7596 169.017 93.2803 166.332 92.2329 167.643C91.1854 168.955 94.967 173.766 96.2699 174.821C97.5727 175.876 99.4774 175.667 100.524 174.355C101.572 173.044 101.365 171.126 100.062 170.071Z" fill="#4870C0"/>
<path d="M87.2139 175.813C88.2613 174.502 90.9279 168.984 89.6251 167.93C88.3222 166.875 83.5446 170.684 82.4965 171.995C81.4498 173.307 81.6568 175.225 82.9596 176.279C84.2625 177.334 86.1672 177.125 87.2139 175.813Z" fill="#4870C0"/>
<path d="M94.3604 157.134C93.3137 158.446 90.6464 163.963 91.95 165.017C93.2521 166.072 98.0304 162.264 99.0779 160.952C100.125 159.64 99.9176 157.721 98.6147 156.667C97.3126 155.613 95.4071 155.822 94.3604 157.134Z" fill="#4870C0"/>
<path d="M90.5101 164.62C90.1343 164.62 89.743 164.325 89.3614 163.85C89.0971 163.053 88.5393 162.089 87.9044 161.172C87.2849 159.667 86.8371 158.078 86.7557 157.324C86.7439 157.214 86.738 157.103 86.7373 156.994C86.7366 155.458 87.886 154.136 89.437 153.966C89.5478 153.954 89.6579 153.948 89.7673 153.948C91.2925 153.948 92.6042 155.105 92.7723 156.667C92.7906 156.837 92.8002 157.052 92.8002 157.302C92.8002 158.161 92.6915 159.431 92.4713 160.672C92.0471 161.705 91.7087 162.767 91.6206 163.603C91.5421 163.761 91.4599 163.904 91.3733 164.031C91.1406 164.371 90.8785 164.584 90.5871 164.617C90.5614 164.619 90.5358 164.62 90.5101 164.62Z" fill="#B4CAEC"/>
<path d="M91.8073 178.999C91.7405 178.999 91.6744 178.997 91.6084 178.993C91.2854 178.971 90.9742 178.898 90.6843 178.781C89.6809 178.374 88.9271 177.438 88.8023 176.281C88.784 176.111 88.7744 175.895 88.7744 175.645C88.7744 174.786 88.883 173.517 89.1032 172.276C89.5275 171.242 89.8666 170.179 89.954 169.344C90.2439 168.76 90.5881 168.374 90.9882 168.33C91.0139 168.327 91.0388 168.326 91.0652 168.326C91.441 168.326 91.8323 168.621 92.2139 169.096C92.4774 169.893 93.0353 170.857 93.6702 171.775C94.2897 173.279 94.7382 174.868 94.8189 175.622C94.8314 175.733 94.8373 175.843 94.8373 175.953C94.8387 177.489 93.6893 178.81 92.1383 178.981C92.0268 178.993 91.9167 178.999 91.8073 178.999Z" fill="#B4CAEC"/>
<path d="M81.3712 170.552C80.9741 170.552 80.591 170.473 80.2394 170.329C79.2404 169.921 78.491 168.988 78.3662 167.833C78.3545 167.722 78.3486 167.612 78.3486 167.503C78.3472 165.966 79.4966 164.645 81.0475 164.475C81.2171 164.456 81.4314 164.447 81.6817 164.447C82.5346 164.447 83.7934 164.556 85.0244 164.777C86.0512 165.205 87.1075 165.547 87.9369 165.634C88.5167 165.926 88.8991 166.273 88.9425 166.675C88.9454 166.701 88.9469 166.728 88.9469 166.753C88.9469 167.132 88.6533 167.526 88.182 167.91C87.3908 168.176 86.4329 168.737 85.5213 169.377C84.0283 170.001 82.4502 170.452 81.7023 170.533C81.5907 170.546 81.4806 170.552 81.3712 170.552Z" fill="#B4CAEC"/>
<path d="M99.895 168.5C99.0421 168.5 97.7826 168.391 96.5509 168.17C95.5241 167.742 94.4678 167.4 93.6377 167.312C93.0578 167.02 92.6747 166.674 92.6314 166.272C92.6284 166.245 92.627 166.219 92.627 166.193C92.6277 165.815 92.9206 165.421 93.3918 165.037C94.183 164.772 95.1416 164.21 96.0533 163.569C97.5462 162.946 99.1243 162.495 99.8723 162.413C99.9838 162.402 100.094 162.396 100.203 162.396C101.728 162.396 103.039 163.552 103.208 165.113C103.22 165.224 103.226 165.334 103.226 165.444C103.227 166.98 102.078 168.303 100.527 168.472C100.358 168.491 100.144 168.5 99.895 168.5Z" fill="#B4CAEC"/>
<path d="M88.3289 165.657C88.2048 165.657 88.0742 165.649 87.9369 165.635C87.1075 165.547 86.0513 165.205 85.0244 164.777C83.5307 164.155 82.0979 163.35 81.5115 162.875C80.7687 162.274 80.3826 161.392 80.3818 160.501C80.3811 159.83 80.5991 159.155 81.049 158.591C81.6473 157.842 82.5244 157.453 83.4096 157.453C84.0753 157.453 84.7447 157.673 85.304 158.125C85.8905 158.6 86.979 159.836 87.9039 161.172C88.5388 162.089 89.0966 163.054 89.3609 163.85C89.4643 164.163 89.5223 164.45 89.5223 164.698C89.5223 164.941 89.4658 165.147 89.341 165.303C89.1429 165.552 88.7861 165.657 88.3289 165.657Z" fill="#B4CAEC"/>
<path d="M98.1645 175.494C98.028 175.494 97.8907 175.484 97.7542 175.466C97.2279 175.393 96.7141 175.18 96.2701 174.821C95.9508 174.562 95.481 174.077 94.9709 173.473C94.5452 172.969 94.0908 172.382 93.6702 171.775C93.0353 170.857 92.4775 169.893 92.214 169.096C92.1105 168.784 92.0518 168.497 92.0518 168.249C92.0518 168.006 92.1083 167.8 92.2331 167.643C92.4312 167.395 92.7887 167.29 93.246 167.29C93.3693 167.29 93.5007 167.298 93.6372 167.312C94.4673 167.4 95.5236 167.742 96.5504 168.17C98.0434 168.791 99.4762 169.596 100.062 170.071C100.805 170.672 101.192 171.555 101.192 172.446C101.193 173.116 100.975 173.792 100.524 174.356C99.9268 175.104 99.0497 175.494 98.1645 175.494Z" fill="#B4CAEC"/>
<path d="M84.8539 176.952C84.1882 176.951 83.5188 176.732 82.9595 176.279C82.2167 175.678 81.8298 174.796 81.8291 173.905C81.8284 173.234 82.0464 172.559 82.4963 171.995C82.9683 171.404 84.1948 170.308 85.5211 169.377C86.4328 168.737 87.3906 168.176 88.1819 167.91C88.4924 167.806 88.7771 167.747 89.023 167.747C89.2645 167.747 89.4693 167.804 89.6249 167.929C89.8715 168.129 89.9758 168.489 89.9758 168.95C89.9758 169.074 89.9684 169.206 89.9538 169.344C89.8664 170.179 89.5273 171.242 89.103 172.276C88.485 173.78 87.6857 175.222 87.2137 175.813C86.8342 176.289 86.3417 176.619 85.8059 176.798C85.4984 176.9 85.1769 176.952 84.8539 176.952Z" fill="#B4CAEC"/>
<path d="M92.5514 165.2C92.3099 165.2 92.1051 165.143 91.9502 165.017C91.7029 164.818 91.5986 164.458 91.5986 163.997C91.5986 163.872 91.6067 163.741 91.6206 163.603C91.7087 162.767 92.0471 161.705 92.4714 160.672C93.0894 159.167 93.8894 157.724 94.3607 157.134C94.9581 156.384 95.836 155.995 96.7212 155.995C97.3862 155.995 98.0564 156.215 98.6149 156.667C99.3585 157.268 99.7446 158.151 99.7453 159.041C99.746 159.713 99.528 160.388 99.0781 160.952C98.6069 161.543 97.3796 162.639 96.0533 163.569C95.1416 164.21 94.183 164.772 93.3918 165.037C93.082 165.141 92.7973 165.2 92.5514 165.2Z" fill="#B4CAEC"/>
<path d="M87.2244 166.864C87.4387 168.845 89.2069 170.277 91.1748 170.061C93.1426 169.846 94.5644 168.065 94.35 166.083C94.1365 164.102 92.3675 162.67 90.3997 162.886C88.4318 163.102 87.0108 164.882 87.2244 166.864Z" fill="#4870C0"/>
<path d="M87.5774 213.948C83.4413 214.039 76.3655 210.192 73.5816 206.437C70.7562 202.627 78.6798 204.972 77.8577 201.977C77.0357 198.982 67.282 201.227 65.4685 196.936C63.6551 192.647 70.6995 193.614 70.4139 191.42C70.1281 189.225 62.8339 189.693 60.4785 185.135C58.1231 180.577 64.5479 183.116 63.5352 181.226C62.5223 179.338 54.456 171.398 57.8172 169.729C61.1781 168.059 68.7426 176.33 71.2715 177.248C72.3842 177.652 73.1185 176.769 73.8726 175.885C74.8322 174.761 75.8246 173.637 77.6691 175.166C80.9648 177.897 78.5389 189.879 82.4129 191.448C83.834 192.024 84.2538 190.987 84.7111 189.95C85.1823 188.882 85.6924 187.814 87.3792 188.511C93.1939 190.916 89.256 213.91 87.5774 213.948Z" fill="#4870C0"/>
<path d="M87.4409 213.949C81.7377 192.368 67.9112 178.571 67.7408 178.404C67.6775 178.342 67.5955 178.311 67.5129 178.311C67.4281 178.311 67.3432 178.344 67.2784 178.41C67.1525 178.54 67.1554 178.749 67.2847 178.876C67.4524 179.041 81.0734 192.642 86.7575 213.918C84.0329 213.68 80.3893 212.079 77.4563 210.023C75.8723 208.913 74.4961 207.669 73.5816 206.437C73.1512 205.857 72.9703 205.419 72.9701 205.084C72.9677 203.328 77.9172 204.375 77.918 202.386C77.918 202.262 77.8989 202.126 77.8578 201.977C77.2552 199.78 71.847 200.402 68.2913 199.197C67.0333 198.77 66.0073 198.116 65.5079 197.026C65.4944 196.997 65.4812 196.967 65.4686 196.936C65.2613 196.446 65.1699 196.025 65.1696 195.66C65.169 192.89 70.4271 193.342 70.4223 191.545C70.4223 191.505 70.4194 191.463 70.4139 191.42C70.1281 189.225 62.834 189.693 60.4786 185.135C60.1084 184.419 59.955 183.878 59.9559 183.467C59.9593 181.46 63.6428 182.574 63.6445 181.579C63.6448 181.482 63.6107 181.367 63.5352 181.226C62.7775 179.814 58.0744 175.016 57.1578 171.989C57.0583 171.661 57.0032 171.353 57.0029 171.073C57.0021 170.482 57.2429 170.015 57.8172 169.729C58.124 169.576 58.4655 169.507 58.8351 169.507C62.5168 169.507 68.9732 176.413 71.2715 177.248C71.4624 177.317 71.6426 177.349 71.8134 177.349C72.6371 177.349 73.2482 176.617 73.8726 175.885C74.4975 175.154 75.1361 174.422 76.014 174.422C76.4852 174.422 77.0254 174.633 77.6691 175.166C80.9648 177.897 78.5389 189.879 82.413 191.448C82.6948 191.562 82.9371 191.613 83.1477 191.613C84.0021 191.613 84.3441 190.782 84.7111 189.95C85.0774 189.12 85.4679 188.288 86.417 188.288C86.6878 188.288 87.0042 188.356 87.3792 188.511C89.008 189.185 89.8719 191.475 90.2345 194.423C90.2536 195.619 90.3233 196.824 90.4444 198.016C90.4451 198.098 90.4451 198.181 90.4451 198.263C90.4451 200.844 90.2066 203.589 89.8543 206.048C89.5049 208.489 89.0432 210.648 88.5896 212.089C88.2263 213.246 87.8681 213.941 87.5774 213.948C87.5319 213.948 87.4864 213.949 87.4409 213.949Z" fill="#658ACF"/>
<path d="M93.5199 208.663C93.5896 208.78 92.9701 209.37 95.0121 209.455C100.04 209.664 108.932 209.322 112.271 204.718C117.037 198.145 106.043 198.748 107.112 195.124C108.181 191.5 119.993 194.459 122.299 189.284C124.604 184.11 116.013 185.12 116.411 182.457C116.81 179.795 125.823 183.245 128.794 177.756C131.765 172.267 123.891 175.204 125.167 172.93C126.443 170.656 136.439 161.189 132.389 159.078C128.339 156.968 118.946 166.851 115.849 167.909C114.443 168.388 113.528 166.654 112.566 164.92C111.41 162.832 110.187 160.745 107.964 162.517C103.892 165.76 106.564 180.393 101.816 182.209C99.8778 182.951 99.5805 181.712 98.9904 180.473C98.5037 179.451 97.8167 178.429 95.843 178.52C89.9145 178.794 87.9642 199.311 93.5199 208.663Z" fill="#4870C0"/>
<path d="M97.1722 209.5C97.0943 209.5 97.0173 209.5 96.9402 209.5C96.2539 209.497 95.6058 209.48 95.012 209.455C94.6494 209.44 94.3705 209.409 94.1569 209.367C93.591 209.258 93.4831 209.074 93.4831 208.919C93.4831 208.823 93.5256 208.737 93.5256 208.688C93.5256 208.678 93.5234 208.67 93.5198 208.663C91.844 205.842 90.8509 202.006 90.4443 198.016C90.3232 196.824 90.2535 195.619 90.2344 194.423C90.23 194.184 90.2285 193.945 90.2285 193.707C90.2292 185.898 92.3432 178.682 95.8429 178.52C95.9258 178.516 96.0058 178.514 96.0836 178.514C97.8739 178.514 98.5234 179.494 98.9903 180.473C99.4571 181.453 99.7404 182.433 100.797 182.433C101.077 182.433 101.41 182.365 101.815 182.209C106.564 180.393 103.892 165.76 107.963 162.517C108.552 162.048 109.07 161.849 109.536 161.849C110.829 161.849 111.716 163.385 112.566 164.92C113.417 166.454 114.232 167.989 115.383 167.989C115.532 167.989 115.687 167.964 115.849 167.909C118.649 166.952 126.595 158.784 131.085 158.784C131.562 158.784 132 158.876 132.389 159.078C133.065 159.431 133.35 159.988 133.349 160.684C133.347 161.708 132.724 163.032 131.82 164.437C129.666 167.785 125.916 171.596 125.167 172.93C125.07 173.103 125.026 173.246 125.026 173.365C125.027 174.554 129.465 173.317 129.469 175.702C129.47 176.206 129.273 176.872 128.794 177.756C127.396 180.339 124.66 180.943 122.114 181.135C120.327 181.27 118.633 181.203 117.56 181.475C116.912 181.639 116.491 181.927 116.411 182.457C116.402 182.517 116.398 182.575 116.398 182.632C116.394 184.782 122.699 184.384 122.692 187.693C122.691 188.148 122.571 188.672 122.298 189.284C122.243 189.41 122.181 189.531 122.114 189.647C121.261 191.13 119.542 191.868 117.56 192.296C114.759 192.901 111.432 192.889 109.279 193.497C109.144 193.534 109.014 193.575 108.888 193.619C107.973 193.934 107.326 194.396 107.112 195.124C107.062 195.294 107.039 195.454 107.039 195.606C107.039 198.123 113.476 198.43 113.475 201.804C113.474 202.588 113.127 203.537 112.271 204.718C111.439 205.865 110.263 206.747 108.888 207.422C108.027 207.846 107.087 208.187 106.105 208.462C103.188 209.277 99.8982 209.5 97.1722 209.5Z" fill="#799BD7"/>
<path d="M89.7512 226.582L89.724 226.579C89.5457 226.558 89.4179 226.394 89.44 226.213C93.5673 192.201 113.023 178.377 113.219 178.241C113.368 178.138 113.571 178.176 113.673 178.326C113.776 178.475 113.738 178.681 113.589 178.784C113.396 178.918 94.1779 192.593 90.0888 226.293C90.0683 226.464 89.92 226.589 89.7512 226.582Z" fill="#1D2A30"/>
<path d="M108.792 182.967C108.659 182.961 108.537 182.874 108.494 182.739C108.438 182.567 108.531 182.381 108.704 182.324C108.824 182.285 111.722 181.362 116.469 182.377C116.645 182.415 116.758 182.589 116.721 182.767C116.684 182.944 116.51 183.06 116.333 183.021C111.771 182.047 108.933 182.942 108.905 182.95L108.792 182.967Z" fill="#1D2A30"/>
<path d="M105.195 187.098C105.022 187.091 104.883 186.948 104.881 186.772C104.781 176.486 110.694 168.449 110.754 168.369C110.862 168.224 111.068 168.194 111.212 168.304C111.356 168.413 111.385 168.62 111.276 168.765C111.219 168.843 105.438 176.71 105.535 186.765C105.537 186.947 105.393 187.097 105.212 187.098H105.195Z" fill="#1D2A30"/>
<path d="M99.4019 195.804C99.3189 195.801 99.2382 195.766 99.1773 195.7C99.0532 195.568 99.0591 195.36 99.1898 195.235C99.2338 195.194 103.612 191.118 109.344 193.187C109.514 193.248 109.602 193.437 109.541 193.607C109.48 193.779 109.293 193.868 109.124 193.807C103.764 191.871 99.6793 195.676 99.639 195.715C99.5722 195.777 99.4863 195.807 99.4019 195.804Z" fill="#1D2A30"/>
<path d="M96.3727 201.877C96.2508 201.872 96.1363 201.797 96.085 201.677C95.9932 201.461 93.8499 196.289 95.0309 188.921C95.0596 188.742 95.2218 188.617 95.406 188.649C95.5844 188.678 95.7055 188.847 95.6769 189.026C94.5267 196.195 96.6648 201.368 96.6868 201.419C96.7573 201.586 96.6802 201.779 96.5136 201.85L96.3727 201.877Z" fill="#1D2A30"/>
<path d="M89.8826 238.731C89.713 238.724 89.5751 238.586 89.5699 238.412L89.1457 229.403C87.8935 199.45 67.49 179.078 67.2844 178.876C67.1551 178.749 67.1522 178.54 67.2781 178.41C67.4054 178.28 67.6118 178.278 67.7405 178.404C67.9484 178.608 88.5357 199.155 89.7982 229.38L90.2232 238.391C90.2283 238.573 90.0874 238.725 89.9061 238.731L89.8826 238.731Z" fill="#1D2A30"/>
<path d="M75.7002 190.128L75.6459 190.121L75.5512 190.085L75.4455 190.042C72.7746 188.924 69.7899 188.344 67.0434 188.405C66.8596 188.414 66.7131 188.265 66.7091 188.083C66.705 187.901 66.8481 187.751 67.0287 187.746C69.8653 187.685 72.9429 188.281 75.6965 189.434L75.8052 189.478L75.8617 189.505C75.9901 189.57 76.0643 189.718 76.0334 189.867C76.0004 190.027 75.8565 190.134 75.7002 190.128Z" fill="#1D2A30"/>
<path d="M78.5851 193.986L78.5689 193.985C78.3891 193.968 78.2562 193.809 78.2724 193.627C79.0629 184.787 74.5158 177.512 74.4695 177.44C74.3723 177.287 74.4167 177.084 74.5686 176.985C74.7213 176.888 74.9231 176.933 75.02 177.085C75.0677 177.159 79.7345 184.615 78.9242 193.687C78.908 193.862 78.7583 193.994 78.5851 193.986Z" fill="#1D2A30"/>
<path d="M81.5625 199.107C81.4833 199.104 81.404 199.071 81.3438 199.011C81.3108 198.976 77.9975 195.683 73.1486 196.984C72.9735 197.033 72.7954 196.926 72.7484 196.751C72.7019 196.575 72.806 196.395 72.98 196.347C78.2074 194.943 81.6646 198.4 81.8092 198.547C81.9361 198.677 81.9347 198.885 81.8062 199.013C81.7394 199.079 81.6506 199.11 81.5625 199.107Z" fill="#1D2A30"/>
<path d="M85.3416 207.548L85.2036 207.511C85.0436 207.425 84.982 207.227 85.0657 207.066C85.0884 207.023 87.3337 202.602 86.8214 196.227C86.8067 196.045 86.941 195.887 87.1216 195.873C87.3022 195.85 87.4592 195.993 87.4732 196.174C88.0017 202.749 85.7417 207.185 85.6448 207.371C85.5846 207.487 85.4642 207.553 85.3416 207.548Z" fill="#1D2A30"/>
<path d="M108.28 240.15C108.28 250.656 103.587 259.176 89.3762 259.176C75.8127 259.176 70.4727 250.656 70.4727 240.15C70.4727 236.187 71.6818 232.5 73.739 229.453H105.013C107.071 232.5 108.28 236.187 108.28 240.15Z" fill="#4870C0"/>
<path d="M89.3762 259.176C75.8127 259.176 70.4727 250.656 70.4727 240.15C70.4727 236.187 71.6818 232.5 73.739 229.453H105.013C107.071 232.5 108.28 236.187 108.28 240.15C108.28 241.264 108.227 242.356 108.115 243.418C108.109 243.48 108.102 243.541 108.095 243.603C107.106 252.461 101.992 259.176 89.3762 259.176Z" fill="#C7D9F2"/>
<path d="M216.87 249.888L224.182 248.813L222.335 231.59L215.023 232.665L216.87 249.888Z" fill="#F7B5BF"/>
<path d="M230.83 247.344C230.94 247.316 231.055 247.32 231.163 247.353C231.24 247.378 231.298 247.442 231.314 247.522C231.375 247.726 231.334 247.947 231.206 248.115C230.83 248.587 229.636 248.853 227.972 248.852C228.839 248.185 229.813 247.671 230.852 247.333L230.83 247.344ZM229.802 249.07C230.437 249.024 231.037 248.761 231.504 248.325C231.704 248.072 231.767 247.736 231.673 247.426C231.631 247.233 231.492 247.075 231.306 247.01C230.329 246.658 227.655 248.642 227.357 248.866C227.299 248.913 227.274 248.99 227.292 249.062C227.316 249.132 227.382 249.178 227.456 249.179C228.239 249.215 229.024 249.179 229.802 249.07Z" fill="#4870C0"/>
<path d="M228.725 245.921L228.823 245.874C229.146 245.861 229.183 245.981 229.194 246.023C229.366 246.512 228.397 247.953 227.589 248.619C227.514 247.77 227.71 246.921 228.147 246.192C228.303 246.028 228.515 245.928 228.74 245.913L228.725 245.921ZM227.496 249.187L227.556 249.158C228.367 248.621 229.83 246.746 229.555 245.936C229.471 245.754 229.318 245.522 228.828 245.551C228.473 245.556 228.137 245.714 227.904 245.984C227.113 246.899 227.27 248.916 227.271 248.998L227.345 249.157L227.496 249.187Z" fill="#4870C0"/>
<path d="M223.434 245.764L216.951 247.319C216.658 247.38 216.46 247.653 216.49 247.953L216.7 257.399C216.791 258.06 217.396 258.523 218.054 258.433L218.189 258.406C220.997 257.701 222.323 257.221 225.894 256.392C228.082 255.885 235.016 255.358 237.856 254.085C240.697 252.812 239.591 249.912 238.295 250.186C234.128 251.089 228.775 249.293 225.734 246.559C225.322 246.355 223.879 245.647 223.434 245.764Z" fill="#1D2A30"/>
<path d="M215.947 241.283L215.679 238.799H215.681L215.947 241.283Z" fill="#CECDCC"/>
<path d="M215.976 241.55L215.947 241.283L215.681 238.799L222.96 237.43L223.286 240.468L215.976 241.55Z" fill="#C48F94"/>
<path d="M226.239 236.814L212.713 239.358C212.713 239.358 206.144 229.913 204.905 223.208C203.615 216.226 204.993 192.454 204.905 192.139C201.079 179.132 190.683 145.425 185.663 133.022C182.884 126.149 180.933 121.521 180.933 121.521L182.338 121.203L193.38 116.649L201.426 118.176C201.426 118.176 225.878 167.966 228.44 186.695C230.354 200.679 226.239 236.814 226.239 236.814Z" fill="#4870C0"/>
<path d="M212.713 239.358C212.713 239.358 206.144 229.913 204.905 223.208C204.49 220.961 204.351 216.977 204.35 212.594C204.35 203.782 204.91 193.362 204.909 192.236C204.909 192.181 204.908 192.149 204.905 192.139C203.341 186.823 200.68 178.048 197.737 168.685C199.273 173.069 200.648 177.234 201.718 180.874C201.719 180.877 201.72 180.878 201.72 180.878C201.796 180.878 201.187 164.107 195.458 153.017L195.062 152.134C196.097 143.212 196.382 135.956 196.382 130.66C196.382 124.096 195.942 120.538 195.942 120.538L184.01 120.514L186.462 119.503C192.307 119.308 198.811 119.022 201.416 118.654C201.416 118.654 201.422 118.489 201.433 118.19C201.889 119.121 225.902 168.144 228.44 186.695C228.801 189.33 228.947 192.753 228.948 196.572C228.948 202.342 228.615 209.017 228.183 215.252C227.637 223.102 226.935 230.254 226.541 234.023C226.535 234.085 226.528 234.147 226.522 234.207C226.348 235.863 226.24 236.814 226.24 236.814L222.96 237.431L215.681 238.799H215.679L212.713 239.358Z" fill="#799BD7"/>
<path d="M197.737 168.685C196.618 165.487 195.412 162.175 194.178 158.864C194.223 158.554 194.268 158.242 194.312 157.935C195.464 161.498 196.621 165.134 197.737 168.685Z" fill="#CECDCC"/>
<path d="M201.721 180.878C201.72 180.878 201.719 180.877 201.719 180.874C200.648 177.234 199.273 173.069 197.737 168.685C196.622 165.134 195.465 161.498 194.312 157.935C194.598 155.93 194.846 153.996 195.062 152.134L195.458 153.017C201.187 164.107 201.796 180.878 201.721 180.878Z" fill="#597EC8"/>
<path d="M142.348 245.831L148.863 248.597L155.817 233.571L149.302 230.807L142.348 245.831Z" fill="#F7B5BF"/>
<path d="M154.872 250.994C154.972 251.035 155.059 251.103 155.125 251.19C155.17 251.253 155.178 251.336 155.147 251.406C155.078 251.598 154.924 251.745 154.729 251.803C154.175 251.954 153.103 251.48 151.819 250.532C152.863 250.51 153.903 250.668 154.896 250.999L154.872 250.994ZM153.108 251.741C153.626 252.067 154.237 252.205 154.842 252.136C155.139 252.053 155.376 251.829 155.476 251.537C155.553 251.364 155.535 251.162 155.428 251.006C154.87 250.179 151.692 250.189 151.336 250.192C151.265 250.195 151.202 250.239 151.176 250.306C151.156 250.374 151.18 250.448 151.237 250.489C151.822 250.964 152.449 251.382 153.108 251.741Z" fill="#4870C0"/>
<path d="M154.046 248.696L154.147 248.717C154.404 248.89 154.366 249.004 154.35 249.042C154.208 249.518 152.651 250.079 151.654 250.133C152.073 249.435 152.7 248.891 153.447 248.577C153.66 248.539 153.879 248.583 154.062 248.699L154.046 248.696ZM151.263 250.519L151.326 250.532C152.254 250.578 154.436 249.962 154.678 249.181C154.715 248.993 154.728 248.726 154.333 248.469C154.055 248.271 153.707 248.202 153.376 248.279C152.251 248.534 151.241 250.181 151.196 250.245L151.164 250.41L151.263 250.519Z" fill="#4870C0"/>
<path d="M150.048 245.564L144.168 243.074C143.909 242.955 143.603 243.054 143.459 243.301L138.318 250.715C138.016 251.277 138.224 251.979 138.783 252.283L138.902 252.34C141.467 253.394 142.759 253.777 145.982 255.17C147.957 256.024 153.606 259.564 156.514 260.197C159.422 260.831 160.195 257.963 159.04 257.436C155.316 255.761 152.192 251.328 151.378 247.487C151.174 247.095 150.457 245.727 150.048 245.564Z" fill="#1D2A30"/>
<path d="M152.332 241.402L152.217 241.351L152.985 239.689L153.136 239.77L152.332 241.402Z" fill="#CECDCC"/>
<path d="M152.217 241.351L145.882 238.488L146.898 236.422L152.985 239.689L152.217 241.351Z" fill="#C48F94"/>
<path d="M157.459 242.09L144.482 235.124C144.482 235.124 141.993 225.821 144.482 219.887C149.27 208.465 161.729 191.673 161.813 191.356C165.137 178.211 170.969 142.21 172.96 128.968C174.066 121.629 174.716 120.047 174.716 120.047L176.085 120.498L195.941 120.538C195.941 120.538 199.688 150.818 185.331 197.7C181.759 209.365 175.774 219.064 165.927 232.184C162.188 237.167 157.459 242.09 157.459 242.09Z" fill="#4870C0"/>
<path d="M157.459 242.09L152.985 239.689L146.898 236.421L144.482 235.124C144.482 235.124 143.375 230.985 143.376 226.468C143.377 224.212 143.653 221.863 144.482 219.887C149.27 208.465 161.729 191.673 161.813 191.356C165.137 178.211 170.969 142.21 172.96 128.968C174.066 121.629 174.716 120.047 174.716 120.047L176.085 120.498L195.941 120.538C195.941 120.538 196.382 124.095 196.382 130.66C196.382 135.956 196.096 143.212 195.061 152.134C194.846 153.996 194.597 155.93 194.312 157.935C194.268 158.242 194.223 158.554 194.178 158.864C193.195 165.572 191.803 173.042 189.847 181.181C188.588 186.419 187.097 191.934 185.331 197.7C185.318 197.742 185.306 197.783 185.293 197.825C184.136 201.578 182.729 205.131 181.022 208.66C179.061 212.715 176.703 216.744 173.877 221.016C172.179 223.584 170.312 226.239 168.258 229.042C167.506 230.069 166.73 231.115 165.927 232.184C165.464 232.801 164.987 233.416 164.504 234.022C164.456 234.084 164.406 234.146 164.357 234.207C160.987 238.418 157.459 242.09 157.459 242.09Z" fill="#799BD7"/>
<path d="M213.534 95.7965C213.679 93.551 215.158 90.6581 216.433 89.3218C216.843 88.8938 218.392 88.2441 219.269 87.6691C223.58 84.8205 232.209 81.2675 232.209 81.2675L234.872 83.6053C234.872 83.6053 229.616 88.7216 226.489 91.1755C225.874 91.6567 225.162 92.2428 224.413 92.8607C223.053 94.0034 216.651 98.2563 215.429 99.3214L213.534 95.7965Z" fill="#F7B5BF"/>
<path d="M239.801 79.9451L234.876 83.6097L232.112 81.5609C232.112 81.5609 233.24 80.1144 234.399 78.9939C234.907 78.5016 235.182 77.8231 235.189 77.1135C235.198 76.0211 235.361 74.7535 235.951 73.8237L235.986 73.7653C237.055 72.1451 239.551 72.6322 240.056 74.5059L240.767 77.1505C241.047 78.1934 240.664 79.3028 239.801 79.9451Z" fill="#F7B5BF"/>
<path d="M215.109 96.787L213.811 97.9858C213.406 97.6591 212.765 97.1358 211.957 96.4603C205.629 91.1711 189.768 78.3413 196.091 74.6789C201.511 71.5406 207.267 81.1448 210.139 84.0296C210.723 84.6254 212.324 86.485 213.616 88.817C214.965 91.2657 215.968 94.2296 215.109 96.787Z" fill="#1D2A30"/>
<path d="M213.613 87.6691C211.367 89.3218 209.45 91.4253 208.008 93.8194C209.048 97.291 211.668 100.311 214.971 101.755C216.781 97.5246 217.624 92.9767 217.266 88.3845C216.121 88.1362 214.758 87.9174 213.613 87.6691Z" fill="#1D2A30"/>
<path d="M178.781 73.9324C176.517 74.6648 173.926 74.078 172.473 75.9731C171.02 77.8682 170.584 80.3694 170.586 82.7635C170.59 86.0932 171.346 89.3698 172.097 92.6123C173.009 96.543 173.921 100.474 174.832 104.406C175.455 107.093 174.8 119.588 175.464 119.798C175.464 119.798 196.214 119.389 201.416 118.654C201.416 118.654 201.868 105.809 202.285 101.435C202.378 100.463 203.841 96.342 204.014 95.3072C204.824 90.4268 203.236 86.9854 201.557 82.3355C201.557 82.3355 197.882 74.8858 196.09 74.6826C192.897 74.3189 185.088 71.8909 178.781 73.9324Z" fill="#1D2A30"/>
<path d="M177.908 80.0959C177.834 79.6621 174.152 72.171 170.622 77.4077C165.71 84.6955 165.378 93.8459 165.378 93.8459C165.378 93.8459 162.359 102.744 164.463 104.686C166.567 106.629 168.835 107.88 170.306 106.778C171.775 105.676 172.728 103.475 172.728 103.475C172.728 103.475 179.198 87.72 177.908 80.0959Z" fill="#1D2A30"/>
<path d="M177.67 71.154C176.12 72.3713 176.324 75.1918 178.033 76.1704C177.603 77.6812 178.105 79.4196 179.272 80.4625C180.44 81.5062 182.213 81.8033 183.652 81.195C183.03 82.317 183.731 83.7997 184.805 84.4945C185.879 85.1893 187.206 85.3149 188.471 85.4864C189.736 85.6571 191.073 85.9314 191.991 86.8242C193.298 84.9298 194.606 83.0347 195.914 81.1403C196.424 80.4019 196.952 79.6111 196.991 78.713C197.031 77.815 196.353 76.8253 195.463 76.8911C196.367 75.9413 196.386 74.276 195.503 73.3063C194.619 72.3366 192.97 72.2124 191.952 73.0395C192.135 72.2797 191.693 71.4733 191.057 71.0268C190.42 70.5804 189.626 70.4281 188.854 70.352L177.67 71.154Z" fill="#1D2A30"/>
<path d="M180.024 61.5076C181.044 65.2793 182.283 72.2338 179.807 74.9826C179.807 74.9826 186.815 77.8083 191.795 83.4789C194.113 81.2105 193.873 78.6627 193.162 76.7994C192.612 75.3559 191.43 74.2849 190.016 73.6803C187.288 72.5124 187.265 69.8087 187.719 67.2166L180.024 61.5076Z" fill="#F7B5BF"/>
<path d="M182.573 70.009C182.153 69.4687 181.783 68.5286 181.551 67.9299L182.319 68.1405C182.531 68.2462 182.752 68.3489 182.982 68.4502C183.487 68.6727 183.993 68.8478 184.495 68.9787C183.902 69.2876 183.395 69.5441 183.395 69.5441L183.417 69.5737L183.422 69.5796L183.419 69.5803L182.573 70.009Z" fill="#C48F94"/>
<path d="M175.021 58.2961C177.75 64.0939 178.782 66.6047 182.982 68.4503C189.309 71.2397 195.765 66.5832 194.809 60.0811C193.949 54.2346 189.629 45.7339 182.914 45.7036C178.115 45.6563 174.187 49.5345 174.139 54.3677C174.126 55.7284 174.428 57.0736 175.021 58.2961Z" fill="#F7B5BF"/>
<path d="M178.02 47.2239C176.031 46.2889 173.562 47.051 171.906 48.5174C170.222 50.0105 169.197 52.097 168.213 54.1281C167.679 55.2317 167.14 56.35 166.892 57.5525C166.644 58.7543 166.716 60.07 167.347 61.121C167.966 62.1514 169.116 62.8277 170.306 62.8972C170.99 62.9371 171.791 63.4352 172.013 64.0886C172.218 64.6955 172.121 65.3525 172.024 65.983C171.931 66.5935 171.842 67.2307 172.033 67.8175C172.349 68.7932 173.385 69.3852 174.401 69.4843C175.416 69.5833 176.423 69.2877 177.4 68.995C178.019 68.8095 178.643 68.9166 179.124 69.3512C179.244 69.4599 179.343 69.59 179.417 69.7334C179.721 70.3151 180.601 70.2234 180.855 69.6173C181.743 67.4923 180.45 64.0945 178.525 61.5017C177.503 60.1254 177.558 60.4758 177.157 58.8061C176.823 57.4158 177.328 55.9663 177.947 54.6788C178.772 52.9618 179.832 51.2869 179.505 49.2373C179.366 48.3703 178.81 47.595 178.02 47.2239Z" fill="#1D2A30"/>
<path d="M175.194 64.2276C176.1 65.1973 177.349 65.7657 178.67 65.8078C180.423 65.8463 180.868 64.1625 180.021 62.7264C179.257 61.4315 177.425 59.8564 175.838 60.4824C174.251 61.1077 174.09 63.0184 175.194 64.2276Z" fill="#F7B5BF"/>
<path d="M185.993 57.2643C186.195 57.7721 186.595 58.0404 186.913 57.9103C187.229 57.7795 187.308 57.2976 187.132 56.8046C186.956 56.3123 186.53 56.0336 186.212 56.1593C185.893 56.2849 185.802 56.7816 185.993 57.2643Z" fill="#1D2A30"/>
<path d="M191.365 54.936C191.561 55.4453 191.967 55.7121 192.279 55.5827C192.591 55.4534 192.675 54.97 192.499 54.4777C192.323 53.9855 191.897 53.7068 191.583 53.831C191.271 53.9544 191.169 54.4541 191.365 54.936Z" fill="#1D2A30"/>
<path d="M191.445 53.9189L192.466 53.1148C192.466 53.1148 192.246 54.2589 191.445 53.9189Z" fill="#1D2A30"/>
<path d="M189.97 56.0218C191.217 57.262 192.156 57.4889 193.506 58.3404C193.467 59.5474 192.338 59.8246 192.338 59.8246L189.97 56.0218Z" fill="#F46878"/>
<path d="M191.768 62.1913C192.001 62.1033 192.226 61.9961 192.441 61.8712C192.513 61.8328 192.539 61.7448 192.501 61.6739L192.497 61.6665C192.455 61.5963 192.367 61.5689 192.293 61.6044C191.155 62.2696 189.768 62.3435 188.567 61.8025C188.491 61.7618 188.398 61.7906 188.358 61.866C188.318 61.9422 188.346 62.036 188.421 62.076C189.477 62.5638 190.682 62.6059 191.768 62.1913Z" fill="#1D2A30"/>
<path d="M185.792 53.2404C185.784 53.3786 185.69 53.4961 185.557 53.5331C184.149 53.9537 183.525 55.7534 183.521 55.7675C183.466 55.9345 183.286 56.0247 183.121 55.9685C182.955 55.9131 182.865 55.732 182.921 55.565C182.975 55.497 183.656 53.4341 185.372 52.9174C185.54 52.8694 185.714 52.9654 185.766 53.1325L185.792 53.2404Z" fill="#1D2A30"/>
<path d="M192.287 52.3697C192.17 52.4422 192.02 52.4318 191.915 52.3424C190.769 51.4178 188.945 51.9255 188.931 51.9315C188.763 51.981 188.587 51.8834 188.538 51.7142C188.489 51.5456 188.586 51.3682 188.753 51.3187C188.841 51.3254 190.913 50.7134 192.312 51.8391C192.446 51.9507 192.467 52.1502 192.36 52.2877L192.287 52.3697Z" fill="#1D2A30"/>
<path d="M186.084 56.2443L187.105 55.4453C187.105 55.4453 186.873 56.588 186.084 56.2443Z" fill="#1D2A30"/>
<path d="M178.458 46.2557C176.854 46.385 175.333 47.303 174.464 48.666C173.88 49.5803 173.675 50.9706 174.538 51.6232C174.941 51.9285 175.474 51.9832 175.976 52.0275C178.211 52.2249 180.965 50.4872 180.965 50.4872C180.104 46.8145 187.757 43.9718 191.53 49.6616C192.638 51.3335 192.339 52.5479 194.182 53.3203C195.049 53.6839 196.192 53.5834 196.749 54.3462C197.67 55.613 195.898 57.7573 197.024 58.8445C197.794 59.5881 199.539 59.3035 199.646 60.373C199.697 60.8756 199.37 61.6022 199.85 61.7493C200.115 61.8306 200.361 61.5859 200.532 61.3664C200.947 60.8357 201.374 60.2806 201.517 59.6206C201.659 58.9613 201.426 58.166 200.816 57.8866C200.347 57.6715 199.106 57.9117 199.191 58.4232C199.292 59.0396 198.767 56.0174 199.002 54.8754C199.207 53.8813 200.15 53.0194 199.864 52.046C199.559 51.0068 198.333 50.5921 197.269 50.4325C196.205 50.2743 194.997 50.1442 194.343 49.2839C193.613 48.3223 193.945 46.9505 193.711 45.7634C193.413 44.2541 192.162 43.0782 190.759 42.4662C186.505 40.6087 179.923 40.8719 178.458 46.2557Z" fill="#1D2A30"/>
<path d="M188.119 97.1957C184.847 98.4854 181.152 96.8608 179.87 93.5658C178.587 90.2715 180.201 86.5552 183.473 85.2654C186.746 83.9756 190.438 85.6002 191.721 88.8945C193.003 92.1888 191.391 95.9059 188.119 97.1957ZM190.544 65.9779L175.868 73.4024C171.043 75.843 168.86 81.5823 170.832 86.6453L177.91 104.823C179.881 109.886 185.358 112.606 190.547 111.099L206.329 106.516C212.244 104.799 215.41 98.3354 213.163 92.565L204.978 71.5465C202.731 65.7761 196.044 63.1958 190.544 65.9779Z" fill="#4870C0"/>
<path d="M188.119 97.1957C184.847 98.4854 181.152 96.8608 179.87 93.5658C178.587 90.2715 180.201 86.5552 183.473 85.2654C186.746 83.9756 190.438 85.6002 191.721 88.8945C193.003 92.1888 191.391 95.9059 188.119 97.1957ZM190.544 65.9779L175.868 73.4024C171.043 75.843 168.86 81.5823 170.832 86.6453L177.91 104.823C179.881 109.886 185.358 112.606 190.547 111.099L206.329 106.516C212.244 104.799 215.41 98.3354 213.163 92.565L204.978 71.5465C202.731 65.7761 196.044 63.1958 190.544 65.9779Z" fill="#4870C0"/>
<path d="M201.876 107.811C201.876 107.81 201.876 107.81 201.876 107.81L206.33 106.516C206.659 106.421 206.979 106.311 207.29 106.186C206.979 106.311 206.661 106.421 206.334 106.517L201.876 107.811Z" fill="white"/>
<path d="M187.65 111.514C183.446 111.514 179.516 108.947 177.907 104.824L174.973 97.2888C174.973 97.2873 174.974 97.2858 174.975 97.2836L177.91 104.823C179.515 108.944 183.443 111.513 187.647 111.513C188.608 111.513 189.582 111.38 190.547 111.099L201.876 107.81C201.876 107.81 201.876 107.81 201.876 107.811L190.547 111.101C189.583 111.38 188.61 111.514 187.65 111.514Z" fill="#304047"/>
<path d="M174.973 97.2888L170.829 86.6469C170.005 84.527 169.908 82.2897 170.429 80.2253C170.217 81.0657 170.108 81.9349 170.108 82.8137C170.11 84.0924 170.343 85.3896 170.832 86.6454L174.975 97.2837C174.974 97.2859 174.973 97.2873 174.973 97.2888Z" fill="#304047"/>
<path d="M211.829 89.1392L210.485 85.6874L210.606 85.9964L211.829 89.1392Z" fill="#304047"/>
<path d="M213.887 96.2223C213.866 95.0057 213.633 93.7706 213.164 92.5651L211.829 89.1392L211.985 89.5384H211.985L213.166 92.5673C213.633 93.7728 213.866 95.0072 213.887 96.2223Z" fill="#304047"/>
<path d="M180.748 70.933L181.221 70.6928C181.221 70.6935 181.221 70.6942 181.221 70.6942L180.75 70.933H180.748Z" fill="white"/>
<path d="M178.99 71.8236L180.748 70.933H180.75L178.99 71.8236Z" fill="#304047"/>
<path d="M181.222 70.6942C181.222 70.6942 181.222 70.6935 181.222 70.6927L182.573 70.009C182.573 70.0098 182.574 70.0098 182.574 70.0105L181.222 70.6942Z" fill="#F8BDC7"/>
<path d="M182.574 70.0105C182.574 70.0098 182.573 70.0098 182.573 70.009L183.419 69.5803L183.422 69.5796L183.422 69.5811L182.574 70.0105Z" fill="#CC9BA0"/>
<path d="M202.462 67.7673C200.516 65.9003 197.912 64.8544 195.229 64.8544C194.843 64.8544 194.456 64.8759 194.068 64.9195L194.069 64.9187C194.457 64.8744 194.845 64.853 195.231 64.853C197.913 64.853 200.517 65.8988 202.462 67.7673Z" fill="white"/>
<path d="M190.822 65.8425C191.878 65.3458 192.973 65.0428 194.069 64.9186L194.069 64.9194C192.973 65.0435 191.878 65.3466 190.822 65.8425Z" fill="#F8BDC7"/>
<path d="M187.647 111.513C183.443 111.513 179.515 108.944 177.91 104.823L174.975 97.2836L170.832 86.6453C170.343 85.3895 170.11 84.0924 170.108 82.8137C170.108 81.9349 170.217 81.0657 170.429 80.2253C171.035 77.8209 172.477 75.6515 174.581 74.1762L175.407 75.279C172.939 77.1616 171.528 80.0981 171.53 83.1507C171.531 84.3503 171.75 85.5669 172.208 86.7451L178.847 103.792C180.352 107.658 184.036 110.068 187.98 110.068C188.88 110.068 189.794 109.942 190.699 109.68L199.316 107.177L200.155 108.297C200.155 108.297 207.839 105.943 208.005 105.863C208.005 105.831 207.713 105.423 207.191 104.716C207.814 104.402 208.393 104.026 208.922 103.598L209.787 104.751C210.566 104.155 211.244 103.458 211.814 102.681C211.576 102.358 211.267 101.941 210.895 101.443C211.984 99.8255 212.589 97.8963 212.591 95.9036C212.591 94.7055 212.374 93.4852 211.91 92.296L207.41 80.7397L209.35 85.6423L209.503 85.7089L210.361 85.3688L209.503 85.7089L210.361 85.3688L210.485 85.6874L213.163 92.565C213.632 93.7705 213.866 95.0056 213.887 96.2222C213.887 96.223 213.887 96.2237 213.887 96.2244C213.887 96.2281 213.887 96.2311 213.887 96.234C213.887 96.2385 213.887 96.2422 213.887 96.2459C213.887 96.2481 213.887 96.2496 213.887 96.251C213.922 98.5867 213.175 100.848 211.816 102.688C211.246 103.466 210.569 104.163 209.789 104.758C209.04 105.339 208.204 105.822 207.29 106.186C206.979 106.311 206.659 106.421 206.33 106.516L201.876 107.81L190.547 111.099C189.582 111.38 188.608 111.513 187.647 111.513ZM207.401 80.716L206.225 77.6952L206.959 79.5571L207.945 79.1683L208.351 80.2105L207.467 80.5608L207.401 80.716ZM205.453 75.7129L204.234 72.5827C202.706 68.6586 198.986 66.3067 195.09 66.3067C193.614 66.3067 192.114 66.6445 190.696 67.3615L186.965 69.2492C186.617 68.7252 186.383 68.3453 186.284 68.1346L190.547 65.9771C190.638 65.9305 190.73 65.8862 190.822 65.8426C192.25 65.1714 193.752 64.8544 195.229 64.8544C197.912 64.8544 200.516 65.9002 202.462 67.7673C203.53 68.7924 204.4 70.0652 204.976 71.5494L206.447 75.3211L205.453 75.7129ZM176.897 72.8835L178.991 71.8236L183.422 69.5811L184.216 70.6395L182.515 71.4999C182.122 70.9012 181.897 70.5139 181.88 70.3867C181.44 70.6654 178.883 71.9197 176.897 72.8835Z" fill="#537BC6"/>
<path d="M187.174 97.4862C187.49 97.4152 187.805 97.3184 188.116 97.1957C190.757 96.1528 192.315 93.5363 192.149 90.8318C192.158 90.9634 192.161 91.0942 192.161 91.2243C192.164 93.7854 190.631 96.206 188.119 97.1957C187.807 97.3192 187.491 97.4152 187.174 97.4862Z" fill="#304047"/>
<path d="M181.449 95.9095C180.776 95.2769 180.229 94.4867 179.871 93.5658C179.869 93.5606 179.867 93.5562 179.865 93.551C179.867 93.5547 179.868 93.5591 179.87 93.5628C180.229 94.4845 180.775 95.2761 181.449 95.9095Z" fill="#304047"/>
<path d="M181.274 86.7178C181.88 86.1021 182.621 85.6017 183.473 85.2654C183.926 85.0865 184.387 84.9638 184.85 84.8936C184.389 84.9646 183.929 85.0873 183.476 85.2661C182.622 85.6017 181.881 86.1021 181.274 86.7178Z" fill="#304047"/>
<path d="M179.871 93.5658C178.588 90.2715 180.201 86.5551 183.474 85.2654C186.746 83.9756 190.438 85.6002 191.721 88.8945C193.004 92.1888 191.392 95.9058 188.12 97.1956C184.847 98.4854 181.153 96.8608 179.871 93.5658ZM190.697 67.3615L176.932 74.324C172.407 76.6139 170.36 81.9962 172.209 86.7451L178.847 103.792C180.696 108.54 185.832 111.092 190.7 109.68L205.501 105.381C211.048 103.77 214.018 97.7079 211.911 92.296L204.235 72.5827C202.127 67.1722 195.854 64.7516 190.697 67.3615Z" fill="#4870C0"/>
<path d="M187.98 110.068C184.036 110.068 180.352 107.658 178.847 103.792L172.208 86.7452C171.75 85.567 171.531 84.3504 171.53 83.1508C171.528 80.0982 172.94 77.1616 175.407 75.2791L182.06 84.1545C182.385 83.9653 182.725 83.7983 183.085 83.6608C184.041 83.2831 185.026 83.1042 185.994 83.1042C189.183 83.1042 192.197 85.0444 193.431 88.216C193.714 88.9419 193.885 89.6839 193.952 90.4231C193.884 89.6854 193.714 88.9448 193.432 88.2205C192.198 85.0496 189.184 83.1116 185.994 83.1116C185.026 83.1116 184.041 83.2905 183.086 83.6667C178.98 85.2847 176.957 89.9471 178.566 94.0803C179.801 97.2511 182.815 99.1884 186.005 99.1884C186.973 99.1884 187.957 99.0103 188.913 98.6333C189.949 98.2253 190.852 97.6229 191.598 96.8845L199.316 107.177L190.699 109.68C189.794 109.942 188.881 110.068 187.98 110.068Z" fill="#4870C0"/>
<path d="M207.191 104.716C203.234 99.3628 186.048 76.8763 182.516 71.4999L184.216 70.6396L208.923 103.598C208.394 104.026 207.814 104.402 207.191 104.716Z" fill="#4870C0"/>
<path d="M210.895 101.443C206.03 94.9384 190.526 74.608 186.965 69.2493L190.696 67.3615C192.114 66.6446 193.614 66.3068 195.09 66.3068C198.986 66.3068 202.706 68.6587 204.234 72.5827L205.453 75.7129L205.445 75.7159L206.225 77.6953L207.401 80.7161L207.41 80.7398L211.911 92.296C212.374 93.4853 212.591 94.7056 212.591 95.9037C212.59 97.8964 211.984 99.8255 210.895 101.443Z" fill="#4870C0"/>
<path d="M259.088 60.7877L258.667 61.5616L258.434 61.9903L257.77 63.2121L258.048 66.3393C258.06 66.4731 258.044 66.6054 258.005 66.7274C257.916 66.9979 257.712 67.2233 257.438 67.332L251.636 69.6188C251.362 69.7267 251.062 69.7023 250.813 69.5627C250.733 69.5183 250.659 69.4621 250.593 69.3941L247.314 66.0363L247.305 66.0274L242.641 67.8656L243.316 69.6011L238.653 71.44L239.766 74.2975L236.332 75.6516C236.051 75.7625 235.741 75.7425 235.48 75.6065C235.394 75.5636 235.314 75.506 235.242 75.4387L233.264 73.5643L228.601 75.4025L229.713 78.2607L224.809 80.1935L225.927 83.0636C226.109 83.5322 225.88 84.0614 225.414 84.2447L211.984 89.5383L206.156 74.5725L254.737 55.4231L255.496 55.8156L257.96 57.0891C259.302 57.7832 259.812 59.4558 259.088 60.7877Z" fill="#4870C0"/>
<path d="M211.984 89.5383L210.361 85.3689L229.033 77.9702L210.361 85.3689L229.033 77.9702L229.1 77.815L228.022 75.0632L228.089 74.9088L233.176 72.8924L233.3 72.9153L235.641 75.0891C235.7 75.1438 235.763 75.1911 235.83 75.2303L235.93 75.2362L239.134 73.9656L239.2 73.8112L238.149 71.1252L238.216 70.9707L242.582 69.2396L242.649 69.0852L242.04 67.5293L242.106 67.3748L247.226 65.3459L247.354 65.3725L250.962 69.0223L251.132 69.1606L251.236 69.1694L257.544 66.669L257.614 66.5906C257.634 66.5123 257.644 66.4317 257.644 66.3489C257.644 66.3194 257.643 66.2891 257.64 66.2595L257.359 63.1633L257.369 63.1034L257.871 61.9674L258.51 60.5512C258.518 60.5342 258.522 60.5172 258.521 60.5009C258.521 60.4366 258.468 60.3819 258.403 60.3819C258.389 60.3819 258.374 60.3849 258.359 60.3908L208.352 80.2105L207.946 79.1684L258.896 59.084C258.896 59.0781 258.897 59.0729 258.897 59.0678C258.896 58.3966 258.359 57.9495 257.428 57.469L254.965 56.1955L206.448 75.3205L206.156 74.5725L254.737 55.4231L255.496 55.8156L257.96 57.0891C258.888 57.5688 259.418 58.5164 259.417 59.4957C259.417 59.9333 259.311 60.3768 259.088 60.7877L258.667 61.5616L258.434 61.9903L257.77 63.2121L258.048 66.3393C258.051 66.3689 258.052 66.3977 258.052 66.4273C258.052 66.5308 258.035 66.632 258.005 66.7274C257.916 66.9979 257.712 67.2233 257.438 67.332L251.636 69.6188C251.521 69.6639 251.401 69.6861 251.283 69.6861C251.119 69.6861 250.957 69.644 250.813 69.5627C250.733 69.5183 250.659 69.4621 250.593 69.3941L247.314 66.0363L247.305 66.0274L242.641 67.8656L243.316 69.6011L238.653 71.44L239.766 74.2975L236.332 75.6516C236.21 75.6996 236.081 75.7233 235.954 75.7233C235.79 75.7233 235.627 75.6834 235.48 75.6065C235.394 75.5636 235.314 75.506 235.242 75.4387L233.264 73.5643L228.601 75.4025L229.713 78.2607L224.809 80.1935L225.927 83.0636C225.97 83.1737 225.99 83.2868 225.99 83.3976C225.989 83.7613 225.771 84.1043 225.414 84.2447L211.984 89.5383Z" fill="#537BC6"/>
<path d="M258.896 59.084L206.959 79.5571L205.444 75.7159L254.965 56.1955L257.428 57.469C258.366 57.9531 258.905 58.4033 258.896 59.084Z" fill="#4870C0"/>
<path d="M206.959 79.5571L206.225 77.6953L205.444 75.7159L254.965 56.1955L257.428 57.469C258.359 57.9495 258.896 58.3966 258.897 59.0678C258.897 59.0729 258.896 59.0781 258.896 59.084L207.946 79.1683L206.959 79.5571Z" fill="#4168BB"/>
<path d="M257.871 61.9673L257.369 63.1034L257.359 63.1632L257.64 66.2595C257.651 66.3725 257.641 66.4841 257.614 66.5906L257.544 66.6689L251.236 69.1694L251.132 69.1605L250.962 69.0223L247.354 65.3725L247.227 65.3459L242.106 67.3748L242.04 67.5293L242.649 69.0851L242.582 69.2396L238.216 70.9707L238.149 71.1251L239.2 73.8111L239.134 73.9656L235.93 75.2362L235.83 75.2302C235.763 75.1911 235.7 75.1438 235.641 75.0891L233.3 72.9153L233.176 72.8924L228.089 74.9087L228.022 75.0632L229.1 77.815L229.033 77.9702L209.503 85.7089L209.349 85.6423L207.4 80.716L207.466 80.5608L258.359 60.3908C258.458 60.3516 258.555 60.4536 258.51 60.5512L257.871 61.9673Z" fill="#4870C0"/>
<path d="M209.503 85.7089L209.349 85.6423L207.41 80.7397L207.4 80.716L207.466 80.5608L258.359 60.3908C258.374 60.3849 258.389 60.3819 258.403 60.3819C258.468 60.3819 258.521 60.4366 258.521 60.5009C258.522 60.5172 258.518 60.5342 258.51 60.5512L257.871 61.9673L257.369 63.1034L257.359 63.1632L257.64 66.2595C257.643 66.289 257.644 66.3193 257.644 66.3489C257.644 66.4317 257.634 66.5122 257.614 66.5906L257.544 66.6689L251.236 69.1694L251.132 69.1605L250.962 69.0223L247.354 65.3725L247.226 65.3459L242.106 67.3748L242.04 67.5293L242.649 69.0851L242.582 69.2396L238.216 70.9707L238.149 71.1251L239.2 73.8111L239.134 73.9656L235.93 75.2362L235.83 75.2302C235.763 75.1911 235.7 75.1438 235.641 75.0891L233.3 72.9153L233.176 72.8924L228.089 74.9087L228.022 75.0632L229.1 77.815L229.033 77.9702L210.361 85.3689L209.503 85.7089Z" fill="#4168BB"/>
<path d="M209.503 85.7089L210.361 85.3689L209.503 85.7089Z" fill="#517AC6"/>
<path d="M210.361 85.3689L229.034 77.9702L210.361 85.3689Z" fill="#517AC6"/>
<path d="M186.005 99.1884C182.815 99.1884 179.801 97.2511 178.567 94.0802C176.957 89.947 178.981 85.2846 183.086 83.6667C184.042 83.2904 185.026 83.1116 185.994 83.1116C189.184 83.1116 192.198 85.0496 193.432 88.2204C193.714 88.9448 193.885 89.6854 193.952 90.423C194.169 92.8289 193.286 95.203 191.592 96.8756L191.598 96.8845C190.852 97.6229 189.949 98.2253 188.913 98.6333C187.958 99.0102 186.973 99.1884 186.005 99.1884ZM179.43 91.2361C179.431 92.0114 179.573 92.8001 179.871 93.5658C180.855 96.0936 183.258 97.6384 185.801 97.6384C186.572 97.6384 187.358 97.4957 188.12 97.1956C190.631 96.206 192.165 93.7853 192.162 91.2242C192.161 90.4489 192.019 89.6603 191.721 88.8945C191.126 87.3675 190.014 86.1989 188.665 85.5137C187.783 85.0644 186.799 84.8227 185.792 84.8227C185.676 84.8227 185.559 84.8264 185.442 84.8323C184.784 84.8692 184.121 85.0104 183.474 85.2654C180.962 86.2558 179.428 88.675 179.43 91.2361Z" fill="#799BD7"/>
<path d="M209.787 104.751L208.922 103.598C209.689 102.978 210.352 102.249 210.894 101.444C211.266 101.941 211.576 102.358 211.814 102.681C211.244 103.458 210.565 104.155 209.787 104.751Z" fill="#6489CE"/>
<path d="M183.422 69.5796L183.417 69.5737L183.396 69.5441C183.396 69.5441 183.902 69.2876 184.495 68.9787C184.521 68.9853 184.547 68.992 184.573 68.9986L183.422 69.5796Z" fill="#CC9BA0"/>
<path d="M184.573 68.9987C184.547 68.992 184.522 68.9854 184.495 68.9787C185.173 68.6254 185.965 68.2048 186.245 68.0186L186.282 68.128C186.282 68.1295 186.283 68.1317 186.285 68.1339L185.456 68.553L184.573 68.9987Z" fill="#F8BDC7"/>
<path d="M185.456 68.553L186.285 68.1339C186.285 68.1339 186.285 68.1339 186.285 68.1346H186.284L185.456 68.553Z" fill="#537BC6"/>
<path d="M183.423 69.5811L183.422 69.5796L184.573 68.9986C184.574 68.9986 184.574 68.9986 184.574 68.9986L183.423 69.5811Z" fill="#D1A5A9"/>
<path d="M184.574 68.9987C184.573 68.9987 184.573 68.9987 184.572 68.9987L185.455 68.553L184.574 68.9987Z" fill="#F8C5CD"/>
<path d="M184.216 70.6395L183.423 69.5811L185.456 68.553L186.284 68.1346H186.285C186.384 68.3453 186.617 68.7252 186.965 69.2492L184.216 70.6395Z" fill="#6489CE"/>
<path d="M208.922 103.598L184.216 70.6396L186.965 69.2493C190.526 74.6079 206.03 94.9384 210.895 101.443C210.352 102.249 209.689 102.978 208.922 103.598Z" fill="#537BC6"/>
<path d="M200.155 108.297L199.315 107.177L205.501 105.381C206.095 105.209 206.659 104.985 207.191 104.716C207.712 105.423 208.005 105.831 208.005 105.863C207.839 105.943 200.155 108.297 200.155 108.297Z" fill="#6489CE"/>
<path d="M174.579 74.1748L174.484 74.0484C174.484 74.0484 175.434 73.5931 176.656 73.0003C176.656 73.0018 176.655 73.0033 176.655 73.0048L175.869 73.4024C175.415 73.6323 174.985 73.8902 174.579 74.1748Z" fill="white"/>
<path d="M176.655 73.0048C176.655 73.0033 176.656 73.0018 176.656 73.0003C176.718 72.9708 176.781 72.9405 176.844 72.9094L176.655 73.0048Z" fill="#304047"/>
<path d="M174.581 74.1763L174.579 74.1748C174.985 73.8902 175.415 73.6323 175.869 73.4024L176.843 72.9094C176.861 72.9005 176.879 72.8924 176.897 72.8835L175.872 73.4024C175.418 73.6323 174.987 73.891 174.581 74.1763Z" fill="#537BC6"/>
<path d="M175.408 75.2791L174.581 74.1763C174.988 73.891 175.419 73.6323 175.873 73.4024L176.898 72.8835C178.883 71.9197 181.44 70.6654 181.881 70.3868C181.898 70.5139 182.122 70.9012 182.516 71.4999L176.932 74.3241C176.387 74.5998 175.878 74.9206 175.408 75.2791Z" fill="#6489CE"/>
<path d="M199.316 107.177L191.598 96.8845C193.29 95.2089 194.171 92.8319 193.952 90.4231C193.885 89.6839 193.714 88.9418 193.431 88.216C192.197 85.0444 189.183 83.1042 185.994 83.1042C185.026 83.1042 184.041 83.2831 183.085 83.6608C182.724 83.7983 182.385 83.9653 182.06 84.1545L175.407 75.2791C175.878 74.9206 176.387 74.5998 176.932 74.3241L182.515 71.4999C186.047 76.8763 203.234 99.3628 207.191 104.716C206.659 104.985 206.095 105.209 205.501 105.381L199.316 107.177Z" fill="#537BC6"/>
<path d="M191.597 96.8845L191.591 96.8757C193.285 95.203 194.169 92.8289 193.951 90.4231C194.171 92.8319 193.289 95.2089 191.597 96.8845Z" fill="#89A8DD"/>
<path d="M176.564 50.3801C175.707 51.4075 175.356 52.8458 175.645 54.1563C175.935 55.4668 176.855 56.6206 178.065 57.1867C178.692 57.4794 179.381 57.6206 180.001 57.9273C180.621 58.2348 181.197 58.7766 181.262 59.4692C181.335 60.2342 180.775 60.9489 180.828 61.7154C180.876 62.4175 181.421 62.9748 181.972 63.4087C182.522 63.8426 183.137 64.2521 183.441 64.8862C183.744 65.5204 183.547 66.4598 182.872 66.6446C182.73 66.8634 182.676 67.3874 182.857 67.5752C183.038 67.7629 183.352 67.8028 183.574 67.6654C184.61 67.0238 185.321 65.8138 185.329 64.5891C185.337 63.3644 184.575 62.1692 183.465 61.6681C183.264 61.2601 183.419 60.7442 183.587 60.3214C183.923 59.4758 184.258 58.6295 184.594 57.7832C184.727 57.4506 184.61 56.8453 184.384 56.5688C184.158 56.2916 183.819 56.1416 183.492 56.0004L181.329 55.0662C180.511 54.7136 178.088 51.4422 180.966 50.4873C180.59 49.6469 179.939 49.3838 179.04 49.2182C178.139 49.0526 177.154 49.675 176.564 50.3801Z" fill="#1D2A30"/>
<path d="M180.49 46.8611C180.419 47.7214 180.347 48.5811 180.275 49.4414C180.992 48.2558 182.321 45.9579 182.275 46.0473C181.711 46.3555 181.055 46.5521 180.49 46.8611Z" fill="#1D2A30"/>
<path d="M181.462 48.275C182.465 47.3415 183.466 46.408 184.469 45.4752C183.695 45.1832 182.758 45.4006 182.19 46.0037C182.207 45.9401 181.743 47.3748 181.462 48.275Z" fill="#1D2A30"/>
<path d="M175.35 118.202C171.435 123.094 172.738 126.846 167.334 135.506C174.148 140.592 181.62 141.435 190.908 140.708C192.006 138.749 192.561 136.707 193.658 134.748C195.233 136.715 196.497 138.369 198.07 140.336C202.937 139.568 208.719 138.191 212.567 135.694C209.168 131.768 207.059 126.866 204.882 122.538C203.862 120.509 204.289 119.655 201.582 116.994C192.959 117.395 184.408 117.607 175.785 118.007C176.012 118.019 175.122 118.19 175.35 118.202Z" fill="#1D2A30"/>
<path d="M176.423 117.384L175.882 119.667C175.803 119.847 176.015 120.017 176.305 120.001L200.074 118.942C200.301 118.945 200.483 118.809 200.492 118.67L200.618 116.401C200.62 116.249 200.422 116.12 200.174 116.137L176.819 117.175C176.66 117.169 176.509 117.248 176.423 117.384Z" fill="#4870C0"/>
<path d="M176.423 117.384L175.882 119.667C175.803 119.847 176.015 120.017 176.305 120.001L200.074 118.942C200.301 118.945 200.483 118.809 200.492 118.67L200.618 116.401C200.62 116.249 200.422 116.12 200.174 116.137L176.819 117.175C176.66 117.169 176.509 117.248 176.423 117.384Z" fill="#4870C0"/>
<path d="M181.657 120.004L180.967 120.035C180.835 120.032 180.726 119.975 180.735 119.892L180.921 116.942C180.921 116.859 181.04 116.785 181.178 116.78L181.868 116.743C182 116.745 182.109 116.802 182.1 116.893L181.915 119.834C181.907 119.918 181.788 119.999 181.657 120.004Z" fill="#1D2A30"/>
<path d="M198.819 119.259L198.129 119.29C197.997 119.287 197.888 119.231 197.896 119.147L198.082 116.205C198.083 116.114 198.201 116.04 198.333 116.035L199.023 116.005C199.154 116.007 199.263 116.064 199.255 116.148L199.07 119.09C199.068 119.18 198.957 119.254 198.819 119.259Z" fill="#1D2A30"/>
<path d="M184.727 105.651C184.771 105.869 186.617 108.826 188.064 108.621L188.1 108.616C188.522 108.556 188.943 108.728 189.202 109.068C189.784 109.83 190.135 110.267 190.527 110.768C191.164 111.58 192.271 111.841 193.202 111.404C193.478 111.275 193.752 111.133 194.023 110.988C194.919 110.509 195.376 109.475 195.132 108.484C194.866 107.396 194.45 106.346 193.898 105.373C193.709 105.041 193.493 104.705 193.165 104.513C192.836 104.32 189.651 103.35 188.414 103.39C187.127 103.431 185.905 105.129 184.727 105.651Z" fill="#F7B5BF"/>
<path d="M188.448 103.293C188.448 103.293 168.936 97.3435 164.727 101.305C162.253 103.634 163.421 105.833 164.805 107.251C165.834 108.305 168.076 108.046 169.542 107.977L184.911 106.458L188.448 103.293Z" fill="#F7B5BF"/>
<path d="M177.236 100.576C177.13 99.5121 176.313 98.6288 175.363 98.1521C174.413 97.6753 173.337 97.5342 172.284 97.3996C169.833 97.087 167.381 96.7743 164.93 96.4617C163.685 98.0464 162.789 100.225 162.828 102.245C162.867 104.265 163.622 106.265 164.927 107.801C166.1 105.517 167.647 103.166 169.938 102.031C172.229 100.897 174.724 100.117 177.236 100.576Z" fill="#1D2A30"/>
<path d="M172.205 64.6888V64.6154C172.253 64.6013 172.284 64.5947 172.301 64.5947C172.336 64.5947 172.297 64.628 172.205 64.6888Z" fill="#304047"/>
<path d="M220.678 32.8797L226.114 43.0294L248.294 24.0634C248.489 23.8963 248.264 23.594 248.05 23.736L227.257 37.5562L224.052 31.2603L220.678 32.8797Z" fill="#4870C0"/>
<path d="M255.672 32.9277H255.195C255.195 37.276 252.932 41.2319 249.212 44.127C245.494 47.0192 240.328 48.8234 234.612 48.8227C230.223 48.8234 226.165 47.765 222.834 45.9534L222.63 45.8418L212.059 50.4687L218.708 43.0124L218.381 42.6902C215.643 39.9872 214.03 36.6042 214.029 32.9277C214.03 28.5795 216.292 24.6237 220.012 21.7285C223.731 18.8363 228.897 17.0313 234.612 17.0321C240.328 17.0313 245.494 18.8363 249.212 21.7285C252.932 24.6237 255.195 28.5795 255.195 32.9277H255.672H256.149C256.15 28.2306 253.698 23.9984 249.795 20.9679C245.891 17.9331 240.527 16.0719 234.612 16.0712C228.698 16.0719 223.334 17.9331 219.429 20.9679C215.527 23.9984 213.075 28.2306 213.075 32.9277C213.074 36.8946 214.824 40.5297 217.713 43.3768L218.047 43.0339L217.692 42.7131L208.424 53.1074L222.797 46.8167L222.607 46.3755L222.38 46.7982C225.86 48.6911 230.07 49.7836 234.612 49.7836C240.527 49.7828 245.891 47.9224 249.795 44.8876C253.698 41.8572 256.15 37.6249 256.149 32.9277H255.672Z" fill="#4870C0"/>
</g>
<defs>
<clipPath id="clip0_190_1659">
<rect width="367" height="275" fill="white" transform="translate(0.566406)"/>
</clipPath>
</defs>
</svg>
