<svg xmlns="http://www.w3.org/2000/svg" viewBox="0 0 719.75 258.62"><defs><style>.cls-1{fill:#f4f2f2;}.cls-2{fill:#e1f5ff;}.cls-3{fill:#aed4f4;}.cls-4{fill:#6d89cf;}.cls-5{fill:#3662c1;}.cls-6{fill:#60c4bf;}.cls-7{fill:#7fddda;}.cls-8{fill:#39b2a9;}.cls-9{fill:#a8d7f4;}.cls-10{fill:#c2ebff;}.cls-11{fill:#b3e8e8;}.cls-12{fill:#84cecc;}.cls-13{fill:#af4e4e;}.cls-14{fill:#ea8888;}.cls-15{fill:#63d6d0;}.cls-16{fill:#fc9290;}.cls-17{fill:#0b0754;}.cls-18{fill:#369ed2;}.cls-19{fill:#0d94c9;}.cls-20{fill:#9e332e;}.cls-21{fill:#5a80cc;}.cls-22{fill:#bed2fa;}</style></defs><g id="Layer_2" data-name="Layer 2"><g id="Layer_1-2" data-name="Layer 1"><path class="cls-1" d="M153.54,161l27.68-72.57h42.43L158.88,258.62,111.93,168,64.78,258.41,0,88.46H42.43L70.31,161l42-78.72Z"/><path class="cls-1" d="M357.93,252.46H314.26l-8.4-16.4H243.54l-8,16.4H191.47L275.11,82.31Zm-94.3-56.37h22.76l-11.69-23Z"/><path class="cls-1" d="M528.08,252.46H484.41l-8.4-16.4H413.69l-8,16.4H361.62L445.26,82.31Zm-94.3-56.37h22.75l-11.68-23Z"/><path class="cls-1" d="M649.64,161l27.68-72.57h42.43L655,258.62,608,168l-47.15,90.41-64.78-170h42.43L566.41,161l42-78.72Z"/><path class="cls-2" d="M134.32,250.78S81.55,138.39,185.56,138.39c55,0,32.32-30.84,69.69-66.53s168-64.2,195.85,4.72-40.92,121.23,25.5,112.26c79.81-10.79,111.34,61.94,111.34,61.94Z"/><path class="cls-3" d="M561.77,237.52c-4.93-3.6-15-1.17-22.42,1.43a33.65,33.65,0,0,0-4.08-4.74c16-10.31,38.1-32.29,26.39-34.15-10.19-1.62-23.93,18.17-31.27,30.22-7.63-5.13-19.31-8.91-37.15-7.6-46.31,3.4-82.48-26.47-109.14-16.51-21.2,7.92-40.63,12.36-59.37,10.84.81-13.69,1-40.56-9.76-43.35-10.92-2.83-.21,27.69,5.74,42.93-1.4-.18-2.79-.39-4.18-.64-3.86-7.6-10.2-17.54-17.17-17.88-6.57-.32,1.53,8.62,9.51,16.19-22.92-4.81-50.1,13.82-50.55,35.84H544.39a26.57,26.57,0,0,0-2.75-7.45C552.69,242.43,567.12,241.43,561.77,237.52Z"/><rect class="cls-4" x="245.32" y="233.08" width="75.4" height="17.03"/><rect class="cls-5" x="222.08" y="233.08" width="75.4" height="17.03"/><rect class="cls-6" x="350.38" y="171.63" width="56.14" height="78.47"/><rect class="cls-7" x="333.07" y="171.63" width="56.14" height="78.47"/><polygon class="cls-8" points="389.21 171.63 406.52 183.41 406.52 171.63 389.21 171.63"/><path class="cls-9" d="M215.91,189s-10.5,7.81-12.55,7.34,7.67-8.43,7.67-8.43c-3.66-1.76-15-.66-15-.66s-3.78,12.22-5.65,11.25,3.9-10.64,3.9-10.64c-4.07-.25-9.07,2.78-9.07,2.78-6.84,5.4.45,13.91.45,13.91a20.76,20.76,0,0,1-5.72,8,18,18,0,0,0-6.6,12.71l1.12.1s1.78-7.59,5-11.18l.53-.54c.53-.49.9-.86,1.15-1.13,1.6-1.54,3.82-3.5,4.89-3.69a2.45,2.45,0,0,1-.05-.54c0,.17,0,.35.05.54.37,4.29,8.7,8,13.83,8.82s3.55-1.34,1.78-4.46-7.36-4.53-8.64-6,1.36-1.44,4.46,0,3.51,5.18,8.47,7.55,12.42-5.85,12.42-5.85c-3.95-.2-9.6-4.5-9.39-5.81s9.58,2.27,11.18,2.44,5.25-1.82,5.81-8.28S215.91,189,215.91,189Z"/><path class="cls-9" d="M160.15,193.86s11.59-6.49,6.18-15.31c0,0-4.33-5.41-9-6.8,0,0,2.48,13.14,0,13.45s-1.7-14.84-1.7-14.84-12.21-5.88-17-5.41c0,0,7.57,12.83,5.1,12.52s-11-13.3-11-13.3-12.52-2.32-14.53,5.11,1.23,11.13,3.09,11.59,13.76.31,13.45,1.86-8.35,4-12.83,2.63c0,0,5,12.21,11.44,11.59s8.5-4.64,12.52-4.95,7,.78,5,1.86-8.81.35-12.06,3.11-5.88,4.47.15,5.7,16.86.47,19-4.17Z"/><path class="cls-5" d="M163.24,205.15a24.6,24.6,0,0,1-3.09-11.29C156.44,182.11,124,171.59,124,171.59c41.28,16.7,34,26.91,34,26.91,1.11.65,2.78,3.74,3.94,6.12.16.4.42,1,.81,1.72h0c.16.34.29.62.37.82,2.13,5.32,1,14.5,1,14.5l1.29.35A21.39,21.39,0,0,0,163.24,205.15Z"/><path class="cls-10" d="M178.6,184.9s-15.29-8.56-8.16-20.17c0,0,5.71-7.14,11.83-9,0,0-3.27,17.32,0,17.73s2.24-19.56,2.24-19.56,16.1-7.75,22.42-7.14c0,0-10,16.92-6.73,16.51s14.47-17.53,14.47-17.53,16.51-3.06,19.16,6.73-1.63,14.67-4.08,15.28-18.14.41-17.73,2.45,11,5.3,16.92,3.46c0,0-6.52,16.1-15.09,15.29s-11.21-6.11-16.51-6.52-9.17,1-6.52,2.44,11.62.47,15.9,4.11,7.74,5.88-.2,7.51-22.22.61-25.07-5.5Z"/><path class="cls-5" d="M226.29,155.55s-42.8,13.86-47.69,29.35a32.56,32.56,0,0,1-4.08,14.88s-6.6,10-2.84,22.23l1.7-.46s-1.48-12.11,1.32-19.12l.49-1.08h0c.51-1,.85-1.74,1.07-2.27,1.52-3.13,3.72-7.21,5.19-8.06C181.45,191,171.87,177.57,226.29,155.55Z"/><path class="cls-11" d="M178.08,248.47A29.94,29.94,0,0,0,208,218.52H148.14A29.94,29.94,0,0,0,178.08,248.47Z"/><path class="cls-12" d="M185.45,248.24a30.45,30.45,0,0,1-3.72.23,29.94,29.94,0,0,1-29.94-29.95h7.43A30,30,0,0,0,185.45,248.24Z"/><path class="cls-11" d="M204.74,246.41H151.42a3.7,3.7,0,0,0-3.7,3.69h60.72A3.7,3.7,0,0,0,204.74,246.41Z"/><path class="cls-13" d="M208.25,218.52H147.61a.47.47,0,0,0-.46.46.46.46,0,0,0,.46.46h60.64a.46.46,0,0,0,.46-.46A.47.47,0,0,0,208.25,218.52Z"/><path class="cls-14" d="M439.3,60.85c-.87-.14-3.48,2.28-3.48,2.28h0c-5.59.65-13.75,2.13-16.69,2.7-2.08.4-7.69-1.51-13.16-3.71-6.51-2.61-12.84-5.62-12.84-5.62-3.61-.18-7.71,6.41-.39,10.6,1.12.64,5.32,1.73,10.16,2.73h0c6.68,1.37,14.56,2.57,17.25,2.15,3.11-.49,11.94-3.72,17.19-6.19h0l.06,0a6.43,6.43,0,0,1,2.46-.66c1,0,3.17-1.74,3.24-2.23S440.17,61,439.3,60.85Z"/><path class="cls-7" d="M432.48,143.87l-3.07.62S415.34,128.68,413.17,122c-1.17-3.55-8.59-5.09-16.36-7.1-6.75-1.75-13.76-3.85-17.11-8-7.2-8.82,4.52-19.66,4.52-19.66s12.45,7.4,23.2,15c7.51,5.34,14.19,10.81,15.19,14C425.06,124,430.24,138.46,432.48,143.87Z"/><path class="cls-5" d="M428.37,149.08h1.73c.58-.09,1-.25,1.6-.33a1.62,1.62,0,0,1,1.4.33l0,0h7.34c.19-.26,0-.87-.16-1.32a1.06,1.06,0,0,0-.69-.63,8,8,0,0,1-3.72-1.7c-.8-.72-3.83-2.63-3.83-2.63h0c-.07,0-.38.1-1.76,1.27-.72.6-1.93-.85-1.93-.85a1.74,1.74,0,0,0-.4.54,1.8,1.8,0,0,0-.16,1.13,7.32,7.32,0,0,1-.52,2.72c-.17.51-.32.87-.32.87S426.88,148.9,428.37,149.08Z"/><path class="cls-15" d="M407.42,102.36l-10.61,12.57c-6.75-1.74-13.76-3.85-17.11-8-7.2-8.82,4.52-19.66,4.52-19.66S396.67,94.71,407.42,102.36Z"/><path class="cls-7" d="M397.78,95.79s-.85,2.7-2.25,6.75c-1.76,5.13-4.38,12.44-7.22,19.21-.63,1.49-1.26,3-1.9,4.36-2.37,5.21-4.79,9.68-6.92,12-3.83,4.09-13.14,30.33-13.14,30.33l-2.32-.64s-3.24-22.41,8.22-35.16a.8.8,0,0,0,.23-.48h0c.15-1.89.69-10.34,1.88-18.91.29-2.1.62-4.21,1-6.23,0-.12.05-.25.08-.38C377.18,97.25,378.85,93.1,381,91l15.85,4.5Z"/><path class="cls-5" d="M363.77,171.61h1.73c.58-.09,1-.25,1.6-.33a1.62,1.62,0,0,1,1.4.33l0,0h7.34c.19-.26,0-.87-.16-1.32a1.06,1.06,0,0,0-.69-.63,8,8,0,0,1-3.72-1.7c-.8-.72-3.83-2.63-3.83-2.63h0c-.07,0-.38.1-1.76,1.26-.72.6-1.93-.85-1.93-.85a1.74,1.74,0,0,0-.4.54,1.8,1.8,0,0,0-.16,1.13,7.33,7.33,0,0,1-.52,2.73c-.17.5-.32.86-.32.86S362.28,171.43,363.77,171.61Z"/><path class="cls-16" d="M367.17,65.31s-2.65,6.49-5.71,12.8c-2.57,5.31-5.43,10.49-7.24,11.6-2.55,1.56-9.59,6-14.15,9.24,0,0-3.56,0-4.12.66s-1.83,3.74-1.45,4,3.2.17,3.89-.54a6.4,6.4,0,0,1,2.27-1.16l.06,0h0c5.55-1.71,14.25-5.26,16.88-7,2.27-1.5,7.29-7.69,11.3-13.2h0c2.91-4,5.28-7.63,5.68-8.85C377.18,64.86,369.71,62.75,367.17,65.31Z"/><path class="cls-17" d="M381,39.88a11.49,11.49,0,0,0-.95-1.22,3.26,3.26,0,0,0,1.17-.18c.93-.38,1.36-3.34,1.22-4.21s-1.44-3.41-3-3.67-3.24,1.52-3.24,1.52c.29-1.28,3-2,3-2-5.55,1-5.27,4.73-5.23,5.07-5.09-1.81-8.07,7.76-8.07,7.76l13.17,7.76s0-2.11,1.29-2C382.31,48.94,383.94,44.12,381,39.88Z"/><path class="cls-16" d="M381.87,60c-3,1.42-7-.63-7-.65.26-.26.17-1-.07-2A14.83,14.83,0,0,0,373,53.05c-.21-.37-.43-.74-.69-1.13l.35-.12,5.87-2.36s.95,1.71,1.94,3.26c.84,1.3,1.73,2.46,2.12,2.42C382.56,55.1,386.45,57.77,381.87,60Z"/><path class="cls-14" d="M378.48,50c-.15,2.1-.86,5.87-3.69,7.26A14.83,14.83,0,0,0,373,53.05Z"/><path class="cls-16" d="M372.61,55.43s7.65-3,5.69-7.75-2.27-8.3-7.23-6.58-5.16,3.92-4.9,5.66S370.57,56.09,372.61,55.43Z"/><path class="cls-17" d="M375.46,46.6c3.53-.49,4.56-1.92,4.56-1.92a9.75,9.75,0,0,1-5.16-4.12s-4-1.34-6.91.9a1.91,1.91,0,0,0-.37.83c-.67-.22-1.69-.16-2.27,1.74-.88,2.86,2.25,6,2.25,6,.75-.22-.1-2.77-.22-4.13a6.44,6.44,0,0,1,.74-2.89c.38.49,4.1,5.17,8.65,5.35a19.18,19.18,0,0,1-4.59-2.46A5.83,5.83,0,0,0,375.46,46.6Z"/><path class="cls-18" d="M396.42,69.72c-.06-.23-.13-.46-.21-.71a17.62,17.62,0,0,0,1.93-5.78,11.62,11.62,0,0,0-.36-5.65s-5.31-2.81-7.65-3.17H390c-2.36-.33-7.48.72-7.48.72a3.7,3.7,0,0,1-1.8,4.38C378,61.24,375,59,375,59l-.28.19h0s-7.33,4.84-8,5.94-3.48,6.58-3.48,6.58.89,4.59,10.79,5a23,23,0,0,1,1.64,5.51c.78,6.23-.13,11.15.79,14.78s17.43,1.57,20.42.87,2.32-3.9,2.55-7C399.71,87,397.4,73.16,396.42,69.72Z"/><path class="cls-19" d="M398.15,63.23A17.85,17.85,0,0,1,396.2,69c-.26-1.14-1.31-5.33-3-7.23A14.76,14.76,0,0,1,398.15,63.23Z"/><path class="cls-14" d="M330.91,104.09a52,52,0,0,1,3.73-4.17,11.33,11.33,0,0,1,3.74-1.06c.17.16.17.38-.19.7s-1.73,1.12-1.54,1.21,4.35-2,5-1.28-.34,3.56-1.94,4.93-6.37,2-6.67,2.15C330.45,108.2,330.91,104.09,330.91,104.09Z"/><path class="cls-16" d="M276.74,95.48s4.42,5.24,10.05,3A17.14,17.14,0,0,0,288,93.44v-.77c0-2.43.12-3.79.12-3.79h0c-.26-.1-8.6-3.53-8.6-3.25C279.68,92.2,276.74,95.48,276.74,95.48Z"/><path class="cls-14" d="M280.37,87.19A13.07,13.07,0,0,0,288,92.67c0-2.43.12-3.79.12-3.79h0C287.9,88.81,280.13,86.75,280.37,87.19Z"/><path class="cls-16" d="M289.88,88.62S280.5,90.83,279.21,85s-3.36-9.53,2.58-11.19,7.6.33,8.5,2.18S292.29,87.9,289.88,88.62Z"/><path class="cls-20" d="M279.53,86.56c-.13.08-2.15.7-6-6.92a6.64,6.64,0,0,1,.39-6.07c1.4-2.29,6.36-4.08,10.49-4.87s5.11,1.54,6.08,3.87,4,4.47,4,4.47c-3.56,2-7.84-.86-9.33-.39s-2,2.81-2.12,3.56-.28,1.37-2.15.7-.84,2.64-.54,3.28C280.35,84.19,280.6,85.88,279.53,86.56Z"/><path class="cls-18" d="M255.35,233.08h-5.69c-1.19,0-2.51-1.21-2.84-3.42s-2.78-3.43-3.32-5.24,2.19-4.36,2.19-4.36l.45-.59.48-.62,4.5,1.07s.11,1.09.18,2.47a30.46,30.46,0,0,1,0,3.17c-.13,2.42.67,5,2.79,5.49S255.35,233.08,255.35,233.08Z"/><path class="cls-18" d="M294.92,233.13H279.85a1.06,1.06,0,0,1-.31-.09c-1-.52-.7-4.49-.57-5.71,0-.23,0-.36,0-.36s5.29-4.36,6-1c0,.1.05.2.08.3h0c.92,3.12,5,4.54,7.41,4.94A2.6,2.6,0,0,1,294.92,233.13Z"/><path class="cls-11" d="M291.89,146s-.81,10-1.75,22.11c-1.29,16.4-2.84,36.54-3,40.35-.26,6.63-1.32,17.22-1.32,17.22s-2.52,2.52-7.55,1.46A173.17,173.17,0,0,1,272.51,196l-.06-.79c-1.19-16.3-3.05-50.61-3.05-50.61Z"/><path class="cls-12" d="M291.89,146s-.81,10-1.75,22.11L272.51,196l-.06-.79c-1.19-16.3-3.05-50.61-3.05-50.61Z"/><path class="cls-11" d="M288.21,147.19s-14.5,36.36-24,53.45-12.52,21.85-12.52,21.85-5.46-2.18-6-3.67c0,0,3.65-33,10-41,3.61-4.54,7.85-18.18,8-22.94s1.29-14.21,1.29-14.21Z"/><path class="cls-14" d="M255,141.13a48,48,0,0,1-.65,5.24A10.64,10.64,0,0,1,252,149.2c-.22,0-.34-.2-.23-.64s.74-1.8.54-1.77-2.3,3.87-3.14,3.65-1.65-2.94-1.15-4.86,3.87-4.94,4-5.25C253.14,137.7,255,141.13,255,141.13Z"/><path class="cls-4" d="M253.45,142.28c1.6.52,1.86.4,1.86.4s7.81-14.22,8.6-15.53,16.59-16,16.59-16l-4.06-15.14s-18,23.27-19.91,26.61c-3.2,5.52-5.08,18.33-5.08,18.33A4.61,4.61,0,0,0,253.45,142.28Z"/><path class="cls-3" d="M295,117.14c-.06,3.11-.24,6.61-.48,10.16,0,.21,0,.42-.05.63-.15,2.2-.32,4.4-.51,6.55-.08.87-.16,1.72-.25,2.55v.12c0,.31,0,.65-.08,1-.79,8-1.63,14.41-1.78,14.51a.91.91,0,0,1-.62.16c-2.11-.27-8.41.21-13.57-.91a39.31,39.31,0,0,1-12.07-5c-.53-.32-1.73-1.14-1.63-1.76s.27-1.66.5-2.89A156.7,156.7,0,0,0,267,122c.09-1.6.22-3.19.39-4.75a72.11,72.11,0,0,1,2.1-11.35c1.77-6.37,4.37-11.24,7.63-13.15.43-.24,2.72,1.22,4.82,2.57a9.39,9.39,0,0,0,6,1.42l1.75,1.93a19.54,19.54,0,0,1,5,10.42c0,.35.09.71.12,1.1A67.91,67.91,0,0,1,295,117.14Z"/><path class="cls-4" d="M295,117.14c-.06,3.11-.24,6.61-.48,10.16,0,.21,0,.42-.05.63-12.06-7.55-13.92-21.36-13.92-21.36a33,33,0,0,1,14.28,3.57A67.91,67.91,0,0,1,295,117.14Z"/><path class="cls-21" d="M332.74,104.46c-.63-1.68-1.59-1.58-1.59-1.58s-17.94,4.47-19.54,4.66-19.32-6.91-19.32-6.91-7-3.12-10.23-.27a8.22,8.22,0,0,0,4.37,14.14c7.22.92,21.63,2.65,24.65,2.23C317.81,115.8,333,107,333,107A5.72,5.72,0,0,0,332.74,104.46Z"/><g id="man"><path class="cls-7" d="M509.56,137.33s2.49,2.31,2,3.95-2.74,2.73-3,4.74-1.52,3.1-2.62,3.1H500.7s-.8-1.42,1.14-1.84,2.68-2.78,2.56-5a39.74,39.74,0,0,1,.18-5.11l4.13-1Z"/><path class="cls-7" d="M478.51,148.84a9.35,9.35,0,0,1-2.36.28H464.36c0-.35.32-1.61,2.24-1.92,2.18-.35,6-1.62,6.8-4.4a2.29,2.29,0,0,0,.07-.28c.67-3,5.53.91,5.53.91s0,.12,0,.33C479.15,144.85,479.43,148.38,478.51,148.84Z"/><path class="cls-4" d="M467.18,69.2s.74,9.21,1.6,20.29c1.18,15,2.6,33.51,2.74,37,.25,6.08,1.22,15.8,1.22,15.8s2.31,2.31,6.93,1.34A159.62,159.62,0,0,0,485,115.08c0-.24,0-.49.05-.73,1.09-14.95,2.8-46.42,2.8-46.42Z"/><path class="cls-5" d="M467.18,69.2s.74,9.21,1.6,20.29L485,115.08c0-.24,0-.49.05-.73,1.09-14.95,2.8-46.42,2.8-46.42Z"/><path class="cls-4" d="M470.55,70.3s13.31,33.36,22.06,49,11.48,20.06,11.48,20.06,5-2,5.47-3.37c0,0-3.35-30.27-9.21-37.65C497,94.2,493.15,81.69,493,77.31s-1.18-13-1.18-13Z"/><path class="cls-16" d="M429.51,52.2a41,41,0,0,0-4.22-.78,8.7,8.7,0,0,0-2.76,1.1c0,.17.07.32.44.34s1.57-.13,1.5,0-3.56.83-3.6,1.53,1.87,2,3.48,2.09,4.78-1.79,5-1.81C431.7,54.49,429.51,52.2,429.51,52.2Z"/><path class="cls-12" d="M428,53.12c-.52-1.65-.4-1.91-.4-1.91s14.63-7.91,16-8.72S460,25.6,460,25.6l15.48,4.26s-24,18.26-27.4,20.23c-5.68,3.24-18.82,5.08-18.82,5.08A4.86,4.86,0,0,1,428,53.12Z"/><path class="cls-16" d="M464.69,17.78s-5.43,9.55-10.74,10.8a14.45,14.45,0,0,1,1.52-5.41c-.53-.62-1-1.2-1.4-1.71a30.37,30.37,0,0,1-2-2.76l1.8-4.84,1.22-3.28A16.59,16.59,0,0,0,457,13.33,13,13,0,0,0,464.69,17.78Z"/><path class="cls-14" d="M457,13.33a10.06,10.06,0,0,1-3,8.13,30.37,30.37,0,0,1-2-2.76l1.8-4.84A10.13,10.13,0,0,1,457,13.33Z"/><path class="cls-16" d="M450.67,19.41s8.11-3.16,6.06-8.19-2.38-8.81-7.64-7-5.49,4.13-5.21,6S448.5,20.1,450.67,19.41Z"/><path class="cls-11" d="M492.57,66.8c-3.27,4.71-27.74,11-27.45,7.74a34.87,34.87,0,0,0,0-6.43c-.06-.69-.15-1.43-.26-2.22a51.28,51.28,0,0,0-5.39-16.15l-.77-1.44a49.4,49.4,0,0,1-3.39-7.63c-1.7-4.9-2.38-9.58-1.53-12.65,0,0,0,0,0,0,5.11-2.36,7.09-11.54,7.09-11.54s17.45,3.14,27.23,26.39C488.12,42.84,495.42,62.71,492.57,66.8Z"/><path class="cls-12" d="M465.12,68.11c-.06-.69-.15-1.43-.26-2.22a51.28,51.28,0,0,0-5.39-16.15c.56-3.42,1.34-6.27,2.2-7.56,3.48-5.22,5.51-6,5.51-6S472.4,58.16,465.12,68.11Z"/><path class="cls-16" d="M437.61,62.88a51.87,51.87,0,0,0-5.57.52A11.38,11.38,0,0,0,429,65.77c0,.23.2.37.67.27s1.93-.73,1.89-.52-4.17,2.32-4,3.21,3.06,1.85,5.12,1.38,5.36-4,5.69-4.07C441.19,65,437.61,62.88,437.61,62.88Z"/><path class="cls-11" d="M436.7,64.71c-1-1.56-.27-2.28-.27-2.28s14.91-11.67,16.08-12.85,6.59-20,6.59-20,1.86-7.6,6.22-8.44c3.8-.73,6.42,1.15,8.13,3.35a8.06,8.06,0,0,1,.55,9.09C470.19,40,462.51,52.77,460.27,55c-5,4.84-21.69,11.6-21.69,11.6A5.79,5.79,0,0,1,436.7,64.71Z"/><path class="cls-17" d="M457.9,1.9c.05-.12.22-.24.62-.36a1.66,1.66,0,0,0-.82,0A2.13,2.13,0,0,0,455.89,0a1.26,1.26,0,0,1,.81.75c-1.42-.9-4.06-1.16-10.65,1-8.68,2.89-4.34,7.93-3,8.33s3.73-2.18,5.91-2.54,3.36,2.68,4.19,2.93.36-.44,1.23-1.13,1.37.94,1.35,2.08,1.67,2.23,1.67,2.23l1-1.83c1-1.82.72-8.44-.23-9.64C458.06,2.11,458,2,457.9,1.9Z"/></g><polygon class="cls-22" points="320.72 232.89 320.72 242.71 297.47 232.89 320.72 232.89"/><rect class="cls-4" x="442.79" y="149.12" width="76.89" height="100.99"/><rect class="cls-5" x="419.09" y="149.12" width="76.89" height="100.99"/><polygon class="cls-22" points="519.68 149.12 519.68 164.22 495.97 149.12 519.68 149.12"/></g></g></svg>