<svg width="853" height="108" viewBox="0 0 853 108" fill="none" xmlns="http://www.w3.org/2000/svg">
<circle cx="11" cy="16" r="10.5" fill="#3FEA86" stroke="#3FEA86"/>
<circle cx="11" cy="16" r="4.125" fill="white"/>
<path d="M58.77 16.3C58.77 14.7893 59.1073 13.44 59.782 12.252C60.4713 11.0493 61.4027 10.118 62.576 9.458C63.764 8.78333 65.0913 8.446 66.558 8.446C68.274 8.446 69.7773 8.886 71.068 9.766C72.3587 10.646 73.2607 11.8633 73.774 13.418H70.232C69.88 12.6847 69.3813 12.1347 68.736 11.768C68.1053 11.4013 67.372 11.218 66.536 11.218C65.6413 11.218 64.842 11.4307 64.138 11.856C63.4487 12.2667 62.906 12.8533 62.51 13.616C62.1287 14.3787 61.938 15.2733 61.938 16.3C61.938 17.312 62.1287 18.2067 62.51 18.984C62.906 19.7467 63.4487 20.3407 64.138 20.766C64.842 21.1767 65.6413 21.382 66.536 21.382C67.372 21.382 68.1053 21.1987 68.736 20.832C69.3813 20.4507 69.88 19.8933 70.232 19.16H73.774C73.2607 20.7293 72.3587 21.954 71.068 22.834C69.792 23.6993 68.2887 24.132 66.558 24.132C65.0913 24.132 63.764 23.802 62.576 23.142C61.4027 22.4673 60.4713 21.536 59.782 20.348C59.1073 19.16 58.77 17.8107 58.77 16.3ZM79.4847 13.704C79.8807 13.0587 80.3941 12.5527 81.0247 12.186C81.6701 11.8193 82.4034 11.636 83.2247 11.636V14.87H82.4107C81.4427 14.87 80.7094 15.0973 80.2107 15.552C79.7267 16.0067 79.4847 16.7987 79.4847 17.928V24H76.4047V11.812H79.4847V13.704ZM96.6293 17.642C96.6293 18.082 96.5999 18.478 96.5413 18.83H87.6313C87.7046 19.71 88.0126 20.3993 88.5553 20.898C89.0979 21.3967 89.7653 21.646 90.5573 21.646C91.7013 21.646 92.5153 21.1547 92.9993 20.172H96.3213C95.9693 21.3453 95.2946 22.3133 94.2973 23.076C93.2999 23.824 92.0753 24.198 90.6233 24.198C89.4499 24.198 88.3939 23.9413 87.4553 23.428C86.5313 22.9 85.8053 22.1593 85.2773 21.206C84.7639 20.2527 84.5072 19.1527 84.5072 17.906C84.5072 16.6447 84.7639 15.5373 85.2773 14.584C85.7906 13.6307 86.5093 12.8973 87.4333 12.384C88.3573 11.8707 89.4206 11.614 90.6233 11.614C91.7819 11.614 92.8159 11.8633 93.7253 12.362C94.6493 12.8607 95.3606 13.572 95.8593 14.496C96.3726 15.4053 96.6293 16.454 96.6293 17.642ZM93.4393 16.762C93.4246 15.97 93.1386 15.3393 92.5813 14.87C92.0239 14.386 91.3419 14.144 90.5353 14.144C89.7726 14.144 89.1273 14.3787 88.5993 14.848C88.0859 15.3027 87.7706 15.9407 87.6533 16.762H93.4393ZM98.0854 17.862C98.0854 16.63 98.3274 15.5373 98.8114 14.584C99.31 13.6307 99.9847 12.8973 100.835 12.384C101.686 11.8707 102.632 11.614 103.673 11.614C104.465 11.614 105.221 11.79 105.939 12.142C106.658 12.4793 107.23 12.934 107.655 13.506V7.72H110.779V24H107.655V22.196C107.274 22.7973 106.739 23.2813 106.049 23.648C105.36 24.0147 104.561 24.198 103.651 24.198C102.625 24.198 101.686 23.934 100.835 23.406C99.9847 22.878 99.31 22.1373 98.8114 21.184C98.3274 20.216 98.0854 19.1087 98.0854 17.862ZM107.677 17.906C107.677 17.158 107.531 16.52 107.237 15.992C106.944 15.4493 106.548 15.0387 106.049 14.76C105.551 14.4667 105.015 14.32 104.443 14.32C103.871 14.32 103.343 14.4593 102.859 14.738C102.375 15.0167 101.979 15.4273 101.671 15.97C101.378 16.498 101.231 17.1287 101.231 17.862C101.231 18.5953 101.378 19.2407 101.671 19.798C101.979 20.3407 102.375 20.7587 102.859 21.052C103.358 21.3453 103.886 21.492 104.443 21.492C105.015 21.492 105.551 21.3527 106.049 21.074C106.548 20.7807 106.944 20.37 107.237 19.842C107.531 19.2993 107.677 18.654 107.677 17.906ZM115.35 10.36C114.807 10.36 114.352 10.1913 113.986 9.854C113.634 9.502 113.458 9.06933 113.458 8.556C113.458 8.04267 113.634 7.61733 113.986 7.28C114.352 6.928 114.807 6.752 115.35 6.752C115.892 6.752 116.34 6.928 116.692 7.28C117.058 7.61733 117.242 8.04267 117.242 8.556C117.242 9.06933 117.058 9.502 116.692 9.854C116.34 10.1913 115.892 10.36 115.35 10.36ZM116.868 11.812V24H113.788V11.812H116.868ZM123.497 14.342V20.238C123.497 20.6487 123.592 20.9493 123.783 21.14C123.988 21.316 124.325 21.404 124.795 21.404H126.225V24H124.289C121.693 24 120.395 22.7387 120.395 20.216V14.342H118.943V11.812H120.395V8.798H123.497V11.812H126.225V14.342H123.497ZM132.934 16.3C132.934 14.7893 133.271 13.44 133.946 12.252C134.635 11.0493 135.567 10.118 136.74 9.458C137.928 8.78333 139.255 8.446 140.722 8.446C142.438 8.446 143.941 8.886 145.232 9.766C146.523 10.646 147.425 11.8633 147.938 13.418H144.396C144.044 12.6847 143.545 12.1347 142.9 11.768C142.269 11.4013 141.536 11.218 140.7 11.218C139.805 11.218 139.006 11.4307 138.302 11.856C137.613 12.2667 137.07 12.8533 136.674 13.616C136.293 14.3787 136.102 15.2733 136.102 16.3C136.102 17.312 136.293 18.2067 136.674 18.984C137.07 19.7467 137.613 20.3407 138.302 20.766C139.006 21.1767 139.805 21.382 140.7 21.382C141.536 21.382 142.269 21.1987 142.9 20.832C143.545 20.4507 144.044 19.8933 144.396 19.16H147.938C147.425 20.7293 146.523 21.954 145.232 22.834C143.956 23.6993 142.453 24.132 140.722 24.132C139.255 24.132 137.928 23.802 136.74 23.142C135.567 22.4673 134.635 21.536 133.946 20.348C133.271 19.16 132.934 17.8107 132.934 16.3ZM149.777 17.862C149.777 16.63 150.019 15.5373 150.503 14.584C151.001 13.6307 151.669 12.8973 152.505 12.384C153.355 11.8707 154.301 11.614 155.343 11.614C156.252 11.614 157.044 11.7973 157.719 12.164C158.408 12.5307 158.958 12.9927 159.369 13.55V11.812H162.471V24H159.369V22.218C158.973 22.79 158.423 23.2667 157.719 23.648C157.029 24.0147 156.23 24.198 155.321 24.198C154.294 24.198 153.355 23.934 152.505 23.406C151.669 22.878 151.001 22.1373 150.503 21.184C150.019 20.216 149.777 19.1087 149.777 17.862ZM159.369 17.906C159.369 17.158 159.222 16.52 158.929 15.992C158.635 15.4493 158.239 15.0387 157.741 14.76C157.242 14.4667 156.707 14.32 156.135 14.32C155.563 14.32 155.035 14.4593 154.551 14.738C154.067 15.0167 153.671 15.4273 153.363 15.97C153.069 16.498 152.923 17.1287 152.923 17.862C152.923 18.5953 153.069 19.2407 153.363 19.798C153.671 20.3407 154.067 20.7587 154.551 21.052C155.049 21.3453 155.577 21.492 156.135 21.492C156.707 21.492 157.242 21.3527 157.741 21.074C158.239 20.7807 158.635 20.37 158.929 19.842C159.222 19.2993 159.369 18.654 159.369 17.906ZM168.559 13.704C168.955 13.0587 169.468 12.5527 170.099 12.186C170.744 11.8193 171.478 11.636 172.299 11.636V14.87H171.485C170.517 14.87 169.784 15.0973 169.285 15.552C168.801 16.0067 168.559 16.7987 168.559 17.928V24H165.479V11.812H168.559V13.704ZM173.581 17.862C173.581 16.63 173.823 15.5373 174.307 14.584C174.806 13.6307 175.481 12.8973 176.331 12.384C177.182 11.8707 178.128 11.614 179.169 11.614C179.961 11.614 180.717 11.79 181.435 12.142C182.154 12.4793 182.726 12.934 183.151 13.506V7.72H186.275V24H183.151V22.196C182.77 22.7973 182.235 23.2813 181.545 23.648C180.856 24.0147 180.057 24.198 179.147 24.198C178.121 24.198 177.182 23.934 176.331 23.406C175.481 22.878 174.806 22.1373 174.307 21.184C173.823 20.216 173.581 19.1087 173.581 17.862ZM183.173 17.906C183.173 17.158 183.027 16.52 182.733 15.992C182.44 15.4493 182.044 15.0387 181.545 14.76C181.047 14.4667 180.511 14.32 179.939 14.32C179.367 14.32 178.839 14.4593 178.355 14.738C177.871 15.0167 177.475 15.4273 177.167 15.97C176.874 16.498 176.727 17.1287 176.727 17.862C176.727 18.5953 176.874 19.2407 177.167 19.798C177.475 20.3407 177.871 20.7587 178.355 21.052C178.854 21.3453 179.382 21.492 179.939 21.492C180.511 21.492 181.047 21.3527 181.545 21.074C182.044 20.7807 182.44 20.37 182.733 19.842C183.027 19.2993 183.173 18.654 183.173 17.906Z" fill="black"/>
<path opacity="0.75" d="M63.96 70.14C63.04 70.14 62.2133 69.98 61.48 69.66C60.76 69.3267 60.1933 68.8733 59.78 68.3C59.3667 67.7133 59.1533 67.04 59.14 66.28H61.08C61.1467 66.9333 61.4133 67.4867 61.88 67.94C62.36 68.38 63.0533 68.6 63.96 68.6C64.8267 68.6 65.5067 68.3867 66 67.96C66.5067 67.52 66.76 66.96 66.76 66.28C66.76 65.7467 66.6133 65.3133 66.32 64.98C66.0267 64.6467 65.66 64.3933 65.22 64.22C64.78 64.0467 64.1867 63.86 63.44 63.66C62.52 63.42 61.78 63.18 61.22 62.94C60.6733 62.7 60.2 62.3267 59.8 61.82C59.4133 61.3 59.22 60.6067 59.22 59.74C59.22 58.98 59.4133 58.3067 59.8 57.72C60.1867 57.1333 60.7267 56.68 61.42 56.36C62.1267 56.04 62.9333 55.88 63.84 55.88C65.1467 55.88 66.2133 56.2067 67.04 56.86C67.88 57.5133 68.3533 58.38 68.46 59.46H66.46C66.3933 58.9267 66.1133 58.46 65.62 58.06C65.1267 57.6467 64.4733 57.44 63.66 57.44C62.9 57.44 62.28 57.64 61.8 58.04C61.32 58.4267 61.08 58.9733 61.08 59.68C61.08 60.1867 61.22 60.6 61.5 60.92C61.7933 61.24 62.1467 61.4867 62.56 61.66C62.9867 61.82 63.58 62.0067 64.34 62.22C65.26 62.4733 66 62.7267 66.56 62.98C67.12 63.22 67.6 63.6 68 64.12C68.4 64.6267 68.6 65.32 68.6 66.2C68.6 66.88 68.42 67.52 68.06 68.12C67.7 68.72 67.1667 69.2067 66.46 69.58C65.7533 69.9533 64.92 70.14 63.96 70.14ZM70.5983 64.48C70.5983 63.36 70.8249 62.38 71.2783 61.54C71.7316 60.6867 72.3516 60.0267 73.1383 59.56C73.9383 59.0933 74.8249 58.86 75.7983 58.86C76.7583 58.86 77.5916 59.0667 78.2983 59.48C79.0049 59.8933 79.5316 60.4133 79.8783 61.04V59.04H81.7183V70H79.8783V67.96C79.5183 68.6 78.9783 69.1333 78.2583 69.56C77.5516 69.9733 76.7249 70.18 75.7783 70.18C74.8049 70.18 73.9249 69.94 73.1383 69.46C72.3516 68.98 71.7316 68.3067 71.2783 67.44C70.8249 66.5733 70.5983 65.5867 70.5983 64.48ZM79.8783 64.5C79.8783 63.6733 79.7116 62.9533 79.3783 62.34C79.0449 61.7267 78.5916 61.26 78.0183 60.94C77.4583 60.6067 76.8383 60.44 76.1583 60.44C75.4783 60.44 74.8583 60.6 74.2983 60.92C73.7383 61.24 73.2916 61.7067 72.9583 62.32C72.6249 62.9333 72.4583 63.6533 72.4583 64.48C72.4583 65.32 72.6249 66.0533 72.9583 66.68C73.2916 67.2933 73.7383 67.7667 74.2983 68.1C74.8583 68.42 75.4783 68.58 76.1583 68.58C76.8383 68.58 77.4583 68.42 78.0183 68.1C78.5916 67.7667 79.0449 67.2933 79.3783 66.68C79.7116 66.0533 79.8783 65.3267 79.8783 64.5ZM89.2539 60.54H86.9539V70H85.1339V60.54H83.7139V59.04H85.1339V58.26C85.1339 57.0333 85.4472 56.14 86.0739 55.58C86.7139 55.0067 87.7339 54.72 89.1339 54.72V56.24C88.3339 56.24 87.7672 56.4 87.4339 56.72C87.1139 57.0267 86.9539 57.54 86.9539 58.26V59.04H89.2539V60.54ZM101.376 64.1C101.376 64.4467 101.356 64.8133 101.316 65.2H92.5559C92.6226 66.28 92.9893 67.1267 93.6559 67.74C94.3359 68.34 95.1559 68.64 96.1159 68.64C96.9026 68.64 97.5559 68.46 98.0759 68.1C98.6093 67.7267 98.9826 67.2333 99.1959 66.62H101.156C100.863 67.6733 100.276 68.5333 99.3959 69.2C98.5159 69.8533 97.4226 70.18 96.1159 70.18C95.0759 70.18 94.1426 69.9467 93.3159 69.48C92.5026 69.0133 91.8626 68.3533 91.3959 67.5C90.9293 66.6333 90.6959 65.6333 90.6959 64.5C90.6959 63.3667 90.9226 62.3733 91.3759 61.52C91.8293 60.6667 92.4626 60.0133 93.2759 59.56C94.1026 59.0933 95.0493 58.86 96.1159 58.86C97.1559 58.86 98.0759 59.0867 98.8759 59.54C99.6759 59.9933 100.289 60.62 100.716 61.42C101.156 62.2067 101.376 63.1 101.376 64.1ZM99.4959 63.72C99.4959 63.0267 99.3426 62.4333 99.0359 61.94C98.7293 61.4333 98.3093 61.0533 97.7759 60.8C97.2559 60.5333 96.6759 60.4 96.0359 60.4C95.1159 60.4 94.3293 60.6933 93.6759 61.28C93.0359 61.8667 92.6693 62.68 92.5759 63.72H99.4959ZM122.29 58.84C123.144 58.84 123.904 59.02 124.57 59.38C125.237 59.7267 125.764 60.2533 126.15 60.96C126.537 61.6667 126.73 62.5267 126.73 63.54V70H124.93V63.8C124.93 62.7067 124.657 61.8733 124.11 61.3C123.577 60.7133 122.85 60.42 121.93 60.42C120.984 60.42 120.23 60.7267 119.67 61.34C119.11 61.94 118.83 62.8133 118.83 63.96V70H117.03V63.8C117.03 62.7067 116.757 61.8733 116.21 61.3C115.677 60.7133 114.95 60.42 114.03 60.42C113.084 60.42 112.33 60.7267 111.77 61.34C111.21 61.94 110.93 62.8133 110.93 63.96V70H109.11V59.04H110.93V60.62C111.29 60.0467 111.77 59.6067 112.37 59.3C112.984 58.9933 113.657 58.84 114.39 58.84C115.31 58.84 116.124 59.0467 116.83 59.46C117.537 59.8733 118.064 60.48 118.41 61.28C118.717 60.5067 119.224 59.9067 119.93 59.48C120.637 59.0533 121.424 58.84 122.29 58.84ZM134.496 70.18C133.469 70.18 132.536 69.9467 131.696 69.48C130.869 69.0133 130.216 68.3533 129.736 67.5C129.269 66.6333 129.036 65.6333 129.036 64.5C129.036 63.38 129.276 62.3933 129.756 61.54C130.249 60.6733 130.916 60.0133 131.756 59.56C132.596 59.0933 133.536 58.86 134.576 58.86C135.616 58.86 136.556 59.0933 137.396 59.56C138.236 60.0133 138.896 60.6667 139.376 61.52C139.869 62.3733 140.116 63.3667 140.116 64.5C140.116 65.6333 139.862 66.6333 139.356 67.5C138.862 68.3533 138.189 69.0133 137.336 69.48C136.482 69.9467 135.536 70.18 134.496 70.18ZM134.496 68.58C135.149 68.58 135.762 68.4267 136.336 68.12C136.909 67.8133 137.369 67.3533 137.716 66.74C138.076 66.1267 138.256 65.38 138.256 64.5C138.256 63.62 138.082 62.8733 137.736 62.26C137.389 61.6467 136.936 61.1933 136.376 60.9C135.816 60.5933 135.209 60.44 134.556 60.44C133.889 60.44 133.276 60.5933 132.716 60.9C132.169 61.1933 131.729 61.6467 131.396 62.26C131.062 62.8733 130.896 63.62 130.896 64.5C130.896 65.3933 131.056 66.1467 131.376 66.76C131.709 67.3733 132.149 67.8333 132.696 68.14C133.242 68.4333 133.842 68.58 134.496 68.58ZM147.849 58.84C149.182 58.84 150.262 59.2467 151.089 60.06C151.915 60.86 152.329 62.02 152.329 63.54V70H150.529V63.8C150.529 62.7067 150.255 61.8733 149.709 61.3C149.162 60.7133 148.415 60.42 147.469 60.42C146.509 60.42 145.742 60.72 145.169 61.32C144.609 61.92 144.329 62.7933 144.329 63.94V70H142.509V59.04H144.329V60.6C144.689 60.04 145.175 59.6067 145.789 59.3C146.415 58.9933 147.102 58.84 147.849 58.84ZM165.302 64.1C165.302 64.4467 165.282 64.8133 165.242 65.2H156.482C156.548 66.28 156.915 67.1267 157.582 67.74C158.262 68.34 159.082 68.64 160.042 68.64C160.828 68.64 161.482 68.46 162.002 68.1C162.535 67.7267 162.908 67.2333 163.122 66.62H165.082C164.788 67.6733 164.202 68.5333 163.322 69.2C162.442 69.8533 161.348 70.18 160.042 70.18C159.002 70.18 158.068 69.9467 157.242 69.48C156.428 69.0133 155.788 68.3533 155.322 67.5C154.855 66.6333 154.622 65.6333 154.622 64.5C154.622 63.3667 154.848 62.3733 155.302 61.52C155.755 60.6667 156.388 60.0133 157.202 59.56C158.028 59.0933 158.975 58.86 160.042 58.86C161.082 58.86 162.002 59.0867 162.802 59.54C163.602 59.9933 164.215 60.62 164.642 61.42C165.082 62.2067 165.302 63.1 165.302 64.1ZM163.422 63.72C163.422 63.0267 163.268 62.4333 162.962 61.94C162.655 61.4333 162.235 61.0533 161.702 60.8C161.182 60.5333 160.602 60.4 159.962 60.4C159.042 60.4 158.255 60.6933 157.602 61.28C156.962 61.8667 156.595 62.68 156.502 63.72H163.422ZM177.144 59.04L170.544 75.16H168.664L170.824 69.88L166.404 59.04H168.424L171.864 67.92L175.264 59.04H177.144ZM186.526 60.54V67C186.526 67.5333 186.639 67.9133 186.866 68.14C187.092 68.3533 187.486 68.46 188.046 68.46H189.386V70H187.746C186.732 70 185.972 69.7667 185.466 69.3C184.959 68.8333 184.706 68.0667 184.706 67V60.54H183.286V59.04H184.706V56.28H186.526V59.04H189.386V60.54H186.526ZM193.411 60.82C193.731 60.1933 194.184 59.7067 194.771 59.36C195.371 59.0133 196.097 58.84 196.951 58.84V60.72H196.471C194.431 60.72 193.411 61.8267 193.411 64.04V70H191.591V59.04H193.411V60.82ZM198.372 64.48C198.372 63.36 198.598 62.38 199.052 61.54C199.505 60.6867 200.125 60.0267 200.912 59.56C201.712 59.0933 202.598 58.86 203.572 58.86C204.532 58.86 205.365 59.0667 206.072 59.48C206.778 59.8933 207.305 60.4133 207.652 61.04V59.04H209.492V70H207.652V67.96C207.292 68.6 206.752 69.1333 206.032 69.56C205.325 69.9733 204.498 70.18 203.552 70.18C202.578 70.18 201.698 69.94 200.912 69.46C200.125 68.98 199.505 68.3067 199.052 67.44C198.598 66.5733 198.372 65.5867 198.372 64.48ZM207.652 64.5C207.652 63.6733 207.485 62.9533 207.152 62.34C206.818 61.7267 206.365 61.26 205.792 60.94C205.232 60.6067 204.612 60.44 203.932 60.44C203.252 60.44 202.632 60.6 202.072 60.92C201.512 61.24 201.065 61.7067 200.732 62.32C200.398 62.9333 200.232 63.6533 200.232 64.48C200.232 65.32 200.398 66.0533 200.732 66.68C201.065 67.2933 201.512 67.7667 202.072 68.1C202.632 68.42 203.252 68.58 203.932 68.58C204.612 68.58 205.232 68.42 205.792 68.1C206.365 67.7667 206.818 67.2933 207.152 66.68C207.485 66.0533 207.652 65.3267 207.652 64.5ZM217.907 58.84C219.241 58.84 220.321 59.2467 221.147 60.06C221.974 60.86 222.387 62.02 222.387 63.54V70H220.587V63.8C220.587 62.7067 220.314 61.8733 219.767 61.3C219.221 60.7133 218.474 60.42 217.527 60.42C216.567 60.42 215.801 60.72 215.227 61.32C214.667 61.92 214.387 62.7933 214.387 63.94V70H212.567V59.04H214.387V60.6C214.747 60.04 215.234 59.6067 215.847 59.3C216.474 58.9933 217.161 58.84 217.907 58.84ZM229.24 70.18C228.4 70.18 227.647 70.04 226.98 69.76C226.314 69.4667 225.787 69.0667 225.4 68.56C225.014 68.04 224.8 67.4467 224.76 66.78H226.64C226.694 67.3267 226.947 67.7733 227.4 68.12C227.867 68.4667 228.474 68.64 229.22 68.64C229.914 68.64 230.46 68.4867 230.86 68.18C231.26 67.8733 231.46 67.4867 231.46 67.02C231.46 66.54 231.247 66.1867 230.82 65.96C230.394 65.72 229.734 65.4867 228.84 65.26C228.027 65.0467 227.36 64.8333 226.84 64.62C226.334 64.3933 225.894 64.0667 225.52 63.64C225.16 63.2 224.98 62.6267 224.98 61.92C224.98 61.36 225.147 60.8467 225.48 60.38C225.814 59.9133 226.287 59.5467 226.9 59.28C227.514 59 228.214 58.86 229 58.86C230.214 58.86 231.194 59.1667 231.94 59.78C232.687 60.3933 233.087 61.2333 233.14 62.3H231.32C231.28 61.7267 231.047 61.2667 230.62 60.92C230.207 60.5733 229.647 60.4 228.94 60.4C228.287 60.4 227.767 60.54 227.38 60.82C226.994 61.1 226.8 61.4667 226.8 61.92C226.8 62.28 226.914 62.58 227.14 62.82C227.38 63.0467 227.674 63.2333 228.02 63.38C228.38 63.5133 228.874 63.6667 229.5 63.84C230.287 64.0533 230.927 64.2667 231.42 64.48C231.914 64.68 232.334 64.9867 232.68 65.4C233.04 65.8133 233.227 66.3533 233.24 67.02C233.24 67.62 233.074 68.16 232.74 68.64C232.407 69.12 231.934 69.5 231.32 69.78C230.72 70.0467 230.027 70.18 229.24 70.18ZM240.27 60.54H237.97V70H236.15V60.54H234.73V59.04H236.15V58.26C236.15 57.0333 236.463 56.14 237.09 55.58C237.73 55.0067 238.75 54.72 240.15 54.72V56.24C239.35 56.24 238.783 56.4 238.45 56.72C238.13 57.0267 237.97 57.54 237.97 58.26V59.04H240.27V60.54ZM252.392 64.1C252.392 64.4467 252.372 64.8133 252.332 65.2H243.572C243.638 66.28 244.005 67.1267 244.672 67.74C245.352 68.34 246.172 68.64 247.132 68.64C247.918 68.64 248.572 68.46 249.092 68.1C249.625 67.7267 249.998 67.2333 250.212 66.62H252.172C251.878 67.6733 251.292 68.5333 250.412 69.2C249.532 69.8533 248.438 70.18 247.132 70.18C246.092 70.18 245.158 69.9467 244.332 69.48C243.518 69.0133 242.878 68.3533 242.412 67.5C241.945 66.6333 241.712 65.6333 241.712 64.5C241.712 63.3667 241.938 62.3733 242.392 61.52C242.845 60.6667 243.478 60.0133 244.292 59.56C245.118 59.0933 246.065 58.86 247.132 58.86C248.172 58.86 249.092 59.0867 249.892 59.54C250.692 59.9933 251.305 60.62 251.732 61.42C252.172 62.2067 252.392 63.1 252.392 64.1ZM250.512 63.72C250.512 63.0267 250.358 62.4333 250.052 61.94C249.745 61.4333 249.325 61.0533 248.792 60.8C248.272 60.5333 247.692 60.4 247.052 60.4C246.132 60.4 245.345 60.6933 244.692 61.28C244.052 61.8667 243.685 62.68 243.592 63.72H250.512ZM256.614 60.82C256.934 60.1933 257.387 59.7067 257.974 59.36C258.574 59.0133 259.301 58.84 260.154 58.84V60.72H259.674C257.634 60.72 256.614 61.8267 256.614 64.04V70H254.794V59.04H256.614V60.82ZM277.307 59.04V70H275.487V68.38C275.14 68.94 274.654 69.38 274.027 69.7C273.414 70.0067 272.734 70.16 271.987 70.16C271.134 70.16 270.367 69.9867 269.687 69.64C269.007 69.28 268.467 68.7467 268.067 68.04C267.68 67.3333 267.487 66.4733 267.487 65.46V59.04H269.287V65.22C269.287 66.3 269.56 67.1333 270.107 67.72C270.654 68.2933 271.4 68.58 272.347 68.58C273.32 68.58 274.087 68.28 274.647 67.68C275.207 67.08 275.487 66.2067 275.487 65.06V59.04H277.307ZM284.26 70.18C283.42 70.18 282.667 70.04 282 69.76C281.333 69.4667 280.807 69.0667 280.42 68.56C280.033 68.04 279.82 67.4467 279.78 66.78H281.66C281.713 67.3267 281.967 67.7733 282.42 68.12C282.887 68.4667 283.493 68.64 284.24 68.64C284.933 68.64 285.48 68.4867 285.88 68.18C286.28 67.8733 286.48 67.4867 286.48 67.02C286.48 66.54 286.267 66.1867 285.84 65.96C285.413 65.72 284.753 65.4867 283.86 65.26C283.047 65.0467 282.38 64.8333 281.86 64.62C281.353 64.3933 280.913 64.0667 280.54 63.64C280.18 63.2 280 62.6267 280 61.92C280 61.36 280.167 60.8467 280.5 60.38C280.833 59.9133 281.307 59.5467 281.92 59.28C282.533 59 283.233 58.86 284.02 58.86C285.233 58.86 286.213 59.1667 286.96 59.78C287.707 60.3933 288.107 61.2333 288.16 62.3H286.34C286.3 61.7267 286.067 61.2667 285.64 60.92C285.227 60.5733 284.667 60.4 283.96 60.4C283.307 60.4 282.787 60.54 282.4 60.82C282.013 61.1 281.82 61.4667 281.82 61.92C281.82 62.28 281.933 62.58 282.16 62.82C282.4 63.0467 282.693 63.2333 283.04 63.38C283.4 63.5133 283.893 63.6667 284.52 63.84C285.307 64.0533 285.947 64.2667 286.44 64.48C286.933 64.68 287.353 64.9867 287.7 65.4C288.06 65.8133 288.247 66.3533 288.26 67.02C288.26 67.62 288.093 68.16 287.76 68.64C287.427 69.12 286.953 69.5 286.34 69.78C285.74 70.0467 285.047 70.18 284.26 70.18ZM291.769 57.26C291.422 57.26 291.129 57.14 290.889 56.9C290.649 56.66 290.529 56.3667 290.529 56.02C290.529 55.6733 290.649 55.38 290.889 55.14C291.129 54.9 291.422 54.78 291.769 54.78C292.102 54.78 292.382 54.9 292.609 55.14C292.849 55.38 292.969 55.6733 292.969 56.02C292.969 56.3667 292.849 56.66 292.609 56.9C292.382 57.14 292.102 57.26 291.769 57.26ZM292.649 59.04V70H290.829V59.04H292.649ZM301.091 58.84C302.424 58.84 303.504 59.2467 304.331 60.06C305.158 60.86 305.571 62.02 305.571 63.54V70H303.771V63.8C303.771 62.7067 303.498 61.8733 302.951 61.3C302.404 60.7133 301.658 60.42 300.711 60.42C299.751 60.42 298.984 60.72 298.411 61.32C297.851 61.92 297.571 62.7933 297.571 63.94V70H295.751V59.04H297.571V60.6C297.931 60.04 298.418 59.6067 299.031 59.3C299.658 58.9933 300.344 58.84 301.091 58.84ZM313.064 58.86C314.011 58.86 314.837 59.0667 315.544 59.48C316.264 59.8933 316.797 60.4133 317.144 61.04V59.04H318.984V70.24C318.984 71.24 318.771 72.1267 318.344 72.9C317.917 73.6867 317.304 74.3 316.504 74.74C315.717 75.18 314.797 75.4 313.744 75.4C312.304 75.4 311.104 75.06 310.144 74.38C309.184 73.7 308.617 72.7733 308.444 71.6H310.244C310.444 72.2667 310.857 72.8 311.484 73.2C312.111 73.6133 312.864 73.82 313.744 73.82C314.744 73.82 315.557 73.5067 316.184 72.88C316.824 72.2533 317.144 71.3733 317.144 70.24V67.94C316.784 68.58 316.251 69.1133 315.544 69.54C314.837 69.9667 314.011 70.18 313.064 70.18C312.091 70.18 311.204 69.94 310.404 69.46C309.617 68.98 308.997 68.3067 308.544 67.44C308.091 66.5733 307.864 65.5867 307.864 64.48C307.864 63.36 308.091 62.38 308.544 61.54C308.997 60.6867 309.617 60.0267 310.404 59.56C311.204 59.0933 312.091 58.86 313.064 58.86ZM317.144 64.5C317.144 63.6733 316.977 62.9533 316.644 62.34C316.311 61.7267 315.857 61.26 315.284 60.94C314.724 60.6067 314.104 60.44 313.424 60.44C312.744 60.44 312.124 60.6 311.564 60.92C311.004 61.24 310.557 61.7067 310.224 62.32C309.891 62.9333 309.724 63.6533 309.724 64.48C309.724 65.32 309.891 66.0533 310.224 66.68C310.557 67.2933 311.004 67.7667 311.564 68.1C312.124 68.42 312.744 68.58 313.424 68.58C314.104 68.58 314.724 68.42 315.284 68.1C315.857 67.7667 316.311 67.2933 316.644 66.68C316.977 66.0533 317.144 65.3267 317.144 64.5ZM336.832 59.04L330.232 75.16H328.352L330.512 69.88L326.092 59.04H328.112L331.552 67.92L334.952 59.04H336.832ZM343.441 70.18C342.414 70.18 341.481 69.9467 340.641 69.48C339.814 69.0133 339.161 68.3533 338.681 67.5C338.214 66.6333 337.981 65.6333 337.981 64.5C337.981 63.38 338.221 62.3933 338.701 61.54C339.194 60.6733 339.861 60.0133 340.701 59.56C341.541 59.0933 342.481 58.86 343.521 58.86C344.561 58.86 345.501 59.0933 346.341 59.56C347.181 60.0133 347.841 60.6667 348.321 61.52C348.814 62.3733 349.061 63.3667 349.061 64.5C349.061 65.6333 348.808 66.6333 348.301 67.5C347.808 68.3533 347.134 69.0133 346.281 69.48C345.428 69.9467 344.481 70.18 343.441 70.18ZM343.441 68.58C344.094 68.58 344.708 68.4267 345.281 68.12C345.854 67.8133 346.314 67.3533 346.661 66.74C347.021 66.1267 347.201 65.38 347.201 64.5C347.201 63.62 347.028 62.8733 346.681 62.26C346.334 61.6467 345.881 61.1933 345.321 60.9C344.761 60.5933 344.154 60.44 343.501 60.44C342.834 60.44 342.221 60.5933 341.661 60.9C341.114 61.1933 340.674 61.6467 340.341 62.26C340.008 62.8733 339.841 63.62 339.841 64.5C339.841 65.3933 340.001 66.1467 340.321 66.76C340.654 67.3733 341.094 67.8333 341.641 68.14C342.188 68.4333 342.788 68.58 343.441 68.58ZM361.174 59.04V70H359.354V68.38C359.007 68.94 358.521 69.38 357.894 69.7C357.281 70.0067 356.601 70.16 355.854 70.16C355.001 70.16 354.234 69.9867 353.554 69.64C352.874 69.28 352.334 68.7467 351.934 68.04C351.547 67.3333 351.354 66.4733 351.354 65.46V59.04H353.154V65.22C353.154 66.3 353.427 67.1333 353.974 67.72C354.521 68.2933 355.267 68.58 356.214 68.58C357.187 68.58 357.954 68.28 358.514 67.68C359.074 67.08 359.354 66.2067 359.354 65.06V59.04H361.174ZM366.067 60.82C366.387 60.1933 366.84 59.7067 367.427 59.36C368.027 59.0133 368.754 58.84 369.607 58.84V60.72H369.127C367.087 60.72 366.067 61.8267 366.067 64.04V70H364.247V59.04H366.067V60.82ZM378.86 61.08C379.233 60.4267 379.78 59.8933 380.5 59.48C381.22 59.0667 382.04 58.86 382.96 58.86C383.947 58.86 384.833 59.0933 385.62 59.56C386.407 60.0267 387.027 60.6867 387.48 61.54C387.933 62.38 388.16 63.36 388.16 64.48C388.16 65.5867 387.933 66.5733 387.48 67.44C387.027 68.3067 386.4 68.98 385.6 69.46C384.813 69.94 383.933 70.18 382.96 70.18C382.013 70.18 381.18 69.9733 380.46 69.56C379.753 69.1467 379.22 68.62 378.86 67.98V70H377.04V55.2H378.86V61.08ZM386.3 64.48C386.3 63.6533 386.133 62.9333 385.8 62.32C385.467 61.7067 385.013 61.24 384.44 60.92C383.88 60.6 383.26 60.44 382.58 60.44C381.913 60.44 381.293 60.6067 380.72 60.94C380.16 61.26 379.707 61.7333 379.36 62.36C379.027 62.9733 378.86 63.6867 378.86 64.5C378.86 65.3267 379.027 66.0533 379.36 66.68C379.707 67.2933 380.16 67.7667 380.72 68.1C381.293 68.42 381.913 68.58 382.58 68.58C383.26 68.58 383.88 68.42 384.44 68.1C385.013 67.7667 385.467 67.2933 385.8 66.68C386.133 66.0533 386.3 65.32 386.3 64.48ZM389.876 64.48C389.876 63.36 390.102 62.38 390.556 61.54C391.009 60.6867 391.629 60.0267 392.416 59.56C393.216 59.0933 394.102 58.86 395.076 58.86C396.036 58.86 396.869 59.0667 397.576 59.48C398.282 59.8933 398.809 60.4133 399.156 61.04V59.04H400.996V70H399.156V67.96C398.796 68.6 398.256 69.1333 397.536 69.56C396.829 69.9733 396.002 70.18 395.056 70.18C394.082 70.18 393.202 69.94 392.416 69.46C391.629 68.98 391.009 68.3067 390.556 67.44C390.102 66.5733 389.876 65.5867 389.876 64.48ZM399.156 64.5C399.156 63.6733 398.989 62.9533 398.656 62.34C398.322 61.7267 397.869 61.26 397.296 60.94C396.736 60.6067 396.116 60.44 395.436 60.44C394.756 60.44 394.136 60.6 393.576 60.92C393.016 61.24 392.569 61.7067 392.236 62.32C391.902 62.9333 391.736 63.6533 391.736 64.48C391.736 65.32 391.902 66.0533 392.236 66.68C392.569 67.2933 393.016 67.7667 393.576 68.1C394.136 68.42 394.756 68.58 395.436 68.58C396.116 68.58 396.736 68.42 397.296 68.1C397.869 67.7667 398.322 67.2933 398.656 66.68C398.989 66.0533 399.156 65.3267 399.156 64.5ZM409.411 58.84C410.745 58.84 411.825 59.2467 412.651 60.06C413.478 60.86 413.891 62.02 413.891 63.54V70H412.091V63.8C412.091 62.7067 411.818 61.8733 411.271 61.3C410.725 60.7133 409.978 60.42 409.031 60.42C408.071 60.42 407.305 60.72 406.731 61.32C406.171 61.92 405.891 62.7933 405.891 63.94V70H404.071V59.04H405.891V60.6C406.251 60.04 406.738 59.6067 407.351 59.3C407.978 58.9933 408.665 58.84 409.411 58.84ZM422.984 70L418.684 65.16V70H416.864V55.2H418.684V63.9L422.904 59.04H425.444L420.284 64.5L425.464 70H422.984ZM431.809 64.48C431.809 63.36 432.036 62.38 432.489 61.54C432.943 60.6867 433.563 60.0267 434.349 59.56C435.149 59.0933 436.036 58.86 437.009 58.86C437.969 58.86 438.803 59.0667 439.509 59.48C440.216 59.8933 440.743 60.4133 441.089 61.04V59.04H442.929V70H441.089V67.96C440.729 68.6 440.189 69.1333 439.469 69.56C438.763 69.9733 437.936 70.18 436.989 70.18C436.016 70.18 435.136 69.94 434.349 69.46C433.563 68.98 432.943 68.3067 432.489 67.44C432.036 66.5733 431.809 65.5867 431.809 64.48ZM441.089 64.5C441.089 63.6733 440.923 62.9533 440.589 62.34C440.256 61.7267 439.803 61.26 439.229 60.94C438.669 60.6067 438.049 60.44 437.369 60.44C436.689 60.44 436.069 60.6 435.509 60.92C434.949 61.24 434.503 61.7067 434.169 62.32C433.836 62.9333 433.669 63.6533 433.669 64.48C433.669 65.32 433.836 66.0533 434.169 66.68C434.503 67.2933 434.949 67.7667 435.509 68.1C436.069 68.42 436.689 68.58 437.369 68.58C438.049 68.58 438.669 68.42 439.229 68.1C439.803 67.7667 440.256 67.2933 440.589 66.68C440.923 66.0533 441.089 65.3267 441.089 64.5ZM445.325 64.5C445.325 63.3667 445.552 62.38 446.005 61.54C446.458 60.6867 447.085 60.0267 447.885 59.56C448.698 59.0933 449.625 58.86 450.665 58.86C452.012 58.86 453.118 59.1867 453.985 59.84C454.865 60.4933 455.445 61.4 455.725 62.56H453.765C453.578 61.8933 453.212 61.3667 452.665 60.98C452.132 60.5933 451.465 60.4 450.665 60.4C449.625 60.4 448.785 60.76 448.145 61.48C447.505 62.1867 447.185 63.1933 447.185 64.5C447.185 65.82 447.505 66.84 448.145 67.56C448.785 68.28 449.625 68.64 450.665 68.64C451.465 68.64 452.132 68.4533 452.665 68.08C453.198 67.7067 453.565 67.1733 453.765 66.48H455.725C455.432 67.6 454.845 68.5 453.965 69.18C453.085 69.8467 451.985 70.18 450.665 70.18C449.625 70.18 448.698 69.9467 447.885 69.48C447.085 69.0133 446.458 68.3533 446.005 67.5C445.552 66.6467 445.325 65.6467 445.325 64.5ZM457.473 64.5C457.473 63.3667 457.7 62.38 458.153 61.54C458.607 60.6867 459.233 60.0267 460.033 59.56C460.847 59.0933 461.773 58.86 462.813 58.86C464.16 58.86 465.267 59.1867 466.133 59.84C467.013 60.4933 467.593 61.4 467.873 62.56H465.913C465.727 61.8933 465.36 61.3667 464.813 60.98C464.28 60.5933 463.613 60.4 462.813 60.4C461.773 60.4 460.933 60.76 460.293 61.48C459.653 62.1867 459.333 63.1933 459.333 64.5C459.333 65.82 459.653 66.84 460.293 67.56C460.933 68.28 461.773 68.64 462.813 68.64C463.613 68.64 464.28 68.4533 464.813 68.08C465.347 67.7067 465.713 67.1733 465.913 66.48H467.873C467.58 67.6 466.993 68.5 466.113 69.18C465.233 69.8467 464.133 70.18 462.813 70.18C461.773 70.18 460.847 69.9467 460.033 69.48C459.233 69.0133 458.607 68.3533 458.153 67.5C457.7 66.6467 457.473 65.6467 457.473 64.5ZM475.082 70.18C474.055 70.18 473.122 69.9467 472.282 69.48C471.455 69.0133 470.802 68.3533 470.322 67.5C469.855 66.6333 469.622 65.6333 469.622 64.5C469.622 63.38 469.862 62.3933 470.342 61.54C470.835 60.6733 471.502 60.0133 472.342 59.56C473.182 59.0933 474.122 58.86 475.162 58.86C476.202 58.86 477.142 59.0933 477.982 59.56C478.822 60.0133 479.482 60.6667 479.962 61.52C480.455 62.3733 480.702 63.3667 480.702 64.5C480.702 65.6333 480.448 66.6333 479.942 67.5C479.448 68.3533 478.775 69.0133 477.922 69.48C477.068 69.9467 476.122 70.18 475.082 70.18ZM475.082 68.58C475.735 68.58 476.348 68.4267 476.922 68.12C477.495 67.8133 477.955 67.3533 478.302 66.74C478.662 66.1267 478.842 65.38 478.842 64.5C478.842 63.62 478.668 62.8733 478.322 62.26C477.975 61.6467 477.522 61.1933 476.962 60.9C476.402 60.5933 475.795 60.44 475.142 60.44C474.475 60.44 473.862 60.5933 473.302 60.9C472.755 61.1933 472.315 61.6467 471.982 62.26C471.648 62.8733 471.482 63.62 471.482 64.5C471.482 65.3933 471.642 66.1467 471.962 66.76C472.295 67.3733 472.735 67.8333 473.282 68.14C473.828 68.4333 474.428 68.58 475.082 68.58ZM492.815 59.04V70H490.995V68.38C490.648 68.94 490.161 69.38 489.535 69.7C488.921 70.0067 488.241 70.16 487.495 70.16C486.641 70.16 485.875 69.9867 485.195 69.64C484.515 69.28 483.975 68.7467 483.575 68.04C483.188 67.3333 482.995 66.4733 482.995 65.46V59.04H484.795V65.22C484.795 66.3 485.068 67.1333 485.615 67.72C486.161 68.2933 486.908 68.58 487.855 68.58C488.828 68.58 489.595 68.28 490.155 67.68C490.715 67.08 490.995 66.2067 490.995 65.06V59.04H492.815ZM501.228 58.84C502.561 58.84 503.641 59.2467 504.468 60.06C505.294 60.86 505.708 62.02 505.708 63.54V70H503.908V63.8C503.908 62.7067 503.634 61.8733 503.088 61.3C502.541 60.7133 501.794 60.42 500.848 60.42C499.888 60.42 499.121 60.72 498.548 61.32C497.988 61.92 497.708 62.7933 497.708 63.94V70H495.888V59.04H497.708V60.6C498.068 60.04 498.554 59.6067 499.168 59.3C499.794 58.9933 500.481 58.84 501.228 58.84ZM510.901 60.54V67C510.901 67.5333 511.014 67.9133 511.241 68.14C511.467 68.3533 511.861 68.46 512.421 68.46H513.761V70H512.121C511.107 70 510.347 69.7667 509.841 69.3C509.334 68.8333 509.081 68.0667 509.081 67V60.54H507.661V59.04H509.081V56.28H510.901V59.04H513.761V60.54H510.901ZM64.32 100.18C63.2933 100.18 62.36 99.9467 61.52 99.48C60.6933 99.0133 60.04 98.3533 59.56 97.5C59.0933 96.6333 58.86 95.6333 58.86 94.5C58.86 93.38 59.1 92.3933 59.58 91.54C60.0733 90.6733 60.74 90.0133 61.58 89.56C62.42 89.0933 63.36 88.86 64.4 88.86C65.44 88.86 66.38 89.0933 67.22 89.56C68.06 90.0133 68.72 90.6667 69.2 91.52C69.6933 92.3733 69.94 93.3667 69.94 94.5C69.94 95.6333 69.6867 96.6333 69.18 97.5C68.6867 98.3533 68.0133 99.0133 67.16 99.48C66.3067 99.9467 65.36 100.18 64.32 100.18ZM64.32 98.58C64.9733 98.58 65.5867 98.4267 66.16 98.12C66.7333 97.8133 67.1933 97.3533 67.54 96.74C67.9 96.1267 68.08 95.38 68.08 94.5C68.08 93.62 67.9067 92.8733 67.56 92.26C67.2133 91.6467 66.76 91.1933 66.2 90.9C65.64 90.5933 65.0333 90.44 64.38 90.44C63.7133 90.44 63.1 90.5933 62.54 90.9C61.9933 91.1933 61.5533 91.6467 61.22 92.26C60.8867 92.8733 60.72 93.62 60.72 94.5C60.72 95.3933 60.88 96.1467 61.2 96.76C61.5333 97.3733 61.9733 97.8333 62.52 98.14C63.0667 98.4333 63.6667 98.58 64.32 98.58ZM77.673 88.84C79.0063 88.84 80.0863 89.2467 80.913 90.06C81.7396 90.86 82.153 92.02 82.153 93.54V100H80.353V93.8C80.353 92.7067 80.0796 91.8733 79.533 91.3C78.9863 90.7133 78.2396 90.42 77.293 90.42C76.333 90.42 75.5663 90.72 74.993 91.32C74.433 91.92 74.153 92.7933 74.153 93.94V100H72.333V89.04H74.153V90.6C74.513 90.04 74.9996 89.6067 75.613 89.3C76.2396 88.9933 76.9263 88.84 77.673 88.84ZM86.9459 85.2V100H85.1259V85.2H86.9459ZM99.4878 89.04L92.8878 105.16H91.0078L93.1678 99.88L88.7478 89.04H90.7678L94.2078 97.92L97.6078 89.04H99.4878ZM116.369 89.04V100H114.549V98.38C114.203 98.94 113.716 99.38 113.089 99.7C112.476 100.007 111.796 100.16 111.049 100.16C110.196 100.16 109.429 99.9867 108.749 99.64C108.069 99.28 107.529 98.7467 107.129 98.04C106.743 97.3333 106.549 96.4733 106.549 95.46V89.04H108.349V95.22C108.349 96.3 108.623 97.1333 109.169 97.72C109.716 98.2933 110.463 98.58 111.409 98.58C112.383 98.58 113.149 98.28 113.709 97.68C114.269 97.08 114.549 96.2067 114.549 95.06V89.04H116.369ZM123.322 100.18C122.482 100.18 121.729 100.04 121.062 99.76C120.396 99.4667 119.869 99.0667 119.482 98.56C119.096 98.04 118.882 97.4467 118.842 96.78H120.722C120.776 97.3267 121.029 97.7733 121.482 98.12C121.949 98.4667 122.556 98.64 123.302 98.64C123.996 98.64 124.542 98.4867 124.942 98.18C125.342 97.8733 125.542 97.4867 125.542 97.02C125.542 96.54 125.329 96.1867 124.902 95.96C124.476 95.72 123.816 95.4867 122.922 95.26C122.109 95.0467 121.442 94.8333 120.922 94.62C120.416 94.3933 119.976 94.0667 119.602 93.64C119.242 93.2 119.062 92.6267 119.062 91.92C119.062 91.36 119.229 90.8467 119.562 90.38C119.896 89.9133 120.369 89.5467 120.982 89.28C121.596 89 122.296 88.86 123.082 88.86C124.296 88.86 125.276 89.1667 126.022 89.78C126.769 90.3933 127.169 91.2333 127.222 92.3H125.402C125.362 91.7267 125.129 91.2667 124.702 90.92C124.289 90.5733 123.729 90.4 123.022 90.4C122.369 90.4 121.849 90.54 121.462 90.82C121.076 91.1 120.882 91.4667 120.882 91.92C120.882 92.28 120.996 92.58 121.222 92.82C121.462 93.0467 121.756 93.2333 122.102 93.38C122.462 93.5133 122.956 93.6667 123.582 93.84C124.369 94.0533 125.009 94.2667 125.502 94.48C125.996 94.68 126.416 94.9867 126.762 95.4C127.122 95.8133 127.309 96.3533 127.322 97.02C127.322 97.62 127.156 98.16 126.822 98.64C126.489 99.12 126.016 99.5 125.402 99.78C124.802 100.047 124.109 100.18 123.322 100.18ZM130.832 87.26C130.485 87.26 130.192 87.14 129.952 86.9C129.712 86.66 129.592 86.3667 129.592 86.02C129.592 85.6733 129.712 85.38 129.952 85.14C130.192 84.9 130.485 84.78 130.832 84.78C131.165 84.78 131.445 84.9 131.672 85.14C131.912 85.38 132.032 85.6733 132.032 86.02C132.032 86.3667 131.912 86.66 131.672 86.9C131.445 87.14 131.165 87.26 130.832 87.26ZM131.712 89.04V100H129.892V89.04H131.712ZM140.153 88.84C141.487 88.84 142.567 89.2467 143.393 90.06C144.22 90.86 144.633 92.02 144.633 93.54V100H142.833V93.8C142.833 92.7067 142.56 91.8733 142.013 91.3C141.467 90.7133 140.72 90.42 139.773 90.42C138.813 90.42 138.047 90.72 137.473 91.32C136.913 91.92 136.633 92.7933 136.633 93.94V100H134.813V89.04H136.633V90.6C136.993 90.04 137.48 89.6067 138.093 89.3C138.72 88.9933 139.407 88.84 140.153 88.84ZM152.126 88.86C153.073 88.86 153.9 89.0667 154.606 89.48C155.326 89.8933 155.86 90.4133 156.206 91.04V89.04H158.046V100.24C158.046 101.24 157.833 102.127 157.406 102.9C156.98 103.687 156.366 104.3 155.566 104.74C154.78 105.18 153.86 105.4 152.806 105.4C151.366 105.4 150.166 105.06 149.206 104.38C148.246 103.7 147.68 102.773 147.506 101.6H149.306C149.506 102.267 149.92 102.8 150.546 103.2C151.173 103.613 151.926 103.82 152.806 103.82C153.806 103.82 154.62 103.507 155.246 102.88C155.886 102.253 156.206 101.373 156.206 100.24V97.94C155.846 98.58 155.313 99.1133 154.606 99.54C153.9 99.9667 153.073 100.18 152.126 100.18C151.153 100.18 150.266 99.94 149.466 99.46C148.68 98.98 148.06 98.3067 147.606 97.44C147.153 96.5733 146.926 95.5867 146.926 94.48C146.926 93.36 147.153 92.38 147.606 91.54C148.06 90.6867 148.68 90.0267 149.466 89.56C150.266 89.0933 151.153 88.86 152.126 88.86ZM156.206 94.5C156.206 93.6733 156.04 92.9533 155.706 92.34C155.373 91.7267 154.92 91.26 154.346 90.94C153.786 90.6067 153.166 90.44 152.486 90.44C151.806 90.44 151.186 90.6 150.626 90.92C150.066 91.24 149.62 91.7067 149.286 92.32C148.953 92.9333 148.786 93.6533 148.786 94.48C148.786 95.32 148.953 96.0533 149.286 96.68C149.62 97.2933 150.066 97.7667 150.626 98.1C151.186 98.42 151.806 98.58 152.486 98.58C153.166 98.58 153.786 98.42 154.346 98.1C154.92 97.7667 155.373 97.2933 155.706 96.68C156.04 96.0533 156.206 95.3267 156.206 94.5ZM165.774 94.5C165.774 93.3667 166.001 92.38 166.454 91.54C166.907 90.6867 167.534 90.0267 168.334 89.56C169.147 89.0933 170.074 88.86 171.114 88.86C172.461 88.86 173.567 89.1867 174.434 89.84C175.314 90.4933 175.894 91.4 176.174 92.56H174.214C174.027 91.8933 173.661 91.3667 173.114 90.98C172.581 90.5933 171.914 90.4 171.114 90.4C170.074 90.4 169.234 90.76 168.594 91.48C167.954 92.1867 167.634 93.1933 167.634 94.5C167.634 95.82 167.954 96.84 168.594 97.56C169.234 98.28 170.074 98.64 171.114 98.64C171.914 98.64 172.581 98.4533 173.114 98.08C173.647 97.7067 174.014 97.1733 174.214 96.48H176.174C175.881 97.6 175.294 98.5 174.414 99.18C173.534 99.8467 172.434 100.18 171.114 100.18C170.074 100.18 169.147 99.9467 168.334 99.48C167.534 99.0133 166.907 98.3533 166.454 97.5C166.001 96.6467 165.774 95.6467 165.774 94.5ZM180.423 90.82C180.743 90.1933 181.196 89.7067 181.783 89.36C182.383 89.0133 183.109 88.84 183.963 88.84V90.72H183.483C181.443 90.72 180.423 91.8267 180.423 94.04V100H178.603V89.04H180.423V90.82ZM196.063 94.1C196.063 94.4467 196.043 94.8133 196.003 95.2H187.243C187.31 96.28 187.677 97.1267 188.343 97.74C189.023 98.34 189.843 98.64 190.803 98.64C191.59 98.64 192.243 98.46 192.763 98.1C193.297 97.7267 193.67 97.2333 193.883 96.62H195.843C195.55 97.6733 194.963 98.5333 194.083 99.2C193.203 99.8533 192.11 100.18 190.803 100.18C189.763 100.18 188.83 99.9467 188.003 99.48C187.19 99.0133 186.55 98.3533 186.083 97.5C185.617 96.6333 185.383 95.6333 185.383 94.5C185.383 93.3667 185.61 92.3733 186.063 91.52C186.517 90.6667 187.15 90.0133 187.963 89.56C188.79 89.0933 189.737 88.86 190.803 88.86C191.843 88.86 192.763 89.0867 193.563 89.54C194.363 89.9933 194.977 90.62 195.403 91.42C195.843 92.2067 196.063 93.1 196.063 94.1ZM194.183 93.72C194.183 93.0267 194.03 92.4333 193.723 91.94C193.417 91.4333 192.997 91.0533 192.463 90.8C191.943 90.5333 191.363 90.4 190.723 90.4C189.803 90.4 189.017 90.6933 188.363 91.28C187.723 91.8667 187.357 92.68 187.263 93.72H194.183ZM197.786 94.48C197.786 93.36 198.012 92.38 198.466 91.54C198.919 90.6867 199.539 90.0267 200.326 89.56C201.126 89.0933 202.019 88.86 203.006 88.86C203.859 88.86 204.652 89.06 205.386 89.46C206.119 89.8467 206.679 90.36 207.066 91V85.2H208.906V100H207.066V97.94C206.706 98.5933 206.172 99.1333 205.466 99.56C204.759 99.9733 203.932 100.18 202.986 100.18C202.012 100.18 201.126 99.94 200.326 99.46C199.539 98.98 198.919 98.3067 198.466 97.44C198.012 96.5733 197.786 95.5867 197.786 94.48ZM207.066 94.5C207.066 93.6733 206.899 92.9533 206.566 92.34C206.232 91.7267 205.779 91.26 205.206 90.94C204.646 90.6067 204.026 90.44 203.346 90.44C202.666 90.44 202.046 90.6 201.486 90.92C200.926 91.24 200.479 91.7067 200.146 92.32C199.812 92.9333 199.646 93.6533 199.646 94.48C199.646 95.32 199.812 96.0533 200.146 96.68C200.479 97.2933 200.926 97.7667 201.486 98.1C202.046 98.42 202.666 98.58 203.346 98.58C204.026 98.58 204.646 98.42 205.206 98.1C205.779 97.7667 206.232 97.2933 206.566 96.68C206.899 96.0533 207.066 95.3267 207.066 94.5ZM212.921 87.26C212.575 87.26 212.281 87.14 212.041 86.9C211.801 86.66 211.681 86.3667 211.681 86.02C211.681 85.6733 211.801 85.38 212.041 85.14C212.281 84.9 212.575 84.78 212.921 84.78C213.255 84.78 213.535 84.9 213.761 85.14C214.001 85.38 214.121 85.6733 214.121 86.02C214.121 86.3667 214.001 86.66 213.761 86.9C213.535 87.14 213.255 87.26 212.921 87.26ZM213.801 89.04V100H211.981V89.04H213.801ZM219.123 90.54V97C219.123 97.5333 219.237 97.9133 219.463 98.14C219.69 98.3533 220.083 98.46 220.643 98.46H221.983V100H220.343C219.33 100 218.57 99.7667 218.063 99.3C217.557 98.8333 217.303 98.0667 217.303 97V90.54H215.883V89.04H217.303V86.28H219.123V89.04H221.983V90.54H219.123ZM228.84 94.5C228.84 93.3667 229.067 92.38 229.52 91.54C229.974 90.6867 230.6 90.0267 231.4 89.56C232.214 89.0933 233.14 88.86 234.18 88.86C235.527 88.86 236.634 89.1867 237.5 89.84C238.38 90.4933 238.96 91.4 239.24 92.56H237.28C237.094 91.8933 236.727 91.3667 236.18 90.98C235.647 90.5933 234.98 90.4 234.18 90.4C233.14 90.4 232.3 90.76 231.66 91.48C231.02 92.1867 230.7 93.1933 230.7 94.5C230.7 95.82 231.02 96.84 231.66 97.56C232.3 98.28 233.14 98.64 234.18 98.64C234.98 98.64 235.647 98.4533 236.18 98.08C236.714 97.7067 237.08 97.1733 237.28 96.48H239.24C238.947 97.6 238.36 98.5 237.48 99.18C236.6 99.8467 235.5 100.18 234.18 100.18C233.14 100.18 232.214 99.9467 231.4 99.48C230.6 99.0133 229.974 98.3533 229.52 97.5C229.067 96.6467 228.84 95.6467 228.84 94.5ZM240.989 94.48C240.989 93.36 241.216 92.38 241.669 91.54C242.122 90.6867 242.742 90.0267 243.529 89.56C244.329 89.0933 245.216 88.86 246.189 88.86C247.149 88.86 247.982 89.0667 248.689 89.48C249.396 89.8933 249.922 90.4133 250.269 91.04V89.04H252.109V100H250.269V97.96C249.909 98.6 249.369 99.1333 248.649 99.56C247.942 99.9733 247.116 100.18 246.169 100.18C245.196 100.18 244.316 99.94 243.529 99.46C242.742 98.98 242.122 98.3067 241.669 97.44C241.216 96.5733 240.989 95.5867 240.989 94.48ZM250.269 94.5C250.269 93.6733 250.102 92.9533 249.769 92.34C249.436 91.7267 248.982 91.26 248.409 90.94C247.849 90.6067 247.229 90.44 246.549 90.44C245.869 90.44 245.249 90.6 244.689 90.92C244.129 91.24 243.682 91.7067 243.349 92.32C243.016 92.9333 242.849 93.6533 242.849 94.48C242.849 95.32 243.016 96.0533 243.349 96.68C243.682 97.2933 244.129 97.7667 244.689 98.1C245.249 98.42 245.869 98.58 246.549 98.58C247.229 98.58 247.849 98.42 248.409 98.1C248.982 97.7667 249.436 97.2933 249.769 96.68C250.102 96.0533 250.269 95.3267 250.269 94.5ZM257.005 90.82C257.325 90.1933 257.778 89.7067 258.365 89.36C258.965 89.0133 259.691 88.84 260.545 88.84V90.72H260.065C258.025 90.72 257.005 91.8267 257.005 94.04V100H255.185V89.04H257.005V90.82ZM261.965 94.48C261.965 93.36 262.192 92.38 262.645 91.54C263.099 90.6867 263.719 90.0267 264.505 89.56C265.305 89.0933 266.199 88.86 267.185 88.86C268.039 88.86 268.832 89.06 269.565 89.46C270.299 89.8467 270.859 90.36 271.245 91V85.2H273.085V100H271.245V97.94C270.885 98.5933 270.352 99.1333 269.645 99.56C268.939 99.9733 268.112 100.18 267.165 100.18C266.192 100.18 265.305 99.94 264.505 99.46C263.719 98.98 263.099 98.3067 262.645 97.44C262.192 96.5733 261.965 95.5867 261.965 94.48ZM271.245 94.5C271.245 93.6733 271.079 92.9533 270.745 92.34C270.412 91.7267 269.959 91.26 269.385 90.94C268.825 90.6067 268.205 90.44 267.525 90.44C266.845 90.44 266.225 90.6 265.665 90.92C265.105 91.24 264.659 91.7067 264.325 92.32C263.992 92.9333 263.825 93.6533 263.825 94.48C263.825 95.32 263.992 96.0533 264.325 96.68C264.659 97.2933 265.105 97.7667 265.665 98.1C266.225 98.42 266.845 98.58 267.525 98.58C268.205 98.58 268.825 98.42 269.385 98.1C269.959 97.7667 270.412 97.2933 270.745 96.68C271.079 96.0533 271.245 95.3267 271.245 94.5ZM280.041 100.18C279.201 100.18 278.448 100.04 277.781 99.76C277.114 99.4667 276.588 99.0667 276.201 98.56C275.814 98.04 275.601 97.4467 275.561 96.78H277.441C277.494 97.3267 277.748 97.7733 278.201 98.12C278.668 98.4667 279.274 98.64 280.021 98.64C280.714 98.64 281.261 98.4867 281.661 98.18C282.061 97.8733 282.261 97.4867 282.261 97.02C282.261 96.54 282.048 96.1867 281.621 95.96C281.194 95.72 280.534 95.4867 279.641 95.26C278.828 95.0467 278.161 94.8333 277.641 94.62C277.134 94.3933 276.694 94.0667 276.321 93.64C275.961 93.2 275.781 92.6267 275.781 91.92C275.781 91.36 275.948 90.8467 276.281 90.38C276.614 89.9133 277.088 89.5467 277.701 89.28C278.314 89 279.014 88.86 279.801 88.86C281.014 88.86 281.994 89.1667 282.741 89.78C283.488 90.3933 283.888 91.2333 283.941 92.3H282.121C282.081 91.7267 281.848 91.2667 281.421 90.92C281.008 90.5733 280.448 90.4 279.741 90.4C279.088 90.4 278.568 90.54 278.181 90.82C277.794 91.1 277.601 91.4667 277.601 91.92C277.601 92.28 277.714 92.58 277.941 92.82C278.181 93.0467 278.474 93.2333 278.821 93.38C279.181 93.5133 279.674 93.6667 280.301 93.84C281.088 94.0533 281.728 94.2667 282.221 94.48C282.714 94.68 283.134 94.9867 283.481 95.4C283.841 95.8133 284.028 96.3533 284.041 97.02C284.041 97.62 283.874 98.16 283.541 98.64C283.208 99.12 282.734 99.5 282.121 99.78C281.521 100.047 280.828 100.18 280.041 100.18ZM287.19 100.12C286.844 100.12 286.55 100 286.31 99.76C286.07 99.52 285.95 99.2267 285.95 98.88C285.95 98.5333 286.07 98.24 286.31 98C286.55 97.76 286.844 97.64 287.19 97.64C287.524 97.64 287.804 97.76 288.03 98C288.27 98.24 288.39 98.5333 288.39 98.88C288.39 99.2267 288.27 99.52 288.03 99.76C287.804 100 287.524 100.12 287.19 100.12Z" fill="black"/>
<path d="M648.885 31H688.204V52.2784L686.258 55.3269L688.204 58.0401V70.4169H648.885V50.3579L650.101 48.9556L648.885 47.6142V31Z" fill="#016FD0"/>
<path d="M656.518 58.4667V52.2783H663.054L663.755 53.1947L664.479 52.2783H688.204V58.0399C688.204 58.0399 687.583 58.4605 686.866 58.4667H673.729L672.939 57.4912V58.4667H670.348V56.8014C670.348 56.8014 669.994 57.0339 669.229 57.0339H668.347V58.4667H664.424L663.724 57.5306L663.013 58.4667H656.518Z" fill="white"/>
<path d="M648.885 47.6141L650.359 44.1693H652.908L653.744 46.0989V44.1693H656.913L657.411 45.564L657.893 44.1693H672.117V44.8705C672.117 44.8705 672.865 44.1693 674.094 44.1693L678.709 44.1855L679.531 46.0899V44.1693H682.183L682.913 45.2632V44.1693H685.589V50.3577H682.913L682.213 49.2603V50.3577H678.317L677.926 49.3822H676.878L676.493 50.3577H673.851C672.793 50.3577 672.117 49.6709 672.117 49.6709V50.3577H668.134L667.343 49.3822V50.3577H652.53L652.139 49.3822H651.095L650.706 50.3577H648.885V47.6141Z" fill="white"/>
<path d="M650.881 44.9322L648.893 49.5659H650.187L650.554 48.638H652.686L653.051 49.5659H654.374L652.388 44.9322H650.881ZM651.616 46.0106L652.266 47.632H650.964L651.616 46.0106Z" fill="#016FD0"/>
<path d="M654.511 49.5651V44.9314L656.35 44.9382L657.42 47.9258L658.464 44.9314H660.288V49.5651H659.133V46.1508L657.908 49.5651H656.895L655.666 46.1508V49.5651H654.511Z" fill="#016FD0"/>
<path d="M661.078 49.5651V44.9314H664.849V45.9679H662.246V46.7605H664.788V47.736H662.246V48.5591H664.849V49.5651H661.078Z" fill="#016FD0"/>
<path d="M665.519 44.9322V49.5659H666.674V47.9197H667.161L668.546 49.5659H669.958L668.438 47.8587C669.062 47.8059 669.706 47.269 669.706 46.4355C669.706 45.4604 668.942 44.9322 668.09 44.9322H665.519ZM666.674 45.9687H667.995C668.312 45.9687 668.542 46.2172 668.542 46.4564C668.542 46.7643 668.244 46.9442 668.012 46.9442H666.674V45.9687Z" fill="#016FD0"/>
<path d="M671.358 49.5651H670.178V44.9314H671.358V49.5651Z" fill="#016FD0"/>
<path d="M674.155 49.5651H673.9C672.668 49.5651 671.92 48.5919 671.92 47.2673C671.92 45.91 672.66 44.9314 674.216 44.9314H675.493V46.0289H674.169C673.537 46.0289 673.091 46.5231 673.091 47.2787C673.091 48.1761 673.602 48.553 674.337 48.553H674.642L674.155 49.5651Z" fill="#016FD0"/>
<path d="M676.67 44.9322L674.682 49.5659H675.976L676.343 48.638H678.475L678.84 49.5659H680.163L678.177 44.9322H676.67ZM677.405 46.0106L678.055 47.632H676.753L677.405 46.0106Z" fill="#016FD0"/>
<path d="M680.297 49.5651V44.9314H681.766L683.642 47.8427V44.9314H684.797V49.5651H683.376L681.452 46.5776V49.5651H680.297Z" fill="#016FD0"/>
<path d="M657.308 57.674V53.0403H661.078V54.0768H658.475V54.8694H661.018V55.845H658.475V56.668H661.078V57.674H657.308Z" fill="#016FD0"/>
<path d="M675.784 57.674V53.0403H679.555V54.0768H676.952V54.8694H679.482V55.845H676.952V56.668H679.555V57.674H675.784Z" fill="#016FD0"/>
<path d="M661.225 57.674L663.061 55.3858L661.182 53.0403H662.637L663.757 54.4903L664.88 53.0403H666.279L664.424 55.3572L666.263 57.674H664.808L663.721 56.247L662.66 57.674H661.225Z" fill="#016FD0"/>
<path d="M666.4 53.0412V57.6749H667.586V56.2116H668.803C669.832 56.2116 670.612 55.6642 670.612 54.5997C670.612 53.7179 670 53.0412 668.953 53.0412H666.4ZM667.586 54.0891H668.867C669.2 54.0891 669.438 54.2934 669.438 54.6226C669.438 54.9319 669.201 55.1561 668.864 55.1561H667.586V54.0891Z" fill="#016FD0"/>
<path d="M671.114 53.0403V57.674H672.27V56.0279H672.756L674.142 57.674H675.554L674.034 55.9669C674.658 55.9141 675.301 55.3772 675.301 54.5436C675.301 53.5685 674.538 53.0403 673.686 53.0403H671.114ZM672.27 54.0768H673.591C673.908 54.0768 674.138 54.3253 674.138 54.5646C674.138 54.8724 673.839 55.0523 673.608 55.0523H672.27V54.0768Z" fill="#016FD0"/>
<path d="M680.091 57.674V56.668H682.404C682.746 56.668 682.894 56.4827 682.894 56.2794C682.894 56.0846 682.746 55.8876 682.404 55.8876H681.359C680.45 55.8876 679.944 55.3328 679.944 54.4998C679.944 53.7568 680.408 53.0403 681.757 53.0403H684.008L683.521 54.0829H681.575C681.203 54.0829 681.088 54.2786 681.088 54.4655C681.088 54.6576 681.23 54.8694 681.514 54.8694H682.609C683.622 54.8694 684.061 55.4453 684.061 56.1993C684.061 57.01 683.571 57.674 682.554 57.674H680.091Z" fill="#016FD0"/>
<path d="M684.332 57.674V56.668H686.645C686.987 56.668 687.135 56.4827 687.135 56.2794C687.135 56.0846 686.988 55.8876 686.645 55.8876H685.6C684.691 55.8876 684.186 55.3328 684.186 54.4998C684.186 53.7568 684.649 53.0403 685.999 53.0403H688.249L687.762 54.0829H685.816C685.444 54.0829 685.33 54.2786 685.33 54.4655C685.33 54.6576 685.471 54.8694 685.755 54.8694H686.85C687.863 54.8694 688.302 55.4453 688.302 56.1993C688.302 57.01 687.813 57.674 686.795 57.674H684.332Z" fill="#016FD0"/>
<g clip-path="url(#clip0_240_376)">
<path d="M740.162 63.487H734.626L738.089 42.7624H743.625L740.162 63.487Z" fill="#00579F"/>
<path d="M760.233 43.269C759.141 42.8497 757.409 42.3867 755.267 42.3867C749.8 42.3867 745.95 45.2086 745.926 49.2431C745.88 52.2198 748.682 53.8731 750.778 54.8656C752.92 55.8798 753.648 56.5418 753.648 57.4458C753.626 58.8342 751.917 59.4742 750.323 59.4742C748.113 59.4742 746.929 59.1442 745.129 58.3718L744.4 58.0406L743.625 62.6929C744.923 63.2655 747.316 63.7736 749.8 63.7959C755.609 63.7959 759.391 61.0176 759.436 56.7182C759.458 54.359 757.978 52.5512 754.788 51.074C752.852 50.1258 751.666 49.4864 751.666 48.5161C751.689 47.6341 752.669 46.7307 754.855 46.7307C756.655 46.6864 757.977 47.1052 758.979 47.5242L759.48 47.7443L760.233 43.269Z" fill="#00579F"/>
<path d="M767.591 56.145C768.047 54.9544 769.801 50.3464 769.801 50.3464C769.778 50.3907 770.256 49.1338 770.53 48.3623L770.917 50.148C770.917 50.148 771.965 55.1088 772.193 56.145C771.328 56.145 768.685 56.145 767.591 56.145ZM774.425 42.7624H770.143C768.822 42.7624 767.819 43.1369 767.249 44.4819L759.025 63.4867H764.835C764.835 63.4867 765.791 60.9288 765.997 60.3779C766.634 60.3779 772.285 60.3779 773.105 60.3779C773.264 61.1055 773.765 63.4867 773.765 63.4867H778.892L774.425 42.7624Z" fill="#00579F"/>
<path d="M730.002 42.7624L724.58 56.8946L723.987 54.0284C722.985 50.7212 719.841 47.128 716.333 45.3414L721.299 63.465H727.154L735.856 42.7624H730.002Z" fill="#00579F"/>
<path d="M719.546 42.7624H710.638L710.547 43.1811C717.495 44.901 722.097 49.0465 723.988 54.0293L722.051 44.5045C721.733 43.1808 720.753 42.8061 719.546 42.7624Z" fill="#FAA61A"/>
</g>
<g clip-path="url(#clip1_240_376)">
<path d="M834.061 38.4128H820.022V63.6719H834.061V38.4128Z" fill="#FF5A00"/>
<path d="M820.957 51.0423C820.957 45.9104 823.365 41.3557 827.062 38.4127C824.342 36.2706 820.91 34.9759 817.167 34.9759C808.299 34.9759 801.124 42.1616 801.124 51.0423C801.124 59.923 808.299 67.1087 817.167 67.1087C820.91 67.1087 824.342 65.814 827.062 63.6718C823.36 60.7705 820.957 56.1742 820.957 51.0423Z" fill="#EB001B"/>
<path d="M853 51.0423C853 59.923 845.825 67.1087 836.957 67.1087C833.214 67.1087 829.782 65.814 827.062 63.6718C830.805 60.7237 833.167 56.1742 833.167 51.0423C833.167 45.9104 830.758 41.3557 827.062 38.4127C829.777 36.2706 833.209 34.9759 836.952 34.9759C845.825 34.9759 853 42.2084 853 51.0423Z" fill="#F79E1B"/>
<path d="M810.701 51.9126V49.2648C810.701 48.2519 810.089 47.5887 809.037 47.5887C808.512 47.5887 807.94 47.7635 807.547 48.3393C807.241 47.856 806.802 47.5887 806.144 47.5887C805.705 47.5887 805.266 47.7224 804.919 48.2057V47.6761H804V51.9126H804.919V49.5733C804.919 48.8226 805.312 48.4679 805.924 48.4679C806.537 48.4679 806.843 48.8638 806.843 49.5733V51.9126H807.761V49.5733C807.761 48.8226 808.2 48.4679 808.767 48.4679C809.379 48.4679 809.686 48.8638 809.686 49.5733V51.9126H810.701ZM824.328 47.6761H822.838V46.3959H821.919V47.6761H821.087V48.5141H821.919V50.4576C821.919 51.4293 822.312 52 823.364 52C823.757 52 824.195 51.8663 824.502 51.6915L824.236 50.8946C823.971 51.0694 823.665 51.1157 823.445 51.1157C823.006 51.1157 822.833 50.8483 822.833 50.4113V48.5141H824.323V47.6761H824.328ZM832.127 47.5835C831.601 47.5835 831.249 47.8509 831.029 48.2005V47.671H830.111V51.9075H831.029V49.5219C831.029 48.8175 831.336 48.4165 831.907 48.4165C832.081 48.4165 832.3 48.4627 832.479 48.5039L832.744 47.6195C832.561 47.5835 832.3 47.5835 832.127 47.5835ZM820.342 48.0257C819.903 47.7172 819.291 47.5835 818.632 47.5835C817.581 47.5835 816.882 48.1131 816.882 48.9512C816.882 49.6555 817.408 50.0566 818.326 50.1851L818.765 50.2314C819.245 50.3188 819.51 50.4524 819.51 50.6735C819.51 50.982 819.158 51.2031 818.546 51.2031C817.933 51.2031 817.448 50.982 817.142 50.7609L816.703 51.4653C817.183 51.82 817.841 51.9949 818.5 51.9949C819.725 51.9949 820.429 51.419 820.429 50.6272C820.429 49.8766 819.857 49.4807 818.985 49.347L818.546 49.3008C818.153 49.2545 817.846 49.1671 817.846 48.9049C817.846 48.5964 818.153 48.4216 818.638 48.4216C819.163 48.4216 819.689 48.6427 819.954 48.7763L820.342 48.0257ZM844.784 47.5835C844.258 47.5835 843.906 47.8509 843.687 48.2005V47.671H842.768V51.9075H843.687V49.5219C843.687 48.8175 843.993 48.4165 844.565 48.4165C844.738 48.4165 844.958 48.4627 845.136 48.5039L845.402 47.6298C845.223 47.5835 844.963 47.5835 844.784 47.5835ZM833.045 49.7943C833.045 51.0745 833.923 52 835.281 52C835.893 52 836.332 51.8663 836.771 51.5167L836.332 50.7661C835.98 51.0334 835.633 51.162 835.235 51.162C834.49 51.162 833.964 50.6324 833.964 49.7943C833.964 48.9974 834.49 48.4679 835.235 48.4267C835.628 48.4267 835.98 48.5604 836.332 48.8226L836.771 48.072C836.332 47.7172 835.893 47.5887 835.281 47.5887C833.923 47.5835 833.045 48.5141 833.045 49.7943ZM841.543 49.7943V47.6761H840.624V48.2057C840.318 47.8098 839.879 47.5887 839.308 47.5887C838.124 47.5887 837.205 48.5141 837.205 49.7943C837.205 51.0745 838.124 52 839.308 52C839.92 52 840.359 51.7789 840.624 51.383V51.9126H841.543V49.7943ZM838.17 49.7943C838.17 49.0437 838.649 48.4267 839.44 48.4267C840.186 48.4267 840.711 49.0026 840.711 49.7943C840.711 50.545 840.186 51.162 839.44 51.162C838.654 51.1157 838.17 50.5398 838.17 49.7943ZM827.176 47.5835C825.951 47.5835 825.073 48.4679 825.073 49.7892C825.073 51.1157 825.951 51.9949 827.222 51.9949C827.834 51.9949 828.447 51.8201 828.932 51.419L828.493 50.7558C828.141 51.0231 827.702 51.1979 827.268 51.1979C826.696 51.1979 826.13 50.9306 825.997 50.1851H829.105C829.105 50.0514 829.105 49.964 829.105 49.8303C829.146 48.4679 828.355 47.5835 827.176 47.5835ZM827.176 48.3805C827.748 48.3805 828.141 48.7352 828.227 49.3933H826.038C826.125 48.8226 826.518 48.3805 827.176 48.3805ZM850 49.7943V46H849.081V48.2057C848.775 47.8098 848.336 47.5887 847.765 47.5887C846.58 47.5887 845.662 48.5141 845.662 49.7943C845.662 51.0745 846.58 52 847.765 52C848.377 52 848.816 51.7789 849.081 51.383V51.9126H850V49.7943ZM846.626 49.7943C846.626 49.0437 847.106 48.4267 847.897 48.4267C848.642 48.4267 849.168 49.0026 849.168 49.7943C849.168 50.545 848.642 51.162 847.897 51.162C847.106 51.1157 846.626 50.5398 846.626 49.7943ZM815.871 49.7943V47.6761H814.953V48.2057C814.646 47.8098 814.207 47.5887 813.636 47.5887C812.452 47.5887 811.533 48.5141 811.533 49.7943C811.533 51.0745 812.452 52 813.636 52C814.248 52 814.687 51.7789 814.953 51.383V51.9126H815.871V49.7943ZM812.457 49.7943C812.457 49.0437 812.937 48.4267 813.728 48.4267C814.473 48.4267 814.999 49.0026 814.999 49.7943C814.999 50.545 814.473 51.162 813.728 51.162C812.937 51.1157 812.457 50.5398 812.457 49.7943Z" fill="white"/>
</g>
<defs>
<clipPath id="clip0_240_376">
<rect width="68.3445" height="21.4091" fill="white" transform="translate(710.547 42.3867)"/>
</clipPath>
<clipPath id="clip1_240_376">
<rect width="51.876" height="40.348" fill="white" transform="translate(801.124 34.9759)"/>
</clipPath>
</defs>
</svg>
