<svg xmlns="http://www.w3.org/2000/svg" viewBox="0 0 32.37 34.28"><defs><style>.cls-1{fill:#2996c3;}.cls-2{fill:#90d9d3;}</style></defs><g id="Layer_2" data-name="Layer 2"><g id="Layer_1-2" data-name="Layer 1"><path d="M1.93,9.36C1.57,8.91,7,5,13.75,5.91c6.45.86,11.33,4,11.23,4.23l-1.1,4.19c.1.06-4.58-5-10.42-6.26C9.71,7.24,5.1,7.43,1.93,9.36Z"/><path d="M19.62,17.82l2.59-1.55A18.53,18.53,0,0,0,11.29,9.62c-5.27-.89-8.2.44-9.38,2.47a6.8,6.8,0,0,0,.28,6.44s-.45-4.76,1.36-6.07c2.58-1.87,6.46-1.1,9.9.39A21.41,21.41,0,0,1,19.62,17.82Z"/><path class="cls-1" d="M15.76,34.21c-.19.55-6.35-2.09-9.09-8.29C4,20,4.21,14.14,4.43,14.12l4.16-1.24c0-.11-1.87,6.5.07,12.16C9.9,28.67,12.46,32.52,15.76,34.21Z"/><path class="cls-1" d="M13.78,14.7l-2.67-1.4a18.54,18.54,0,0,0,0,12.78c2,5,4.64,6.78,7,6.73a6.81,6.81,0,0,0,5.36-3.59s-3.84,2.86-5.89,2c-2.94-1.23-4.31-4.95-4.82-8.66A21.42,21.42,0,0,1,13.78,14.7Z"/><path class="cls-2" d="M31,10.71c.57-.07,1,6.61-3.29,11.86-4.13,5-9.39,7.52-9.51,7.33l-3-3.15c-.1.06,6.64-1.28,10.81-5.56C28.65,18.44,30.93,14.42,31,10.71Z"/><path class="cls-2" d="M14.41,21.29l0,3a18.55,18.55,0,0,0,11.4-5.78c3.53-4,3.95-7.2,2.84-9.27A6.78,6.78,0,0,0,23,6.1s4.28,2.13,4.45,4.35c.23,3.18-2.47,6.08-5.55,8.21A21.41,21.41,0,0,1,14.41,21.29Z"/><circle class="cls-1" cx="2.28" cy="27.06" r="2.28"/><circle class="cls-2" cx="30.09" cy="25.29" r="2.28"/><circle cx="15.43" cy="2.28" r="2.28"/></g></g></svg>