<svg xmlns="http://www.w3.org/2000/svg" viewBox="0 0 628.25 204.95"><defs><style>.cls-1{fill:#2996c3;}.cls-2{fill:#90d9d3;}.cls-3,.cls-4,.cls-5{fill:none;stroke-linecap:round;stroke-miterlimit:10;stroke-width:3px;}.cls-3{stroke:#231f20;}.cls-4{stroke:#90d9d3;}.cls-5{stroke:#2996c3;}</style></defs><g id="Layer_2" data-name="Layer 2"><g id="Layer_1-2" data-name="Layer 1"><path d="M8.09,39.07C6.64,37.3,28.23,21.92,54.81,25.44c25.5,3.37,44.82,15.9,44.42,16.7L94.89,58.73c.39.21-18.12-19.66-41.23-24.76C38.86,30.7,20.6,31.41,8.09,39.07Z"/><path d="M78,72.52l10.22-6.13S72.43,44.69,45.11,40.1C24.26,36.59,12.68,41.83,8,49.88,4.75,55.51,3.74,66.65,9.11,75.33c0,0-1.77-18.83,5.36-24,10.21-7.4,25.58-4.37,39.16,1.53C60.68,55.93,71.93,65.24,78,72.52Z"/><path class="cls-1" d="M62.77,137.34c-.77,2.16-25.12-8.28-35.95-32.8C16.43,81,17.08,58,18,57.91L34.4,53c0-.43-7.36,25.71.3,48.1C39.61,115.42,49.72,130.64,62.77,137.34Z"/><path class="cls-1" d="M54.94,60.2,44.39,54.66s-10.3,24.81,0,50.54C52.24,124.83,62.73,132,72,131.78c6.5-.15,16.54-5.08,21.16-14.17,0,0-15.16,11.3-23.28,7.91-11.64-4.87-17-19.58-19.07-34.24C49.8,83.66,51.9,69.21,54.94,60.2Z"/><path class="cls-2" d="M122.82,44.4c2.27-.29,4,26.16-13,46.9-16.3,19.91-37.13,29.73-37.59,29L60.39,107.84c-.37.22,26.26-5,42.77-22C113.73,75,122.74,59.07,122.82,44.4Z"/><path class="cls-2" d="M57.55,86.26l-.17,11.91s26.78-2,45.08-22.84c14-15.87,15.6-28.47,11.21-36.68-3.07-5.74-12-12.46-22.21-12.47,0,0,16.94,8.41,17.58,17.19C110,56,99.28,67.42,87.12,75.86,80.8,80.24,67,84.9,57.55,86.26Z"/><circle class="cls-1" cx="9.19" cy="108.69" r="9.19"/><circle class="cls-2" cx="119.19" cy="101.69" r="9.19"/><circle cx="61.19" cy="10.69" r="9.19"/><path d="M156.59,198.21v-23h11.08a12,12,0,0,1,2.8.29,4.45,4.45,0,0,1,2,1,4.08,4.08,0,0,1,1.14,1.86,9.7,9.7,0,0,1,.36,2.87,11.31,11.31,0,0,1-.14,1.82,8.76,8.76,0,0,1-.38,1.51,3.23,3.23,0,0,1-.49.86,2.85,2.85,0,0,1-.78.69,3.61,3.61,0,0,1,2,2,9.42,9.42,0,0,1,.46,3.2,8.39,8.39,0,0,1-1.3,5q-1.35,1.93-5,1.93Zm3.75-13.55h6.2a5,5,0,0,0,2.92-.59,3.79,3.79,0,0,0,.65-2.65,3.2,3.2,0,0,0-.57-2.2,2.91,2.91,0,0,0-2.11-.58h-7.09Zm0,10.18h6.06a8.19,8.19,0,0,0,3.61-.55l0,0c.51-.27.76-1.24.76-2.89a5.52,5.52,0,0,0-.48-2.51c-.21-.5-.86-.75-2-.75h-7.95Z"/><path d="M180.84,181.7h3.55l0,.65a5.79,5.79,0,0,1,3.41-1,5.12,5.12,0,0,1,3.88,1.27,5.39,5.39,0,0,1,1.21,3.85c0,.14,0,.3,0,.5s0,.56-.09,1.08h-3.5c0-.52.07-.91.08-1.15s0-.45,0-.64a1.57,1.57,0,0,0-.5-1.35,2.61,2.61,0,0,0-1.53-.37,2.56,2.56,0,0,0-2.89,2.89v10.77h-3.58Z"/><path d="M201.48,175.2V179h-3.65V175.2Zm0,6.5v16.51h-3.65V181.7Z"/><path d="M207.84,181.7h3.41v1a5,5,0,0,1,2.1-1,11.4,11.4,0,0,1,2.44-.26q3.38,0,4.78,1.41c.94.89,1.41,2.47,1.41,4.71v10.7h-3.65V187.68a4,4,0,0,0-.51-2.54c-.34-.37-1.2-.55-2.57-.55a4.28,4.28,0,0,0-2.84.84,3.55,3.55,0,0,0-1,2.84v9.94h-3.58Z"/><path d="M242.86,181.73v16.79q0,3.85-2,5.19v0a9.25,9.25,0,0,1-5.35,1.27,14.33,14.33,0,0,1-2.76-.24,7.2,7.2,0,0,1-2-.69c-1.22-.66-1.82-2.45-1.82-5.36l3.37,0c.07,1.56.27,2.47.62,2.72a5.26,5.26,0,0,0,2.39.38,7.74,7.74,0,0,0,3.17-.52q.9-.48.9-2.58v-1.24a4.5,4.5,0,0,1-1.65.71,10.81,10.81,0,0,1-1.79.22,3,3,0,0,1-.46,0H235q-4.1,0-5.37-2.31a7.75,7.75,0,0,1-.91-2.41,14.49,14.49,0,0,1-.29-3.09,26.24,26.24,0,0,1,.2-3.46,11.81,11.81,0,0,1,.69-2.77q1.07-2.82,5.88-2.82a13.29,13.29,0,0,1,2.25.19,4.83,4.83,0,0,1,1.95.84,2.32,2.32,0,0,0,0-.46,3,3,0,0,1,0-.4Zm-10.77,8.78a15.16,15.16,0,0,0,.14,2.14,8.66,8.66,0,0,0,.38,1.64c.25.64,1.26,1,3,1a4.66,4.66,0,0,0,2.47-.57,2.62,2.62,0,0,0,1-2.18c.05-.44.08-.87.11-1.29s0-.84,0-1.26a17.19,17.19,0,0,0-.14-2.3,11.43,11.43,0,0,0-.38-1.79c-.27-.76-1.32-1.13-3.14-1.13-1.48,0-2.43.25-2.87.75s-.66,1.54-.66,3.24Z"/><path d="M252.38,175.2V179h-3.64V175.2Zm0,6.5v16.51h-3.64V181.7Z"/><path d="M258.75,181.7h3.4v1a5,5,0,0,1,2.1-1,11.4,11.4,0,0,1,2.44-.26q3.38,0,4.78,1.41c.94.89,1.41,2.47,1.41,4.71v10.7h-3.64V187.68a3.93,3.93,0,0,0-.52-2.54c-.34-.37-1.19-.55-2.56-.55a4.28,4.28,0,0,0-2.84.84,3.56,3.56,0,0,0-1,2.84v9.94h-3.57Z"/><path d="M293.76,181.73v16.79c0,2.57-.65,4.3-2,5.19v0a9.21,9.21,0,0,1-5.34,1.27,14.18,14.18,0,0,1-2.76-.24,7.17,7.17,0,0,1-2-.69q-1.81-1-1.82-5.36l3.37,0c.07,1.56.28,2.47.62,2.72a5.29,5.29,0,0,0,2.39.38,7.83,7.83,0,0,0,3.18-.52q.9-.48.9-2.58v-1.24a4.65,4.65,0,0,1-1.65.71,11.08,11.08,0,0,1-1.79.22,3.17,3.17,0,0,1-.47,0h-.46q-4.1,0-5.37-2.31a8,8,0,0,1-.91-2.41,15.17,15.17,0,0,1-.29-3.09,26.14,26.14,0,0,1,.21-3.46,11.35,11.35,0,0,1,.68-2.77c.71-1.88,2.68-2.82,5.89-2.82a13.29,13.29,0,0,1,2.25.19,4.73,4.73,0,0,1,1.94.84,3.44,3.44,0,0,0,0-.46,2,2,0,0,1,0-.4ZM283,190.51a15.27,15.27,0,0,0,.13,2.14,9.5,9.5,0,0,0,.38,1.64c.26.64,1.26,1,3,1a4.63,4.63,0,0,0,2.47-.57,2.65,2.65,0,0,0,1.06-2.18c0-.44.08-.87.1-1.29s0-.84,0-1.26a17.33,17.33,0,0,0-.13-2.3,12.7,12.7,0,0,0-.38-1.79c-.28-.76-1.33-1.13-3.15-1.13-1.47,0-2.43.25-2.87.75S283,187,283,188.72Z"/><path class="cls-1" d="M323.6,198.21v-23h11.81a1.73,1.73,0,0,1,.36,0,8.91,8.91,0,0,1,1.77.33,3.89,3.89,0,0,1,1.57.88h0a5.33,5.33,0,0,1,1.48,2.23,10.65,10.65,0,0,1,.52,2.58v2.2a7.88,7.88,0,0,1,0,.86,8.82,8.82,0,0,1-.44,2,4.56,4.56,0,0,1-1.1,1.72,5,5,0,0,1-1.26.93,5.59,5.59,0,0,1-1.38.5,11.15,11.15,0,0,1-1.46.21c-.5,0-1,.05-1.51.05l-.26,0h-6.38v8.5Zm3.64-11.87h5.16a9.38,9.38,0,0,0,3.89-.58c.64-.3,1-1.35,1-3.17a7.28,7.28,0,0,0-.52-3.16c-.29-.5-1.11-.76-2.44-.76h-7.05Z"/><path class="cls-1" d="M357.61,192.29h3.65c0,3-.73,4.76-2.17,5.33a9.54,9.54,0,0,1-2.2.57,17.81,17.81,0,0,1-2.75.19q-4.58,0-6.06-1.89t-1.41-6.16a21.73,21.73,0,0,1,.28-3.64,11.24,11.24,0,0,1,.76-2.69q1.16-2.5,6.08-2.51,4.54,0,6,1.65t1.48,6.09V191h-11a13.22,13.22,0,0,0,.18,1.77,12.51,12.51,0,0,0,.31,1.43c.3.73,1.3,1.1,3,1.1h1.38a2.94,2.94,0,0,0,.62-.07,4.5,4.5,0,0,0,.88-.14,1.68,1.68,0,0,0,.61-.24.54.54,0,0,0,.22-.39c0-.2.06-.41.09-.64a.78.78,0,0,0,0-.22v-1.33Zm.07-4.33a4.75,4.75,0,0,0-.59-2.72c-.3-.46-1.33-.69-3.11-.69-1.59,0-2.59.25-3,.73a4.39,4.39,0,0,0-.66,2.68Z"/><path class="cls-1" d="M367.59,189.54a11.82,11.82,0,0,1,1.23-6q1.38-2.06,5.89-2.06t6.15,1.75c1,1.13,1.48,3.2,1.48,6.23a18.7,18.7,0,0,1-.86,6.26v0q-1,2.79-6.09,2.79c-2.89,0-4.9-.47-6.05-1.41s-1.75-3-1.75-6Zm3.64,1.24v.69a6,6,0,0,0,0,.72,9.72,9.72,0,0,0,.24,1.57,3.08,3.08,0,0,0,.44,1.11,2.43,2.43,0,0,0,.69.28,5.93,5.93,0,0,0,.86.14H375a6,6,0,0,0,2.71-.49c.46-.25.75-1,.86-2.13v-.2c0-.28,0-.54.05-.78s0-.5,0-.77,0-.56,0-.86v-.86a10.61,10.61,0,0,0-.45-3.75c-.23-.53-1.15-.79-2.75-.79H375c-1.79,0-2.86.2-3.2.62a7.66,7.66,0,0,0-.59,3.75Z"/><path class="cls-2" d="M389,181.73h3.54v.86a4.39,4.39,0,0,1,1.89-.87,11.49,11.49,0,0,1,2.2-.19q4.41,0,5.71,2.44a13.87,13.87,0,0,1,1.07,5.92,15.56,15.56,0,0,1-1,6c-.73,1.72-2.57,2.58-5.5,2.58h-.42a17,17,0,0,1-2.09-.21,4.11,4.11,0,0,1-1.86-.83v7.36H389Zm3.61,8.88a9.36,9.36,0,0,0,.58,3.61v0c.35.71,1.33,1.06,2.94,1.06s2.79-.32,3.11-1a10.44,10.44,0,0,0,.52-3.78v-.93a14.82,14.82,0,0,0-.14-2.24,8.08,8.08,0,0,0-.38-1.62c-.3-.68-1.3-1-3-1s-2.78.32-3.08,1a9.31,9.31,0,0,0-.55,3.82Z"/><path class="cls-2" d="M412.54,175.2v23H408.9v-23Z"/><path class="cls-2" d="M429.84,192.29h3.65q0,4.47-2.17,5.33a9.54,9.54,0,0,1-2.2.57,17.81,17.81,0,0,1-2.75.19q-4.58,0-6.06-1.89t-1.41-6.16a21.73,21.73,0,0,1,.28-3.64,11.24,11.24,0,0,1,.76-2.69q1.15-2.5,6.08-2.51,4.55,0,6,1.65t1.48,6.09V191h-11a13.3,13.3,0,0,0,.17,1.77,12.51,12.51,0,0,0,.31,1.43c.3.73,1.3,1.1,3,1.1h1.38a2.94,2.94,0,0,0,.62-.07,4.5,4.5,0,0,0,.88-.14,1.68,1.68,0,0,0,.61-.24.54.54,0,0,0,.22-.39c0-.2.06-.41.09-.64a.78.78,0,0,0,0-.22v-1.33Zm.07-4.33a4.75,4.75,0,0,0-.59-2.72c-.3-.46-1.33-.69-3.11-.69-1.59,0-2.59.25-3,.73a4.39,4.39,0,0,0-.66,2.68Z"/><path d="M467.47,178.81v19.4h-3.82v-19.4h-7V175.2h17.81v3.61Z"/><path d="M476.68,189.54a11.81,11.81,0,0,1,1.24-6q1.38-2.06,5.88-2.06t6.16,1.75c1,1.13,1.48,3.2,1.48,6.23a18.7,18.7,0,0,1-.86,6.26v0q-1,2.79-6.09,2.79-4.33,0-6.05-1.41t-1.76-6Zm3.65,1.24v.69q0,.34,0,.72a11,11,0,0,0,.25,1.57,3.08,3.08,0,0,0,.44,1.11,2.31,2.31,0,0,0,.69.28,5.93,5.93,0,0,0,.86.14h1.51a6.07,6.07,0,0,0,2.72-.49c.46-.25.75-1,.86-2.13v-.2c0-.28,0-.54.05-.78s0-.5,0-.77,0-.56,0-.86v-.86a10.92,10.92,0,0,0-.44-3.75c-.23-.53-1.15-.79-2.75-.79h-.49c-1.78,0-2.85.2-3.2.62-.39.57-.58,1.82-.58,3.75Z"/><path d="M512.18,181.73v16.79q0,3.85-2,5.19v0a9.22,9.22,0,0,1-5.35,1.27,14.14,14.14,0,0,1-2.75-.24,7.17,7.17,0,0,1-2-.69q-1.81-1-1.82-5.36l3.37,0c.07,1.56.28,2.47.62,2.72a5.29,5.29,0,0,0,2.39.38,7.83,7.83,0,0,0,3.18-.52q.9-.48.9-2.58v-1.24a4.65,4.65,0,0,1-1.65.71,11.08,11.08,0,0,1-1.79.22,3.3,3.3,0,0,1-.47,0h-.46q-4.09,0-5.37-2.31a8,8,0,0,1-.91-2.41,15.17,15.17,0,0,1-.29-3.09,26.14,26.14,0,0,1,.21-3.46,11.35,11.35,0,0,1,.68-2.77q1.06-2.82,5.88-2.82a13.32,13.32,0,0,1,2.26.19,4.79,4.79,0,0,1,1.94.84,3.44,3.44,0,0,0,0-.46,2,2,0,0,1,0-.4Zm-10.77,8.78a15.16,15.16,0,0,0,.14,2.14,9.5,9.5,0,0,0,.38,1.64c.26.64,1.26,1,3,1a4.63,4.63,0,0,0,2.47-.57,2.65,2.65,0,0,0,1.06-2.18c0-.44.08-.87.1-1.29s0-.84,0-1.26a15.67,15.67,0,0,0-.14-2.3,10.39,10.39,0,0,0-.38-1.79c-.27-.76-1.32-1.13-3.14-1.13-1.48,0-2.43.25-2.87.75s-.66,1.54-.66,3.24Z"/><path d="M529.31,192.29H533q0,4.47-2.16,5.33a9.54,9.54,0,0,1-2.2.57,17.9,17.9,0,0,1-2.75.19c-3.06,0-5.07-.63-6.06-1.89s-1.41-3.24-1.41-6.16a20.72,20.72,0,0,1,.28-3.64,11.75,11.75,0,0,1,.75-2.69q1.17-2.5,6.09-2.51c3,0,5,.55,6,1.65s1.43,3.16,1.47,6.09V191H522a13.22,13.22,0,0,0,.18,1.77,12.51,12.51,0,0,0,.31,1.43c.3.73,1.3,1.1,3,1.1h1.39a2.94,2.94,0,0,0,.62-.07,4.63,4.63,0,0,0,.88-.14,1.7,1.7,0,0,0,.6-.24.55.55,0,0,0,.23-.39c0-.2.06-.41.08-.64a.54.54,0,0,0,0-.22v-1.33Zm.07-4.33a4.75,4.75,0,0,0-.59-2.72c-.3-.46-1.34-.69-3.11-.69-1.59,0-2.59.25-3,.73A4.47,4.47,0,0,0,522,188Z"/><path d="M550.19,181.73v3.1h-5.85v8.7a2.6,2.6,0,0,0,.25,1.33c.17.26.58.39,1.21.39s1.1-.11,1.19-.34a4.17,4.17,0,0,0,.31-1.72v-1.65h3.44a12.44,12.44,0,0,1-.79,4.88q-.93,2-4.2,2a5.6,5.6,0,0,1-3.92-1.11,5.18,5.18,0,0,1-1.14-3.78v-8.7h-2v-3.1h2v-3.68h3.65v3.68Z"/><path d="M560,175.2v7.08a3.21,3.21,0,0,1,1.28-.55l0,0a11.77,11.77,0,0,1,2.93-.35q3.46,0,4.91,1.35t1.45,4.91v10.53H566.9V187.37s0,0,0-.05a.08.08,0,0,0,0,0c0-1.21-.2-2-.58-2.2a4.18,4.18,0,0,0-2.4-.52c-1.69,0-2.75.29-3.18.86a5.82,5.82,0,0,0-.76,3.48v9.32h-3.54v-23Z"/><path d="M587.23,192.29h3.65c0,3-.73,4.76-2.17,5.33a9.54,9.54,0,0,1-2.2.57,17.81,17.81,0,0,1-2.75.19q-4.57,0-6.06-1.89t-1.41-6.16a20.72,20.72,0,0,1,.28-3.64,11.75,11.75,0,0,1,.75-2.69q1.17-2.5,6.09-2.51c3,0,5,.55,6,1.65s1.43,3.16,1.48,6.09V191h-11a13.22,13.22,0,0,0,.18,1.77,12.51,12.51,0,0,0,.31,1.43c.3.73,1.3,1.1,3,1.1h1.39a2.94,2.94,0,0,0,.62-.07,4.63,4.63,0,0,0,.88-.14,1.62,1.62,0,0,0,.6-.24.55.55,0,0,0,.23-.39c0-.2.06-.41.08-.64a.54.54,0,0,0,0-.22v-1.33Zm.07-4.33a4.83,4.83,0,0,0-.59-2.72c-.3-.46-1.34-.69-3.11-.69-1.59,0-2.59.25-3,.73a4.39,4.39,0,0,0-.66,2.68Z"/><path d="M597.34,181.7h3.54l0,.65a5.79,5.79,0,0,1,3.41-1,5.13,5.13,0,0,1,3.88,1.27,5.43,5.43,0,0,1,1.21,3.85c0,.14,0,.3,0,.5s0,.56-.09,1.08h-3.51c0-.52.08-.91.09-1.15s0-.45,0-.64a1.57,1.57,0,0,0-.5-1.35,2.61,2.61,0,0,0-1.53-.37,2.56,2.56,0,0,0-2.89,2.89v10.77h-3.58Z"/><polyline class="cls-3" points="139.06 1.5 199.66 134.56 258.75 1.5"/><polyline class="cls-3" points="207.06 1.5 267.66 134.56 326.75 1.5"/><polyline class="cls-3" points="439.06 1.5 499.66 134.56 558.75 1.5"/><polyline class="cls-3" points="507.06 1.5 567.66 134.56 626.75 1.5"/><polyline class="cls-4" points="364.85 138.56 408.38 42.99 450.82 138.56"/><polyline class="cls-5" points="316.01 138.56 359.53 42.99 401.98 138.56"/><line class="cls-4" x1="397.98" y1="98.17" x2="418.55" y2="98.17"/><line class="cls-5" x1="348.98" y1="98.17" x2="369.55" y2="98.17"/></g></g></svg>