<svg xmlns="http://www.w3.org/2000/svg" viewBox="0 0 157.74 123.61"><defs><style>.cls-1{fill:#dedede;}.cls-2,.cls-4,.cls-5,.cls-8{fill:none;}.cls-2,.cls-3,.cls-4,.cls-5{stroke:#000;stroke-miterlimit:10;}.cls-2,.cls-3,.cls-4{stroke-width:2px;}.cls-3{fill:#acd4f7;}.cls-4,.cls-5{stroke-linecap:round;}.cls-5{stroke-width:0.75px;}.cls-6{fill:#dcf3ff;}.cls-7{fill:#fff;}</style></defs><g id="Layer_2" data-name="Layer 2"><g id="Layer_1-2" data-name="Layer 1"><polygon class="cls-1" points="123.38 52.68 123.38 100.23 82.9 100.23 123.38 52.68"/><rect class="cls-1" x="1" y="18.19" width="129.87" height="4"/><path class="cls-1" d="M123.38,52.68v47.55H82.9a36.06,36.06,0,0,1,40.48-47.55Z"/><path class="cls-2" d="M124.53,86.57a3.83,3.83,0,1,1-7.66,0,3.83,3.83,0,0,1,7.66,0Z"/><rect class="cls-3" x="1" y="6.27" width="129.87" height="11.92"/><path class="cls-2" d="M1,18.19v82H87.34a35.56,35.56,0,0,1-2.65-12.06c0-.53,0-1.06,0-1.6a33.1,33.1,0,0,1,.16-3.32,34.76,34.76,0,0,1,1-5.81,36.08,36.08,0,0,1,15.47-21.25c1-.63,2-1.22,3-1.75A36.14,36.14,0,0,1,130.87,52V18.19Zm30.8,23H15.29V30.44H31.8Zm28,0H43.29V30.44H59.8Zm29,0H72.29V30.44H88.8Zm29,0H101.29V30.44H117.8Z"/><rect class="cls-2" x="43.29" y="30.44" width="16.51" height="10.73"/><rect class="cls-2" x="72.29" y="30.44" width="16.51" height="10.73"/><line class="cls-4" x1="41.17" y1="1" x2="41.17" y2="12.4"/><line class="cls-4" x1="91.17" y1="1" x2="91.17" y2="12.4"/><rect class="cls-4" x="43.29" y="54.45" width="16.51" height="10.72"/><rect class="cls-4" x="72.29" y="54.45" width="16.51" height="10.72"/><path class="cls-4" d="M104.33,54.44c-1,.53-2.06,1.12-3,1.75V54.44Z"/><rect class="cls-4" x="15.29" y="77.45" width="16.51" height="10.72"/><rect class="cls-4" x="43.29" y="77.45" width="16.51" height="10.72"/><line class="cls-5" x1="44.93" y1="35.02" x2="48" y2="32.04"/><line class="cls-5" x1="45.1" y1="38.54" x2="52.02" y2="32.04"/><line class="cls-5" x1="48.51" y1="39.57" x2="55.95" y2="32.04"/><line class="cls-5" x1="52.43" y1="39.57" x2="58" y2="34.11"/><line class="cls-5" x1="56.39" y1="39.57" x2="58.18" y2="37.64"/><rect class="cls-4" x="15.29" y="54.45" width="16.51" height="10.72"/><line class="cls-5" x1="16.93" y1="59.02" x2="20" y2="56.04"/><line class="cls-5" x1="17.1" y1="62.54" x2="24.02" y2="56.04"/><line class="cls-5" x1="20.51" y1="63.57" x2="27.95" y2="56.04"/><line class="cls-5" x1="24.43" y1="63.57" x2="30" y2="58.11"/><line class="cls-5" x1="28.39" y1="63.57" x2="30.18" y2="61.64"/><path class="cls-4" d="M84.81,83.25a33.1,33.1,0,0,0-.16,3.32c0,.54,0,1.07,0,1.6H72.29V77.44H85.82A34.76,34.76,0,0,0,84.81,83.25Z"/><line class="cls-5" x1="73.93" y1="82.02" x2="77" y2="79.04"/><line class="cls-5" x1="74.1" y1="85.54" x2="81.02" y2="79.04"/><line class="cls-5" x1="77.51" y1="86.57" x2="84.95" y2="79.04"/><line class="cls-5" x1="84.81" y1="83.25" x2="81.43" y2="86.57"/><path class="cls-6" d="M156.74,86.57a36,36,0,0,1-36.05,36V50.52A36,36,0,0,1,156.74,86.57Z"/><path class="cls-7" d="M120.69,50.52v72.09a36,36,0,0,1,0-72.09Z"/><path class="cls-4" d="M130.87,52a36.14,36.14,0,0,0-26.54,2.46c-1,.53-2.06,1.12-3,1.75A36.08,36.08,0,0,0,85.82,77.44a34.76,34.76,0,0,0-1,5.81,33.1,33.1,0,0,0-.16,3.32c0,.54,0,1.07,0,1.6a35.56,35.56,0,0,0,2.65,12.06A36,36,0,1,0,130.87,52ZM120.7,90.4a3.82,3.82,0,0,1-3.48-2.23,3.86,3.86,0,0,1-.35-1.6,3.83,3.83,0,0,1,7.66,0A3.84,3.84,0,0,1,120.7,90.4Z"/><path class="cls-4" d="M124.53,86.57a3.83,3.83,0,1,1-7.66,0,3.83,3.83,0,0,1,7.66,0Z"/><path class="cls-4" d="M124.53,86.57a3.83,3.83,0,1,1-7.66,0,3.83,3.83,0,0,1,7.66,0Z"/><line class="cls-4" x1="145.21" y1="86.57" x2="151.85" y2="86.57"/><line class="cls-4" x1="94.91" y1="86.57" x2="88.14" y2="86.57"/><line class="cls-4" x1="120.7" y1="55.38" x2="120.7" y2="61.64"/><line class="cls-4" x1="120.7" y1="82.74" x2="120.7" y2="66.49"/><line class="cls-8" x1="130.87" y1="22.19" x2="1" y2="22.19"/><path class="cls-8" d="M83.8,103.13s-5.61-14.52,0-28.52,29.49-20.16,29.49-20.16"/><line class="cls-4" x1="120.7" y1="112.06" x2="120.7" y2="117.94"/></g></g></svg>