<svg width="188" height="188" viewBox="0 0 188 188" fill="none" xmlns="http://www.w3.org/2000/svg">
<circle cx="94" cy="94" r="93.5" stroke="#535255"/>
<circle cx="94.0279" cy="94.0279" r="72.5279" fill="#535255" stroke="#535255"/>
<path d="M91.7798 4.22946L86.162 10.1546L92.0871 15.7724L97.7049 9.84724L91.7798 4.22946ZM93.0662 14.9725L92.9331 9.9743L90.9338 10.0275L91.0669 15.0258L93.0662 14.9725Z" fill="#535255"/>
<path d="M92 183.774L97.7735 178L92 172.226L86.2265 178L92 183.774ZM91 173L91 178L93 178L93 173L91 173Z" fill="#535255"/>
<path d="M4.23418 92.6434L9.7535 98.6604L15.7705 93.141L10.2511 87.1241L4.23418 92.6434ZM9.95922 93.8913L14.9546 94.1068L15.0408 92.1086L10.0454 91.8931L9.95922 93.8913Z" fill="#535255"/>
<path d="M183.774 93L178 87.2265L172.226 93L178 98.7735L183.774 93ZM178 92H173V94H178V92Z" fill="#535255"/>
</svg>
