<svg width="598" height="399" viewBox="0 0 598 399" fill="none" xmlns="http://www.w3.org/2000/svg">
<path d="M283.715 93.348L283.067 92.576C283.245 92.4244 301.213 77.4559 327.176 69.8649C351.166 62.8485 387.087 60.8634 421.969 91.2353L421.309 91.9974C386.783 61.9348 351.235 63.8899 327.493 70.8225C301.723 78.3496 283.893 93.1984 283.715 93.348Z" fill="#DADADA"/>
<path d="M560.799 287.324C557.051 247.364 541.577 217.034 501.479 194.788C489.653 188.228 474.848 185.022 467.758 173.499C460.719 162.06 463.333 147.45 461.939 134.088C458.359 99.8039 425.625 73.2923 391.373 69.6654C357.124 66.0365 323.05 81.5616 297.035 104.151C277.512 121.099 260.413 142.734 235.818 150.67C214.549 157.535 192.298 152.771 169.941 148.007C149.664 143.686 129.3 139.365 109.503 143.718C87.1056 148.645 68.317 164.34 54.5953 182.728C31.6345 213.501 25.9109 252.409 32.9332 290.167C36.7747 310.821 46.1721 331.755 59.642 347.832L542.249 346.823C556.359 332.7 562.405 304.457 560.799 287.324Z" fill="#F6F5F5"/>
<path d="M252.31 95.9895C252.31 116.602 235.614 133.31 215.021 133.31C194.426 133.31 177.731 116.602 177.731 95.9895C177.731 75.3791 194.426 58.669 215.021 58.669C235.614 58.669 252.31 75.3791 252.31 95.9895Z" fill="#F6F5F5"/>
<path d="M292.629 62.6988C292.629 71.2414 285.71 78.166 277.175 78.166C268.642 78.166 261.721 71.2414 261.721 62.6988C261.721 54.1562 268.642 47.2316 277.175 47.2316C285.71 47.2316 292.629 54.1562 292.629 62.6988Z" fill="#F6F5F5"/>
<path d="M529.146 170.632C529.146 179.175 522.227 186.1 513.692 186.1C505.156 186.1 498.237 179.175 498.237 170.632C498.237 162.09 505.156 155.165 513.692 155.165C522.227 155.165 529.146 162.09 529.146 170.632Z" fill="#F6F5F5"/>
<path d="M558.482 347.395L557.593 346.923C575.72 312.724 577.64 275.962 562.859 246.063C547.319 214.63 515.599 193.481 473.546 186.513L473.711 185.519C516.094 192.54 548.073 213.884 563.762 245.616C578.69 275.809 576.765 312.906 558.482 347.395Z" fill="#DADADA"/>
<path d="M62.4641 348.846C40.6273 325.311 26.2187 296.966 20.7961 266.877C15.7468 238.859 19.0096 211.059 29.9835 188.597C46.9372 153.896 79.7475 136.015 119.99 139.532L119.903 140.538C80.0907 137.057 47.649 154.734 30.8891 189.04C20.0085 211.31 16.7763 238.889 21.7881 266.698C27.1763 296.597 41.4974 324.766 63.2022 348.161L62.4641 348.846Z" fill="#DADADA"/>
<path d="M75.5996 347.76H205.279V274.701H75.5996V347.76Z" fill="#FF9064"/>
<path d="M122.065 347.76H75.5996V274.701H122.065V347.76Z" fill="#D8744C"/>
<path d="M146.655 292.499H158.75V274.701H146.655V292.499Z" fill="#FFB293"/>
<path d="M179.666 347.76H393.88V195.107H179.666V347.76Z" fill="#102048"/>
<path d="M414.739 141.138H375.107V104.935C375.107 97.6314 381.024 91.7102 388.321 91.7102C391.969 91.7102 395.276 93.1925 397.664 95.5845C400.022 97.9446 401.505 101.212 401.535 104.813V104.935L401.525 127.913C401.525 128.025 401.525 128.145 401.535 128.257V128.953L401.575 128.933C402.089 135.762 407.784 141.138 414.739 141.138Z" fill="#86A7FF"/>
<path d="M427.941 119.923V127.923C427.941 131.574 426.47 134.884 424.072 137.264C421.692 139.664 418.387 141.138 414.739 141.138C407.784 141.138 402.089 135.762 401.575 128.933L427.941 119.923Z" fill="#D3DFFF"/>
<path d="M388.322 91.7101C388.039 91.7101 387.767 91.7201 387.494 91.7401C387.313 91.75 387.142 91.76 386.972 91.782C386.779 91.8019 386.597 91.8219 386.406 91.8518C386.296 91.8617 386.185 91.8817 386.075 91.9016C385.934 91.9216 385.792 91.9515 385.66 91.9814C385.459 92.0233 385.268 92.0632 385.066 92.1131C384.783 92.185 384.502 92.2648 384.219 92.3665C384.078 92.4064 383.938 92.4563 383.807 92.5061C383.675 92.548 383.534 92.6079 383.404 92.6578C383.213 92.7296 383.029 92.8094 382.848 92.9012C382.688 92.971 382.527 93.0408 382.365 93.1326C382.326 93.1525 382.274 93.1725 382.224 93.2024C382.082 93.2742 381.941 93.354 381.801 93.4358C381.247 93.747 380.713 94.1001 380.219 94.4951C380.077 94.6049 379.926 94.7266 379.796 94.8363C379.635 94.968 379.493 95.0996 379.342 95.2413C379.19 95.3829 379.049 95.5226 378.907 95.6642C378.514 96.0672 378.142 96.4922 377.799 96.945C377.647 97.1465 377.508 97.338 377.366 97.5415C376.922 98.2158 376.539 98.9221 376.206 99.6682C376.126 99.8497 376.057 100.041 375.975 100.233C375.764 100.809 375.582 101.404 375.441 102.008C375.401 102.222 375.361 102.423 375.321 102.625C375.249 103.038 375.189 103.463 375.16 103.886V289.389H198.508V112.328C198.508 100.939 207.73 91.7101 219.109 91.7101H388.322Z" fill="#D3DFFF"/>
<path d="M353.438 117.675H219.391V110.615H353.438V117.675Z" fill="#ADC3FF"/>
<path d="M343.053 138.353H219.391V131.293H343.053V138.353Z" fill="#ADC3FF"/>
<path d="M336.533 159.033H219.391V151.971H336.533V159.033Z" fill="#ADC3FF"/>
<path d="M353.438 179.712H219.391V172.649H353.438V179.712Z" fill="#ADC3FF"/>
<path d="M343.864 200.643H271.191V193.581H343.864V200.643Z" fill="#ADC3FF"/>
<path d="M285.818 233.229C285.015 233.229 284.277 232.956 283.771 232.258C283.149 231.396 283.193 230.217 283.221 229.437L283.906 211.189L284.913 211.227L284.229 229.473C284.197 230.323 284.201 231.131 284.586 231.665C285.443 232.848 287.504 231.825 287.909 231.608C289.938 230.518 291.395 228.467 292.804 226.484C294.371 224.282 295.992 222.002 298.442 220.93C299.897 220.294 300.965 221.228 301.824 221.974C302.313 222.397 302.773 222.796 303.261 222.941C304.543 223.318 305.819 222.987 307.168 222.634C308.36 222.323 309.598 221.996 310.868 222.193C312.028 222.371 312.965 222.834 313.874 223.282C315.212 223.943 316.372 224.515 318.044 224.108C320.352 223.552 322.497 222.237 324.57 220.966C325.172 220.597 325.772 220.228 326.376 219.877C328.708 218.522 332.211 216.813 335.697 217.613L335.472 218.596C332.328 217.876 329.065 219.478 326.883 220.749C326.287 221.098 325.692 221.461 325.098 221.826C322.958 223.139 320.743 224.495 318.281 225.09C316.25 225.579 314.813 224.872 313.426 224.186C312.588 223.771 311.723 223.344 310.717 223.191C309.65 223.029 308.57 223.31 307.424 223.61C305.998 223.983 304.531 224.368 302.974 223.907C302.279 223.701 301.713 223.211 301.164 222.736C300.266 221.956 299.673 221.497 298.844 221.854C296.652 222.814 295.181 224.88 293.626 227.071C292.149 229.146 290.622 231.294 288.385 232.495C287.59 232.924 286.667 233.229 285.818 233.229Z" fill="#102048"/>
<path d="M221.876 289.389H198.508V193.844L253.69 239.791C256.18 241.872 259.305 242.897 262.514 242.897C263.226 242.897 263.942 242.847 264.655 242.746C265.606 242.612 266.579 242.546 267.553 242.546C267.747 242.546 267.94 242.55 268.132 242.554L305.746 243.613C307.045 243.653 308.337 243.815 309.597 244.088C310.615 244.31 311.646 244.419 312.673 244.419C315.571 244.419 318.419 243.536 320.793 241.778L375.16 201.499V209.816L314.626 257.377C311.748 255.952 308.556 255.194 305.295 255.194H267.665C262.435 255.194 257.393 257.143 253.52 260.659L221.876 289.389Z" fill="#BCCEFF"/>
<path d="M260.21 258.392L258.738 260.026L192.258 333.803L179.67 347.764V195.105L260.21 258.392Z" fill="#2996C3"/>
<path d="M393.879 195.107L313.336 258.392L393.879 347.76V195.107Z" fill="#2996C3"/>
<path d="M258.738 260.026L192.258 333.803L179.67 336.578V309.452C212.9 285.616 250.181 257.977 258.699 257.383L258.738 260.026Z" fill="#90D9D3"/>
<path d="M314.812 260.026L381.291 333.803L393.879 336.578V309.452C360.65 285.616 323.369 257.977 314.853 257.383L314.812 260.026Z" fill="#90D9D3"/>
<path d="M393.879 347.76H179.666L179.705 327.679L253.52 260.659C257.393 257.143 262.434 255.194 267.665 255.194H305.295C310.446 255.194 315.419 257.086 319.272 260.507L394.09 326.984L393.879 347.76Z" fill="#2996C3"/>
<path d="M393.909 344.89L394.09 326.985L393.879 326.799V276.982C407.129 282.552 416.431 295.659 416.431 310.943C416.431 326.214 407.143 339.314 393.909 344.89Z" fill="#B8B2D8"/>
<mask id="path-28-inside-1_209_2264" fill="white">
<path d="M393.878 309.452C381.336 300.457 368.218 290.917 356.286 282.496C362.639 277.265 370.774 274.123 379.644 274.123C384.691 274.123 389.501 275.14 393.878 276.982V309.452Z"/>
</mask>
<path d="M393.878 309.452C381.336 300.457 368.218 290.917 356.286 282.496C362.639 277.265 370.774 274.123 379.644 274.123C384.691 274.123 389.501 275.14 393.878 276.982V309.452Z" fill="#90D9D3"/>
<path d="M356.286 282.496L356.209 282.605L356.066 282.504L356.201 282.393L356.286 282.496ZM393.878 276.982L393.93 276.859L394.012 276.893V276.982H393.878ZM393.801 309.561C381.258 300.565 368.141 291.025 356.209 282.605L356.363 282.387C368.296 290.808 381.415 300.349 393.956 309.344L393.801 309.561ZM356.201 282.393C362.577 277.143 370.742 273.99 379.644 273.99V274.256C370.806 274.256 362.701 277.387 356.371 282.599L356.201 282.393ZM379.644 273.99C384.709 273.99 389.537 275.011 393.93 276.859L393.827 277.105C389.465 275.27 384.673 274.256 379.644 274.256V273.99ZM394.012 276.982V309.452H393.745V276.982H394.012Z" fill="#90D9D3" mask="url(#path-28-inside-1_209_2264)"/>
<path d="M356.29 282.58C354.22 284.289 352.342 286.217 350.691 288.335L393.812 326.651V309.487C389.699 306.536 385.524 303.528 381.349 300.519C372.817 294.371 364.288 288.225 356.29 282.58Z" fill="#2996C3" stroke="#2996C3" stroke-width="0.133333"/>
<path d="M379.644 347.76C359.326 347.76 342.855 331.276 342.855 310.943C342.855 302.424 345.748 294.582 350.6 288.343L393.879 326.799L394.09 326.984L393.909 344.89C389.521 346.739 384.702 347.76 379.644 347.76Z" fill="#90D9D3"/>
<path d="M427.518 310.943C427.518 331.276 411.047 347.76 390.729 347.76C370.413 347.76 353.942 331.276 353.942 310.943C353.942 290.608 370.413 274.123 390.729 274.123C411.047 274.123 427.518 290.608 427.518 310.943Z" fill="#76C6B2"/>
<path d="M389.942 330.893C388.196 330.893 386.524 330.161 385.326 328.838L372.313 314.456C371.191 313.217 371.285 311.304 372.524 310.181C373.762 309.059 375.674 309.153 376.794 310.392L389.809 324.776C389.835 324.804 389.882 324.852 389.984 324.836C390.088 324.82 390.114 324.758 390.13 324.722L404.139 292.802C404.81 291.272 406.59 290.578 408.123 291.248C409.652 291.92 410.348 293.706 409.676 295.236L395.667 327.156C394.812 329.103 393.05 330.47 390.955 330.809C390.616 330.865 390.277 330.893 389.942 330.893Z" fill="white"/>
<path d="M135.4 254.357L136.576 274.7H167.82L153.71 263.099L152.87 254.357L147.327 248.976L135.4 254.357Z" fill="#102048"/>
<path d="M97.9407 245.277L92.9014 263.436L118.602 274.7L111.043 257.551L112.891 249.818L106.508 241.411L97.9407 245.277Z" fill="#102048"/>
<path d="M107.852 155.165C107.852 155.165 104.828 167.775 105.836 195.514C105.836 195.514 96.933 226.616 97.9409 245.277L112.891 249.818C120.723 232.4 127.165 215.642 130.59 200.316C132.298 194.898 132.266 189.08 130.497 183.682L123.306 161.723L107.852 155.165Z" fill="#1F3C88"/>
<path d="M155.239 196.093L152.871 254.357H135.404C130.849 235.382 129.155 219.183 128.561 208.328C128.067 199.179 128.349 193.834 128.349 193.834C117.121 180.569 110.449 170.986 106.569 163.895C100.804 153.374 101.156 148.31 101.802 144.739C102.668 139.987 105.752 133.835 107.839 130.052C109.008 127.953 109.864 126.581 109.864 126.581L139.093 136.003L135.606 148.622L135.545 148.835C135.021 150.73 135.283 152.769 136.261 154.473L151.591 181.194C154.181 185.713 155.451 190.878 155.239 196.093Z" fill="#3A6BEA"/>
<path d="M146.152 254.736L146.128 254.734C145.919 254.722 145.762 254.54 145.775 254.333C145.811 253.748 149.414 195.815 145.136 186.594C144.385 184.976 143.111 182.908 141.636 180.516C135.461 170.499 125.128 153.737 127.297 129.577C127.315 129.37 127.495 129.212 127.708 129.234C127.915 129.254 128.069 129.438 128.05 129.645C125.903 153.553 136.154 170.182 142.279 180.117C143.767 182.531 145.052 184.615 145.823 186.277C150.18 195.672 146.68 251.988 146.529 254.38C146.516 254.582 146.35 254.736 146.152 254.736Z" fill="#1F3C88"/>
<path d="M135.606 148.622C133.053 147.57 130.636 146.415 128.363 145.202C128.119 143.373 127.942 141.487 127.846 139.544C131.389 140.897 134.702 141.938 137.327 142.393L135.606 148.622ZM127.54 144.757C118.283 139.68 111.515 133.703 107.86 130.074C112.926 132.955 120.349 136.618 127.073 139.245C127.158 141.134 127.317 142.974 127.54 144.757Z" fill="#2A4FAF"/>
<path d="M128.363 145.202C128.086 145.055 127.812 144.907 127.54 144.757C127.317 142.974 127.158 141.134 127.073 139.245C127.332 139.347 127.589 139.447 127.845 139.544C127.942 141.487 128.119 143.373 128.363 145.202Z" fill="#1F3C88"/>
<path d="M144.033 263.915L143.735 258.861L153.368 258.686C153.618 258.69 153.748 258.849 153.752 259.057C153.756 259.266 153.59 259.438 153.381 259.442L144.536 259.603L144.743 263.125L153.693 262.722C153.895 262.712 154.079 262.873 154.088 263.083C154.097 263.292 153.936 263.468 153.728 263.478L144.033 263.915Z" fill="white"/>
<path d="M111.043 257.93C111.006 257.93 110.966 257.924 110.929 257.912L102.637 255.262L104.705 250.432L112.012 253.076C112.208 253.148 112.31 253.363 112.239 253.561C112.168 253.756 111.951 253.862 111.755 253.788L105.119 251.386L103.659 254.795L111.158 257.191C111.357 257.255 111.467 257.467 111.404 257.666C111.352 257.828 111.203 257.93 111.043 257.93Z" fill="white"/>
<path d="M149.424 80.181L148.88 82.2179L146.703 90.4593L145.231 95.9874L132.129 91.2772L138.448 78.3357L141.532 73.8768L149.424 80.181Z" fill="#F9B384"/>
<path d="M148.879 82.2179L146.702 90.4592C142.842 86.2637 143.628 81.0289 143.628 81.0289L148.879 82.2179Z" fill="#102048"/>
<path d="M159.253 68.5841C159.253 68.5841 158.414 87.2453 149.007 85.6473C139.6 84.0513 139.768 67.9956 139.768 67.9956L152.03 64.0435L159.253 68.5841Z" fill="#F9B384"/>
<path d="M146.193 71.3991C146.193 71.3991 151.589 65.8311 159.253 68.5842C159.253 68.5842 162.634 70.0126 163.957 67.2395C163.957 67.2395 153.122 52.8635 144.618 59.8002C144.618 59.8002 129.374 63.1398 138.445 78.3357L146.193 71.3991Z" fill="#102048"/>
<path d="M149.217 71.3631C149.505 73.1746 148.459 74.8464 146.881 75.0998C145.302 75.3511 143.789 74.0863 143.5 72.2768C143.212 70.4654 144.257 68.7935 145.836 68.5402C147.414 68.2888 148.928 69.5536 149.217 71.3631Z" fill="#F9B384"/>
<path d="M159.59 77.9985C159.59 78.9262 158.838 79.6803 157.91 79.6803C156.983 79.6803 156.23 78.9262 156.23 77.9985C156.23 77.0688 156.983 76.3167 157.91 76.3167C158.838 76.3167 159.59 77.0688 159.59 77.9985Z" fill="#F9B384"/>
<path d="M151.401 79.1755C149.8 79.1755 148.503 77.8768 148.503 76.2748C148.503 74.6728 149.8 73.3741 151.401 73.3741C153.001 73.3741 154.298 74.6728 154.298 76.2748C154.298 77.8768 153.001 79.1755 151.401 79.1755Z" fill="#F39176"/>
<path d="M205.784 106.457C205.784 106.457 207.518 108.839 203.98 111.219C203.98 111.219 206.793 113.146 197.097 116.322C196.018 116.676 194.789 117.039 193.378 117.422L189.487 103.281C189.487 103.281 206.793 97.4297 207.225 99.305C207.66 101.182 204.132 103.714 204.132 103.714C204.132 103.714 210.331 102.19 205.784 106.457Z" fill="#F9B384"/>
<path d="M189.487 103.277L168.996 105.907C168.996 105.907 139.516 84.8912 133.468 86.9082C127.421 88.9251 107.012 121.709 107.012 121.709C107.012 121.709 101.468 123.475 101.72 125.745C101.972 128.015 137.752 146.591 142.539 141.884C145.55 138.924 149.007 115.321 149.007 115.321L162.045 120.749C165.911 122.357 170.182 122.722 174.264 121.791L193.382 117.426L189.487 103.277Z" fill="#FBC343"/>
<path d="M188.105 118.631L188.842 118.463L188.105 118.631ZM184.507 103.918L184.734 103.888L184.507 103.918" fill="#FDFDFD"/>
<path d="M188.105 118.631C187.89 117.785 187.674 116.941 187.46 116.099C186.755 113.342 186.067 110.653 185.442 108.065C185.266 107.341 185.106 106.599 184.944 105.855C184.804 105.21 184.659 104.562 184.507 103.918L184.734 103.888L185.261 103.82C185.407 104.444 185.548 105.071 185.683 105.695C185.843 106.433 186.002 107.167 186.176 107.888C186.801 110.471 187.488 113.158 188.192 115.912C188.409 116.759 188.625 117.611 188.842 118.463L188.105 118.631Z" fill="#FEF3D9"/>
<path d="M139.754 97.9305C137.956 97.9305 136.152 97.8009 134.358 97.4976C131.215 96.965 128.322 95.8677 125.859 94.3395C126.021 94.138 126.179 93.9445 126.338 93.747C128.7 95.1974 131.472 96.2408 134.484 96.7515C136.233 97.0488 137.995 97.1744 139.754 97.1744C143.968 97.1744 148.172 96.4503 152.178 95.6144C152.489 95.5505 152.8 95.4807 153.112 95.4149C153.423 95.6044 153.733 95.7959 154.042 95.9874C153.472 96.1111 152.903 96.2368 152.332 96.3565C148.283 97.2004 144.032 97.9305 139.754 97.9305Z" fill="#FEF3D9"/>
<path d="M141.682 132.703C141.124 132.703 140.565 132.683 140.009 132.632C134.774 132.143 130.185 128.927 127.189 126.551C126.148 125.725 125.129 124.867 124.109 124.009C121.557 121.863 118.918 119.642 115.979 118.006C114.221 117.027 112.439 116.336 110.697 115.937C110.84 115.716 110.979 115.502 111.128 115.273C112.856 115.696 114.614 116.38 116.347 117.344C119.349 119.018 122.016 121.26 124.596 123.431C125.609 124.284 126.623 125.136 127.659 125.958C130.579 128.274 135.044 131.409 140.078 131.877C140.609 131.927 141.145 131.947 141.682 131.947C142.879 131.947 144.085 131.848 145.262 131.75C145.514 131.73 145.766 131.718 146.017 131.698C145.959 131.957 145.901 132.213 145.842 132.468C145.67 132.482 145.497 132.49 145.325 132.504C144.13 132.604 142.908 132.703 141.682 132.703Z" fill="#FEF3D9"/>
<path d="M149.007 115.321L143.699 112.991C143.699 112.991 145.054 121.432 147.614 122.637L149.007 115.321Z" fill="#E49B31"/>
<path d="M197.097 116.322C196.018 116.676 194.789 117.039 193.378 117.422L189.487 103.281L197.097 116.322Z" fill="#E28B6D"/>
<path d="M430.289 201.651L442.636 207.199L451.837 176.887L439.785 173.717C436.6 180.843 433.353 189.962 430.289 201.651Z" fill="#E28B6D"/>
<path d="M439.785 173.717L451.837 176.887L462.122 148.61C462.122 148.61 449.692 146.928 439.785 173.717Z" fill="#102048"/>
<path d="M425.166 191.143L416.264 215.689L449.522 228.465L456.242 202.911L425.166 191.143Z" fill="#102048"/>
<path d="M436.108 223.853C435.867 224.547 433.875 225.377 432.598 224.242C430.108 223.801 428.427 223.486 426.875 221.768C425.479 221.232 424.853 219.713 425.491 218.433C426.713 215.981 428.607 212.525 429.506 212.661C430.636 212.833 429.819 216.324 429.819 216.324C429.819 216.324 431.701 211.895 433.489 212.479C434.284 212.743 432.368 216.958 432.175 217.403C432.476 217 434.866 213.782 435.781 214.459C436.696 215.143 434.467 218.947 434.23 219.35C434.489 219.027 436.588 216.495 437.611 217.333C438.053 217.702 437.358 220.274 436.108 223.853Z" fill="#E28B6D"/>
<path d="M498.572 308.323C498.572 308.323 514.698 306.558 521.502 291.679L503.613 292.688L498.572 308.323Z" fill="#102048"/>
<path d="M516.379 291.847L500.925 301.43L507.878 311.651L522.78 301.488L516.379 291.847Z" fill="#E28B6D"/>
<path d="M532.337 315.888L522.779 301.488L507.877 311.651L510.416 315.384L508.904 335.308L532.337 315.888Z" fill="#102048"/>
<path d="M510.44 315.888L510.391 314.881L517.955 314.498L518.007 315.505L510.44 315.888Z" fill="white"/>
<path d="M472.369 319.082L455.403 318.075V331.822L473.654 330.663L472.369 319.082Z" fill="#E28B6D"/>
<path d="M455.403 331.822V335.054L442.636 347.832H475.56L473.654 330.663L455.403 331.822Z" fill="#102048"/>
<path d="M461.993 339.944L454.763 335.742L455.269 334.871L462.499 339.072L461.993 339.944Z" fill="white"/>
<path d="M471.511 231.308C471.25 237.561 471.2 244.158 471.31 250.805C471.411 256.575 471.623 262.386 471.926 268.066C473.377 296.279 476.732 321.265 476.732 321.265L450.527 324.634C438.101 237.884 446.164 201.228 446.164 201.228L457.584 198.898L467.722 196.829L479.092 194.509C478.95 194.722 478.809 194.943 478.677 195.175C476.945 198.01 475.573 201.782 474.515 206.261C472.853 213.232 471.926 221.886 471.511 231.308Z" fill="#3A6BEA"/>
<path d="M471.925 268.066C460.938 244.693 465.06 226.113 465.06 226.113L471.511 231.308C471.25 237.561 471.2 244.158 471.309 250.805C471.411 256.575 471.622 262.386 471.925 268.066Z" fill="#1F3C88"/>
<path d="M521.502 291.679C508.904 296.471 498.573 308.323 498.573 308.323C487.699 289.087 478.416 269.77 471.31 250.805C465.394 235.029 460.99 219.496 458.439 204.466C458.128 202.598 457.835 200.743 457.584 198.897C457.552 198.726 457.522 198.544 457.502 198.373L467.722 196.829L478.677 195.175L484.211 194.337C484.807 197.868 485.602 201.561 486.559 205.363C496.095 243.332 521.502 291.679 521.502 291.679Z" fill="#3A6BEA"/>
<path d="M499.334 243.316C499.332 243.316 499.332 243.314 499.332 243.314C499.171 242.915 499.013 242.52 498.854 242.119C499.013 242.518 499.173 242.917 499.334 243.316ZM488.552 212.687C488.445 212.32 488.339 211.955 488.235 211.588C488.235 211.588 488.235 211.588 488.235 211.586C488.341 211.953 488.445 212.318 488.552 212.687Z" fill="#FDFDFD"/>
<path d="M499.332 243.314C496.91 241.822 494.568 240.174 492.57 238.125C487.663 233.086 485.181 225.621 486.092 218.642C486.411 216.204 487.155 213.818 488.235 211.588C488.339 211.955 488.444 212.32 488.552 212.687C487.703 214.62 487.115 216.661 486.844 218.742C485.959 225.495 488.361 232.719 493.113 237.597C494.813 239.342 496.788 240.797 498.853 242.119C499.013 242.52 499.17 242.915 499.332 243.314Z" fill="#D8E1FB"/>
<path d="M512.518 273.441C512.412 273.217 512.307 272.994 512.201 272.766C512.307 272.994 512.412 273.217 512.518 273.441Z" fill="#FDFDFD"/>
<path d="M485.239 282.973C485.11 282.705 484.978 282.44 484.849 282.173C486.661 279.428 489.154 277.189 492.369 275.934C495.533 274.7 499.141 274.494 502.631 274.297C506.09 274.099 509.42 273.904 512.201 272.766C512.307 272.994 512.412 273.217 512.518 273.441C509.568 274.652 506.086 274.857 502.673 275.051C499.244 275.246 495.696 275.448 492.643 276.639C489.437 277.892 486.987 280.178 485.239 282.973Z" fill="#D8E1FB"/>
<path d="M473.321 288.665C473.286 288.252 473.252 287.835 473.218 287.418C473.22 287.418 473.22 287.42 473.22 287.42C473.254 287.837 473.288 288.252 473.321 288.665Z" fill="#FDFDFD"/>
<path d="M473.321 288.665C467.317 281.967 460.528 274.827 452.146 270.568C449.656 269.303 447.096 268.369 444.543 267.757C444.525 267.492 444.509 267.228 444.493 266.965C447.18 267.589 449.871 268.565 452.486 269.894C460.679 274.055 467.333 280.89 473.217 287.418C473.251 287.835 473.285 288.252 473.321 288.665Z" fill="#D8E1FB"/>
<path d="M475.41 310.234C475.382 309.987 475.354 309.736 475.326 309.48C475.328 309.48 475.328 309.48 475.328 309.48C475.356 309.734 475.384 309.991 475.41 310.234Z" fill="#FDFDFD"/>
<path d="M472.426 310.558C471.18 310.558 469.962 310.404 468.87 310.149C466.845 309.674 464.887 308.898 462.992 308.15C461.03 307.374 459.001 306.572 456.922 306.119C455.61 305.831 454.271 305.694 452.927 305.694C451.307 305.694 449.684 305.895 448.107 306.282C448.075 306.031 448.044 305.776 448.014 305.524C449.622 305.137 451.275 304.936 452.925 304.936C454.323 304.936 455.718 305.081 457.083 305.379C459.22 305.845 461.279 306.659 463.271 307.447C465.138 308.184 467.072 308.95 469.043 309.41C470.086 309.656 471.25 309.804 472.436 309.804C473.403 309.804 474.385 309.706 475.326 309.48C475.354 309.736 475.382 309.987 475.41 310.234C474.433 310.46 473.421 310.558 472.426 310.558Z" fill="#D8E1FB"/>
<path d="M443.819 252.477C443.817 252.443 443.817 252.411 443.815 252.379C443.817 252.411 443.817 252.443 443.819 252.477Z" fill="#FDFDFD"/>
<path d="M443.85 253.351C443.84 253.062 443.828 252.767 443.82 252.477C443.818 252.443 443.818 252.411 443.816 252.38C447.754 248.944 450.148 243.747 449.873 238.464C449.628 233.784 447.304 229.387 443.806 226.355C443.816 226.034 443.828 225.716 443.842 225.403C447.745 228.575 450.362 233.339 450.627 238.424C450.926 244.144 448.235 249.776 443.85 253.351Z" fill="#D8E1FB"/>
<path d="M458.439 204.466C451.121 203.023 446.164 201.228 446.164 201.228L457.584 198.898C457.835 200.743 458.128 202.598 458.439 204.466ZM467.722 196.829L479.092 194.509C478.95 194.722 478.809 194.943 478.677 195.175L467.722 196.829Z" fill="#2F58C3"/>
<path d="M475.707 206.269C475.308 206.269 474.912 206.267 474.515 206.261C468.639 206.159 463.065 205.383 458.439 204.466C458.128 202.598 457.835 200.743 457.584 198.898C457.552 198.726 457.522 198.544 457.502 198.373L467.722 196.829L478.677 195.175L484.211 194.337C484.807 197.868 485.602 201.561 486.559 205.363C482.951 206.016 479.283 206.269 475.707 206.269Z" fill="#2F58C3"/>
<path d="M471.309 251.31C471.102 251.31 470.909 251.183 470.835 250.975L463.555 230.486L454.805 225.2C454.567 225.056 454.492 224.745 454.635 224.507C454.779 224.268 455.09 224.194 455.327 224.336L464.385 229.808L471.784 250.638C471.877 250.899 471.742 251.188 471.479 251.282C471.423 251.302 471.365 251.31 471.309 251.31Z" fill="#1F3C88"/>
<path d="M488.494 198.251C471.613 204.677 442.636 201.066 442.636 201.066C443.816 188.789 443.896 152.476 462.794 147.937L471.24 148.825C475.665 150.559 479.122 157.176 481.721 165.034C483.284 169.715 484.534 174.84 485.522 179.64C487.597 189.677 488.494 198.251 488.494 198.251Z" fill="#1F3C88"/>
<path d="M485.522 179.64C477.569 175.011 475.896 164.58 475.896 164.58L481.721 165.034C483.284 169.715 484.534 174.84 485.522 179.64Z" fill="#102048"/>
<path d="M471.234 148.819L470.102 165.084L487.448 174.355L490.958 157.503C475.707 148.488 471.234 148.819 471.234 148.819Z" fill="#1F3C88"/>
<path d="M504.278 171.177C503.865 171.803 503.401 172.388 502.877 172.923C501.93 173.91 500.812 174.718 499.562 175.323C497.718 176.22 495.701 176.603 493.705 176.484C492.033 176.382 490.39 175.919 488.868 175.111L487.446 174.355L490.965 157.499C491.901 158.064 492.88 158.648 493.917 159.285C493.917 159.285 507.645 139.867 508.653 140.25C509.56 140.584 508.017 143.588 507.705 144.185C508.301 143.307 512.756 136.769 513.944 137.224C514.89 137.577 513.693 140.482 513.541 140.835C513.812 140.442 516.202 136.921 517.643 137.769C518.309 138.162 515.738 141.974 515.486 142.357C515.799 142.056 518.65 139.291 519.356 140.119C520.081 140.957 517.31 144.254 516.997 144.627C517.281 144.376 519.718 142.247 520.496 143.277C521.512 144.598 509.036 163.915 504.278 171.177Z" fill="#E28B6D"/>
<path d="M494.424 176.506C494.183 176.506 493.944 176.498 493.705 176.484C493.615 176.121 493.575 175.748 493.575 175.364C493.575 172.619 495.802 170.391 498.543 170.391C500.398 170.391 502.021 171.408 502.876 172.923C501.929 173.91 500.811 174.718 499.561 175.323C499.388 175.406 499.214 175.486 499.039 175.562C497.564 176.192 495.995 176.506 494.424 176.506Z" fill="#E67968"/>
<path d="M460.799 197.649C453.348 197.649 446.674 197.172 443.399 196.893C443.176 196.873 443.042 196.861 443.005 196.859C442.799 196.851 442.636 196.679 442.64 196.474C442.644 196.268 442.809 196.103 443.014 196.103C443.04 196.103 443.194 196.115 443.463 196.138C450.926 196.779 476.156 198.449 487.579 193.112C487.765 193.024 487.994 193.106 488.082 193.296C488.169 193.485 488.088 193.711 487.898 193.798C481.36 196.851 470.433 197.649 460.799 197.649Z" fill="#86A7FF"/>
<path d="M464.755 159.405C460.747 159.405 458.973 156.755 458.949 156.715C458.835 156.54 458.885 156.306 459.06 156.195C459.236 156.081 459.467 156.129 459.583 156.304C459.714 156.506 462.877 161.156 470.845 156.849C471.028 156.753 471.257 156.819 471.357 157.003C471.457 157.186 471.387 157.418 471.204 157.515C468.616 158.914 466.477 159.405 464.755 159.405Z" fill="#86A7FF"/>
<path d="M478.024 117.2C480.138 116.009 482.995 115.902 484.873 117.444C485.851 118.246 486.479 119.401 487.388 120.283C489.336 122.176 492.364 122.653 494.229 124.626C495.671 126.15 496.185 128.374 496.041 130.467C495.896 132.562 495.162 134.565 494.381 136.512C493.267 139.293 491.981 142.118 489.754 144.123C488.905 144.887 487.909 145.525 486.792 145.783C485.678 146.04 484.434 145.876 483.527 145.178C482.57 144.44 482.098 143.207 482.014 142.002C481.933 140.795 482.188 139.596 482.443 138.415C483.051 138.788 483.874 138.782 484.476 138.397C485.076 138.012 485.427 137.268 485.343 136.56C485.2 135.355 484.014 134.599 482.951 134.016C481.191 133.051 479.431 132.085 477.671 131.121C476.64 130.555 475.588 129.972 474.812 129.088C473.517 127.612 472.476 124.366 473.333 122.503C474.284 120.434 476.034 118.319 478.024 117.2Z" fill="#FBB81D"/>
<path d="M457.125 127.006C457.125 127.006 457.015 115.054 471.846 118.204C474.355 118.736 476.55 120.091 478.163 122.088C480.577 125.077 482.123 137.641 475.224 141.128C466.573 145.499 457.125 127.006 457.125 127.006Z" fill="#FBC343"/>
<path d="M472.49 137.092L472.147 149.096C472.055 152.143 469.647 154.615 466.603 154.776C466.502 154.786 466.402 154.786 466.3 154.786C462.894 154.786 460.183 151.861 460.476 148.42L460.496 148.229L461.281 139.109L462.28 138.928L472.49 137.092Z" fill="#E28B6D"/>
<path d="M467.411 141.38C467.411 141.38 465.555 146 460.496 148.229L461.281 139.109L462.28 138.928L467.411 141.38Z" fill="#102048"/>
<path d="M457.125 127.006C457.125 127.006 453.343 142.766 461.281 143.522C469.218 144.28 472.493 137.092 472.493 137.092L473.502 128.141L468.588 121.078L460.777 123.474L457.125 127.006Z" fill="#E28B6D"/>
<path d="M457.125 127.006C457.125 127.006 464.427 122.906 467.078 128.392C468.926 132.217 471.738 134.319 474.511 133.059C477.282 131.798 475.013 122.719 475.013 122.719L464.684 120.071L458.51 123.6L457.125 127.006Z" fill="#FBC343"/>
<path d="M474.87 134.836C473.917 136.488 472.039 137.186 470.674 136.398C469.31 135.61 468.977 133.633 469.93 131.981C470.883 130.329 472.761 129.629 474.124 130.417C475.487 131.205 475.822 133.184 474.87 134.836Z" fill="#E28B6D"/>
<path d="M471.613 134.78H471.595C471.456 134.77 471.352 134.651 471.362 134.511C471.426 133.615 471.992 131.923 473.67 131.923C473.81 131.923 473.923 132.035 473.923 132.175C473.923 132.314 473.81 132.428 473.67 132.428C472.042 132.428 471.87 134.461 471.864 134.547C471.854 134.681 471.745 134.78 471.613 134.78Z" fill="#102048"/>
<path d="M458.327 132.666C458.327 133.021 458.038 133.31 457.683 133.31C457.328 133.31 457.039 133.021 457.039 132.666C457.039 132.31 457.328 132.023 457.683 132.023C458.038 132.023 458.327 132.31 458.327 132.666Z" fill="#102048"/>
<path d="M463.319 132.616C463.319 133.011 463 133.332 462.605 133.332C462.211 133.332 461.892 133.011 461.892 132.616C461.892 132.223 462.211 131.901 462.605 131.901C463 131.901 463.319 132.223 463.319 132.616Z" fill="#102048"/>
<path d="M459.672 136.592C459.114 136.592 458.736 136.416 458.546 136.069C458.046 135.161 459.202 133.454 459.437 133.122C459.519 133.009 459.674 132.981 459.79 133.063C459.904 133.144 459.93 133.302 459.85 133.414C459.236 134.275 458.742 135.381 458.987 135.828C459.092 136.019 459.369 136.105 459.798 136.085L459.812 136.083C459.945 136.083 460.057 136.189 460.063 136.322C460.071 136.462 459.965 136.58 459.826 136.588C459.772 136.592 459.722 136.592 459.672 136.592Z" fill="#102048"/>
<path d="M466.179 137.755C464.935 137.755 463.929 136.745 463.929 135.5C463.929 134.256 464.935 133.246 466.179 133.246C467.423 133.246 468.432 134.256 468.432 135.5C468.432 136.745 467.423 137.755 466.179 137.755Z" fill="#E67968"/>
<path d="M459.986 138.774C459.306 138.774 458.836 138.537 458.8 138.517C458.676 138.455 458.629 138.301 458.692 138.18C458.754 138.056 458.908 138.006 459.031 138.07C459.089 138.098 460.446 138.768 461.856 137.471C461.957 137.378 462.117 137.386 462.211 137.487C462.304 137.589 462.298 137.749 462.197 137.843C461.397 138.577 460.604 138.774 459.986 138.774Z" fill="#102048"/>
<path d="M459.095 131.243C458.621 131.143 458.192 131.008 457.791 131.012C457.592 130.998 457.407 131.024 457.219 131.076C457.02 131.107 456.841 131.215 456.605 131.307L456.581 131.317C456.502 131.347 456.412 131.307 456.382 131.229C456.366 131.189 456.368 131.145 456.384 131.109C456.498 130.856 456.687 130.619 456.952 130.471C457.213 130.325 457.524 130.252 457.819 130.264C458.407 130.315 458.928 130.561 459.27 131.006C459.32 131.072 459.308 131.167 459.243 131.219C459.205 131.249 459.159 131.257 459.117 131.249L459.095 131.243Z" fill="#102048"/>
<path d="M460.962 131.026C461.311 130.421 461.949 129.998 462.706 129.918C463.081 129.893 463.474 129.976 463.789 130.16C464.112 130.337 464.357 130.601 464.534 130.892C464.578 130.964 464.554 131.058 464.482 131.101C464.439 131.127 464.389 131.129 464.345 131.111L464.329 131.103C464.034 130.976 463.787 130.828 463.522 130.762C463.266 130.671 463.013 130.645 462.758 130.667C462.244 130.677 461.718 130.938 461.181 131.223L461.163 131.233C461.09 131.273 460.998 131.245 460.96 131.171C460.934 131.123 460.938 131.068 460.962 131.026Z" fill="#102048"/>
<path d="M581.22 348.337H21.8457V347.327H581.22V348.337Z" fill="#102048"/>
</svg>
