<?xml version="1.0" encoding="utf-8"?>
<!-- Generator: Adobe Illustrator 25.3.0, SVG Export Plug-In . SVG Version: 6.00 Build 0)  -->
<svg version="1.1" id="OBJECTS" xmlns="http://www.w3.org/2000/svg" xmlns:xlink="http://www.w3.org/1999/xlink" x="0px" y="0px"
	 viewBox="0 0 750 500" style="enable-background:new 0 0 750 500;" xml:space="preserve">
<style type="text/css">
	.st0{fill:none;stroke:#ADD2F7;stroke-linejoin:round;stroke-miterlimit:10;stroke-dasharray:3.5,3.5;}
	.st1{fill:#E1F5FF;}
	.st2{fill:#FFFFFF;stroke:#C5E6FF;stroke-linejoin:round;stroke-miterlimit:10;}
	.st3{fill:#FFFFFF;stroke:#E1E4EF;stroke-linejoin:round;stroke-miterlimit:10;}
	.st4{fill:#E4E9F9;}
	.st5{fill:#FFFFFF;}
	.st6{fill:#E1E4EF;}
	.st7{fill:none;stroke:#E1E4EF;stroke-linejoin:round;stroke-miterlimit:10;}
	.st8{fill:#369ED2;}
	.st9{fill:none;stroke:#316399;stroke-miterlimit:10;}
	.st10{clip-path:url(#SVGID_2_);}
	.st11{fill:url(#SVGID_3_);}
	.st12{fill:url(#SVGID_4_);}
	.st13{fill:#A8D7F4;}
	.st14{fill:none;stroke:#FFFFFF;stroke-miterlimit:10;}
	.st15{fill:#DCF3FF;}
	.st16{fill:#C2EBFF;}
	.st17{fill:#71C2DB;}
	.st18{fill:none;stroke:#71C2DB;stroke-miterlimit:10;}
	.st19{fill:#D3DBF4;}
	.st20{fill:#FFCBBD;}
	.st21{fill:#7FDDDA;}
	.st22{fill:none;stroke:#4DA09C;stroke-width:0.75;stroke-miterlimit:10;}
	.st23{fill:none;stroke:#369ED2;stroke-width:0.75;stroke-miterlimit:10;}
	.st24{fill:#FFCBBB;}
	.st25{fill:none;stroke:#EF977F;stroke-miterlimit:10;}
	.st26{fill:#4A1A1A;}
	.st27{fill:none;stroke:#F7A794;stroke-width:0.5;stroke-miterlimit:10;}
	.st28{fill:#212237;}
	.st29{fill:none;stroke:#212237;stroke-width:0.5;stroke-linecap:round;stroke-linejoin:round;stroke-miterlimit:10;}
	.st30{fill:none;stroke:#F7A794;stroke-miterlimit:10;}
	.st31{fill:#AED4F4;}
	.st32{fill:none;stroke:#77E0E0;stroke-width:0.75;stroke-miterlimit:10;}
	.st33{fill:#EF977F;}
	.st34{fill:#0084AD;}
	.st35{fill:none;stroke:#1D7293;stroke-width:0.75;stroke-miterlimit:10;}
	.st36{fill:none;stroke:#1A84AD;stroke-width:0.75;stroke-miterlimit:10;}
	.st37{fill:none;stroke:#E88872;stroke-width:0.5;stroke-linejoin:round;stroke-miterlimit:10;}
	.st38{fill:#28364C;}
	.st39{fill:none;stroke:#28364C;stroke-width:0.75;stroke-miterlimit:10;}
	.st40{fill:#B3E8E8;}
	.st41{fill:#F49C8E;}
	.st42{fill:none;stroke:#3976B2;stroke-miterlimit:10;}
	.st43{fill:none;stroke:#28364C;stroke-width:0.5;stroke-linecap:round;stroke-miterlimit:10;}
	.st44{fill:#E88872;}
	.st45{fill-rule:evenodd;clip-rule:evenodd;fill:#FFCBBB;}
	.st46{fill:none;stroke:#28364C;stroke-width:0.5;stroke-linecap:round;stroke-linejoin:round;stroke-miterlimit:10;}
	.st47{fill:#14122D;}
</style>
<g>
	<g>
		<path class="st0" d="M302.18,376.1c-5.76-19.9-22.24-35.2-43.5-35.72c-12.36-0.3-24.35,5-34.88,11.05
			c-14.21,8.16-30.96,18.01-47.97,15.54c-10.89-1.59-23.79-7.7-26.35-20.33c-2.7-13.36,8.09-22.53,19.63-27.9
			c9.89-4.61,23.76-15.62,28.21-26.16c17.62-41.81-31.65-89.53-17.75-137.18c14.55-49.87,81.94-58.3,115.81-24.44
			c3.25,3.25,6.28,6.71,9.05,10.38c6.91,9.18,10.98,21.68,20.59,28.57c12.44,8.92,28.56,6.06,41.97,0.77
			c25.61-10.12,32.39-16.8,57.43-27.7c18.01-7.84,40.2-14.83,60.43-7.87c14.5,4.99,30.52,13.97,38.63,26.96
			c15.08,24.16,8.31,50.19,32.15,84.55c10.8,15.57,27.97,19.93,41.65,31.18c35.46,29.16,23.61,90.64-15.07,111.67
			c-31.76,17.27-70.86,13.33-105.3,8.9c-2.64-0.34-5.28-0.7-7.91-1.09"/>
		<path class="st1" d="M553.61,149.47c2.98-3.4,5.63-7.18,7.83-11.36c2.2-4.17,3.84-8.49,4.97-12.87l-11.82-4.19
			c0.95-4.08,1.31-8.22,1.14-12.32l12.41-1.93c-0.61-9.23-3.38-18.21-8.08-26.18l-11.34,5.4c-2.17-3.47-4.8-6.69-7.89-9.53
			l7.4-10.13c-3.4-2.98-7.18-5.63-11.36-7.83c-4.17-2.2-8.49-3.84-12.87-4.97l-4.19,11.82c-4.08-0.95-8.22-1.31-12.32-1.14
			l-1.93-12.41c-9.23,0.61-18.21,3.38-26.18,8.08l5.4,11.34c-3.47,2.17-6.69,4.8-9.53,7.89l-10.13-7.4
			c-2.98,3.4-5.63,7.18-7.83,11.36c-2.2,4.17-3.84,8.49-4.97,12.87l11.82,4.19c-0.95,4.08-1.31,8.22-1.14,12.32l-12.41,1.93
			c0.61,9.23,3.38,18.21,8.08,26.18l11.34-5.4c2.17,3.47,4.8,6.69,7.89,9.53l-7.4,10.13c3.4,2.98,7.18,5.63,11.36,7.83
			c4.17,2.2,8.49,3.84,12.87,4.97l4.19-11.82c4.08,0.95,8.22,1.31,12.32,1.14l1.93,12.41c9.23-0.61,18.21-3.38,26.18-8.08
			l-5.4-11.34c3.47-2.17,6.69-4.8,9.53-7.89L553.61,149.47z M495.63,136.63c-14.37-7.59-19.86-25.39-12.28-39.75
			c7.59-14.37,25.39-19.86,39.75-12.28c14.37,7.59,19.86,25.39,12.28,39.75C527.79,138.72,510,144.21,495.63,136.63z M499.6,129.1
			c-10.21-5.39-14.11-18.04-8.72-28.25c5.39-10.21,18.04-14.11,28.25-8.72c10.21,5.39,14.11,18.04,8.72,28.25
			C522.46,130.58,509.81,134.49,499.6,129.1z"/>
		<path class="st1" d="M285,177.93c1.63-2.28,3.02-4.77,4.12-7.48c1.1-2.71,1.84-5.47,2.27-8.24l-7.54-1.85
			c0.33-2.57,0.3-5.15-0.06-7.66l7.53-1.95c-0.94-5.65-3.21-11.01-6.59-15.63l-6.65,4.03c-1.55-2.01-3.37-3.82-5.45-5.38l3.94-6.7
			c-2.28-1.63-4.77-3.02-7.48-4.12c-2.71-1.1-5.47-1.84-8.24-2.27l-1.85,7.54c-2.57-0.33-5.15-0.3-7.66,0.06l-1.95-7.53
			c-5.65,0.94-11.01,3.21-15.63,6.59l4.03,6.65c-2.01,1.55-3.82,3.37-5.38,5.45l-6.7-3.94c-1.63,2.28-3.02,4.77-4.12,7.48
			c-1.1,2.71-1.84,5.47-2.27,8.24l7.54,1.85c-0.33,2.57-0.3,5.15,0.06,7.66l-7.53,1.95c0.94,5.65,3.21,11.01,6.59,15.63l6.65-4.03
			c1.55,2.01,3.37,3.82,5.45,5.38l-3.94,6.7c2.28,1.63,4.77,3.02,7.48,4.12c2.71,1.1,5.47,1.84,8.24,2.27l1.85-7.54
			c2.57,0.33,5.15,0.3,7.66-0.06l1.95,7.53c5.65-0.94,11.01-3.21,15.63-6.59l-4.03-6.65c2.01-1.55,3.82-3.37,5.38-5.45L285,177.93z
			 M248.49,173.59c-9.32-3.79-13.8-14.42-10.01-23.74c3.79-9.32,14.42-13.8,23.74-10.01c9.32,3.79,13.8,14.42,10.01,23.74
			C268.44,172.9,257.81,177.38,248.49,173.59z M250.48,168.71c-6.62-2.69-9.81-10.24-7.12-16.87c2.69-6.62,10.24-9.81,16.87-7.12
			c6.62,2.69,9.81,10.24,7.12,16.87C264.65,168.21,257.1,171.4,250.48,168.71z"/>
		<path class="st1" d="M314.94,108.57c1.29-1.47,2.44-3.11,3.39-4.92c0.96-1.81,1.66-3.68,2.15-5.58l-5.12-1.82
			c0.41-1.77,0.57-3.57,0.49-5.34l5.38-0.84c-0.26-4-1.47-7.9-3.5-11.35l-4.91,2.34c-0.94-1.51-2.08-2.9-3.42-4.13l3.21-4.39
			c-1.47-1.29-3.11-2.44-4.92-3.39c-1.81-0.96-3.68-1.66-5.58-2.15l-1.82,5.12c-1.77-0.41-3.57-0.57-5.34-0.49l-0.84-5.38
			c-4,0.26-7.9,1.47-11.35,3.5l2.34,4.91c-1.51,0.94-2.9,2.08-4.13,3.42l-4.39-3.21c-1.29,1.47-2.44,3.11-3.39,4.92
			c-0.96,1.81-1.66,3.68-2.15,5.58l5.12,1.82c-0.41,1.77-0.57,3.57-0.49,5.34l-5.38,0.84c0.26,4,1.47,7.9,3.5,11.35l4.91-2.34
			c0.94,1.51,2.08,2.9,3.42,4.13l-3.21,4.39c1.47,1.29,3.11,2.44,4.92,3.39c1.81,0.96,3.68,1.66,5.58,2.15l1.82-5.12
			c1.77,0.41,3.57,0.57,5.34,0.49l0.84,5.38c4-0.26,7.9-1.47,11.35-3.5l-2.34-4.91c1.51-0.94,2.9-2.08,4.13-3.42L314.94,108.57z
			 M291.48,99.85c-4.48-2.37-6.2-7.92-3.83-12.41c2.37-4.48,7.92-6.2,12.41-3.83c4.48,2.37,6.2,7.92,3.83,12.41
			C301.52,100.5,295.96,102.21,291.48,99.85z"/>
		<path class="st2" d="M194.11,188.33c-0.03-0.67-0.09-1.38-0.17-2.13c-0.69-6.21-4.94-5.64-7.59-5.45c-2.65,0.19-5.94,0.29-7.2-2.6
			c-0.55-1.26-0.53-2.77-0.89-4.13c-0.8-3.01-3.48-4.82-6.04-4.82c-2.56-0.01-4.98,1.46-7.07,3.28c-1.09,0.94-2.32,2.05-3.61,1.69
			c-0.83-0.23-1.48-1.02-2-1.86c-3.03-4.92-3.01-12.08-6.33-16.71c-3.66-5.11-10.51-5.21-15.14-1.5s-7.29,10.32-8.51,16.99
			c-0.39,2.17-0.74,4.55-2.07,6.02c-1.91,2.11-4.84,1.41-7.39,1.13c-2.96-0.33-6.12,0.15-8.52,2.32c-1.96,1.77-3.23,4.87-2.99,7.78
			H194.11z"/>
		<path class="st2" d="M365.4,80.77h84.18c0,0-3.37-3.92-7.19-5.26c-4.81-1.68-6.8,3.05-9.84-3.07c-1.7-3.43-2.89-7.95-7.37-9.12
			c-7-1.83-8.78,3.95-12.12,2.39c-2.93-1.37-2.84-6.87-5.79-11.46c-2.89-4.49-9.93-7.25-14.74-4.91
			c-8.78,4.28-7.64,11.08-10.51,13.32c-2.84,2.21-9.34-5.58-16.62,2.85C360.38,71.32,365.4,80.77,365.4,80.77z"/>
		<g>
			<path class="st3" d="M453.27,51.85c0,2.04-1.65,3.69-3.69,3.69c-2.04,0-3.69-1.65-3.69-3.69c0-2.04,1.65-3.69,3.69-3.69
				C451.61,48.15,453.27,49.81,453.27,51.85z"/>
			<path class="st3" d="M696.7,349.54c0,2.04-1.65,3.69-3.69,3.69c-2.04,0-3.69-1.65-3.69-3.69c0-2.04,1.65-3.69,3.69-3.69
				C695.04,345.85,696.7,347.5,696.7,349.54z"/>
			<path class="st3" d="M520.28,196.49c0,2.04-1.65,3.69-3.69,3.69c-2.04,0-3.69-1.65-3.69-3.69c0-2.04,1.65-3.69,3.69-3.69
				C518.62,192.79,520.28,194.44,520.28,196.49z"/>
			<path class="st3" d="M63.42,240.29c0,2.04-1.65,3.69-3.69,3.69c-2.04,0-3.69-1.65-3.69-3.69c0-2.04,1.65-3.69,3.69-3.69
				C61.77,236.59,63.42,238.25,63.42,240.29z"/>
			<path class="st3" d="M214.11,101.81c0,2.04-1.65,3.69-3.69,3.69c-2.04,0-3.69-1.65-3.69-3.69c0-2.04,1.65-3.69,3.69-3.69
				C212.46,98.12,214.11,99.77,214.11,101.81z"/>
			<path class="st3" d="M257.86,85.01c0,1.39-1.12,2.51-2.51,2.51s-2.51-1.12-2.51-2.51s1.12-2.51,2.51-2.51
				S257.86,83.63,257.86,85.01z"/>
			<path class="st3" d="M666.81,262.76c0,1.39-1.12,2.51-2.51,2.51c-1.39,0-2.51-1.12-2.51-2.51c0-1.39,1.12-2.51,2.51-2.51
				C665.68,260.25,666.81,261.38,666.81,262.76z"/>
			<circle class="st3" cx="484.38" cy="179.65" r="2.51"/>
			<path class="st3" d="M585.66,116.47c0,1.39-1.12,2.51-2.51,2.51c-1.39,0-2.51-1.12-2.51-2.51s1.12-2.51,2.51-2.51
				C584.53,113.96,585.66,115.09,585.66,116.47z"/>
			<path class="st3" d="M580.31,300.42c0,1.39-1.12,2.51-2.51,2.51c-1.39,0-2.51-1.12-2.51-2.51c0-1.39,1.12-2.51,2.51-2.51
				C579.19,297.91,580.31,299.03,580.31,300.42z"/>
			<path class="st3" d="M190.6,324.46c0,1.39-1.12,2.51-2.51,2.51s-2.51-1.12-2.51-2.51c0-1.39,1.12-2.51,2.51-2.51
				S190.6,323.07,190.6,324.46z"/>
			<path class="st3" d="M198.13,209.75c0,1.39-1.12,2.51-2.51,2.51s-2.51-1.12-2.51-2.51c0-1.39,1.12-2.51,2.51-2.51
				S198.13,208.36,198.13,209.75z"/>
		</g>
		<path class="st4" d="M682.25,226.84h-3.36c-0.6,0-1.09-0.49-1.09-1.09v-3.36c0-0.6,0.49-1.09,1.09-1.09h3.36
			c0.6,0,1.09,0.49,1.09,1.09v3.36C683.35,226.35,682.86,226.84,682.25,226.84z"/>
		<path class="st4" d="M165.13,342.43h-3.36c-0.6,0-1.09-0.49-1.09-1.09v-3.36c0-0.6,0.49-1.09,1.09-1.09h3.36
			c0.6,0,1.09,0.49,1.09,1.09v3.36C166.22,341.94,165.73,342.43,165.13,342.43z"/>
		<path class="st4" d="M159.28,137.88h-3.36c-0.6,0-1.09-0.49-1.09-1.09v-3.36c0-0.6,0.49-1.09,1.09-1.09h3.36
			c0.6,0,1.09,0.49,1.09,1.09v3.36C160.38,137.39,159.89,137.88,159.28,137.88z"/>
		<path class="st4" d="M590.95,98.18h-6.46c-1.16,0-2.1-0.94-2.1-2.1v-6.46c0-1.16,0.94-2.1,2.1-2.1h6.46c1.16,0,2.1,0.94,2.1,2.1
			v6.46C593.05,97.24,592.11,98.18,590.95,98.18z"/>
		<path class="st4" d="M530.7,259.15h-3.36c-0.6,0-1.09-0.49-1.09-1.09v-3.36c0-0.6,0.49-1.09,1.09-1.09h3.36
			c0.6,0,1.09,0.49,1.09,1.09v3.36C531.79,258.66,531.3,259.15,530.7,259.15z"/>
		<path class="st2" d="M454.17,219.31c0.03-0.48,0.07-0.99,0.14-1.53c0.56-4.46,4.05-4.05,6.23-3.91c2.17,0.14,4.87,0.21,5.91-1.87
			c0.45-0.9,0.43-1.99,0.73-2.96c0.66-2.16,2.86-3.46,4.96-3.46c2.1,0,4.08,1.05,5.8,2.35c5.58,4.23,7.18-6.9,9.83-10.12
			c3.01-3.67,8.61-5.72,12.41-3.06c3.8,2.66,5.99,7.4,6.98,12.19c0.32,1.56,0.44,3.46,1.7,4.32c3.69,2.52,8.44-2.37,12.9,1.43
			c1.56,1.33,1.86,4.54,1.66,6.63H454.17z"/>
	</g>
	<g>
		<g>
			<path class="st5" d="M178.71,447.91c-12.54-18.91-38.79-66.7-16.04-83.14c12.49-9.03,29.05-0.81,37.06,19.1
				c7.6,18.91,10.51,41.25,13.68,63.77"/>
			<g>
				<path class="st6" d="M178.97,447.75c-2.79-4.26-5.43-8.64-7.92-13.08c-3.04-5.43-5.87-11-8.37-16.7
					c-2.58-5.87-4.84-11.9-6.45-18.11c-1.44-5.57-2.41-11.37-2.08-17.14c0.28-4.94,1.65-9.94,4.77-13.86
					c3.34-4.2,8.43-7.08,13.84-7.33c5.87-0.26,11.4,2.46,15.7,6.29c5.73,5.11,9.33,11.95,11.97,19.06
					c3.12,8.41,5.3,17.15,7.05,25.94c1.85,9.27,3.21,18.62,4.53,27.97c0.33,2.32,0.65,4.64,0.98,6.96c0.08,0.54,0.89,0.31,0.81-0.22
					c-1.35-9.62-2.66-19.25-4.36-28.81c-1.62-9.13-3.6-18.22-6.46-27.04c-2.49-7.67-5.54-15.24-10.92-21.38
					c-4.01-4.58-9.36-8.38-15.48-9.34c-5.6-0.88-11.15,0.87-15.46,4.51c-3.85,3.25-6.22,7.81-7.2,12.71
					c-1.09,5.49-0.65,11.2,0.37,16.67c1.18,6.3,3.19,12.44,5.56,18.38c2.4,6.02,5.2,11.87,8.25,17.58
					c2.64,4.94,5.46,9.78,8.49,14.49c0.6,0.93,1.2,1.85,1.82,2.77C178.66,448.39,179.19,448.09,178.97,447.75L178.97,447.75z"/>
			</g>
		</g>
		<line class="st3" x1="169.12" y1="361.93" x2="198.68" y2="447.97"/>
		<g>
			<path class="st5" d="M128.44,447.92c-10.82-13.99-34.46-49.34-14.83-61.5c10.78-6.68,24.06-0.6,30.97,14.13
				c6.56,13.99,9.07,30.52,11.8,47.17"/>
			<g>
				<path class="st6" d="M128.71,447.77c-5.22-6.86-10.07-14.05-14.14-21.65c-2.28-4.24-4.33-8.63-5.86-13.2
					c-1.35-4.04-2.34-8.29-2.25-12.57c0.08-3.7,1.1-7.41,3.51-10.3c2.78-3.33,7.06-5.48,11.37-5.87c4.74-0.42,9.35,1.28,13.12,4.08
					c4.61,3.42,7.87,8.31,10.21,13.48c5.8,12.83,8.16,26.95,10.44,40.75c0.29,1.78,0.58,3.56,0.88,5.34
					c0.09,0.53,0.9,0.31,0.81-0.22c-2.35-14.31-4.44-28.93-9.79-42.5c-2.25-5.71-5.09-11.22-9.61-15.47
					c-3.55-3.34-8.04-5.8-12.95-6.25c-4.6-0.42-9.23,1.09-12.82,3.96c-3.01,2.41-4.92,5.82-5.6,9.6c-0.73,4.07-0.2,8.28,0.8,12.25
					c1.17,4.68,3.03,9.18,5.15,13.51c4.05,8.28,9.15,16.12,14.73,23.45c0.5,0.66,1.01,1.32,1.53,1.98
					C128.44,448.41,128.92,448.05,128.71,447.77L128.71,447.77z"/>
			</g>
		</g>
		<line class="st3" x1="119.17" y1="384.32" x2="144.67" y2="447.97"/>
		<path class="st3" d="M254.92,447.73c-29.63-53.76-48.78-107.05-24.86-132.37c23.69-25.09,48.48,4.64,54.51,30.98
			c7.39,32.26,8.46,67.19,8.31,101.39"/>
		<line class="st7" x1="238.83" y1="308.82" x2="274.43" y2="447.65"/>
		<g>
			<path class="st5" d="M210.45,447.89c-11.77-28.44-38.25-85.96-19.58-103.75c11.94-11.37,33.51,2.57,44.6,27.42
				c10.54,23.6,13.7,47.89,20.02,75.99"/>
			<g>
				<path class="st6" d="M210.75,447.81c-2.63-6.44-5.37-12.84-8-19.28c-3.08-7.54-6.05-15.13-8.73-22.82
					c-2.67-7.66-5.09-15.44-6.85-23.36c-1.52-6.83-2.63-13.87-2.34-20.89c0.23-5.38,1.35-11.1,4.81-15.4
					c1.76-2.18,4.05-3.93,6.72-4.82c2.74-0.91,5.69-0.89,8.48-0.26c7.21,1.63,13.39,6.68,18.24,12.03
					c6.57,7.25,11.06,15.9,14.61,24.95c3.77,9.6,6.53,19.56,8.86,29.6c2.45,10.56,4.48,21.2,6.72,31.8c0.59,2.77,1.19,5.53,1.81,8.3
					c0.12,0.53,0.93,0.31,0.81-0.22c-2.48-11.03-4.58-22.13-6.97-33.17c-2.22-10.29-4.73-20.53-8.18-30.48
					c-3.3-9.52-7.32-18.89-13.44-26.97c-4.74-6.26-10.75-12.13-18.07-15.24c-5.5-2.33-11.93-2.76-16.97,0.89
					c-4.45,3.22-6.76,8.43-7.67,13.72c-1.13,6.55-0.53,13.34,0.56,19.85c1.32,7.93,3.48,15.71,5.94,23.36
					c2.57,7.96,5.52,15.8,8.63,23.56c2.78,6.95,5.7,13.85,8.63,20.74c0.6,1.42,1.21,2.84,1.81,4.27
					C210.3,448.34,210.9,448.18,210.75,447.81L210.75,447.81z"/>
			</g>
		</g>
		<g>
			<path class="st5" d="M440.13,447.73c-9.99-114.45,14.32-156.26,40.92-158.13c12.6-0.89,49.5,6.37,4.95,158.06"/>
			<g>
				<path class="st6" d="M440.33,447.73c-0.8-12.11-1.69-24.19-2-36.33c-0.26-10.32-0.22-20.65,0.28-30.96
					c0.42-8.69,1.16-17.37,2.39-25.98c1.01-7.09,2.36-14.14,4.21-21.07c1.51-5.66,3.36-11.25,5.74-16.6
					c1.92-4.32,4.2-8.51,6.99-12.34c2.27-3.13,4.91-6.02,7.95-8.41c2.59-2.03,5.49-3.68,8.6-4.74c2.4-0.82,4.92-1.29,7.45-1.38
					c1.26-0.04,2.68,0.03,3.82,0.2c1.52,0.23,3.01,0.63,4.43,1.2c1.54,0.63,3.17,1.58,4.51,2.65c1.67,1.33,3.12,2.92,4.35,4.67
					c1.56,2.21,2.78,4.66,3.75,7.18c1.27,3.3,2.13,6.74,2.75,10.21c0.81,4.53,1.2,9.12,1.36,13.71c0.2,5.9,0.01,11.82-0.42,17.71
					c-0.54,7.46-1.45,14.89-2.59,22.27c-1.41,9.12-3.17,18.19-5.15,27.2c-2.4,10.96-5.14,21.85-8.08,32.68
					c-1.63,5.99-3.22,12.01-4.97,17.97c-0.11,0.37,0.47,0.53,0.58,0.16c1.82-6.2,3.68-12.37,5.37-18.61
					c1.55-5.73,3.04-11.48,4.45-17.25c2.44-9.96,4.66-19.97,6.53-30.05c1.51-8.14,2.8-16.33,3.73-24.56
					c0.74-6.6,1.26-13.24,1.38-19.88c0.1-5.22-0.05-10.46-0.61-15.66c-0.43-4.01-1.1-8-2.2-11.88c-0.84-2.97-1.93-5.89-3.39-8.61
					c-1.15-2.13-2.54-4.15-4.22-5.89c-1.36-1.42-2.93-2.67-4.64-3.64c-1.46-0.83-3.03-1.46-4.65-1.89c-1.4-0.36-2.85-0.57-4.29-0.64
					c-1.68-0.08-3.37,0.04-5.04,0.3c-3.15,0.5-6.2,1.58-8.99,3.12c-3.13,1.73-5.94,4.02-8.4,6.6c-2.97,3.13-5.47,6.69-7.6,10.43
					c-2.63,4.61-4.72,9.52-6.46,14.53c-2.15,6.16-3.77,12.5-5.04,18.9c-1.56,7.8-2.61,15.69-3.34,23.6
					c-0.87,9.5-1.27,19.05-1.35,28.59c-0.09,11.35,0.27,22.71,0.95,34.04c0.37,6.15,0.8,12.3,1.46,18.42
					C439.96,447.98,440.34,447.99,440.33,447.73L440.33,447.73z"/>
			</g>
		</g>
		<line class="st3" x1="486.23" y1="289.87" x2="462.74" y2="447.66"/>
		<g>
			<path class="st5" d="M518.75,447.74c8.15-68.02,35.59-107.23,60.38-96.59c20.28,8.7,9.82,46.57-21.78,96.54"/>
			<g>
				<path class="st6" d="M518.94,447.79c0.87-5.71,1.64-11.44,2.68-17.13c0.96-5.28,2.08-10.54,3.38-15.75
					c2.29-9.17,5.12-18.23,8.79-26.95c2.98-7.1,6.51-14.03,10.94-20.35c3.42-4.88,7.45-9.51,12.36-12.95
					c3.85-2.7,8.32-4.65,13.07-4.84c4.42-0.17,9.18,1.14,12.64,3.95c3.7,3,5.53,7.53,6.11,12.16c0.8,6.39-0.31,12.94-1.88,19.13
					c-2.19,8.61-5.52,16.92-9.24,24.98c-4.71,10.19-10.17,20.02-15.94,29.64c-1.57,2.63-3.17,5.24-4.74,7.87
					c-0.2,0.34,0.31,0.62,0.52,0.3c3.5-5.24,6.72-10.67,9.84-16.15c2.8-4.92,5.48-9.91,8-14.99c4.23-8.52,8.08-17.3,10.89-26.4
					c2.06-6.69,3.69-13.73,3.57-20.76c-0.08-4.98-1.15-10.17-4.38-14.11c-2.93-3.59-7.45-5.62-11.98-6.21
					c-4.62-0.61-9.25,0.49-13.35,2.64c-5.03,2.63-9.25,6.66-12.83,11.01c-4.65,5.66-8.37,12.05-11.51,18.65
					c-3.92,8.23-6.99,16.85-9.49,25.61c-3.01,10.53-5.2,21.28-6.8,32.11c-0.42,2.82-0.78,5.65-1.03,8.5
					C518.53,447.96,518.9,448.01,518.94,447.79L518.94,447.79z"/>
			</g>
		</g>
		<line class="st3" x1="579.13" y1="351.16" x2="538.56" y2="447.7"/>
		<line class="st3" x1="197.33" y1="340.61" x2="233.56" y2="447.97"/>
		<g>
			<path class="st5" d="M521.77,447.87c16.02-33.97,48.34-111.53,24-139.03c-13.36-15.1-37.82,3.44-50.79,36.74
				c-12.32,31.62-21.54,64.18-29.18,101.84"/>
			<g>
				<path class="st6" d="M522.04,448.02c3.74-7.86,7.28-15.8,10.62-23.84c4.05-9.74,7.81-19.61,11.12-29.63
					c3.38-10.24,6.34-20.64,8.42-31.22c1.86-9.45,3.11-19.15,2.65-28.8c-0.37-7.77-1.9-15.84-6.17-22.48c-1.93-3-4.4-5.8-7.64-7.41
					c-3.09-1.53-6.57-1.83-9.93-1.17c-3.99,0.78-7.69,2.78-10.96,5.15c-4.08,2.97-7.64,6.63-10.79,10.56
					c-3.82,4.76-7.08,9.96-9.88,15.38c-3.11,6.02-5.51,12.35-7.87,18.7c-4.88,13.14-9.24,26.47-13.11,39.94
					c-4.09,14.22-7.64,28.59-10.78,43.05c-0.8,3.68-1.57,7.38-2.32,11.07c-0.11,0.53,0.71,0.76,0.81,0.22
					c2.96-14.57,6.29-29.07,10.14-43.44c3.61-13.47,7.67-26.81,12.25-39.98c2.25-6.48,4.6-12.94,7.14-19.31
					c2.41-6.04,5.32-11.89,8.78-17.39c2.98-4.72,6.38-9.21,10.33-13.16c3.23-3.23,6.87-6.16,11-8.15c3.22-1.55,6.84-2.52,10.43-2.08
					c3.49,0.42,6.58,2.24,8.94,4.8c5.14,5.57,7.49,13.19,8.41,20.57c1.14,9.12,0.37,18.44-1.06,27.48
					c-1.65,10.4-4.28,20.64-7.37,30.71c-3.1,10.1-6.68,20.04-10.58,29.86c-3.38,8.52-7.02,16.94-10.81,25.28
					c-0.76,1.67-1.53,3.34-2.31,5C521.34,448.07,521.87,448.38,522.04,448.02L522.04,448.02z"/>
			</g>
		</g>
		<line class="st3" x1="538.56" y1="304.1" x2="495.71" y2="447.97"/>
		<g>
			<path class="st5" d="M550.06,447.74c21.12-42.82,39.46-54.15,56.68-50.73c13.39,2.66,15.48,22.44-12.82,50.7"/>
			<g>
				<path class="st6" d="M550.23,447.84c1.96-3.51,3.73-7.12,5.68-10.64c1.72-3.11,3.52-6.17,5.41-9.18
					c3.19-5.07,6.66-10,10.57-14.54c3.04-3.53,6.37-6.87,10.11-9.66c2.97-2.22,6.22-4.12,9.73-5.36c3.02-1.07,6.2-1.65,9.41-1.63
					c2.87,0.01,6.03,0.31,8.63,1.61c2.37,1.18,4.19,3.19,5.14,5.66c1.18,3.08,1.09,6.5,0.47,9.69c-0.92,4.67-2.95,9.08-5.34,13.17
					c-3.41,5.85-7.69,11.14-12.24,16.13c-1.35,1.48-2.74,2.94-4.1,4.42c-0.26,0.29,0.14,0.69,0.43,0.43
					c2.95-2.72,5.66-5.71,8.23-8.8c2.17-2.61,4.23-5.32,6.11-8.15c2.91-4.38,5.48-9.11,6.98-14.18c1.03-3.48,1.56-7.24,0.82-10.83
					c-0.56-2.74-1.97-5.27-4.19-7c-2.37-1.84-5.28-2.47-8.2-2.77c-3.21-0.32-6.46-0.09-9.58,0.69c-3.5,0.87-6.82,2.41-9.86,4.34
					c-3.76,2.38-7.13,5.35-10.2,8.56c-3.93,4.11-7.39,8.67-10.57,13.38c-4.09,6.05-7.72,12.41-11.08,18.89
					c-0.95,1.84-1.89,3.68-2.71,5.59C549.8,447.87,550.1,448.07,550.23,447.84L550.23,447.84z"/>
			</g>
		</g>
		<line class="st3" x1="605.08" y1="397.3" x2="572.81" y2="447.71"/>
	</g>
	<g>
		<path class="st8" d="M462.75,448.02h-175.5c-5.43,0-9.83-4.4-9.83-9.83V107.72c0-5.43,4.4-9.83,9.83-9.83h175.5
			c5.43,0,9.83,4.4,9.83,9.83v330.47C472.58,443.62,468.18,448.02,462.75,448.02z"/>
		<g>
			<path class="st9" d="M383.92,431.96c0,4.92-3.99,8.92-8.92,8.92c-4.92,0-8.92-3.99-8.92-8.92c0-4.92,3.99-8.92,8.92-8.92
				C379.92,423.04,383.92,427.03,383.92,431.96z"/>
		</g>
		<g>
			<defs>
				<path id="SVGID_1_" d="M462.75,448.02h-175.5c-5.43,0-9.83-4.4-9.83-9.83V107.72c0-5.43,4.4-9.83,9.83-9.83h175.5
					c5.43,0,9.83,4.4,9.83,9.83v330.47C472.58,443.62,468.18,448.02,462.75,448.02z"/>
			</defs>
			<clipPath id="SVGID_2_">
				<use xlink:href="#SVGID_1_"  style="overflow:visible;"/>
			</clipPath>
			<g class="st10">
				<linearGradient id="SVGID_3_" gradientUnits="userSpaceOnUse" x1="223.0817" y1="404.7483" x2="515.7789" y2="112.051">
					<stop  offset="0.2704" style="stop-color:#FFFFFF;stop-opacity:0.1"/>
					<stop  offset="1" style="stop-color:#FFFFFF;stop-opacity:0.3"/>
				</linearGradient>
				<polygon class="st11" points="421.23,59.95 275.18,456.85 317.63,456.85 463.68,59.95 				"/>
				<linearGradient id="SVGID_4_" gradientUnits="userSpaceOnUse" x1="272.5466" y1="398.635" x2="553.0172" y2="118.1644">
					<stop  offset="0.2704" style="stop-color:#FFFFFF;stop-opacity:0.1"/>
					<stop  offset="1" style="stop-color:#FFFFFF;stop-opacity:0.3"/>
				</linearGradient>
				<polygon class="st12" points="476.81,59.95 330.76,456.85 348.76,456.85 494.81,59.95 				"/>
			</g>
		</g>
		<rect x="278.97" y="130.5" class="st5" width="192.05" height="284.91"/>
		<g>
			<path class="st9" d="M364.02,112.41h27.05c0.6,0,1.08,0.48,1.08,1.08l0,0c0,0.6-0.48,1.08-1.08,1.08h-27.05
				c-0.6,0-1.08-0.48-1.08-1.08l0,0C362.94,112.9,363.42,112.41,364.02,112.41z"/>
			<circle class="st9" cx="357.97" cy="113.5" r="1.12"/>
		</g>
		<g>
			<g>
				<rect x="292.1" y="240.83" class="st13" width="82.9" height="83.78"/>
				<g>
					
						<ellipse transform="matrix(0.1593 -0.9872 0.9872 0.1593 13.182 556.8387)" class="st14" cx="333.55" cy="270.68" rx="17.16" ry="17.16"/>
					<ellipse class="st14" cx="333.55" cy="270.68" rx="11.82" ry="17.16"/>
					<ellipse class="st14" cx="333.55" cy="270.68" rx="4.61" ry="17.16"/>
					<line class="st14" x1="316.38" y1="270.68" x2="350.71" y2="270.68"/>
					<path class="st14" d="M318.18,278.33c3.28-1.1,8.94-1.82,15.37-1.82c6.43,0,12.08,0.72,15.36,1.82"/>
					<path class="st14" d="M323.16,284.34c2.95-1.12,6.53-1.78,10.39-1.78c3.8,0,7.34,0.64,10.27,1.73"/>
					<path class="st14" d="M318.18,263.12c3.28,1.1,8.94,1.82,15.37,1.82c6.43,0,12.08-0.72,15.36-1.82"/>
					<path class="st14" d="M323.16,257.11c2.95,1.12,6.53,1.78,10.39,1.78c3.8,0,7.34-0.64,10.27-1.73"/>
				</g>
				<g>
					
						<rect x="299.15" y="305.2" transform="matrix(-1 -1.224647e-16 1.224647e-16 -1 667.0956 614.8291)" class="st15" width="68.8" height="4.43"/>
					
						<rect x="326.83" y="296.96" transform="matrix(-1 -1.224647e-16 1.224647e-16 -1 694.779 598.3505)" class="st15" width="41.12" height="4.43"/>
					<rect x="299.15" y="296.96" class="st15" width="23.01" height="4.43"/>
					
						<rect x="299.15" y="313.44" transform="matrix(-1 -1.224647e-16 1.224647e-16 -1 667.0956 631.3079)" class="st15" width="68.8" height="4.43"/>
				</g>
			</g>
			<g>
				<rect x="374.91" y="240.83" class="st16" width="82.9" height="83.78"/>
				<g>
					
						<rect x="381.97" y="255.76" transform="matrix(-1 -1.224647e-16 1.224647e-16 -1 832.7321 515.9571)" class="st15" width="68.8" height="4.43"/>
					
						<rect x="381.97" y="264" transform="matrix(-1 -1.224647e-16 1.224647e-16 -1 832.7321 532.4357)" class="st15" width="68.8" height="4.43"/>
					
						<rect x="381.97" y="272.24" transform="matrix(-1 -1.224647e-16 1.224647e-16 -1 785.3563 548.9144)" class="st15" width="21.42" height="4.43"/>
					
						<rect x="409.12" y="272.24" transform="matrix(-1 -1.224647e-16 1.224647e-16 -1 859.7919 548.9144)" class="st15" width="41.55" height="4.43"/>
					
						<rect x="381.97" y="280.48" transform="matrix(-1 -1.224647e-16 1.224647e-16 -1 832.7321 565.393)" class="st15" width="68.8" height="4.43"/>
					
						<rect x="381.97" y="288.72" transform="matrix(-1 -1.224647e-16 1.224647e-16 -1 832.7321 581.8719)" class="st15" width="68.8" height="4.43"/>
					
						<rect x="381.97" y="296.96" transform="matrix(-1 -1.224647e-16 1.224647e-16 -1 832.7321 598.3505)" class="st15" width="68.8" height="4.43"/>
					
						<rect x="430.9" y="305.2" transform="matrix(-1 -1.224647e-16 1.224647e-16 -1 881.6655 614.8291)" class="st15" width="19.87" height="4.43"/>
					
						<rect x="381.97" y="305.2" transform="matrix(-1 -1.224647e-16 1.224647e-16 -1 808.1227 614.8291)" class="st15" width="44.19" height="4.43"/>
					
						<rect x="381.97" y="313.44" transform="matrix(-1 -1.224647e-16 1.224647e-16 -1 832.7321 631.3079)" class="st15" width="68.8" height="4.43"/>
					
						<rect x="432.54" y="247.52" transform="matrix(-1 -1.224647e-16 1.224647e-16 -1 883.3098 499.4783)" class="st15" width="18.22" height="4.43"/>
					<rect x="381.97" y="247.52" class="st15" width="45.91" height="4.43"/>
				</g>
			</g>
			<g>
				<rect x="292.1" y="324.61" class="st16" width="82.9" height="83.78"/>
				<g>
					<rect x="299.15" y="389" class="st15" width="68.8" height="4.43"/>
					<rect x="299.15" y="380.76" class="st15" width="68.8" height="4.43"/>
					<rect x="350.25" y="372.52" class="st15" width="17.69" height="4.43"/>
					<rect x="299.24" y="372.52" class="st15" width="45.28" height="4.43"/>
					<rect x="299.15" y="364.28" class="st15" width="68.8" height="4.43"/>
					<rect x="299.15" y="356.04" class="st15" width="68.8" height="4.43"/>
					<rect x="299.15" y="347.8" class="st15" width="68.8" height="4.43"/>
					<rect x="299.15" y="339.56" class="st15" width="31.97" height="4.43"/>
					<rect x="335.86" y="339.56" class="st15" width="32.09" height="4.43"/>
					<rect x="299.15" y="331.32" class="st15" width="68.8" height="4.43"/>
					<rect x="299.15" y="397.24" class="st15" width="32.06" height="4.43"/>
					
						<rect x="335.88" y="397.24" transform="matrix(-1 -1.224647e-16 1.224647e-16 -1 703.8315 798.9047)" class="st15" width="32.06" height="4.43"/>
				</g>
			</g>
			<g>
				<rect x="374.91" y="324.61" class="st13" width="82.9" height="83.78"/>
				<g>
					<g>
						<polygon class="st17" points="433.23,382.27 399.97,381.87 396.25,357.97 436.44,357.9 						"/>
						<polygon class="st17" points="436.44,357.9 396.25,357.97 416.31,341.42 						"/>
						
							<rect x="402.35" y="355.58" transform="matrix(1 -1.760907e-03 1.760907e-03 1 -0.6459 0.7332)" class="st5" width="27.43" height="23.17"/>
						<polygon class="st15" points="396.25,357.97 396.29,384.1 416.37,371.92 						"/>
						<polygon class="st15" points="436.44,357.9 436.48,384.03 416.37,371.92 						"/>
						<polygon class="st15" points="436.48,384.03 396.29,384.1 416.36,367.55 						"/>
						<polyline class="st18" points="396.29,384.1 416.36,367.55 436.48,384.03 						"/>
						<line class="st18" x1="419.25" y1="369.91" x2="436.44" y2="357.9"/>
					</g>
					<line class="st18" x1="413.48" y1="369.92" x2="396.25" y2="357.97"/>
				</g>
				
					<rect x="400.33" y="394.09" transform="matrix(-1 -1.224647e-16 1.224647e-16 -1 832.7321 792.6044)" class="st15" width="32.06" height="4.43"/>
			</g>
			<g>
				<rect x="292.1" y="149.81" class="st13" width="165.81" height="83.59"/>
				<g>
					
						<rect x="372.66" y="161.83" transform="matrix(-1 -1.224647e-16 1.224647e-16 -1 823.4302 329.4465)" class="st16" width="78.1" height="5.78"/>
					
						<rect x="372.66" y="172.59" transform="matrix(-1 -1.224647e-16 1.224647e-16 -1 823.4302 350.9529)" class="st16" width="78.1" height="5.78"/>
					
						<rect x="372.66" y="183.34" transform="matrix(-1 -1.224647e-16 1.224647e-16 -1 823.4302 372.4596)" class="st16" width="78.1" height="5.78"/>
					
						<rect x="372.66" y="194.09" transform="matrix(-1 -1.224647e-16 1.224647e-16 -1 823.4302 393.966)" class="st16" width="78.1" height="5.78"/>
					
						<rect x="372.66" y="215.6" transform="matrix(-1 -1.224647e-16 1.224647e-16 -1 823.4302 436.9792)" class="st16" width="78.1" height="5.78"/>
					
						<rect x="404.09" y="204.84" transform="matrix(-1 -1.224647e-16 1.224647e-16 -1 854.8566 415.4726)" class="st16" width="46.68" height="5.78"/>
					<rect x="372.66" y="204.84" class="st16" width="26.12" height="5.78"/>
				</g>
				<g>
					<rect x="301.6" y="162.07" class="st16" width="59.08" height="59.08"/>
					<polygon class="st5" points="336.62,180.54 354.6,211.28 318.64,211.28 					"/>
					<polygon class="st5" points="318.4,190.64 322.24,198.04 315.36,211.28 307.68,211.28 					"/>
					<path class="st5" d="M309.2,178.76c0,1.84,1.49,3.33,3.33,3.33c1.84,0,3.33-1.49,3.33-3.33c0-1.84-1.49-3.33-3.33-3.33
						C310.69,175.43,309.2,176.92,309.2,178.76z"/>
				</g>
			</g>
			<path class="st19" d="M328.24,142.98h93.52c1.47,0,2.66-1.19,2.66-2.66l0,0c0-1.47-1.19-2.66-2.66-2.66h-93.52
				c-1.47,0-2.66,1.19-2.66,2.66l0,0C325.58,141.78,326.77,142.98,328.24,142.98z"/>
			<line class="st14" x1="375" y1="240.83" x2="375" y2="408.38"/>
			<line class="st14" x1="292.1" y1="324.61" x2="457.9" y2="324.61"/>
		</g>
	</g>
	<line class="st3" x1="96.23" y1="448.02" x2="653.77" y2="448.02"/>
	<g>
		<g>
			<g>
				<g>
					<path class="st20" d="M623.05,420.18l1.74,28.54l-0.93,8.98l-34.03-0.18c-0.86,0-1.55-0.7-1.55-1.56l0,0
						c0-0.64,0.4-1.22,1-1.45l15.18-6.98l-3.43-29.7"/>
					<path class="st21" d="M586.74,457.14c0.36-1.13,1.02-2.39,1.69-2.68l16.1-6.93c8.87,3.6,20.36,0.85,20.36,0.85l0.88,12.12
						c0,0.4-0.33,0.72-0.73,0.72l-38.02-0.2C586.23,461.01,586.73,457.18,586.74,457.14z"/>
					<path class="st22" d="M601.04,448.22c0.9,1.18,1.66,2.46,2.27,3.81"/>
					<path class="st22" d="M599.02,449.44c0.93,1.29,1.31,2.04,1.87,3.24"/>
					<path class="st22" d="M597.3,450.32c0.63,0.85,1.26,2.03,1.75,2.97"/>
				</g>
				<line class="st22" x1="625.55" y1="458.6" x2="586.58" y2="458.4"/>
				<path class="st22" d="M625.2,452.8c0,0-9.03,0.06-9.84,5.74"/>
				<path class="st22" d="M591.73,453.04c0,0,2.6,3.7,3.11,5.4"/>
			</g>
			<path class="st21" d="M596.32,310.5c0,0-4.89,40.17-3.02,69.34c1.87,29.17,4.57,63.02,4.57,63.02h29.58
				c0,0-3.83-50.09-3.41-73.53c0.47-25.98,8.41-58.82,8.41-58.82"/>
			<path class="st23" d="M621.45,442.85c0,0-3.83-50.09-3.41-73.53c0.47-25.98,8.41-58.82,8.41-58.82"/>
			<g>
				<g>
					<path class="st20" d="M661.91,381.96l27.43,8.82l8.28,3.6l-10.46,32.38c-0.26,0.82-1.14,1.27-1.96,1l0,0
						c-0.61-0.2-1.04-0.75-1.08-1.4l-2.06-16.58l-28.48-9.26"/>
					<path class="st21" d="M685.86,429.59c-0.97-0.68-1.97-1.7-2.04-2.42l-1.74-17.44c6.11-7.37,6.96-19.15,6.96-19.15l11.82,2.83
						c0.38,0.12,0.59,0.53,0.47,0.91l-11.69,36.18C689.4,431.26,685.9,429.61,685.86,429.59z"/>
					<path class="st22" d="M681.69,413.26c1.39-0.5,2.85-0.84,4.32-1.01"/>
					<path class="st22" d="M682.23,415.56c1.52-0.5,2.34-0.63,3.65-0.8"/>
					<path class="st22" d="M682.56,417.46c1-0.35,2.32-0.58,3.36-0.77"/>
				</g>
				<line class="st22" x1="699" y1="393.04" x2="687.01" y2="430.13"/>
				<path class="st22" d="M693.36,391.62c0,0-2.67,8.62,2.5,11.11"/>
				<path class="st22" d="M683.46,423.6c0,0,4.31-1.36,6.09-1.33"/>
			</g>
			<path class="st21" d="M644.47,311.79c0,0,2.66,11.42,2.66,16.32c0,3.6-1.43,6.05-2.19,8.68c-0.33,1.13-0.51,2.28-0.56,3.45
				c-0.23,5.25-0.53,19.99,2.76,27c4.04,8.61,37.68,20.04,37.68,20.04l-8.53,25.69c0,0-51.5-12.94-57.92-28.7
				c-8.96-21.99-6.4-72.47-6.4-72.47"/>
			<path class="st23" d="M624.58,391.62c-2.97-2.35-5.18-4.82-6.21-7.36c-8.96-21.99-6.4-72.47-6.4-72.47"/>
			<path class="st23" d="M640.11,310.84c0,0,3.02,14.37,3.02,19.27c0,3.67-1.49,6.25-2.23,8.83c-0.3,1.04-0.48,2.11-0.55,3.2
				c-0.32,5.19-0.89,20.22,2.79,27.11c5.09,9.54,40.33,22.1,40.33,22.1"/>
			<path class="st23" d="M607.76,314.6c0,0-0.45,10.37,1,11.61c1.45,1.24,2.86,2.07,2.86,2.07"/>
			<line class="st23" x1="680.57" y1="385.76" x2="671.18" y2="411.58"/>
			<line class="st23" x1="597.47" y1="437.77" x2="627.07" y2="437.77"/>
			<path class="st23" d="M632,312.59c0,0,1.84,6.62,10.06,8.57"/>
			<path class="st23" d="M595.37,320c0,0,7.42-2.17,9.7-7.41"/>
		</g>
		<g>
			<path class="st24" d="M613.26,232.48l-1.33,9.31c0,0-0.12,2.58,4.9,4.37c6.07,2.18,9.76-2.5,9.76-2.5l-0.4-9.42"/>
			<path class="st24" d="M612.52,220.14c0,0-6.45,10.78-1.97,15.09c4.06,3.91,12.99,1.46,13.81,0.09c0.81-1.37,5.9-13.41,3.12-15.07
				C622.53,217.31,615.28,215.5,612.52,220.14z"/>
			<path class="st25" d="M612.59,237.24c0,0,4.37,1.4,8.41-0.36"/>
			<g>
				<path class="st26" d="M611.44,213.14c0.85-6.37,8.57-1.6,11.71,1.3c0.94,0.87,6.45,2.49,7.35,3.41c0.9,0.92,1.62,2.05,1.86,3.32
					c0.21,1.11,0.03,2.25-0.24,3.34c-0.48,1.97-1.26,3.85-2.03,5.72c-0.84,2.04-2.35,6.1-5.26,5.68c-0.56-0.08-1.18-0.19-1.55-0.62
					c-0.37-0.43-0.38-1.05-0.32-1.61c0.1-0.91,0.38-1.8,0.8-2.61c-0.6,0.16-1.22,0.53-1.8,0.3c-0.19-0.08-0.28-0.26-0.39-0.44
					c-0.38-0.62,0.08-4.74,2-6.36c-2.77-1.31-4.94-1.43-7.76-2.62c-2.27-0.96-3.25-2.12-4.06-3.21
					C610.58,217.17,611.19,215.06,611.44,213.14z"/>
			</g>
			<g>
				<path class="st24" d="M623.08,230.69c0.71-0.99,1.79-2.13,2.83-1.09c0.37,0.37,0.47,0.98,0.51,1.57
					c0.13,1.94-1.84,4.42-3.55,3.74c-0.84-0.33-1.07-1.47-1.22-2.41"/>
			</g>
			<path class="st27" d="M613.95,224.9c0,0-2.79,2.74-2.79,3.67c0,0.93,2.09,1.51,2.09,1.51"/>
			<path class="st5" d="M610.1,230.41l5,1.87c0,0-1.16,2.96-4.16,1.6C608.8,232.91,610.1,230.41,610.1,230.41z"/>
			<g>
				<g>
					<path class="st28" d="M611.83,223.37c-0.04,0.05-0.08,0.11-0.11,0.16c-0.04,0.06-0.07,0.12-0.11,0.17
						c-0.07,0.11-0.14,0.22-0.2,0.34c-0.05,0.1-0.07,0.2-0.04,0.3c0.03,0.09,0.1,0.19,0.18,0.24c0.09,0.05,0.2,0.07,0.3,0.04
						c0.1-0.03,0.18-0.09,0.24-0.18c0.07-0.12,0.12-0.24,0.18-0.37c0.07-0.15,0.13-0.29,0.19-0.45c0.03-0.08,0.01-0.2-0.03-0.26
						c-0.04-0.06-0.09-0.11-0.16-0.14c-0.07-0.03-0.15-0.04-0.22-0.02c-0.03,0.01-0.05,0.02-0.08,0.03
						C611.9,223.28,611.86,223.32,611.83,223.37L611.83,223.37z"/>
				</g>
			</g>
			<path class="st29" d="M613.98,222.42c0,0-0.62-1.39-2.11-0.74"/>
			<g>
				<g>
					<path class="st28" d="M618.07,226.37c-0.04,0.06-0.07,0.11-0.1,0.17c-0.03,0.06-0.07,0.12-0.1,0.18
						c-0.03,0.06-0.06,0.12-0.09,0.18c-0.05,0.09-0.08,0.18-0.12,0.27c-0.02,0.05-0.02,0.1-0.01,0.16c0,0.05,0.02,0.1,0.05,0.15
						c0.05,0.07,0.11,0.13,0.19,0.16c0.08,0.03,0.17,0.05,0.26,0.02c0.09-0.03,0.19-0.09,0.24-0.18c0.07-0.15,0.13-0.3,0.19-0.45
						c0.05-0.13,0.09-0.25,0.13-0.38c0.03-0.08,0.01-0.19-0.03-0.26c-0.04-0.06-0.09-0.11-0.16-0.14
						C618.34,226.16,618.16,226.22,618.07,226.37L618.07,226.37z"/>
				</g>
			</g>
			<path class="st29" d="M618.27,224.07c0,0,1.52-0.17,2.62,1.83"/>
		</g>
		<g>
			<g>
				<g>
					<path class="st20" d="M591.64,191.74c-0.41-5.41,0.32-20.72-0.63-21.12c-0.95-0.4-1.34,4.78-2.06,4.31
						c-0.72-0.48-0.66-8.5-1.71-8.65c-1.43-0.2-1.05,8.01-1.05,8.01s-0.86-8.98-2.16-8.8c-0.92,0.13-0.57,7.01-0.77,9.66
						c-0.15-2.9-1-8.29-1.95-8.13c-0.94,0.15-0.76,5.57-0.84,9.17c-0.16-2.25-0.61-7.17-1.49-7.07c-0.88,0.1-1.15,12.89-1.16,23.67"
						/>
				</g>
				<path class="st20" d="M590.28,245.89c0,0-5.81-12.16-9.44-26.33c-3.63-14.18-2.99-32.61-2.99-32.61l13.64,2.3
					c0,0,0.62,25.73,16.15,51.27"/>
				<path class="st30" d="M580.66,176.8c1.12,1.71,2.61,3.72,2.54,7.06"/>
				<path class="st30" d="M588.83,176.15c-1.31,1.17-2.73,4.32-2.05,5.94"/>
			</g>
			<path class="st31" d="M635.54,189.13c1.99-2.34,3.76-4.94,5.21-7.8c1.46-2.86,2.53-5.81,3.25-8.8l-8.08-2.74
				c0.6-2.79,0.81-5.61,0.66-8.39l8.42-1.43c-0.5-6.27-2.48-12.36-5.75-17.73l-7.66,3.78c-1.51-2.34-3.33-4.5-5.46-6.4l4.94-6.96
				c-2.34-1.99-4.94-3.76-7.8-5.21c-2.86-1.46-5.81-2.53-8.8-3.25l-2.74,8.08c-2.79-0.6-5.61-0.81-8.39-0.66l-1.43-8.42
				c-6.27,0.5-12.36,2.48-17.73,5.75l3.78,7.66c-2.34,1.51-4.5,3.33-6.4,5.46l-6.96-4.94c-1.99,2.34-3.76,4.94-5.21,7.8
				c-1.46,2.86-2.53,5.81-3.25,8.8l8.08,2.74c-0.6,2.79-0.81,5.61-0.66,8.39l-8.42,1.43c0.5,6.27,2.48,12.36,5.75,17.73l7.66-3.78
				c1.51,2.34,3.33,4.5,5.46,6.4l-4.94,6.96c2.34,1.99,4.94,3.76,7.8,5.21c2.86,1.46,5.81,2.53,8.8,3.25l2.74-8.08
				c2.79,0.6,5.61,0.81,8.39,0.66l1.43,8.42c6.27-0.5,12.36-2.48,17.73-5.75l-3.78-7.66c2.34-1.51,4.5-3.33,6.4-5.46L635.54,189.13z
				 M598.09,176.82c-7.56-3.86-10.56-13.11-6.71-20.67c3.86-7.56,13.11-10.56,20.67-6.71c7.56,3.86,10.56,13.11,6.71,20.67
				C614.9,177.67,605.65,180.67,598.09,176.82z"/>
			<path class="st8" d="M612.13,240.47c-4.06,0-10.39-12.98-10.39-12.98l-16.3,12.12c0,0,5.21,16.21,14.04,26.48"/>
			<line class="st32" x1="603.1" y1="230.08" x2="586.49" y2="242.56"/>
			<g>
				<g>
					<path class="st20" d="M654.28,185.11c-0.87-5.95-3.14-19.97-4.14-20.2c-1-0.23-1.42,3.11-1.01,4.47
						c-0.64-2.55-2.4-8.12-3.46-8.08c-1.44,0.05,0.37,8.07,0.37,8.07s-2.42-8.69-3.66-8.28c-0.88,0.29,0.67,7,0.93,9.65
						c-0.65-2.82-2.43-7.98-3.34-7.66c-0.9,0.32,0.23,5.62,0.78,9.18c-0.55-2.19-1.85-6.95-2.7-6.7
						c-0.85,0.25,1.36,11.25,2.68,22.22"/>
				</g>
				<path class="st20" d="M651.47,241.06c0,0,3.61-12.98,4.73-27.57c1.12-14.59-2.7-32.63-2.7-32.63l-13.04,4.63
					c0,0,3.85,25.44-7.02,53.3"/>
			</g>
			<path class="st8" d="M612.13,240.47c0,0,0.79,2.28,5.29,2.51c5.79,0.3,9.01-2.51,9.01-2.51s17.26,2.29,18.66,21.15
				c1.61,21.72,2.05,52.23,2.05,52.23H593.3c0,0,0.36-34.84,1.49-51.47C595.88,246.45,612.13,240.47,612.13,240.47z"/>
			<path class="st8" d="M645.04,264c6.49-16.88,8.8-29.76,8.8-29.76l-17.28-8.37c0,0-4.11,11.47-10.13,14.59"/>
			<line class="st32" x1="635.16" y1="229.19" x2="653.1" y2="237.77"/>
			<line class="st32" x1="593.3" y1="310.87" x2="647.08" y2="310.87"/>
			<path class="st32" d="M645.51,262.76c0,0-2.19,4.69-2.42,7.05"/>
			<path class="st32" d="M598.78,250.36c0,0-3.27,5.54-3.99,12.02"/>
			<path class="st32" d="M610.08,239.61c0,0,0.92,6.28,7.92,6.28c8.6,0,10.3-6.28,10.3-6.28"/>
			<g>
				<path class="st33" d="M649.13,169.39c-0.01-0.06,0.08,0.1,0.11,0.16l0.13,0.24l0.22,0.49c0.15,0.33,0.26,0.66,0.37,1
					c0.21,0.68,0.37,1.36,0.44,2.09c-0.22-0.3-0.38-0.62-0.53-0.94c-0.16-0.32-0.27-0.66-0.38-1c-0.1-0.34-0.2-0.68-0.26-1.04
					l-0.09-0.53l-0.02-0.27l-0.01-0.14C649.1,169.42,649.12,169.28,649.13,169.39z"/>
			</g>
		</g>
	</g>
	<g>
		<g>
			<g>
				<g>
					<path class="st20" d="M521.8,418.63l0.94,29.62l-0.96,9.32l-35.31-0.19c-0.89,0-1.61-0.73-1.61-1.62l0,0
						c0-0.67,0.42-1.27,1.04-1.5l15.75-7.24l-2.38-30.82"/>
					<path class="st34" d="M483.26,456.99c0.37-1.17,1.06-2.48,1.75-2.78l16.7-7.19c9.21,3.73,21.12,0.88,21.12,0.88l0.91,12.58
						c0,0.42-0.34,0.75-0.76,0.75l-39.45-0.21C482.72,461.01,483.24,457.03,483.26,456.99z"/>
					<path class="st35" d="M498.09,447.73c0.94,1.22,1.73,2.55,2.35,3.95"/>
					<path class="st35" d="M495.99,448.99c0.97,1.34,1.36,2.12,1.94,3.36"/>
					<path class="st35" d="M494.21,449.91c0.66,0.88,1.3,2.11,1.82,3.09"/>
				</g>
				<line class="st35" x1="523.53" y1="458.5" x2="483.08" y2="458.29"/>
				<path class="st35" d="M523.17,452.49c0,0-9.37,0.07-10.21,5.96"/>
				<path class="st35" d="M488.43,452.73c0,0,2.7,3.83,3.23,5.6"/>
			</g>
			<path class="st8" d="M517.7,302.25c0,0,4.3,7.24,5.54,12.63c1.97,8.58,0,17.36,0,17.36l-0.09,103.54h-26.22
				c0,0-5.82-119.32-3.23-134.75"/>
			<g>
				<g>
					<path class="st20" d="M492.84,406.97l11.91,27.13l2.58,9L474.5,456.1c-0.83,0.33-1.77-0.08-2.1-0.91l0,0
						c-0.25-0.62-0.08-1.33,0.41-1.78l11.92-12.59l-13.69-27.71"/>
					<path class="st8" d="M471.38,456.93c-0.09-1.22,0.06-2.7,0.59-3.23l12.82-12.9c9.93,0.03,19.93-7.06,19.93-7.06l5.53,11.33
						c0.15,0.39-0.04,0.82-0.42,0.98l-36.69,14.51C472.38,460.86,471.38,456.97,471.38,456.93z"/>
					<path class="st35" d="M481.7,442.81c1.32,0.78,2.55,1.72,3.66,2.79"/>
					<path class="st35" d="M480.21,444.76c1.4,0.88,2.05,1.46,3.05,2.4"/>
					<path class="st35" d="M478.91,446.27c0.94,0.58,2,1.47,2.83,2.19"/>
				</g>
				<line class="st35" x1="509.31" y1="443.32" x2="471.7" y2="458.2"/>
				<path class="st35" d="M506.73,437.87c0,0-8.67,3.55-7.25,9.34"/>
				<path class="st35" d="M474.59,451.05c0,0,3.93,2.55,5.09,3.99"/>
			</g>
			<path class="st8" d="M472.5,319.13c-13.47,33.11-13.71,36.61-15.93,52.77c-2.28,16.58,22.63,65.39,22.63,65.39l23.9-10.55
				c0,0-15.85-44.66-14.83-52.34c1.89-14.13,18.19-38.23,18.19-38.23s7.74-6.13,9.43-14.27c1.68-8.14-2.02-16.67-2.02-16.67"/>
			<g>
				<path class="st36" d="M497.08,323.03c0.35-0.12,10.73-3.38,10.73-3.38"/>
				<line class="st36" x1="519.96" y1="316.61" x2="523.38" y2="315.53"/>
				<path class="st36" d="M480.5,318.13c0,0-16.65,36.19-18.93,52.77c-2.28,16.58,21.95,64.03,21.95,64.03"/>
				<path class="st36" d="M493.82,358.48c5.17-11.38,12.65-22.32,12.65-22.32s7.74-6.13,9.43-14.27"/>
			</g>
		</g>
		<g>
			<path class="st20" d="M470.24,237.2l6.85,11.93c0,0-4.11,8.89-15.21,4.67l-2.85-6.3L470.24,237.2z"/>
			<path class="st20" d="M452.03,229.13c0,0-3.37,15.86,2.5,18.69c3.05,1.47,11.59,0.56,13.61-2.69c1.5-2.42,0.91-13.85-0.92-15.24
				C460.22,224.58,452.03,229.13,452.03,229.13z"/>
			<g>
				<path class="st28" d="M466.9,224.43c-2.57-4.48-7.79-3.59-16.29,1.25c-1.14,0.65-3.61,0.88-3.64,2.19
					c-0.04,1.72,1.2,4.55,3.19,5.12c1.33,0.38,2.03,0.26,3.38-0.06c1.77-0.41,4.13,0.3,4.1,2.38c-0.01,0.54-0.17,1.54,0.34,1.74
					c0.26,0.1,0.92,0.02,1.2,0.03c0.8,0.03,1.23,1,1.13,1.79c-0.1,0.79,0.4,1.37,0.3,2.16c-0.24,1.87,2.15,3.92,4.03,4.07
					c1.66,0.13,6.52-0.68,8.82-3.81c2-2.71,1.74-7.29-1.59-14.11C470.59,224.57,467.79,223.77,466.9,224.43z"/>
			</g>
			<path class="st20" d="M457.48,237.76c0.54-2.54,1.85-2.82,2.99-2.13c1.51,0.92,1.18,4.54,0.62,5.41
				c-1.13,1.76-2.49,2.3-3.25,1.05"/>
			<path class="st37" d="M459.57,248.48c1.75-1.45,1.49-4.23,1.49-4.23"/>
			<g>
				<g>
					<path class="st38" d="M452.54,236.71c-0.24,0.55-0.32,1.36,0.13,1.71c0.13,0.1,0.28,0.1,0.42,0.01
						C453.97,237.88,453.05,235.57,452.54,236.71z"/>
				</g>
			</g>
			<path class="st39" d="M451.82,234.96c0.68-0.08,1.87-0.02,2.58,0.54"/>
			<path class="st5" d="M454.75,242.55l-2.56-0.09c0,0-0.1,3.15,1.1,3.21C454.62,245.74,454.75,242.55,454.75,242.55z"/>
		</g>
		<g>
			<path class="st40" d="M475.51,246.37c0,0,5.97-1.53,14.42,0.93c7.13,2.08,16.2,7.42,23.03,14.68
				c11.82,12.57,6.37,43.82,6.37,43.82l-15.37-0.58c0,0,2.41-20.08-5.64-28.13c-8.05-8.05-19.41-9.94-19.41-9.94"/>
			<g>
				<path class="st20" d="M410.29,290.26c-4.82,1.34-19.41,2.92-19.64,3.92c-0.23,1,4.91,0.51,4.56,1.29
					c-0.35,0.78-8.2,2.07-8.17,3.13c0.04,1.43,8.02-0.32,8.02-0.32s-3.31,0.59-2.92,1.83c0.28,0.87,1.63,1.14,4.25,0.89
					c-1.44,0.32-2,1.02-1.69,1.92c0.31,0.89,1.7,0.83,3.18,0.64c-1.02,0.23-1.8,0.9-1.14,1.49c0.86,0.77,6.81,0.44,17.36-1.35"/>
			</g>
			<path class="st40" d="M460.32,250.36c0,0,4.11,1.77,8.66,0c4.55-1.77,6.52-3.99,6.52-3.99s10.33-0.71,22.91,11.87
				c12.7,12.7,22.58,48.73,22.58,48.73l-52.06,17.5c0,0-8.9-31.54-12.41-45.9C453.02,264.19,460.32,250.36,460.32,250.36z"/>
			<path class="st32" d="M497.73,254.93c10.41,12.15,23.26,52.03,23.26,52.03"/>
			<path class="st40" d="M460.32,250.36c-6.86,2.63-12.75,9.28-16.36,16.14c-5.92,11.23-9.53,19.38-9.53,19.38l-29.85,4.47
				l1.48,15.92c0,0,20.26-0.6,36.42-3.03c11.48-1.73,20.36-25.51,20.36-25.51"/>
			<path class="st32" d="M458.31,251.26c0,0,3.3,4.41,11.22,1.44c7.92-2.97,8.2-6.64,8.2-6.64"/>
			<line class="st32" x1="459.03" y1="285.91" x2="462.28" y2="279.06"/>
			<line class="st32" x1="409.25" y1="289.65" x2="410.37" y2="306.05"/>
			<line class="st32" x1="467.97" y1="321.06" x2="519.96" y2="303.87"/>
		</g>
	</g>
	<g>
		<g>
			<path class="st20" d="M263.21,277.48c0.23,0.15,0.47,0.31,0.71,0.46c2.33,1.48,4.71,2.97,7.35,3.75
				c1.54,0.45,3.21,0.69,4.46,1.69c0.51,0.4,0.94,0.83,1.5,1.16c0.15,0.09,1.62,0.64,1.56,0.48c0.22,0.53,0.8,0.79,1.33,1
				c0.06,0.02,0.13,0.05,0.19,0.04s0.12-0.08,0.1-0.14c0.19,0.37,0.86,0.54,1.08,0.33c0.21-0.2-0.32-1.14-0.32-1.14
				s0.36,0.02,0.47-0.09c0.17-0.19,0.21-0.47,0.23-0.73c0.16-2.41-0.78-4.87-2.53-6.58"/>
		</g>
		<g>
			<g>
				<path class="st41" d="M279.83,282.46c0,0.12,0,0.21,0.05,0.32c0.04,0.1,0.07,0.2,0.11,0.29c0.08,0.2,0.16,0.39,0.24,0.59
					c0.08,0.2,0.17,0.4,0.25,0.6c0.08,0.21,0.2,0.4,0.31,0.59c0.1,0.18,0.35,0.05,0.31-0.13c-0.04-0.21-0.08-0.43-0.16-0.63
					c-0.09-0.22-0.17-0.43-0.27-0.64c-0.09-0.2-0.2-0.39-0.3-0.58c-0.05-0.1-0.12-0.18-0.18-0.27c-0.07-0.1-0.14-0.15-0.24-0.21
					C279.9,282.35,279.83,282.4,279.83,282.46L279.83,282.46z"/>
			</g>
		</g>
		<g>
			<g>
				<path class="st41" d="M277.32,282.54c0.44,0.49,0.91,0.95,1.36,1.43c0.22,0.23,0.42,0.46,0.61,0.72
					c0.1,0.13,0.19,0.27,0.28,0.41c0.09,0.14,0.21,0.26,0.31,0.4c0.08,0.12,0.28,0.05,0.24-0.1c-0.04-0.16-0.08-0.35-0.16-0.49
					c-0.08-0.14-0.17-0.26-0.27-0.39c-0.21-0.27-0.44-0.52-0.68-0.76c-0.48-0.48-1.03-0.9-1.52-1.37
					C277.38,282.26,277.22,282.43,277.32,282.54L277.32,282.54z"/>
			</g>
		</g>
		<g>
			<line class="st42" x1="261.21" y1="461.22" x2="243.44" y2="279.87"/>
			<polyline class="st42" points="330.38,461.22 312.62,279.87 243.44,279.87 			"/>
			<line class="st42" x1="294.85" y1="461.22" x2="312.62" y2="279.87"/>
			<polyline class="st42" points="225.67,461.22 243.44,279.87 312.62,279.87 			"/>
			<line class="st42" x1="327.54" y1="435.53" x2="228.19" y2="435.53"/>
			<line class="st42" x1="325.23" y1="413.32" x2="230.37" y2="413.32"/>
			<line class="st42" x1="323.46" y1="390.5" x2="232.6" y2="390.5"/>
			<line class="st42" x1="321.24" y1="368.76" x2="234.73" y2="368.76"/>
			<line class="st42" x1="319.1" y1="346.04" x2="236.86" y2="346.04"/>
			<line class="st42" x1="316.89" y1="323.52" x2="239.09" y2="323.52"/>
			<line class="st42" x1="314.31" y1="302.26" x2="241.25" y2="302.26"/>
		</g>
		<g>
			<path class="st20" d="M259.35,279.41c7.1,0.02,14.2,0.01,21.29-0.05c-0.67-1.2-1.09-1.95-1.85-2.71
				c-0.94-0.93-1.66-1.48-2.64-1.98c-3.3-1.69-7-2.6-10.71-2.64"/>
		</g>
		<path class="st40" d="M234.57,230.48c0,0,9.71,25.31,12.13,27.43c2.43,2.12,25.55,13.62,25.55,13.62l-7.09,15
			c0,0-27.82-11.11-31.81-15c-3.99-3.89-16.67-18.95-17.94-34.06"/>
		<g>
			<g>
				<g>
					<path class="st20" d="M216.03,395.88l-1,27.23l0.84,8.57l32.48-0.01c0.82,0,1.48-0.67,1.48-1.49l0,0
						c0-0.61-0.38-1.17-0.95-1.39l-14.45-6.73l2.33-28.33"/>
					<path class="st21" d="M251.3,431.33c-0.34-1.08-0.96-2.29-1.6-2.57l-15.33-6.69c-8.48,3.39-19.43,0.71-19.43,0.71l-0.9,11.56
						c0,0.38,0.31,0.69,0.69,0.69l36.28-0.01C251.78,435.03,251.32,431.37,251.3,431.33z"/>
					<path class="st22" d="M237.7,422.75c-0.87,1.12-1.6,2.34-2.18,3.63"/>
					<path class="st22" d="M239.63,423.92c-0.9,1.23-1.26,1.94-1.8,3.08"/>
					<path class="st22" d="M241.26,424.77c-0.61,0.81-1.21,1.93-1.68,2.83"/>
				</g>
				<line class="st22" x1="214.26" y1="432.54" x2="251.46" y2="432.53"/>
				<path class="st22" d="M214.62,427.01c0,0,8.61,0.1,9.36,5.53"/>
				<path class="st22" d="M246.57,427.4c0,0-2.5,3.51-3,5.14"/>
			</g>
			<path class="st8" d="M208.86,293.5c0,0-3.13,13.88,3.6,30.7c0,0,3.26,17.58,3.52,37.68c0.27,20.5-2.46,46.62-2.46,56.38h26.72
				c0,0,3.28-27.78,3.57-55.78c0.33-31.36-2.33-66.76-2.33-75.9"/>
			<path class="st36" d="M236.24,418.26c0,0,3.28-28.29,3.58-56.65c0.32-31.15-2.34-65.98-2.34-75.04"/>
			<g>
				<g>
					<path class="st20" d="M261.2,373.72l-1,27.24l0.84,8.57l32.48-0.01c0.82,0,1.48-0.67,1.48-1.49l0,0c0-0.61-0.38-1.17-0.95-1.39
						l-14.45-6.73l2.33-28.33"/>
					<path class="st21" d="M296.47,409.17c-0.34-1.08-0.96-2.29-1.6-2.57l-15.33-6.69c-8.48,3.39-19.43,0.71-19.43,0.71l-0.9,11.56
						c0,0.38,0.31,0.69,0.69,0.69l36.28-0.01C296.95,412.86,296.49,409.2,296.47,409.17z"/>
					<path class="st22" d="M282.87,400.59c-0.87,1.12-1.6,2.34-2.18,3.63"/>
					<path class="st22" d="M284.8,401.75c-0.9,1.23-1.26,1.94-1.8,3.08"/>
					<path class="st22" d="M286.43,402.61c-0.61,0.81-1.21,1.93-1.68,2.83"/>
				</g>
				<line class="st22" x1="259.43" y1="410.38" x2="296.63" y2="410.36"/>
				<path class="st22" d="M259.79,404.85c0,0,8.61,0.1,9.36,5.53"/>
				<path class="st22" d="M291.74,405.23c0,0-2.5,3.51-3,5.14"/>
			</g>
			<path class="st8" d="M253.87,295.02c0,0,25.67,24.33,31.46,40.18c4.03,11.05-1.83,61.47-1.83,61.47h-25.57
				c0,0,3.12-45.9,1.5-50.64c-1.9-5.57-23.91-24.56-23.91-24.56s-9.39-2.1-13.82-12.09c-3.99-9-2.15-19.92-2.15-19.92"/>
			<path class="st36" d="M247.87,295.02c0,0,26.61,28.13,31.46,40.18c3.68,9.15-1.83,61.47-1.83,61.47"/>
			<path class="st36" d="M243.26,328.4c-2.02-1.83-5.51-4.97-6.57-5.91c-0.68-0.6-1.46-1.07-2.32-1.37
				c-2.64-0.92-9.19-3.9-12.67-11.74"/>
			<path class="st36" d="M228.77,303.78c0,0,7.66,0.27,10.86,0"/>
			<line class="st36" x1="208.13" y1="303.78" x2="214.31" y2="303.78"/>
		</g>
		<g>
			<g>
				<g>
					<g>
						<path class="st20" d="M299.75,233.4c2.68-1.22,14.9-6.57,15.19-5.83c0.28,0.71-3.59,3.29-3.16,3.41
							c0.24,0.07,3.69-0.83,5.42-1.68c1.54-0.76,4.14-1.72,4.56-1.09c0.79,1.19-7.72,5.24-7.72,5.24s1.5-0.69,2.27,0.24
							c1.1,1.34-1.23,2.58-1.23,2.58s1.34-0.68,1.78,0.48c0.46,1.2-1.54,2.18-1.54,2.18s1.59-0.76,1.79,0.69
							c0.26,1.91-12.44,6.39-12.44,6.39"/>
					</g>
				</g>
			</g>
			<path class="st40" d="M237.84,221.04c0,0-2.55,2.03-6.63,1.33c-4.08-0.69-5.07-2.66-5.07-2.66s-10.85,1.51-16.06,34.96
				c-3.66,23.5-2.45,42.62-2.45,42.62h49.45c0,0,1.51-51.11-1-60.61"/>
			<path class="st40" d="M241.73,245.63c0,0,14.65,16.18,28.32,16.18c13.67,0,39.4-14.51,39.4-14.51l-6.15-16.87l-29.9,10.72
				c0,0-15.74-14.71-23.01-17.42c-7.26-2.71-12.56-2.69-12.56-2.69"/>
			<path class="st32" d="M257.48,258.09c0,0-9.2-7.02-13.64-10.31"/>
			<line class="st32" x1="300.44" y1="231.46" x2="306.07" y2="249.12"/>
			<line class="st32" x1="207.48" y1="293.18" x2="257.19" y2="293.18"/>
			<path class="st32" d="M248.75,251.46c0.48,14.22,0,45.83,0,45.83"/>
		</g>
		<g>
			<path class="st20" d="M226.32,212.42l-1.12,9.03c0,0,8.71,4.57,14.49-0.29v-5.26L226.32,212.42z"/>
			<path class="st20" d="M238.14,198.26c0,0,10.18,12.84,6.46,17.59c-1.93,2.47-8.25,1.88-11.26,0c-2.23-1.4-8.47-8.84-7.51-10.75
				C229.47,197.83,238.14,198.26,238.14,198.26z"/>
			<path class="st26" d="M236.83,200.61c0.17,5.2-0.5,9.85-0.5,9.85l-0.78,16.89c0,0-13.44,1.43-22.03-4.54
				c0,0,2.88-17.75,9.29-23.13c6.09-5.12,14.02-4.75,18.05-1.44c0,0-0.56,1.55-1.31,1.91C238.8,200.52,236.83,200.61,236.83,200.61"
				/>
			<path class="st20" d="M237.71,208.76c-1.24-1.58-2.25-1.33-2.8-0.46c-0.73,1.15,0.74,3.55,1.42,3.96
				c1.39,0.83,2.51,0.74,2.62-0.38"/>
			<path class="st37" d="M239.8,217.43c-1.47,0-1.94-1.23-1.94-1.23"/>
			<g>
				<g>
					<path class="st38" d="M240.82,204.77c0.43,0.35,0.83,1,0.59,1.47c-0.07,0.13-0.2,0.2-0.34,0.18
						C240.11,206.33,239.93,204.03,240.82,204.77z"/>
				</g>
			</g>
			<path class="st43" d="M240.7,203.01c-0.96,0-1.56,0.75-1.92,1.51"/>
			<path class="st5" d="M241.6,211.4l2.26-0.73c0,0,0.89,2.78-0.17,3.14C242.52,214.21,241.6,211.4,241.6,211.4z"/>
			<g>
				<path class="st26" d="M229.27,196.66c0.9-0.23,1.52-1.17,1.5-2.09c-0.03-0.93-0.63-1.79-1.45-2.22
					c-0.82-0.44-1.81-0.48-2.7-0.23c-0.34,0.09-0.67,0.23-0.96,0.44c-1.16,0.86-1.13,2.71-0.31,3.9c0.34,0.48,0.8,0.91,1.38,1.04
					c0.57,0.13,1.76-0.07,2.44-0.47"/>
			</g>
		</g>
		<path class="st20" d="M241.9,204.62c0.25,0.14,2.94,1.3,2.95,2.38c0.01,0.61-1.48,1.27-1.48,1.27"/>
		<g>
			<path class="st20" d="M277.16,277.29c1.6,1.72,2.13,3.42,2.78,4.81c0.03,0.06,0.06,0.13,0.06,0.2c0.01,0.32-0.47,0.35-0.77,0.23
				c-0.68-0.26-1.31-0.63-1.87-1.11c-0.22-0.19-0.43-0.39-0.68-0.54c-0.46-0.26-1-0.29-1.53-0.36c-2.15-0.27-4.31-1.33-5.36-3.23"/>
		</g>
		<g>
			<path class="st44" d="M277.16,277.29c1.1,1.02,1.89,2.34,2.5,3.7l0.47,1c0.03,0.12,0.11,0.23,0.08,0.4
				c-0.03,0.19-0.2,0.32-0.32,0.36c-0.26,0.09-0.47,0.06-0.7,0c-0.74-0.27-1.41-0.66-2-1.16c-0.29-0.26-0.52-0.49-0.83-0.61
				c-0.3-0.12-0.66-0.17-1.03-0.22c-0.75-0.09-1.5-0.26-2.21-0.55c-1.4-0.56-2.69-1.56-3.32-2.93c0.81,1.26,2.09,2.1,3.46,2.57
				c0.69,0.22,1.4,0.39,2.12,0.46c0.37,0.04,0.76,0.08,1.15,0.22c0.4,0.15,0.71,0.45,0.98,0.67c0.53,0.47,1.16,0.85,1.82,1.1
				c0.13,0.05,0.3,0.06,0.4,0.02c0.05-0.02,0.05-0.03,0.05-0.03c0.01-0.01-0.03-0.08-0.04-0.13c-0.16-0.34-0.29-0.69-0.43-1.03
				C278.77,279.77,278.1,278.45,277.16,277.29z"/>
		</g>
	</g>
	<g>
		<g>
			<g>
				<g>
					<path class="st20" d="M106.83,420.18l-0.9,28.54l0.93,8.98l34.03-0.18c0.86,0,1.55-0.7,1.55-1.56l0,0c0-0.64-0.4-1.22-1-1.45
						l-15.18-6.98l2.29-29.7"/>
					<path class="st8" d="M143.96,457.14c-0.36-1.13-1.02-2.39-1.69-2.68l-16.1-6.93c-8.87,3.6-20.36,0.85-20.36,0.85l-0.88,12.12
						c0,0.4,0.33,0.72,0.73,0.72l38.02-0.2C144.48,461.01,143.98,457.18,143.96,457.14z"/>
					<path class="st35" d="M129.67,448.22c-0.9,1.18-1.66,2.46-2.27,3.81"/>
					<path class="st35" d="M131.69,449.44c-0.93,1.29-1.31,2.04-1.87,3.24"/>
					<path class="st35" d="M133.41,450.32c-0.63,0.85-1.26,2.03-1.75,2.97"/>
				</g>
				<line class="st35" x1="105.16" y1="458.6" x2="144.13" y2="458.4"/>
				<path class="st35" d="M105.51,452.8c0,0,9.03,0.06,9.84,5.74"/>
				<path class="st35" d="M138.98,453.04c0,0-2.6,3.7-3.11,5.4"/>
			</g>
			<path class="st21" d="M109.98,318.04c0,0,18.08,33.89,23.82,55.21c5.74,21.31-1.89,69.32-1.89,69.32h-28.14
				c0,0,5.61-52.1-1.03-69.32c-6.64-17.22-30.42-62.52-30.42-62.52"/>
			<path class="st23" d="M107.62,442.57c0,0,4.61-54.2,1.81-67.59c-2.81-13.39-22.26-44.55-22.26-44.55"/>
			<g>
				<g>
					<path class="st20" d="M74.59,404.31l-16.63,22.92l-4.53,7.81l27.62,19.87c0.7,0.5,1.67,0.34,2.17-0.35l0,0
						c0.38-0.52,0.39-1.22,0.04-1.76l-8.17-14.57l18.43-24.04"/>
					<path class="st8" d="M83.77,456.42c0.37-1.12,0.58-2.54,0.21-3.16l-8.94-15.07c-9.29-2.31-16.96-11.29-16.96-11.29l-7.84,9.28
						c-0.23,0.33-0.16,0.78,0.17,1.01l30.86,22.2C81.91,459.85,83.76,456.45,83.77,456.42z"/>
					<path class="st35" d="M77.45,440.8c-1.42,0.42-2.79,1.01-4.08,1.75"/>
					<path class="st35" d="M78.38,442.97c-1.52,0.5-2.26,0.88-3.41,1.52"/>
					<path class="st35" d="M79.24,444.69c-1.01,0.32-2.21,0.9-3.16,1.38"/>
				</g>
				<line class="st35" x1="51.52" y1="434.77" x2="83.16" y2="457.53"/>
				<path class="st35" d="M55.22,430.29c0,0,7.26,5.36,4.58,10.43"/>
				<path class="st35" d="M82.15,450.17c0,0-4.28,1.46-5.69,2.53"/>
			</g>
			<path class="st21" d="M64.9,310.73c-5.36,15.19,0,27.14,0,27.14s18.27,33.39,18.27,40.17c0,6.22-23.44,41.68-23.44,41.68
				l21.43,17.23c0,0,33.66-36.23,33.03-61.3c-0.79-31-17.66-64.92-17.66-64.92"/>
			<path class="st23" d="M68.9,311.73c-5.36,15.19,1.11,25.42,1.11,25.42s17.16,35.11,17.16,41.89c0,6.22-24.35,43.16-24.35,43.16"
				/>
			<path class="st23" d="M105.66,403.13c5.02-9.21,8.74-18.99,8.52-27.49c-0.79-31-17.66-64.92-17.66-64.92"/>
			<path class="st23" d="M67.14,323.64c0,0,9.56,0.56,13.31-7.13"/>
			<path class="st23" d="M103.79,328.02c0,0,2.62,0.29,2.37-1.01s-2.37-8.28-2.37-8.28"/>
		</g>
		<g>
			<path class="st45" d="M115.94,230.16c0.98,6.12,0.21,11.53-5.02,12.35c-5.23,0.81-12.49-0.68-13.91-9.4
				c-1-6.12,2.46-11.75,7.69-12.56C109.92,219.73,114.96,224.04,115.94,230.16z"/>
			<g>
				<g>
					<path class="st38" d="M111.71,230.21c-0.11,0.56-0.01,1.34,0.49,1.56c0.14,0.06,0.29,0.03,0.39-0.08
						C113.29,231,111.93,229.04,111.71,230.21z"/>
				</g>
			</g>
			<path class="st46" d="M109.96,228.83c1.29-0.7,2.52-0.63,3.61-0.25"/>
			<path class="st5" d="M115.1,236.56l-3.41,0.01c0,0-0.2,2.83,1.49,3.13C114.6,239.94,115.1,236.56,115.1,236.56z"/>
			<g>
				<path class="st45" d="M108.15,249.21c0,0-4.07,0.7-7.9-0.34c-4.52-1.23-5.8-3.07-5.8-3.07l6.26-13.07l9.66,4.38L108.15,249.21z"
					/>
			</g>
			<path class="st25" d="M109.35,242.66c0,0-4.21,0.14-6.39-1.93"/>
			<path class="st45" d="M114.83,229.97c0,0,2.61,3.84,2.48,4.52c-0.13,0.68-2.03,0.98-2.03,0.98"/>
			<g>
				<path class="st47" d="M100.76,238.63c-0.57,0.25-1.25,0.35-1.8,0.41c-1.23,0.14-2.5-0.05-3.6-0.62
					c-2.01-1.05-3.3-3.44-2.85-5.67c0.07-0.36,0.19-0.72,0.25-1.09c0.27-1.71-0.73-3.34-1.01-5.05c-0.27-1.66,0.16-3.4,1.1-4.8
					c0.93-1.4,2.34-2.45,3.91-3.05c1.25-0.48,2.62-0.65,3.66-1.55c0.48-0.42,0.92-0.89,1.47-1.23c2.6-1.64,6.31-0.74,8.63,0.99
					c0.28,0.2,0.55,0.43,0.88,0.52c0.57,0.15,1.17-0.09,1.75,0.03c2.23,0.45,3.21,3.74,3.19,5.71c-0.01,0.58-0.15,1.18-0.5,1.64
					c-0.5,0.67-1.35,0.99-2.18,1.09c-1.16,0.14-2.36-0.09-3.5,0.25c-0.8,0.24-1.48,0.76-2.26,1.07c-1.19,0.48-2.59,0.43-3.75-0.12
					c0.23,0.81,0.4,1.67,0.28,2.51c-0.24,1.57-1.57,2.35-2.98,2.74c0.47,1.59,0.85,3.58,0.35,5.2
					C101.65,238.1,101.25,238.42,100.76,238.63z"/>
			</g>
			<path class="st24" d="M102.7,231.12c0,0-1.25-1.52-2.72-0.3c-1.9,1.58,0.57,4.99,2.08,5.55c1.5,0.56,1.95-1.11,1.95-1.11"/>
		</g>
		<g>
			<path class="st31" d="M173.75,297.79c1.98-1.67,3.8-3.58,5.4-5.75c1.6-2.17,2.9-4.47,3.91-6.85l-6.33-3.38
				c0.88-2.23,1.45-4.54,1.7-6.87l7.18-0.03c0.45-5.27-0.35-10.59-2.33-15.5l-6.87,2.08c-0.93-2.15-2.14-4.19-3.64-6.06l5.05-5.09
				c-1.67-1.98-3.58-3.8-5.75-5.4c-2.17-1.6-4.47-2.9-6.85-3.91l-3.38,6.33c-2.23-0.88-4.54-1.45-6.87-1.7l-0.03-7.18
				c-5.27-0.45-10.59,0.35-15.5,2.33l2.08,6.87c-2.15,0.93-4.19,2.14-6.06,3.64l-5.09-5.05c-1.98,1.67-3.8,3.58-5.4,5.75
				c-1.6,2.17-2.9,4.47-3.91,6.85l6.33,3.38c-0.88,2.23-1.45,4.54-1.7,6.87l-7.18,0.03c-0.45,5.27,0.35,10.59,2.33,15.5l6.87-2.08
				c0.93,2.15,2.14,4.19,3.64,6.06l-5.05,5.09c1.67,1.98,3.58,3.8,5.75,5.4c2.17,1.6,4.47,2.9,6.85,3.91l3.38-6.33
				c2.23,0.88,4.54,1.45,6.87,1.7l0.03,7.18c5.27,0.45,10.59-0.35,15.5-2.33l-2.08-6.87c2.15-0.93,4.19-2.14,6.06-3.64
				L173.75,297.79z M144.51,282.25c-5.64-4.17-6.84-12.12-2.67-17.76c4.17-5.64,12.12-6.84,17.76-2.67
				c5.64,4.17,6.84,12.12,2.67,17.76C158.1,285.22,150.15,286.41,144.51,282.25z"/>
			<g>
				<g>
					<g>
						<path class="st20" d="M153.96,296.24c2.94,0.25,16.21,1.6,16.09,2.39c-0.11,0.76-4.6,1.01-4.43,1.42
							c0.24,0.58,3.62,1.09,5.55,1.2c1.71,0.1,4.45,0.54,4.5,1.29c0.1,1.43-9.3,0.77-9.3,0.77c0.03,0.43,10.24-1.18,10.45,0.01
							c0.3,1.71-10.58,2.55-10.93,2.96c0,0,9.23-3.35,9.46-2.08c0.22,1.27-7.95,4.46-10.55,4.51c2.13-0.44,8.41-3.98,8.57-3.05
							c0.16,0.92-5.39,3.33-6.29,3.48c-7.43,1.23-15.03,0.5-15.03,0.5"/>
					</g>
				</g>
			</g>
			<path class="st8" d="M108.31,248.37c0,0-2.85,1.35-7.17-0.52c-4.69-2.04-5.68-4.38-5.68-4.38s-25.44,2.25-34.74,72.83l52.09,6.46
				c0,0,4.19-25.23,3.52-45.64C115.91,264.12,110.86,254.01,108.31,248.37"/>
			<path class="st8" d="M93.03,276.63c0,0,8.01,26.84,29.65,32.65c19.28,5.17,34.31,5.15,34.31,5.15l2.1-18.09
				c0,0-23.56-4.23-33.26-10.64c-7.38-4.88-8.82-20.53-10.69-26.06c-2.59-7.68-6.83-11.25-6.83-11.25"/>
			<path class="st32" d="M93.39,244.02c0,0,1.6,4.92,9.02,6.54c5.42,1.18,7.55-0.44,7.55-0.44"/>
			<path class="st32" d="M114.18,306.23c0,0-19.73-9.11-20.79-34.93"/>
			<line class="st32" x1="154.71" y1="295.45" x2="152.06" y2="314.21"/>
		</g>
	</g>
</g>
</svg>
