<svg width="633" height="633" viewBox="0 0 633 633" fill="none" xmlns="http://www.w3.org/2000/svg">
<path d="M86.3975 392.861C76.5679 352.885 78.1959 309.694 88.717 269.416C91.1069 276.181 94.1631 282.455 97.736 288.131C99.388 290.755 100.912 293.446 102.305 296.195H94.6333C91.3245 296.195 88.6249 298.356 88.5628 300.986L86.3975 392.861ZM550.49 303.176C549.278 302.378 547.727 301.881 546.161 301.881H526.234V222.746C526.27 222.734 526.304 222.722 526.34 222.707C527.995 221.982 529.623 221.146 531.176 220.224C531.193 220.214 531.211 220.202 531.228 220.19C542.167 246.677 548.422 274.966 550.49 303.176ZM526.234 220.479V208.921C527.705 212.023 529.109 215.157 530.444 218.315C530.331 218.337 530.222 218.378 530.118 218.44C528.864 219.182 527.562 219.866 526.234 220.479M198.441 208.109H181.707C168.897 189.484 150.382 178.011 132.052 177.825C142.953 162.662 161.707 139.966 189.18 120.413C185.129 132.978 183.759 147.414 185.805 162.417C186.977 171.024 189.185 179.149 192.225 186.592C195.075 193.567 197.156 200.784 198.441 208.109M499.082 165.177H364.415C364.282 164.717 364.152 164.252 364.029 163.79C363.83 163.038 363.149 162.541 362.405 162.541C362.264 162.541 362.119 162.56 361.975 162.597C361.079 162.835 360.545 163.754 360.783 164.652C360.829 164.827 360.876 165.003 360.924 165.177H302.9C302.359 161.816 301.992 158.416 301.804 154.984C301.654 152.253 301.393 149.494 301.014 146.714C297.355 119.857 283.633 97.6748 265.92 86.2621C271.543 85.0473 277.349 84.0406 283.33 83.2711C293.427 81.971 303.809 81.3141 314.323 81.3141C367.918 81.3141 425.193 98.3556 468.643 134.186C480.044 143.587 490.176 153.998 499.082 165.177ZM360.254 148.305C360.23 148.305 360.206 148.305 360.182 148.306C359.242 148.327 358.534 149.127 358.573 150.053C358.594 150.548 358.619 151.045 358.652 151.541C358.739 152.913 358.868 154.302 359.041 155.669C359.146 156.518 359.87 157.141 360.704 157.141C360.74 157.141 360.776 157.139 360.812 157.138C360.846 157.134 360.88 157.131 360.914 157.127C361.835 157.011 362.489 156.172 362.373 155.252C362.211 153.952 362.086 152.633 362.004 151.328C361.974 150.857 361.95 150.384 361.929 149.914C361.892 149.011 361.148 148.305 360.254 148.305M360.8 136.711C359.97 136.711 359.254 137.322 359.138 138.163C359.013 139.071 358.906 139.992 358.819 140.9C358.732 141.824 359.407 142.643 360.332 142.732C360.385 142.737 360.438 142.741 360.489 142.741C360.527 142.741 360.564 142.739 360.6 142.737C361.409 142.686 362.084 142.053 362.165 141.22C362.247 140.359 362.349 139.484 362.467 138.62C362.593 137.701 361.951 136.854 361.032 136.728C360.953 136.716 360.876 136.711 360.8 136.711M387.118 92.7729C386.773 92.7729 386.427 92.8787 386.128 93.0971C385.388 93.638 384.651 94.1993 383.937 94.7657C383.211 95.3424 383.089 96.3986 383.666 97.1254C383.997 97.5434 384.489 97.7601 384.983 97.7601C385.017 97.7601 385.053 97.7601 385.089 97.7567C385.42 97.7362 385.748 97.6185 386.026 97.3967C386.705 96.8576 387.404 96.3252 388.109 95.81C388.858 95.264 389.022 94.213 388.476 93.4639C388.147 93.0135 387.636 92.7729 387.118 92.7729Z" fill="#D9FFFC"/>
<path d="M170.049 212.21C170.093 209.938 172.004 208.109 174.345 208.109H316.343C318.716 208.109 321.236 209.994 321.236 212.297V534.146C321.236 535.866 320.233 537.516 318.979 538.731C317.725 539.944 315.875 540.625 314.104 540.62L170.55 540.239C168.764 540.234 167.017 539.534 165.767 538.294C164.518 537.054 163.814 535.375 163.848 533.64L170.049 212.21" fill="#BDD0FB"/>
<path d="M193.152 231.113C192.5 229.184 191.796 227.297 191.038 225.445L199.984 225.418C199.989 227.31 199.941 229.202 199.84 231.091L193.152 231.113Z" fill="#DFE9FD"/>
<path d="M197.634 247.187C197.534 246.868 197.435 246.548 197.339 246.227L197.844 246.225C197.776 246.546 197.704 246.868 197.634 247.187" fill="#DFE9FD"/>
<path d="M88.5628 300.986C88.6249 298.356 91.3245 296.195 94.6333 296.195H219.7C223.053 296.195 226.346 298.471 226.346 301.134V539.304C226.346 540.585 225.418 541.816 224.275 542.72C223.133 543.626 221.441 544.133 219.827 544.129L89.0631 543.846C87.4359 543.843 85.8428 543.319 84.7047 542.396C83.5665 541.471 82.925 540.193 82.9554 538.901L88.5628 300.986" fill="#91E4DE"/>
<path d="M180.668 324.26L216.297 324.221L216.58 309.709H180.917L180.668 324.26Z" fill="url(#paint0_linear_69_216)"/>
<path d="M140.732 324.251L176.326 324.214L176.57 309.709H140.942L140.732 324.251" fill="url(#paint1_linear_69_216)"/>
<path d="M100.836 324.245L136.394 324.207L136.599 309.709H101.007L100.836 324.245Z" fill="url(#paint2_linear_69_216)"/>
<path d="M180.222 350.308L215.79 350.327L216.071 335.91L180.47 335.898L180.222 350.308" fill="url(#paint3_linear_69_216)"/>
<path d="M140.356 350.288L175.887 350.307L176.131 335.896L140.565 335.884L140.356 350.288Z" fill="url(#paint4_linear_69_216)"/>
<path d="M100.53 350.267L136.025 350.286L136.23 335.882L100.7 335.87L100.53 350.267" fill="url(#paint5_linear_69_216)"/>
<path d="M179.779 376.179L215.283 376.208L215.565 361.841L180.025 361.817L179.779 376.179Z" fill="url(#paint6_linear_69_216)"/>
<path d="M139.982 376.145L175.452 376.174L175.694 361.815L140.19 361.791L139.982 376.145" fill="url(#paint7_linear_69_216)"/>
<path d="M100.225 376.113L135.659 376.142L135.862 361.788L100.395 361.766L100.225 376.113" fill="url(#paint8_linear_69_216)"/>
<path d="M179.337 401.958L214.78 401.999L215.06 387.683L179.583 387.649L179.337 401.958Z" fill="url(#paint9_linear_69_216)"/>
<path d="M139.609 401.914L175.017 401.953L175.257 387.643L139.816 387.609L139.609 401.914" fill="url(#paint10_linear_69_216)"/>
<path d="M99.9209 401.866L135.293 401.909L135.496 387.604L100.09 387.57L99.9209 401.866" fill="url(#paint11_linear_69_216)"/>
<path d="M178.897 427.65L214.278 427.703L214.556 413.434L179.141 413.388L178.897 427.65" fill="url(#paint12_linear_69_216)"/>
<path d="M139.237 427.592L174.583 427.645L174.824 413.383L139.444 413.337L139.237 427.592Z" fill="url(#paint13_linear_69_216)"/>
<path d="M99.6177 427.533L134.929 427.586L135.131 413.332L99.7859 413.286L99.6177 427.533" fill="url(#paint14_linear_69_216)"/>
<path d="M178.457 453.254L213.778 453.317L214.055 439.099L178.701 439.041L178.457 453.254" fill="url(#paint15_linear_69_216)"/>
<path d="M138.866 453.182L174.152 453.245L174.392 439.034L139.072 438.976L138.866 453.182" fill="url(#paint16_linear_69_216)"/>
<path d="M99.3157 453.11L134.566 453.175L134.767 438.969L99.4834 438.911L99.3157 453.11" fill="url(#paint17_linear_69_216)"/>
<path d="M178.02 478.768L213.278 478.843L213.556 464.673L178.262 464.605L178.02 478.768" fill="url(#paint18_linear_69_216)"/>
<path d="M138.497 478.685L173.722 478.76L173.961 464.596L138.702 464.527L138.497 478.685" fill="url(#paint19_linear_69_216)"/>
<path d="M99.0144 478.601L134.204 478.676L134.405 464.52L99.1816 464.45L99.0144 478.601" fill="url(#paint20_linear_69_216)"/>
<path d="M177.583 504.196L212.782 504.281L213.058 490.16L177.825 490.08L177.583 504.196Z" fill="url(#paint21_linear_69_216)"/>
<path d="M138.129 504.098L173.293 504.185L173.531 490.07L138.334 489.992L138.129 504.098" fill="url(#paint22_linear_69_216)"/>
<path d="M98.7144 504.003L133.843 504.088L134.043 489.981L98.8811 489.901L98.7144 504.003" fill="url(#paint23_linear_69_216)"/>
<path d="M177.15 529.536L212.287 529.633L212.562 515.559L177.39 515.468L177.15 529.536Z" fill="url(#paint24_linear_69_216)"/>
<path d="M137.763 529.427L172.865 529.524L173.103 515.457L137.966 515.366L137.763 529.427Z" fill="url(#paint25_linear_69_216)"/>
<path d="M98.4155 529.318L133.484 529.415L133.683 515.356L98.5814 515.264L98.4155 529.318Z" fill="url(#paint26_linear_69_216)"/>
<path d="M415.024 306.674C415.086 304.045 417.787 301.881 421.095 301.881H546.161C549.515 301.881 552.808 304.157 552.808 306.822V544.992C552.808 546.274 551.878 547.502 550.737 548.408C549.594 549.313 547.901 549.819 546.289 549.816L415.524 549.533C413.896 549.529 412.305 549.007 411.167 548.082C410.029 547.159 409.387 545.881 409.416 544.588L415.024 306.674" fill="#91E4DE"/>
<path d="M526.234 329.926V315.396H543.04L542.759 329.909L526.234 329.926Z" fill="#DEE8FD"/>
<path d="M542.25 356.014L526.234 356.005V341.591L542.532 341.597L542.25 356.014" fill="#DEE8FD"/>
<path d="M541.745 381.895L526.234 381.883V367.517L542.025 367.527L541.745 381.895Z" fill="#DEE8FD"/>
<path d="M541.242 407.688L526.234 407.671V393.354L541.52 393.369L541.242 407.688" fill="#DEE8FD"/>
<path d="M540.739 433.39L526.234 433.37V419.102L541.019 419.123L540.739 433.39Z" fill="#DEE8FD"/>
<path d="M540.239 459.005L526.234 458.98V444.762L540.517 444.786L540.239 459.005Z" fill="#DEE8FD"/>
<path d="M539.741 484.53L526.234 484.503V470.334L540.017 470.36L539.741 484.53Z" fill="#DEE8FD"/>
<path d="M539.244 509.969L526.234 509.937V495.818L539.519 495.847L539.244 509.969Z" fill="#DEE8FD"/>
<path d="M538.748 535.32L526.234 535.286V521.213L539.022 521.247L538.748 535.32Z" fill="#DEE8FD"/>
<path d="M290.692 371.464C280.486 339.416 260.738 313.876 237.344 298.863C216.433 285.44 201.366 264.538 195.788 240.392C195.201 237.855 194.505 235.309 193.695 232.765C181.419 194.222 147.749 170.533 118.491 179.851C89.2329 189.17 75.4661 227.969 87.7419 266.51C90.2517 274.391 93.6569 281.649 97.7361 288.131C110.755 308.815 115.849 333.624 111.059 357.62C106.778 379.063 107.939 403.207 115.592 427.234C127.005 463.068 150.348 490.768 177.377 504.713C187.6 509.987 196.819 517.079 204.452 525.651C217.138 539.893 235.017 546.588 251.443 541.357C269.163 535.713 280.233 517.768 281.03 496.832C281.482 484.986 284.267 473.373 288.807 462.396C299.527 436.478 301.013 403.864 290.692 371.464" fill="#91DFFF"/>
<path d="M240.665 468.195C239.997 466.217 239.31 464.245 238.65 462.264C236.469 455.879 234.34 449.48 232.118 443.11C228.351 432.527 224.524 421.965 220.625 411.43C222.331 413.301 224.08 415.1 225.875 416.828C226.624 418.901 227.361 420.977 228.071 423.064L234.688 442.228C236.72 448.312 238.714 454.407 240.665 460.519V468.195ZM184.38 319.378L180.884 311.028C178.282 304.801 175.681 298.575 173.015 292.374C167.791 279.928 162.477 267.518 157.062 255.154C151.711 242.76 146.242 230.414 140.737 218.09L141.795 217.59C153.73 241.844 164.873 266.464 175.757 291.199C178.48 297.382 181.105 303.608 183.747 309.825L184.227 310.951C184.201 313.741 184.252 316.548 184.38 319.378" fill="#DDE8FF"/>
<path d="M376.081 307.763C371.31 272.765 355.543 242.767 334.135 222.997C314.997 205.322 303.222 180.97 301.805 154.984C301.654 152.253 301.393 149.494 301.015 146.714C295.278 104.623 264.836 74.015 233.023 78.3521C201.209 82.6876 180.069 120.325 185.805 162.417C186.977 171.024 189.185 179.149 192.226 186.592C201.929 210.347 202.731 236.933 193.493 260.885C185.237 282.289 182.106 307.474 185.682 333.714C191.016 372.847 210.098 405.731 235.445 425.055C245.032 432.363 253.258 441.372 259.586 451.621C270.103 468.652 287.322 478.818 305.183 476.383C324.451 473.757 339.075 457.203 343.649 435.692C346.237 423.518 351.189 412.011 357.836 401.479C373.525 376.615 380.904 343.149 376.081 307.763" fill="#6CC0E3"/>
<path d="M262.263 165.177H259.733C259.574 164.531 259.417 163.882 259.259 163.234C255.969 149.444 252.548 135.682 249.086 121.937L250.265 121.611C254.483 136.075 258.453 150.606 262.263 165.177" fill="#CCF0FF"/>
<path d="M522.305 548.315H244.596C242.424 548.315 240.665 546.555 240.665 544.385V543.121V468.195V460.519V429.319V169.108C240.665 166.938 242.424 165.177 244.596 165.177H259.733H262.263H302.9H360.924C361.373 166.812 361.888 168.443 362.456 170.031C362.702 170.719 363.349 171.147 364.038 171.147C364.074 171.147 364.108 171.146 364.144 171.144C364.297 171.134 364.453 171.101 364.605 171.048C365.478 170.734 365.932 169.774 365.62 168.9C365.183 167.679 364.779 166.431 364.415 165.177H499.082H522.305C524.475 165.177 526.235 166.938 526.235 169.108V208.921V220.479C525.992 220.589 525.75 220.699 525.506 220.806C524.982 221.037 524.743 221.649 524.972 222.173C525.143 222.562 525.525 222.794 525.924 222.794C525.945 222.794 525.967 222.794 525.989 222.792C526.071 222.787 526.154 222.772 526.235 222.746V301.881V315.396V329.926V341.591V356.005V367.517V381.883V393.354V407.671V419.102V433.37V444.762V458.98V470.334V484.503V495.818V509.937V521.213V535.286V544.385C526.235 546.555 524.475 548.315 522.305 548.315M505.195 224.294C504.655 224.294 504.192 224.708 504.153 225.258C504.112 225.829 504.544 226.326 505.114 226.367C506.165 226.44 507.226 226.478 508.285 226.478C509.04 226.478 509.795 226.459 510.546 226.421L510.56 226.42C511.124 226.384 511.558 225.899 511.529 225.333C511.502 224.778 511.044 224.347 510.495 224.347C510.478 224.347 510.459 224.347 510.442 224.348C509.724 224.384 509.002 224.403 508.28 224.403C507.27 224.403 506.26 224.367 505.262 224.297C505.24 224.295 505.218 224.294 505.195 224.294ZM520.937 222.55C520.84 222.55 520.741 222.564 520.642 222.593C518.992 223.086 517.294 223.483 515.595 223.777C515.03 223.874 514.651 224.41 514.748 224.974C514.835 225.479 515.274 225.836 515.769 225.836C515.791 225.836 515.813 225.836 515.835 225.834C515.873 225.833 515.909 225.828 515.946 225.821C517.727 225.515 519.507 225.097 521.237 224.58C521.785 224.416 522.097 223.838 521.933 223.29C521.798 222.838 521.384 222.55 520.937 222.55M494.789 222.262C494.351 222.262 493.945 222.54 493.803 222.978C493.626 223.522 493.923 224.108 494.469 224.285C496.182 224.845 497.951 225.304 499.727 225.652C499.794 225.665 499.862 225.671 499.927 225.671C499.949 225.671 499.971 225.671 499.992 225.669C500.452 225.64 500.851 225.305 500.944 224.833C501.054 224.271 500.688 223.727 500.126 223.616C498.432 223.284 496.745 222.845 495.11 222.313C495.004 222.279 494.895 222.262 494.789 222.262M485.194 217.783C484.847 217.783 484.508 217.957 484.312 218.271C484.008 218.759 484.156 219.399 484.643 219.701C486.175 220.658 487.782 221.528 489.418 222.292C489.56 222.357 489.708 222.39 489.855 222.39C489.877 222.39 489.899 222.388 489.922 222.386C490.287 222.364 490.631 222.146 490.797 221.791C491.039 221.27 490.814 220.653 490.295 220.41C488.734 219.683 487.204 218.853 485.741 217.94C485.571 217.834 485.38 217.783 485.194 217.783M476.939 211.137C476.678 211.137 476.417 211.236 476.216 211.432C475.806 211.832 475.798 212.488 476.197 212.898C477.454 214.19 478.806 215.421 480.215 216.556C480.406 216.71 480.636 216.786 480.865 216.786C480.887 216.786 480.908 216.785 480.93 216.783C481.211 216.766 481.483 216.635 481.674 216.399C482.032 215.954 481.962 215.3 481.517 214.94C480.172 213.857 478.882 212.683 477.683 211.451C477.48 211.243 477.21 211.137 476.939 211.137M431.964 210.782C431.907 210.782 431.851 210.784 431.795 210.791C430.007 210.965 428.213 211.065 426.448 211.091C425.519 211.106 424.779 211.867 424.792 212.794C424.804 213.714 425.555 214.451 426.47 214.451C426.478 214.451 426.487 214.451 426.495 214.451C427.589 214.435 428.7 214.391 429.8 214.321C430.571 214.273 431.346 214.21 432.121 214.135C433.044 214.045 433.719 213.224 433.631 212.299C433.545 211.432 432.813 210.782 431.964 210.782M412.141 209.706C411.363 209.706 410.663 210.248 410.498 211.038C410.307 211.948 410.887 212.838 411.796 213.029C413.631 213.415 415.501 213.725 417.355 213.954C417.425 213.963 417.493 213.968 417.562 213.968C417.597 213.968 417.633 213.966 417.669 213.964C418.459 213.913 419.128 213.307 419.229 212.494C419.341 211.572 418.688 210.734 417.766 210.62C416.006 210.403 414.229 210.108 412.487 209.741C412.371 209.716 412.255 209.706 412.141 209.706M446.055 207.825C445.883 207.825 445.705 207.853 445.531 207.911C443.844 208.464 442.11 208.951 440.377 209.363C439.474 209.578 438.916 210.482 439.13 211.385C439.312 212.157 440.002 212.678 440.763 212.678C440.798 212.678 440.832 212.676 440.868 212.674C440.962 212.668 441.058 212.654 441.152 212.632C442.975 212.2 444.801 211.685 446.577 211.103C447.459 210.815 447.94 209.866 447.65 208.984C447.42 208.278 446.762 207.825 446.055 207.825M398.476 205.203C397.838 205.203 397.229 205.566 396.947 206.184C396.562 207.029 396.932 208.025 397.777 208.411C399.481 209.189 401.237 209.905 402.994 210.535C403.182 210.603 403.375 210.636 403.562 210.636C403.598 210.636 403.634 210.634 403.668 210.632C404.316 210.589 404.91 210.173 405.144 209.521C405.456 208.648 405.002 207.687 404.129 207.373C402.46 206.774 400.793 206.095 399.172 205.355C398.947 205.251 398.71 205.203 398.476 205.203ZM470.519 202.703C470.341 202.703 470.162 202.749 469.997 202.845C469.502 203.133 469.336 203.77 469.625 204.265C470.534 205.821 471.553 207.341 472.648 208.781C472.853 209.049 473.162 209.19 473.475 209.19C473.496 209.19 473.518 209.189 473.54 209.187C473.738 209.175 473.934 209.107 474.103 208.977C474.559 208.631 474.648 207.979 474.3 207.523C473.254 206.152 472.283 204.701 471.416 203.217C471.223 202.888 470.875 202.703 470.519 202.703M459.157 201.855C458.865 201.855 458.567 201.932 458.297 202.093C456.772 203.005 455.188 203.862 453.59 204.643C452.755 205.049 452.411 206.056 452.817 206.889C453.109 207.486 453.706 207.832 454.329 207.832C454.363 207.832 454.398 207.832 454.434 207.829C454.648 207.815 454.861 207.761 455.064 207.662C456.746 206.841 458.415 205.937 460.02 204.976C460.817 204.5 461.077 203.469 460.6 202.674C460.287 202.147 459.729 201.855 459.157 201.855M386.876 202.135C387.812 202.797 388.768 203.439 389.732 204.05C390.012 204.227 390.322 204.311 390.631 204.311C390.665 204.311 390.701 204.309 390.737 204.307C391.255 204.275 391.75 204.002 392.051 203.531C392.547 202.746 392.315 201.709 391.53 201.212C390.873 200.796 390.221 200.366 389.577 199.922C390.762 198.457 391.472 196.588 391.472 194.556C391.472 189.839 387.649 186.013 382.929 186.013C380.585 186.013 378.462 186.957 376.918 188.486C376.587 188.11 376.125 187.917 375.659 187.917C375.275 187.917 374.89 188.047 374.574 188.315C373.866 188.916 373.779 189.975 374.378 190.683C374.581 190.922 374.784 191.159 374.99 191.395C374.601 192.372 374.386 193.439 374.386 194.556C374.386 199.274 378.212 203.099 382.929 203.099C384.354 203.099 385.695 202.751 386.876 202.135M468.58 195.01C468.19 195.01 467.797 195.147 467.478 195.425C466.82 195.998 466.146 196.563 465.472 197.104C464.748 197.684 464.632 198.742 465.212 199.465C465.543 199.878 466.031 200.093 466.523 200.093C466.559 200.093 466.594 200.093 466.63 200.089C466.963 200.069 467.294 199.95 467.574 199.724C468.284 199.156 468.993 198.561 469.686 197.957C470.386 197.346 470.457 196.286 469.848 195.587C469.515 195.206 469.05 195.01 468.58 195.01ZM367.616 175.967C367.355 175.967 367.089 176.029 366.841 176.158C366.019 176.588 365.7 177.603 366.13 178.426C366.997 180.084 367.945 181.727 368.95 183.309C369.271 183.812 369.814 184.087 370.37 184.087C370.406 184.087 370.442 184.085 370.476 184.084C370.75 184.067 371.022 183.983 371.269 183.824C372.052 183.328 372.284 182.29 371.786 181.507C370.832 180.004 369.931 178.445 369.109 176.87C368.809 176.297 368.222 175.967 367.616 175.967" fill="#2996C3"/>
<path d="M477.62 497.845H288.672C281.509 497.845 275.703 492.039 275.703 484.876V235.706C275.703 228.544 281.509 222.738 288.672 222.738H477.62C484.782 222.738 490.589 228.544 490.589 235.706V484.876C490.589 492.039 484.782 497.845 477.62 497.845Z" fill="#91DFFF"/>
<path d="M470.471 478.707H295.991C293.843 478.707 292.101 476.965 292.101 474.817V249.259C292.101 247.111 293.843 245.369 295.991 245.369H470.471C472.619 245.369 474.361 247.111 474.361 249.259V474.817C474.361 476.965 472.619 478.707 470.471 478.707Z" fill="#2996C3"/>
<path d="M382.929 203.099C378.212 203.099 374.386 199.274 374.386 194.556C374.386 193.439 374.601 192.372 374.99 191.395C376.017 192.574 377.094 193.725 378.198 194.827C378.525 195.153 378.955 195.317 379.385 195.317C379.42 195.317 379.455 195.317 379.491 195.314C379.885 195.29 380.273 195.126 380.575 194.824C381.23 194.167 381.228 193.104 380.571 192.449C379.31 191.192 378.089 189.866 376.942 188.511C376.934 188.503 376.927 188.494 376.918 188.486C378.462 186.957 380.585 186.013 382.929 186.013C387.649 186.013 391.472 189.839 391.472 194.556C391.472 196.588 390.762 198.457 389.577 199.922C388.747 199.352 387.928 198.764 387.132 198.16C386.828 197.929 386.471 197.818 386.118 197.818C385.611 197.818 385.11 198.047 384.779 198.484C384.217 199.224 384.364 200.277 385.103 200.837C385.685 201.279 386.277 201.71 386.876 202.135C385.695 202.751 384.354 203.099 382.929 203.099Z" fill="url(#paint27_linear_69_216)"/>
<path d="M438.121 332.47L328.213 334.297C319.848 334.437 313.042 340.941 313.042 348.826V418.043C313.042 425.927 319.848 432.046 328.213 431.709L438.121 427.296C446.016 426.978 452.394 420.546 452.394 412.926V346.031C452.394 338.409 446.016 332.339 438.121 332.47" fill="url(#paint28_linear_69_216)"/>
<path d="M443.685 319.952C440.356 320.001 437.654 317.432 437.654 314.214V299.064C437.654 283.867 424.797 271.54 408.884 271.586L373.079 271.688C356.756 271.736 343.379 284.427 343.379 299.981V315.483C343.379 318.776 340.545 321.489 337.044 321.542C333.536 321.593 330.688 318.957 330.688 315.654V300.103C330.688 277.906 349.813 259.846 373.079 259.846H408.884C431.491 259.846 449.698 277.387 449.698 298.947V314.052C449.698 317.261 447.007 319.902 443.685 319.952" fill="url(#paint29_linear_69_216)"/>
<path d="M400.95 370.831C400.95 363.139 394.235 357.099 386.07 357.654C378.853 358.145 372.883 363.926 372.492 370.827C372.19 376.185 375.134 380.814 379.609 383.156C381.511 384.151 382.457 386.251 382.086 388.326L378.949 405.937C378.549 408.179 380.351 410.15 382.723 410.065L390.788 409.776C393.148 409.691 394.938 407.601 394.542 405.395L391.406 387.947C391.032 385.867 392.114 383.799 394.021 382.658C398.172 380.177 400.95 375.777 400.95 370.831" fill="url(#paint30_linear_69_216)"/>
<path d="M180.205 548.985C180.207 548.833 180.199 548.681 180.159 548.528C177.88 539.492 166.568 533.863 166.568 533.863L162.085 534.214C159.508 542.179 159.839 547.064 160.253 549.239C160.265 549.301 160.283 549.359 160.3 549.417C163.997 549.748 171.608 549.963 180.205 548.985Z" fill="url(#paint31_linear_69_216)"/>
<path d="M160.299 549.417C160.499 550.144 161.035 550.708 161.722 550.853C166.982 551.959 175.343 551.07 178.852 550.611C179.627 550.509 180.193 549.794 180.205 548.985C171.608 549.963 163.997 549.748 160.299 549.417Z" fill="#91B3FA"/>
<path d="M160.283 527.538L162.182 536.678C162.321 537.347 162.835 537.849 163.459 537.907C164.222 537.978 165.308 538.021 166.4 537.861C167.379 537.717 168.061 536.721 167.888 535.653L166.568 527.538H160.283Z" fill="url(#paint32_linear_69_216)"/>
<path d="M199.618 549.301C194.669 549.163 192.108 548.579 190.784 548.038C190.78 548.531 190.784 549.031 190.799 549.552C190.816 550.106 191.227 550.548 191.732 550.545L218.914 550.369C219.782 550.364 220.289 549.357 219.912 548.562C216.349 548.857 207.271 549.516 199.618 549.301" fill="#91B3FA"/>
<path d="M219.912 548.562C219.88 548.494 219.852 548.422 219.804 548.357C217.404 545.003 211.29 538.323 199.209 535.428L193.413 535.243C193.413 535.243 190.833 539.729 190.784 548.038C192.108 548.579 194.669 549.162 199.618 549.301C207.271 549.516 216.349 548.857 219.912 548.562" fill="url(#paint33_linear_69_216)"/>
<path d="M192.081 526.729C192.173 527.158 193.377 533.66 193.845 536.182C193.956 536.781 194.423 537.221 194.978 537.252C195.971 537.306 197.571 537.313 198.948 536.939C199.69 536.738 200.188 535.98 200.136 535.141L199.487 524.854L192.081 526.729Z" fill="url(#paint34_linear_69_216)"/>
<path d="M187.689 406.657C187.689 406.657 195.662 461.442 201.415 526.636C201.523 527.85 200.555 528.907 199.363 529.157C197.603 529.528 195.02 529.968 192.882 529.908C191.739 529.876 190.786 529.029 190.593 527.903C188.634 516.409 174.647 454.718 170.977 441.14C170.977 441.14 166.759 498.814 168.107 528.736C168.141 529.48 167.596 530.125 166.856 530.21C165.734 530.34 163.938 530.439 161.653 530.196C160.786 530.104 160.086 529.449 159.963 528.586C158.566 518.857 150.53 460.95 150.872 419.237C150.891 416.884 153.632 397.558 153.632 397.558L187.689 406.657Z" fill="url(#paint35_linear_69_216)"/>
<path d="M190.779 314.526L191.845 343.193C194.877 344.238 197.764 345.048 200.512 345.656C202.232 340.119 206.018 333.326 209.117 328.274C197.728 324.248 190.779 314.526 190.779 314.526Z" fill="url(#paint36_linear_69_216)"/>
<path d="M152.434 409.814C151.614 409.524 151.042 408.78 150.953 407.915C149.893 397.628 144.76 333.85 177.168 307.614C177.168 307.614 179.026 302.752 194.304 314.705C209.581 326.659 201.401 339.187 197.743 356.468C193.318 377.381 185.553 394.473 188.989 407.342C189.226 408.23 188.759 409.162 187.897 409.479C176.029 413.854 164.208 413.999 152.434 409.814" fill="#2996C3"/>
<path d="M189.81 288.505C189.799 289.412 176.86 307.793 176.86 307.793C176.86 307.793 179.182 312.369 190.27 316.084L199.844 296.403L189.81 288.505Z" fill="url(#paint37_linear_69_216)"/>
<path d="M183.399 351.402C183.319 351.402 183.237 351.38 183.164 351.33C172.826 344.345 167.963 333.071 167.915 332.958C167.825 332.743 167.924 332.497 168.138 332.407C168.352 332.317 168.598 332.416 168.689 332.629C168.736 332.74 173.508 343.792 183.635 350.634C183.828 350.764 183.879 351.025 183.747 351.218C183.667 351.337 183.534 351.402 183.399 351.402Z" fill="url(#paint38_linear_69_216)"/>
<path d="M198.798 335.775C198.661 335.775 198.525 335.708 198.445 335.582C198.414 335.534 195.256 330.619 189.24 319.846C187.39 316.534 184.959 314.437 182.014 313.613C177.138 312.25 172.437 314.864 172.391 314.891C172.188 315.002 171.932 314.935 171.818 314.732C171.703 314.531 171.773 314.275 171.975 314.161C172.178 314.045 177.011 311.34 182.232 312.801C185.404 313.686 188.009 315.918 189.973 319.436C195.974 330.18 199.12 335.079 199.151 335.128C199.277 335.323 199.221 335.582 199.026 335.708C198.955 335.754 198.876 335.775 198.798 335.775" fill="url(#paint39_linear_69_216)"/>
<path d="M199.999 277.972C199.999 277.972 204.604 288.551 204.913 294.103C205.223 299.655 206.42 303.257 199.999 304.374C193.58 305.493 188.172 302.294 185.242 296.764C185.242 296.764 180.652 288.242 181.681 284.753C182.712 281.262 199.999 277.972 199.999 277.972Z" fill="url(#paint40_linear_69_216)"/>
<path d="M187.436 292.787L187.801 292.627C188.267 292.422 188.465 291.868 188.231 291.417C187.327 289.667 185.561 285.659 187.842 284.724C190.78 283.519 202.418 281.146 204.928 277.017C207.342 273.048 205.204 267.925 201.99 266.467C201.775 266.37 201.521 266.447 201.412 266.655L201.144 267.162C200.959 267.51 200.448 267.457 200.338 267.08C200.234 266.718 199.753 266.648 199.554 266.967C198.781 268.203 196.697 270.206 191.125 271.235C183.205 272.697 177.97 275.901 177.839 281.373C177.83 281.721 177.462 281.914 177.165 281.733C176.58 281.378 175.643 281.209 174.392 282.262C172.219 284.091 173.107 288.834 177.876 292.736C178.103 292.922 178.1 293.275 177.856 293.436C176.991 293.999 175.703 295.336 179.042 297.121C182.495 298.967 185.073 298.815 186.066 298.651C186.313 298.612 186.472 298.372 186.419 298.128L185.36 293.318C185.298 293.045 185.506 292.787 185.785 292.787H187.436" fill="url(#paint41_linear_69_216)"/>
<path d="M187.636 293.803C187.636 293.803 185.878 287.046 182.85 288.94C179.82 290.835 184.421 296.512 186.856 296.765L187.636 293.803Z" fill="url(#paint42_linear_69_216)"/>
<path d="M247.261 312.369C247.261 312.369 244.954 308.278 245.101 306.29C245.247 304.301 244.009 301.381 245.326 301.598C246.645 301.813 246.916 301.637 247.274 304.023C247.633 306.408 251.792 316.829 247.261 312.369" fill="url(#paint43_linear_69_216)"/>
<path d="M247.696 305.864L247.643 314.038C232.019 330.907 219.373 331.9 209.117 328.275C206.017 333.327 202.232 340.119 200.512 345.656C242.236 354.854 252.06 316.497 252.06 316.497C257.711 314.156 258.851 312.787 258.609 311.254L247.696 305.864Z" fill="url(#paint44_linear_69_216)"/>
<path d="M259.711 297.754C258.377 297.211 255.768 292.236 255.268 293.874C254.768 295.51 255.48 297.754 255.268 298.45C255.056 299.146 251.804 307.152 252.454 308.931C252.922 310.214 255.505 310.025 255.899 312.124C256.031 312.821 256.587 313.321 257.233 313.321C257.88 313.321 258.436 312.823 258.568 312.125C258.621 311.847 261.045 298.295 259.711 297.754" fill="url(#paint45_linear_69_216)"/>
<path d="M241.792 283.606C246.01 285.739 247.702 290.89 245.568 295.109C243.435 299.329 238.286 301.02 234.067 298.885C229.847 296.753 228.155 291.603 230.289 287.384C232.422 283.164 237.573 281.474 241.792 283.606ZM217.124 280.728C206.588 301.566 214.94 326.998 235.778 337.534C252.715 346.096 272.686 342.182 285.229 329.227L357.628 365.833C358.829 366.441 360.26 366.391 361.417 365.702L368.498 361.484C368.621 361.411 368.735 361.33 368.846 361.247C368.878 361.225 368.907 361.199 368.938 361.174C369.02 361.109 369.1 361.04 369.175 360.969C369.201 360.945 369.228 360.921 369.252 360.895C369.348 360.803 369.436 360.706 369.52 360.605L369.523 360.6C370.412 359.519 370.684 358.009 370.139 356.644L364.386 342.219C364.031 341.329 363.362 340.598 362.506 340.165L355.254 336.498L353.335 340.295L347.106 337.145L349.025 333.349L343.197 330.402L341.431 333.895L333.86 330.066L335.625 326.575L332.804 325.149L331.895 326.945L325.548 323.738L326.457 321.939L321.521 319.443L319.602 323.24L316.075 321.457L317.994 317.66L314.939 316.116L313.019 319.911L306.908 316.821L308.827 313.026L300.236 308.682L296.556 306.823C299.554 289.042 290.868 270.637 273.93 262.074C253.092 251.538 227.66 259.89 217.124 280.728" fill="url(#paint46_linear_69_216)"/>
<path d="M275.809 293.497L310.131 310.849L308.211 314.645L314.323 317.735L316.242 313.939L319.298 315.485L317.379 319.279L320.905 321.062L322.825 317.268L327.761 319.764L326.851 321.561L333.198 324.77L334.108 322.973L336.928 324.398L335.162 327.891L342.734 331.719L344.5 328.227L350.329 331.173L348.409 334.97L354.639 338.119L356.558 334.323L363.809 337.99C364.666 338.423 365.333 339.153 365.69 340.044L371.443 354.466C372.159 356.265 371.463 358.317 369.802 359.307L362.721 363.525C361.564 364.216 360.132 364.265 358.931 363.656L271.533 319.469L275.809 293.497" fill="url(#paint47_linear_69_216)"/>
<path d="M235.369 296.71C231.151 294.577 229.458 289.426 231.593 285.207C233.725 280.987 238.875 279.296 243.094 281.431C247.314 283.564 249.006 288.713 246.872 292.932C244.739 297.152 239.588 298.843 235.369 296.71ZM237.082 335.357C257.919 345.893 283.352 337.541 293.888 316.703C304.424 295.867 296.072 270.433 275.234 259.899C254.396 249.363 228.963 257.715 218.428 278.551C207.892 299.389 216.244 324.821 237.082 335.357" fill="url(#paint48_linear_69_216)"/>
<path d="M243.094 281.431C247.314 283.564 249.006 288.713 246.872 292.932C244.739 297.152 239.588 298.843 235.369 296.71C231.151 294.577 229.458 289.426 231.593 285.207C233.725 280.987 238.875 279.296 243.094 281.431ZM286.532 327.051L358.931 363.656C360.133 364.265 361.564 364.216 362.721 363.525L369.802 359.307C370.87 358.672 371.532 357.597 371.684 356.434C365.086 349.283 302.362 321.895 300.016 316.258C299.182 314.253 299.039 311.216 301.538 306.505L297.86 304.645C300.858 286.865 292.171 268.46 275.234 259.899C254.396 249.363 228.963 257.715 218.428 278.551C207.892 299.389 216.244 324.821 237.082 335.357C254.017 343.92 273.99 340.006 286.532 327.051" fill="url(#paint49_linear_69_216)"/>
<path d="M235.368 296.71C231.151 294.577 229.458 289.426 231.593 285.207C233.725 280.987 238.875 279.296 243.094 281.431C247.314 283.564 249.006 288.713 246.872 292.932C244.739 297.152 239.588 298.843 235.368 296.71ZM240.825 327.952C257.573 336.42 278.015 329.708 286.483 312.96C294.951 296.212 288.238 275.771 271.49 267.303C254.742 258.836 234.3 265.548 225.833 282.296C217.365 299.044 224.077 319.484 240.825 327.952" fill="url(#paint50_linear_69_216)"/>
<path d="M183.399 351.402C183.399 351.402 223.214 364.731 245.483 347.775C246.865 346.724 248.607 346.265 250.322 346.543L258.829 347.93C262.4 348.512 265.802 346.196 266.572 342.661C267.01 340.646 267.222 338.44 266.775 336.546L250.714 335.577L251.173 333.492C251.173 333.492 244.074 335.229 243.93 340.783C243.93 340.783 227.279 351.69 196.907 334.76C196.907 334.76 185.08 344.016 183.399 351.402Z" fill="url(#paint51_linear_69_216)"/>
<path d="M490.983 151.795C490.961 151.795 490.937 151.795 490.915 151.794C489.988 151.756 489.266 150.973 489.306 150.047C489.379 148.247 489.376 146.414 489.295 144.604C489.254 143.689 489.956 142.911 490.867 142.853L490.899 142.852C490.925 142.852 490.95 142.85 490.974 142.85C491.868 142.85 492.612 143.554 492.651 144.455C492.737 146.361 492.74 148.289 492.662 150.185C492.626 151.052 491.94 151.739 491.092 151.792C491.056 151.794 491.019 151.795 490.983 151.795M489.951 137.197C489.155 137.197 488.449 136.631 488.299 135.82C487.973 134.039 487.569 132.254 487.094 130.516C486.85 129.622 487.378 128.697 488.273 128.453C488.422 128.414 488.57 128.395 488.715 128.395C489.456 128.395 490.131 128.885 490.336 129.632C490.834 131.463 491.261 133.341 491.606 135.215C491.771 136.127 491.167 137.003 490.254 137.17C490.188 137.182 490.123 137.19 490.056 137.194C490.02 137.197 489.986 137.197 489.951 137.197M485.728 123.191C485.076 123.191 484.457 122.809 484.184 122.172C483.47 120.514 482.677 118.864 481.824 117.272C481.387 116.455 481.694 115.436 482.513 114.998C482.764 114.863 483.035 114.8 483.303 114.8C483.902 114.8 484.484 115.121 484.786 115.685C485.685 117.364 486.521 119.1 487.27 120.848C487.637 121.7 487.241 122.688 486.39 123.054C486.207 123.131 486.019 123.176 485.833 123.188C485.798 123.189 485.764 123.191 485.728 123.191M478.476 110.478C477.958 110.478 477.448 110.239 477.118 109.789C476.052 108.328 474.909 106.898 473.721 105.537C473.112 104.837 473.185 103.776 473.885 103.167C474.204 102.889 474.596 102.754 474.987 102.754C475.456 102.754 475.922 102.949 476.255 103.329C477.504 104.764 478.707 106.271 479.831 107.806C480.377 108.555 480.215 109.606 479.466 110.154C479.198 110.35 478.891 110.454 478.582 110.475C478.546 110.476 478.51 110.478 478.476 110.478M468.572 99.7001C468.181 99.7001 467.789 99.5653 467.47 99.2889C466.108 98.1048 464.677 96.9616 463.216 95.8935C462.467 95.3441 462.303 94.2948 462.851 93.5458C463.18 93.0953 463.69 92.8565 464.207 92.8565C464.552 92.8565 464.9 92.9623 465.199 93.1807C466.736 94.3051 468.243 95.5079 469.674 96.7534C470.374 97.3625 470.449 98.4238 469.84 99.1233C469.532 99.4765 469.111 99.6693 468.678 99.6966C468.644 99.7 468.608 99.7001 468.572 99.7001M456.531 91.384C456.263 91.384 455.99 91.3192 455.738 91.1827C454.148 90.3279 452.499 89.5311 450.839 88.8145C449.988 88.446 449.596 87.4581 449.964 86.6067C450.239 85.972 450.856 85.5915 451.506 85.5915C451.73 85.5915 451.955 85.6358 452.174 85.7297C453.919 86.4838 455.654 87.325 457.328 88.2242C458.145 88.6627 458.452 89.6812 458.014 90.4985C457.727 91.0291 457.198 91.3448 456.639 91.3806C456.603 91.3823 456.567 91.384 456.531 91.384M394.847 91.2919C394.246 91.2919 393.666 90.9677 393.364 90.4013C392.928 89.5823 393.236 88.5654 394.055 88.1286C395.732 87.2345 397.471 86.4019 399.223 85.6529C399.438 85.5608 399.662 85.5181 399.882 85.5181C400.535 85.5181 401.156 85.9003 401.428 86.5384C401.793 87.3915 401.397 88.3777 400.544 88.7428C398.879 89.4526 397.229 90.2443 395.635 91.094C395.417 91.21 395.185 91.2731 394.953 91.2885C394.919 91.2902 394.883 91.2919 394.847 91.2919M442.958 85.9447C442.81 85.9447 442.66 85.9259 442.51 85.8832C440.769 85.4055 438.986 84.996 437.21 84.6667C436.299 84.4978 435.695 83.6225 435.864 82.7097C436.014 81.8993 436.722 81.3362 437.519 81.3362C437.618 81.3362 437.72 81.3447 437.821 81.3635C439.691 81.7082 441.57 82.1399 443.402 82.6449C444.296 82.8906 444.822 83.8153 444.576 84.7111C444.381 85.4209 443.759 85.8969 443.062 85.9413C443.028 85.9447 442.994 85.9447 442.958 85.9447M408.454 85.9054C407.713 85.9054 407.036 85.4123 406.833 84.6633C406.591 83.7693 407.121 82.8462 408.017 82.6039C409.851 82.1074 411.732 81.6843 413.605 81.3447C413.707 81.326 413.81 81.3175 413.91 81.3175C414.705 81.3175 415.41 81.889 415.557 82.6978C415.722 83.6106 415.117 84.4859 414.204 84.6514C412.423 84.9738 410.636 85.3765 408.892 85.8474C408.782 85.8781 408.671 85.8952 408.56 85.902C408.524 85.9037 408.488 85.9054 408.454 85.9054M428.502 83.6754C428.48 83.6754 428.456 83.6754 428.432 83.6737C427.522 83.6345 426.606 83.6157 425.69 83.6157C424.789 83.6157 423.888 83.6345 422.992 83.672C422.969 83.6737 422.943 83.6737 422.919 83.6737C422.025 83.6737 421.281 82.9674 421.242 82.0648C421.204 81.1503 421.904 80.3756 422.813 80.3176L422.849 80.3159C423.796 80.275 424.75 80.2562 425.702 80.2562C426.662 80.2562 427.623 80.2767 428.577 80.3176C429.503 80.3569 430.222 81.1417 430.182 82.0682C430.145 82.9332 429.459 83.6174 428.613 83.672C428.577 83.6737 428.539 83.6754 428.502 83.6754" fill="#DEE8FD"/>
<path d="M384.983 97.7601C384.488 97.7601 383.997 97.5435 383.666 97.1254C383.089 96.3986 383.21 95.3424 383.937 94.7658C384.65 94.1993 385.388 93.638 386.128 93.0971C386.427 92.8787 386.773 92.7729 387.118 92.7729C387.636 92.7729 388.146 93.0135 388.476 93.4639C389.022 94.213 388.858 95.264 388.109 95.81C387.404 96.3252 386.705 96.8576 386.026 97.3967C385.748 97.6185 385.42 97.7363 385.089 97.7567C385.053 97.7601 385.017 97.7601 384.983 97.7601Z" fill="url(#paint52_linear_69_216)"/>
<path d="M360.489 142.741C360.438 142.741 360.385 142.737 360.332 142.732C359.408 142.643 358.732 141.824 358.819 140.9C358.906 139.992 359.014 139.071 359.138 138.163C359.254 137.322 359.971 136.711 360.8 136.711C360.877 136.711 360.954 136.716 361.032 136.728C361.952 136.854 362.593 137.701 362.467 138.62C362.349 139.484 362.247 140.359 362.165 141.221C362.085 142.053 361.409 142.686 360.6 142.737C360.564 142.739 360.527 142.741 360.489 142.741" fill="url(#paint53_linear_69_216)"/>
<path d="M426.47 214.451C425.555 214.451 424.804 213.713 424.792 212.794C424.779 211.867 425.519 211.106 426.447 211.091C428.213 211.065 430.007 210.965 431.795 210.791C431.851 210.784 431.907 210.782 431.964 210.782C432.813 210.782 433.545 211.432 433.63 212.299C433.719 213.224 433.044 214.044 432.12 214.135C431.346 214.21 430.571 214.273 429.8 214.321C428.7 214.391 427.589 214.435 426.495 214.451C426.487 214.451 426.478 214.451 426.47 214.451M417.561 213.968C417.493 213.968 417.425 213.963 417.355 213.954C415.5 213.725 413.63 213.415 411.796 213.029C410.887 212.838 410.307 211.948 410.498 211.038C410.663 210.248 411.363 209.706 412.141 209.706C412.255 209.706 412.371 209.716 412.487 209.741C414.229 210.108 416.005 210.403 417.766 210.62C418.688 210.734 419.341 211.572 419.228 212.494C419.128 213.307 418.459 213.913 417.669 213.964C417.633 213.966 417.597 213.968 417.561 213.968M440.762 212.678C440.001 212.678 439.312 212.157 439.13 211.385C438.916 210.482 439.474 209.578 440.377 209.363C442.11 208.951 443.844 208.463 445.531 207.911C445.705 207.853 445.883 207.825 446.055 207.825C446.761 207.825 447.42 208.278 447.65 208.984C447.94 209.866 447.459 210.815 446.577 211.103C444.801 211.685 442.975 212.2 441.151 212.632C441.058 212.654 440.962 212.668 440.868 212.674C440.832 212.676 440.798 212.678 440.762 212.678M403.562 210.636C403.374 210.636 403.182 210.603 402.994 210.535C401.237 209.905 399.481 209.189 397.776 208.411C396.932 208.025 396.562 207.029 396.947 206.184C397.229 205.566 397.838 205.203 398.476 205.203C398.71 205.203 398.947 205.251 399.172 205.355C400.793 206.095 402.46 206.774 404.129 207.373C405.002 207.687 405.456 208.648 405.144 209.521C404.91 210.173 404.316 210.589 403.668 210.632C403.634 210.634 403.598 210.636 403.562 210.636ZM454.328 207.832C453.706 207.832 453.108 207.486 452.817 206.889C452.411 206.056 452.755 205.049 453.59 204.643C455.188 203.862 456.772 203.005 458.297 202.093C458.567 201.932 458.865 201.855 459.157 201.855C459.729 201.855 460.286 202.147 460.6 202.674C461.076 203.469 460.817 204.5 460.02 204.976C458.415 205.937 456.746 206.841 455.064 207.662C454.861 207.761 454.647 207.815 454.434 207.829C454.398 207.832 454.363 207.832 454.328 207.832M390.631 204.311C390.322 204.311 390.011 204.227 389.732 204.05C388.768 203.439 387.812 202.797 386.875 202.135C387.921 201.589 388.841 200.833 389.576 199.922C390.221 200.366 390.873 200.796 391.53 201.212C392.315 201.709 392.547 202.746 392.05 203.531C391.75 204.002 391.255 204.275 390.737 204.307C390.701 204.309 390.665 204.311 390.631 204.311" fill="url(#paint54_linear_69_216)"/>
<path d="M386.875 202.135C386.276 201.71 385.684 201.279 385.103 200.837C384.364 200.277 384.217 199.224 384.778 198.484C385.109 198.047 385.611 197.818 386.118 197.818C386.471 197.818 386.827 197.929 387.131 198.16C387.928 198.764 388.747 199.352 389.576 199.922C388.841 200.833 387.921 201.589 386.875 202.135Z" fill="url(#paint55_linear_69_216)"/>
<path d="M374.99 191.395C374.784 191.159 374.581 190.922 374.378 190.683C373.779 189.975 373.866 188.916 374.574 188.315C374.89 188.047 375.275 187.917 375.659 187.917C376.125 187.917 376.587 188.11 376.918 188.486C376.091 189.305 375.429 190.294 374.99 191.395" fill="url(#paint56_linear_69_216)"/>
<path d="M379.385 195.317C378.955 195.317 378.525 195.153 378.198 194.827C377.094 193.725 376.017 192.574 374.99 191.395C375.429 190.294 376.091 189.304 376.918 188.486C376.927 188.494 376.934 188.503 376.942 188.511C378.089 189.866 379.31 191.192 380.571 192.449C381.228 193.104 381.23 194.167 380.575 194.824C380.273 195.126 379.885 195.29 379.491 195.314C379.455 195.317 379.42 195.317 379.385 195.317" fill="url(#paint57_linear_69_216)"/>
<path d="M370.37 184.087C369.814 184.087 369.271 183.812 368.95 183.309C367.945 181.727 366.997 180.084 366.13 178.426C365.7 177.603 366.019 176.588 366.841 176.158C367.089 176.029 367.355 175.967 367.616 175.967C368.222 175.967 368.809 176.297 369.109 176.87C369.931 178.445 370.832 180.004 371.786 181.507C372.284 182.29 372.052 183.328 371.269 183.824C371.022 183.983 370.75 184.067 370.476 184.084C370.441 184.085 370.406 184.087 370.37 184.087" fill="url(#paint58_linear_69_216)"/>
<path d="M364.415 165.177H360.924C360.877 165.003 360.829 164.827 360.783 164.652C360.546 163.754 361.08 162.835 361.975 162.597C362.119 162.56 362.264 162.541 362.405 162.541C363.149 162.541 363.83 163.038 364.03 163.79C364.153 164.252 364.282 164.717 364.415 165.177" fill="url(#paint59_linear_69_216)"/>
<path d="M364.038 171.147C363.349 171.147 362.702 170.719 362.456 170.031C361.888 168.443 361.373 166.812 360.924 165.177H364.415C364.779 166.431 365.183 167.678 365.62 168.9C365.932 169.774 365.478 170.734 364.605 171.048C364.453 171.101 364.297 171.134 364.144 171.144C364.108 171.145 364.074 171.147 364.038 171.147" fill="url(#paint60_linear_69_216)"/>
<path d="M360.704 157.141C359.87 157.141 359.146 156.518 359.04 155.669C358.868 154.302 358.738 152.913 358.651 151.541C358.619 151.045 358.593 150.548 358.573 150.054C358.534 149.127 359.242 148.327 360.182 148.306C360.206 148.305 360.23 148.305 360.253 148.305C361.147 148.305 361.891 149.011 361.929 149.914C361.949 150.385 361.973 150.857 362.004 151.328C362.086 152.633 362.21 153.952 362.373 155.252C362.489 156.172 361.835 157.011 360.914 157.127C360.88 157.131 360.845 157.134 360.811 157.138C360.776 157.139 360.74 157.141 360.704 157.141" fill="url(#paint61_linear_69_216)"/>
<path d="M466.523 200.093C466.032 200.093 465.544 199.878 465.213 199.465C464.632 198.741 464.748 197.684 465.472 197.103C466.146 196.563 466.82 195.998 467.478 195.425C467.797 195.147 468.19 195.01 468.581 195.01C469.05 195.01 469.516 195.206 469.848 195.587C470.457 196.286 470.386 197.346 469.686 197.957C468.993 198.561 468.284 199.156 467.574 199.724C467.294 199.949 466.963 200.069 466.63 200.089C466.595 200.093 466.559 200.093 466.523 200.093Z" fill="url(#paint62_linear_69_216)"/>
<path d="M469.804 171.468C469.998 171.195 469.998 170.828 469.805 170.555L464.27 162.766C465.972 158.639 467.026 154.213 467.328 149.63L475.724 145.083C476.019 144.923 476.18 144.594 476.125 144.264L474.25 132.957C474.195 132.626 473.938 132.367 473.607 132.311L464.192 130.717C462.426 126.477 460 122.628 457.058 119.272L459.781 110.113C459.877 109.791 459.758 109.446 459.485 109.25L450.164 102.58C449.892 102.386 449.525 102.386 449.252 102.579L441.462 108.113C437.336 106.412 432.911 105.358 428.328 105.056L423.779 96.6597C423.62 96.3645 423.291 96.2041 422.96 96.2587L411.653 98.1339C411.322 98.1885 411.063 98.4461 411.008 98.7771L409.413 108.192C405.173 109.958 401.324 112.384 397.969 115.326L388.809 112.602C388.488 112.507 388.142 112.626 387.947 112.899L381.278 122.22C381.083 122.492 381.081 122.858 381.276 123.131L386.811 130.922C385.11 135.048 384.053 139.473 383.753 144.056L375.355 148.605C375.062 148.764 374.9 149.093 374.954 149.424L376.829 160.731C376.886 161.062 377.143 161.321 377.474 161.376L386.889 162.971C388.653 167.211 391.081 171.06 394.023 174.416L391.3 183.575C391.204 183.896 391.324 184.242 391.595 184.437L400.918 191.106C401.189 191.301 401.556 191.303 401.829 191.108L409.617 185.575C413.745 187.274 418.171 188.33 422.754 188.632L427.301 197.029C427.461 197.322 427.79 197.484 428.12 197.43L439.428 195.554C439.758 195.498 440.017 195.24 440.073 194.909L441.667 185.495C445.907 183.73 449.756 181.303 453.112 178.361L462.271 181.084C462.593 181.18 462.938 181.062 463.134 180.789L469.804 171.468" fill="#6DB5D2"/>
<path d="M419.833 140.101C418.033 141.627 416.932 143.761 416.738 146.112C416.333 150.966 419.954 155.244 424.808 155.646C429.664 156.053 433.94 152.43 434.344 147.574C434.747 142.722 431.126 138.445 426.272 138.04C425.832 138.004 425.395 137.999 424.962 138.028C423.083 138.146 421.297 138.863 419.833 140.101V140.101ZM424.586 158.325C418.255 157.8 413.533 152.22 414.059 145.889C414.313 142.823 415.748 140.038 418.098 138.05C420.445 136.061 423.428 135.107 426.495 135.361C432.825 135.889 437.548 141.466 437.023 147.798C436.543 153.558 431.884 157.987 426.279 158.342C425.723 158.378 425.156 158.373 424.586 158.325Z" fill="#BDD0FB"/>
<path d="M427.097 174.964C428.06 174.903 429.024 174.793 429.989 174.633C430.293 174.583 430.595 174.527 430.897 174.467C432.387 174.172 433.849 173.758 435.263 173.232C435.282 173.224 435.301 173.217 435.32 173.21C435.374 173.19 435.429 173.169 435.483 173.149C435.591 173.108 435.697 173.067 435.802 173.024C436.079 172.915 436.243 172.64 436.226 172.359C436.22 172.289 436.205 172.22 436.18 172.152C436.043 171.808 435.652 171.639 435.308 171.775C433.532 172.478 431.668 172.993 429.769 173.307C420.336 174.874 411.216 171.318 405.256 164.682C401.94 160.992 399.602 156.348 398.732 151.101C398.58 150.181 398.474 149.26 398.416 148.34C398.025 142.162 399.757 136.087 403.409 130.983C407.602 125.121 413.828 121.244 420.94 120.064C435.625 117.631 449.542 127.593 451.976 142.271C452.126 143.176 452.23 144.085 452.288 144.995C452.537 148.936 451.921 152.889 450.471 156.566C450.433 156.662 450.418 156.761 450.425 156.856C450.44 157.107 450.599 157.339 450.849 157.438C451.194 157.573 451.585 157.405 451.721 157.059C453.243 153.198 453.89 149.049 453.629 144.911C453.567 143.956 453.46 143.002 453.301 142.051C450.747 126.639 436.125 116.184 420.72 118.738C413.255 119.977 406.719 124.048 402.315 130.202C398.481 135.559 396.664 141.937 397.075 148.424C397.137 149.388 397.247 150.354 397.406 151.319C398.645 158.786 402.716 165.322 408.87 169.726C414.228 173.56 420.609 175.377 427.097 174.964Z" fill="#BDD0FB"/>
<path d="M551.04 192.342C550.964 192.342 550.888 192.335 550.811 192.318C550.251 192.19 549.901 191.635 550.028 191.077C550.212 190.257 550.376 189.421 550.511 188.591C550.594 188.085 551.033 187.721 551.531 187.721C551.587 187.721 551.645 187.726 551.702 187.737C552.268 187.829 552.652 188.363 552.558 188.928C552.416 189.798 552.246 190.675 552.051 191.533C551.947 191.994 551.553 192.313 551.106 192.34C551.084 192.342 551.062 192.342 551.04 192.342" fill="#DEE8FD"/>
<path d="M552.073 184.428C552.059 184.428 552.048 184.428 552.036 184.428C551.462 184.406 551.017 183.925 551.037 183.352C551.094 181.907 551.075 180.441 550.983 178.999C550.964 178.694 550.942 178.388 550.915 178.083C550.867 177.513 551.29 177.011 551.862 176.962C551.877 176.962 551.892 176.96 551.909 176.96C552.433 176.96 552.936 177.354 552.983 177.909C553.01 178.23 553.034 178.549 553.054 178.868C553.15 180.38 553.17 181.915 553.112 183.432C553.092 183.968 552.667 184.394 552.141 184.427C552.119 184.428 552.095 184.428 552.073 184.428ZM551.167 173.695C550.686 173.695 550.254 173.359 550.152 172.869C549.794 171.154 549.324 169.444 548.76 167.789C548.574 167.247 548.862 166.658 549.406 166.472C549.516 166.435 549.628 166.418 549.739 166.418C550.171 166.418 550.575 166.687 550.724 167.119C551.316 168.852 551.807 170.646 552.182 172.444C552.3 173.005 551.94 173.555 551.38 173.672C551.331 173.683 551.281 173.69 551.232 173.693C551.21 173.695 551.188 173.695 551.167 173.695M547.681 163.502C547.297 163.502 546.927 163.287 546.748 162.918C545.98 161.345 545.105 159.804 544.148 158.335C543.836 157.856 543.97 157.213 544.45 156.901C544.626 156.786 544.823 156.732 545.018 156.732C545.356 156.732 545.687 156.897 545.886 157.203C546.89 158.741 547.808 160.359 548.613 162.009C548.864 162.524 548.65 163.145 548.135 163.396C548.009 163.457 547.878 163.492 547.746 163.5C547.724 163.5 547.702 163.502 547.681 163.502M541.795 154.478C541.5 154.478 541.206 154.351 541.002 154.109C539.87 152.77 538.645 151.488 537.361 150.303C536.939 149.914 536.914 149.257 537.303 148.837C537.507 148.615 537.785 148.503 538.065 148.503C538.318 148.503 538.569 148.595 538.768 148.777C540.116 150.023 541.399 151.366 542.587 152.77C542.957 153.207 542.902 153.862 542.464 154.232C542.286 154.38 542.075 154.461 541.862 154.474C541.839 154.476 541.817 154.478 541.795 154.478M533.885 147.163C533.675 147.163 533.464 147.1 533.279 146.969C531.856 145.945 530.358 145.001 528.823 144.16C528.321 143.886 528.137 143.254 528.412 142.751C528.601 142.408 528.956 142.212 529.323 142.212C529.492 142.212 529.662 142.253 529.821 142.342C531.428 143.222 533 144.212 534.491 145.283C534.957 145.619 535.062 146.267 534.728 146.732C534.539 146.994 534.25 147.143 533.95 147.162C533.929 147.163 533.907 147.163 533.885 147.163M524.44 141.992C524.313 141.992 524.184 141.97 524.057 141.92C522.431 141.273 520.747 140.724 519.056 140.286C518.502 140.141 518.168 139.574 518.313 139.02C518.434 138.552 518.853 138.243 519.316 138.243C519.403 138.243 519.49 138.253 519.577 138.276C521.351 138.736 523.117 139.313 524.823 139.99C525.356 140.202 525.617 140.806 525.405 141.338C525.252 141.722 524.893 141.966 524.506 141.99C524.484 141.992 524.462 141.992 524.44 141.992M497.937 140.178C497.47 140.178 497.045 139.859 496.93 139.385C496.794 138.828 497.135 138.267 497.691 138.132C499.234 137.755 500.821 137.458 502.407 137.247C502.65 137.213 502.889 137.184 503.129 137.155C503.177 137.148 503.225 137.144 503.271 137.144C503.779 137.144 504.219 137.544 504.279 138.067C504.346 138.636 503.938 139.151 503.368 139.217C503.143 139.243 502.916 139.272 502.687 139.303C501.169 139.506 499.654 139.789 498.183 140.147C498.123 140.163 498.062 140.171 498.002 140.175C497.98 140.176 497.959 140.178 497.937 140.178M514.02 139.289C513.975 139.289 513.931 139.286 513.885 139.281C512.155 139.054 510.387 138.933 508.63 138.922C508.058 138.919 507.596 138.451 507.599 137.878C507.603 137.307 508.07 136.853 508.644 136.848C510.485 136.859 512.339 136.984 514.155 137.223C514.723 137.296 515.124 137.817 515.049 138.385C514.984 138.885 514.573 139.255 514.086 139.286C514.064 139.287 514.042 139.289 514.02 139.289" fill="#DEE8FD"/>
<path d="M508.286 226.478C507.226 226.478 506.165 226.44 505.114 226.367C504.544 226.326 504.112 225.829 504.153 225.258C504.192 224.708 504.655 224.294 505.196 224.294C505.218 224.294 505.24 224.295 505.262 224.297C506.26 224.367 507.27 224.403 508.28 224.403C509.002 224.403 509.724 224.384 510.442 224.348C510.459 224.346 510.478 224.346 510.495 224.346C511.044 224.346 511.502 224.778 511.529 225.333C511.558 225.899 511.125 226.384 510.56 226.42L510.546 226.421C509.796 226.459 509.04 226.478 508.286 226.478ZM515.769 225.836C515.274 225.836 514.836 225.479 514.749 224.974C514.651 224.41 515.03 223.874 515.595 223.777C517.294 223.483 518.992 223.086 520.642 222.593C520.741 222.563 520.84 222.55 520.937 222.55C521.384 222.55 521.799 222.838 521.933 223.29C522.097 223.838 521.785 224.416 521.237 224.58C519.507 225.097 517.728 225.515 515.946 225.821C515.909 225.827 515.873 225.833 515.835 225.834C515.813 225.836 515.791 225.836 515.769 225.836M499.927 225.67C499.862 225.67 499.794 225.665 499.727 225.652C497.951 225.304 496.182 224.845 494.469 224.285C493.923 224.108 493.626 223.522 493.803 222.978C493.945 222.54 494.351 222.261 494.79 222.261C494.895 222.261 495.005 222.279 495.11 222.313C496.745 222.845 498.432 223.284 500.127 223.616C500.688 223.727 501.055 224.271 500.944 224.833C500.852 225.305 500.452 225.64 499.992 225.669C499.971 225.671 499.949 225.67 499.927 225.67" fill="url(#paint63_linear_69_216)"/>
<path d="M531.229 220.19C530.971 219.567 530.707 218.936 530.444 218.315C530.51 218.301 530.579 218.295 530.645 218.295C531 218.295 531.345 218.475 531.539 218.801C531.821 219.277 531.679 219.885 531.229 220.19Z" fill="#DEE8FD"/>
<path d="M526.234 222.746V220.479C527.562 219.866 528.864 219.182 530.118 218.44C530.222 218.378 530.331 218.337 530.444 218.315C530.706 218.936 530.971 219.567 531.228 220.19C531.211 220.202 531.193 220.214 531.176 220.224C529.623 221.146 527.995 221.982 526.34 222.707C526.304 222.722 526.27 222.734 526.234 222.746" fill="url(#paint64_linear_69_216)"/>
<path d="M525.924 222.794C525.525 222.794 525.143 222.562 524.972 222.173C524.743 221.649 524.982 221.036 525.506 220.806C525.75 220.699 525.992 220.589 526.235 220.478V222.746C526.154 222.772 526.071 222.787 525.989 222.792C525.967 222.794 525.945 222.794 525.924 222.794ZM489.855 222.389C489.708 222.389 489.56 222.357 489.418 222.292C487.782 221.528 486.175 220.658 484.643 219.7C484.156 219.398 484.008 218.759 484.312 218.271C484.508 217.957 484.847 217.783 485.194 217.783C485.38 217.783 485.571 217.834 485.741 217.94C487.204 218.853 488.734 219.683 490.295 220.41C490.814 220.653 491.039 221.27 490.797 221.791C490.631 222.145 490.287 222.364 489.922 222.386C489.899 222.388 489.877 222.389 489.855 222.389M480.865 216.786C480.636 216.786 480.406 216.71 480.215 216.556C478.806 215.421 477.454 214.189 476.197 212.898C475.798 212.488 475.806 211.831 476.216 211.432C476.417 211.236 476.678 211.137 476.939 211.137C477.21 211.137 477.48 211.243 477.683 211.451C478.882 212.683 480.172 213.857 481.517 214.94C481.962 215.3 482.032 215.954 481.674 216.399C481.483 216.634 481.211 216.766 480.93 216.783C480.908 216.785 480.887 216.786 480.865 216.786M473.475 209.19C473.162 209.19 472.853 209.049 472.648 208.781C471.553 207.341 470.534 205.821 469.625 204.264C469.336 203.77 469.502 203.133 469.997 202.845C470.162 202.749 470.341 202.703 470.519 202.703C470.875 202.703 471.223 202.888 471.416 203.217C472.283 204.701 473.254 206.152 474.3 207.523C474.648 207.979 474.559 208.631 474.103 208.977C473.934 209.107 473.738 209.175 473.54 209.187C473.518 209.189 473.496 209.19 473.475 209.19" fill="url(#paint65_linear_69_216)"/>
<path d="M535.078 217.36C534.769 217.36 534.462 217.22 534.257 216.957C533.906 216.503 533.989 215.851 534.443 215.502C535.113 214.983 535.77 214.442 536.398 213.894C536.594 213.724 536.838 213.64 537.079 213.64C537.369 213.64 537.657 213.76 537.862 213.995C538.239 214.427 538.193 215.082 537.763 215.459C537.105 216.032 536.415 216.599 535.712 217.141C535.542 217.274 535.344 217.344 535.144 217.356C535.122 217.358 535.1 217.36 535.078 217.36" fill="#DEE8FD"/>
<path d="M537.898 197.798C538.028 197.615 538.028 197.37 537.898 197.187L534.196 191.975C535.334 189.214 536.04 186.252 536.241 183.186L541.86 180.142C542.058 180.035 542.165 179.815 542.128 179.594L540.874 172.027C540.836 171.807 540.664 171.633 540.444 171.596L534.143 170.529C532.962 167.692 531.338 165.116 529.369 162.87L531.191 156.742C531.256 156.527 531.176 156.295 530.993 156.165L524.755 151.701C524.574 151.572 524.329 151.57 524.146 151.7L518.934 155.404C516.173 154.266 513.211 153.56 510.143 153.358L507.101 147.74C506.994 147.542 506.774 147.434 506.554 147.47L498.987 148.726C498.765 148.762 498.592 148.936 498.555 149.156L497.487 155.457C494.651 156.638 492.075 158.262 489.829 160.231L483.701 158.409C483.486 158.344 483.254 158.424 483.124 158.607L478.661 164.843C478.529 165.025 478.529 165.271 478.659 165.453L482.363 170.666C481.225 173.427 480.519 176.389 480.317 179.455L474.697 182.498C474.501 182.606 474.393 182.826 474.429 183.046L475.685 190.613C475.721 190.835 475.893 191.007 476.115 191.045L482.416 192.111C483.597 194.949 485.221 197.525 487.188 199.77L485.366 205.899C485.303 206.114 485.381 206.346 485.564 206.476L491.802 210.939C491.984 211.07 492.23 211.07 492.413 210.941L497.625 207.237C500.386 208.375 503.348 209.081 506.414 209.282L509.457 214.903C509.563 215.099 509.783 215.206 510.005 215.17L517.572 213.915C517.792 213.879 517.966 213.705 518.004 213.485L519.07 207.184C521.908 206.003 524.482 204.379 526.729 202.41L532.858 204.232C533.073 204.297 533.305 204.217 533.435 204.036L537.898 197.798" fill="#6DB5D2"/>
<path d="M502.525 180.842C502.397 182.379 502.877 183.874 503.873 185.051C504.868 186.227 506.264 186.947 507.801 187.075C509.338 187.199 510.831 186.723 512.01 185.727C513.186 184.73 513.904 183.335 514.032 181.799C514.296 178.627 511.93 175.832 508.758 175.568C508.471 175.544 508.188 175.541 507.91 175.559C505.102 175.737 502.766 177.957 502.525 180.842V180.842ZM507.63 189.141C505.54 188.968 503.643 187.991 502.288 186.39C500.935 184.792 500.283 182.76 500.457 180.671C500.816 176.358 504.61 173.149 508.93 173.5C513.242 173.858 516.458 177.66 516.1 181.97C515.926 184.06 514.95 185.955 513.349 187.31C512.049 188.41 510.462 189.047 508.792 189.153C508.408 189.177 508.019 189.173 507.63 189.141" fill="#BDD0FB"/>
<path d="M509.377 200.722C510.032 200.68 510.691 200.605 511.351 200.495C512.665 200.279 513.957 199.927 515.195 199.451C515.25 199.429 515.306 199.407 515.361 199.386C515.791 199.216 516.043 198.793 516.016 198.356C516.009 198.25 515.985 198.143 515.944 198.039C515.735 197.506 515.131 197.249 514.598 197.457C513.447 197.912 512.24 198.245 511.014 198.448C510.945 198.46 510.879 198.47 510.81 198.48C507.903 198.934 504.992 198.646 502.293 197.68C500.828 197.156 499.425 196.431 498.118 195.513L498.086 195.491C498.053 195.467 498.021 195.445 497.99 195.423C494.194 192.707 491.684 188.677 490.921 184.073C490.821 183.478 490.754 182.881 490.717 182.287C490.462 178.286 491.583 174.353 493.946 171.05C496.663 167.254 500.693 164.744 505.296 163.981C509.898 163.22 514.525 164.293 518.319 167.008C522.114 169.722 524.626 173.754 525.388 178.358C525.486 178.943 525.554 179.531 525.59 180.12C525.752 182.673 525.354 185.23 524.414 187.61C524.356 187.757 524.334 187.909 524.344 188.057C524.368 188.445 524.612 188.805 524.998 188.956C525.532 189.165 526.134 188.905 526.345 188.371C527.395 185.708 527.842 182.845 527.661 179.99C527.62 179.332 527.545 178.673 527.436 178.018C526.583 172.867 523.772 168.358 519.527 165.32C515.281 162.283 510.109 161.075 504.957 161.934C499.807 162.788 495.298 165.595 492.261 169.842C489.614 173.539 488.362 177.94 488.645 182.415C488.686 183.079 488.763 183.746 488.874 184.411C490.527 194.384 499.5 201.349 509.377 200.722" fill="#BDD0FB"/>
<defs>
<linearGradient id="paint0_linear_69_216" x1="180.668" y1="316.985" x2="216.579" y2="316.985" gradientUnits="userSpaceOnUse">
<stop stop-color="#DAE3FE"/>
<stop offset="1" stop-color="#E9EFFD"/>
</linearGradient>
<linearGradient id="paint1_linear_69_216" x1="140.732" y1="316.981" x2="176.569" y2="316.981" gradientUnits="userSpaceOnUse">
<stop stop-color="#DAE3FE"/>
<stop offset="1" stop-color="#E9EFFD"/>
</linearGradient>
<linearGradient id="paint2_linear_69_216" x1="100.836" y1="316.976" x2="136.599" y2="316.976" gradientUnits="userSpaceOnUse">
<stop stop-color="#DAE3FE"/>
<stop offset="1" stop-color="#E9EFFD"/>
</linearGradient>
<linearGradient id="paint3_linear_69_216" x1="180.222" y1="343.112" x2="216.071" y2="343.112" gradientUnits="userSpaceOnUse">
<stop stop-color="#DAE3FE"/>
<stop offset="1" stop-color="#E9EFFD"/>
</linearGradient>
<linearGradient id="paint4_linear_69_216" x1="140.356" y1="343.095" x2="176.131" y2="343.095" gradientUnits="userSpaceOnUse">
<stop stop-color="#DAE3FE"/>
<stop offset="1" stop-color="#E9EFFD"/>
</linearGradient>
<linearGradient id="paint5_linear_69_216" x1="100.53" y1="343.079" x2="136.23" y2="343.079" gradientUnits="userSpaceOnUse">
<stop stop-color="#DAE3FE"/>
<stop offset="1" stop-color="#E9EFFD"/>
</linearGradient>
<linearGradient id="paint6_linear_69_216" x1="179.779" y1="369.013" x2="215.564" y2="369.013" gradientUnits="userSpaceOnUse">
<stop stop-color="#DAE3FE"/>
<stop offset="1" stop-color="#E9EFFD"/>
</linearGradient>
<linearGradient id="paint7_linear_69_216" x1="139.982" y1="368.983" x2="175.693" y2="368.983" gradientUnits="userSpaceOnUse">
<stop stop-color="#DAE3FE"/>
<stop offset="1" stop-color="#E9EFFD"/>
</linearGradient>
<linearGradient id="paint8_linear_69_216" x1="100.225" y1="368.954" x2="135.862" y2="368.954" gradientUnits="userSpaceOnUse">
<stop stop-color="#DAE3FE"/>
<stop offset="1" stop-color="#E9EFFD"/>
</linearGradient>
<linearGradient id="paint9_linear_69_216" x1="179.337" y1="394.825" x2="215.06" y2="394.825" gradientUnits="userSpaceOnUse">
<stop stop-color="#DAE3FE"/>
<stop offset="1" stop-color="#E9EFFD"/>
</linearGradient>
<linearGradient id="paint10_linear_69_216" x1="139.609" y1="394.782" x2="175.258" y2="394.782" gradientUnits="userSpaceOnUse">
<stop stop-color="#DAE3FE"/>
<stop offset="1" stop-color="#E9EFFD"/>
</linearGradient>
<linearGradient id="paint11_linear_69_216" x1="99.9209" y1="394.739" x2="135.496" y2="394.739" gradientUnits="userSpaceOnUse">
<stop stop-color="#DAE3FE"/>
<stop offset="1" stop-color="#E9EFFD"/>
</linearGradient>
<linearGradient id="paint12_linear_69_216" x1="178.897" y1="420.546" x2="214.557" y2="420.546" gradientUnits="userSpaceOnUse">
<stop stop-color="#DAE3FE"/>
<stop offset="1" stop-color="#E9EFFD"/>
</linearGradient>
<linearGradient id="paint13_linear_69_216" x1="139.237" y1="420.491" x2="174.824" y2="420.491" gradientUnits="userSpaceOnUse">
<stop stop-color="#DAE3FE"/>
<stop offset="1" stop-color="#E9EFFD"/>
</linearGradient>
<linearGradient id="paint14_linear_69_216" x1="99.6177" y1="420.435" x2="135.131" y2="420.435" gradientUnits="userSpaceOnUse">
<stop stop-color="#DAE3FE"/>
<stop offset="1" stop-color="#E9EFFD"/>
</linearGradient>
<linearGradient id="paint15_linear_69_216" x1="178.457" y1="446.18" x2="214.055" y2="446.18" gradientUnits="userSpaceOnUse">
<stop stop-color="#DAE3FE"/>
<stop offset="1" stop-color="#E9EFFD"/>
</linearGradient>
<linearGradient id="paint16_linear_69_216" x1="138.866" y1="446.111" x2="174.391" y2="446.111" gradientUnits="userSpaceOnUse">
<stop stop-color="#DAE3FE"/>
<stop offset="1" stop-color="#E9EFFD"/>
</linearGradient>
<linearGradient id="paint17_linear_69_216" x1="99.3157" y1="446.043" x2="134.767" y2="446.043" gradientUnits="userSpaceOnUse">
<stop stop-color="#DAE3FE"/>
<stop offset="1" stop-color="#E9EFFD"/>
</linearGradient>
<linearGradient id="paint18_linear_69_216" x1="178.02" y1="471.723" x2="213.556" y2="471.723" gradientUnits="userSpaceOnUse">
<stop stop-color="#DAE3FE"/>
<stop offset="1" stop-color="#E9EFFD"/>
</linearGradient>
<linearGradient id="paint19_linear_69_216" x1="138.497" y1="471.643" x2="173.96" y2="471.643" gradientUnits="userSpaceOnUse">
<stop stop-color="#DAE3FE"/>
<stop offset="1" stop-color="#E9EFFD"/>
</linearGradient>
<linearGradient id="paint20_linear_69_216" x1="99.0144" y1="471.563" x2="134.405" y2="471.563" gradientUnits="userSpaceOnUse">
<stop stop-color="#DAE3FE"/>
<stop offset="1" stop-color="#E9EFFD"/>
</linearGradient>
<linearGradient id="paint21_linear_69_216" x1="177.583" y1="497.181" x2="213.057" y2="497.181" gradientUnits="userSpaceOnUse">
<stop stop-color="#DAE3FE"/>
<stop offset="1" stop-color="#E9EFFD"/>
</linearGradient>
<linearGradient id="paint22_linear_69_216" x1="138.129" y1="497.088" x2="173.531" y2="497.088" gradientUnits="userSpaceOnUse">
<stop stop-color="#DAE3FE"/>
<stop offset="1" stop-color="#E9EFFD"/>
</linearGradient>
<linearGradient id="paint23_linear_69_216" x1="98.7145" y1="496.995" x2="134.043" y2="496.995" gradientUnits="userSpaceOnUse">
<stop stop-color="#DAE3FE"/>
<stop offset="1" stop-color="#E9EFFD"/>
</linearGradient>
<linearGradient id="paint24_linear_69_216" x1="177.15" y1="522.551" x2="212.563" y2="522.551" gradientUnits="userSpaceOnUse">
<stop stop-color="#DAE3FE"/>
<stop offset="1" stop-color="#E9EFFD"/>
</linearGradient>
<linearGradient id="paint25_linear_69_216" x1="137.763" y1="522.445" x2="173.103" y2="522.445" gradientUnits="userSpaceOnUse">
<stop stop-color="#DAE3FE"/>
<stop offset="1" stop-color="#E9EFFD"/>
</linearGradient>
<linearGradient id="paint26_linear_69_216" x1="98.4155" y1="522.339" x2="133.683" y2="522.339" gradientUnits="userSpaceOnUse">
<stop stop-color="#DAE3FE"/>
<stop offset="1" stop-color="#E9EFFD"/>
</linearGradient>
<linearGradient id="paint27_linear_69_216" x1="397.425" y1="161.106" x2="452.875" y2="33.144" gradientUnits="userSpaceOnUse">
<stop stop-color="#09005D"/>
<stop offset="1" stop-color="#1A0F91"/>
</linearGradient>
<linearGradient id="paint28_linear_69_216" x1="402.465" y1="244.002" x2="277.675" y2="1108.93" gradientUnits="userSpaceOnUse">
<stop stop-color="#FEBBBA"/>
<stop offset="1" stop-color="#FF928E"/>
</linearGradient>
<linearGradient id="paint29_linear_69_216" x1="399.192" y1="243.531" x2="274.402" y2="1108.45" gradientUnits="userSpaceOnUse">
<stop stop-color="#FEBBBA"/>
<stop offset="1" stop-color="#FF928E"/>
</linearGradient>
<linearGradient id="paint30_linear_69_216" x1="406.318" y1="342.369" x2="589.255" y2="-21.3514" gradientUnits="userSpaceOnUse">
<stop stop-color="#FE7062"/>
<stop offset="1" stop-color="#FF928E"/>
</linearGradient>
<linearGradient id="paint31_linear_69_216" x1="159.97" y1="541.78" x2="180.206" y2="541.78" gradientUnits="userSpaceOnUse">
<stop stop-color="#09005D"/>
<stop offset="1" stop-color="#1A0F91"/>
</linearGradient>
<linearGradient id="paint32_linear_69_216" x1="165.598" y1="518.741" x2="161.732" y2="552.475" gradientUnits="userSpaceOnUse">
<stop stop-color="#FEBBBA"/>
<stop offset="1" stop-color="#FF928E"/>
</linearGradient>
<linearGradient id="paint33_linear_69_216" x1="190.784" y1="542.293" x2="219.913" y2="542.293" gradientUnits="userSpaceOnUse">
<stop stop-color="#09005D"/>
<stop offset="1" stop-color="#1A0F91"/>
</linearGradient>
<linearGradient id="paint34_linear_69_216" x1="196.556" y1="522.305" x2="194.82" y2="556.216" gradientUnits="userSpaceOnUse">
<stop stop-color="#FEBBBA"/>
<stop offset="1" stop-color="#FF928E"/>
</linearGradient>
<linearGradient id="paint35_linear_69_216" x1="191.219" y1="550.567" x2="151.209" y2="359.79" gradientUnits="userSpaceOnUse">
<stop stop-color="#09005D"/>
<stop offset="1" stop-color="#1A0F91"/>
</linearGradient>
<linearGradient id="paint36_linear_69_216" x1="232.081" y1="289.895" x2="143.677" y2="387.424" gradientUnits="userSpaceOnUse">
<stop stop-color="#4042E2"/>
<stop offset="1" stop-color="#4F52FF"/>
</linearGradient>
<linearGradient id="paint37_linear_69_216" x1="181.018" y1="322.124" x2="189.995" y2="297.608" gradientUnits="userSpaceOnUse">
<stop stop-color="#FEBBBA"/>
<stop offset="1" stop-color="#FF928E"/>
</linearGradient>
<linearGradient id="paint38_linear_69_216" x1="188.787" y1="243.105" x2="184.617" y2="274.955" gradientUnits="userSpaceOnUse">
<stop stop-color="#4042E2"/>
<stop offset="1" stop-color="#4F52FF"/>
</linearGradient>
<linearGradient id="paint39_linear_69_216" x1="196.081" y1="244.06" x2="191.911" y2="275.91" gradientUnits="userSpaceOnUse">
<stop stop-color="#4042E2"/>
<stop offset="1" stop-color="#4F52FF"/>
</linearGradient>
<linearGradient id="paint40_linear_69_216" x1="203.084" y1="285.35" x2="149.595" y2="327.952" gradientUnits="userSpaceOnUse">
<stop stop-color="#FEBBBA"/>
<stop offset="1" stop-color="#FF928E"/>
</linearGradient>
<linearGradient id="paint41_linear_69_216" x1="182.434" y1="271.335" x2="206.95" y2="302.9" gradientUnits="userSpaceOnUse">
<stop stop-color="#09005D"/>
<stop offset="1" stop-color="#1A0F91"/>
</linearGradient>
<linearGradient id="paint42_linear_69_216" x1="197.699" y1="283.016" x2="171.375" y2="303.157" gradientUnits="userSpaceOnUse">
<stop stop-color="#FEBBBA"/>
<stop offset="1" stop-color="#FF928E"/>
</linearGradient>
<linearGradient id="paint43_linear_69_216" x1="260.003" y1="296.322" x2="204.268" y2="344.467" gradientUnits="userSpaceOnUse">
<stop stop-color="#FEBBBA"/>
<stop offset="1" stop-color="#FF928E"/>
</linearGradient>
<linearGradient id="paint44_linear_69_216" x1="261.164" y1="300.812" x2="206.912" y2="347.676" gradientUnits="userSpaceOnUse">
<stop stop-color="#FEBBBA"/>
<stop offset="1" stop-color="#FF928E"/>
</linearGradient>
<linearGradient id="paint45_linear_69_216" x1="262.065" y1="298.711" x2="206.331" y2="346.855" gradientUnits="userSpaceOnUse">
<stop stop-color="#FEBBBA"/>
<stop offset="1" stop-color="#FF928E"/>
</linearGradient>
<linearGradient id="paint46_linear_69_216" x1="191.714" y1="200.272" x2="332.662" y2="386.326" gradientUnits="userSpaceOnUse">
<stop stop-color="#E1473D"/>
<stop offset="1" stop-color="#E9605A"/>
</linearGradient>
<linearGradient id="paint47_linear_69_216" x1="342.466" y1="233.198" x2="316.281" y2="361.624" gradientUnits="userSpaceOnUse">
<stop stop-color="#FE7062"/>
<stop offset="1" stop-color="#FF928E"/>
</linearGradient>
<linearGradient id="paint48_linear_69_216" x1="207.061" y1="293.956" x2="428.085" y2="310.481" gradientUnits="userSpaceOnUse">
<stop stop-color="#FF9085"/>
<stop offset="1" stop-color="#FB6FBB"/>
</linearGradient>
<linearGradient id="paint49_linear_69_216" x1="307.575" y1="285.567" x2="361.037" y2="149.636" gradientUnits="userSpaceOnUse">
<stop stop-color="#FE7062"/>
<stop offset="1" stop-color="#FF928E"/>
</linearGradient>
<linearGradient id="paint50_linear_69_216" x1="337.024" y1="140.947" x2="327.924" y2="158.579" gradientUnits="userSpaceOnUse">
<stop stop-color="#FE7062"/>
<stop offset="1" stop-color="#FF928E"/>
</linearGradient>
<linearGradient id="paint51_linear_69_216" x1="226.756" y1="338.211" x2="200.25" y2="470.434" gradientUnits="userSpaceOnUse">
<stop stop-color="#FEBBBA"/>
<stop offset="1" stop-color="#FF928E"/>
</linearGradient>
<linearGradient id="paint52_linear_69_216" x1="609.782" y1="687.516" x2="192.357" y2="169.098" gradientUnits="userSpaceOnUse">
<stop stop-color="#C4D5FD"/>
<stop offset="1" stop-color="#CEDDFC"/>
</linearGradient>
<linearGradient id="paint53_linear_69_216" x1="609.781" y1="687.519" x2="192.353" y2="169.102" gradientUnits="userSpaceOnUse">
<stop stop-color="#C4D5FD"/>
<stop offset="1" stop-color="#CEDDFC"/>
</linearGradient>
<linearGradient id="paint54_linear_69_216" x1="467.719" y1="-134.822" x2="364.646" y2="466.436" gradientUnits="userSpaceOnUse">
<stop stop-color="#5864E9"/>
<stop offset="1" stop-color="#636FFD"/>
</linearGradient>
<linearGradient id="paint55_linear_69_216" x1="397.425" y1="161.106" x2="452.875" y2="33.1442" gradientUnits="userSpaceOnUse">
<stop stop-color="#32368C"/>
<stop offset="1" stop-color="#3E41B1"/>
</linearGradient>
<linearGradient id="paint56_linear_69_216" x1="467.719" y1="-134.82" x2="364.647" y2="466.434" gradientUnits="userSpaceOnUse">
<stop stop-color="#5864E9"/>
<stop offset="1" stop-color="#636FFD"/>
</linearGradient>
<linearGradient id="paint57_linear_69_216" x1="397.425" y1="161.106" x2="452.875" y2="33.1439" gradientUnits="userSpaceOnUse">
<stop stop-color="#32368C"/>
<stop offset="1" stop-color="#3E41B1"/>
</linearGradient>
<linearGradient id="paint58_linear_69_216" x1="467.719" y1="-134.822" x2="364.645" y2="466.436" gradientUnits="userSpaceOnUse">
<stop stop-color="#5864E9"/>
<stop offset="1" stop-color="#636FFD"/>
</linearGradient>
<linearGradient id="paint59_linear_69_216" x1="609.783" y1="687.518" x2="192.356" y2="169.099" gradientUnits="userSpaceOnUse">
<stop stop-color="#C4D5FD"/>
<stop offset="1" stop-color="#CEDDFC"/>
</linearGradient>
<linearGradient id="paint60_linear_69_216" x1="467.719" y1="-134.823" x2="364.646" y2="466.436" gradientUnits="userSpaceOnUse">
<stop stop-color="#5864E9"/>
<stop offset="1" stop-color="#636FFD"/>
</linearGradient>
<linearGradient id="paint61_linear_69_216" x1="609.781" y1="687.519" x2="192.353" y2="169.102" gradientUnits="userSpaceOnUse">
<stop stop-color="#C4D5FD"/>
<stop offset="1" stop-color="#CEDDFC"/>
</linearGradient>
<linearGradient id="paint62_linear_69_216" x1="467.719" y1="-134.823" x2="364.645" y2="466.436" gradientUnits="userSpaceOnUse">
<stop stop-color="#5864E9"/>
<stop offset="1" stop-color="#636FFD"/>
</linearGradient>
<linearGradient id="paint63_linear_69_216" x1="467.719" y1="-134.824" x2="364.645" y2="466.437" gradientUnits="userSpaceOnUse">
<stop stop-color="#5864E9"/>
<stop offset="1" stop-color="#636FFD"/>
</linearGradient>
<linearGradient id="paint64_linear_69_216" x1="609.782" y1="687.517" x2="192.356" y2="169.1" gradientUnits="userSpaceOnUse">
<stop stop-color="#C4D5FD"/>
<stop offset="1" stop-color="#CEDDFC"/>
</linearGradient>
<linearGradient id="paint65_linear_69_216" x1="467.719" y1="-134.822" x2="364.646" y2="466.436" gradientUnits="userSpaceOnUse">
<stop stop-color="#5864E9"/>
<stop offset="1" stop-color="#636FFD"/>
</linearGradient>
</defs>
</svg>
