<svg width="262" height="203" viewBox="0 0 262 203" fill="none" xmlns="http://www.w3.org/2000/svg">
<path d="M0 179.47H262V179.339H0V179.47Z" fill="#E7E8E5"/>
<path d="M218.393 187.772H235.748V187.903H218.393V187.772Z" fill="#E7E8E5"/>
<path d="M169.004 189.193H173.559V189.324H169.004V189.193Z" fill="#E7E8E5"/>
<path d="M207.812 182.906H217.868V183.037H207.812V182.906Z" fill="#E7E8E5"/>
<path d="M27.4883 183.787H50.1216V183.918H27.4883V183.787Z" fill="#E7E8E5"/>
<path d="M54.7871 183.787H58.1056V183.918H54.7871V183.787Z" fill="#E7E8E5"/>
<path d="M68.8906 186.129H117.977V185.998H68.8906V186.129Z" fill="#E7E8E5"/>
<path d="M23.0116 7.91681C21.4343 7.91681 20.1515 9.19936 20.1515 10.7758V152.982C20.1515 154.559 21.4343 155.842 23.0116 155.842H124.195C125.772 155.842 127.055 154.559 127.055 152.982V10.7758C127.055 9.19936 125.772 7.91681 124.195 7.91681H23.0116ZM124.195 155.973H23.0116C21.3623 155.973 20.0205 154.631 20.0205 152.982V10.7758C20.0205 9.12758 21.3623 7.78583 23.0116 7.78583H124.195C125.844 7.78583 127.186 9.12758 127.186 10.7758V152.982C127.186 154.631 125.844 155.973 124.195 155.973Z" fill="#E7E8E5"/>
<path d="M136.351 7.91681C134.774 7.91681 133.491 9.19936 133.491 10.7758V152.982C133.491 154.559 134.774 155.842 136.351 155.842H237.534C239.111 155.842 240.395 154.559 240.395 152.982V10.7758C240.395 9.19936 239.111 7.91681 237.534 7.91681H136.351ZM237.534 155.973H136.351C134.702 155.973 133.36 154.631 133.36 152.982V10.7758C133.36 9.12758 134.702 7.78583 136.351 7.78583H237.534C239.184 7.78583 240.526 9.12758 240.526 10.7758V152.982C240.526 154.631 239.184 155.973 237.534 155.973Z" fill="#E7E8E5"/>
<path d="M142.133 179.339H208.712V29.6985H142.133V179.339Z" fill="#EDEDEB"/>
<path d="M143.538 179.339H208.712V29.6985H143.538V179.339Z" fill="#F3F2F1"/>
<path d="M147.51 175.943H204.741V33.0944H147.51V175.943Z" fill="#EDEDEB"/>
<path d="M153.134 59.6609C153.134 51.0452 160.119 44.0604 168.736 44.0604H183.514C192.131 44.0604 199.116 51.0452 199.116 59.6609H153.134Z" fill="#FAFAF9"/>
<path d="M153.134 167.063V132.937H199.116V167.063H153.134Z" fill="#F3F2F1"/>
<path d="M153.133 128.534H173.415V69.2831H153.133V128.534Z" fill="#F3F2F1"/>
<path d="M178.834 128.534H199.116V69.2831H178.834V128.534Z" fill="#F3F2F1"/>
<path d="M191.76 98.6426H200.068C200.776 98.6426 201.356 98.0626 201.356 97.3543C201.356 96.6454 200.776 96.066 200.068 96.066H191.76C191.052 96.066 190.472 96.6454 190.472 97.3543C190.472 98.0626 191.052 98.6426 191.76 98.6426Z" fill="#DADBD8"/>
<path d="M203.71 175.943H204.74V33.0944H203.71V175.943Z" fill="#EDEDEB"/>
<path d="M36.883 121.203H100.229V31.5563C100.228 24.4153 36.8826 24.4153 36.8828 31.5563L36.883 121.203Z" fill="#DADBD8"/>
<path d="M38.3391 121.203H101.685L101.685 31.5563C101.685 24.4153 38.3387 24.4153 38.3389 31.5563L38.3391 121.203Z" fill="#E7E8E5"/>
<path d="M98.5401 116.703L98.5407 33.325C98.5407 32.7513 98.1828 32.2415 97.6425 32.0471C94.126 30.7824 84.552 29.3438 70.0115 29.3438C55.4715 29.3438 45.8973 30.7824 42.3804 32.0471C41.8404 32.2415 41.4824 32.7513 41.4824 33.325L41.4826 116.703C41.4826 117.452 42.09 118.059 42.8391 118.059H97.184C97.9328 118.059 98.5401 117.452 98.5401 116.703Z" fill="#FAFAF9"/>
<path d="M85.1481 29.9457L95.0255 118.057H80.5998L70.6543 29.3432C76.2611 29.359 81.1133 29.5947 85.1481 29.9457Z" fill="white"/>
<path d="M66.4933 29.3747L76.4388 118.057H68.4688L58.5547 29.6733C60.9703 29.5266 63.6218 29.4218 66.4933 29.3747Z" fill="white"/>
<path d="M60.5782 119.224V27.99H57.8125V119.224H60.5782Z" fill="#E7E8E5"/>
<path d="M80.0938 119.224H82.8595V27.9905H80.0938V119.224Z" fill="#E7E8E5"/>
<path d="M79.5938 119.224H80.0936V27.9905H79.5938V119.224Z" fill="#DADBD8"/>
<path d="M57.3135 119.224V27.99H57.8134V119.224H57.3135Z" fill="#DADBD8"/>
<path d="M40.4678 50.8535H100.204V48.0882H40.4678V50.8535Z" fill="#E7E8E5"/>
<path d="M39.9443 123.415H104.571V120.359H39.9443V123.415Z" fill="#F3F2F1"/>
<path d="M39.9439 123.415H36.8828V120.359H39.9439V123.415Z" fill="#DADBD8"/>
<path d="M218.518 18.4323H234.317V13.968H218.518V18.4323Z" fill="#EDEDEB"/>
<path d="M210.617 22.897H226.417V18.4323H210.617V22.897Z" fill="#E2E2E0"/>
<path d="M107.411 84.1119H123.211V79.647H107.411V84.1119Z" fill="#F3F2F1"/>
<path d="M83.9746 140.301H99.7748V135.837H83.9746V140.301Z" fill="#F3F2F1"/>
<path d="M234.317 145.294H218.518V140.829H234.317V145.294Z" fill="#E2E2E0"/>
<path d="M99.5117 4.46478H115.311V1.00136e-05H99.5117V4.46478Z" fill="#EDEDEB"/>
<path d="M41.4824 167.408H57.2825V162.943H41.4824V167.408Z" fill="#F3F2F1"/>
<path d="M28.9834 135.002H44.7833V130.537H28.9834V135.002Z" fill="#F3F2F1"/>
<path d="M49.3828 171.873H65.1826V167.408H49.3828V171.873Z" fill="#EDEDEB"/>
<path d="M54.1389 19.0787H38.3389V14.614H54.1389V19.0787Z" fill="#EDEDEB"/>
<path d="M232.598 197.068C232.598 200.344 187.111 203 131 203C74.8893 203 29.4023 200.344 29.4023 197.068C29.4023 193.791 74.8893 191.135 131 191.135C187.111 191.135 232.598 193.791 232.598 197.068Z" fill="#F3F2F1"/>
<path d="M69.2395 45.7034C66.1417 46.3934 62.5344 50.7398 66.095 55.1783C69.6561 59.6169 63.6904 57.6753 62.7655 65.4428C61.8407 73.2098 68.9162 71.9011 66.6966 76.994C64.4769 82.0875 79.8919 90.1557 89.5168 84.0401C99.1416 77.924 100.038 64.7591 97.032 60.1073C94.0258 55.4555 89.6331 55.1642 91.6212 50.1776C93.6097 45.1915 91.2669 40.0132 85.0549 39.9671C80.3719 39.932 83.1806 36.656 76.7333 36.6843C71.3596 36.7078 66.6038 40.4826 69.2395 45.7034Z" fill="#17282F"/>
<path d="M86.4877 54.8939C85.8432 54.8939 85.3192 54.3699 85.3192 53.7255C85.3192 53.0759 85.8432 52.552 86.4877 52.552C87.1375 52.552 87.6615 53.0759 87.6615 53.7255C87.6615 54.3699 87.1375 54.8939 86.4877 54.8939ZM86.4877 52.1957C85.6441 52.1957 84.9629 52.8768 84.9629 53.7255C84.9629 54.569 85.6441 55.2501 86.4877 55.2501C87.3314 55.2501 88.0178 54.569 88.0178 53.7255C88.0178 52.8768 87.3314 52.1957 86.4877 52.1957Z" fill="white"/>
<path d="M99.3851 67.1L99.3605 67.0979C99.2892 67.0843 99.2426 67.0156 99.2562 66.9444C99.7257 64.5035 97.8246 62.1401 95.8119 59.6374C93.4628 56.7166 90.8004 53.406 91.7378 49.4641C92.538 46.1005 92.1806 43.2908 90.7328 41.5525C89.547 40.129 87.6988 39.4731 85.2408 39.5993C82.987 39.7156 82.3189 39.1058 81.6121 38.4598C80.8481 37.762 79.9672 36.9672 76.7331 36.9897H76.7326C76.6603 36.9897 76.6021 36.9316 76.6016 36.8593C76.601 36.787 76.6592 36.7283 76.7315 36.7278L76.8452 36.7273C80.1045 36.7273 80.9984 37.5445 81.7886 38.2665C82.4829 38.901 83.0834 39.45 85.2271 39.3379C87.7706 39.2069 89.6921 39.8948 90.934 41.3848C92.4363 43.1881 92.8126 46.0791 91.993 49.5248C91.0849 53.3421 93.5917 56.4588 96.0163 59.4734C98.0677 62.0243 100.006 64.4338 99.5135 66.9936C99.5014 67.0565 99.4464 67.1 99.3851 67.1Z" fill="#17282F"/>
<path d="M111.709 57.0896L111.002 58.4617C110.736 58.9778 110.736 59.5902 111.002 60.1063L112.245 62.5173C112.742 63.4818 113.675 64.1451 114.749 64.2986L115.413 64.3934C116.741 62.1977 116.558 58.8463 116.558 58.8463L116.612 57.8854C116.66 57.0299 116.059 56.3257 115.232 56.2686L113.329 56.1376C112.672 56.0926 112.027 56.4708 111.709 57.0896Z" fill="#F9A8B3"/>
<path d="M96.1094 66.2617L96.1634 66.3591L96.2745 66.5189L96.5265 66.8569C96.702 67.0869 96.8975 67.3121 97.0961 67.5374C97.4943 67.9885 97.9193 68.4296 98.3621 68.853C99.2492 69.7017 100.229 70.453 101.249 71.1226C103.289 72.4721 105.568 73.3906 107.936 73.7662L108.381 73.8275L108.604 73.8595L108.55 73.8689C108.429 73.8794 108.28 73.9401 108.231 73.9878C108.131 74.0821 108.374 73.9428 108.605 73.597C109.104 72.9044 109.557 71.7172 109.896 70.5138C110.232 69.2904 110.487 67.9817 110.666 66.6536C110.763 65.9893 110.82 65.316 110.879 64.6444C110.935 63.9837 110.979 63.2717 110.981 62.6677L117.015 62.959C116.938 63.7799 116.86 64.4898 116.772 65.2479C116.685 65.9955 116.569 66.7385 116.463 67.4866C116.234 68.9813 115.968 70.4839 115.576 72.0195C115.384 72.7886 115.157 73.5676 114.867 74.3656C114.567 75.1635 114.229 75.9876 113.702 76.8541C113.167 77.7024 112.452 78.6873 111.084 79.4585C110.401 79.8326 109.548 80.0846 108.714 80.1165C108.519 80.1239 108.278 80.1181 108.125 80.1108L107.815 80.0898L107.196 80.0469C105.546 79.8965 103.913 79.5743 102.329 79.1096C100.753 78.6234 99.2162 78.0204 97.7584 77.278C96.2939 76.544 94.9184 75.667 93.59 74.7171C92.9261 74.2409 92.2805 73.7369 91.6496 73.1993C91.3331 72.9316 91.0245 72.6518 90.7101 72.3626L90.2369 71.9147L89.9948 71.6727C89.9037 71.5773 89.8445 71.5213 89.7051 71.3599L96.1094 66.2617Z" fill="#406FBF"/>
<path d="M108.512 80.1197C108.371 80.1197 108.228 80.1155 108.124 80.1108L107.815 80.0898L107.195 80.0469C105.546 79.8965 103.912 79.5743 102.328 79.1096C102.113 79.0431 101.898 78.9744 101.685 78.9037C101.154 78.7277 100.628 78.538 100.109 78.3337C100.101 78.297 100.092 78.2603 100.084 78.2247C99.088 73.4644 98.2606 71.3002 97.7486 69.3308C97.5516 68.5742 97.2362 67.867 96.8248 67.2252C96.9134 67.3294 97.004 67.4337 97.0957 67.5374C97.494 67.9885 97.9189 68.4296 98.3617 68.853C99.2489 69.7017 100.229 70.453 101.249 71.1226C103.288 72.4722 105.567 73.3906 107.935 73.7662L108.381 73.8275L108.42 73.8333C108.478 73.7704 108.541 73.6913 108.604 73.597C109.104 72.9044 109.557 71.7172 109.896 70.5138C110.231 69.2904 110.487 67.9817 110.666 66.6536C110.762 65.9893 110.82 65.316 110.879 64.6444C110.935 63.9837 110.979 63.2717 110.981 62.6677L117.015 62.959C116.938 63.7799 116.859 64.4898 116.771 65.2479C116.684 65.9956 116.569 66.7385 116.463 67.4866C116.233 68.9813 115.968 70.4839 115.576 72.0195C115.384 72.7886 115.157 73.5676 114.866 74.3656C114.567 75.1635 114.228 75.9876 113.701 76.8541C113.167 77.7024 112.452 78.6873 111.084 79.4585C110.401 79.8326 109.548 80.0846 108.713 80.1165C108.649 80.1186 108.581 80.1197 108.512 80.1197ZM108.208 74.0151C108.208 74.0161 108.208 74.0166 108.21 74.0166C108.219 74.0166 108.262 73.9878 108.323 73.9312C108.283 73.9496 108.25 73.9695 108.231 73.9878C108.215 74.0025 108.208 74.0119 108.208 74.0151ZM96.1358 66.3099C96.1237 66.2963 96.1117 66.2827 96.0996 66.269L96.109 66.2617L96.1358 66.3099Z" fill="#90B4E3"/>
<path d="M83.5285 192.89C82.765 191.179 83.2942 183.989 83.3995 182.811C82.0717 182.117 77.5166 182.972 77.5166 182.972C77.5166 182.972 78.7884 190.532 78.0254 192.89C79.7824 193.861 83.5285 192.89 83.5285 192.89Z" fill="#F9A8B3"/>
<path d="M139.784 185.993C138.347 184.792 135.328 178.229 134.904 177.123C133.407 177.084 130.024 179.727 130.024 179.727C130.024 179.727 134.49 185.958 134.842 188.412C136.847 188.511 139.784 185.993 139.784 185.993Z" fill="#F9A8B3"/>
<path d="M88.1975 197.062C84.3644 197.062 83.7094 197.003 81.5558 196.931C79.7119 196.865 79.2706 197.096 77.7882 197.062C76.55 197.036 76.5962 195.851 76.9787 194.488C77.1144 194.001 77.303 193.438 77.4959 192.755C77.6457 192.224 78.1346 191.861 78.6864 191.861H82.8931C83.2798 191.861 83.6329 192.048 83.8761 192.349C84.8953 193.61 87.0877 194.533 89.0076 194.791C91.069 195.067 89.7255 197.062 88.1975 197.062Z" fill="#406FBF"/>
<path d="M147.35 188.921C143.227 190.785 141.061 189.837 138.992 190.31C137.218 190.711 137.274 191.045 135.504 191.549C134.333 191.883 133.733 190.627 133.833 189.529C133.899 188.816 133.974 187.989 133.958 187.122C133.952 186.804 134.126 186.511 134.415 186.38L138.516 184.521C138.787 184.398 139.099 184.437 139.332 184.623C140.966 185.928 144.556 187.571 147.074 186.724C149.022 186.073 148.724 188.299 147.35 188.921Z" fill="#406FBF"/>
<path d="M101.864 95.4829C101.864 95.4829 111.546 117.7 116.871 134.085C123.374 148.9 136.404 179.984 136.404 179.984C136.657 180.775 132.543 182.224 131.649 182.074C131.649 182.074 114.454 161.452 107.451 138.027C89.2428 115.188 83.8828 96.8524 83.8828 96.8524L101.864 95.4829Z" fill="#17282F"/>
<path d="M97.1272 123.611C97.0853 123.546 97.0439 123.48 97.002 123.415H97.0025C97.0439 123.48 97.0858 123.546 97.1272 123.611Z" fill="#C3C5C2"/>
<path d="M97.0028 123.415H97.0022C96.7408 123.004 96.484 122.596 96.2314 122.192C96.2314 122.191 96.2314 122.192 96.2314 122.191C96.4845 122.597 96.7402 123.003 97.0028 123.415Z" fill="#BABCBA"/>
<path d="M99.6139 127.384C98.7419 126.1 97.9135 124.841 97.1275 123.611C97.0861 123.546 97.0442 123.48 97.0028 123.415C96.7402 123.003 96.4845 122.597 96.2314 122.191C96.2388 122.014 96.2456 121.834 96.2524 121.657H98.677C99.0506 123.678 99.3634 125.651 99.6139 127.384Z" fill="#111D23"/>
<path d="M96.4725 95.8931C96.4725 95.8931 97.1621 126.758 94.4766 141.961C91.6559 157.928 82.935 177.185 83.5512 187.665C82.6536 188.186 79.4975 188.217 77.729 187.665C77.729 187.665 74.7139 156.549 83.7817 141.363C81.8199 126.157 76.5867 106.466 81.2335 97.0541L96.4725 95.8931Z" fill="#17282F"/>
<path d="M83.9907 185.483C84.0074 186.011 84.0557 186.932 84.1929 187.635C84.2422 187.888 84.0714 188.123 83.8162 188.164C81.6851 188.505 78.6013 188.011 77.6225 187.835C77.4354 187.801 77.2929 187.652 77.263 187.464L76.946 185.451C76.9025 185.176 77.1184 184.928 77.3972 184.933L83.5516 185.052C83.7905 185.057 83.9828 185.243 83.9907 185.483Z" fill="#17282F"/>
<path d="M82.1165 188.281C80.2956 188.281 78.361 187.968 77.6227 187.835C77.4356 187.801 77.2931 187.652 77.2632 187.464L76.9462 185.451C76.942 185.427 76.9404 185.404 76.9404 185.381C76.9399 185.138 77.1375 184.933 77.3885 184.933C77.3911 184.933 77.3942 184.933 77.3974 184.933L83.5517 185.052C83.7907 185.057 83.983 185.243 83.9909 185.483C84.0076 186.011 84.0558 186.932 84.1931 187.635C84.1989 187.665 84.2015 187.694 84.2015 187.723C84.2015 187.941 84.0417 188.128 83.8164 188.164C83.2924 188.248 82.7102 188.281 82.1165 188.281Z" fill="#2B3C43"/>
<path d="M135.935 177.703C136.199 178.201 136.674 179.084 137.051 179.726C137.176 179.938 137.105 180.205 136.895 180.333C135.325 181.3 132.539 182.274 131.62 182.583C131.438 182.644 131.238 182.581 131.122 182.427L129.873 180.779C129.702 180.554 129.779 180.23 130.033 180.106L135.345 177.514C135.562 177.409 135.822 177.491 135.935 177.703Z" fill="#17282F"/>
<path d="M131.478 182.606C131.341 182.606 131.209 182.542 131.122 182.427L129.872 180.779C129.81 180.698 129.781 180.603 129.781 180.509C129.781 180.345 129.871 180.185 130.033 180.106L135.345 177.514C135.408 177.483 135.476 177.468 135.543 177.468C135.702 177.468 135.855 177.554 135.935 177.703C136.199 178.201 136.674 179.084 137.051 179.726C137.093 179.797 137.113 179.875 137.112 179.951C137.112 180.101 137.034 180.248 136.895 180.333C136.767 180.413 136.63 180.492 136.487 180.571C135.028 181.375 132.896 182.145 131.887 182.492C131.786 182.527 131.696 182.557 131.619 182.583C131.573 182.598 131.526 182.606 131.478 182.606Z" fill="#2B3C43"/>
<path d="M97.7485 69.3308C98.2604 71.3002 99.0878 73.4645 100.084 78.2247C101.003 82.2332 101.671 89.2814 101.863 95.4829C99.1727 97.8819 90.2175 97.4743 81.233 97.0541C81.2052 91.2115 78.8064 85.822 72.2779 73.8585C70.7645 71.0849 71.9907 67.8125 74.9131 66.8296C75.6938 66.5666 76.5264 66.3068 77.3869 66.0668C80.7326 65.1348 83.4815 64.3966 86.5485 63.9864C87.565 63.8502 88.6251 63.7412 89.6432 63.6537C93.3165 63.3394 96.8309 65.8012 97.7485 69.3308Z" fill="#406FBF"/>
<path d="M91.202 97.3742C88.1172 97.3742 84.6777 97.2149 81.2329 97.0541C81.2224 94.8484 80.8739 92.7077 80.0932 90.2532C79.9428 89.7806 79.7762 89.296 79.5933 88.7972C78.8927 86.8902 77.9479 84.7736 76.7207 82.2971C76.7212 82.296 76.7212 82.2955 76.7212 82.295C77.1876 83.2349 77.612 84.1229 77.9977 84.9669C77.7818 82.4448 77.775 80.0228 77.8316 78.1377C77.8751 78.0026 77.9191 77.8674 77.9642 77.7328C78.2298 76.9385 78.5154 76.1479 78.8178 75.3673L79.2836 74.2068C79.4377 73.8375 79.6174 73.4178 79.7541 73.1328L71.8533 69.9584C71.8218 70.0486 71.792 70.1355 71.7637 70.2199C72.1352 68.6911 73.2492 67.3892 74.9129 66.8296C75.6937 66.5666 76.5263 66.3068 77.3867 66.0668C77.5623 66.0181 77.7367 65.9694 77.9091 65.9217C77.9029 65.9322 77.8966 65.9421 77.8903 65.9526C77.8903 65.9526 86.2413 68.3663 90.6953 72.1929C91.2884 66.0034 87.142 63.9728 87.142 63.9728C87.0084 63.9717 86.8784 63.9675 86.7527 63.9591C87.7064 63.836 88.6931 63.7354 89.6431 63.6537C89.8548 63.6359 90.0665 63.627 90.2766 63.627C93.713 63.627 96.8837 66.0045 97.7483 69.3308C98.2603 71.3002 99.0877 73.4644 100.084 78.2247C101.003 82.2332 101.67 89.2813 101.863 95.4829C100.204 96.9624 96.1627 97.3742 91.202 97.3742Z" fill="#90B4E3"/>
<path d="M87.1424 63.9728L77.8906 65.9526C77.8906 65.9526 85.3775 69.073 91.3726 73.8893C93.0101 65.6592 87.1424 63.9728 87.1424 63.9728Z" fill="white"/>
<path d="M75.6855 55.6069C77.1527 58.3732 79.3593 63.5505 77.89 65.9526C77.89 65.9526 86.241 68.3663 90.695 72.1929C91.2882 66.0034 87.1418 63.9728 87.1418 63.9728C83.6179 63.9476 82.8769 61.4302 82.7585 59.049L75.6855 55.6069Z" fill="#F9A8B3"/>
<path d="M83.5313 66.7479C80.8799 66.7479 78.0183 66.1156 77.8621 66.0805C77.7914 66.0642 77.7469 65.9945 77.7631 65.9238C77.7788 65.8536 77.8496 65.8096 77.9193 65.8248C77.969 65.8358 82.913 66.9287 85.7903 66.2738C86.7078 66.0647 87.2438 65.7289 87.3827 65.2742C87.5703 64.6628 86.9735 64.0162 86.9677 64.0094C86.9179 63.957 86.9205 63.8737 86.9735 63.8245C87.0264 63.7752 87.1092 63.7779 87.1589 63.8308C87.1878 63.8617 87.8648 64.5962 87.6332 65.3512C87.4644 65.9018 86.8639 66.2979 85.8484 66.5289C85.1541 66.6871 84.3529 66.7479 83.5313 66.7479Z" fill="white"/>
<path d="M87.2549 66.8197C87.0338 66.9863 86.7168 66.9418 86.5501 66.7207L86.263 66.3398C86.0964 66.1187 86.1409 65.8017 86.3615 65.6351C86.5826 65.4685 86.8997 65.5131 87.0663 65.7342L87.354 66.115C87.5206 66.3361 87.4761 66.6531 87.2549 66.8197Z" fill="#406FBF"/>
<path d="M82.7559 59.0475L82.082 58.7195L82.7559 59.047C82.7559 59.0475 82.7559 59.0475 82.7559 59.0475Z" fill="#111D23"/>
<path d="M82.7581 60.7177C81.4397 60.7177 79.4857 59.7893 78.9826 58.5916C78.718 57.9619 78.5556 57.3363 78.5703 57.0115L82.0821 58.7195L82.756 59.0474C82.7822 59.6112 82.8409 60.1759 82.964 60.7098C82.8974 60.715 82.8283 60.7177 82.7581 60.7177Z" fill="#D8898C"/>
<path d="M71.4651 51.4109C73.6203 55.8846 74.4362 57.8184 77.7342 59.3545C82.696 61.6644 87.7694 58.369 87.0064 53.4217C86.3195 48.969 82.9103 42.4007 77.6347 42.1529C72.4366 41.9087 69.3099 46.9367 71.4651 51.4109Z" fill="#F9A8B3"/>
<path d="M73.3548 44.9139C75.6976 48.2428 75.5781 53.6988 72.8172 54.4386C68.6068 53.791 67.7129 52.7029 67.7129 52.7029C67.7129 52.7029 69.0721 42.441 73.3548 44.9139Z" fill="#17282F"/>
<path d="M70.0566 46.2813C76.2535 47.0719 81.1859 44.4827 82.1107 43.0341C76.5003 39.2425 70.6734 42.4698 70.0566 46.2813Z" fill="#17282F"/>
<path d="M82.9893 48.8264C82.9893 48.8264 84.348 50.2494 85.4049 50.7953C85.1025 51.4444 84.1504 51.5293 84.1504 51.5293L82.9893 48.8264Z" fill="#F46878"/>
<path d="M82.6916 53.5951C82.9054 53.5611 83.1275 53.5066 83.3576 53.4259C83.4194 53.4044 83.4482 53.3363 83.4215 53.2739C83.3948 53.2121 83.3246 53.1791 83.2606 53.2006C81.5823 53.7895 80.2911 52.8884 80.278 52.8795C80.222 52.8391 80.146 52.8485 80.1082 52.9009C80.071 52.9528 80.0862 53.0277 80.1423 53.0681C80.1921 53.1032 81.2312 53.8293 82.6916 53.5951Z" fill="#17282F"/>
<path d="M71.7391 56.0098C72.7163 56.5552 73.7413 56.6029 74.478 56.343C75.5863 55.9522 75.2598 54.5989 74.215 53.7371C73.2739 52.9622 71.5635 52.2308 70.8064 53.0895C70.0597 53.9356 70.6219 55.3864 71.7391 56.0098Z" fill="#F9A8B3"/>
<path d="M73.7158 58.9819C73.0713 58.9819 72.5473 58.458 72.5473 57.8136C72.5473 57.164 73.0713 56.6401 73.7158 56.6401C74.365 56.6401 74.889 57.164 74.889 57.8136C74.889 58.458 74.365 58.9819 73.7158 58.9819ZM73.7158 56.2843C72.8716 56.2843 72.1904 56.9649 72.1904 57.8136C72.1904 58.6571 72.8716 59.3382 73.7158 59.3382C74.5589 59.3382 75.2453 58.6571 75.2453 57.8136C75.2453 56.9649 74.5589 56.2843 73.7158 56.2843Z" fill="white"/>
<path d="M77.1291 48.477C77.1825 48.4429 77.2202 48.3879 77.2297 48.3224C77.3748 47.2945 78.1964 46.9445 78.2059 46.9403C78.328 46.889 78.3819 46.7517 78.3227 46.6328C78.263 46.5139 78.1147 46.4599 77.99 46.5107C77.947 46.5291 76.9153 46.9671 76.7355 48.2428C76.7177 48.3701 76.8136 48.4911 76.9504 48.5131C77.0159 48.5236 77.0793 48.5089 77.1291 48.477Z" fill="#17282F"/>
<path d="M84.5712 45.7019C84.631 45.6946 84.6865 45.6663 84.7248 45.6165C84.8028 45.5149 84.7772 45.3645 84.6671 45.2812C83.5636 44.444 82.5072 44.762 82.4627 44.7767C82.3369 44.816 82.2751 44.9501 82.3248 45.0758C82.3741 45.201 82.5156 45.2707 82.6413 45.2314C82.6827 45.2188 83.5059 44.9836 84.3831 45.6495C84.4402 45.6925 84.5078 45.7098 84.5712 45.7019Z" fill="#17282F"/>
<path d="M84.4942 47.4685C84.6289 47.8583 84.5304 48.2434 84.2746 48.3293C84.0189 48.4147 83.7024 48.1684 83.5678 47.7792C83.4336 47.3894 83.5321 47.0043 83.7878 46.9184C84.0436 46.8325 84.3601 47.0792 84.4942 47.4685Z" fill="#17282F"/>
<path d="M79.9512 49.3393C80.0854 49.7286 79.9874 50.1137 79.7312 50.1996C79.4754 50.2855 79.1595 50.0388 79.0248 49.6495C78.8907 49.2597 78.9892 48.8746 79.2449 48.7887C79.5006 48.7033 79.8166 48.9495 79.9512 49.3393Z" fill="#17282F"/>
<path d="M79.0254 49.0166L79.4519 48.0956C79.4519 48.0956 79.6998 48.9731 79.0254 49.0166Z" fill="#17282F"/>
<path d="M83.5381 47.2023L83.9646 46.2813C83.9646 46.2813 84.2125 47.1583 83.5381 47.2023Z" fill="#17282F"/>
<path d="M77.9981 84.9669C77.6125 84.1229 77.188 83.2349 76.7217 82.295C77.0172 80.9124 77.3866 79.5188 77.832 78.1377C77.7754 80.0228 77.7823 82.4448 77.9981 84.9669Z" fill="#658FD2"/>
<path d="M106.548 197.068H112.528V110.93H106.548V197.068Z" fill="#406FBF"/>
<path d="M112.528 125.417L106.548 123.876V121.657H112.528V125.417Z" fill="#3563B7"/>
<path d="M88.1738 121.657H141.508V111.67C141.508 104.112 135.379 97.9846 127.82 97.9846H101.862C94.302 97.9846 88.1738 104.112 88.1738 111.67V121.657Z" fill="#406FBF"/>
<path d="M92.1061 105.292L91.2201 104.028C90.8868 103.552 90.3445 103.267 89.7639 103.262L87.0511 103.24C85.9664 103.231 84.9446 103.748 84.309 104.627L83.916 105.171C85.2417 107.368 88.2935 108.765 88.2935 108.765L89.1188 109.26C89.8545 109.7 90.7568 109.497 91.1923 108.792L92.1942 107.169C92.54 106.608 92.5049 105.861 92.1061 105.292Z" fill="#F9A8B3"/>
<path d="M79.7542 73.1328C79.6174 73.4178 79.4377 73.8374 79.2837 74.2068L78.8178 75.3673C78.5155 76.1479 78.2299 76.9385 77.9642 77.7327C77.4339 79.3218 77.0048 80.9307 76.6736 82.5223C76.5143 83.3171 76.3823 84.1077 76.2843 84.8883C76.2004 85.6663 76.1522 86.4307 76.1496 87.1684C76.1491 88.6359 76.3755 89.987 76.8151 90.9274L77.0111 91.3476L77.0498 91.455C77.2663 92.2928 77.8432 93.338 78.5747 94.3344C79.3088 95.3414 80.1912 96.3379 81.1439 97.2924C82.1064 98.2407 83.1366 99.157 84.2082 100.036C84.7443 100.475 85.2966 100.897 85.852 101.313C86.398 101.722 86.9938 102.147 87.512 102.488L84.5394 107.181C83.8309 106.733 83.2262 106.328 82.5838 105.89C81.9519 105.458 81.3325 105.01 80.7142 104.557C79.4754 103.653 78.265 102.696 77.0865 101.66C75.9049 100.627 74.7469 99.5254 73.6596 98.2507C73.1141 97.6183 72.5911 96.9268 72.0996 96.1708C71.6123 95.4111 71.1417 94.5854 70.7708 93.6177L71.0055 94.1453C69.7191 91.903 69.2941 89.6156 69.1118 87.5021C68.953 85.3761 69.0615 83.3538 69.2768 81.3839C69.5032 79.4171 69.8569 77.5048 70.284 75.6229C70.4957 74.6804 70.7288 73.7458 70.9835 72.8143C71.1108 72.3485 71.245 71.8838 71.3849 71.4164C71.5306 70.9365 71.6605 70.5117 71.8533 69.9584L79.7542 73.1328Z" fill="#406FBF"/>
<path d="M84.5392 107.181C83.8307 106.733 83.2261 106.328 82.5836 105.89C81.9517 105.458 81.3323 105.01 80.714 104.557C79.4753 103.653 78.2648 102.696 77.0863 101.66C76.1337 100.827 75.1958 99.9492 74.2981 98.9721C74.0828 98.7374 73.8695 98.4974 73.6594 98.2507C73.1139 97.6183 72.5909 96.9268 72.0994 96.1708C71.6802 95.5169 71.2731 94.8143 70.9309 94.0143C69.7027 91.8144 69.2903 89.5747 69.1116 87.5021C69.0597 86.8043 69.0361 86.1179 69.0361 85.441C69.0356 84.0548 69.132 82.7073 69.2766 81.3839C69.503 79.4171 69.8567 77.5048 70.2838 75.6229C70.4955 74.6804 70.7287 73.7458 70.9833 72.8143C71.1107 72.3485 71.2448 71.8838 71.3847 71.4164C71.5304 70.9365 71.6603 70.5117 71.8532 69.9584L79.754 73.1328C79.6173 73.4178 79.4375 73.8374 79.2835 74.2068L78.8176 75.3673C78.5153 76.1479 78.2297 76.9385 77.964 77.7327C77.919 77.8674 77.875 78.0025 77.8315 78.1377C77.3861 79.5187 77.0167 80.9124 76.7211 82.295C76.7211 82.2955 76.7211 82.296 76.7206 82.2971C76.7049 82.372 76.6886 82.4469 76.6734 82.5223C76.5141 83.3171 76.3821 84.1077 76.2841 84.8883C76.26 85.111 76.239 85.3331 76.2212 85.5532C76.1762 86.1022 76.1515 86.6418 76.1494 87.1684C76.1489 88.6359 76.3753 89.987 76.8149 90.9274L77.0109 91.3476L77.0497 91.455C77.2661 92.2928 77.843 93.338 78.5745 94.3344C79.3086 95.3414 80.191 96.3379 81.1437 97.2924C82.1063 98.2407 83.1365 99.157 84.208 100.036C84.7441 100.475 85.2964 100.897 85.8518 101.313C86.3978 101.722 86.9936 102.147 87.5118 102.488L87.0361 103.24L84.9794 106.487L84.5392 107.181Z" fill="#90B4E3"/>
<path d="M88.1738 118.698H114.132V112.102H88.1738V118.698Z" fill="#4D79C6"/>
<path d="M141.508 121.657H114.132V111.67C114.132 104.112 120.26 97.9846 127.82 97.9846C135.379 97.9846 141.508 104.112 141.508 111.67V121.657Z" fill="#3563B7"/>
<path d="M114.132 123.414H151.588V121.657H114.132V123.414Z" fill="#406FBF"/>
<path d="M151.589 123.414H124.213V121.657H151.589V123.414Z" fill="#3563B7"/>
<path d="M109.538 91.3728H110.509V114.49H109.538V91.3728Z" fill="#DADBD8"/>
<path d="M104.02 95.8575H110.802V92.5401C110.802 92.2954 110.604 92.0974 110.359 92.0974H104.02L105.129 93.9777L104.02 95.8575Z" fill="#406FBF"/>
<path d="M216.004 10.3284L179.128 18.733L174.404 21.6506L216.004 10.3284Z" fill="#406FBF"/>
<path d="M174.404 21.6506L179.128 18.733L184.064 17.6076L179.128 18.733L180.747 19.9243L174.404 21.6506Z" fill="#3563B7"/>
<path d="M216.004 10.3284L179.128 18.733L182.599 21.287L216.004 10.3284Z" fill="#406FBF"/>
<path d="M196.978 17.5935L178.479 16.8338C177.551 16.7956 176.824 16.0055 176.862 15.0776L177.206 6.70239C177.244 5.77454 178.034 5.04631 178.962 5.08456L197.461 5.84475C198.389 5.88247 199.117 6.67253 199.079 7.60038L198.735 15.9761C198.696 16.904 197.906 17.6317 196.978 17.5935Z" fill="#406FBF"/>
<path d="M197.048 17.595C197.025 17.595 197.002 17.5945 196.978 17.5935L194.205 17.4798L198.734 15.994C198.688 16.8899 197.939 17.595 197.048 17.595ZM184.278 17.0716L178.48 16.8338C177.575 16.7966 176.861 16.0448 176.86 15.1478C176.86 15.1248 176.861 15.1012 176.862 15.0776L177.206 6.70239C177.243 5.7976 177.995 5.08299 178.892 5.08299C178.915 5.08299 178.939 5.08351 178.962 5.08456L197.461 5.84476C198.365 5.88195 199.08 6.63324 199.081 7.53017C199.081 7.55375 199.08 7.57733 199.079 7.60038L199.071 7.78584L199.066 7.91681L198.823 13.8402L195.986 14.4201L192.286 11.8482C192.24 11.8168 192.188 11.8016 192.137 11.8016C192.054 11.8016 191.972 11.8409 191.921 11.9143C191.838 12.0332 191.868 12.1961 191.987 12.2789L195.276 14.5647L184.39 16.7898L184.278 17.0716ZM183.759 11.4574C183.714 11.4574 183.669 11.4689 183.628 11.493L177.853 14.8387C177.728 14.9116 177.685 15.0719 177.758 15.1971C177.806 15.2804 177.894 15.3276 177.985 15.3276L178.116 15.2924L183.89 11.9462C184.016 11.8739 184.059 11.7136 183.986 11.5884C183.937 11.5046 183.849 11.4574 183.759 11.4574ZM178.328 6.4572C178.245 6.4572 178.162 6.49649 178.112 6.57036C178.029 6.68929 178.06 6.85223 178.179 6.93448L187.74 13.5321C187.785 13.563 187.837 13.5787 187.889 13.5787L188.02 13.5436L198.09 7.75231C198.216 7.68054 198.259 7.52022 198.187 7.395C198.138 7.31065 198.05 7.2635 197.96 7.2635C197.915 7.2635 197.87 7.27503 197.829 7.29861L187.902 13.0071L178.476 6.5033C178.431 6.47239 178.379 6.4572 178.328 6.4572Z" fill="#CFE0F5"/>
<path d="M187.889 13.5787C187.837 13.5787 187.785 13.563 187.74 13.5321L178.179 6.93449C178.06 6.85223 178.029 6.6893 178.112 6.57037C178.163 6.4965 178.245 6.45721 178.328 6.45721C178.379 6.45721 178.431 6.4724 178.476 6.50331L187.902 13.0072L197.829 7.29861C197.87 7.27504 197.915 7.2635 197.96 7.2635C198.05 7.2635 198.138 7.31066 198.187 7.39501C198.259 7.52022 198.216 7.68054 198.09 7.75232L188.02 13.5436L187.889 13.5787Z" fill="#8BB2E3"/>
<path d="M195.276 14.5648L191.987 12.2789C191.868 12.1961 191.838 12.0332 191.921 11.9143C191.972 11.8409 192.054 11.8016 192.136 11.8016C192.188 11.8016 192.24 11.8168 192.286 11.8483L195.986 14.4202L195.276 14.5648Z" fill="#8BB2E3"/>
<path d="M177.985 15.3276C177.894 15.3276 177.806 15.2804 177.758 15.1971C177.685 15.0719 177.728 14.9116 177.853 14.8388L183.628 11.4931C183.669 11.469 183.714 11.4574 183.759 11.4574C183.85 11.4574 183.938 11.5046 183.986 11.5884C184.059 11.7136 184.016 11.8739 183.891 11.9462L178.116 15.2925L177.985 15.3276Z" fill="#8BB2E3"/>
<path d="M216.005 10.3284L184.39 16.7898L182.6 21.287L216.005 10.3284Z" fill="#406FBF"/>
<path d="M182.6 21.287L184.39 16.7898L216.005 10.3284L198.735 15.994L194.206 17.4798L182.6 21.287Z" fill="#3563B7"/>
<path d="M216.004 10.3284L184.39 16.7898L194.346 20.399L216.004 10.3284Z" fill="#406FBF"/>
<path d="M172.178 25.2704C172.059 25.2704 171.951 25.1892 171.923 25.0687C171.89 24.9278 171.977 24.7868 172.118 24.7533C172.707 24.615 173.281 24.4332 173.826 24.2131C173.96 24.1597 174.112 24.2241 174.167 24.3583C174.221 24.4924 174.156 24.6448 174.022 24.6993C173.453 24.9288 172.853 25.119 172.238 25.2636L172.178 25.2704Z" fill="#406FBF"/>
<path d="M150.103 24.0056C149.971 24.0056 149.858 23.9071 149.842 23.7735C149.826 23.63 149.929 23.5 150.073 23.4833C150.74 23.4068 151.45 23.3387 152.182 23.28C152.648 23.2433 153.135 23.2245 153.63 23.2245L153.803 23.225C153.947 23.226 154.064 23.3444 154.062 23.4896C154.061 23.6342 153.924 23.7473 153.798 23.7489L153.63 23.7484C153.149 23.7484 152.676 23.7662 152.224 23.8024C151.498 23.86 150.794 23.9281 150.133 24.0041L150.103 24.0056ZM161.15 24.6799L161.101 24.6757C159.977 24.4667 158.703 24.2293 157.457 24.0528C157.313 24.0323 157.214 23.8998 157.234 23.7568C157.255 23.6137 157.386 23.5137 157.53 23.5341C158.787 23.7117 160.068 23.9506 161.197 24.1607C161.34 24.1869 161.434 24.3236 161.407 24.4661C161.384 24.5924 161.274 24.6799 161.15 24.6799ZM142.851 25.504C142.74 25.504 142.637 25.4338 142.601 25.3233C142.557 25.186 142.632 25.0377 142.769 24.9927C143.89 24.627 145.107 24.3111 146.387 24.0543C146.529 24.0266 146.667 24.1177 146.695 24.2597C146.724 24.4012 146.632 24.5395 146.49 24.5678C145.231 24.8208 144.033 25.131 142.932 25.4909L142.851 25.504ZM168.496 25.6392H168.492C167.381 25.625 166.196 25.5208 164.766 25.3112C164.623 25.2903 164.524 25.1572 164.545 25.0142C164.566 24.8711 164.699 24.7721 164.842 24.7931C166.249 24.999 167.411 25.1011 168.499 25.1153C168.643 25.1174 168.759 25.2363 168.758 25.3809C168.756 25.5239 168.639 25.6392 168.496 25.6392ZM136.295 28.89C136.217 28.89 136.14 28.8555 136.088 28.7889C135.999 28.6747 136.02 28.5102 136.134 28.4217C137.097 27.673 138.163 26.9982 139.305 26.4172C139.434 26.3512 139.592 26.4025 139.658 26.5314C139.723 26.6603 139.672 26.8185 139.543 26.884C138.431 27.4503 137.392 28.1068 136.456 28.835C136.408 28.8722 136.351 28.89 136.295 28.89ZM131.472 34.465L131.341 34.4294C131.216 34.3565 131.173 34.1967 131.246 34.0715C131.882 32.9792 132.613 31.9502 133.419 31.014C133.513 30.9045 133.678 30.8919 133.788 30.9862C133.898 31.0805 133.911 31.2461 133.816 31.3556C133.031 32.2677 132.319 33.2705 131.699 34.3351C131.651 34.4184 131.563 34.465 131.472 34.465ZM128.915 41.3874L128.867 41.3832C128.725 41.357 128.63 41.2203 128.656 41.0783C128.882 39.8529 129.217 38.6364 129.649 37.4633C129.7 37.3277 129.85 37.258 129.986 37.3083C130.122 37.358 130.191 37.5089 130.141 37.6446C129.718 38.7899 129.392 39.9765 129.172 41.1731C129.148 41.2994 129.038 41.3874 128.915 41.3874ZM128.888 48.7631C128.763 48.7631 128.653 48.674 128.63 48.5472C128.58 48.268 128.535 47.9877 128.496 47.7068C128.368 46.7952 128.303 45.8574 128.303 44.9186V44.8112C128.303 44.6666 128.422 44.5456 128.566 44.5503C128.71 44.5508 128.827 44.6682 128.827 44.8133V44.9186C128.827 45.8328 128.89 46.7465 129.015 47.634C129.054 47.908 129.097 48.182 129.146 48.4545C129.172 48.597 129.077 48.7332 128.935 48.7589L128.888 48.7631ZM131.299 55.7463C131.205 55.7463 131.113 55.6944 131.066 55.6043C130.485 54.4789 129.986 53.3227 129.584 52.1685C129.537 52.0323 129.609 51.8829 129.746 51.8353C129.883 51.7871 130.032 51.8599 130.079 51.9966C130.473 53.1272 130.962 54.2605 131.532 55.3638C131.599 55.4927 131.548 55.6509 131.419 55.7169L131.299 55.7463ZM135.493 61.8415C135.421 61.8415 135.348 61.8111 135.297 61.7524C134.467 60.8094 133.692 59.8192 132.994 58.8085C132.912 58.6896 132.942 58.5262 133.061 58.4444C133.18 58.3616 133.343 58.392 133.425 58.511C134.112 59.5048 134.874 60.4788 135.69 61.4061C135.785 61.5151 135.775 61.6806 135.667 61.776C135.617 61.82 135.555 61.8415 135.493 61.8415ZM140.902 66.8993C140.846 66.8993 140.789 66.881 140.741 66.8432C139.747 66.0637 138.793 65.2495 137.905 64.4222C137.799 64.3238 137.793 64.1577 137.891 64.0519C137.99 63.946 138.156 63.9403 138.262 64.0388C139.14 64.8561 140.082 65.6608 141.064 66.4309C141.178 66.5205 141.198 66.685 141.109 66.7987C141.057 66.8647 140.98 66.8993 140.902 66.8993ZM188.34 70.0438C188.222 70.0438 188.114 69.9637 188.085 69.8437C188.051 69.7028 188.138 69.5613 188.278 69.5272C189.137 69.3198 190.051 69.1741 191.076 69.0824C191.382 69.0552 191.689 69.0332 191.995 69.017C192.143 69.0091 192.263 69.1207 192.271 69.2648C192.278 69.4094 192.167 69.533 192.023 69.5403C191.722 69.5561 191.423 69.5775 191.123 69.6043C190.124 69.6939 189.234 69.8353 188.401 70.0365L188.34 70.0438ZM199.371 70.2146L199.31 70.2078C198.12 69.9254 196.902 69.7258 195.69 69.6137C195.546 69.6006 195.44 69.4728 195.453 69.3287C195.466 69.1846 195.596 69.0793 195.738 69.0919C196.975 69.2061 198.217 69.4099 199.431 69.698C199.572 69.7316 199.659 69.8725 199.626 70.0134C199.597 70.1339 199.49 70.2146 199.371 70.2146ZM147.05 71.0372L146.918 71.0015C145.824 70.3666 144.761 69.7033 143.758 69.0306C143.638 68.9499 143.606 68.787 143.686 68.667C143.767 68.547 143.93 68.5145 144.05 68.5952C145.043 69.2622 146.097 69.9191 147.181 70.5484C147.307 70.6212 147.349 70.7815 147.277 70.9067C147.228 70.9905 147.14 71.0372 147.05 71.0372ZM206.262 72.8981L206.138 72.8661C205.699 72.6283 205.266 72.4093 204.859 72.2076C204.193 71.878 203.505 71.5736 202.812 71.3028C202.677 71.2499 202.611 71.0979 202.664 70.9633C202.716 70.8281 202.868 70.7621 203.003 70.8145C203.71 71.0911 204.412 71.4018 205.091 71.7376C205.504 71.9425 205.942 72.1646 206.387 72.4056C206.514 72.4748 206.562 72.6335 206.493 72.7608C206.445 72.8483 206.355 72.8981 206.262 72.8981ZM182.225 73.9464C182.172 73.9464 182.117 73.9297 182.07 73.8951C181.954 73.8092 181.929 73.6452 182.015 73.5289C182.729 72.5628 183.568 71.7528 184.507 71.1215C184.597 71.0618 184.688 71.0031 184.779 70.946C184.902 70.8695 185.063 70.9067 185.14 71.0298C185.216 71.1524 185.179 71.3138 185.056 71.3908C184.97 71.4448 184.884 71.4998 184.8 71.5569C183.91 72.1541 183.115 72.9222 182.437 73.8401C182.385 73.9098 182.306 73.9464 182.225 73.9464ZM153.659 74.3981L153.552 74.3755C152.398 73.86 151.268 73.3225 150.191 72.7765C150.062 72.7111 150.011 72.5534 150.076 72.4245C150.141 72.2956 150.299 72.2437 150.428 72.3092C151.497 72.8509 152.62 73.3853 153.765 73.8972C153.898 73.9559 153.957 74.1109 153.898 74.243C153.855 74.3404 153.759 74.3981 153.659 74.3981ZM160.552 77.1392L160.464 77.124C159.272 76.7012 158.099 76.2616 156.981 75.8184C156.847 75.7649 156.781 75.6125 156.834 75.4784C156.887 75.3437 157.039 75.2777 157.175 75.3311C158.287 75.7723 159.452 76.2092 160.639 76.6299C160.776 76.6781 160.847 76.828 160.799 76.9642C160.76 77.0721 160.659 77.1392 160.552 77.1392ZM211.267 78.0544C211.145 78.0544 211.034 77.9675 211.01 77.8423C210.812 76.8248 210.188 75.8362 209.153 74.9047C209.046 74.8078 209.038 74.6422 209.134 74.5348C209.231 74.4274 209.396 74.4185 209.504 74.5154C210.625 75.525 211.304 76.6105 211.525 77.7427C211.552 77.8847 211.46 78.0219 211.317 78.0497L211.267 78.0544ZM167.613 79.4056L167.54 79.3951C166.357 79.0499 165.161 78.6847 163.987 78.3091C163.849 78.265 163.773 78.1173 163.817 77.9795C163.861 77.8417 164.009 77.7663 164.146 77.8098C165.317 78.1844 166.508 78.5485 167.687 78.8922C167.825 78.9325 167.906 79.0776 167.865 79.2165C167.832 79.3312 167.727 79.4056 167.613 79.4056ZM179.595 80.8039L179.556 80.8008C179.413 80.7793 179.314 80.6462 179.336 80.5032C179.529 79.2086 179.837 77.9827 180.251 76.8599C180.301 76.7242 180.452 76.6556 180.588 76.7048C180.724 76.7551 180.793 76.9055 180.743 77.0417C180.341 78.1304 180.042 79.3213 179.854 80.5802C179.834 80.7107 179.723 80.8039 179.595 80.8039ZM174.785 81.2953L174.724 81.2885C173.526 81.0051 172.312 80.7023 171.12 80.3879C170.98 80.3513 170.897 80.2082 170.933 80.0684C170.97 79.9285 171.113 79.8441 171.253 79.8818C172.442 80.1946 173.65 80.4964 174.845 80.7782C174.986 80.8118 175.073 80.9527 175.04 81.0936C175.012 81.2141 174.904 81.2953 174.785 81.2953ZM182.045 82.8126L181.998 82.8084C180.786 82.5878 179.559 82.3479 178.352 82.0954C178.21 82.0655 178.119 81.9272 178.148 81.7852C178.178 81.6438 178.317 81.5542 178.458 81.5825C179.662 81.8339 180.884 82.0728 182.091 82.2929C182.234 82.3191 182.328 82.4553 182.303 82.5978C182.279 82.7241 182.169 82.8126 182.045 82.8126ZM189.373 83.9526L189.339 83.9505C188.119 83.7928 186.881 83.6168 185.661 83.4271C185.518 83.4046 185.42 83.271 185.442 83.128C185.465 82.985 185.598 82.8875 185.742 82.909C186.958 83.0987 188.191 83.2742 189.406 83.4308C189.55 83.4497 189.651 83.5812 189.633 83.7242C189.616 83.8562 189.503 83.9526 189.373 83.9526ZM207.74 83.9626C207.64 83.9626 207.545 83.9055 207.501 83.8085C207.441 83.677 207.5 83.5215 207.631 83.4617C208.807 82.9294 209.704 82.1682 210.296 81.2C210.371 81.0769 210.532 81.0381 210.656 81.113C210.779 81.1885 210.818 81.3498 210.743 81.4735C210.095 82.5328 209.121 83.3622 207.848 83.939L207.74 83.9626ZM196.751 84.7128L196.73 84.7123C195.502 84.6175 194.257 84.5059 193.03 84.3791C192.886 84.3644 192.781 84.2355 192.796 84.092C192.811 83.9479 192.939 83.841 193.083 83.8583C194.306 83.9841 195.547 84.0957 196.77 84.1894C196.915 84.201 197.023 84.3267 197.012 84.4708C197.001 84.6086 196.886 84.7128 196.751 84.7128ZM201.83 84.979C201.354 84.979 200.888 84.9669 200.44 84.9475C200.295 84.9412 200.183 84.8187 200.19 84.6741C200.196 84.53 200.318 84.4179 200.463 84.4241C200.903 84.443 201.362 84.4551 201.83 84.4551C202.653 84.4551 203.426 84.4168 204.129 84.3408C204.271 84.3246 204.402 84.4289 204.417 84.5729C204.433 84.717 204.329 84.8464 204.185 84.8616C203.464 84.9397 202.671 84.979 201.83 84.979ZM179.426 88.2063C179.287 88.2063 179.171 88.0968 179.165 87.9564C179.117 86.8907 179.073 85.747 179.073 84.6038L179.074 84.2355C179.075 84.0909 179.175 83.9657 179.338 83.9762C179.483 83.9772 179.599 84.0951 179.598 84.2403L179.597 84.6038C179.597 85.7371 179.641 86.8734 179.688 87.9328C179.695 88.0774 179.583 88.1994 179.438 88.2063H179.426ZM179.527 95.6175L179.509 95.617C179.365 95.607 179.256 95.4823 179.265 95.3377C179.314 94.6231 179.337 93.8698 179.337 93.0341C179.337 92.5757 179.33 92.1162 179.318 91.6562C179.315 91.5116 179.429 91.3911 179.574 91.3874C179.719 91.3733 179.838 91.4975 179.842 91.6426C179.854 92.1073 179.861 92.571 179.861 93.0341C179.861 93.8818 179.837 94.6467 179.788 95.3734C179.779 95.5117 179.664 95.6175 179.527 95.6175ZM177.708 102.753L177.589 102.724C177.46 102.658 177.409 102.501 177.475 102.372C177.645 102.042 177.802 101.704 177.943 101.367C178.261 100.608 178.526 99.7968 178.73 98.9569C178.765 98.8165 178.907 98.7301 179.047 98.7647C179.188 98.7987 179.274 98.9407 179.24 99.0811C179.029 99.9476 178.755 100.785 178.426 101.57C178.28 101.919 178.117 102.269 177.942 102.611C177.895 102.701 177.803 102.753 177.708 102.753ZM173.05 108.464C172.976 108.464 172.904 108.433 172.852 108.374C172.757 108.264 172.768 108.099 172.878 108.004C173.85 107.162 174.717 106.286 175.453 105.401C175.546 105.29 175.711 105.275 175.822 105.368C175.933 105.46 175.948 105.625 175.856 105.736C175.102 106.643 174.215 107.54 173.221 108.4C173.171 108.443 173.11 108.464 173.05 108.464ZM166.884 112.546C166.785 112.546 166.69 112.489 166.646 112.392C166.586 112.261 166.644 112.106 166.775 112.045C167.731 111.609 168.593 111.14 169.336 110.653C169.544 110.517 169.751 110.378 169.957 110.237C170.077 110.156 170.239 110.186 170.321 110.306C170.402 110.426 170.372 110.589 170.252 110.67C170.044 110.813 169.834 110.953 169.623 111.091C168.858 111.593 167.973 112.074 166.993 112.522L166.884 112.546ZM159.833 114.809C159.712 114.809 159.604 114.726 159.577 114.603C159.547 114.462 159.637 114.322 159.778 114.291C161.012 114.025 162.21 113.709 163.341 113.352C163.478 113.308 163.626 113.384 163.669 113.523C163.713 113.661 163.636 113.808 163.498 113.851C162.352 114.213 161.138 114.533 159.889 114.804L159.833 114.809ZM152.485 115.776C152.347 115.776 152.231 115.667 152.224 115.527C152.217 115.383 152.329 115.259 152.473 115.252C153.686 115.193 154.921 115.082 156.145 114.921C156.288 114.901 156.421 115.003 156.439 115.146C156.458 115.289 156.358 115.421 156.214 115.44C154.976 115.603 153.726 115.716 152.498 115.776L152.485 115.776Z" fill="#406FBF"/>
<path d="M148.724 115.789L148.712 115.789C148.087 115.761 147.467 115.718 146.869 115.66C146.726 115.647 146.62 115.518 146.634 115.374C146.648 115.231 146.775 115.125 146.92 115.139C147.509 115.196 148.12 115.238 148.735 115.265C148.879 115.272 148.992 115.394 148.985 115.539C148.979 115.679 148.863 115.789 148.724 115.789Z" fill="#406FBF"/>
<path d="M172.178 25.2704C172.059 25.2704 171.951 25.1892 171.923 25.0687C171.918 25.0488 171.916 25.0289 171.916 25.0095C171.915 24.89 171.997 24.7821 172.118 24.7533C172.707 24.615 173.281 24.4332 173.825 24.2131C173.857 24.2006 173.89 24.1943 173.923 24.1943C174.027 24.1943 174.125 24.2561 174.167 24.3583C174.18 24.3907 174.185 24.4243 174.185 24.4573C174.185 24.5605 174.123 24.6579 174.022 24.6993C173.453 24.9288 172.853 25.119 172.238 25.2636L172.178 25.2704Z" fill="#A4C3E9"/>
<path d="M152.485 115.776C152.347 115.776 152.231 115.667 152.224 115.527C152.224 115.522 152.224 115.518 152.224 115.514C152.224 115.375 152.333 115.259 152.473 115.252C153.686 115.193 154.921 115.082 156.145 114.921C156.157 114.919 156.169 114.918 156.18 114.918C156.309 114.918 156.422 115.015 156.439 115.146C156.441 115.157 156.441 115.168 156.441 115.179C156.442 115.309 156.346 115.423 156.214 115.44C155.188 115.575 154.155 115.675 153.133 115.74C152.921 115.754 152.709 115.766 152.498 115.776L152.485 115.776Z" fill="#A4C3E9"/>
<path d="M159.833 114.809C159.712 114.809 159.604 114.726 159.577 114.603C159.573 114.584 159.571 114.565 159.571 114.547C159.571 114.426 159.655 114.318 159.778 114.291C161.012 114.025 162.21 113.709 163.34 113.352C163.366 113.344 163.393 113.339 163.419 113.339C163.53 113.339 163.633 113.411 163.669 113.523C163.677 113.548 163.681 113.575 163.681 113.6C163.682 113.712 163.61 113.816 163.498 113.851C162.352 114.213 161.138 114.533 159.889 114.804L159.833 114.809Z" fill="#A4C3E9"/>
<path d="M166.885 112.546C166.785 112.546 166.691 112.489 166.647 112.392C166.63 112.358 166.623 112.321 166.623 112.285C166.623 112.185 166.679 112.089 166.776 112.045C167.732 111.609 168.593 111.14 169.336 110.653C169.544 110.517 169.751 110.378 169.958 110.237C170.003 110.206 170.054 110.192 170.105 110.192C170.189 110.192 170.271 110.232 170.322 110.306C170.352 110.351 170.367 110.402 170.368 110.453C170.368 110.536 170.328 110.619 170.253 110.67C170.044 110.813 169.835 110.953 169.624 111.091C168.858 111.593 167.973 112.074 166.994 112.522L166.885 112.546Z" fill="#A4C3E9"/>
<path d="M173.05 108.464C172.976 108.464 172.903 108.433 172.852 108.374C172.809 108.324 172.787 108.263 172.787 108.202C172.787 108.129 172.818 108.056 172.878 108.004C173.85 107.162 174.717 106.286 175.453 105.401C175.505 105.339 175.58 105.307 175.654 105.307C175.714 105.307 175.773 105.327 175.822 105.368C175.884 105.419 175.917 105.494 175.916 105.57C175.916 105.629 175.897 105.688 175.856 105.736C175.102 106.643 174.215 107.54 173.221 108.4C173.171 108.443 173.11 108.464 173.05 108.464Z" fill="#A4C3E9"/>
<path d="M177.709 102.753L177.59 102.724C177.499 102.678 177.447 102.586 177.447 102.491C177.447 102.451 177.457 102.41 177.476 102.372C177.645 102.042 177.803 101.704 177.944 101.367C178.262 100.608 178.527 99.7967 178.731 98.9569C178.76 98.8375 178.868 98.7568 178.986 98.7568C179.006 98.7568 179.027 98.7594 179.048 98.7646C179.168 98.7935 179.248 98.9009 179.248 99.0187C179.248 99.0392 179.246 99.0601 179.24 99.0811C179.124 99.5599 178.988 100.03 178.834 100.487C178.71 100.857 178.574 101.219 178.427 101.57C178.28 101.919 178.117 102.269 177.942 102.611C177.896 102.701 177.804 102.753 177.709 102.753Z" fill="#A4C3E9"/>
<path d="M179.527 95.6176L179.509 95.617C179.37 95.6076 179.264 95.4918 179.265 95.3545C179.265 95.3493 179.265 95.3435 179.265 95.3378C179.313 94.6232 179.337 93.8698 179.337 93.0341C179.337 92.5757 179.33 92.1162 179.318 91.6563C179.318 91.6536 179.318 91.6515 179.318 91.6494C179.318 91.5075 179.431 91.3911 179.573 91.3875C179.581 91.387 179.588 91.3864 179.596 91.3864C179.73 91.3864 179.838 91.5054 179.842 91.6426C179.854 92.1073 179.861 92.571 179.861 93.0341C179.861 93.8818 179.837 94.6467 179.788 95.3734C179.779 95.5117 179.663 95.6176 179.527 95.6176Z" fill="#A4C3E9"/>
<path d="M179.427 88.2063C179.288 88.2063 179.172 88.0968 179.165 87.9564C179.118 86.8908 179.073 85.7471 179.073 84.6039L179.075 84.2356C179.076 84.0967 179.169 83.9752 179.321 83.9752C179.326 83.9752 179.333 83.9757 179.339 83.9762C179.482 83.9773 179.598 84.0936 179.599 84.2366C179.599 84.2377 179.599 84.2387 179.599 84.2403L179.597 84.6039C179.597 85.7371 179.641 86.8735 179.689 87.9328C179.689 87.937 179.689 87.9417 179.689 87.9464C179.688 88.0848 179.579 88.2 179.439 88.2063H179.427Z" fill="#A4C3E9"/>
<path d="M201.831 84.979C201.354 84.979 200.888 84.9669 200.44 84.9476C200.299 84.9413 200.189 84.8244 200.189 84.6846C200.189 84.6809 200.189 84.6778 200.19 84.6741C200.196 84.5337 200.312 84.4237 200.451 84.4237C200.455 84.4237 200.459 84.4237 200.463 84.4242C200.904 84.443 201.362 84.4551 201.831 84.4551C202.653 84.4551 203.426 84.4168 204.129 84.3409C204.138 84.3398 204.148 84.3393 204.158 84.3393C204.289 84.3393 204.403 84.4389 204.418 84.573C204.419 84.5835 204.419 84.5934 204.419 84.6034C204.418 84.7349 204.319 84.8475 204.185 84.8616C204.03 84.8784 203.872 84.8936 203.71 84.9067C203.121 84.9549 202.491 84.979 201.831 84.979Z" fill="#A4C3E9"/>
<path d="M196.751 84.7128L196.731 84.7123C195.502 84.6175 194.257 84.5059 193.03 84.3791C192.895 84.3655 192.795 84.2513 192.795 84.1187C192.795 84.1098 192.795 84.1009 192.796 84.092C192.81 83.9584 192.921 83.8562 193.053 83.8562C193.064 83.8562 193.074 83.8568 193.084 83.8583C194.307 83.9841 195.547 84.0957 196.771 84.1894C196.908 84.2004 197.013 84.3152 197.013 84.4509C197.013 84.4577 197.013 84.464 197.012 84.4708C197.001 84.6086 196.886 84.7128 196.751 84.7128Z" fill="#A4C3E9"/>
<path d="M207.74 83.9626C207.641 83.9626 207.545 83.9055 207.501 83.8086C207.485 83.7735 207.478 83.7368 207.478 83.7006C207.478 83.6011 207.535 83.5057 207.632 83.4617C208.808 82.9294 209.705 82.1682 210.296 81.2C210.345 81.1193 210.432 81.0748 210.52 81.0748C210.567 81.0748 210.614 81.0874 210.657 81.113C210.737 81.1628 210.782 81.2493 210.782 81.3378C210.782 81.3839 210.769 81.431 210.744 81.4735C210.096 82.5328 209.122 83.3622 207.848 83.939L207.74 83.9626Z" fill="#A4C3E9"/>
<path d="M189.374 83.9526L189.34 83.9505C188.119 83.7928 186.882 83.6168 185.661 83.4272C185.532 83.4067 185.439 83.2951 185.439 83.1678C185.439 83.1547 185.441 83.1411 185.443 83.128C185.463 82.9981 185.574 82.9064 185.701 82.9064C185.715 82.9064 185.728 82.9069 185.742 82.909C186.958 83.0987 188.191 83.2742 189.407 83.4308C189.539 83.4481 189.636 83.5613 189.635 83.6912C189.635 83.7022 189.635 83.7132 189.633 83.7242C189.616 83.8562 189.503 83.9526 189.374 83.9526Z" fill="#A4C3E9"/>
<path d="M182.045 82.8126L181.998 82.8084C180.787 82.5879 179.56 82.3479 178.352 82.0954C178.228 82.0697 178.143 81.9602 178.144 81.8382C178.144 81.8209 178.145 81.8031 178.149 81.7852C178.175 81.6616 178.285 81.5772 178.407 81.5772C178.424 81.5772 178.441 81.5788 178.459 81.5825C179.663 81.834 180.885 82.0729 182.092 82.2929C182.219 82.316 182.308 82.4265 182.307 82.5512C182.307 82.5664 182.306 82.5821 182.303 82.5978C182.28 82.7241 182.169 82.8126 182.045 82.8126Z" fill="#A4C3E9"/>
<path d="M174.785 81.2953L174.724 81.2885C174.289 81.1859 173.852 81.0806 173.415 80.9726C172.648 80.784 171.88 80.5886 171.12 80.3879C171.003 80.3575 170.925 80.2522 170.925 80.137C170.925 80.1139 170.927 80.0909 170.933 80.0684C170.964 79.951 171.069 79.8729 171.186 79.8729C171.208 79.8729 171.231 79.8755 171.253 79.8818C172.442 80.1946 173.65 80.4964 174.845 80.7782C174.966 80.8071 175.048 80.9155 175.047 81.0344C175.047 81.0538 175.044 81.0737 175.04 81.0936C175.011 81.2141 174.904 81.2953 174.785 81.2953Z" fill="#A4C3E9"/>
<path d="M179.595 80.804L179.556 80.8008C179.426 80.7814 179.333 80.6703 179.333 80.543C179.333 80.5299 179.334 80.5163 179.336 80.5032C179.529 79.2086 179.837 77.9827 180.251 76.8599C180.29 76.7541 180.391 76.6892 180.497 76.6892C180.528 76.6892 180.558 76.6944 180.588 76.7049C180.694 76.7442 180.759 76.8448 180.759 76.9516C180.759 76.9815 180.754 77.0119 180.743 77.0417C180.341 78.1304 180.042 79.3213 179.854 80.5802C179.834 80.7107 179.723 80.804 179.595 80.804Z" fill="#A4C3E9"/>
<path d="M167.613 79.4056L167.54 79.3951C166.357 79.0498 165.161 78.6847 163.987 78.309C163.876 78.2734 163.805 78.1712 163.805 78.0607C163.805 78.034 163.808 78.0067 163.817 77.9795C163.853 77.8684 163.956 77.7977 164.067 77.7977C164.093 77.7977 164.12 77.8014 164.146 77.8097C165.316 78.1843 166.507 78.5485 167.686 78.8921C167.801 78.9251 167.875 79.0289 167.875 79.142C167.876 79.1667 167.872 79.1918 167.865 79.2165C167.832 79.3312 167.727 79.4056 167.613 79.4056Z" fill="#A4C3E9"/>
<path d="M211.268 78.0544C211.145 78.0544 211.035 77.9675 211.011 77.8423C210.813 76.8248 210.188 75.8362 209.154 74.9047C209.097 74.8534 209.068 74.7821 209.067 74.7108C209.067 74.648 209.089 74.5851 209.135 74.5348C209.186 74.4772 209.258 74.4484 209.329 74.4484C209.392 74.4484 209.455 74.4704 209.505 74.5154C210.625 75.525 211.305 76.6105 211.525 77.7427C211.529 77.759 211.53 77.7757 211.53 77.792C211.531 77.9151 211.444 78.0251 211.318 78.0497L211.268 78.0544Z" fill="#A4C3E9"/>
<path d="M160.552 77.1392L160.464 77.124C159.271 76.7012 158.099 76.2616 156.981 75.8184C156.878 75.7775 156.815 75.6785 156.815 75.5742C156.815 75.5423 156.822 75.5098 156.834 75.4784C156.875 75.3757 156.973 75.3128 157.077 75.3128C157.109 75.3128 157.142 75.3186 157.174 75.3311C158.287 75.7723 159.452 76.2092 160.639 76.6299C160.746 76.6682 160.814 76.7693 160.814 76.8772C160.814 76.906 160.808 76.9354 160.798 76.9642C160.76 77.0721 160.659 77.1392 160.552 77.1392Z" fill="#A4C3E9"/>
<path d="M153.659 74.3981L153.552 74.3755C152.399 73.86 151.268 73.3225 150.191 72.7766C150.101 72.7305 150.048 72.6388 150.048 72.5439C150.048 72.5036 150.057 72.4627 150.076 72.4245C150.122 72.3333 150.214 72.2809 150.31 72.2809C150.35 72.2809 150.391 72.2898 150.428 72.3092C151.497 72.851 152.62 73.3853 153.766 73.8972C153.863 73.9402 153.921 74.0355 153.921 74.1351C153.921 74.1712 153.914 74.2079 153.898 74.243C153.855 74.3404 153.759 74.3981 153.659 74.3981Z" fill="#A4C3E9"/>
<path d="M182.225 73.9465C182.171 73.9465 182.117 73.9297 182.07 73.8951C182.001 73.8443 181.964 73.7657 181.964 73.6856C181.963 73.6311 181.98 73.5761 182.015 73.5289C182.729 72.5628 183.568 71.7529 184.507 71.1215C184.597 71.0618 184.688 71.0031 184.779 70.946C184.822 70.9193 184.87 70.9062 184.917 70.9062C185.005 70.9062 185.09 70.9502 185.14 71.0299C185.167 71.0728 185.18 71.121 185.18 71.1682C185.18 71.2557 185.136 71.3411 185.056 71.3908C184.97 71.4448 184.884 71.4998 184.8 71.5569C183.91 72.1542 183.115 72.9222 182.437 73.8401C182.385 73.9098 182.306 73.9465 182.225 73.9465Z" fill="#A4C3E9"/>
<path d="M206.263 72.8981L206.138 72.8661C205.699 72.6283 205.267 72.4093 204.859 72.2076C204.82 72.1877 204.78 72.1683 204.74 72.1494C204.402 71.9838 204.058 71.8251 203.71 71.6737C203.413 71.5443 203.113 71.4201 202.812 71.3028C202.709 71.2624 202.646 71.1634 202.646 71.0591C202.646 71.0272 202.651 70.9947 202.664 70.9633C202.704 70.8595 202.803 70.7967 202.908 70.7967C202.939 70.7967 202.972 70.8024 203.003 70.8145C203.71 71.0911 204.412 71.4018 205.091 71.7376C205.504 71.9425 205.943 72.1646 206.387 72.4056C206.475 72.4533 206.525 72.5429 206.525 72.6361C206.525 72.678 206.515 72.721 206.493 72.7608C206.446 72.8483 206.355 72.8981 206.263 72.8981Z" fill="#A4C3E9"/>
<path d="M147.05 71.0372L146.918 71.0015C145.824 70.3666 144.761 69.7033 143.758 69.0306C143.683 68.9803 143.642 68.8975 143.642 68.8137C143.642 68.7629 143.656 68.7121 143.686 68.667C143.737 68.5916 143.82 68.5512 143.904 68.5512C143.954 68.5512 144.005 68.5654 144.05 68.5952C145.043 69.2622 146.097 69.9192 147.181 70.5484C147.266 70.5971 147.312 70.6856 147.312 70.7763C147.312 70.8208 147.3 70.8653 147.277 70.9067C147.228 70.9905 147.14 71.0372 147.05 71.0372Z" fill="#A4C3E9"/>
<path d="M199.372 70.2147L199.31 70.2079C199.246 70.1927 199.181 70.1775 199.116 70.1623C197.988 69.904 196.837 69.7196 195.691 69.6137C195.554 69.6012 195.452 69.4864 195.452 69.3523C195.453 69.3444 195.453 69.3366 195.454 69.3287C195.466 69.1925 195.583 69.0909 195.716 69.0909C195.723 69.0909 195.731 69.0914 195.738 69.0919C196.975 69.2061 198.218 69.4099 199.431 69.6981C199.552 69.7269 199.634 69.8348 199.633 69.9543C199.633 69.9737 199.631 69.9936 199.626 70.0135C199.598 70.134 199.49 70.2147 199.372 70.2147Z" fill="#A4C3E9"/>
<path d="M188.34 70.0438C188.222 70.0438 188.115 69.9637 188.086 69.8437C188.081 69.8227 188.078 69.8018 188.078 69.7813C188.079 69.6635 188.159 69.5566 188.279 69.5272C189.137 69.3198 190.052 69.1741 191.076 69.0824C191.382 69.0552 191.69 69.0332 191.996 69.017C192.001 69.017 192.006 69.017 192.011 69.017C192.152 69.017 192.264 69.1254 192.272 69.2648C192.272 69.2695 192.272 69.2742 192.272 69.2784C192.272 69.4172 192.164 69.533 192.024 69.5403C191.723 69.5561 191.423 69.5775 191.124 69.6043C190.125 69.6939 189.235 69.8353 188.402 70.0365L188.34 70.0438Z" fill="#A4C3E9"/>
<path d="M140.902 66.8993C140.846 66.8993 140.789 66.881 140.741 66.8432C139.748 66.0636 138.793 65.2495 137.905 64.4222C137.85 64.3704 137.821 64.3007 137.821 64.2305C137.821 64.1666 137.845 64.1021 137.892 64.0518C137.943 63.9963 138.014 63.9685 138.083 63.9685C138.148 63.9685 138.212 63.9916 138.262 64.0387C139.14 64.856 140.082 65.6608 141.064 66.4309C141.13 66.4828 141.164 66.5593 141.165 66.6368C141.165 66.6934 141.147 66.7505 141.109 66.7987C141.057 66.8647 140.98 66.8993 140.902 66.8993Z" fill="#A4C3E9"/>
<path d="M135.493 61.8415C135.421 61.8415 135.349 61.8111 135.297 61.7524C134.659 61.0279 134.054 60.2755 133.492 59.5075C133.448 59.4472 133.404 59.3875 133.361 59.3272C133.236 59.1549 133.114 58.982 132.994 58.8086C132.963 58.763 132.948 58.7111 132.948 58.6593C132.948 58.5765 132.988 58.4948 133.061 58.4445C133.106 58.4125 133.158 58.3978 133.21 58.3978C133.293 58.3978 133.375 58.4371 133.426 58.511C134.112 59.5049 134.874 60.4788 135.69 61.4061C135.734 61.4564 135.756 61.5188 135.755 61.5806C135.755 61.6529 135.725 61.7247 135.667 61.776C135.617 61.82 135.555 61.8415 135.493 61.8415Z" fill="#A4C3E9"/>
<path d="M131.3 55.7463C131.205 55.7463 131.113 55.6944 131.067 55.6043C130.485 54.4789 129.987 53.3227 129.585 52.1685C129.575 52.1397 129.57 52.1103 129.57 52.0815C129.571 51.9736 129.638 51.873 129.746 51.8353C129.775 51.8253 129.804 51.8206 129.833 51.8206C129.941 51.8206 130.042 51.8882 130.08 51.9966C130.474 53.1272 130.962 54.2605 131.533 55.3638C131.552 55.4021 131.562 55.4429 131.562 55.4833C131.562 55.5786 131.511 55.6703 131.42 55.7169L131.3 55.7463Z" fill="#A4C3E9"/>
<path d="M128.888 48.7631C128.763 48.7631 128.653 48.674 128.63 48.5472C128.58 48.268 128.535 47.9877 128.496 47.7068C128.368 46.7952 128.303 45.8574 128.303 44.9186V44.8112C128.303 44.6692 128.417 44.5503 128.557 44.5503C128.56 44.5503 128.563 44.5503 128.566 44.5503C128.71 44.5508 128.827 44.6682 128.827 44.8133V44.9186C128.827 45.8328 128.89 46.7465 129.015 47.634C129.054 47.908 129.097 48.182 129.146 48.4545C129.149 48.4702 129.151 48.4859 129.151 48.5011C129.151 48.6258 129.061 48.7363 128.935 48.7589L128.888 48.7631Z" fill="#A4C3E9"/>
<path d="M128.915 41.3875L128.867 41.3833C128.74 41.3597 128.652 41.2486 128.652 41.1244C128.652 41.1093 128.654 41.0935 128.657 41.0783C128.882 39.8529 129.217 38.6364 129.65 37.4634C129.688 37.3575 129.789 37.292 129.895 37.292C129.925 37.292 129.956 37.2973 129.986 37.3083C130.092 37.3476 130.158 37.4476 130.157 37.5545C130.157 37.5844 130.152 37.6153 130.141 37.6446C129.718 38.7899 129.392 39.9766 129.172 41.1732C129.149 41.2994 129.039 41.3875 128.915 41.3875Z" fill="#A4C3E9"/>
<path d="M131.473 34.465L131.341 34.4293C131.257 34.3806 131.21 34.2921 131.211 34.2014C131.211 34.1574 131.222 34.1124 131.247 34.0715C131.883 32.9792 132.614 31.9502 133.419 31.014C133.471 30.9537 133.544 30.9228 133.618 30.9228C133.678 30.9228 133.739 30.9438 133.789 30.9862C133.849 31.0375 133.88 31.1104 133.88 31.1837C133.88 31.2445 133.859 31.3058 133.817 31.3556C133.707 31.4829 133.599 31.6123 133.492 31.7432C133.448 31.7967 133.404 31.8512 133.361 31.9057C132.754 32.6659 132.197 33.4805 131.699 34.335C131.651 34.4183 131.563 34.465 131.473 34.465Z" fill="#A4C3E9"/>
<path d="M136.295 28.89C136.217 28.89 136.14 28.8554 136.088 28.7889C136.051 28.7407 136.033 28.6836 136.033 28.627C136.034 28.5495 136.068 28.473 136.134 28.4216C137.097 27.673 138.164 26.9982 139.306 26.4172C139.344 26.3972 139.384 26.3883 139.425 26.3883C139.52 26.3883 139.612 26.4407 139.658 26.5314C139.678 26.5701 139.687 26.6105 139.687 26.6508C139.687 26.7456 139.634 26.8379 139.543 26.884C138.431 27.4503 137.392 28.1068 136.456 28.835C136.408 28.8722 136.352 28.89 136.295 28.89Z" fill="#A4C3E9"/>
<path d="M168.496 25.6392H168.492C167.381 25.625 166.196 25.5208 164.766 25.3112C164.635 25.2923 164.541 25.1792 164.542 25.0508C164.542 25.0388 164.543 25.0262 164.545 25.0141C164.563 24.8837 164.676 24.7904 164.803 24.7904C164.816 24.7904 164.829 24.791 164.842 24.793C166.249 24.9989 167.411 25.1011 168.499 25.1152C168.642 25.1173 168.758 25.2342 168.758 25.3772C168.758 25.3788 168.758 25.3798 168.758 25.3809C168.755 25.5239 168.639 25.6392 168.496 25.6392Z" fill="#A4C3E9"/>
<path d="M142.851 25.504C142.74 25.504 142.638 25.4338 142.601 25.3233C142.593 25.2965 142.589 25.2693 142.589 25.2426C142.588 25.1321 142.659 25.0294 142.769 24.9927C143.89 24.627 145.108 24.3111 146.387 24.0544C146.405 24.0507 146.421 24.0491 146.438 24.0491C146.561 24.0491 146.671 24.1345 146.695 24.2597C146.699 24.277 146.701 24.2948 146.701 24.3121C146.7 24.4342 146.614 24.5432 146.491 24.5678C145.231 24.8208 144.034 25.131 142.932 25.4909L142.851 25.504Z" fill="#A4C3E9"/>
<path d="M161.15 24.6799L161.102 24.6757C159.978 24.4667 158.704 24.2294 157.458 24.0528C157.327 24.0339 157.232 23.9218 157.232 23.7935C157.232 23.7809 157.233 23.7688 157.235 23.7568C157.253 23.6258 157.365 23.5315 157.494 23.5315C157.506 23.5315 157.519 23.532 157.531 23.5341C158.788 23.7117 160.069 23.9506 161.198 24.1607C161.324 24.1843 161.412 24.2933 161.412 24.4164C161.412 24.4332 161.411 24.4494 161.408 24.4662C161.385 24.5924 161.275 24.6799 161.15 24.6799Z" fill="#A4C3E9"/>
<path d="M150.103 24.0056C149.971 24.0056 149.858 23.9071 149.842 23.7735C149.841 23.763 149.841 23.7531 149.841 23.7431C149.841 23.6122 149.939 23.4985 150.073 23.4833C150.741 23.4068 151.45 23.3387 152.183 23.28C152.648 23.2433 153.135 23.2245 153.63 23.2245L153.803 23.225C153.946 23.226 154.062 23.3429 154.062 23.4859C154.062 23.4875 154.062 23.488 154.062 23.4896C154.061 23.6342 153.924 23.7473 153.798 23.7489L153.63 23.7484C153.149 23.7484 152.676 23.7662 152.224 23.8023C151.498 23.86 150.794 23.9281 150.133 24.004L150.103 24.0056Z" fill="#A4C3E9"/>
<path d="M148.724 115.789L148.712 115.789C148.087 115.761 147.468 115.718 146.87 115.66C146.735 115.647 146.634 115.534 146.633 115.401C146.633 115.393 146.633 115.384 146.634 115.374C146.647 115.239 146.761 115.137 146.895 115.137C146.903 115.137 146.912 115.138 146.92 115.139C147.509 115.196 148.12 115.238 148.735 115.265C148.877 115.272 148.987 115.388 148.986 115.528C148.986 115.532 148.986 115.535 148.986 115.539C148.979 115.679 148.863 115.789 148.724 115.789Z" fill="#A4C3E9"/>
</svg>
