<svg width="153" height="176" viewBox="0 0 153 176" fill="none" xmlns="http://www.w3.org/2000/svg">
<path d="M152.181 35.5396L147.135 15.0683C97.6638 40.657 76.1973 1.52588e-05 76.1973 1.52588e-05C76.1973 1.52588e-05 54.589 40.657 5.11745 15.0683L0 35.5396C0 35.5396 7.96096 45.7752 7.96096 51.4615C7.96096 57.2095 7.17559 62.978 7.09338 68.7377C6.93263 79.9319 7.71948 91.1797 9.90019 102.171C12.4648 115.094 17.0508 127.545 24.4312 138.509C32.2865 150.179 44.2103 157.246 56.0262 164.353C58.1636 165.638 60.3172 166.915 62.55 168.032C70.5102 172.012 76.1973 175.993 76.1973 175.993C76.1973 175.993 82.0245 172.519 89.7117 168.032C95.4956 164.655 100.594 161.873 105.79 158.402C112.257 154.081 118.815 149.74 123.861 143.741C128.749 137.928 132.556 131.258 135.528 124.285C137.065 120.678 138.382 116.978 139.508 113.22C142.833 102.119 144.433 90.5419 144.914 78.9814C145.24 71.1092 145.002 63.2378 144.434 55.384C144.339 54.0819 144.185 52.768 144.185 51.4615C144.185 45.7752 152.181 35.5396 152.181 35.5396Z" fill="#2996C3"/>
<path d="M85.6648 79.8997H65.8468V68.9631C65.8468 63.08 69.8735 58.2885 75.7558 58.2885C81.6432 58.2885 85.6648 63.08 85.6648 68.9631V79.8997ZM79.3876 99.9356V108.744H73.1714C73.1714 108.261 73.1714 99.9356 73.1714 99.9356C71.9287 98.9991 71.1191 97.4525 71.1191 95.7078C71.1191 92.8445 73.5075 90.5272 76.3672 90.5272L76.401 90.528L76.4259 90.5272C79.2892 90.5272 81.5911 92.8445 81.5911 95.7078C81.5911 97.4525 80.6317 98.9991 79.3876 99.9356ZM94.4728 79.8997V69.9143C94.4728 65.3063 92.8521 61.0828 90.0629 57.8378C86.6571 53.8764 81.7775 51.3654 76.158 51.3654C65.9297 51.3654 57.7728 59.6868 57.7728 69.9143V79.8997H52.6348V119.536H99.6108V79.8997H94.4728Z" fill="#FBFBFB"/>
</svg>
