<svg xmlns="http://www.w3.org/2000/svg" viewBox="0 0 155.96 97.15"><defs><style>.cls-1{fill:#dedede;}.cls-2{fill:#acd4f7;}.cls-2,.cls-3,.cls-4{stroke:#000;stroke-miterlimit:10;}.cls-2,.cls-3{stroke-width:2px;}.cls-3,.cls-4{fill:none;stroke-linecap:round;}.cls-4{stroke-width:0.75px;}</style></defs><g id="Layer_2" data-name="Layer 2"><g id="Layer_1-2" data-name="Layer 1"><rect class="cls-1" x="1" y="11.89" width="130.22" height="4.94"/><path class="cls-1" d="M155,52.28a27.24,27.24,0,1,1-54.47,0c0-.84,0-1.68.12-2.5a27.23,27.23,0,0,0,54.23,0C154.92,50.6,155,51.44,155,52.28Z"/><rect class="cls-2" x="1" y="1" width="130.22" height="11.75"/><path class="cls-3" d="M100.49,51.68a27.25,27.25,0,0,0,27.24,27.24,26.8,26.8,0,0,0,3.49-.23V96.15H1V12.75H131.22V24.68a26.8,26.8,0,0,0-3.49-.23A27.24,27.24,0,0,0,100.49,51.68Z"/><line class="cls-3" x1="91.73" y1="7.54" x2="99.05" y2="7.54"/><line class="cls-3" x1="104.73" y1="7.54" x2="112.05" y2="7.54"/><line class="cls-3" x1="116.73" y1="7.54" x2="124.05" y2="7.54"/><line class="cls-3" x1="65.34" y1="43.33" x2="85.09" y2="43.33"/><line class="cls-3" x1="65.34" y1="59.33" x2="85.09" y2="59.33"/><line class="cls-3" x1="18.19" y1="75.38" x2="79.3" y2="75.38"/><line class="cls-4" x1="44.78" y1="29.42" x2="49.92" y2="33.73"/><line class="cls-4" x1="21.78" y1="56.42" x2="26.92" y2="60.73"/><rect class="cls-3" x="19.22" y="26.19" width="33.53" height="37.28"/><line class="cls-4" x1="22.04" y1="29.42" x2="49.92" y2="52.68"/><line class="cls-4" x1="29.78" y1="29.42" x2="49.68" y2="46.09"/><line class="cls-4" x1="36.78" y1="29.42" x2="49.92" y2="40.43"/><line class="cls-4" x1="22.04" y1="51.24" x2="32.92" y2="60.73"/><line class="cls-4" x1="22.04" y1="46.09" x2="38.92" y2="60.73"/><line class="cls-4" x1="22.04" y1="41.38" x2="45.68" y2="61.09"/><line class="cls-4" x1="22.04" y1="35.38" x2="49.92" y2="58.62"/><path class="cls-3" d="M155,51.68a27.23,27.23,0,0,1-23.74,27,26.8,26.8,0,0,1-3.49.23,27.24,27.24,0,1,1,0-54.47,26.8,26.8,0,0,1,3.49.23A27.22,27.22,0,0,1,155,51.68Z"/><polygon class="cls-2" points="113.34 48.77 117.43 44.06 124.05 52.68 134.28 37.76 139.22 41.38 124.92 63.47 113.34 48.77"/></g></g></svg>