<svg xmlns="http://www.w3.org/2000/svg" viewBox="0 0 152.16 110.69"><defs><style>.cls-1{fill:#dedede;}.cls-2,.cls-3,.cls-6{fill:none;}.cls-2,.cls-3,.cls-5,.cls-6{stroke:#000;stroke-miterlimit:10;}.cls-2{stroke-width:0.75px;}.cls-3,.cls-5,.cls-6{stroke-width:2px;}.cls-4,.cls-5{fill:#acd4f7;}.cls-6{stroke-linecap:round;}</style></defs><g id="Layer_2" data-name="Layer 2"><g id="Layer_1-2" data-name="Layer 1"><rect class="cls-1" x="1" y="12.23" width="130.04" height="4.77"/><path class="cls-2" d="M108.56,47.68l-.19-.46-.48.28.53.26.22.11Z"/><circle class="cls-3" cx="117.9" cy="78.24" r="8.55" transform="translate(21.78 182.08) rotate(-80.78)"/><circle class="cls-3" cx="117.9" cy="78.24" r="8.55" transform="translate(21.78 182.08) rotate(-80.78)"/><path class="cls-3" d="M109.35,47.22l-.79.46-.14.08.22.11,1.23.59Z"/><path class="cls-4" d="M35.7,35.78C33.14,42.17,27.84,56.42,25,68c-4.51-.62-10-1.54-10.83-2.41L22.88,32Z"/><path class="cls-2" d="M42.42,37.76s-.23.54-.61,1.47c-1.55,3.69-5.62,13.6-8.24,21.36a52.17,52.17,0,0,0-2.26,8.19S28.43,68.47,25,68c2.81-11.58,8.11-25.83,10.67-32.22Z"/><path class="cls-2" d="M14.2,65.59c.88.87,6.32,1.79,10.83,2.41"/><line class="cls-2" x1="35.7" y1="35.78" x2="22.88" y2="32.01"/><line class="cls-2" x1="41.29" y1="66.66" x2="33.57" y2="60.59"/><path class="cls-2" d="M41.81,39.23c2.63-.62,6.95-1.64,10.69-2.62,5.27-1.37,12-3.78,17.28,0"/><path class="cls-2" d="M109.57,32.78s-1.34.54-3.23,1.33c-1.51.63-3.38,1.42-5.2,2.21l-1.06.47,0,0a34.77,34.77,0,0,0-5.92,3l4.71,13"/><polyline class="cls-2" points="100.08 36.79 102.82 45.07 104.32 49.6"/><path class="cls-2" d="M90.78,68a29.28,29.28,0,0,0-1.13-5c-.89-2.3-7.66-11.62-9.57-13.31a21.16,21.16,0,0,0-7.28-3.55c-.77,0-7.92,3.45-11.23,6.26s-7.28,1.15-7.79-.79,3.44-5.85,11.36-12.36a12.88,12.88,0,0,1,4.64-2.51c6.41-1.88,12.43,2.1,14.38,2.51a90.89,90.89,0,0,0,10,.64"/><path class="cls-2" d="M78.42,58.05c4,3.26,5.75,7.78,6.84,10.48.53,1.33.91,2.21,1.33,2.29l.17,0"/><path class="cls-2" d="M78.42,72.74s.38,1.53,3.83,2.29c2.19.49,2.83-3.52,3-6.5"/><path class="cls-2" d="M75.22,66.1s6,7.23,1.54,9-6-.67-6-.67"/><path class="cls-2" d="M70.25,72.35s1.49,8.81-6.79,6.26"/><path class="cls-2" d="M49.82,32s4.85-4.21,15.57-4.59"/><path class="cls-2" d="M47,27.42A19.7,19.7,0,0,1,56.46,23"/><path class="cls-2" d="M51.74,68.31s5-1.32,5.87.47-2.77,4.85-3.88,5.49-5.44.13-5.95-1.28S46.91,68.6,51.74,68.31Z"/><path class="cls-2" d="M57.61,70.84s3.57-1.64,4.85-.57S65,74.14,58.37,77s-5.88-.69-5.75-1.24a3,3,0,0,0,0-1.19"/><path class="cls-2" d="M63.32,73.15S66.75,73,66.9,74s-.61,2.71-2.53,4.06-6.25,1.6-6-1.08"/><path class="cls-2" d="M46.12,70.82a2.7,2.7,0,0,0,2.3-2,12.67,12.67,0,0,0-2.94-2.68c-1.15-.51-4.34-.77-5,2S47,70.84,47,70.84"/><line class="cls-2" x1="106.34" y1="34.11" x2="111.35" y2="37.19"/><line class="cls-2" x1="101.14" y1="36.32" x2="111.35" y2="41.33"/><line class="cls-2" x1="101.14" y1="39.8" x2="113.91" y2="46.31"/><line class="cls-2" x1="113.91" y1="50.4" x2="109.87" y2="48.46"/><line class="cls-2" x1="107.88" y1="47.5" x2="102.82" y2="45.07"/><line class="cls-2" x1="113.91" y1="53.71" x2="110.46" y2="52.23"/><rect class="cls-5" x="1" y="1" width="130.04" height="11.23"/><path class="cls-3" d="M141.43,80.21l9.45-2-4.09-13.32L139,67.53a23.66,23.66,0,0,0-6.44-7.84l5.09-8.39L131,48.4l-4.59-2-3.7,8.75a23.73,23.73,0,0,0-10.06.08h0l-1-2.46-1.78-4.28-1.23-.59-.22-.11L96.75,54.62l4.7,6.68a23.43,23.43,0,0,0-5.32,7.79l-5.39-1.4-2.16-.56-3.23,14.3,9.28.83a23.28,23.28,0,0,0,3,8l-5.73,5.84-1.25,1.28,9.53,9,5.69-7.9a23.27,23.27,0,0,0,9,3.1v8h11.66v-9.44a22.79,22.79,0,0,0,6.2-3.58l6.48,7,9.36-11.32-9-4.56A23,23,0,0,0,141.43,80.21ZM117.9,69.69a8.55,8.55,0,1,1-8.55,8.55A8.55,8.55,0,0,1,117.9,69.69Z"/><circle class="cls-3" cx="117.9" cy="78.24" r="8.55" transform="translate(21.78 182.08) rotate(-80.78)"/><path class="cls-3" d="M131,12.23V48.4l-4.59-2-3.7,8.75a23.73,23.73,0,0,0-10.06.08h0l-1-2.46-1.78-4.28-1.23-.59-.22-.11L96.75,54.62l4.7,6.68a23.43,23.43,0,0,0-5.32,7.79l-5.39-1.4-2.16-.56-3.23,14.3,9.28.83a23.28,23.28,0,0,0,3,8l-5.73,5.84H1V12.23Z"/><line class="cls-6" x1="91.38" y1="6.62" x2="99.21" y2="6.62"/><line class="cls-6" x1="105.38" y1="6.62" x2="113.21" y2="6.62"/></g></g></svg>