<svg xmlns="http://www.w3.org/2000/svg" viewBox="0 0 130.43 130.77"><defs><style>.cls-1,.cls-5{fill:#acd4f7;}.cls-1,.cls-2,.cls-3,.cls-4,.cls-5{stroke:#000;stroke-miterlimit:10;}.cls-1,.cls-2,.cls-3,.cls-5{stroke-width:2px;}.cls-2,.cls-3,.cls-4{fill:none;}.cls-3,.cls-4,.cls-5{stroke-linecap:round;}</style></defs><g id="Layer_2" data-name="Layer 2"><g id="Layer_1-2" data-name="Layer 1"><path class="cls-1" d="M21.17,96.14v28.09H6.1V96.14H18.89C20,96.14,20,96.09,21.17,96.14Z"/><path class="cls-2" d="M6.1,124.23H1"/><line class="cls-2" x1="6.1" y1="96.14" x2="1" y2="96.14"/><path class="cls-2" d="M43.32,98.7h-3A21.66,21.66,0,0,1,43.32,98.7Z"/><path class="cls-2" d="M89.9,103.53h0l3.21-1.33h0c7.22-3,14.64-6,19.11-7.9l4.15-1.72s10-2.81,12.26,2.3-1,6.89-3.83,8.68-55.15,24.76-55.15,24.76-7.66,2.05-13,1.28-23.49-5.36-26.3-5.36H21.17V96.14a39.37,39.37,0,0,0,7.55-3.45,19.12,19.12,0,0,0,2.66-1.91,42.93,42.93,0,0,1,6.38-5,9,9,0,0,1,4.6-1.34H69.93A10.8,10.8,0,0,1,74,86a5.06,5.06,0,0,1,2.35,4.23c0,4.85-4.09,8.43-9.45,8.43H43.32a21.66,21.66,0,0,0-3,0h3c3.66.22,9.93,1.35,14.36,6.12,3.62,3.9,6.39,5.67,9,6.19h0a11.52,11.52,0,0,0,5.93-.61h0"/><path class="cls-2" d="M66.69,111a11.52,11.52,0,0,0,5.93-.61"/><path class="cls-2" d="M89.9,103.53c-7.74,3.16-14.66,6-16.65,6.66l-.61.2"/><path class="cls-2" d="M93.47,100.89c-.1.44-.21.87-.33,1.3h0l-3.21,1.33Q91.77,102.29,93.47,100.89Z"/><path class="cls-2" d="M77.84,52.21a12.74,12.74,0,0,1-5.26,10.32c-1.19.92-1.67,2.83-1.84,4.65a42.3,42.3,0,0,0-4.84-.4H64.7a36.11,36.11,0,0,0-5.28.4c-.17-1.81-.64-3.7-1.82-4.61A12.77,12.77,0,1,1,77.84,52.21Z"/><polyline class="cls-3" points="64.7 66.78 64.7 57.72 68.27 54.66"/><line class="cls-3" x1="64.7" y1="57.72" x2="60.61" y2="54.66"/><line class="cls-2" x1="69.05" y1="75.35" x2="71.21" y2="84.4"/><line class="cls-2" x1="56.06" y1="84.4" x2="60.61" y2="75.35"/><line class="cls-4" x1="77.84" y1="59.64" x2="80.97" y2="61.85"/><line class="cls-4" x1="80.23" y1="48.4" x2="84.32" y2="47.04"/><line class="cls-4" x1="73.97" y1="39.44" x2="76.32" y2="36.61"/><line class="cls-4" x1="64.7" y1="36.61" x2="64.7" y2="32.74"/><line class="cls-4" x1="53" y1="41.94" x2="49.42" y2="39.44"/><line class="cls-4" x1="44.32" y1="54.66" x2="48.5" y2="53.17"/><path class="cls-3" d="M43.32,98.7h-3A21.66,21.66,0,0,1,43.32,98.7Z"/><path class="cls-3" d="M89.9,103.53c-7.74,3.16-14.66,6-16.65,6.66l-.61.2"/><path class="cls-3" d="M110,66a44.92,44.92,0,0,1-16.55,34.87c.4-1.55.72-3.14,1-4.75C96.33,84,90.56,74.87,81,70.23a34.45,34.45,0,0,0-10.23-3,42.3,42.3,0,0,0-4.84-.4H64.7a36.11,36.11,0,0,0-5.28.4,28.22,28.22,0,0,0-13,5.27,23.11,23.11,0,0,0-8.63,13.3,42.93,42.93,0,0,0-6.38,5,19.12,19.12,0,0,1-2.66,1.91A45,45,0,1,1,110,66Z"/><path class="cls-3" d="M43.32,98.7h-3A21.66,21.66,0,0,1,43.32,98.7Z"/><path class="cls-5" d="M72.62,110.4h0l.61-.2c2-.7,8.91-3.5,16.65-6.66h0q1.85-1.23,3.55-2.63c.4-1.55.72-3.14,1-4.75C96.33,84,90.56,74.87,81,70.23L74,86a5.06,5.06,0,0,1,2.35,4.23c0,4.85-4.09,8.43-9.45,8.43H43.32c3.66.22,9.93,1.35,14.36,6.12,3.62,3.9,6.39,5.67,9,6.19h0"/><path class="cls-3" d="M66.69,111a11.52,11.52,0,0,0,5.93-.61"/><path class="cls-3" d="M89.9,103.53c-7.74,3.16-14.66,6-16.65,6.66l-.61.2"/><path class="cls-3" d="M89.92,103.52q1.85-1.23,3.55-2.63c-.1.44-.21.87-.33,1.3h0Z"/><path class="cls-5" d="M81,70.23,74,86a10.8,10.8,0,0,0-4-1.64H50.61l-4.22-12a28.22,28.22,0,0,1,13-5.27,31.24,31.24,0,0,1,0,4.13v.08a5.62,5.62,0,0,0,11.24,0v-.09a30.42,30.42,0,0,1,0-4.11A34.45,34.45,0,0,1,81,70.23Z"/><path class="cls-5" d="M70.69,71.29v.09a5.62,5.62,0,0,1-11.24,0V71.3a31.24,31.24,0,0,0,0-4.13,36.11,36.11,0,0,1,5.28-.4h1.2a42.3,42.3,0,0,1,4.84.4A30.42,30.42,0,0,0,70.69,71.29Z"/><path class="cls-5" d="M50.61,84.4H42.36a9,9,0,0,0-4.6,1.34,23.11,23.11,0,0,1,8.63-13.3Z"/><path class="cls-3" d="M110,66a44.92,44.92,0,0,1-16.55,34.87c.4-1.55.72-3.14,1-4.75C96.33,84,90.56,74.87,81,70.23a34.45,34.45,0,0,0-10.23-3,42.3,42.3,0,0,0-4.84-.4H64.7a36.11,36.11,0,0,0-5.28.4,28.22,28.22,0,0,0-13,5.27,23.11,23.11,0,0,0-8.63,13.3,42.93,42.93,0,0,0-6.38,5,19.12,19.12,0,0,1-2.66,1.91A45,45,0,1,1,110,66Z"/><path class="cls-3" d="M129.43,56.19V73.42l-10.16,1.92a54.41,54.41,0,0,1-7,19c-4.47,1.86-11.89,4.94-19.11,7.9.12-.43.23-.86.33-1.3a45,45,0,1,0-64.75-8.2,39.37,39.37,0,0,1-7.55,3.45H8.91l6.34-6.49a54.19,54.19,0,0,1-4.53-14.31L1,73.42V57.72l9.81-1.53a54.09,54.09,0,0,1,4.66-14.26L8.91,34.67,18.78,21l8.66,4.76A54.64,54.64,0,0,1,39,17.44V6.25l14-5,6.31,10a55.88,55.88,0,0,1,13.07.2L77.84,1.25,92.2,6.87V18.13a54.56,54.56,0,0,1,10.08,7.37L112.06,21l10.21,12.6-7.74,8.34a54.43,54.43,0,0,1,4.35,12.72Z"/></g></g></svg>