<svg xmlns="http://www.w3.org/2000/svg" viewBox="0 0 533.33 533.33"><defs><style>.cls-1{fill:#6a6a6a;}</style></defs><g id="Layer_2" data-name="Layer 2"><g id="Layer_1-2" data-name="Layer 1"><path class="cls-1" d="M266.67,0c-72.43,0-81.51.31-110,1.6S109,7.41,92,14A130.5,130.5,0,0,0,44.76,44.76,130.5,130.5,0,0,0,14,92C7.41,109,2.9,128.34,1.6,156.72S0,194.24,0,266.67s.31,81.5,1.6,109.94S7.41,424.38,14,441.34a130.62,130.62,0,0,0,30.76,47.24A130.61,130.61,0,0,0,92,519.33c17,6.6,36.35,11.1,64.73,12.4s37.52,1.6,110,1.6,81.5-.3,109.94-1.6,47.77-5.8,64.73-12.4a136.24,136.24,0,0,0,78-78c6.6-17,11.1-36.34,12.4-64.73s1.6-37.52,1.6-109.94-.3-81.51-1.6-110S525.93,109,519.33,92a130.61,130.61,0,0,0-30.75-47.23A130.62,130.62,0,0,0,441.34,14C424.38,7.41,405,2.9,376.61,1.6S339.09,0,266.67,0Zm0,48.05c71.2,0,79.63.27,107.75,1.55,26,1.19,40.12,5.53,49.52,9.18a82.64,82.64,0,0,1,30.66,20,82.72,82.72,0,0,1,19.95,30.66c3.65,9.4,8,23.52,9.18,49.52,1.28,28.12,1.56,36.55,1.56,107.76s-.28,79.63-1.56,107.75c-1.18,26-5.53,40.12-9.18,49.52a88.34,88.34,0,0,1-50.61,50.61c-9.4,3.65-23.52,8-49.52,9.18-28.11,1.28-36.55,1.56-107.75,1.56S187,485,158.91,483.73c-26-1.18-40.12-5.53-49.52-9.18A82.72,82.72,0,0,1,78.73,454.6a82.64,82.64,0,0,1-20-30.66c-3.65-9.4-8-23.52-9.18-49.52-1.28-28.12-1.55-36.55-1.55-107.75S48.32,187,49.6,158.91c1.19-26,5.53-40.12,9.18-49.52a82.72,82.72,0,0,1,20-30.66,82.72,82.72,0,0,1,30.66-20c9.4-3.65,23.52-8,49.52-9.18,28.12-1.28,36.55-1.55,107.76-1.55"/><path class="cls-1" d="M266.67,355.56a88.89,88.89,0,1,1,88.89-88.89A88.89,88.89,0,0,1,266.67,355.56Zm0-225.83A136.94,136.94,0,1,0,403.6,266.67,136.94,136.94,0,0,0,266.67,129.73M441,124.32a32,32,0,1,1-32-32,32,32,0,0,1,32,32"/></g></g></svg>