<?xml version="1.0" encoding="utf-8"?>
<!-- Generator: Adobe Illustrator 25.0.0, SVG Export Plug-In . SVG Version: 6.00 Build 0)  -->
<svg version="1.1" id="_x3C_Layer_x3E_" xmlns="http://www.w3.org/2000/svg" xmlns:xlink="http://www.w3.org/1999/xlink" x="0px"
	 y="0px" viewBox="0 0 3500 2000" style="enable-background:new 0 0 3500 2000;" xml:space="preserve">
<style type="text/css">
	.st0{fill:#E1F5FF;}
	.st1{fill:#AED4F4;}
	.st2{fill:#6D89CF;}
	.st3{fill:#3662C1;}
	.st4{fill:#60C4BF;}
	.st5{fill:#7FDDDA;}
	.st6{fill:#39B2A9;}
	.st7{fill:#A8D7F4;}
	.st8{fill:#C2EBFF;}
	.st9{fill:#B3E8E8;}
	.st10{fill:#84CECC;}
	.st11{fill:#AF4E4E;}
	.st12{fill:#EA8888;}
	.st13{fill:#63D6D0;}
	.st14{fill:#FC9290;}
	.st15{fill:#0B0754;}
	.st16{fill:#369ED2;}
	.st17{fill:#0D94C9;}
	.st18{fill:#9E332E;}
	.st19{fill:#5A80CC;}
	.st20{fill:#E1E4EF;stroke:#FFFFFF;stroke-linejoin:round;stroke-miterlimit:10;}
	.st21{fill:#BED2FA;}
</style>
<g>
	<g>
		<g>
			<path class="st0" d="M873.94,1793.13c0,0-274.09-583.68,266.11-583.68c285.42,0,167.84-160.14,361.89-345.48
				c194.05-185.33,872.68-333.41,1017.12,24.48c144.44,357.89-212.52,629.61,132.41,583c414.5-56.01,578.25,321.68,578.25,321.68
				H873.94z"/>
			<path class="st1" d="M3093.79,1719.08c-25.58-18.69-77.84-6.07-116.42,7.42c-5.76-8.1-12.75-16.44-21.2-24.6
				c83.1-53.53,197.87-167.69,137.04-177.35c-52.88-8.4-124.24,94.36-162.38,156.91c-39.61-26.64-100.29-46.23-192.95-39.44
				c-240.47,17.63-428.32-137.48-566.79-85.75c-110.1,41.13-211,64.18-308.3,56.3c4.19-71.09,5.1-210.66-50.72-225.14
				c-56.67-14.7-1.08,143.81,29.81,222.95c-7.25-0.93-14.48-2.03-21.7-3.32c-20.01-39.45-52.97-91.07-89.17-92.83
				c-34.09-1.66,7.98,44.75,49.39,84.06c-119-24.98-260.16,71.75-262.5,186.12h1485.64c0,0-2.63-16.7-14.29-38.71
				C3046.66,1744.59,3121.57,1739.38,3093.79,1719.08z"/>
			<g>
				<g>
					<rect x="1450.4" y="1696.03" class="st2" width="391.56" height="88.42"/>
					<rect x="1329.67" y="1696.02" class="st3" width="391.56" height="88.42"/>
				</g>
			</g>
			<g>
				<g>
					<g>
						
							<rect x="1995.99" y="1376.9" transform="matrix(-1 -1.224647e-16 1.224647e-16 -1 4283.542 3161.3232)" class="st4" width="291.56" height="407.53"/>
						
							<rect x="1906.09" y="1376.9" transform="matrix(-1 -1.224647e-16 1.224647e-16 -1 4103.7461 3161.3232)" class="st5" width="291.56" height="407.53"/>
					</g>
				</g>
				<polygon class="st6" points="2197.65,1376.9 2287.55,1438.09 2287.55,1376.9 				"/>
			</g>
			<g>
				<path class="st7" d="M1297.63,1467.17c0,0-54.53,40.55-65.16,38.09c-10.63-2.46,39.85-43.77,39.85-43.77
					c-19-9.13-78.05-3.41-78.05-3.41s-19.67,63.43-29.37,58.43c-9.7-5,20.28-55.27,20.28-55.27c-21.16-1.28-47.11,14.43-47.11,14.43
					c-35.52,28.05,2.33,72.22,2.33,72.22s-7.29,21.83-29.72,41.72c0,0-32.04,23.69-34.26,66.03l5.81,0.52
					c0,0,9.22-39.43,25.97-58.08c0.65-0.67,1.6-1.65,2.77-2.82c2.73-2.53,4.64-4.43,5.93-5.83c8.34-8.01,19.86-18.22,25.41-19.21
					c0,0-0.28-1.02-0.24-2.79c0.08,0.89,0.15,1.81,0.24,2.79c1.9,22.32,45.21,41.82,71.85,45.83c26.64,4.01,18.41-6.94,9.23-23.18
					c-9.18-16.24-38.23-23.5-44.86-30.98c-6.63-7.48,7.07-7.5,23.13-0.16c16.05,7.33,18.25,26.88,44,39.21
					c25.75,12.33,64.5-30.4,64.5-30.4c-20.52-1.04-49.83-23.33-48.77-30.15c1.06-6.82,49.75,11.77,58.07,12.66
					s27.26-9.46,30.19-42.99C1352.59,1476.52,1297.63,1467.17,1297.63,1467.17z"/>
				<g>
					<path class="st7" d="M1008.05,1492.35c0,0,60.22-33.73,32.12-79.5c0,0-22.48-28.1-46.57-35.33c0,0,12.85,68.25,0,69.86
						c-12.85,1.61-8.83-77.09-8.83-77.09s-63.44-30.51-88.33-28.1c0,0,39.35,66.65,26.5,65.04c-12.85-1.61-57.01-69.06-57.01-69.06
						s-65.04-12.05-75.48,26.5c-10.44,38.54,6.42,57.82,16.06,60.22c9.64,2.41,71.46,1.61,69.86,9.64
						c-1.61,8.03-43.36,20.88-66.65,13.65c0,0,25.7,63.44,59.42,60.22c33.73-3.21,44.16-24.09,65.04-25.7
						c20.88-1.61,36.13,4.02,25.69,9.64c-10.44,5.62-45.77,1.84-62.63,16.18c-16.86,14.34-30.51,23.17,0.8,29.59
						c31.32,6.42,87.52,2.41,98.77-21.68C1008.05,1492.35,1008.05,1492.35,1008.05,1492.35z"/>
					<path class="st3" d="M1024.11,1550.96c-16.86-31.32-16.06-58.62-16.06-58.62c-19.27-61.03-187.9-115.63-187.9-115.63
						c214.39,86.72,176.65,139.72,176.65,139.72c5.78,3.37,14.44,19.44,20.45,31.77c0.85,2.1,2.21,5,4.23,8.94l0,0
						c0.82,1.78,1.47,3.24,1.92,4.26c11.04,27.62,5.19,75.32,5.19,75.32l6.69,1.8C1050.12,1590.45,1024.11,1550.96,1024.11,1550.96z
						"/>
				</g>
				<g>
					<path class="st8" d="M1103.87,1445.83c0,0-79.39-44.46-42.34-104.79c0,0,29.64-37.05,61.39-46.57c0,0-16.94,89.97,0,92.09
						c16.94,2.12,11.64-101.61,11.64-101.61s83.62-40.22,116.43-37.05c0,0-51.87,87.85-34.93,85.74
						c16.94-2.12,75.15-91.03,75.15-91.03s85.74-15.88,99.5,34.93c13.76,50.81-8.47,76.21-21.17,79.38s-94.2,2.12-92.09,12.7
						s57.16,27.52,87.85,17.99c0,0-33.87,83.62-78.33,79.39c-44.46-4.23-58.22-31.75-85.74-33.87c-27.52-2.12-47.63,5.29-33.87,12.7
						c13.76,7.41,60.33,2.43,82.56,21.33c22.23,18.9,40.22,30.54-1.06,39.01c-41.28,8.47-115.37,3.18-130.19-28.58
						C1103.87,1445.83,1103.87,1445.83,1103.87,1445.83z"/>
					<path class="st3" d="M1351.55,1293.41c0,0-222.28,71.98-247.68,152.42c0,0,1.06,35.99-21.17,77.27
						c0,0-34.28,52.05-14.74,115.42l8.82-2.37c0,0-7.71-62.87,6.84-99.28c0.59-1.34,1.45-3.26,2.53-5.61l0,0
						c2.66-5.2,4.44-9.03,5.57-11.79c7.93-16.25,19.35-37.44,26.96-41.88C1118.68,1477.59,1068.94,1407.73,1351.55,1293.41z"/>
				</g>
				<path class="st9" d="M1101.19,1775.93c85.88,0,155.5-69.62,155.5-155.5H945.69C945.69,1706.31,1015.31,1775.93,1101.19,1775.93z
					"/>
				<path class="st10" d="M1139.45,1774.74c-6.32,0.79-12.77,1.19-19.32,1.19c-85.88,0-155.5-69.62-155.5-155.5h38.63
					C1003.27,1699.77,1062.69,1765.23,1139.45,1774.74z"/>
				<path class="st9" d="M1239.66,1765.24H962.72c-10.6,0-19.18,8.59-19.18,19.19h315.3
					C1258.84,1773.83,1250.25,1765.24,1239.66,1765.24z"/>
				<path class="st11" d="M1257.85,1620.43H942.96c-1.32,0-2.38,1.07-2.38,2.39c0,1.32,1.07,2.38,2.38,2.38h314.89
					c1.32,0,2.38-1.07,2.38-2.38C1260.23,1621.5,1259.16,1620.43,1257.85,1620.43z"/>
			</g>
			<g>
				<path class="st12" d="M2457.79,801.56c-4.51-0.68-18.09,11.87-18.09,11.87l0,0c-29,3.35-71.41,11.05-86.67,13.99
					c-10.82,2.08-39.92-7.84-68.35-19.23c-33.81-13.55-66.66-29.19-66.66-29.19c-18.76-0.95-40.06,33.27-2.02,55.03
					c5.81,3.32,27.63,8.99,52.75,14.17c0,0,0,0,0.01,0c34.66,7.14,75.61,13.34,89.55,11.16c16.19-2.53,62.02-19.3,89.29-32.14v0
					c0,0,0.03-0.01,0.07-0.03c0.1-0.05,0.2-0.1,0.3-0.14c1.64-0.77,8.31-3.74,12.76-3.47c5.11,0.3,16.48-9.04,16.83-11.54
					C2477.92,809.55,2462.3,802.25,2457.79,801.56z"/>
				<path class="st5" d="M2422.38,1232.72l-15.97,3.25c0,0-73.08-82.11-84.35-116.66c-6.04-18.46-44.61-26.44-84.93-36.87
					c-35.09-9.07-71.5-20-88.89-41.33c-37.37-45.83,23.47-102.13,23.47-102.13s64.69,38.45,120.5,78.17
					c39.01,27.76,73.68,56.14,78.91,72.45C2383.81,1129.26,2410.72,1204.65,2422.38,1232.72z"/>
				<path class="st3" d="M2401.01,1259.81h8.98c3.01-0.47,5.23-1.34,8.32-1.75c4.69-0.61,6.84,1.31,7.27,1.75
					c0.06,0.06,0.08,0.09,0.08,0.09h38.15c0.96-1.37,0.04-4.55-0.86-6.88c-0.61-1.59-1.93-2.79-3.57-3.26
					c-4.05-1.17-12.02-2.22-19.33-8.83c-4.11-3.71-19.85-13.66-19.85-13.66l-0.08-0.02c-0.35,0.01-1.99,0.51-9.15,6.56
					c-3.7,3.12-10.01-4.4-10.01-4.4s-1.18,0.98-2.07,2.8c-0.71,1.44-1.23,3.42-0.82,5.86c0.57,3.44-1.27,9.83-2.73,14.15
					c-0.89,2.62-1.64,4.48-1.64,4.48S2393.28,1258.84,2401.01,1259.81z"/>
				<path class="st13" d="M2292.22,1017.15l-55.09,65.3c-35.09-9.07-71.5-20-88.89-41.33c-37.37-45.83,23.47-102.13,23.47-102.13
					S2236.41,977.42,2292.22,1017.15z"/>
				<path class="st5" d="M2242.16,983.04c0,0-4.44,14-11.67,35.07c-9.14,26.64-22.76,64.57-37.53,99.75
					c-3.25,7.73-6.55,15.33-9.87,22.65c-12.28,27.07-24.86,50.28-35.93,62.07c-19.89,21.2-68.25,157.49-68.25,157.49l-12.05-3.33
					c0,0-16.8-116.38,42.71-182.6c0.64-0.71,1.14-1.52,1.21-2.47c0.01-0.01,0.01-0.02,0.01-0.03c0.79-9.8,3.62-53.7,9.79-98.18
					c1.51-10.91,3.23-21.85,5.16-32.34c0.12-0.67,0.25-1.33,0.37-2c9.05-48.48,17.72-70.04,28.91-80.88l82.28,23.42L2242.16,983.04z
					"/>
				<path class="st3" d="M2065.52,1376.81h8.98c3.01-0.47,5.23-1.34,8.32-1.75c4.69-0.62,6.84,1.3,7.27,1.75
					c0.06,0.06,0.08,0.09,0.08,0.09h38.16c0.96-1.37,0.04-4.54-0.87-6.88c-0.61-1.59-1.93-2.79-3.57-3.27
					c-4.04-1.17-12.02-2.21-19.33-8.83c-4.11-3.71-19.85-13.66-19.85-13.66l-0.08-0.02c-0.35,0-1.99,0.51-9.15,6.55
					c-3.7,3.12-10.01-4.41-10.01-4.41s-1.18,0.98-2.07,2.81c-0.71,1.44-1.23,3.42-0.82,5.86c0.57,3.44-1.27,9.83-2.73,14.15
					c-0.89,2.62-1.64,4.47-1.64,4.47S2057.79,1375.84,2065.52,1376.81z"/>
				<path class="st14" d="M2083.17,824.76c0,0-13.77,33.68-29.64,66.46c-13.35,27.56-28.19,54.49-37.59,60.23
					c-13.26,8.1-49.8,30.96-73.5,48c0,0-18.5-0.14-21.37,3.4c-2.87,3.54-9.5,19.45-7.57,21.06c1.94,1.61,16.64,0.86,20.21-2.8
					c3.12-3.19,10.05-5.49,11.78-6.02c0.11-0.03,0.21-0.06,0.32-0.1c0.04-0.01,0.07-0.02,0.07-0.02v0
					c28.8-8.86,73.98-27.32,87.65-36.35c11.77-7.77,37.88-39.93,58.7-68.54c0,0,0,0,0,0c15.09-20.74,27.41-39.63,29.47-45.99
					C2135.19,822.39,2096.39,811.43,2083.17,824.76z"/>
				<path class="st15" d="M2155.16,692.69c-1.63-2.38-3.29-4.49-4.93-6.37c2.04,0.04,4.25-0.16,6.08-0.91
					c4.83-2,7.04-17.34,6.31-21.89c-0.73-4.55-7.44-17.71-15.71-19.02c-8.28-1.31-16.83,7.88-16.83,7.88
					c1.53-6.64,15.53-10.46,15.53-10.46c-28.85,5.32-27.38,24.56-27.18,26.34c-26.41-9.41-41.91,40.32-41.91,40.32l68.4,40.31
					c0,0,0.18-10.98,6.71-10.28C2161.8,739.71,2170.28,714.72,2155.16,692.69z"/>
				<path class="st14" d="M2159.52,797.04c-15.7,7.4-36.52-3.26-36.41-3.37c1.35-1.35,0.87-5.38-0.36-10.64
					c-1.23-5.49-4.15-13.01-9.53-21.97c-1.12-1.91-2.24-3.81-3.59-5.83l1.79-0.67l30.49-12.22c0,0,4.93,8.86,10.09,16.93
					c4.37,6.73,8.97,12.78,10.99,12.56C2163.11,771.7,2183.29,785.6,2159.52,797.04z"/>
				<path class="st12" d="M2141.92,745.35c-0.79,10.87-4.48,30.49-19.17,37.67c-1.23-5.49-4.15-13.01-9.53-21.97L2141.92,745.35z"/>
				<path class="st14" d="M2111.44,773.43c0,0,39.7-15.65,29.57-40.22c-10.12-24.57-11.82-43.14-37.59-34.19
					c-25.77,8.95-26.8,20.34-25.42,29.37C2079.38,737.41,2100.85,776.86,2111.44,773.43z"/>
				<path class="st15" d="M2126.24,727.6c18.33-2.59,23.68-10,23.68-10s-16.88-4.84-26.8-21.38c0,0-20.6-6.95-35.87,4.67
					c-0.93,1.21-1.6,2.63-1.93,4.31c-3.5-1.15-8.76-0.85-11.8,9.04c-4.56,14.86,11.67,31.08,11.67,31.08
					c3.93-1.11-0.5-14.35-1.12-21.42c-0.46-5.2,2.35-11.86,3.86-15.01c1.94,2.52,21.28,26.82,44.89,27.79
					c0,0-12.47-4.33-23.82-12.79C2114.64,726.66,2120.65,728.39,2126.24,727.6z"/>
				<path class="st16" d="M2235.1,847.66c-0.34-1.19-0.7-2.42-1.08-3.68c5.89-11.27,8.79-21.42,10.02-30.02
					c2.69-18.16-1.9-29.37-1.9-29.37s-27.54-14.6-39.7-16.46c-0.05-0.02-0.1-0.04-0.15-0.05c-0.14-0.02-0.31-0.03-0.49-0.05
					c-12.27-1.69-38.85,3.73-38.85,3.73s5.12,13.65-9.34,22.74c-14.46,9.1-29.9-2.33-29.9-2.33c-0.47,0.31-0.96,0.66-1.47,1.02l0,0
					c0,0-38.05,25.11-41.47,30.84c-3.42,5.74-18.05,34.14-18.05,34.14s4.64,23.85,56.04,25.84c4.22,10.25,7.46,20.24,8.51,28.58
					c4.08,32.37-0.66,57.91,4.1,76.8c4.76,18.89,90.52,8.12,106.05,4.49c15.53-3.64,12.04-20.22,13.23-36.33
					C2252.17,937.32,2240.16,865.52,2235.1,847.66z"/>
				<path class="st17" d="M2244.05,813.96c-1.23,8.63-4.15,18.83-10.09,30.15c-1.35-5.94-6.84-27.69-15.69-37.56
					C2218.26,806.56,2233.17,807.91,2244.05,813.96z"/>
			</g>
			<g>
				<path class="st12" d="M1894.85,1026.12c0,0,15.98-19.36,19.42-21.65c3.44-2.29,18.53-6.3,19.4-5.49
					c0.86,0.81,0.9,1.98-0.97,3.63c-1.87,1.65-9.01,5.82-7.99,6.29c1.02,0.47,22.55-10.25,25.66-6.65
					c3.1,3.6-1.76,18.49-10.06,25.62c-8.3,7.13-33.06,10.18-34.62,11.17C1892.48,1047.49,1894.85,1026.12,1894.85,1026.12z"/>
				<path class="st14" d="M1613.55,981.41c0,0,22.95,27.23,52.18,15.84c0,0,6.29-15.21,6.38-26.42c0.01-1.38,0.03-2.72,0.05-3.99
					c0.16-12.62,0.58-19.71,0.58-19.71s-0.01,0-0.03-0.01c-1.33-0.55-44.68-18.35-44.65-16.88
					C1628.81,964.39,1613.55,981.41,1613.55,981.41z"/>
				<path class="st12" d="M1632.42,938.39c4.18,7.75,18.53,22.91,39.74,28.45c0.16-12.62,0.58-19.71,0.58-19.71s-0.01,0-0.03-0.01
					C1671.51,946.8,1631.17,936.11,1632.42,938.39z"/>
				<path class="st14" d="M1681.82,945.82c0,0-48.76,11.46-55.43-19.01c-6.67-30.47-17.46-49.52,13.39-58.12
					c30.85-8.61,39.46,1.69,44.16,11.32C1688.65,889.64,1694.33,942.05,1681.82,945.82z"/>
				<path class="st18" d="M1628.06,935.11c-0.67,0.43-11.16,3.65-31.03-35.93c-3.12-6.21-5.24-19.65,2.03-31.53
					c7.27-11.88,33.05-21.21,54.47-25.28c21.42-4.06,26.56,7.99,31.6,20.1c5.29,12.71,20.58,23.18,20.58,23.18
					c-18.47,10.32-40.71-4.44-48.42-2.01c-7.71,2.43-10.43,14.57-11.01,18.47c-0.58,3.89-1.47,7.13-11.16,3.65
					c-9.69-3.48-4.38,13.73-2.83,17.02C1632.3,922.78,1633.62,931.55,1628.06,935.11z"/>
				<g>
					<path class="st16" d="M1502.46,1696.03h-29.52c-6.19,0-13.07-6.28-14.79-17.78c-1.72-11.5-14.44-17.78-17.2-27.19
						s11.35-22.66,11.35-22.66l2.36-3.07l2.45-3.2l23.39,5.57c0,0,0.58,5.64,0.94,12.83c0.25,5.19,0.39,11.19,0.1,16.45
						c-0.69,12.55,3.47,26.06,14.47,28.51C1507.02,1687.93,1502.46,1696.03,1502.46,1696.03z"/>
					<path class="st16" d="M1707.99,1696.31h-78.26c-0.75-0.15-1.32-0.32-1.66-0.5c-5.22-2.69-3.59-23.29-2.96-29.65
						c0.12-1.18,0.21-1.87,0.21-1.87s27.52-22.66,31.31-5.31c0.12,0.54,0.26,1.07,0.4,1.6v0.01c4.78,16.24,26.13,23.61,38.47,25.67
						C1704.92,1687.83,1707.36,1693.49,1707.99,1696.31z"/>
					<path class="st9" d="M1692.22,1243.76c0,0-4.18,52.14-9.09,114.82c-6.68,85.14-14.71,189.73-15.5,209.54
						c-1.37,34.4-6.88,89.44-6.88,89.44s-13.06,13.07-39.21,7.56c0,0-23.3-78.56-29.96-161.68c-0.1-1.36-0.21-2.73-0.31-4.11
						c-6.19-84.62-15.82-262.79-15.82-262.79L1692.22,1243.76z"/>
					<path class="st10" d="M1692.22,1243.76c0,0-4.18,52.14-9.09,114.82l-91.55,144.86c-0.1-1.36-0.21-2.73-0.31-4.11
						c-6.19-84.62-15.82-262.79-15.82-262.79L1692.22,1243.76z"/>
					<path class="st9" d="M1673.13,1249.95c0,0-75.33,188.84-124.86,277.58c-49.53,88.74-65.01,113.51-65.01,113.51
						s-28.38-11.35-30.96-19.09c0,0,18.94-171.33,52.11-213.09c18.74-23.6,40.76-94.42,41.79-119.18
						c1.03-24.77,6.71-73.78,6.71-73.78L1673.13,1249.95z"/>
				</g>
				<g>
					<path class="st12" d="M1500.66,1218.5c0,0-1.95,23.58-3.38,27.21c-1.43,3.62-10.95,14.85-12.06,14.69s-1.76-1.04-1.2-3.33
						c0.56-2.28,3.84-9.35,2.8-9.16c-1.04,0.19-11.94,20.07-16.28,18.95c-4.34-1.12-8.59-15.26-6-25.24
						c2.58-9.99,20.12-25.67,20.79-27.28C1491,1200.69,1500.66,1218.5,1500.66,1218.5z"/>
					<path class="st2" d="M1492.58,1224.49c8.34,2.68,9.67,2.07,9.67,2.07s40.58-73.88,44.69-80.65
						c4.11-6.76,86.16-82.85,86.16-82.85l-21.09-78.63c0,0-93.32,120.85-103.4,138.19c-16.65,28.66-26.41,95.21-26.41,95.21
						S1486.03,1222.38,1492.58,1224.49z"/>
				</g>
				<path class="st1" d="M1708.12,1093.93c-0.29,16.15-1.23,34.3-2.5,52.74c-0.08,1.09-0.15,2.19-0.23,3.28
					c-0.81,11.42-1.69,22.87-2.69,34.03c-0.4,4.48-0.83,8.9-1.28,13.25l-0.07,0.59c-0.04,1.63-0.23,3.39-0.41,5
					c-4.11,41.81-8.43,74.85-9.23,75.36c-0.96,0.64-2.03,0.96-3.21,0.82c-10.97-1.38-43.68,1.11-70.47-4.72
					c-22.6-4.77-42.06-13.81-62.69-25.99c-2.74-1.62-8.98-5.9-8.47-9.11c0.5-3.52,1.42-8.61,2.59-15
					c4.06-22.24,11.08-60.5,13.47-105.28c0.46-8.34,1.15-16.58,2.02-24.68c2.3-21.1,5.98-41.13,10.92-58.94
					c9.18-33.07,22.68-58.39,39.61-68.3c2.21-1.24,14.12,6.33,25.05,13.35c10.1,6.47,20.73,8.26,31.06,7.36l9.1,10.06
					c11.02,12.81,22.75,29.86,25.95,54.1c0.24,1.79,0.45,3.69,0.62,5.72C1708.15,1067.43,1708.37,1079.93,1708.12,1093.93z"/>
				<path class="st2" d="M1708.12,1093.93c-0.29,16.15-1.23,34.3-2.5,52.74c-0.08,1.09-0.15,2.19-0.23,3.28
					c-62.64-39.21-72.29-110.95-72.29-110.95c30.81,1.35,55.29,8.44,74.16,18.57C1708.15,1067.43,1708.37,1079.93,1708.12,1093.93z"
					/>
				<g>
					<path class="st19" d="M1904.36,1028.05c-3.23-8.73-8.25-8.17-8.25-8.17s-93.13,23.21-101.49,24.2
						c-8.36,1-100.29-35.89-100.29-35.89s-36.18-16.24-53.13-1.41c-14.73,12.89-15.4,29.21-11.95,42.91
						c4.11,16.33,17.93,28.4,34.64,30.53c37.5,4.78,112.33,13.77,128.02,11.59c34.91-4.86,114-50.52,114-50.52
						S1906.89,1034.92,1904.36,1028.05z"/>
				</g>
			</g>
			<g id="man_2_">
				<g>
					<path class="st5" d="M2822.67,1198.75c0,0,12.94,11.99,10.41,20.51c-2.53,8.52-14.2,14.2-15.78,24.62
						c-1.58,10.41-7.89,16.09-13.57,16.09s-27.08,0-27.08,0s-4.18-7.33,5.92-9.54s13.91-14.45,13.28-25.81
						c-0.63-11.36,0.95-26.51,0.95-26.51l21.46-5.05L2822.67,1198.75z"/>
					<path class="st5" d="M2661.42,1258.56c-1.31,0.66-5.93,1.11-12.25,1.42h-61.24c0.21-1.82,1.63-8.32,11.65-9.93
						c11.31-1.84,30.91-8.42,35.28-22.89c0.15-0.46,0.27-0.94,0.38-1.42c3.47-15.46,28.71,4.73,28.71,4.73s0.07,0.62,0.18,1.67
						C2664.71,1237.83,2666.2,1256.17,2661.42,1258.56z"/>
					<path class="st2" d="M2602.56,844.96c0,0,3.83,47.84,8.34,105.34c6.13,78.12,13.49,174.07,14.22,192.24
						c1.26,31.56,6.31,82.05,6.31,82.05s11.99,12,35.98,6.94c0,0,21.38-72.07,27.48-148.33c0.09-1.25,0.19-2.51,0.28-3.77
						c5.68-77.63,14.51-241.1,14.51-241.1L2602.56,844.96z"/>
					<path class="st3" d="M2602.56,844.96c0,0,3.83,47.84,8.34,105.34l83.99,132.9c0.09-1.25,0.19-2.51,0.28-3.77
						c5.68-77.63,14.51-241.1,14.51-241.1L2602.56,844.96z"/>
					<path class="st2" d="M2620.07,850.64c0,0,69.11,173.25,114.55,254.67c45.44,81.42,59.64,104.14,59.64,104.14
						s26.04-10.41,28.4-17.51c0,0-17.38-157.18-47.81-195.5c-17.2-21.65-37.39-86.63-38.34-109.35
						c-0.95-22.72-6.15-67.69-6.15-67.69L2620.07,850.64z"/>
				</g>
				<g>
					<path class="st14" d="M2406.91,756.68c0,0-18.75-4.29-21.9-4.07c-3.16,0.22-14.19,4.83-14.34,5.73
						c-0.15,0.89,0.38,1.62,2.28,1.75c1.91,0.13,8.19-0.68,7.79,0.08c-0.4,0.76-18.48,4.31-18.68,7.95
						c-0.2,3.64,9.71,10.4,18.08,10.85c8.37,0.45,24.82-9.27,26.24-9.39C2418.33,768.54,2406.91,756.68,2406.91,756.68z"/>
					<path class="st10" d="M2398.88,761.44c-2.69-8.56-2.06-9.93-2.06-9.93s75.99-41.09,82.95-45.26
						c6.96-4.17,85.49-87.74,85.49-87.74l80.43,22.14c0,0-124.47,94.82-142.31,105.03c-29.48,16.87-97.75,26.42-97.75,26.42
						S2400.99,768.16,2398.88,761.44z"/>
				</g>
				<path class="st14" d="M2589.63,577.89c0,0-28.2,49.61-55.76,56.09c0,0,1.15-16.66,7.86-28.07c-2.75-3.24-5.16-6.22-7.25-8.88
					c-6.94-8.89-10.24-14.33-10.24-14.33l9.35-25.15l6.35-17.06c3.05,5.54,6.41,10.26,9.92,14.29
					C2567.92,575.55,2589.63,577.89,2589.63,577.89z"/>
				<path class="st12" d="M2549.86,554.78c0,0,3.36,24.86-15.38,42.25c-6.94-8.89-10.24-14.33-10.24-14.33l9.35-25.15
					C2543.62,554.5,2549.86,554.78,2549.86,554.78z"/>
				<path class="st14" d="M2516.81,586.37c0,0,42.13-16.43,31.5-42.51c-10.63-26.08-12.36-45.76-39.71-36.38
					c-27.35,9.38-28.49,21.45-27.06,31.02C2482.98,548.07,2505.57,589.97,2516.81,586.37z"/>
				<path class="st9" d="M2734.45,832.5c-17,24.44-144.07,57.08-142.56,40.17c0.58-6.47,1.35-17.89-0.02-33.36
					c-0.32-3.62-0.77-7.46-1.35-11.53c-3.23-22.22-10.9-50.8-28-83.88c-1.28-2.48-2.62-4.98-4-7.51
					c-7.04-12.81-13.04-26.35-17.62-39.59c-8.81-25.44-12.35-49.79-7.91-65.7c0.02-0.08,0.04-0.15,0.07-0.22
					c26.56-12.28,36.86-59.92,36.86-59.92s90.62,16.27,141.38,137.06C2711.3,708.03,2749.24,811.23,2734.45,832.5z"/>
				<path class="st10" d="M2591.87,839.31c-0.32-3.62-0.77-7.46-1.35-11.53c-3.23-22.22-10.9-50.8-28-83.88
					c2.94-17.8,6.99-32.6,11.44-39.27c18.07-27.09,28.6-31.32,28.6-31.32S2629.67,787.62,2591.87,839.31z"/>
				<g>
					<path class="st14" d="M2449.02,812.11c0,0-25.07,1.32-28.95,2.72s-16.09,11.14-15.96,12.32c0.14,1.17,1.05,1.9,3.49,1.38
						c2.44-0.52,10.03-3.78,9.81-2.68c-0.23,1.1-21.66,12.02-20.61,16.66c1.05,4.64,15.9,9.59,26.58,7.17
						c10.67-2.42,27.86-20.51,29.59-21.17C2467.61,822.92,2449.02,812.11,2449.02,812.11z"/>
					<path class="st9" d="M2444.29,821.62c-5.02-8.11-1.4-11.81-1.4-11.81s77.44-60.64,83.51-66.76
						c6.07-6.12,34.19-103.66,34.19-103.66s9.68-39.48,32.34-43.83c19.69-3.78,33.31,5.96,42.21,17.38
						c10.61,13.61,11.66,32.39,2.85,47.23c-19.77,33.32-59.66,99.46-71.31,110.75c-25.92,25.15-112.66,60.29-112.66,60.29
						S2448.24,827.99,2444.29,821.62z"/>
				</g>
				<path class="st15" d="M2554.35,495.42c0.3-0.58,1.15-1.21,3.25-1.85c0,0-1.96-0.66-4.24-0.16c-1.18-2.89-4.06-7.8-9.45-7.84
					c0,0,3.09,0.8,4.23,3.9c-7.39-4.68-21.09-6.04-55.29,5.35c-45.07,15.01-22.55,41.18-15.72,43.27
					c6.83,2.1,19.41-11.36,30.72-13.2c11.31-1.84,17.43,13.92,21.74,15.22c4.31,1.31,1.86-2.28,6.38-5.87
					c4.52-3.59,7.11,4.86,7.01,10.79c-0.1,5.93,8.71,11.56,8.71,11.56s0,0,5.16-9.47c5.16-9.47,3.76-43.86-1.18-50.05
					C2555.23,496.53,2554.8,495.97,2554.35,495.42z"/>
			</g>
			<path class="st20" d="M3294.51,1793.53H749.94c-1.9,0-3.46-1.56-3.46-3.46v-2.19c0-1.9,1.56-3.46,3.46-3.46h2544.57
				c1.9,0,3.46,1.56,3.46,3.46v2.19C3297.97,1791.97,3296.41,1793.53,3294.51,1793.53z"/>
			<polygon class="st21" points="1841.96,1695.03 1841.96,1746.04 1721.22,1695.03 			"/>
			<rect x="2475.92" y="1259.97" class="st2" width="399.29" height="524.45"/>
			<rect x="2352.8" y="1259.97" class="st3" width="399.29" height="524.45"/>
			<polygon class="st21" points="2875.21,1259.97 2875.21,1338.4 2752.1,1259.97 			"/>
		</g>
	</g>
</g>
</svg>
