<svg width="24" height="24" viewBox="0 0 24 24" fill="none" xmlns="http://www.w3.org/2000/svg">
<g clip-path="url(#clip0_35_2744)">
<path d="M12 24C18.6274 24 24 18.6274 24 12C24 5.37258 18.6274 0 12 0C5.37258 0 0 5.37258 0 12C0 18.6274 5.37258 24 12 24Z" fill="#F0F0F0"/>
<path d="M11.4783 12H24C24 10.9169 23.8556 9.86762 23.5866 8.86951H11.4783V12Z" fill="#D80027"/>
<path d="M11.4783 5.7391H22.2387C21.5041 4.54041 20.5649 3.48089 19.4698 2.60864H11.4783V5.7391Z" fill="#D80027"/>
<path d="M12 23.9999C14.8242 23.9999 17.42 23.0238 19.4698 21.3912H4.53018C6.58003 23.0238 9.17582 23.9999 12 23.9999Z" fill="#D80027"/>
<path d="M1.76128 18.2608H22.2387C22.8285 17.2985 23.2858 16.2467 23.5866 15.1304H0.413391C0.714188 16.2467 1.17155 17.2985 1.76128 18.2608Z" fill="#D80027"/>
<path d="M5.55863 1.87397H6.65217L5.63498 2.61295L6.02353 3.80869L5.00639 3.0697L3.98925 3.80869L4.32487 2.7757C3.42928 3.52172 2.64431 4.39575 1.99744 5.36963H2.34783L1.70034 5.84002C1.59947 6.0083 1.50272 6.17925 1.41 6.35273L1.71919 7.30434L1.14234 6.88523C0.998953 7.18903 0.867797 7.49967 0.749906 7.81678L1.09055 8.86528H2.34783L1.33064 9.60427L1.71919 10.8L0.702047 10.061L0.0927656 10.5037C0.0317812 10.9939 0 11.4932 0 12H12C12 5.37262 12 4.59131 12 0C9.62944 0 7.41961 0.687656 5.55863 1.87397ZM6.02353 10.8L5.00639 10.061L3.98925 10.8L4.3778 9.60427L3.36061 8.86528H4.61789L5.00639 7.66955L5.39489 8.86528H6.65217L5.63498 9.60427L6.02353 10.8ZM5.63498 6.10861L6.02353 7.30434L5.00639 6.56536L3.98925 7.30434L4.3778 6.10861L3.36061 5.36963H4.61789L5.00639 4.17389L5.39489 5.36963H6.65217L5.63498 6.10861ZM10.3279 10.8L9.31073 10.061L8.29359 10.8L8.68214 9.60427L7.66495 8.86528H8.92223L9.31073 7.66955L9.69923 8.86528H10.9565L9.93933 9.60427L10.3279 10.8ZM9.93933 6.10861L10.3279 7.30434L9.31073 6.56536L8.29359 7.30434L8.68214 6.10861L7.66495 5.36963H8.92223L9.31073 4.17389L9.69923 5.36963H10.9565L9.93933 6.10861ZM9.93933 2.61295L10.3279 3.80869L9.31073 3.0697L8.29359 3.80869L8.68214 2.61295L7.66495 1.87397H8.92223L9.31073 0.678234L9.69923 1.87397H10.9565L9.93933 2.61295Z" fill="#0052B4"/>
<g clip-path="url(#clip1_35_2744)">
<path d="M12 24C18.6274 24 24 18.6274 24 12C24 5.37258 18.6274 0 12 0C5.37258 0 0 5.37258 0 12C0 18.6274 5.37258 24 12 24Z" fill="#F70808"/>
<path d="M12 4.5L10.755 6.762C10.614 7.008 10.3612 6.9855 10.1077 6.84825L9.20774 6.393L9.87824 9.86775C10.02 10.503 9.56699 10.503 9.34349 10.2277L7.76999 8.5125L7.51499 9.384C7.48499 9.49875 7.35599 9.61875 7.16174 9.59025L5.17424 9.18225L5.69549 11.0333C5.80799 11.445 5.89499 11.6152 5.58299 11.7232L4.87424 12.0488L8.29649 14.7577C8.36451 14.8094 8.41565 14.8801 8.44342 14.9609C8.47119 15.0417 8.47435 15.1289 8.45249 15.2115L8.15249 16.17C9.33149 16.0372 10.3875 15.8385 11.5665 15.7155C11.6707 15.705 11.8447 15.8722 11.844 15.99L11.6887 19.5H12.2617L12.1717 15.9975C12.171 15.8798 12.3292 15.705 12.4327 15.7155C13.6117 15.8385 14.6677 16.038 15.846 16.17L15.5467 15.2115C15.5248 15.1289 15.5279 15.0417 15.5557 14.9609C15.5834 14.8801 15.6346 14.8094 15.7027 14.7577L19.125 12.0488L18.4162 11.724C18.1042 11.6153 18.1912 11.445 18.3037 11.0333L18.8257 9.18225L16.8375 9.59025C16.6432 9.61875 16.5135 9.49875 16.485 9.384L16.2292 8.5125L14.6565 10.2285C14.433 10.503 13.98 10.503 14.1217 9.8685L14.793 6.393L13.8922 6.84825C13.6387 6.9855 13.386 7.008 13.245 6.762L12 4.5Z" fill="white"/>
</g>
</g>
<defs>
<clipPath id="clip0_35_2744">
<rect width="24" height="24" fill="white"/>
</clipPath>
<clipPath id="clip1_35_2744">
<rect width="24" height="24" fill="white"/>
</clipPath>
</defs>
</svg>
