<svg width="183" height="117" viewBox="0 0 183 117"  fill="none" xmlns="http://www.w3.org/2000/svg">
<path d="M21.2566 105.002C21.2646 105.008 176.487 104.983 176.487 104.983C181.597 94.0938 181.588 88.7734 182.17 82.5318C185.381 48.0333 159.371 42.7296 151.751 41.2911C128.419 36.8865 139.038 15.0927 78.2404 19.1819C72.6677 19.5564 59.5295 22.5822 55.0015 24.5422C51.8257 25.9161 39.8605 32.063 36.3499 42.4608C35.2411 45.7425 34.9751 49.4479 36.093 53.5597C40.0498 68.1119 29.7342 67.2755 22.1964 74.2102C12.1357 83.4647 13.1874 98.6005 21.2566 105.002Z" fill="#EBF3FA"/>
<path d="M113.718 104.993H113.739C113.865 104.993 113.966 104.889 113.963 104.764L113.624 90.1024L112.627 89.9862L113.478 104.765C113.485 104.893 113.59 104.993 113.718 104.993Z" fill="#B0D4FF"/>
<path d="M119.531 104.993H119.552C119.677 104.993 119.778 104.889 119.775 104.764L119.437 90.1024L118.439 89.9862L119.29 104.765C119.297 104.893 119.403 104.993 119.531 104.993Z" fill="#95C0F4"/>
<path d="M103.492 104.993H103.471C103.345 104.993 103.245 104.889 103.247 104.764L103.586 90.1024L104.584 89.9862L103.733 104.765C103.725 104.893 103.62 104.993 103.492 104.993Z" fill="#B0D4FF"/>
<path d="M120.192 89.1928V79.1462C120.192 77.3781 118.757 75.9451 116.988 75.9451H109.741C107.972 75.9451 106.537 77.3781 106.537 79.1462V89.5772L120.192 89.1928Z" fill="#B0D4FF"/>
<path d="M105.239 90.7789H119.23C119.761 90.7789 120.192 90.349 120.192 89.8183V89.1928H105.239V90.7789Z" fill="#95C0F4"/>
<path d="M103.563 90.7789H114.147C114.54 90.7789 114.859 90.461 114.859 90.0686V89.9038C114.859 89.5114 114.54 89.1928 114.147 89.1928H103.563C103.17 89.1928 102.852 89.5114 102.852 89.9038V90.0686C102.852 90.461 103.17 90.7789 103.563 90.7789Z" fill="#CAE5FF"/>
<path d="M127.953 72.3363H86.1807V36.3133H127.953V72.3363Z" fill="#95C0F4"/>
<path d="M127.14 71.618H86.9756V36.9135H127.14V71.618Z" fill="#DFEDFB"/>
<path d="M101.014 52.013H92.2129V41.034L93.7052 39.6902H101.014V52.013Z" fill="white"/>
<path d="M92.2129 41.0341H93.6571L93.7052 39.6903L92.2129 41.0341Z" fill="#B0D4FF"/>
<path d="M98.0224 40.8926H95.2041V40.7585H98.0224V40.8926Z" fill="#B0D4FF"/>
<path d="M98.6854 41.2948H94.541V41.1607H98.6854V41.2948Z" fill="#B0D4FF"/>
<path d="M100.136 43.9159H93.2539V43.7437H100.136V43.9159Z" fill="#B0D4FF"/>
<path d="M100.136 44.4399H93.2539V44.2671H100.136V44.4399Z" fill="#B0D4FF"/>
<path d="M100.136 44.9633H93.2539V44.7911H100.136V44.9633Z" fill="#B0D4FF"/>
<path d="M100.136 45.4866H93.2539V45.3144H100.136V45.4866Z" fill="#B0D4FF"/>
<path d="M100.136 51.088H93.2539V50.9158H100.136V51.088Z" fill="#B0D4FF"/>
<path d="M111.177 67.2453H102.375V56.2663L103.868 54.9225H111.177V67.2453Z" fill="white"/>
<path d="M102.375 56.2664H103.82L103.868 54.9226L102.375 56.2664Z" fill="#B0D4FF"/>
<path d="M108.184 56.1249H105.366V55.9908H108.184V56.1249Z" fill="#B0D4FF"/>
<path d="M108.848 56.5271H104.703V56.393H108.848V56.5271Z" fill="#B0D4FF"/>
<path d="M110.299 59.1483H103.417V58.9761H110.299V59.1483Z" fill="#B0D4FF"/>
<path d="M110.299 59.6722H103.417V59.4994H110.299V59.6722Z" fill="#B0D4FF"/>
<path d="M110.299 60.1956H103.417V60.0227H110.299V60.1956Z" fill="#B0D4FF"/>
<path d="M110.299 60.7189H103.417V60.5467H110.299V60.7189Z" fill="#B0D4FF"/>
<path d="M110.299 62.3297H103.417V62.1575H110.299V62.3297Z" fill="#B0D4FF"/>
<path d="M110.299 62.853H103.417V62.6808H110.299V62.853Z" fill="#B0D4FF"/>
<path d="M110.299 63.46H103.417V63.2878H110.299V63.46Z" fill="#B0D4FF"/>
<path d="M111.282 39.6903H116.142V43.97H111.282V39.6903Z" fill="#B0D4FF"/>
<path d="M113.5 40.1994C113.5 40.082 113.595 39.9873 113.712 39.9873C113.83 39.9873 113.925 40.082 113.925 40.1994C113.925 40.3169 113.83 40.4122 113.712 40.4122C113.595 40.4122 113.5 40.3169 113.5 40.1994Z" fill="#FFA412"/>
<path d="M111.14 45.6533L115.988 45.315L116.286 49.585L111.438 49.9232L111.14 45.6533Z" fill="white"/>
<path d="M113.406 46.272C113.398 46.1551 113.486 46.0537 113.603 46.0457C113.72 46.0371 113.822 46.1256 113.83 46.2425C113.839 46.3599 113.75 46.4614 113.633 46.4694C113.515 46.4774 113.414 46.3895 113.406 46.272Z" fill="#B0D4FF"/>
<path d="M94.9893 61.4219L99.8379 61.0836L100.136 65.3536L95.2878 65.6918L94.9893 61.4219Z" fill="white"/>
<path d="M97.2554 62.0406C97.2474 61.9238 97.3354 61.8223 97.453 61.8137C97.57 61.8057 97.6716 61.8942 97.6802 62.0111C97.6882 62.1285 97.5995 62.23 97.4825 62.238C97.365 62.246 97.2634 62.1581 97.2554 62.0406Z" fill="#B0D4FF"/>
<path d="M88.8779 64.2054L93.7377 64.1556L93.7814 68.4354L88.9223 68.4852L88.8779 64.2054Z" fill="white"/>
<path d="M91.1035 64.9575C91.1029 64.84 91.1971 64.7441 91.3147 64.7429C91.4316 64.7416 91.5283 64.8357 91.5295 64.9532C91.5308 65.0707 91.4366 65.1666 91.319 65.1678C91.2014 65.1691 91.1047 65.075 91.1035 64.9575Z" fill="#B0D4FF"/>
<path d="M118.561 47.9005L123.345 48.7547L122.592 52.9681L117.808 52.1138L118.561 47.9005Z" fill="#EEF6FF"/>
<path d="M120.669 48.8661C120.687 48.7652 120.783 48.6988 120.884 48.7166C120.984 48.7344 121.051 48.8304 121.033 48.9306C121.015 49.0315 120.919 49.0985 120.818 49.0807C120.718 49.0622 120.651 48.9663 120.669 48.8661Z" fill="#78ACEA"/>
<path d="M103.585 45.7529L108.416 45.2302L108.877 49.4854L104.046 50.0081L103.585 45.7529Z" fill="#EEF6FF"/>
<path d="M105.879 46.0881C105.868 45.9866 105.941 45.895 106.043 45.8839C106.144 45.8735 106.235 45.9467 106.247 46.0481C106.258 46.1496 106.184 46.2406 106.083 46.2517C105.981 46.2628 105.89 46.1896 105.879 46.0881Z" fill="#78ACEA"/>
<path d="M91.0488 56.3604L95.8015 55.3482L96.6953 59.5338L91.9421 60.5468L91.0488 56.3604Z" fill="#BAE8E3"/>
<path d="M93.4446 56.5751C93.359 56.5191 93.3344 56.4047 93.3904 56.3192C93.4458 56.2338 93.5603 56.2092 93.6465 56.2645C93.7321 56.3199 93.7561 56.4349 93.7007 56.5204C93.6453 56.6058 93.5308 56.6304 93.4446 56.5751Z" fill="#FFA412"/>
<path d="M108.544 43.97H103.919V40.8655L105.199 39.6903H108.544V43.97Z" fill="white"/>
<path d="M103.894 40.8655H105.157L105.199 39.6902L103.894 40.8655Z" fill="#B0D4FF"/>
<path d="M106.248 40.0863C106.248 40.0021 106.316 39.9344 106.4 39.9344C106.484 39.9344 106.552 40.0021 106.552 40.0863C106.552 40.17 106.484 40.2382 106.4 40.2382C106.316 40.2382 106.248 40.17 106.248 40.0863Z" fill="#B0D4FF"/>
<path d="M122.059 69.3855H117.434V66.2804L118.714 65.1051H122.059V69.3855Z" fill="white"/>
<path d="M117.409 66.2804H118.672L118.714 65.1051L117.409 66.2804Z" fill="#B0D4FF"/>
<path d="M119.763 65.5012C119.763 65.4175 119.831 65.3493 119.915 65.3493C119.999 65.3493 120.067 65.4175 120.067 65.5012C120.067 65.5848 119.999 65.6531 119.915 65.6531C119.831 65.6531 119.763 65.5848 119.763 65.5012Z" fill="#B0D4FF"/>
<path d="M124.169 63.2238H119.544V60.1193L120.824 58.9434H124.169V63.2238Z" fill="white"/>
<path d="M119.519 60.1193H120.782L120.824 58.9434L119.519 60.1193Z" fill="#B0D4FF"/>
<path d="M121.873 59.3395C121.873 59.2558 121.941 59.1876 122.025 59.1876C122.109 59.1876 122.177 59.2558 122.177 59.3395C122.177 59.4237 122.109 59.4914 122.025 59.4914C121.941 59.4914 121.873 59.4237 121.873 59.3395Z" fill="#B0D4FF"/>
<path d="M118.065 63.2238H113.439V60.1193L114.72 58.9434H118.065V63.2238Z" fill="#BAE8E3"/>
<path d="M113.414 60.1193H114.677L114.719 58.9434L113.414 60.1193Z" fill="#A1D6CE"/>
<path d="M115.769 59.3395C115.769 59.2558 115.837 59.1876 115.921 59.1876C116.005 59.1876 116.073 59.2558 116.073 59.3395C116.073 59.4237 116.005 59.4914 115.921 59.4914C115.837 59.4914 115.769 59.4237 115.769 59.3395Z" fill="#F99746"/>
<path d="M125.474 42.8987H120.849V39.7942L122.129 38.6189H125.474V42.8987Z" fill="#BAE8E3"/>
<path d="M120.824 39.7942H122.087L122.129 38.6189L120.824 39.7942Z" fill="#A1D6CE"/>
<path d="M123.179 39.0144C123.179 38.9307 123.247 38.8624 123.331 38.8624C123.415 38.8624 123.483 38.9307 123.483 39.0144C123.483 39.0986 123.415 39.1663 123.331 39.1663C123.247 39.1663 123.179 39.0986 123.179 39.0144Z" fill="#F99746"/>
<path d="M79.7322 35.4418H70.9337C70.5298 35.4418 70.1992 35.1116 70.1992 34.7081V26.2248C70.1992 25.8214 70.5298 25.4911 70.9337 25.4911H79.7322C80.136 25.4911 80.4666 25.8214 80.4666 26.2248V34.7081C80.4666 35.1116 80.136 35.4418 79.7322 35.4418Z" fill="#C0D8FB"/>
<path d="M79.3513 35.0107H71.3149C70.9462 35.0107 70.6445 34.7094 70.6445 34.341V26.5926C70.6445 26.2236 70.9462 25.9223 71.3149 25.9223H79.3513C79.7201 25.9223 80.0223 26.2236 80.0223 26.5926V34.341C80.0223 34.7094 79.7201 35.0107 79.3513 35.0107Z" fill="#DFEBFD"/>
<path d="M75.1211 26.8306C75.1211 26.7131 75.2159 26.6178 75.3335 26.6178C75.4511 26.6178 75.5465 26.7131 75.5465 26.8306C75.5465 26.9475 75.4511 27.0428 75.3335 27.0428C75.2159 27.0428 75.1211 26.9475 75.1211 26.8306Z" fill="#B7D3F3"/>
<path d="M76.8361 27.1307C76.8934 27.028 77.0227 26.9911 77.1255 27.0483C77.2283 27.1055 77.2652 27.2346 77.208 27.3373C77.1513 27.4394 77.0214 27.4763 76.9186 27.4198C76.8164 27.3626 76.7795 27.2334 76.8361 27.1307Z" fill="#B7D3F3"/>
<path d="M78.3076 28.2974C78.4061 28.234 78.5379 28.2623 78.6013 28.3613C78.6653 28.4597 78.6364 28.5913 78.5379 28.6547C78.4394 28.718 78.3076 28.6897 78.2442 28.5913C78.1802 28.4929 78.2085 28.3613 78.3076 28.2974Z" fill="#B7D3F3"/>
<path d="M79.0353 30.1036C79.1522 30.1036 79.2477 30.199 79.2477 30.3164C79.2477 30.4339 79.1522 30.5286 79.0353 30.5286C78.9177 30.5286 78.8223 30.4339 78.8223 30.3164C78.8223 30.199 78.9177 30.1036 79.0353 30.1036Z" fill="#B7D3F3"/>
<path d="M78.6642 32.1996C78.7467 32.2826 78.7467 32.4173 78.6642 32.5003C78.581 32.5833 78.4462 32.5833 78.3631 32.5003C78.28 32.4173 78.28 32.2826 78.3631 32.1996C78.4462 32.1172 78.581 32.1172 78.6642 32.1996Z" fill="#B7D3F3"/>
<path d="M77.3276 33.5378C77.4107 33.6202 77.4107 33.7549 77.3276 33.8379C77.2445 33.9209 77.1097 33.9209 77.0272 33.8379C76.9441 33.7549 76.9441 33.6202 77.0272 33.5378C77.1097 33.4547 77.2445 33.4547 77.3276 33.5378Z" fill="#B7D3F3"/>
<path d="M75.1211 34.2272C75.1211 34.1098 75.2159 34.0144 75.3335 34.0144C75.4511 34.0144 75.5465 34.1098 75.5465 34.2272C75.5465 34.3441 75.4511 34.4394 75.3335 34.4394C75.2159 34.4394 75.1211 34.3441 75.1211 34.2272Z" fill="#B7D3F3"/>
<path d="M73.8226 27.1307C73.7654 27.028 73.6361 26.9911 73.5333 27.0483C73.4305 27.1055 73.3935 27.2346 73.4508 27.3373C73.508 27.4394 73.6373 27.4763 73.7401 27.4198C73.8423 27.3626 73.8799 27.2334 73.8226 27.1307Z" fill="#B7D3F3"/>
<path d="M72.3525 28.2974C72.2534 28.234 72.1216 28.2623 72.0582 28.3613C71.9948 28.4597 72.0231 28.5913 72.1216 28.6547C72.2201 28.718 72.3519 28.6897 72.4159 28.5913C72.4793 28.4929 72.451 28.3613 72.3525 28.2974Z" fill="#B7D3F3"/>
<path d="M71.6251 30.1036C71.5075 30.1036 71.4121 30.199 71.4121 30.3164C71.4121 30.4339 71.5075 30.5286 71.6251 30.5286C71.7421 30.5286 71.8375 30.4339 71.8375 30.3164C71.8375 30.199 71.7421 30.1036 71.6251 30.1036Z" fill="#B7D3F3"/>
<path d="M71.9969 32.1996C71.9138 32.2826 71.9138 32.4173 71.9969 32.5003C72.08 32.5833 72.2142 32.5833 72.2973 32.5003C72.3804 32.4173 72.3804 32.2826 72.2973 32.1996C72.2142 32.1172 72.08 32.1172 71.9969 32.1996Z" fill="#B7D3F3"/>
<path d="M73.3319 33.5378C73.2488 33.6202 73.2488 33.7549 73.3319 33.8379C73.415 33.9209 73.5498 33.9209 73.6329 33.8379C73.716 33.7549 73.716 33.6202 73.6329 33.5378C73.5498 33.4547 73.415 33.4547 73.3319 33.5378Z" fill="#B7D3F3"/>
<path d="M75.2764 30.3164C75.2764 30.199 75.3718 30.1036 75.4888 30.1036C75.6063 30.1036 75.7018 30.199 75.7018 30.3164C75.7018 30.4339 75.6063 30.5286 75.4888 30.5286C75.3718 30.5286 75.2764 30.4339 75.2764 30.3164Z" fill="#B7D3F3"/>
<path d="M75.5175 30.3164H75.459V27.6621H75.5175V30.3164Z" fill="#B7D3F3"/>
<path d="M75.515 30.381L75.4072 30.2438L76.8164 29.1393L76.9235 29.2764L75.515 30.381Z" fill="#B7D3F3"/>
<path d="M133.898 104.468C133.856 105.039 133.05 105.045 132.135 104.939C131.22 104.833 131.463 105.064 130.182 105.082C128.902 105.1 128.46 104.677 128.398 104.494C128.343 104.332 128.959 104.195 129.619 104.035C129.703 104.015 129.786 103.994 129.869 103.973C130.614 103.784 131.106 103.228 131.743 102.742C132.346 102.281 133.124 100.616 133.124 100.616L134.874 100.537C134.874 100.537 134.137 102.03 133.86 102.674C133.697 103.052 133.767 103.517 133.837 103.874C133.875 104.068 133.913 104.267 133.898 104.468Z" fill="#FFB27D"/>
<path d="M132.135 104.939C131.22 104.833 131.463 105.064 130.182 105.082C128.902 105.1 128.46 104.677 128.398 104.494C128.343 104.332 128.959 104.195 129.619 104.035L129.627 104.047C129.627 104.047 130.452 104.489 131.507 104.383C132.367 104.297 133.244 103.939 133.837 103.874C133.875 104.068 133.913 104.267 133.898 104.468C133.856 105.039 133.05 105.045 132.135 104.939Z" fill="#233862"/>
<path d="M145.983 104.586C145.942 105.158 145.135 105.164 144.22 105.059C143.306 104.954 143.549 105.185 142.268 105.204C140.987 105.223 140.545 104.801 140.483 104.618C140.428 104.456 141.044 104.319 141.704 104.158C141.787 104.137 141.871 104.116 141.954 104.095C142.698 103.905 143.19 103.349 143.826 102.862C144.429 102.401 143.826 99.673 143.826 99.673L145.751 99.4861C145.751 99.4861 145.659 101.783 145.66 102.827C145.661 103.239 145.851 103.635 145.922 103.993C145.96 104.187 145.998 104.385 145.983 104.586Z" fill="#FFB27D"/>
<path d="M144.22 105.059C143.306 104.954 143.549 105.185 142.268 105.204C140.987 105.223 140.545 104.801 140.483 104.618C140.428 104.456 141.044 104.319 141.704 104.158L141.712 104.169C141.712 104.169 142.537 104.611 143.592 104.504C144.452 104.417 145.329 104.057 145.922 103.993C145.96 104.187 145.998 104.385 145.983 104.586C145.942 105.158 145.135 105.164 144.22 105.059Z" fill="#233862"/>
<path d="M140.366 57.4324C140.034 56.0714 140.515 55.4373 140.948 55.0997C141.154 54.5985 141.388 54.2375 141.628 54.1009C142.065 53.8531 142.589 53.8254 142.956 53.8476C142.862 53.7498 142.676 53.7147 142.676 53.7147C142.903 53.6809 143.411 53.906 143.411 53.906C146.574 52.6889 147.07 57.3408 147.004 58.4213C146.938 59.5019 146.947 60.7749 148.592 61.6261C151.732 63.2509 147.549 69.3738 147.549 69.3738C147.629 68.5005 143.595 63.8917 141.49 62.5111C140.978 61.7577 140.796 60.4268 140.782 60.3217C140.871 61.377 141.051 61.9692 141.213 62.3026C140.254 61.4207 140.112 59.3032 140.366 57.4324Z" fill="#A9453D"/>
<path d="M141.615 62.5799C141.605 62.5848 142.632 63.1168 143.404 62.9059C144.13 62.7085 144.605 61.7675 144.595 61.7651C144.287 61.7042 144.198 61.2817 144.205 59.4674L144.066 59.4945L141.728 59.957C141.728 59.957 141.781 60.6925 141.783 61.385C141.784 61.9662 141.749 62.5178 141.615 62.5799Z" fill="#FFB27D"/>
<path d="M141.728 59.957C141.728 59.957 141.78 60.6925 141.782 61.385C143.091 61.3481 143.782 60.1556 144.066 59.4945L141.728 59.957Z" fill="#ED975D"/>
<path d="M132.214 101.541C132.099 101.9 132.357 102.27 132.734 102.288L133.647 102.33L134.614 102.36C134.856 102.367 135.086 102.262 135.239 102.075C136.011 101.129 138.386 97.9781 139.826 93.3994C139.867 93.2709 139.909 93.1411 139.955 93.0095C140.906 90.2383 142.878 86.7599 143.918 83.6117C144.083 83.1099 144.232 82.6382 144.365 82.1911C144.408 82.0484 144.449 81.9075 144.488 81.7692C145.255 79.1105 145.476 77.3652 145.681 75.5005L138.176 75.5601C138.176 75.5601 136.596 87.8282 132.214 101.541Z" fill="#2A4E96"/>
<path d="M139.226 71.252C139.245 74.8196 138.702 76.3504 138.702 76.3504C138.702 76.3504 141.915 77.9814 145.735 76.7809C145.78 76.7667 148.897 76.0558 148.897 76.0558C148.833 75.9119 148.264 73.5072 148.202 73.375C147.396 71.645 146.784 70.8867 146.688 70.3547C146.511 69.3621 146.507 68.3345 146.595 67.3658C146.828 64.8013 147.521 62.6722 147.521 62.6722C146.481 62.4354 145.506 62.0196 144.423 61.6144C144.174 61.9243 143.413 62.2484 142.752 62.2337C141.991 62.2164 141.744 61.8911 141.784 61.5363C140.973 61.9871 140.326 62.4126 140.326 62.4126C139.638 63.6082 138.24 64.7693 138.139 66.6032C138.114 67.054 139.226 71.1524 139.226 71.252Z" fill="white"/>
<path d="M145.681 71.6499C146.009 72.1136 146.638 74.9328 148.203 75.2877C147.396 73.2778 146.784 72.3972 146.689 71.7791C146.512 70.626 146.507 69.4329 146.596 68.3074C146.072 67.3904 145.681 66.7613 145.681 66.7613C145.64 66.6131 144.849 64.1691 144.595 66.3536C144.342 68.5393 145.315 71.1309 145.681 71.6499Z" fill="#5F9AA8"/>
<path d="M141.291 60.6125C141.291 60.6125 144.387 60.6642 144.389 58.7374C144.391 56.8112 144.792 55.5203 142.815 55.4059C140.839 55.2922 140.454 56.0265 140.297 56.6698C140.14 57.3124 140.486 60.5498 141.291 60.6125Z" fill="#FFB27D"/>
<path d="M141.405 55.3586C141.405 55.3586 142.253 57.6187 143.554 57.9533C144.855 58.2872 145.419 57.9392 145.419 57.9392C145.419 57.9392 144.421 57.147 144.214 55.7651C144.214 55.7651 142.045 54.283 141.405 55.3586Z" fill="#A9453D"/>
<path d="M141.615 55.5425C141.615 55.5425 140.982 56.0468 140.828 56.5376C140.674 57.0283 140.604 58.0382 140.309 58.0037C140.309 58.0037 139.671 56.4675 140.389 55.5985C141.15 54.6772 141.615 55.5425 141.615 55.5425Z" fill="#A9453D"/>
<path d="M136.419 73.7286L134.957 78.1819L135.791 78.5158L138.209 74.5817L136.419 73.7286Z" fill="#FFB27D"/>
<path d="M140.361 62.1501C140.361 62.1501 138.637 62.8339 138.138 63.8991C137.639 64.9649 136.884 72.1124 136.583 72.8467C136.282 73.5804 136.056 74.1616 136.056 74.1616C136.056 74.1616 136.925 74.8935 137.799 74.947C138.673 75.0011 140.361 62.1501 140.361 62.1501Z" fill="#F99746"/>
<path d="M141.784 61.5363C141.784 61.5363 139.993 65.9569 139.94 66.8511C139.888 67.7459 139.729 81.4801 139.729 81.4801C139.729 81.4801 139.835 82.1117 138.623 81.8485C137.412 81.5859 137.096 81.3227 137.096 81.3227C137.096 81.3227 138.254 72.8504 137.938 69.9033C137.623 66.9563 140.362 62.15 140.362 62.15L141.784 61.5363Z" fill="#F99746"/>
<path d="M133.647 102.33L134.697 102.362C134.884 102.369 135.064 102.287 135.183 102.143C135.889 101.29 138.349 98.0949 139.826 93.3994C139.867 93.2709 139.91 93.1411 139.955 93.0095C140.906 90.2383 142.879 86.7599 143.918 83.6117C144.084 83.1098 144.232 82.6381 144.365 82.191C144.408 82.0483 144.449 81.9075 144.489 81.7691L143.384 80.9315C143.384 80.9315 140.065 86.2986 139.038 91.3502C138.146 95.7376 134.573 101.017 133.647 102.33Z" fill="#1E3D70"/>
<path d="M143.268 91.8207C143.25 94.1448 143.36 99.3243 143.643 101.856C143.669 102.088 143.865 102.263 144.099 102.263H144.882C145.212 102.263 145.459 102.26 145.623 102.258C145.765 102.256 145.886 102.154 145.913 102.015C146.692 98.0562 147.249 94.7678 147.657 91.9259C147.999 89.5477 148.302 87.5084 148.535 85.7525C148.77 83.9862 148.933 82.5072 148.992 81.2569C149.001 81.0607 149.008 80.8688 149.012 80.6831C149.015 80.4961 149.017 80.3147 149.015 80.1382L142.53 79.5072C142.612 83.811 143.278 90.3933 143.268 91.8207Z" fill="#2A4E96"/>
<path d="M144.882 102.263C145.178 102.263 145.408 102.261 145.57 102.259C145.742 102.256 145.89 102.133 145.923 101.964C146.697 98.0279 147.251 94.7555 147.657 91.9259C147.999 89.5477 148.302 87.5084 148.535 85.7525C148.77 83.9862 148.933 82.5072 148.992 81.2569L146.612 82.6554C146.612 82.6554 148.131 83.1904 147.552 87.2427C146.973 91.2943 145.688 101.689 144.882 102.263Z" fill="#1E3D70"/>
<path d="M144.575 81.2175C144.575 81.2175 145.032 82.8657 146.613 82.6554C148.193 82.4451 150.44 81.498 150.44 81.498C150.44 81.498 149.765 79.3658 148.925 76.5657C147.908 73.1752 146.65 68.8044 146.057 66.0473C145.89 65.2749 145.776 64.6298 145.735 64.1673L144.423 61.6261C144.423 61.6261 142.469 66.0092 142.363 67.1144C142.258 68.2195 144.575 81.2175 144.575 81.2175Z" fill="#F99746"/>
<path d="M146.154 66.9495L144.424 61.6261C144.428 61.6285 146.609 62.2743 147.706 62.8284C147.706 62.8284 148.391 63.7115 148.815 65.7484C148.815 65.7484 149.264 70.6401 148.263 72.4292C148.263 72.4292 145.103 73.0608 140.046 71.324V70.1666C140.046 70.1666 145.577 70.4556 146.709 70.5872L146.154 66.9495Z" fill="#FFB27D"/>
<path d="M144.646 69.4298C144.717 71.2189 145.138 74.6918 148.896 76.5509C148.905 76.5558 148.915 76.5614 148.925 76.5657C147.909 73.1752 146.65 68.8044 146.057 66.0473C145.367 67.0775 144.608 68.4446 144.646 69.4298Z" fill="#ED7D2B"/>
<path d="M144.424 61.626C144.424 61.626 147.631 61.8524 148.404 63.5713C149.177 65.2902 149.422 71.0085 148.439 72.6923C148.439 72.6923 147.085 73.0773 144.691 72.6302C144.662 72.6247 144.632 72.6192 144.602 72.6136C144.602 72.6136 143.838 70.7453 144.524 70.3769C144.524 70.3769 146.543 70.482 146.332 69.8154C146.121 69.1493 144.424 61.626 144.424 61.626Z" fill="#F99746"/>
<path d="M136.381 70.8818L136.475 71.185L141.739 69.5497C141.739 69.5497 141.809 69.4698 141.774 69.3634C141.736 69.2465 141.644 69.2459 141.644 69.2459L136.381 70.8818Z" fill="#A9453D"/>
<path d="M136.001 71.1684L136.381 70.8818L136.476 71.185L136.001 71.1684Z" fill="#A9453D"/>
<path d="M135.165 78.0601C135.165 78.0601 133.83 78.7975 133.654 79.359C133.478 79.9205 133.599 81.0964 133.811 81.0792C134.023 81.0613 134.339 79.8153 134.515 79.7274C134.69 79.6401 134.937 79.3768 134.937 79.5699C134.937 79.7624 134.761 80.1136 134.849 80.1665C134.937 80.2188 135.217 79.6751 135.411 79.5699C135.604 79.4642 135.685 78.5964 135.873 78.3633C136.061 78.1302 135.165 78.0601 135.165 78.0601Z" fill="#FFB27D"/>
<path d="M140.046 70.1666C140.046 70.1666 138.852 69.4316 138.35 69.5448C137.85 69.658 136.573 70.5817 137.187 70.7816C137.801 70.9814 138.299 70.7717 138.534 70.9169C138.771 71.062 138.945 71.3277 140.046 71.324C141.146 71.3203 140.046 70.1666 140.046 70.1666Z" fill="#FFB27D"/>
<path d="M46.1386 62.2736C45.9384 61.888 50.5057 60.4994 50.578 64.3056C50.578 64.3056 59.1338 64.0953 55.0486 59.3315C53.6343 57.6821 53.7799 56.3186 53.8222 55.0492C53.8653 53.7793 52.9413 50.0899 49.7745 50.4613C49.7745 50.4613 48.9452 50.1243 47.9102 50.6612C45.5564 51.8808 40.2837 63.6771 46.1386 62.2736Z" fill="#163560"/>
<path d="M60.126 66.5288C60.126 66.5288 60.6829 65.682 61.1317 65.6654C61.5807 65.6488 62.4118 65.4163 62.3453 65.5824C62.2788 65.7484 61.7635 65.765 61.7137 65.8646C61.6638 65.9643 62.4783 66.1137 62.711 66.1303C62.9437 66.1469 63.4922 66.1303 63.4756 66.2466C63.459 66.3628 62.4869 66.8443 61.8011 66.7779C61.1151 66.7115 60.2673 66.9772 60.2673 66.9772L60.126 66.5288Z" fill="#FFB27D"/>
<path d="M52.0723 66.8031C52.0723 66.8031 52.375 67.4015 52.924 68.0897C53.5858 68.9175 54.6062 69.8744 55.8875 70.0632C56.4993 70.153 57.0978 70.022 57.6479 69.7779C57.6494 69.7773 57.6499 69.7773 57.6499 69.7773C59.2059 69.0872 60.3759 67.5005 60.3759 67.5005C60.6501 66.7533 60.2013 66.2466 60.2013 66.2466C60.2013 66.2466 57.0594 66.9526 56.7602 66.8031C56.4609 66.6537 54.7154 61.6298 54.3 60.9988C53.8841 60.3678 52.4677 60.04 52.4677 60.04L52.0723 66.8031Z" fill="#B0D0FF"/>
<path d="M52.9241 68.0897C53.5859 68.9175 54.6063 69.8744 55.8875 70.0632C56.4994 70.153 57.0978 70.022 57.6479 69.7779C57.587 69.7859 56.0331 69.9778 55.4136 68.8708C54.7818 67.741 54.0985 65.9477 53.16 66.5454C52.755 66.8031 52.773 67.4446 52.9241 68.0897Z" fill="#98BAF4"/>
<path d="M40.3495 100.683C40.3495 100.683 39.3908 101.558 39.5779 102.179C39.765 102.8 40.6301 103.214 40.7471 103.973C40.864 104.732 41.3316 105.146 41.7526 105.146C42.1735 105.146 43.7592 105.146 43.7592 105.146C43.7592 105.146 44.069 104.612 43.3207 104.451C42.5725 104.29 42.2904 103.398 42.3371 102.57C42.3839 101.742 42.267 100.638 42.267 100.638L40.6769 100.27L40.3495 100.683Z" fill="#233862"/>
<path d="M48.4641 101.055C48.4641 101.055 48.1192 104.757 48.5401 104.964L53.9266 104.953C53.9266 104.953 53.9266 104.332 53.0614 104.194C52.1962 104.056 50.6763 103.551 50.4191 102.423C50.1619 101.296 48.4641 101.055 48.4641 101.055Z" fill="#233862"/>
<path d="M44.6259 74.4906C45.7344 72.0073 46.4126 71.2945 46.2832 70.5239C46.1868 69.9501 46.5766 59.8278 46.5766 59.8278C46.7081 59.7872 46.9718 59.7503 47.1159 59.7183C47.5706 59.6175 47.9469 59.2989 48.1035 58.8604C48.2921 58.3327 48.4422 57.5535 48.4387 56.5763L48.5807 56.6046L50.9681 57.0769C50.9681 57.0769 50.9138 57.8272 50.9122 58.5345C50.9122 58.5406 50.9121 58.5462 50.9121 58.5523C50.9092 59.1661 51.3125 59.7079 51.9032 59.8782C52.2047 59.9656 52.4671 60.04 52.4671 60.04C52.4671 60.04 53.3437 62.54 53.5112 65.1088C53.6786 67.6777 51.917 68.7933 53.5245 73.9261C55.1656 79.1689 44.0136 75.8627 44.6259 74.4906Z" fill="#FFB27D"/>
<path d="M50.9685 57.0769C50.9685 57.0769 50.9142 57.8272 50.9126 58.5345C49.5766 58.497 48.8704 57.2793 48.5811 56.6046L50.9685 57.0769Z" fill="#E8945B"/>
<path d="M51.4144 57.746C51.4144 57.746 48.2535 57.7983 48.2513 55.8315C48.2492 53.8648 47.8397 52.5468 49.8578 52.43C51.8759 52.3137 52.2688 53.064 52.4294 53.7202C52.5899 54.3764 52.2366 57.6821 51.4144 57.746Z" fill="#FFB27D"/>
<path d="M51.2972 52.382C51.2972 52.382 50.4318 54.6895 49.1036 55.0308C47.7754 55.3721 47.1992 55.0166 47.1992 55.0166C47.1992 55.0166 48.2181 54.2079 48.4295 52.7965C48.4295 52.7965 50.6444 51.2836 51.2972 52.382Z" fill="#163560"/>
<path d="M51.083 52.569C51.083 52.569 51.7248 52.8088 51.989 53.2762C52.2473 53.7338 52.4673 54.3395 52.4163 55.0825C52.4163 55.0825 53.0683 53.5136 52.3355 52.6268C51.5585 51.6858 51.083 52.569 51.083 52.569Z" fill="#163560"/>
<path d="M50.7266 56.5259C50.7266 56.5259 50.9447 56.8131 51.3811 56.7922C51.7326 56.7756 51.8681 56.4712 51.8681 56.4712C51.8681 56.4712 51.2224 56.3162 50.7266 56.5259Z" fill="#EBF3FA"/>
<path d="M44.3209 64.3056C44.3209 64.3056 44.2405 65.436 44.3209 66.7927C44.3742 67.6918 45.2848 68.8966 45.414 69.1942C45.7382 69.9415 46.1037 70.0632 46.1037 70.0632L48.9319 70.7557L49.9264 70.9987L53.0622 70.0632C53.0622 70.0632 54.4906 66.0805 53.917 63.8382C53.3435 61.5965 52.4673 60.04 52.4673 60.04C52.4673 60.04 49.9084 62.5424 46.5765 59.8272L44.3209 64.3056Z" fill="#B0D0FF"/>
<path d="M45.1484 67.1598C45.2018 68.059 45.2846 68.8966 45.4138 69.1942C45.738 69.9415 46.1035 70.0632 46.1035 70.0632L48.9317 70.7557L50.1601 70.3947C50.1601 70.3947 46.0596 69.7742 46.514 66.2496L45.1484 67.1598Z" fill="#F2CCAA"/>
<path d="M52.8632 70.6678C52.8632 70.6678 54.4163 75.4968 54.516 77.1407C54.6157 78.7846 51.5474 100.497 51.4239 101.254C51.3075 101.968 50.4199 102.423 50.4199 102.423C50.4199 102.423 50.0117 102.664 49.4291 102.5C48.6206 102.271 48.3652 101.998 48.3652 101.998C48.3652 101.998 47.1564 86.5139 47.9044 80.9826C48.6525 75.4513 48.6613 70.6678 48.6613 70.6678H52.8632Z" fill="#ED7D2B"/>
<path d="M46.2836 70.5239C46.2836 70.5239 43.9147 73.6991 43.6939 75.8455C43.473 77.9918 43.3474 85.5311 42.8769 87.624C42.4064 89.7162 40.6777 93.7432 40.6777 100.27C40.6777 100.27 40.8574 100.644 41.4122 100.843C41.5896 100.907 41.8274 100.969 42.0582 101.021C42.5157 101.126 42.9851 100.903 43.194 100.483C44.3626 98.1325 48.0854 90.5507 48.2763 88.977C48.4114 87.8632 49.5868 80.4918 52.1508 76.1665C52.7664 75.1284 51.773 70.9987 51.773 70.9987L46.2836 70.5239Z" fill="#F99746"/>
<path d="M50.7969 56.5788C50.7969 56.5788 50.8515 56.8106 51.4288 56.775C51.4288 56.775 51.9134 56.7448 51.8986 56.4902C51.8986 56.4902 51.4287 56.3088 50.7969 56.5788Z" fill="white"/>
<path d="M53.1108 69.9224C53.1108 69.9224 52.4873 70.415 51.2488 70.4396C49.7695 70.4698 46.1037 70.0632 46.1037 70.0632C46.1037 70.0632 45.9408 70.5177 45.9475 70.9974C45.9475 70.9974 50.4245 72.1259 53.0186 71.1622C53.0186 71.1622 53.3531 70.5337 53.1108 69.9224Z" fill="#233862"/>
<path d="M51.1525 70.9501C51.1525 71.2478 51.3549 71.4901 51.6037 71.4901C51.8526 71.4901 52.0551 71.2478 52.0551 70.9501C52.0551 70.6524 51.8526 70.4101 51.6037 70.4101C51.3549 70.4101 51.1525 70.6524 51.1525 70.9501ZM50.9287 70.9501C50.9287 70.5294 51.2315 70.1869 51.6037 70.1869C51.976 70.1869 52.2788 70.5294 52.2788 70.9501C52.2788 71.3708 51.976 71.7133 51.6037 71.7133C51.2315 71.7133 50.9287 71.3708 50.9287 70.9501Z" fill="white"/>
<path d="M41.2842 70.7957L45.8711 74.7858L51.3383 68.5134L46.7514 64.5233L41.2842 70.7957Z" fill="#B5453C"/>
<path d="M47.138 70.8105C47.138 70.8105 48.8186 71.0067 48.8134 71.4052C48.8082 71.8037 48.3947 72.6223 48.1871 72.6592C47.9795 72.6955 46.8193 71.5516 46.8193 71.5516L47.138 70.8105Z" fill="#FFB27D"/>
<path d="M46.5764 59.8272C46.5764 59.8272 44.3326 59.9847 43.4725 62.0732C42.6124 64.1623 40.9805 67.6691 40.9805 68.2589C40.9805 68.8493 41.892 70.6678 46.7877 71.7133C46.7877 71.7133 47.2941 71.1813 47.2634 70.7607C47.2634 70.7607 44.2074 68.1383 44.2156 67.8314C44.2311 67.2521 44.7166 66.4864 47.3997 63.8056C48.1292 63.0763 46.5764 59.8272 46.5764 59.8272Z" fill="#B0D0FF"/>
<path d="M71.3665 105.032H71.345C71.22 105.032 71.1191 104.929 71.1221 104.803L71.4607 90.1418L72.458 90.0256L71.6073 104.805C71.5999 104.932 71.4946 105.032 71.3665 105.032Z" fill="#B0D4FF"/>
<path d="M65.554 105.032H65.5325C65.4075 105.032 65.3066 104.929 65.3096 104.803L65.6482 90.1418L66.6455 90.0256L65.7948 104.805C65.7874 104.932 65.6821 105.032 65.554 105.032Z" fill="#95C0F4"/>
<path d="M81.5935 105.032H81.615C81.74 105.032 81.8409 104.929 81.8385 104.803L81.4993 90.1418L80.502 90.0256L81.3527 104.805C81.3601 104.932 81.4654 105.032 81.5935 105.032Z" fill="#B0D4FF"/>
<path d="M64.8926 89.2322V79.185C64.8926 77.4174 66.3276 75.9839 68.0969 75.9839H75.3428C77.1127 75.9839 78.5471 77.4174 78.5471 79.185V89.616L64.8926 89.2322Z" fill="#B0D4FF"/>
<path d="M79.8455 90.8183H65.8548C65.3235 90.8183 64.8926 90.3878 64.8926 89.8571V89.2322H79.8455V90.8183Z" fill="#95C0F4"/>
<path d="M81.5227 90.8183H70.9376C70.5448 90.8183 70.2266 90.5003 70.2266 90.108V89.9432C70.2266 89.5502 70.5448 89.2322 70.9376 89.2322H81.5227C81.9154 89.2322 82.2337 89.5502 82.2337 89.9432V90.108C82.2337 90.5003 81.9154 90.8183 81.5227 90.8183Z" fill="#B0D4FF"/>
<path d="M81.1113 86.7285C80.0733 88.5336 78.7676 89.2303 78.7676 89.2303H73.3359C73.3359 89.2303 81.903 85.3522 81.1113 86.7285Z" fill="#233862"/>
<path d="M76.9402 100.693C76.7986 100.855 76.7801 101.036 76.8503 101.23C76.8503 101.23 76.8509 101.231 76.8515 101.232C76.9814 101.59 77.4093 101.989 77.9067 102.388C77.9701 102.439 78.0268 102.486 78.076 102.529C78.0889 102.54 78.1019 102.552 78.1136 102.563C78.124 102.572 78.1333 102.581 78.1431 102.589C78.6067 103.016 78.4318 103.114 79.2648 103.98C80.2147 104.968 80.8685 104.985 81.0544 104.896C81.212 104.819 80.8925 104.295 80.5379 103.707C80.5206 103.679 80.504 103.65 80.4862 103.621C80.4394 103.543 80.392 103.463 80.3452 103.385C79.9303 102.677 80.0368 102.345 80.1353 101.29C80.2153 100.434 81.4693 96.5058 81.4693 96.5058L79.6489 96.1921C79.6489 96.1921 79.101 99.3206 78.4971 99.8022C78.1745 100.059 77.8125 100.062 77.5022 100.252C77.4807 100.266 77.4591 100.279 77.4382 100.294C77.2615 100.41 77.0818 100.531 76.9402 100.693Z" fill="#FFB27D"/>
<path d="M76.9402 100.693C76.7986 100.855 76.7801 101.036 76.8503 101.23C76.8503 101.23 76.8509 101.231 76.8515 101.232C77.0104 101.589 77.4277 101.987 77.9079 102.385C77.9707 102.437 78.0261 102.484 78.076 102.529C78.0889 102.54 78.1019 102.552 78.1136 102.563C78.124 102.572 78.1333 102.581 78.1431 102.589C78.6067 103.016 78.4318 103.114 79.2648 103.98C80.2147 104.968 80.8685 104.985 81.0544 104.896C81.212 104.819 80.8925 104.295 80.5379 103.707C80.3532 103.639 79.4944 103.29 78.8449 102.461C78.273 101.732 77.8919 100.795 77.5022 100.252C77.4807 100.266 77.4591 100.279 77.4382 100.294C77.2615 100.41 77.0818 100.531 76.9402 100.693Z" fill="#233862"/>
<path d="M91.6145 99.5574C91.7272 100.119 92.5281 100.025 93.4226 99.8065C94.3171 99.5882 94.1047 99.8483 95.3778 99.7075C96.6509 99.5666 97.0369 99.0919 97.0757 98.9031C97.1102 98.7352 96.481 98.6761 95.8063 98.5986C95.7214 98.5888 95.6364 98.5783 95.5508 98.5679C94.7893 98.4726 94.2315 97.9812 93.539 97.5777C92.8833 97.1958 91.9051 95.6393 91.9051 95.6393L90.1592 95.777C90.1592 95.777 91.0752 97.1675 91.4298 97.7721C91.6385 98.1275 91.6274 98.598 91.6016 98.9609C91.588 99.1583 91.5751 99.36 91.6145 99.5574Z" fill="#FFB27D"/>
<path d="M93.4223 99.8065C94.3168 99.5882 94.1044 99.8483 95.3775 99.7075C96.6506 99.5666 97.0366 99.0919 97.0754 98.9031C97.1099 98.7352 96.4807 98.6761 95.806 98.5986L95.7998 98.6116C95.7998 98.6116 95.0365 99.1521 93.9764 99.1774C93.1126 99.1983 92.1978 98.951 91.6013 98.9609C91.5877 99.1583 91.5748 99.36 91.6142 99.5574C91.7269 100.119 92.5278 100.025 93.4223 99.8065Z" fill="#233862"/>
<path d="M84.9233 88.4032L83.2912 92.7912L81.1599 98.5212C81.1599 98.5212 80.5819 98.5765 80.0278 98.4178C79.5181 98.2702 78.9326 97.8853 78.9326 97.8853C78.9326 97.8853 79.5248 91.7334 80.6287 88.2021C80.9112 87.2956 81.2283 86.5625 81.5786 86.1492C83.2894 84.1289 84.9233 88.4032 84.9233 88.4032Z" fill="#233862"/>
<path d="M83.2627 81.4346C82.1934 81.0902 79.1435 81.5324 76.0796 82.1314L75.4381 81.0742L68.8195 80.5582C68.8195 80.5582 66.6359 85.3965 67.8314 88.4788C68.0075 88.9321 68.3566 89.2224 68.9519 89.2322C68.9519 89.2322 69.0479 89.2322 69.0485 89.2322C69.0485 89.2322 72.9873 89.2297 74.2659 89.2297C77.5577 89.2297 81.2317 86.9696 81.707 86.8749C82.4852 86.7193 82.796 88.274 83.5742 89.9056C84.3523 91.5378 90.8872 97.1337 90.8872 97.1337C90.8872 97.1337 91.8913 97.1436 92.3062 96.988C92.7526 96.8207 92.9157 96.6036 92.9157 96.6036C92.9157 96.6036 85.6747 82.212 83.2627 81.4346Z" fill="#2B478B"/>
<path d="M75.1781 61.8235C74.3304 61.3788 73.04 61.3186 72.8307 61.2903C70.3227 60.9539 68.8132 64.594 68.7245 65.6974C68.5608 67.7305 67.484 68.0405 65.969 69.3136C62.9303 71.867 63.8211 74.8338 65.4826 75.9359C66.4799 76.5976 68.2369 75.9359 68.2369 75.9359C68.2616 75.9531 73.0425 73.2662 75.3991 71.9697C78.9322 71.4679 77.3383 62.9569 75.1781 61.8235Z" fill="#233862"/>
<path d="M73.424 70.8664C73.4345 70.8732 72.2642 71.2717 71.4823 70.9261C70.746 70.6007 70.1889 69.3916 70.1994 69.391C70.5343 69.3757 70.9018 69.0829 71.185 67.1641L71.3278 67.2158L73.7244 68.0774C73.7244 68.0774 73.5508 68.8455 73.4382 69.5768C73.344 70.1911 73.2929 70.7797 73.424 70.8664Z" fill="#FFB27D"/>
<path d="M73.7248 68.0774C73.7248 68.0774 73.5511 68.8455 73.4385 69.5768C72.0619 69.3296 71.5214 67.9593 71.3281 67.2158L73.7248 68.0774Z" fill="#ED975D"/>
<path d="M74.082 68.84C74.082 68.84 70.8026 68.3997 71.108 66.3641C71.4133 64.3284 71.196 62.9004 73.3027 63.0947C75.4093 63.2897 75.6987 64.1273 75.7621 64.8315C75.8255 65.5357 74.9427 68.9015 74.082 68.84Z" fill="#FFB27D"/>
<path d="M75.6422 63.7158C75.6422 63.7158 73.5429 65.5227 72.1153 65.6685C70.687 65.8142 70.1465 65.356 70.1465 65.356C70.1465 65.356 70.988 64.658 71.4947 63.5313C71.6437 63.1992 71.9595 62.9717 72.3227 62.9403C73.3422 62.8524 75.2746 62.8124 75.6422 63.7158Z" fill="#233862"/>
<path d="M74.3301 63.5535C74.3301 63.5535 75.0319 64.2319 75.2535 64.7349C75.4665 65.2208 75.5305 66.3819 75.3606 66.8431C75.3606 66.8431 76.4552 64.7177 75.8353 63.6851C75.1784 62.5898 74.3301 63.5535 74.3301 63.5535Z" fill="#233862"/>
<path d="M76.1848 75.6924C76.0857 82.3239 76.1577 80.9377 75.4319 81.5675C75.2564 81.7188 74.7645 81.8092 74.1175 81.8516C72.0816 81.9869 68.5036 81.6517 68.3676 81.276C67.8978 79.9758 68.2297 79.5718 67.8381 77.581C67.7969 77.3695 67.7464 77.1401 67.6873 76.8904C67.3604 75.5232 67.0427 75.0583 68.2013 72.8615C69.2522 70.872 70.3437 69.257 70.4422 69.3154C73.2144 70.9593 73.4378 69.5774 73.4378 69.5774C73.4378 69.5774 76.2334 72.4575 76.1848 75.6924Z" fill="white"/>
<path d="M83.2912 92.7912L81.1599 98.5212C81.1599 98.5212 80.5819 98.5765 80.0278 98.4178C79.5181 98.2702 78.9326 97.8853 78.9326 97.8853C78.9326 97.8853 79.5248 91.7334 80.6287 88.2021L83.2912 92.7912Z" fill="#2B478B"/>
<path d="M73.4385 69.5768C73.4385 69.5768 76.2913 70.0602 76.6262 71.2871C76.9611 72.514 78.9323 79.7268 78.9323 79.7268C78.9323 79.7268 77.4825 79.9875 76.8121 79.3184C76.1423 78.6487 74.4813 73.1088 74.4813 73.1088L73.4385 69.5768Z" fill="white"/>
<path d="M74.1182 81.8516C72.0824 81.9869 68.5044 81.6517 68.3683 81.276C67.8986 79.9758 68.2304 79.5718 67.8389 77.581L68.8202 74.8191C68.8202 74.8191 68.6583 77.8947 69.5657 78.7034C70.4731 79.5121 73.2828 80.2649 73.7242 80.9408C73.9372 81.2655 74.0776 81.5902 74.1182 81.8516Z" fill="#EBF3FF"/>
<path d="M71.7861 80.5582C71.7861 80.5582 73.7943 80.1117 74.1181 80.2895C74.4419 80.4678 75.2336 81.116 75.3334 81.3417C75.4325 81.5674 74.6118 81.1701 74.3447 81.0988C74.1723 81.0527 73.7167 81.2101 73.492 81.2852C72.544 81.6013 71.9634 81.4389 71.9634 81.4389L71.7861 80.5582Z" fill="#FFB27D"/>
<path d="M70.4408 69.3136C70.4408 69.3136 67.7444 69.4796 66.8111 70.7803C65.4967 72.6112 62.8902 80.4131 64.3843 81.4543C66.0668 82.6258 72.0408 81.7605 72.0408 81.7605C72.0408 81.7605 72.2397 80.8325 71.9632 80.3829C71.6862 79.934 67.1915 79.2089 66.9841 79.0017C66.7766 78.7944 69.5771 74.9599 69.5771 74.3381C69.5771 73.7163 70.4408 69.3136 70.4408 69.3136Z" fill="white"/>
<path d="M74.2148 80.8479C74.2148 80.8479 74.6353 81.3903 74.7732 81.4549C74.9111 81.5195 75.0004 81.5035 75.0004 81.5035L74.7172 80.9937L74.2148 80.8479Z" fill="#FFB27D"/>
<path d="M74.1182 80.2895L75.3414 80.8829C75.3414 80.8829 75.2891 80.9678 75.1389 80.961C74.988 80.9543 74.6082 80.8153 74.6082 80.8153L74.1182 80.2895Z" fill="#FFB27D"/>
<path d="M74.7734 82.2858H84.4504L87.3617 75.054H77.6995L74.7734 82.2858Z" fill="#F99746"/>
<path d="M84.564 82.0035H71.7861V82.2858H84.4508L84.564 82.0035Z" fill="#ED7D2B"/>
<path d="M82.0075 78.6696C82.0808 78.4156 81.9336 78.2095 81.6788 78.2095C81.4245 78.2095 81.1592 78.4156 81.0859 78.6696C81.0133 78.9235 81.1604 79.1302 81.4147 79.1302C81.6695 79.1302 81.9349 78.9235 82.0075 78.6696Z" fill="white"/>
<path d="M125.315 105.3H125.343C125.509 105.3 125.643 105.155 125.639 104.98L125.191 84.4512L123.872 84.2882L124.997 104.981C125.007 105.16 125.146 105.3 125.315 105.3Z" fill="#78ACEA"/>
<path d="M71.8337 105.3H71.8053C71.6397 105.3 71.5061 105.155 71.5098 104.98L71.958 84.4512L73.2767 84.2882L72.1519 104.981C72.1421 105.16 72.0023 105.3 71.8337 105.3Z" fill="#78ACEA"/>
<path d="M126.905 84.8288H70.4671C70.0048 84.8288 69.6299 84.4543 69.6299 83.9924V83.188C69.6299 82.7261 70.0048 82.3516 70.4671 82.3516H126.905C127.367 82.3516 127.741 82.7261 127.741 83.188V83.9924C127.741 84.4543 127.367 84.8288 126.905 84.8288Z" fill="#78ACEA"/>
<path d="M58.1666 47.168C57.9534 41.8969 62.3758 39.555 66.8982 39.555C71.4199 39.555 76.3413 40.7253 76.7673 47.7345C77.0418 52.2436 74.6354 55.0179 67.7071 55.0179C65.3702 55.0179 63.5541 54.6495 62.1628 53.9933L58.6995 57.0677L60.4016 52.818C58.8938 51.4177 58.2586 49.4423 58.1666 47.168Z" fill="#DFEDFB"/>
<path d="M160.945 105.277C160.945 105.277 161.072 104.287 161.367 103.698C161.662 103.109 163.537 103.484 163.537 103.484C163.537 103.484 163.912 103.805 163.993 105.304L160.945 105.277Z" fill="#233862"/>
<path d="M154.557 105.263C154.997 104.995 154.747 102.99 154.747 102.99C154.747 102.99 152.694 101.35 152.411 102.606C152.129 103.862 150.461 104.426 149.511 104.58C148.856 104.686 148.653 105.049 148.59 105.263H154.557Z" fill="#233862"/>
<path d="M158.809 90.6854C158.726 91.1454 158.673 91.523 158.659 91.7936C158.468 95.5126 155.524 104.017 154.998 104.215C154.184 104.522 152.901 103.869 152.23 103.656C151.952 103.567 151.764 103.287 151.826 103.003C153.284 96.309 153.819 86.6707 154.014 80.9641C154.113 78.0902 154.607 76.105 154.607 76.105C154.607 76.105 161.785 74.1917 161.827 76.6118C161.865 78.7532 159.45 87.1522 158.809 90.6854Z" fill="#213F7A"/>
<path d="M158.81 90.6854L154.015 80.9641C154.113 78.0902 154.607 76.105 154.607 76.105C154.607 76.105 161.785 74.1917 161.828 76.6118C161.865 78.7532 159.45 87.1522 158.81 90.6854Z" fill="#233862"/>
<path d="M157.213 76.6204L161.007 104.094C161.007 104.094 162.673 104.496 163.969 104.175C163.969 104.175 165.081 89.5624 164.988 86.0299C164.895 82.4973 165.785 76.5773 164.785 75.9248C163.785 75.2717 157.213 76.6204 157.213 76.6204Z" fill="#213F7A"/>
<path d="M165.525 76.1622C165.543 76.4106 165.384 76.6363 165.145 76.7058C164.615 76.859 164.005 76.966 162.828 77.2095C161.722 77.4389 160.235 77.6419 158.408 77.6536C155.501 77.672 154.401 76.6708 154.401 76.6708C154.275 76.6732 154.467 76.0656 154.639 73.1764C154.698 72.1973 154.754 70.9568 154.794 69.3886C154.831 67.9778 154.856 66.3013 154.858 64.313C154.861 61.9206 158.568 59.3475 158.636 59.3475L158.637 59.3481C158.637 59.6925 159.181 60.3284 160.017 60.3831C161.011 60.4483 162.229 59.9545 162.229 59.3825C162.229 59.377 164.025 62.2527 164.663 65.3167C164.985 66.8585 164.855 66.8173 165.525 76.1622Z" fill="#B0D0FF"/>
<path d="M158.636 59.3475C158.636 59.3475 155.189 59.318 154.36 60.4803C153.531 61.6427 151.712 67.8942 152.661 69.9741C153.61 72.0546 155.386 69.1137 156.371 67.8394C157.357 66.5651 158.636 59.3475 158.636 59.3475Z" fill="#B0D0FF"/>
<path d="M158.601 58.8216L158.603 59.1777C158.603 59.1777 158.506 60.2909 159.878 60.4532C161.25 60.6162 162.269 60.2454 162.231 59.3868C162.107 58.7214 161.993 58.0388 161.984 57.4883C161.98 57.2835 161.995 57.067 162.033 56.8217L159.374 56.7688L158.591 56.8967L158.601 58.8216Z" fill="#FFB27D"/>
<path d="M158.591 56.8967L158.601 58.8216C158.883 58.9533 159.202 59.0332 159.559 59.0332C160.781 59.0332 161.571 58.1378 161.984 57.4883C161.98 57.2835 161.995 57.067 162.033 56.8217L159.374 56.7688L158.591 56.8967Z" fill="#E2915A"/>
<path d="M162.236 56.3943C161.927 58.0529 159.785 57.9982 158.859 57.8943C158.599 57.8653 158.435 57.8321 158.435 57.8321C158.141 57.7534 157.977 57.2916 157.901 56.6858C157.75 55.4878 157.941 53.7289 158.143 53.2793C158.449 52.6022 159.023 51.8703 161.18 52.3986C163.338 52.9269 162.632 54.2694 162.236 56.3943Z" fill="#FFB27D"/>
<path d="M155.111 64.0061C155.111 64.0061 153.778 66.947 153.817 67.8289C153.817 67.8289 154.477 67.8062 155.111 67.995C156.154 68.305 155.111 64.0061 155.111 64.0061Z" fill="#98BAF4"/>
<path d="M157.481 51.7006C157.481 51.7006 158.431 51.6274 159.551 51.1409C160.46 50.7461 161.607 51.1809 161.979 51.3771C161.969 51.3168 161.945 51.235 161.888 51.1532C161.888 51.1532 162.056 51.2719 162.08 51.4373C162.097 51.4496 162.105 51.4589 162.1 51.4613C162.1 51.4613 162.29 51.4269 162.412 51.4816C162.412 51.4816 162.326 51.4693 162.296 51.5241C162.293 51.5302 162.288 51.5351 162.283 51.5394C163.7 52.2239 163.832 54.4625 163.375 54.9804C162.826 55.6034 161.997 57.0135 161.997 57.0135C161.997 57.0135 161.927 56.6753 162.028 56.1267C162.128 55.5788 161.654 55.5788 161.055 55.3291C160.456 55.08 160.955 54.382 160.43 53.9582C159.906 53.5345 157.985 53.7836 158.01 53.4595C157.297 53.1999 157.481 51.7737 157.481 51.7006Z" fill="#233862"/>
<path d="M162.67 69.5153C162.107 71.7723 156.022 72.939 154.639 73.1764C154.697 72.1973 154.753 70.9569 154.794 69.3886L162.67 69.5153Z" fill="#98BAF4"/>
<path d="M161.334 70.249C161.393 70.249 162.687 70.0559 162.919 69.9402C163.151 69.824 164.212 68.3185 163.517 67.9323C162.823 67.546 160.958 69.0903 160.958 69.0903L161.334 70.249Z" fill="#FFB27D"/>
<path d="M153.459 70.6961C153.459 70.6961 158.467 70.9679 161.827 70.249C161.827 70.249 161.912 69.2791 160.856 68.848C160.856 68.848 155.618 67.7391 154.36 68.0479C153.101 68.3566 153.459 70.6961 153.459 70.6961Z" fill="#B0D0FF"/>
<path d="M164.96 66.7699C163.921 68.0221 162.562 69.0442 161.064 69.2834H161.063C161.051 69.2644 160.61 68.5953 160.693 67.6125C160.731 67.1574 160.882 66.6353 161.238 66.0787C161.348 65.9077 161.446 65.7078 161.533 65.4858C162.351 63.401 162.229 59.3826 162.229 59.3826C162.229 59.3826 165.702 59.746 166.785 61.2909C167.448 62.2368 166.602 64.7909 164.96 66.7699Z" fill="#B0D0FF"/>
<path d="M158.859 57.8942C158.599 57.8653 158.435 57.8321 158.435 57.8321C158.141 57.7534 157.977 57.2915 157.901 56.6858C158.452 56.8217 158.704 57.2466 158.809 57.4274C158.857 57.5092 158.867 57.6919 158.859 57.8942Z" fill="#E2915A"/>
<path d="M157.46 58.8322C157.46 58.8322 156.26 56.8549 157.193 56.7688C158.126 56.6827 158.501 57.3137 158.635 57.545C158.77 57.7768 158.6 58.8217 158.6 58.8217L157.46 58.8322Z" fill="#FFB27D"/>
<path d="M162.033 67.5461C161.996 67.7964 161.921 68.027 161.828 68.2324C161.535 68.8825 161.064 69.2834 161.064 69.2834H161.064C157.949 67.8782 157.318 63.0547 157.212 60.4041C157.17 59.3389 157.212 58.6243 157.212 58.6243C158.618 58.1593 159.013 58.9674 159.013 58.9674C159.013 58.9674 160.672 62.9096 161.533 65.4858C161.862 66.4717 162.074 67.2576 162.033 67.5461Z" fill="#B0D0FF"/>
<path d="M164.96 66.7699C163.92 68.0221 162.562 69.0442 161.064 69.2834H161.063C157.948 67.8782 157.318 63.0547 157.212 60.4041C157.212 60.4041 158.686 65.7454 160.693 67.6125C161.055 67.9501 161.436 68.174 161.828 68.2324C161.828 68.2324 164.358 67.5184 164.889 66.8456C164.926 66.797 164.95 66.773 164.96 66.7699Z" fill="#98BAF4"/>
<path d="M108.217 82.3516H98.5402L95.6289 75.1198H105.291L108.217 82.3516Z" fill="#2B478B"/>
<path d="M98.4268 82.0699H111.205V82.3516H98.54L98.4268 82.0699Z" fill="#2B478B"/>
<path d="M100.983 78.736C100.909 78.4814 101.057 78.2753 101.311 78.2753C101.566 78.2753 101.831 78.4814 101.904 78.736C101.977 78.99 101.83 79.196 101.576 79.196C101.321 79.196 101.055 78.99 100.983 78.736Z" fill="white"/>
<path d="M186.718 105.116V105.178C186.718 105.276 186.627 105.357 186.517 105.357H9.0024C8.89183 105.357 8.80078 105.276 8.80078 105.178V105.116C8.80078 105.018 8.89183 104.937 9.0024 104.937H186.517C186.627 104.937 186.718 105.018 186.718 105.116Z" fill="#2E3552"/>
</svg>
