<svg width="183" height="117" viewBox="0 0 183 117" fill="none" xmlns="http://www.w3.org/2000/svg">
<path d="M155.442 103.302L160.877 103.365C169.636 95.7815 169.542 70.2626 164.749 62.7723C156.64 50.1018 152.319 52.5365 145.221 45.0895C139.732 39.3313 146.632 23.1186 130.076 15.4698C113.52 7.82089 88.519 19.546 79.4581 23.9803C70.3973 28.4146 66.1464 25.5323 60.889 23.7586C55.6313 21.9849 35.1266 18.4767 26.5468 41.0243C22.0183 52.925 27.4251 63.4585 19.7751 74.343C9.62152 88.7896 18.1222 103.522 18.1222 103.522L151.479 103.034L155.442 103.302Z" fill="#EBF3FA"/>
<path d="M115.503 103.302C115.852 103.127 121.566 91.5391 126.93 95.4562C126.93 95.4562 131.376 83.5281 139.118 84.0973C146.859 84.6671 142.445 94.7086 142.445 94.7086C142.445 94.7086 147.261 95.8447 145.726 100.356C145.726 100.356 154.166 99.3927 153.537 103.203L115.503 103.302" fill="#213F7A"/>
<path d="M140.328 98.4339C140.309 98.4309 140.291 98.4233 140.278 98.4122C140.253 98.3888 140.263 98.3572 140.301 98.3414C140.369 98.3134 141.974 97.6482 143.384 97.8401H143.385C143.428 97.8465 143.456 97.8734 143.447 97.9009C143.437 97.9284 143.394 97.9454 143.35 97.9395H143.35C142.008 97.757 140.407 98.4192 140.391 98.4263C140.372 98.4344 140.35 98.4362 140.328 98.4339" fill="black"/>
<path d="M141.408 98.5099C141.388 98.507 141.369 98.4994 141.357 98.4883C141.333 98.4649 141.343 98.4333 141.38 98.4175C141.411 98.4046 142.153 98.1033 143.47 98.1548C143.515 98.1566 143.548 98.1806 143.545 98.2086C143.542 98.2367 143.504 98.2578 143.46 98.256C142.196 98.2069 141.477 98.4994 141.469 98.5023C141.45 98.5105 141.428 98.5123 141.408 98.5099Z" fill="black"/>
<path d="M121.296 100.477C121.275 100.477 121.255 100.472 121.239 100.463C121.208 100.443 121.206 100.411 121.238 100.391C121.294 100.354 122.639 99.4903 124.081 99.4903C124.128 99.4909 124.163 99.5126 124.163 99.5412C124.163 99.5693 124.127 99.5921 124.082 99.5921C122.707 99.5921 121.368 100.453 121.354 100.461C121.339 100.472 121.317 100.477 121.296 100.477" fill="black"/>
<path d="M122.377 100.408C122.356 100.408 122.336 100.403 122.32 100.393C122.288 100.374 122.288 100.342 122.319 100.321C122.344 100.305 122.968 99.911 124.272 99.7858C124.317 99.7817 124.357 99.801 124.364 99.8285C124.371 99.8566 124.341 99.8823 124.297 99.8864C123.05 100.006 122.441 100.388 122.435 100.392C122.419 100.402 122.398 100.408 122.377 100.408Z" fill="black"/>
<path d="M118.906 28.5059C121.278 28.3713 126.838 28.1361 131.671 28.5398C133.671 28.7071 135.398 27.1241 135.353 25.1363C135.334 24.3225 135.04 23.3754 134.278 22.3031C131.343 18.1724 126.242 22.1171 126.291 24.2137C126.291 24.2137 125.259 21.0565 122.127 21.6093C118.995 22.1621 120.102 26.7532 120.102 26.7532C120.102 26.7532 119.092 26.542 118.391 27.0159C117.702 27.4815 118.073 28.5527 118.906 28.5059Z" fill="white"/>
<path d="M34.0186 33.2742C35.3528 33.1982 38.4805 33.066 41.1995 33.2935C42.3244 33.3877 43.2956 32.4967 43.2704 31.3782C43.26 30.9208 43.0943 30.3884 42.6656 29.7847C41.0147 27.4611 38.1451 29.6806 38.1726 30.8599C38.1726 30.8599 37.5925 29.0839 35.8305 29.3945C34.0684 29.7057 34.6916 32.2885 34.6916 32.2885C34.6916 32.2885 34.123 32.1691 33.7287 32.4359C33.3412 32.698 33.5501 33.3005 34.0186 33.2742" fill="white"/>
<path d="M38.3696 103.058C37.8659 102.559 33.9369 95.5703 31.2168 99.1645C31.2168 99.1645 25.6126 87.5914 19.9836 89.5758C19.9836 89.5758 16.0868 92.0527 18.6936 97.1814C18.6936 97.1814 11.471 97.654 11.5843 103.058H38.3696" fill="#213F7A"/>
<path d="M25.3688 92.929C25.3861 92.929 25.4033 92.9214 25.4148 92.9068C25.4348 92.8816 25.4304 92.8448 25.405 92.8255C25.3469 92.7798 23.9672 91.7134 22.7061 91.5636C22.6738 91.5601 22.6449 91.5823 22.641 91.6145C22.6372 91.6461 22.6601 91.6748 22.6922 91.6789C23.9203 91.8251 25.3187 92.9056 25.3327 92.9161C25.3434 92.9249 25.3562 92.929 25.3688 92.929Z" fill="black"/>
<path d="M25.3692 93.6011C25.3862 93.6011 25.4032 93.5935 25.4147 93.5795C25.435 93.5549 25.4312 93.5181 25.4061 93.4982C25.3967 93.4906 24.4511 92.7377 23.2448 92.389C23.2139 92.3802 23.1813 92.3978 23.1723 92.4288C23.1632 92.4592 23.1811 92.4914 23.2121 92.5008C24.395 92.8424 25.3232 93.5807 25.3324 93.5883C25.3432 93.597 25.3562 93.6011 25.3692 93.6011" fill="black"/>
<path d="M131.433 103.302C131.781 103.026 137.476 88.8697 141.242 94.0534C141.242 94.0534 146.885 78.3339 154.627 79.2324C162.368 80.131 155.812 94.2301 155.812 94.2301C155.812 94.2301 162.438 91.535 160.904 98.6538C160.904 98.6538 169.343 97.1334 168.715 103.146L131.433 103.302" fill="#213F7A"/>
<path d="M155.505 95.62C155.485 95.6159 155.467 95.6042 155.455 95.5867C155.43 95.5498 155.44 95.4995 155.477 95.4749C155.545 95.4305 157.151 94.381 158.56 94.684C158.56 94.684 158.561 94.684 158.561 94.684C158.605 94.6934 158.633 94.7361 158.623 94.7794C158.613 94.8227 158.57 94.8502 158.526 94.8408H158.526C157.184 94.5524 155.583 95.5978 155.567 95.6083C155.548 95.6212 155.526 95.6247 155.505 95.62" fill="black"/>
<path d="M156.584 95.74C156.564 95.7359 156.546 95.7242 156.534 95.706C156.509 95.6692 156.519 95.6194 156.557 95.5949C156.588 95.5744 157.329 95.0988 158.646 95.1801C158.691 95.183 158.725 95.2211 158.722 95.2649C158.719 95.3094 158.681 95.3427 158.636 95.3404C157.373 95.2626 156.653 95.7242 156.646 95.7288C156.627 95.7411 156.605 95.7446 156.584 95.74" fill="black"/>
<path d="M136.473 98.8445C136.452 98.8445 136.432 98.8369 136.416 98.8217C136.384 98.7913 136.383 98.7404 136.414 98.7082C136.471 98.6503 137.816 97.2873 139.258 97.2873C139.304 97.2884 139.34 97.323 139.34 97.368C139.34 97.4119 139.304 97.4481 139.259 97.4481H139.258C137.884 97.4481 136.544 98.8065 136.531 98.82C136.515 98.8364 136.494 98.8445 136.473 98.8445" fill="black"/>
<path d="M137.554 98.7351C137.533 98.7351 137.513 98.7275 137.497 98.7123C137.465 98.6813 137.464 98.6304 137.496 98.5988C137.522 98.5725 138.144 97.9512 139.449 97.7541C139.494 97.7476 139.535 97.7775 139.541 97.8213C139.548 97.8652 139.518 97.9062 139.473 97.9126C138.227 98.1016 137.618 98.7047 137.612 98.7105C137.596 98.7269 137.575 98.7351 137.554 98.7351" fill="black"/>
<path d="M80.6842 41.6537C83.3365 41.5151 92.4269 41.1354 98.643 42.0486C99.4494 42.1668 99.9629 41.2091 99.4051 40.62C99.0792 40.2761 98.5226 39.9953 97.5863 39.9303C97.5863 39.9303 97.9086 34.1792 93.5255 33.7984C88.4977 33.3614 88.4369 39.0113 88.4369 39.0113C88.4369 39.0113 86.1518 36.862 84.5036 39.5875C84.5036 39.5875 81.6559 37.9559 80.219 40.9687C80.062 41.2975 80.3176 41.673 80.6842 41.6537" fill="white"/>
<path d="M169.902 103.696H8.84766V103.034H169.902V103.696Z" fill="#223749"/>
<path d="M100.618 101.874C100.618 102.553 100.062 103.104 99.3764 103.104C98.6899 103.104 98.1338 102.553 98.1338 101.874C98.1338 101.193 98.6899 100.642 99.3764 100.642C100.062 100.642 100.618 101.193 100.618 101.874Z" fill="black"/>
<path d="M99.8423 101.874C99.8423 102.128 99.6333 102.335 99.3765 102.335C99.1191 102.335 98.9102 102.128 98.9102 101.874C98.9102 101.619 99.1191 101.411 99.3765 101.411C99.6333 101.411 99.8423 101.619 99.8423 101.874Z" fill="#223749"/>
<path d="M103.3 101.874C103.3 102.553 102.744 103.104 102.057 103.104C101.371 103.104 100.814 102.553 100.814 101.874C100.814 101.193 101.371 100.642 102.057 100.642C102.744 100.642 103.3 101.193 103.3 101.874Z" fill="black"/>
<path d="M102.523 101.874C102.523 102.128 102.315 102.335 102.058 102.335C101.8 102.335 101.592 102.128 101.592 101.874C101.592 101.619 101.8 101.411 102.058 101.411C102.315 101.411 102.523 101.619 102.523 101.874Z" fill="#223749"/>
<path d="M106.074 101.874C106.074 102.553 105.517 103.104 104.831 103.104C104.145 103.104 103.589 102.553 103.589 101.874C103.589 101.193 104.145 100.642 104.831 100.642C105.517 100.642 106.074 101.193 106.074 101.874Z" fill="black"/>
<path d="M105.296 101.874C105.296 102.128 105.087 102.335 104.83 102.335C104.573 102.335 104.364 102.128 104.364 101.874C104.364 101.619 104.573 101.411 104.83 101.411C105.087 101.411 105.296 101.619 105.296 101.874Z" fill="#223749"/>
<path d="M108.795 101.874C108.795 102.553 108.239 103.104 107.553 103.104C106.867 103.104 106.311 102.553 106.311 101.874C106.311 101.193 106.867 100.642 107.553 100.642C108.239 100.642 108.795 101.193 108.795 101.874Z" fill="black"/>
<path d="M108.019 101.874C108.019 102.128 107.811 102.335 107.553 102.335C107.296 102.335 107.087 102.128 107.087 101.874C107.087 101.619 107.296 101.411 107.553 101.411C107.811 101.411 108.019 101.619 108.019 101.874Z" fill="#223749"/>
<path d="M99.4506 101.925C99.2605 101.925 99.1064 101.772 99.1064 101.584V100.325H100.132L99.7841 101.668C99.7452 101.819 99.6076 101.925 99.4506 101.925" fill="#223749"/>
<path d="M102.126 101.925C101.936 101.925 101.782 101.772 101.782 101.584V100.325H102.808L102.459 101.668C102.42 101.819 102.283 101.925 102.126 101.925" fill="#223749"/>
<path d="M104.903 101.925C104.713 101.925 104.559 101.772 104.559 101.584V100.325H105.585L105.236 101.668C105.197 101.819 105.06 101.925 104.903 101.925" fill="#223749"/>
<path d="M107.626 101.925C107.436 101.925 107.282 101.772 107.282 101.584V100.325H108.308L107.96 101.668C107.921 101.819 107.783 101.925 107.626 101.925" fill="#223749"/>
<path d="M103.787 98.7287L107.764 99.0855L108.311 97.7593L108.302 93.5772L103.683 93.8082L103.787 98.7287" fill="#FE9F73"/>
<path d="M143.08 91.4074L142.609 89.5805L143.426 87.0059L143.098 86.8204L138.975 85.9295L138.209 90.4498L143.08 91.4074" fill="#FE9F73"/>
<path d="M107.949 65.5241L105.989 68.6626L101.728 75.4878C101.728 75.4878 100.203 78.4268 100.76 81.6139C101.318 84.8004 103.139 96.5964 103.139 96.5964C103.139 96.5964 106.729 96.8894 108.944 96.4957C108.944 96.4957 108.669 82.9331 108.679 81.4946C108.69 80.0555 115.128 70.1947 115.55 69.708L118.876 81.4776C118.876 81.4776 120.547 87.8418 123.671 88.1607C126.794 88.4795 138.565 91.3653 138.565 91.3653C138.565 91.3653 139.999 87.3452 139.637 85.0602L128.721 81.893C128.721 81.893 125.974 69.4208 124.942 65.7628C123.91 62.1042 115.155 62.5757 115.155 62.5757L107.949 65.5241" fill="#2A4E96"/>
<path d="M125.175 69.9268C123.55 69.9268 122.544 69.0622 121.965 68.2759C121.246 67.299 121.024 66.2606 121.015 66.2173C121.006 66.1723 121.035 66.129 121.08 66.1196C121.125 66.1103 121.169 66.1389 121.178 66.184C121.181 66.1939 121.403 67.2347 122.103 68.1829C123.034 69.4454 124.327 69.9555 125.944 69.6993C125.99 69.6922 126.032 69.7227 126.039 69.7677C126.046 69.8127 126.015 69.8549 125.97 69.8619C125.69 69.9063 125.425 69.9268 125.175 69.9268" fill="black"/>
<path d="M107.232 59.6051C107.232 59.6051 105.02 63.6784 104.096 64.4489C103.171 65.2187 92.9205 65.2462 92.9205 65.2462L92.8438 62.1112L101.175 60.7481L103.579 56.8415L107.232 59.6051Z" fill="#FE9F73"/>
<path d="M89.3124 65.4457C89.2628 65.293 89.349 65.1292 89.4989 65.0701L90.4346 64.7033C90.4635 64.6916 90.4824 64.663 90.4812 64.632C90.4789 64.5857 90.4346 64.5536 90.3897 64.5647L88.9482 64.9198C88.7829 64.9607 88.6412 64.856 88.6329 64.6881C88.6247 64.5196 88.7534 64.3482 88.9187 64.3073L90.3886 63.9452C90.4228 63.9364 90.4458 63.9054 90.444 63.8703L90.4429 63.8457C90.4411 63.8054 90.4069 63.7744 90.3661 63.7761L88.6878 63.8557C88.5261 63.8633 88.3797 63.7492 88.3614 63.5901C88.3413 63.4157 88.4741 63.2636 88.6483 63.2555L90.3372 63.1753C90.3779 63.1736 90.4092 63.1396 90.4074 63.0993L90.4033 63.0209C90.4015 62.984 90.3726 62.9548 90.336 62.9513L88.7705 62.8231C88.6093 62.8097 88.4789 62.6775 88.4818 62.5178C88.4848 62.3423 88.6365 62.2083 88.81 62.2229C88.81 62.2229 91.2079 62.2914 91.5834 62.2721L91.0556 61.5777C90.9317 61.4659 90.9222 61.2758 91.035 61.153C91.1477 61.0301 91.3402 61.0208 91.4641 61.1325L93.0533 62.2598C93.1341 62.3323 93.1448 62.5488 93.1117 62.7254C93.3331 64.4863 93.3526 64.7595 93.3685 65.2398L91.4541 65.2667C90.9021 65.2743 90.3555 65.3813 89.8419 65.5826L89.7126 65.6335C89.5509 65.6967 89.3667 65.6124 89.3124 65.4457" fill="#FE9F73"/>
<path d="M106.684 48.3011L113.086 46.0629C115.51 45.2152 119.408 44.3839 122.265 46.3267C125.385 48.4491 129.417 54.1979 129.417 54.1979C129.417 54.1979 126.249 56.325 123.911 56.5361L122.211 54.7741C122.211 54.7741 124.411 61.0541 125.607 68.3385C125.607 68.3385 117.143 70.2667 107.954 65.4668C107.954 65.4668 107.432 61.5127 107.412 60.6487L107.01 61.931C107.01 61.931 102.351 60.7686 101.023 59.0979C101.023 59.0979 103.94 51.2401 104.343 50.4802C104.89 49.4454 106.029 48.5094 106.684 48.3011" fill="#FFB357"/>
<path d="M102.812 61.8298C102.791 61.8298 102.77 61.8246 102.751 61.8135L101.084 60.8529C101.026 60.819 101.006 60.7452 101.04 60.6879C101.074 60.63 101.149 60.6107 101.206 60.644L102.873 61.6046C102.931 61.638 102.951 61.7123 102.917 61.7696C102.895 61.8082 102.854 61.8298 102.812 61.8298" fill="#F07162"/>
<path d="M113.895 67.8887C113.892 67.8881 113.888 67.8869 113.884 67.8857C110.246 66.793 107.936 65.5516 107.913 65.5393L107.875 65.5183L107.87 65.475C107.861 65.3907 106.988 56.9983 106.733 55.1134C106.393 52.5927 107.624 50.957 107.637 50.9406C107.665 50.9044 107.717 50.8973 107.753 50.9248C107.79 50.9523 107.797 51.0044 107.769 51.0407C107.758 51.0565 106.567 52.6412 106.898 55.0918C107.144 56.9082 107.963 64.7548 108.031 65.4147C108.346 65.5797 110.567 66.7169 113.932 67.7278C113.977 67.7413 114.001 67.7875 113.988 67.8308C113.976 67.8711 113.936 67.8951 113.895 67.8887" fill="black"/>
<path d="M106.997 62.0123C106.994 62.0117 106.991 62.0111 106.988 62.0106C101.645 60.5369 100.974 59.1885 100.948 59.1318L100.934 59.1002L100.946 59.0686L104.104 50.8061C104.111 50.7879 104.793 49.1365 106.509 48.2789C106.55 48.2584 106.6 48.2748 106.621 48.3157C106.641 48.3561 106.625 48.4058 106.584 48.4263C104.925 49.2552 104.266 50.8499 104.259 50.8657L101.116 59.0902C101.242 59.2856 102.209 60.5212 107.033 61.8514C107.077 61.8637 107.103 61.9094 107.091 61.9532C107.079 61.9942 107.039 62.0193 106.997 62.0123" fill="black"/>
<path d="M123.873 60.6247C123.841 60.62 123.815 60.5972 123.806 60.5645C123.793 60.5182 122.559 55.9201 121.967 54.629C121.949 54.5875 121.967 54.5384 122.009 54.5197C122.051 54.5009 122.1 54.5191 122.119 54.5606C122.716 55.8646 123.915 60.3328 123.966 60.5223C123.978 60.5662 123.952 60.6118 123.907 60.6235C123.895 60.6265 123.884 60.6271 123.873 60.6247Z" fill="black"/>
<path d="M118.645 80.6329C118.608 80.6329 118.575 80.6089 118.564 80.5726L115.603 70.0923L114.631 68.2326C114.609 68.1923 114.625 68.1425 114.666 68.1215C114.707 68.1004 114.757 68.1162 114.778 68.1566L115.759 70.0315L115.761 70.0397L118.725 80.5282C118.737 80.572 118.711 80.6171 118.667 80.6294C118.659 80.6317 118.652 80.6329 118.645 80.6329" fill="black"/>
<path d="M107.607 81.3981C107.561 81.3981 107.524 81.3624 107.523 81.3173C107.522 81.2717 107.559 81.2343 107.605 81.2331C108.427 81.2191 108.66 81.0711 108.698 81.0418L110.813 76.9837C110.835 76.9433 110.885 76.9275 110.925 76.9486C110.966 76.969 110.982 77.0193 110.962 77.0597L108.835 81.1389L108.829 81.1459C108.796 81.1851 108.582 81.3811 107.608 81.3981C107.608 81.3981 107.607 81.3981 107.607 81.3981" fill="black"/>
<path d="M108.194 81.8497C108.162 81.8497 108.131 81.8315 108.118 81.8005C108.099 81.759 108.118 81.7099 108.16 81.6917C108.622 81.4911 108.682 81.0862 108.683 81.0822C108.688 81.0371 108.731 81.0055 108.776 81.0114C108.822 81.0172 108.854 81.0588 108.847 81.1038C108.845 81.1243 108.773 81.6051 108.227 81.8427C108.216 81.8473 108.205 81.8497 108.194 81.8497Z" fill="black"/>
<path d="M105.588 96.8228C105.37 96.8228 105.164 96.8175 104.976 96.8046C104.93 96.8017 104.895 96.7619 104.899 96.7169C104.902 96.6712 104.942 96.6373 104.987 96.6397C106.263 96.7268 108.433 96.4753 108.86 96.4232L108.614 81.298C108.614 81.2524 108.65 81.215 108.696 81.2144C108.742 81.2126 108.78 81.2501 108.781 81.2957L109.029 96.5683L108.955 96.5776C108.932 96.5806 107.025 96.8228 105.588 96.8228" fill="black"/>
<path d="M105.892 95.9651C104.256 95.9651 102.894 95.7721 102.872 95.7692C102.827 95.7622 102.795 95.7206 102.802 95.6756C102.808 95.6305 102.851 95.5989 102.896 95.606C102.931 95.6106 106.409 96.1038 108.909 95.5024C108.954 95.4919 108.998 95.5188 109.01 95.5633C109.02 95.6077 108.992 95.6522 108.948 95.6627C107.99 95.8938 106.89 95.9651 105.892 95.9651" fill="black"/>
<path d="M127.84 82.8354C127.812 82.8354 127.784 82.8213 127.769 82.7956C127.745 82.7564 127.758 82.7055 127.797 82.6821C128.306 82.3803 128.57 81.983 128.633 81.8795L127.098 75.0444C127.088 74.9999 127.116 74.9554 127.161 74.9455C127.206 74.9355 127.251 74.9636 127.26 75.0081L128.809 81.9047L128.794 81.9316C128.783 81.9526 128.51 82.4505 127.883 82.8237C127.87 82.8319 127.855 82.8354 127.84 82.8354" fill="black"/>
<path d="M139.223 89.2078C139.216 89.2078 139.208 89.2067 139.201 89.2049C139.157 89.1926 139.131 89.147 139.143 89.1031C139.552 87.6424 139.557 85.5077 139.554 85.1222L128.806 82.0036C128.801 82.1633 128.769 82.478 128.613 82.9109C128.598 82.9536 128.551 82.9758 128.507 82.9606C128.464 82.9454 128.442 82.8986 128.457 82.8553C128.669 82.2645 128.638 81.9047 128.638 81.9006L128.627 81.7801L128.744 81.814L139.719 84.9982L139.72 85.059C139.72 85.0836 139.759 87.5207 139.303 89.1476C139.293 89.1838 139.259 89.2078 139.223 89.2078" fill="black"/>
<path d="M137.554 91.2899C137.547 91.2899 137.541 91.2893 137.535 91.2881C137.49 91.2776 137.462 91.2331 137.473 91.1886C137.483 91.1454 138.496 86.7994 138.415 84.7332C138.413 84.6881 138.449 84.6495 138.495 84.6478C138.541 84.6454 138.58 84.6817 138.582 84.7273C138.663 86.8152 137.645 91.1822 137.635 91.2261C137.626 91.2641 137.592 91.2899 137.554 91.2899" fill="black"/>
<path d="M106.854 69.2833C106.238 69.2833 105.812 68.9902 105.789 68.9744C105.751 68.9481 105.743 68.8966 105.769 68.8592C105.796 68.8223 105.848 68.8136 105.885 68.8399C105.891 68.844 106.548 69.2921 107.377 69.04C108.26 68.7715 109.011 67.8436 109.609 66.2823C109.626 66.2396 109.674 66.2185 109.717 66.2343C109.76 66.2507 109.782 66.2981 109.765 66.3408C109.147 67.9542 108.359 68.9159 107.423 69.1985C107.221 69.2593 107.03 69.2833 106.854 69.2833" fill="black"/>
<path d="M105.341 50.9202C105.328 50.9202 105.316 50.9172 105.303 50.9108C105.262 50.8903 105.246 50.8406 105.267 50.7997L105.703 49.9596C105.724 49.9186 105.774 49.9029 105.815 49.9239C105.856 49.9444 105.872 49.9941 105.851 50.0351L105.415 50.8751C105.401 50.9038 105.371 50.9202 105.341 50.9202Z" fill="black"/>
<path d="M104.913 51.1471C104.902 51.1471 104.89 51.1448 104.879 51.1401C104.837 51.1208 104.818 51.0716 104.838 51.0301L105.252 50.138C105.271 50.097 105.321 50.0789 105.363 50.0976C105.404 50.1169 105.422 50.1661 105.403 50.207L104.989 51.0991C104.975 51.1295 104.945 51.1471 104.913 51.1471" fill="black"/>
<path d="M123.512 65.2784C123.509 65.2784 123.507 65.2784 123.505 65.2784C123.459 65.2743 123.425 65.2339 123.429 65.1883L123.518 64.2102C123.522 64.1651 123.564 64.1318 123.609 64.1359C123.655 64.14 123.688 64.1798 123.684 64.2254L123.595 65.2035C123.591 65.2462 123.555 65.2784 123.512 65.2784" fill="black"/>
<path d="M109.718 41.4578L109.918 44.7437C109.918 44.7437 109.941 45.857 110.917 45.9377L110.854 46.9843C110.795 47.9554 111.599 48.765 112.58 48.717C112.591 48.7164 112.602 48.7159 112.613 48.7153C113.719 48.6486 114.267 47.7799 114.334 47.3575C114.4 46.9357 114.002 44.9625 114.002 44.9625L113.975 43.9826L113.617 40.2018L109.718 41.4578" fill="#FE9F73"/>
<path d="M112.488 42.9402C112.499 42.9396 112.51 42.9343 112.519 42.9256C112.536 42.9063 112.535 42.877 112.516 42.86C112.509 42.8536 111.836 42.2405 111.286 42.7442C111.267 42.7612 111.265 42.7904 111.283 42.8097C111.3 42.8285 111.329 42.8296 111.348 42.8127C111.835 42.3669 112.428 42.9045 112.454 42.9279C112.463 42.9367 112.476 42.9408 112.488 42.9402" fill="#49263E"/>
<path d="M110.571 42.777C110.584 42.7758 110.596 42.77 110.605 42.7588C110.62 42.7384 110.616 42.7091 110.596 42.6939C110.577 42.6787 110.114 42.3277 109.851 42.5833C109.832 42.6015 109.832 42.6307 109.85 42.6489C109.868 42.6676 109.897 42.6682 109.915 42.65C110.122 42.4494 110.536 42.7641 110.54 42.767C110.55 42.774 110.56 42.7776 110.571 42.777" fill="#49263E"/>
<path d="M111.568 43.1829C111.572 43.2595 111.638 43.318 111.714 43.3139C111.79 43.3093 111.849 43.2432 111.844 43.1665C111.839 43.0899 111.774 43.0314 111.697 43.0361C111.621 43.0408 111.563 43.1063 111.568 43.1829" fill="black"/>
<path d="M110.09 43.1326C110.095 43.2093 110.161 43.2678 110.237 43.2631C110.313 43.2584 110.372 43.1929 110.367 43.1163C110.362 43.0396 110.296 42.9811 110.22 42.9858C110.144 42.9899 110.085 43.056 110.09 43.1326Z" fill="black"/>
<path d="M111.137 44.1488C111.146 44.1482 111.155 44.1418 111.158 44.1318C111.161 44.1196 111.154 44.1067 111.141 44.1032L110.67 43.978L110.749 42.8776C110.75 42.8647 110.74 42.8536 110.728 42.8524C110.715 42.8513 110.704 42.8612 110.703 42.8741L110.621 44.0131L111.129 44.1482C111.132 44.1488 111.135 44.1488 111.137 44.1488" fill="#F07162"/>
<path d="M111.564 44.5518C111.548 44.5501 110.581 44.6109 110.581 44.6109C110.581 44.6109 110.737 45.0011 111.096 44.9795C111.456 44.9578 111.564 44.5518 111.564 44.5518Z" fill="#FBFDFC"/>
<path d="M113.5 40.3919L112.796 41.535C112.796 41.535 110.047 42.0135 108.783 41.0056C107.519 39.9982 108.345 39.061 109.015 39.0926C109.685 39.1248 110.24 39.4547 110.633 38.9914C111.025 38.5281 111.565 38.4438 112.232 38.7755C112.901 39.1066 113.701 39.7022 113.631 39.9608C113.561 40.2193 113.5 40.3919 113.5 40.3919" fill="#49263E"/>
<path d="M113.425 39.9321C113.425 39.9321 114.486 39.8162 114.846 40.8271C115.206 41.8374 114.839 42.4002 114.848 42.7073C114.856 43.0144 115.19 45.069 113.736 45.0017L113.137 41.611L113.556 40.2216L113.425 39.9321Z" fill="#49263E"/>
<path d="M112.707 43.0665C112.734 43.5263 113.129 43.8768 113.587 43.8493C114.045 43.8218 114.393 43.4263 114.365 42.9665C114.337 42.5067 113.943 42.1557 113.485 42.1838C113.027 42.2113 112.678 42.6061 112.707 43.0665Z" fill="#FE9F73"/>
<path d="M113.628 43.5234C113.8 43.5129 113.908 43.376 113.937 43.2438C113.973 43.087 113.913 42.9408 113.783 42.8711C113.593 42.7676 113.431 42.8507 113.349 42.9121C113.379 42.8156 113.431 42.7436 113.503 42.6974C113.662 42.5974 113.868 42.6506 113.87 42.6512C113.882 42.6547 113.895 42.6471 113.898 42.6348C113.902 42.6225 113.894 42.6096 113.882 42.6067C113.873 42.6038 113.655 42.547 113.479 42.6576C113.378 42.722 113.313 42.8284 113.286 42.9741L113.271 43.056L113.326 42.9934C113.334 42.9846 113.519 42.7805 113.761 42.9115C113.895 42.984 113.916 43.1303 113.893 43.2332C113.868 43.3403 113.784 43.4673 113.626 43.4766C113.626 43.4766 113.623 43.4772 113.621 43.4772C113.608 43.4778 113.599 43.4889 113.599 43.5012C113.6 43.514 113.61 43.524 113.623 43.5234C113.625 43.5234 113.627 43.5234 113.628 43.5234" fill="#F07162"/>
<path d="M113.102 44.859C113.102 44.859 113.174 46.3495 110.873 46.666L110.917 45.9377C110.917 45.9377 112.434 46.15 113.102 44.859" fill="#F07162"/>
<path d="M113.843 48.9996C113.813 48.9949 113.786 48.9744 113.776 48.9434C113.761 48.9001 113.785 48.8533 113.829 48.8393C115.395 48.3356 114.998 46.1185 114.993 46.0962C114.985 46.0518 115.015 46.0085 115.06 46.0003C115.105 45.9915 115.149 46.0213 115.157 46.0658C115.161 46.0898 115.586 48.4479 113.88 48.9961C113.868 49.0002 113.855 49.0013 113.843 48.9996" fill="black"/>
<path d="M108.55 99.4851H104.459L102.8 97.6482L99.7663 99.4851H99.1128C98.8873 99.4851 98.6813 99.6395 98.6388 99.8648C98.5815 100.167 98.8082 100.432 99.0951 100.432H108.609C108.679 100.432 108.736 100.374 108.736 100.303V99.6729C108.736 99.5694 108.652 99.4851 108.55 99.4851" fill="black"/>
<path d="M108.514 99.4904V97.7827C108.514 97.7827 107.826 96.8403 106.777 97.3212C106.777 97.3212 105.189 98.466 103.791 97.0807L100.317 98.6474C100.317 98.6474 99.3644 98.9709 99.1064 99.4904H108.514Z" fill="#223749"/>
<path d="M108.549 99.4816H108.479V97.7827H108.549V99.4816Z" fill="black"/>
<path d="M105.354 97.8015C105.221 97.8015 105.141 97.7898 105.139 97.7898L105.149 97.7196C105.157 97.7207 105.977 97.8377 106.757 97.2919L106.796 97.3504C106.238 97.7412 105.658 97.8015 105.354 97.8015Z" fill="black"/>
<path d="M107.67 99.1715L107.631 99.1124L108.075 98.8082L108.113 98.8673L107.67 99.1715" fill="black"/>
<path d="M107.351 99.0855L107.312 99.0264L107.756 98.7228L107.795 98.7813L107.351 99.0855Z" fill="black"/>
<path d="M98.7722 100.35C98.6601 100.253 98.5957 100.111 98.5957 99.9613C98.5957 99.6811 98.82 99.4529 99.0957 99.4529H108.502C108.651 99.4529 108.771 99.5752 108.771 99.7255V100.198H108.701V99.7255C108.701 99.6144 108.612 99.5237 108.502 99.5237H99.0957C98.8584 99.5237 98.6654 99.7203 98.6654 99.9613C98.6654 100.091 98.7209 100.212 98.8171 100.295L98.7722 100.35Z" fill="black"/>
<path d="M99.1276 99.5032L99.0645 99.4734C99.0721 99.4564 99.2628 99.0592 99.9741 98.7509C100.672 98.4485 103.746 97.0626 103.777 97.0486L103.805 97.1135C103.774 97.127 100.7 98.5134 100.001 98.8164C99.3171 99.113 99.1294 99.4997 99.1276 99.5032" fill="black"/>
<path d="M144.624 94.6659C145.304 94.7583 145.779 95.379 145.686 96.0529C145.593 96.7268 144.967 97.1978 144.287 97.1059C143.607 97.0135 143.131 96.3922 143.225 95.7189C143.317 95.045 143.944 94.5735 144.624 94.6659Z" fill="black"/>
<path d="M144.518 95.4281C144.773 95.4632 144.952 95.696 144.917 95.9488C144.882 96.2009 144.647 96.3781 144.392 96.343C144.137 96.3085 143.959 96.0757 143.994 95.823C144.028 95.5703 144.263 95.3936 144.518 95.4281Z" fill="#223749"/>
<path d="M144.988 92.034C145.667 92.1258 146.143 92.7471 146.049 93.421C145.957 94.0943 145.33 94.5658 144.65 94.4734C143.97 94.381 143.495 93.7603 143.588 93.0864C143.681 92.413 144.307 91.9415 144.988 92.034Z" fill="black"/>
<path d="M144.882 92.7962C145.137 92.8307 145.315 93.0636 145.28 93.3163C145.245 93.569 145.01 93.7457 144.755 93.7111C144.5 93.6766 144.322 93.4438 144.357 93.1911C144.392 92.9384 144.627 92.7617 144.882 92.7962Z" fill="#223749"/>
<path d="M145.364 89.3108C146.044 89.4032 146.52 90.0239 146.427 90.6978C146.334 91.3711 145.707 91.8426 145.027 91.7502C144.347 91.6584 143.872 91.0371 143.965 90.3632C144.058 89.6898 144.685 89.2183 145.364 89.3108Z" fill="black"/>
<path d="M145.259 90.073C145.514 90.1075 145.692 90.3403 145.657 90.5931C145.622 90.8458 145.387 91.0225 145.132 90.9879C144.877 90.9534 144.699 90.7206 144.734 90.4679C144.769 90.2152 145.004 90.0385 145.259 90.073Z" fill="#223749"/>
<path d="M145.733 86.6373C146.414 86.7298 146.889 87.3504 146.796 88.0244C146.703 88.6983 146.076 89.1698 145.396 89.0774C144.716 88.9849 144.241 88.3642 144.334 87.6903C144.427 87.0164 145.054 86.5455 145.733 86.6373Z" fill="black"/>
<path d="M145.628 87.4002C145.883 87.4347 146.061 87.6675 146.026 87.9202C145.991 88.1724 145.756 88.3496 145.501 88.3145C145.247 88.28 145.068 88.0472 145.103 87.7945C145.138 87.5423 145.373 87.3651 145.628 87.4002Z" fill="#223749"/>
<path d="M144.517 95.8195C144.492 96.0061 144.318 96.1366 144.129 96.1114L142.87 95.9406L143.009 94.9338L144.306 95.4574C144.452 95.5165 144.538 95.665 144.517 95.8195" fill="#223749"/>
<path d="M144.879 93.1928C144.853 93.3794 144.68 93.5105 144.492 93.4847L143.232 93.3139L143.372 92.3071L144.669 92.8307C144.814 92.8898 144.901 93.039 144.879 93.1928Z" fill="#223749"/>
<path d="M145.257 90.4668C145.231 90.6534 145.058 90.7838 144.87 90.7587L143.61 90.5873L143.749 89.5805L145.046 90.1046C145.191 90.1631 145.279 90.3123 145.257 90.4668" fill="#223749"/>
<path d="M145.626 87.7927C145.601 87.9793 145.427 88.1103 145.239 88.0846L143.979 87.9138L144.118 86.907L145.415 87.4306C145.561 87.4897 145.648 87.6388 145.626 87.7927" fill="#223749"/>
<path d="M143.312 86.5537L142.757 90.5709L140.695 91.9503L142.12 95.1783L142.031 95.8201C142.001 96.0412 142.127 96.2647 142.346 96.3372C142.642 96.4343 142.937 96.2477 142.976 95.9657L144.267 86.625C144.276 86.5566 144.226 86.4928 144.155 86.4835L143.525 86.398C143.421 86.384 143.326 86.4536 143.312 86.5537" fill="black"/>
<path d="M143.313 86.5899L141.606 86.3583C141.606 86.3583 140.57 86.907 140.909 88.0027C140.909 88.0027 141.837 89.7156 140.263 90.9014L141.357 94.5243C141.357 94.5243 141.552 95.5036 142.036 95.8271L143.313 86.5899Z" fill="#223749"/>
<path d="M143.309 86.5548L143.3 86.6233L141.602 86.3928L141.611 86.3244L143.309 86.5548Z" fill="black"/>
<path d="M141.196 89.4641C141.177 89.5945 141.156 89.6717 141.154 89.6741L141.086 89.6542C141.088 89.6466 141.316 88.8574 140.877 88.0179L140.941 87.9869C141.255 88.5883 141.237 89.1657 141.196 89.4641Z" fill="black"/>
<path d="M142.879 87.3767L142.815 87.4072L142.571 86.9304L142.635 86.9L142.879 87.3767Z" fill="black"/>
<path d="M142.75 87.6775L142.686 87.7079L142.442 87.2311L142.506 87.2007L142.75 87.6775Z" fill="black"/>
<path d="M142.849 96.2723C142.737 96.3694 142.587 96.4133 142.437 96.3934C142.157 96.3554 141.959 96.1038 141.997 95.8329L143.273 86.597C143.293 86.4519 143.432 86.3507 143.582 86.3706L144.054 86.4349L144.045 86.5034L143.573 86.439C143.461 86.4244 143.359 86.4993 143.344 86.6069L142.068 95.8423C142.035 96.0757 142.205 96.2922 142.447 96.3249C142.576 96.3425 142.705 96.3045 142.801 96.2208L142.849 96.2723" fill="black"/>
<path d="M142.052 95.8089L142.013 95.8663C141.997 95.8563 141.626 95.6153 141.414 94.8759C141.207 94.1487 140.239 90.9429 140.229 90.9107L140.297 90.8914C140.307 90.9242 141.275 94.13 141.484 94.8577C141.687 95.5697 142.048 95.8066 142.052 95.8089" fill="black"/>
<path d="M128.885 53.2783C128.885 53.2783 130.05 55.9044 130.134 57.0106C130.196 57.8431 126.978 62.4774 125.395 64.68C124.876 65.4024 124.549 65.8002 124.549 65.8002L124.153 65.5101L122.265 64.1265L125.744 57.1814L124.083 53.2742L128.885 53.2783Z" fill="#FE9F73"/>
<path d="M125.655 57.2551C125.625 57.2335 125.605 57.1978 125.608 57.158C125.611 57.096 125.664 57.0492 125.727 57.0527L127.511 57.1516C127.573 57.1551 127.621 57.2078 127.617 57.2698C127.614 57.3312 127.56 57.3786 127.498 57.3751L125.714 57.2756C125.692 57.2744 125.672 57.2668 125.655 57.2551Z" fill="#F07162"/>
<path d="M123.631 52.5371L125.208 56.215L127.221 55.4328L128.881 54.5682L129.417 54.1979L128.774 53.0928L126.36 52.0246L123.631 52.5371" fill="#FFB357"/>
<path d="M123.885 56.6081L119.112 51.7029C119.08 51.6701 119.081 51.618 119.114 51.5865C119.147 51.5549 119.2 51.5554 119.232 51.5888L123.946 56.4326C124.271 56.3805 126.498 55.9681 129.607 54.0832C129.646 54.0598 129.698 54.0721 129.722 54.1107C129.746 54.1493 129.734 54.2002 129.694 54.2242C126.309 56.2764 123.95 56.5999 123.927 56.6028L123.885 56.6081" fill="black"/>
<path d="M122.77 63.1191C122.405 63.452 121.564 64.0019 121.564 64.0019C121.564 64.0019 119.976 65.2374 119.882 65.3509C119.789 65.4644 119.492 66.2553 119.519 66.6174C119.547 66.9801 119.881 67.0258 119.881 67.0258C119.826 67.7933 120.401 67.6049 120.401 67.6049C120.486 68.0794 121.01 67.9132 121.01 67.9132C121.155 68.3642 121.668 68.1484 121.668 68.1484C122.307 67.6968 123.214 67.0878 123.764 66.5952C124.296 66.1202 124.602 65.8019 125.395 64.6799L122.77 63.1191" fill="#FE9F73"/>
<path d="M120.886 65.4129C120.885 65.4246 120.879 65.4351 120.869 65.4427C120.866 65.4463 120.479 65.761 120.377 65.9166C120.294 66.0418 120.046 66.7069 119.926 67.041C119.917 67.0655 119.89 67.0784 119.865 67.0696C119.84 67.0609 119.828 67.0339 119.837 67.01C119.851 66.9702 120.187 66.0313 120.297 65.8651C120.408 65.6978 120.793 65.3837 120.809 65.3702C120.83 65.3538 120.859 65.3567 120.876 65.3766C120.885 65.3872 120.888 65.4006 120.886 65.4129" fill="#F07162"/>
<path d="M121.446 66.1453C121.445 66.157 121.438 66.1682 121.428 66.1763C121.425 66.1787 121.114 66.4215 120.969 66.6098C120.824 66.7982 120.448 67.616 120.444 67.6242C120.433 67.6482 120.405 67.6581 120.381 67.6476C120.357 67.6371 120.347 67.609 120.358 67.5856C120.373 67.5517 120.742 66.7496 120.893 66.5525C121.045 66.3554 121.357 66.1126 121.37 66.102C121.39 66.0863 121.421 66.0898 121.437 66.1102C121.445 66.1208 121.448 66.1336 121.446 66.1453" fill="#F07162"/>
<path d="M121.906 66.649C121.904 66.6613 121.898 66.6724 121.886 66.6806C121.884 66.6818 121.669 66.8368 121.516 67.0228C121.362 67.2095 121.057 67.9243 121.054 67.9314C121.044 67.9553 121.016 67.9665 120.992 67.9565C120.968 67.9466 120.957 67.9185 120.967 67.8951C120.98 67.8647 121.28 67.1603 121.442 66.9638C121.604 66.7672 121.821 66.611 121.831 66.604C121.852 66.5894 121.882 66.594 121.897 66.6151C121.905 66.625 121.907 66.6373 121.906 66.649" fill="#F07162"/>
<path d="M55.6299 50.8107C55.6299 50.8107 56.9235 55.8131 57.7169 56.8942C58.5103 57.9747 69.6132 60.7306 69.6132 60.7306L70.5453 57.354L61.8847 53.6603L60.3369 48.7866L55.6299 50.8107" fill="#FE9F73"/>
<path d="M73.4705 61.9065C73.5656 61.7544 73.516 61.5543 73.3696 61.4502L72.4552 60.8037C72.4262 60.7838 72.4138 60.7476 72.4239 60.7142C72.4386 60.6651 72.4953 60.6411 72.5414 60.6651L74.0071 61.4344C74.1754 61.5221 74.3572 61.4466 74.4115 61.2665C74.4658 61.0857 74.3731 60.8663 74.2055 60.778L72.7102 59.9941C72.6754 59.976 72.6588 59.9362 72.67 59.8987L72.6777 59.8724C72.6907 59.8291 72.7368 59.8046 72.7804 59.8174L74.578 60.3498C74.7509 60.4013 74.941 60.3164 75.0036 60.1485C75.0721 59.9648 74.9694 59.7648 74.7828 59.7098L72.9747 59.1739C72.931 59.1611 72.9062 59.1154 72.9192 59.0721L72.9445 58.9885C72.9564 58.9493 72.9953 58.9247 73.036 58.9317L74.7675 59.2084C74.9457 59.2371 75.1234 59.1289 75.1636 58.9545C75.2073 58.7633 75.0792 58.5778 74.8873 58.5474C74.8873 58.5474 72.2698 57.984 71.8684 57.8635L72.6281 57.251C72.7928 57.1627 72.8542 56.9591 72.7657 56.7959C72.6765 56.6327 72.4711 56.5718 72.3064 56.6602L70.2786 57.4587C70.1712 57.516 70.101 57.7483 70.0892 57.9478C69.3719 59.7981 69.2769 60.0889 69.1299 60.6054L71.1972 61.143C71.794 61.2981 72.3572 61.5596 72.859 61.9146L72.9853 62.0036C73.1435 62.1159 73.366 62.0732 73.4705 61.9065" fill="#FE9F73"/>
<path d="M55.1868 35.609C56.0484 36.9393 55.7261 41.7795 55.7261 41.7795L55.2497 41.7649C55.2307 41.6058 55.1377 41.1477 55.1377 41.1477L54.9748 41.7567L53.1226 41.6994L52.3291 34.3144C52.3291 34.3144 54.3252 34.2787 55.1868 35.609Z" fill="#49263E"/>
<path d="M54.2718 36.4157C54.2718 36.4157 55.6128 40.0035 53.6585 40.6909L53.8454 43.2713L51.0228 42.8624L50.376 34.5601C50.376 34.5601 51.2075 34.5981 51.2128 34.6648C51.218 34.7321 54.2718 36.4157 54.2718 36.4157" fill="#FE9F73"/>
<path d="M53.5529 38.9423C53.5412 38.9429 53.5301 38.9359 53.5266 38.9242C53.5226 38.9107 53.5302 38.8967 53.5438 38.8926C53.7046 38.8458 53.7922 38.6381 53.8168 38.5708C53.5749 38.4655 53.4207 38.3163 53.3583 38.1274C53.2567 37.8191 53.4354 37.5202 53.443 37.5073C53.4503 37.4956 53.466 37.4915 53.4781 37.4991C53.4901 37.5061 53.4939 37.5213 53.4867 37.5336C53.485 37.5365 53.3124 37.8261 53.4069 38.1122C53.4664 38.2918 53.6183 38.4339 53.8583 38.5334L53.8795 38.5422L53.8729 38.5638C53.8691 38.5767 53.7762 38.8774 53.5582 38.9411C53.5565 38.9417 53.5547 38.9423 53.5529 38.9423" fill="#F07162"/>
<path d="M53.7196 41.4783L53.6583 40.6909C53.6583 40.6909 52.3086 40.7154 51.4443 40.2638C51.4443 40.2638 52.6461 41.2443 53.7196 41.4783Z" fill="#F07162"/>
<path d="M52.8264 37.8986C52.8325 37.9764 52.774 38.0437 52.6958 38.0496C52.6177 38.056 52.5494 37.9981 52.5434 37.9203C52.5374 37.8431 52.5958 37.7752 52.674 37.7693C52.7521 37.7635 52.8204 37.8214 52.8264 37.8986Z" fill="black"/>
<path d="M54.2619 37.8348C54.268 37.9127 54.2095 37.9799 54.1314 37.9858C54.0533 37.9922 53.985 37.9343 53.9789 37.8565C53.9729 37.7793 54.0314 37.7114 54.1095 37.7056C54.1877 37.6997 54.2559 37.7576 54.2619 37.8348Z" fill="black"/>
<path d="M52.4453 38.9604C52.4611 38.9633 53.4006 39.2833 53.4006 39.2833C53.4006 39.2833 53.1409 39.6226 52.7914 39.5044C52.4419 39.3863 52.4453 38.9604 52.4453 38.9604Z" fill="#FBFDFC"/>
<path d="M53.2251 35.1298C53.2251 35.1298 52.9859 36.8673 51.414 37.6599C49.842 38.4532 50.949 40.5381 50.949 40.5381L49.2201 38.3619C49.2201 38.3619 49.0305 35.2726 50.3759 34.56C51.3546 34.0423 53.3135 34.1453 53.2251 35.1298" fill="#49263E"/>
<path d="M52.2069 37.4394C52.2219 37.4447 52.2394 37.4429 52.2536 37.433C52.257 37.4306 52.6052 37.192 52.9766 37.2897C53.0036 37.2967 53.0313 37.2809 53.0385 37.254C53.0455 37.2271 53.0295 37.1996 53.0024 37.1925C52.5846 37.0832 52.2109 37.3406 52.1952 37.3511C52.1724 37.3675 52.167 37.3985 52.1831 37.4213C52.1892 37.4301 52.1976 37.4359 52.2069 37.4394Z" fill="#49263E"/>
<path d="M54.3902 37.4669C54.4063 37.4675 54.4224 37.461 54.433 37.447C54.45 37.4254 54.4459 37.3938 54.4237 37.3768C54.4085 37.3651 54.0456 37.0931 53.6237 37.1861C53.5963 37.1919 53.5792 37.2188 53.5852 37.2458C53.5912 37.2727 53.6184 37.2896 53.6455 37.2838C54.022 37.2013 54.3587 37.4534 54.3621 37.4564C54.3705 37.4628 54.3803 37.4663 54.3902 37.4669" fill="#49263E"/>
<path d="M53.1589 35.7979L52.4229 35.2076L52.9912 35.9155L53.1589 35.7979Z" fill="#FE9F73"/>
<path d="M51.5077 37.2768C51.4748 37.2861 51.4397 37.2686 51.4277 37.2364C51.4154 37.2025 51.4332 37.1651 51.4674 37.1522C52.372 36.8275 52.6083 35.933 52.6105 35.9237C52.6195 35.8886 52.6556 35.8675 52.6906 35.8763C52.726 35.8851 52.7475 35.9208 52.7386 35.9559C52.7285 35.9951 52.4824 36.927 51.5124 37.2756C51.5109 37.2762 51.5093 37.2768 51.5077 37.2768" fill="#21111D"/>
<path d="M48.6477 36.6175C48.9019 34.8461 50.8229 34.384 50.8229 34.384L51.0018 37.7992C51.0018 37.7992 50.7455 39.3108 51.0818 41.5093L51.1601 41.9229C51.1601 41.9229 50.4555 41.9322 49.642 41.8316C49.5604 41.5099 49.4246 40.9875 49.4246 40.9875L49.2688 41.7784C49.0882 41.7485 48.9068 41.7128 48.7305 41.6701C48.7305 41.6701 48.4409 38.0572 48.6477 36.6175" fill="#49263E"/>
<path d="M51.2982 38.3877C51.332 38.8218 51.0042 39.2014 50.566 39.2348C50.1279 39.2681 49.7452 38.9434 49.7114 38.5094C49.6776 38.0747 50.0054 37.6956 50.4435 37.6623C50.8817 37.6289 51.2643 37.9536 51.2982 38.3877Z" fill="#FE9F73"/>
<path d="M50.4843 38.9382C50.3178 38.951 50.1969 38.8352 50.1506 38.7141C50.0959 38.5708 50.1345 38.4245 50.249 38.3415C50.4119 38.2233 50.5724 38.273 50.6611 38.3192C50.6205 38.2379 50.5637 38.1806 50.4917 38.1484C50.3297 38.0759 50.1427 38.1525 50.1408 38.1531C50.1278 38.1584 50.113 38.1525 50.1075 38.1396C50.102 38.1268 50.1081 38.1122 50.1211 38.1063C50.1296 38.1028 50.3306 38.0209 50.5127 38.1022C50.618 38.1496 50.6942 38.2414 50.7393 38.3754L50.7682 38.4614L50.6986 38.4029C50.6901 38.3953 50.4891 38.2297 50.2791 38.3824C50.1631 38.4667 50.163 38.6041 50.1983 38.6966C50.2352 38.7931 50.3321 38.9007 50.4844 38.8873C50.4981 38.8861 50.5108 38.896 50.5121 38.9101C50.5133 38.9241 50.503 38.9364 50.489 38.9376C50.4874 38.9376 50.4859 38.9382 50.4843 38.9382" fill="#F07162"/>
<path d="M52.2148 71.263L52.9523 102.276L56.9978 100.547L60.9166 70.1246L52.2148 71.263" fill="#FE9F73"/>
<path d="M52.7933 71.2629L45.0739 100.836L40.9746 101.149L44.3589 70.1245L52.7933 71.2629Z" fill="#FE9F73"/>
<path d="M43.5552 63.9955C44.3395 61.7754 46.1547 58.1437 46.1547 58.1437L47.5631 55.4872C51.831 55.9886 58.7417 55.6194 58.7417 55.6194L59.1576 56.36L60.0868 58.3795L60.6358 59.8203L61.3088 61.9795L61.6494 63.4222L62.0195 65.1836L62.3265 66.6982L62.5408 67.977L62.7061 69.4009C62.7061 69.4009 62.8537 70.2573 62.8537 70.2813C62.8537 70.3053 62.9646 71.6572 62.9646 71.6572L63.0319 72.8459L63.1447 74.7179L63.0856 76.1851L63.1447 77.4107L62.8365 79.3324C52.81 83.6193 39.792 78.4046 39.792 78.4046L40.5033 74.7489C40.7082 73.1683 42.7709 66.2155 43.5552 63.9955Z" fill="#F99746"/>
<path d="M45.8833 52.7389C42.7281 51.7619 40.498 49.6858 40.498 49.6858L41.0062 48.9756L42.4772 47.0047L44.0191 45.1006L45.412 43.6568L47.0111 42.891L47.7752 42.7494C47.8142 42.7348 47.8538 42.7243 47.8947 42.719C47.9339 42.7143 47.9737 42.7097 48.0138 42.705L48.9832 42.5248L49.1062 42.6038C50.1736 42.5254 51.2218 42.4967 51.5577 42.4885C52.0903 42.4359 54.7615 42.5652 54.7615 42.5652L55.1582 42.526C55.6052 42.578 58.347 42.8284 58.8713 43.3573C59.0123 43.4994 59.7462 44.9069 60.5066 47.8226L60.8566 49.4436L60.4989 49.6975L60.0361 50.0965L59.2415 50.3866L59.0514 50.6545L58.7417 55.3398V55.6194C58.7417 55.6194 51.8311 55.9886 47.5631 55.4872L46.2359 51.9714L45.8833 52.7389" fill="#F99746"/>
<path d="M46.3758 44.4354C46.3906 44.4354 46.4052 44.429 46.4148 44.4161C46.885 43.7949 47.6534 43.5427 47.6612 43.5398C47.6867 43.5316 47.7007 43.5047 47.6924 43.4789C47.6841 43.4538 47.6566 43.4398 47.6311 43.4485C47.5985 43.4585 46.8262 43.7118 46.3369 44.3582C46.3208 44.3798 46.3251 44.4103 46.3466 44.4261C46.3554 44.4325 46.3656 44.4354 46.3758 44.4354" fill="#21111D"/>
<path d="M46.4676 44.8824C46.4824 44.8824 46.497 44.876 46.5065 44.8631C46.9768 44.2418 47.7451 43.9891 47.7529 43.9867C47.7785 43.9786 47.7925 43.9511 47.7842 43.9259C47.7758 43.9008 47.7484 43.8867 47.7229 43.8949C47.6902 43.9054 46.9179 44.1587 46.4287 44.8052C46.4125 44.8262 46.4169 44.8566 46.4384 44.8724C46.4471 44.8795 46.4574 44.8824 46.4676 44.8824" fill="#21111D"/>
<path d="M40.4787 74.9595C40.473 74.9595 40.4672 74.9589 40.4615 74.9578C40.4139 74.9484 40.3829 74.9028 40.3924 74.8554C42.718 63.2081 47.1034 56.0541 47.4657 55.4779L46.2209 52.1802L46.018 52.8881L45.8548 52.8536C42.3248 51.745 40.4339 49.7934 40.4153 49.7741L40.3652 49.7226L40.4064 49.6641C40.5547 49.4524 44.0558 44.4711 45.5685 43.4503C47.0898 42.4242 49.5617 42.3996 49.6662 42.399C49.6663 42.399 49.6665 42.399 49.6666 42.399C49.7149 42.399 49.7543 42.4376 49.7546 42.4856C49.7548 42.5336 49.7156 42.5728 49.6671 42.5733C49.642 42.5733 47.1439 42.5985 45.6673 43.5948C44.269 44.5378 41.0034 49.123 40.5932 49.7033C40.9123 50.0087 42.7998 51.6777 45.9194 52.674L46.2321 51.7128L47.661 55.4978L47.6372 55.5346C47.5908 55.606 42.9727 62.8301 40.5648 74.8893C40.5566 74.9309 40.5198 74.9595 40.4787 74.9595" fill="black"/>
<path d="M45.8838 52.8261C45.8734 52.8261 45.8629 52.8244 45.8527 52.8203C45.8073 52.8033 45.7844 52.753 45.8016 52.7079L47.2769 48.8434C47.294 48.7984 47.3444 48.7756 47.3903 48.7925C47.4356 48.8095 47.4585 48.8598 47.4413 48.9049L45.966 52.77C45.9527 52.8051 45.9193 52.8261 45.8838 52.8261Z" fill="black"/>
<path d="M48.8221 55.7066C48.819 55.7066 48.8159 55.7066 48.8127 55.7066L47.5542 55.5738C47.5059 55.5691 47.471 55.5258 47.4761 55.4785C47.4812 55.4305 47.5244 55.3966 47.5728 55.4007L48.8312 55.5329C48.8795 55.5381 48.9145 55.5808 48.9094 55.6288C48.9046 55.6738 48.8665 55.7066 48.8221 55.7066" fill="black"/>
<path d="M62.9699 79.3511C62.9681 79.3511 62.9658 79.3511 62.964 79.3511C62.9156 79.3482 62.879 79.3067 62.8819 79.2587C63.3837 71.2553 62.2113 65.2667 61.1393 61.6525C59.9776 57.7366 58.681 55.6867 58.668 55.6662L58.6523 55.6423L59.0316 50.5569L59.0443 50.5375C60.6635 48.0981 58.7897 46.1764 58.7092 46.0962C58.675 46.0617 58.6752 46.0067 58.7097 45.9728C58.7443 45.9389 58.7999 45.9394 58.834 45.9734C58.8547 45.9939 60.8796 48.0642 59.2036 50.6148L58.832 55.5978C58.9834 55.8435 60.206 57.8904 61.3052 61.5946C62.3825 65.224 63.5608 71.236 63.0573 79.2698C63.0543 79.316 63.0159 79.3511 62.9699 79.3511" fill="black"/>
<path d="M57.6426 50.6113H52.793C52.7445 50.6113 52.7051 50.5721 52.7051 50.5241C52.7051 50.4761 52.7445 50.4369 52.793 50.4369H57.6426C57.6911 50.4369 57.7305 50.4761 57.7305 50.5241C57.7305 50.5721 57.6911 50.6113 57.6426 50.6113Z" fill="black"/>
<path d="M56.9412 51.4507H53.7276C53.6791 51.4507 53.6396 51.4121 53.6396 51.3636C53.6396 51.3156 53.6791 51.2764 53.7276 51.2764H56.9412C56.9897 51.2764 57.0291 51.3156 57.0291 51.3636C57.0291 51.4121 56.9897 51.4507 56.9412 51.4507Z" fill="black"/>
<path d="M56.393 42.6482C56.393 42.6482 54.9408 43.865 52.4687 43.8925C49.9966 43.9194 48.6543 42.6482 48.6543 42.6482C48.6543 42.6482 53.3025 42.1399 56.393 42.6482Z" fill="#FE9F73"/>
<path d="M59.2419 50.4738C59.1994 50.4738 59.1622 50.4428 59.1551 50.4001C59.148 50.3521 59.1811 50.3077 59.2289 50.3007C60.0441 50.1761 60.6321 49.5273 60.7608 49.3746C60.726 49.2383 60.6793 49.0447 60.6221 48.8054C60.2472 47.2353 59.3688 43.5585 58.4369 43.2333C57.3249 42.846 55.4592 42.6155 55.4404 42.6132C55.3922 42.6073 55.358 42.564 55.3639 42.5161C55.3699 42.4687 55.4142 42.4353 55.4619 42.4406C55.4808 42.4429 57.3655 42.6752 58.4953 43.0695C59.5176 43.4257 60.3794 47.0323 60.7933 48.7656C60.8564 49.0295 60.906 49.2377 60.942 49.3728L60.9532 49.4144L60.9273 49.4477C60.8995 49.4834 60.2454 50.3217 59.2555 50.4726C59.2507 50.4732 59.2466 50.4738 59.2419 50.4738" fill="black"/>
<path d="M45.204 102.29H41.5889L40.1233 100.707L37.4425 102.29H36.8651C36.6662 102.29 36.4838 102.422 36.4463 102.616C36.3959 102.877 36.5961 103.104 36.8499 103.104H45.2555C45.3173 103.104 45.3674 103.055 45.3674 102.994V102.451C45.3674 102.362 45.2942 102.29 45.204 102.29Z" fill="#FEC786"/>
<path d="M45.1719 102.294V100.824C45.1719 100.824 44.563 100.011 43.6361 100.426C43.6361 100.426 42.234 101.412 40.9981 100.219L37.9288 101.568C37.9288 101.568 37.0872 101.847 36.8594 102.294H45.1719Z" fill="#49263E"/>
<path d="M45.2022 102.287H45.1406L45.1407 100.824H45.2022V102.287Z" fill="black"/>
<path d="M42.379 100.839C42.2616 100.839 42.1908 100.829 42.1885 100.829L42.1976 100.769C42.2048 100.77 42.9293 100.87 43.6182 100.401L43.6531 100.451C43.1594 100.787 42.6475 100.839 42.379 100.839" fill="black"/>
<path d="M44.425 102.019L44.3906 101.968L44.7827 101.707L44.8171 101.757L44.425 102.019" fill="black"/>
<path d="M44.1437 101.945L44.1094 101.895L44.5014 101.633L44.5358 101.683L44.1437 101.945Z" fill="black"/>
<path d="M36.5634 103.034C36.4641 102.951 36.4072 102.829 36.4072 102.7C36.4072 102.458 36.6056 102.261 36.8494 102.261H45.1606C45.2913 102.261 45.3976 102.367 45.3976 102.497V102.903H45.336V102.497C45.336 102.401 45.2573 102.322 45.1606 102.322H36.8494C36.6395 102.322 36.4687 102.492 36.4687 102.7C36.4687 102.811 36.5177 102.916 36.6032 102.987L36.5634 103.034" fill="black"/>
<path d="M36.8769 102.305L36.8213 102.279C36.8281 102.264 36.9965 101.923 37.6247 101.657C38.2421 101.396 40.9575 100.203 40.9848 100.191L41.0099 100.247C40.9825 100.258 38.2666 101.452 37.6489 101.713C37.0444 101.969 36.8785 102.302 36.8769 102.305" fill="black"/>
<path d="M52.8441 102.29H56.4591L57.9247 100.707L60.6057 102.29H61.1831C61.382 102.29 61.5644 102.422 61.6016 102.616C61.6524 102.877 61.4517 103.104 61.1978 103.104H52.7925C52.7307 103.104 52.6807 103.055 52.6807 102.994V102.451C52.6807 102.362 52.7538 102.29 52.8441 102.29Z" fill="#FEC786"/>
<path d="M52.876 102.294V100.824C52.876 100.824 53.4848 100.011 54.4118 100.426C54.4118 100.426 55.8138 101.412 57.0498 100.219L60.1193 101.568C60.1193 101.568 60.9605 101.847 61.1884 102.294H52.876Z" fill="#49263E"/>
<path d="M52.8448 102.287H52.9063V100.824H52.8447L52.8448 102.287Z" fill="black"/>
<path d="M55.6675 100.839C55.7851 100.839 55.8558 100.829 55.8581 100.829L55.849 100.769C55.8419 100.77 55.1173 100.87 54.4284 100.401L54.3936 100.451C54.8872 100.787 55.3991 100.839 55.6675 100.839" fill="black"/>
<path d="M53.6225 102.019L53.6569 101.968L53.2648 101.707L53.2305 101.757L53.6225 102.019" fill="black"/>
<path d="M53.9038 101.945L53.9381 101.895L53.5461 101.633L53.5117 101.683L53.9038 101.945Z" fill="black"/>
<path d="M61.4836 103.034C61.5828 102.951 61.6395 102.829 61.6395 102.7C61.6395 102.458 61.4411 102.261 61.1973 102.261H52.8864C52.7557 102.261 52.6494 102.367 52.6494 102.497V102.903H52.7109V102.497C52.7109 102.401 52.7897 102.322 52.8864 102.322H61.1973C61.4075 102.322 61.5781 102.492 61.5781 102.7C61.5781 102.811 61.5291 102.916 61.4441 102.987L61.4836 103.034" fill="black"/>
<path d="M61.1699 102.305L61.226 102.279C61.2189 102.264 61.0507 101.923 60.4226 101.657C59.8051 101.396 57.0895 100.203 57.0621 100.191L57.0371 100.247C57.0646 100.258 59.7803 101.452 60.3984 101.713C61.0028 101.969 61.1687 102.302 61.1699 102.305" fill="black"/>
<path d="M41.336 50.5463C41.336 50.5463 40.5074 55.5153 41.6747 57.4312C42.3718 58.5749 52.6819 62.7798 52.6819 62.7798L53.9568 59.515L45.7212 54.9654L45.8546 52.8536C44.4663 52.3745 42.7835 51.5906 41.336 50.5463" fill="#FE9F73"/>
<path d="M64.2121 63.6451C61.2487 63.6451 58.8463 61.2647 58.8463 58.3274C58.8463 55.3907 61.2487 53.0098 64.2121 53.0098C67.1761 53.0098 69.5781 55.3907 69.5781 58.3274C69.5781 61.2647 67.1761 63.6451 64.2121 63.6451ZM64.2121 49.1382C59.0181 49.1382 53.9958 52.722 54.8074 60.5808C55.3378 65.7166 64.2121 74.9022 64.2121 74.9022C64.2121 74.9022 73.2204 65.8804 73.6171 60.5808C74.2565 52.0451 69.4064 49.1382 64.2121 49.1382Z" fill="#3F9896"/>
<path d="M60.4186 62.3037C60.3626 62.3037 60.3071 62.2826 60.2646 62.2405C59.2097 61.1951 58.6289 59.8057 58.6289 58.3274C58.6289 55.2761 61.1335 52.7939 64.2126 52.7939C64.3331 52.7939 64.4305 52.8905 64.4305 53.0098C64.4305 53.1291 64.3331 53.2257 64.2126 53.2257C61.3744 53.2257 59.065 55.5148 59.065 58.3274C59.065 59.6905 59.6005 60.9717 60.5727 61.9351C60.6577 62.0194 60.6577 62.1563 60.5727 62.2405C60.5302 62.2826 60.4741 62.3037 60.4186 62.3037V62.3037ZM67.427 62.8027C67.3602 62.8027 67.2947 62.7729 67.2522 62.7161C67.1802 62.6208 67.1997 62.485 67.2959 62.4137C68.6082 61.4396 69.3608 59.9502 69.3608 58.3274C69.3608 58.2081 69.4588 58.1116 69.5787 58.1116C69.6991 58.1116 69.7965 58.2081 69.7965 58.3274C69.7965 60.0877 68.9807 61.7029 67.5574 62.7594C67.5179 62.7881 67.4724 62.8027 67.427 62.8027V62.8027ZM72.78 63.7048C72.7505 63.7048 72.7204 63.6983 72.6914 63.686C72.5816 63.6375 72.5321 63.5094 72.5811 63.4006C73.0645 62.3259 73.3402 61.3718 73.4004 60.5651C73.6832 56.7912 72.9075 53.8972 71.0958 51.9644C69.0745 49.8069 66.2375 49.3541 64.2126 49.3541C64.0922 49.3541 63.9948 49.257 63.9948 49.1377C63.9948 49.0189 64.0922 48.9218 64.2126 48.9218C66.3236 48.9218 69.2871 49.3986 71.4158 51.6702C73.3131 53.6948 74.1271 56.6982 73.8349 60.5967C73.7712 61.4537 73.4831 62.4558 72.9795 63.5767C72.9429 63.6568 72.8638 63.7048 72.78 63.7048V63.7048ZM64.2121 75.21L64.0574 75.0538C64.0474 75.0432 63.035 74.0183 61.6961 72.4897C61.617 72.3996 61.627 72.2633 61.7179 72.1849C61.8089 72.1071 61.9464 72.1165 62.0255 72.2066C63.0509 73.3777 63.8821 74.25 64.2132 74.5922C64.8047 73.9856 66.9819 71.7093 69.0545 69.0049C69.1277 68.9095 69.264 68.8914 69.3597 68.9633C69.4559 69.0353 69.4742 69.171 69.4016 69.2658C66.9695 72.4406 64.3933 75.0286 64.3679 75.0544L64.2121 75.21" fill="#21111D"/>
<path d="M56.3978 64.3394C56.508 64.1979 56.4798 63.9931 56.3443 63.8749L55.5012 63.1396C55.4748 63.1168 55.4661 63.0793 55.4795 63.0472C55.4994 62.9998 55.5582 62.9822 55.6013 63.0103L56.9807 63.9235C57.1386 64.0282 57.3274 63.9715 57.4001 63.7971C57.4728 63.6234 57.403 63.3952 57.2449 63.2905L55.8384 62.3598C55.8058 62.3381 55.7931 62.2966 55.8081 62.2609L55.8187 62.2352C55.8361 62.1937 55.8843 62.1738 55.9263 62.1913L57.6597 62.9021C57.8264 62.9705 58.0241 62.9056 58.1038 62.7453C58.1911 62.5692 58.1095 62.3598 57.9297 62.2861L56.1855 61.5706C56.1435 61.5537 56.1236 61.5057 56.1409 61.4642L56.1747 61.3834C56.1905 61.3454 56.2322 61.3249 56.2721 61.3355L57.966 61.7859C58.1403 61.8327 58.3278 61.7426 58.3857 61.5736C58.4493 61.3875 58.3408 61.1904 58.1529 61.1407C58.1529 61.1407 55.6071 60.3158 55.2198 60.1549L56.0391 59.6226C56.212 59.5518 56.2941 59.3552 56.2225 59.1838C56.1508 59.0124 55.9526 58.9311 55.7797 59.0025L53.6804 59.5922C53.5677 59.6384 53.4736 59.8618 53.4413 60.0596C52.5377 61.8274 52.4132 62.1071 52.2139 62.6061L54.2152 63.3496C54.7927 63.5643 55.3259 63.8814 55.7889 64.285L55.9052 64.3868C56.0513 64.5143 56.277 64.4945 56.3978 64.3394" fill="#FE9F73"/>
</svg>
