<svg width="183" height="117" viewBox="0 0 183 117" fill="none" xmlns="http://www.w3.org/2000/svg">
<path d="M127.911 8.94681C130.584 8.10247 133.437 7.93913 136.239 8.09933C140.264 8.32923 144.447 9.31755 147.407 12.0185C149.272 13.7205 150.509 15.9692 152.008 17.9928C156.357 23.8634 163.081 28.0641 166.015 34.7346C168.523 40.4354 167.58 47.6051 163.264 52.1319C158.948 56.659 151.349 57.9445 146.006 54.6519C140.876 51.4909 138.609 45.1984 133.923 41.4264C130.573 38.73 126.247 37.527 122.608 35.2244C118.884 32.8675 115.855 29.1632 115.17 24.8515C114.602 21.2726 115.908 17.3839 118.737 15.0292C121.505 12.7264 124.416 10.0506 127.911 8.94681Z" fill="#C6ECF1"/>
<path d="M151.159 52.7633C146.532 53.4953 142.009 52.3154 137.388 51.4751C132.95 50.6681 128.529 49.1527 125.006 46.292C123.392 44.9815 121.961 43.3526 121.328 41.3876C120.424 38.5838 121.249 35.5566 121.241 32.6146C121.231 29.162 120.359 25.8347 117.929 23.2884C116.449 21.7387 114.73 20.3798 113.569 18.5849C111.151 14.8441 113.023 9.83565 116.811 7.72372C120.261 5.79982 124.651 6.56114 128.234 8.23021C131.819 9.89929 134.965 12.3863 138.563 14.0242C142.509 15.8196 146.825 16.5233 151.176 16.9275C154.504 17.2367 157.893 16.8602 160.608 18.7831C162.551 20.1586 163.924 22.2236 164.722 24.4471C166.231 28.6548 165.928 33.6013 165.231 37.9452C164.765 40.8557 163.828 43.7372 162.117 46.1526C160.017 49.1176 156.806 51.2515 153.292 52.2844C152.578 52.4942 151.867 52.6513 151.159 52.7633Z" fill="#A0DEE0"/>
<path d="M143.876 108.803H36.2824C28.1584 102.686 22.514 93.9606 20.9892 83.9924C20.355 79.847 20.7158 74.9387 24.1405 72.456C26.9617 70.4111 30.5394 70.8429 34.1683 71.2746C37.3138 71.6487 40.4977 72.0229 43.2604 70.7843C47.0932 69.0659 48.9818 64.6014 49.0216 60.4487C49.0613 56.296 47.6389 52.2878 46.5739 48.2698C45.5091 44.2521 44.807 39.9136 46.2459 36.0106C47.6847 32.1079 51.9212 28.941 55.9981 29.9773C59.4921 30.8652 61.7092 34.3568 65.057 35.6832C68.542 37.0638 72.5873 35.8078 75.6807 33.7072C78.7739 31.6064 81.2355 28.7315 84.1268 26.3674C89.2023 22.2168 95.9065 19.6737 102.426 20.6426C108.945 21.6116 114.976 26.5944 115.994 33.0195C116.827 38.2755 114.586 44.3487 117.851 48.5822C121.534 53.3557 129.235 52.0157 134.559 54.9149C138.892 57.2751 141.204 62.7446 139.854 67.4425C138.476 72.2397 133.791 76.2654 134.554 81.1944C135.101 84.7279 138.277 87.1687 140.514 89.9807C144.813 95.385 146.758 102.549 143.876 108.803Z" fill="#C6ECF1"/>
<path d="M138.824 108.803H46.6426C43.8394 106.283 40.6937 103.962 39.1015 100.566C37.5093 97.1703 37.5135 92.7584 40.1324 90.0516C43.293 86.7851 48.5758 87.2311 53.0205 86.1501C58.146 84.9038 62.8076 80.8433 63.4641 75.6763C64.3115 69.0058 58.647 62.9111 59.0002 56.1973C59.2784 50.905 63.8323 46.1492 69.173 45.5735C70.7029 45.4084 72.2568 45.5478 73.8054 45.687C75.9108 45.8764 78.0062 46.0659 80.0157 45.4902C83.2492 44.5641 85.5811 41.8583 88.3914 40.029C91.6894 37.8822 95.8996 36.9491 99.7001 38.0165C103.501 39.084 106.717 42.3263 107.229 46.1913C107.773 50.3009 105.506 54.9696 107.911 58.3687C109.702 60.9005 113.275 61.3896 116.403 61.2909C119.531 61.1919 122.867 60.7778 125.616 62.2531C128.173 63.625 129.694 66.4641 129.979 69.3209C130.264 72.178 129.456 75.0469 128.263 77.6656C127.22 79.9539 125.877 82.1181 125.094 84.5047C124.309 86.8916 124.148 89.6327 125.425 91.8022C126.769 94.086 129.377 95.272 131.503 96.8772C135.261 99.7139 138.542 104.144 138.824 108.803Z" fill="#A0DEE0"/>
<path d="M131.109 20.4367L136.434 33.7893L147.778 27.4736L131.109 20.4367Z" fill="#F9F9F9"/>
<path d="M131.109 20.4367L141.573 30.9283L144.422 29.342L131.109 20.4367Z" fill="#D3D3D1"/>
<path d="M144.421 29.3421L142.437 34.1847L141.572 30.9284L144.421 29.3421Z" fill="#D3D3D1"/>
<path d="M142.438 34.1847L139.989 31.81L141.573 30.9284L142.438 34.1847Z" fill="#A4A6A6"/>
<path d="M61.545 104.363C60.9464 104.208 60.3517 104.039 59.7614 103.857L59.5755 104.444C60.1748 104.628 60.7786 104.8 61.386 104.958L61.545 104.363ZM58.0024 103.272C57.4207 103.064 56.8434 102.844 56.2713 102.611L56.0336 103.18C56.614 103.416 57.1999 103.639 57.7904 103.85L58.0024 103.272ZM54.5709 101.876C54.0098 101.619 53.4539 101.35 52.9044 101.07L52.6178 101.616C53.1755 101.9 53.739 102.173 54.3086 102.434L54.5709 101.876ZM51.2739 100.194C50.7368 99.8901 50.2062 99.5755 49.6826 99.2498L49.3502 99.7701C49.8814 100.1 50.4194 100.419 50.964 100.727L51.2739 100.194ZM48.1326 98.2409C47.6233 97.8941 47.1214 97.5367 46.627 97.1688L46.2517 97.6599C46.7529 98.0328 47.2619 98.3953 47.7786 98.7469L48.1326 98.2409ZM45.168 96.0358C44.6899 95.6481 44.2198 95.2505 43.7583 94.8434L43.3427 95.3018C43.8106 95.7146 44.2873 96.1176 44.7723 96.5108L45.168 96.0358ZM42.4002 93.5942C41.9564 93.1686 41.5216 92.7337 41.0962 92.2899L40.6433 92.7124C41.0746 93.1623 41.5155 93.6032 41.9654 94.0349L42.4002 93.5942ZM39.8494 90.9327C39.4434 90.4717 39.0477 90.0022 38.662 89.5248L38.1743 89.9076C38.5654 90.3921 38.967 90.8684 39.3786 91.3359L39.8494 90.9327ZM37.5369 88.0679C37.1724 87.5745 36.8188 87.0733 36.4766 86.5649L35.9572 86.9049C36.3046 87.4208 36.6633 87.9293 37.033 88.43L37.5369 88.0679ZM35.4842 85.0175C35.165 84.4948 34.8576 83.9651 34.5623 83.4286L34.0144 83.7221C34.3142 84.2666 34.6263 84.8043 34.9501 85.3348L35.4842 85.0175ZM33.7136 81.8009C33.4438 81.2527 33.1859 80.6978 32.9418 80.1366L32.369 80.3789C32.617 80.9493 32.879 81.5131 33.1531 82.0695L33.7136 81.8009ZM32.2542 78.438C32.0397 77.8662 31.8408 77.289 31.6592 76.7072L31.0633 76.8883C31.2485 77.4812 31.4512 78.0692 31.6695 78.6512L32.2542 78.438ZM31.1668 74.9472C31.0206 74.355 30.8938 73.7597 30.7876 73.1615L30.1735 73.2675C30.2822 73.8792 30.412 74.4879 30.5611 75.0924L31.1668 74.9472ZM30.5329 71.3564C30.4701 70.7521 30.4299 70.1464 30.4142 69.5397L29.791 69.5554C29.8072 70.1783 29.8484 70.8 29.9129 71.4191L30.5329 71.3564ZM30.4416 67.7208C30.4458 67.6482 30.4502 67.5756 30.4551 67.5033C30.491 66.9728 30.5486 66.4421 30.6281 65.914L30.0113 65.8238C29.9296 66.3683 29.87 66.9152 29.8332 67.4624C29.8281 67.5371 29.8236 67.6117 29.8192 67.6862L30.4416 67.7208ZM30.9816 64.132C31.1273 63.5437 31.3006 62.9619 31.5012 62.3908L30.9122 62.1894C30.7049 62.7792 30.5263 63.3793 30.3759 63.9863L30.9816 64.132ZM32.1867 60.7074C32.4436 60.1569 32.7279 59.6206 33.0392 59.102L32.5029 58.7888C32.1803 59.3261 31.8862 59.8812 31.6205 60.4504L32.1867 60.7074ZM34.0586 57.597C34.4263 57.1147 34.8211 56.6537 35.2426 56.2178L34.7916 55.7934C34.3527 56.2471 33.9421 56.7265 33.5603 57.2277L34.0586 57.5972V57.597ZM36.5848 54.9909C36.7418 54.8646 36.9018 54.7414 37.0644 54.6214C37.3892 54.3818 37.7263 54.1574 38.0737 53.9488L37.7496 53.4237C37.3856 53.6422 37.0323 53.8774 36.6913 54.1289C36.5215 54.2542 36.3544 54.3827 36.1908 54.5146L36.5848 54.9909ZM39.6949 53.1197C40.2537 52.8797 40.8293 52.6766 41.4154 52.5121L41.2446 51.9206C40.6321 52.0927 40.0305 52.3049 39.4461 52.5559L39.6949 53.1197ZM43.2022 52.1348C43.8069 52.0487 44.4158 52.0029 45.0228 51.9995L45.0191 51.3846C44.383 51.3882 43.7453 51.4359 43.1129 51.5262L43.2022 52.1348ZM46.8414 52.1198C47.4442 52.204 48.0384 52.3332 48.6174 52.5089L48.8007 51.9211C48.1891 51.7357 47.563 51.5997 46.929 51.5109L46.8414 52.1198ZM50.3016 53.1761C50.5865 53.3179 50.8651 53.4728 51.1375 53.6413C51.3806 53.7918 51.6166 53.9508 51.846 54.1173L52.2155 53.6219C51.9743 53.4469 51.7255 53.2792 51.4687 53.1202C51.1799 52.9416 50.8843 52.7773 50.5825 52.6273L50.3016 53.1761ZM53.237 55.2842C53.6747 55.7019 54.0903 56.1467 54.4912 56.6108L54.9657 56.212C54.5542 55.736 54.1254 55.2765 53.6705 54.8423L53.237 55.2842ZM55.6469 58.0384C56.0196 58.5236 56.3856 59.0197 56.7522 59.5187L57.2571 59.1579C56.8901 58.6582 56.5216 58.1587 56.144 57.6672L55.6469 58.0384ZM57.8576 61.0118C58.2328 61.5087 58.616 62.0004 59.0151 62.4793L59.4967 62.089C59.1064 61.6205 58.7291 61.1365 58.3576 60.6445L57.8576 61.0118ZM60.2749 63.8764C60.4832 64.0872 60.6964 64.2934 60.916 64.4937C61.164 64.72 61.4199 64.9371 61.6831 65.1452L62.073 64.6653C61.821 64.4662 61.5764 64.2585 61.3394 64.0424C61.1284 63.8498 60.9226 63.6513 60.7217 63.4476L60.2749 63.8764ZM63.2476 66.2243C63.7913 66.5503 64.3558 66.8424 64.9365 67.0994L65.1916 66.5384C64.6342 66.2916 64.0925 66.0113 63.5712 65.6989L63.2476 66.2243ZM66.7203 67.7636C67.3282 67.9493 67.9472 68.0988 68.5723 68.2109L68.6837 67.6059C68.0834 67.4982 67.4887 67.3547 66.9048 67.1763L66.7203 67.7636ZM70.4663 68.433C70.7531 68.4492 71.0404 68.4572 71.3272 68.4572C71.677 68.4572 72.0266 68.4454 72.375 68.4209L72.3308 67.8077C71.9974 67.8309 71.6626 67.8423 71.3272 67.8423C71.0522 67.8423 70.7769 67.8346 70.5019 67.8191L70.4663 68.433ZM74.2675 68.1637C74.8916 68.0361 75.5069 67.866 76.1082 67.6523L75.897 67.0737C75.3242 67.2775 74.7371 67.4396 74.1409 67.5616L74.2675 68.1637ZM77.857 66.8823C78.4212 66.5817 78.9588 66.2371 79.4661 65.8548L79.0878 65.3662C78.6055 65.7294 78.0954 66.0566 77.5609 66.3414L77.857 66.8823ZM80.8967 64.5997C81.3407 64.1484 81.7524 63.6654 82.1282 63.1565L81.6243 62.7944C81.2654 63.2804 80.8726 63.7411 80.4492 64.1714L80.8967 64.5997ZM83.1451 61.56C83.4469 61.0051 83.7101 60.4303 83.9317 59.8413L83.347 59.6276C83.1356 60.19 82.8841 60.7391 82.5958 61.2693L83.1451 61.56ZM84.4694 58.0309C84.6054 57.414 84.6959 56.7885 84.7373 56.1607L84.1152 56.1205C84.0759 56.7173 83.9898 57.3124 83.8603 57.9002L84.4694 58.0309ZM84.7116 54.2692C84.6517 53.642 84.5396 53.0183 84.372 52.4046L83.77 52.5646C83.9282 53.1437 84.0342 53.7332 84.0909 54.3268L84.7116 54.2692ZM83.7214 50.6252C83.4577 50.0476 83.1532 49.4953 82.8149 48.9656L82.2875 49.2932C82.6115 49.8007 82.9018 50.3278 83.153 50.8776L83.7214 50.6252ZM81.704 47.4393C81.3081 46.9558 80.8854 46.4909 80.442 46.0412L79.9953 46.4701C80.4268 46.9078 80.8365 47.3587 81.219 47.8255L81.704 47.4393ZM79.0755 44.7524C78.6094 44.3402 78.129 43.9397 77.6406 43.5474L77.2471 44.0244C77.7296 44.4116 78.2022 44.8061 78.6597 45.2105L79.0755 44.7524ZM76.1647 42.4001C75.6676 42.0236 75.1676 41.6526 74.6706 41.284L74.296 41.7758C74.793 42.1441 75.291 42.5139 75.7849 42.8877L76.1647 42.4001ZM73.179 40.1732C73.1019 40.1152 73.0251 40.0571 72.9483 39.999C72.5389 39.6885 72.1299 39.3664 71.7256 39.0332L71.326 39.5051C71.7374 39.8441 72.153 40.1715 72.5686 40.4864C72.6458 40.5449 72.7231 40.6035 72.8007 40.6618L73.179 40.1732ZM70.3378 37.8229C69.8873 37.4062 69.4501 36.9754 69.0321 36.5316L68.5753 36.9498C69.0039 37.4052 69.4514 37.8462 69.9114 38.2714L70.3378 37.8229ZM67.8344 35.1488C67.4526 34.667 67.0989 34.1726 66.7792 33.6663L66.25 33.9913C66.5824 34.5179 66.9492 35.0303 67.343 35.5273L67.8344 35.1488ZM65.9141 32.0786C65.6617 31.5275 65.4541 30.9651 65.2986 30.3926L64.6966 30.5516C64.8614 31.1592 65.081 31.7531 65.346 32.3317L65.9141 32.0786ZM64.9954 28.6352C64.9799 28.4232 64.9721 28.2102 64.9721 27.9958C64.9721 27.665 64.9907 27.331 65.0297 26.9942C65.0351 26.9479 65.0408 26.9022 65.0469 26.8565L64.4286 26.7768C64.4223 26.826 64.4161 26.8751 64.4105 26.9242C64.3688 27.2846 64.3487 27.642 64.3487 27.9958C64.3487 28.225 64.357 28.4529 64.3737 28.6792L64.9954 28.6352ZM65.463 25.1266C65.6607 24.5647 65.9144 24.0238 66.2162 23.505L65.6754 23.1989C65.3558 23.7489 65.0854 24.3247 64.8742 24.9248L65.463 25.1266ZM67.2475 22.0288C67.6273 21.5671 68.0451 21.1276 68.4938 20.7123L68.0674 20.2639C67.5996 20.6971 67.1622 21.1564 66.7635 21.6414L67.2475 22.0288ZM69.9028 19.5553C70.3937 19.1967 70.9069 18.8622 71.4346 18.5537L71.1167 18.0247C70.5716 18.3436 70.0406 18.6894 69.5318 19.0614L69.9028 19.5553ZM73.0612 17.7035C73.3163 17.5847 73.5735 17.4719 73.8311 17.3652C74.138 17.2379 74.4481 17.1177 74.7614 17.0039L74.5464 16.4267C74.2243 16.5436 73.9051 16.6673 73.5894 16.7982C73.3237 16.9086 73.0587 17.0247 72.7953 17.1472L73.0612 17.7035ZM76.517 16.4483C77.1089 16.2869 77.7085 16.1487 78.3133 16.0342L78.1958 15.4304C77.5748 15.548 76.9591 15.6896 76.3509 15.8554L76.517 16.4483ZM80.1376 15.7615C80.7492 15.6942 81.3635 15.6504 81.9783 15.6303L81.9575 15.0156C81.3267 15.0365 80.6962 15.0815 80.0684 15.1504L80.1376 15.7615ZM83.8235 15.6414C84.4393 15.669 85.0528 15.7206 85.6618 15.7966L85.7398 15.1865C85.1142 15.1086 84.4839 15.0553 83.8517 15.027L83.8235 15.6414ZM87.4807 16.0981C88.0837 16.2237 88.6799 16.374 89.2662 16.5492L89.4468 15.9606C88.843 15.7804 88.2297 15.6255 87.6095 15.4965L87.4807 16.0981ZM91.0032 17.153C91.5736 17.3805 92.1315 17.6336 92.6744 17.9119L92.9619 17.3664C92.4011 17.0787 91.825 16.8176 91.2367 16.5828L91.0032 17.153ZM94.2609 18.8274C94.7729 19.1582 95.2673 19.5149 95.7418 19.8975L96.1365 19.4215C95.6446 19.0251 95.1324 18.6556 94.6024 18.3129L94.2609 18.8274ZM97.096 21.1174C97.4616 21.485 97.8107 21.8713 98.1424 22.2764C98.1973 22.3434 98.2515 22.4107 98.305 22.4782L98.7959 22.099C98.7402 22.029 98.6841 21.9593 98.6274 21.8901C98.2829 21.4695 97.9206 21.0685 97.5413 20.6869L97.096 21.1174ZM99.3612 23.9604C99.6887 24.4752 99.987 25.003 100.258 25.5424L100.816 25.2699C100.537 24.7121 100.228 24.1661 99.8889 23.6335L99.3612 23.9604ZM100.992 27.2057C101.21 27.7707 101.401 28.3462 101.568 28.9311L102.168 28.7646C101.997 28.163 101.8 27.5699 101.575 26.9871L100.992 27.2057ZM101.994 30.7011C102.111 31.294 102.206 31.8944 102.279 32.5009L102.898 32.4275C102.823 31.8068 102.726 31.1916 102.605 30.5833L101.994 30.7011ZM102.439 34.3183C102.469 34.8742 102.484 35.4341 102.484 35.9968C102.484 36.0459 102.484 36.0948 102.483 36.1439L103.107 36.1466C103.107 36.0967 103.107 36.0466 103.107 35.9968C103.107 35.4237 103.092 34.8526 103.061 34.2849L102.439 34.3183ZM102.426 37.9713C102.391 38.5782 102.341 39.1866 102.277 39.7957L102.897 39.8589C102.962 39.2411 103.013 38.623 103.048 38.0061L102.426 37.9713ZM102.046 41.6131C101.956 42.2172 101.854 42.8205 101.742 43.4216L102.355 43.5334C102.469 42.925 102.572 42.3142 102.663 41.7022L102.046 41.6131ZM101.371 45.2192C101.237 45.8184 101.094 46.4139 100.942 47.0049L101.546 47.1561C101.699 46.5594 101.845 45.9575 101.98 45.3518L101.371 45.2192ZM100.458 48.7783C100.393 49.0057 100.326 49.2323 100.258 49.4578C100.15 49.8184 100.04 50.1794 99.9286 50.5408L100.525 50.7201C100.637 50.3573 100.748 49.9946 100.856 49.6318C100.924 49.4043 100.992 49.1759 101.058 48.9465L100.458 48.7783ZM99.3742 52.2991C99.187 52.8838 98.9973 53.4692 98.8067 54.0553L99.4002 54.2431C99.5911 53.6567 99.7809 53.0704 99.9686 52.4843L99.3742 52.2991ZM98.2353 55.8125C98.0455 56.3986 97.8563 56.9855 97.6699 57.573L98.2648 57.7567C98.4508 57.1708 98.6394 56.5852 98.8293 55.9998L98.2353 55.8125ZM97.1198 59.3404C96.9397 59.9316 96.7641 60.5237 96.5946 61.1166L97.1946 61.2836C97.3629 60.6943 97.5376 60.1056 97.7167 59.5173L97.1198 59.3404ZM96.1046 62.9045C95.9479 63.5042 95.7992 64.1046 95.6603 64.706L96.2683 64.8425C96.4056 64.2474 96.5528 63.6526 96.7081 63.0582L96.1046 62.9045ZM95.2737 66.5222C95.1552 67.1315 95.0487 67.7416 94.956 68.3529L95.5725 68.4439C95.664 67.8416 95.769 67.2395 95.8858 66.6379L95.2737 66.5222ZM94.7202 70.1977C94.6567 70.815 94.6088 71.4336 94.5789 72.0531L95.2016 72.0824C95.231 71.4745 95.2778 70.8668 95.3404 70.2596L94.7202 70.1977ZM94.5443 73.9153C94.5517 74.5351 94.5789 75.1558 94.6275 75.7777L95.2489 75.7305C95.2016 75.1224 95.1748 74.515 95.1674 73.9078L94.5443 73.9153ZM94.8375 77.6319C94.93 78.249 95.0453 78.8613 95.1829 79.4677L95.7911 79.3334C95.6569 78.7415 95.5443 78.1442 95.4542 77.5421L94.8375 77.6319ZM95.662 81.2731C95.8431 81.8689 96.0457 82.4581 96.268 83.0399L96.8514 82.8228C96.6338 82.2541 96.4361 81.6784 96.2589 81.0962L95.662 81.2731ZM96.9945 84.7615C97.2555 85.3266 97.5354 85.8836 97.8332 86.4318L98.3828 86.1411C98.0911 85.6046 97.817 85.0594 97.5617 84.5064L96.9945 84.7615ZM98.778 88.0454C99.1095 88.573 99.4574 89.0909 99.8214 89.5983L100.33 89.2433C99.9735 88.7458 99.6325 88.2383 99.3079 87.7216L98.778 88.0454ZM100.957 91.0864C101.35 91.5709 101.758 92.0445 102.179 92.5062L102.642 92.0948C102.229 91.642 101.829 91.1776 101.444 90.7023L100.957 91.0864ZM103.481 93.8539C103.929 94.291 104.388 94.7154 104.86 95.1266L105.272 94.6658C104.81 94.2624 104.359 93.8459 103.92 93.4171L103.481 93.8539ZM106.309 96.3201C106.726 96.6449 107.152 96.9595 107.584 97.2637C107.664 97.3198 107.744 97.3755 107.824 97.4306L108.181 96.9271C108.103 96.8726 108.024 96.8182 107.946 96.763C107.522 96.4646 107.104 96.1558 106.694 95.8371L106.309 96.3201ZM109.397 98.4577C109.93 98.7866 110.472 99.1015 111.021 99.4029L111.324 98.8655C110.784 98.5693 110.251 98.2595 109.727 97.9362L109.397 98.4577ZM112.69 100.266C113.254 100.541 113.824 100.802 114.4 101.049L114.649 100.485C114.082 100.242 113.521 99.985 112.966 99.7149L112.69 100.266ZM116.143 101.752C116.73 101.974 117.321 102.182 117.917 102.378L118.114 101.795C117.527 101.602 116.944 101.396 116.366 101.178L116.143 101.752ZM119.716 102.927C120.319 103.098 120.926 103.256 121.536 103.403L121.683 102.805C121.081 102.661 120.482 102.505 119.888 102.337L119.716 102.927ZM123.373 103.805C123.988 103.928 124.605 104.039 125.225 104.138L125.325 103.531C124.713 103.433 124.104 103.324 123.497 103.203L123.373 103.805ZM127.087 104.401C127.71 104.478 128.334 104.544 128.958 104.598L129.013 103.985C128.396 103.932 127.78 103.867 127.165 103.791L127.087 104.401ZM130.835 104.729C131.459 104.761 132.087 104.781 132.716 104.788L132.724 104.173C132.103 104.166 131.484 104.146 130.867 104.114L130.835 104.729ZM134.6 104.771C135.227 104.752 135.855 104.72 136.481 104.673L136.434 104.06C135.817 104.106 135.199 104.138 134.581 104.157L134.6 104.771ZM138.358 104.488C138.983 104.411 139.605 104.319 140.223 104.21L140.114 103.605C139.507 103.711 138.895 103.802 138.28 103.878L138.358 104.488ZM142.072 103.832C142.687 103.688 143.295 103.527 143.897 103.347L143.716 102.759C143.127 102.935 142.531 103.093 141.928 103.234L142.072 103.832ZM145.687 102.748C146.279 102.527 146.861 102.287 147.433 102.026L147.171 101.468C146.613 101.723 146.045 101.957 145.467 102.172L145.687 102.748ZM149.12 101.177C149.67 100.872 150.208 100.545 150.732 100.196L150.383 99.6866C149.874 100.026 149.35 100.344 148.814 100.641L149.12 101.177ZM152.255 99.0826C152.572 98.8289 152.882 98.5654 153.186 98.2917C153.351 98.1428 153.513 97.9904 153.672 97.8349L153.233 97.3982C153.08 97.548 152.924 97.6947 152.765 97.838C152.471 98.1032 152.169 98.3589 151.862 98.6054L152.255 99.0826ZM154.946 96.439C155.343 95.9523 155.714 95.4436 156.058 94.9165L155.534 94.5838C155.202 95.093 154.844 95.5842 154.461 96.0534L154.946 96.439ZM157.004 93.2896C157.291 92.7318 157.549 92.1597 157.778 91.5769L157.196 91.3553C156.976 91.9186 156.726 92.4718 156.448 93.0113L157.004 93.2896ZM158.373 89.7958C158.541 89.1903 158.677 88.5781 158.779 87.9629L158.164 87.8634C158.066 88.4571 157.934 89.0483 157.772 89.6334L158.373 89.7958ZM158.984 86.0959C158.999 85.8156 159.006 85.5359 159.006 85.2564C159.006 84.9084 158.995 84.5611 158.971 84.2155L158.349 84.2567C158.372 84.5882 158.383 84.9217 158.383 85.2564C158.383 85.525 158.376 85.7943 158.362 86.0639L158.984 86.0959ZM158.723 82.3485C158.599 81.7302 158.433 81.1218 158.223 80.5282L157.634 80.7307C157.834 81.2963 157.993 81.8768 158.112 82.4681L158.723 82.3485ZM157.46 78.7959C157.164 78.2425 156.824 77.7082 156.437 77.1975L155.938 77.5654C156.305 78.0501 156.628 78.5571 156.909 79.0827L157.46 78.7959ZM155.178 75.7751C154.723 75.3312 154.242 74.9215 153.737 74.5406L153.358 75.029C153.843 75.3954 154.305 75.7881 154.739 76.2119L155.178 75.7751ZM152.168 73.4826C151.63 73.1581 151.077 72.857 150.512 72.5744L150.23 73.1227C150.782 73.3991 151.321 73.6924 151.842 74.007L152.168 73.4826ZM148.803 71.783C148.228 71.535 147.646 71.3005 147.064 71.0745L146.836 71.6468C147.413 71.8706 147.987 72.1025 148.554 72.3466L148.803 71.783ZM145.311 70.4157C145.242 70.3903 145.173 70.3652 145.104 70.34C144.591 70.152 144.075 69.9629 143.561 69.7701L143.339 70.3446C143.857 70.5389 144.373 70.7281 144.887 70.9162C144.955 70.9413 145.024 70.9668 145.093 70.9919L145.311 70.4157ZM141.829 69.0961C141.255 68.8628 140.687 68.6194 140.13 68.3614L139.865 68.918C140.433 69.181 141.01 69.4284 141.591 69.6646L141.829 69.0961ZM138.483 67.533C137.944 67.2368 137.42 66.9208 136.916 66.58L136.564 67.0873C137.085 67.4399 137.625 67.7658 138.18 68.0703L138.483 67.533ZM135.466 65.4758C135.105 65.1646 134.759 64.8352 134.43 64.4853C134.344 64.3936 134.26 64.3001 134.177 64.2046L133.703 64.6041C133.791 64.7057 133.881 64.8054 133.973 64.903C134.317 65.2698 134.679 65.6144 135.056 65.939L135.466 65.4758ZM133.128 62.7465C132.823 62.2313 132.561 61.6882 132.35 61.1297L131.766 61.3448C131.99 61.9365 132.267 62.5113 132.59 63.057L133.128 62.7465ZM131.871 59.4069C131.78 58.9009 131.732 58.3932 131.732 57.892C131.732 57.8058 131.734 57.7199 131.736 57.6343L131.113 57.6142C131.11 57.7066 131.109 57.7993 131.109 57.892C131.109 58.4314 131.16 58.9747 131.257 59.5144L131.871 59.4069ZM132.008 55.8909C132.173 55.329 132.412 54.7924 132.734 54.2939L132.208 53.9634C131.853 54.5141 131.589 55.1056 131.409 55.7205L132.008 55.8909H132.008ZM133.897 52.976C134.332 52.6055 134.833 52.2694 135.382 51.9586L135.071 51.4253C134.496 51.751 133.963 52.1079 133.49 52.5106L133.897 52.976ZM137.026 51.1489C137.578 50.9074 138.155 50.6789 138.743 50.4553L138.519 49.8815C137.926 50.1071 137.34 50.3392 136.773 50.5865L137.026 51.1489ZM140.493 49.8058C141.082 49.5878 141.671 49.3668 142.246 49.1355L142.011 48.566C141.445 48.7938 140.862 49.0125 140.274 49.2301L140.493 49.8058ZM143.976 48.3736C144.563 48.0854 145.12 47.7737 145.63 47.4265L145.276 46.9202C144.797 47.2464 144.266 47.5445 143.698 47.8231L143.976 48.3736ZM147.092 46.1664C147.188 46.0579 147.28 45.9464 147.368 45.8314C147.687 45.4135 147.907 44.9414 148.042 44.4385L147.44 44.2809C147.323 44.7168 147.136 45.1125 146.87 45.4614C146.791 45.5638 146.709 45.664 146.622 45.7617L147.092 46.1664ZM148.194 42.5056C148.146 41.8924 148.022 41.2627 147.84 40.6338L147.241 40.8027C147.413 41.3982 147.529 41.9887 147.572 42.5523L148.194 42.5056ZM147.181 38.8621C146.92 38.2844 146.623 37.7227 146.303 37.1928L145.767 37.5074C146.075 38.0173 146.361 38.5581 146.612 39.1123L147.181 38.8621ZM145.229 35.636C145.039 35.3947 144.846 35.1675 144.653 34.9567L144.19 35.3693C144.372 35.5677 144.556 35.7836 144.738 36.014L145.229 35.636Z" fill="#36BDD0"/>
<path d="M54.7859 90.6511C49.5984 87.2902 44.9731 83.0864 41.1537 78.2607C39.5529 76.2378 38.0814 74.0864 37.1104 71.7059C36.1394 69.3251 35.688 66.6907 36.1651 64.1678C36.5074 62.3589 37.5049 60.4756 39.276 59.8972C40.6596 59.4454 42.2227 59.9156 43.3752 60.7958C44.5276 61.6759 45.3359 62.9164 46.0513 64.169C48.8116 69.0027 50.5061 74.3405 52.547 79.5101C53.5266 81.9909 54.5963 84.4445 55.8963 86.7803C56.5423 87.9409 57.243 89.0725 58.0167 90.1547C58.7177 91.1351 59.9919 92.1907 60.4325 93.2489C59.4237 94.0396 55.727 91.2604 54.7859 90.6511Z" fill="#269E98"/>
<path d="M39.9375 62.6976C42.4865 73.3531 48.4719 83.1769 56.8145 90.3979L57.1413 90.0305C48.8774 82.8785 42.9441 73.1397 40.4198 62.5853L39.9375 62.6976Z" fill="#35BBB3"/>
<path d="M123.847 90.7041C128.303 88.5706 132.401 85.7133 135.926 82.2822C137.403 80.8438 138.792 79.2906 139.808 77.5054C140.825 75.7204 141.457 73.6813 141.342 71.6366C141.26 70.1704 140.667 68.5795 139.326 67.942C138.278 67.444 136.992 67.6574 135.988 68.2373C134.985 68.8166 134.216 69.7164 133.519 70.635C130.831 74.1796 128.934 78.2316 126.78 82.1152C125.746 83.9786 124.644 85.812 123.372 87.5283C122.74 88.3811 122.068 89.2056 121.343 89.9834C120.686 90.6881 119.567 91.394 119.108 92.187C119.824 92.9145 123.039 91.0908 123.847 90.7041Z" fill="#269E98"/>
<path d="M138.14 69.9528C135.042 78.0484 129.332 85.1528 122.048 89.9742L122.268 90.298C129.622 85.4301 135.382 78.2636 138.51 70.0905L138.14 69.9528Z" fill="#35BBB3"/>
<path d="M57.3327 83.7693C58.0245 80.4031 58.3638 76.9727 58.3638 73.5416C58.3636 63.0565 55.1961 52.5641 49.2261 43.8753L48.71 44.2202C54.6073 52.802 57.7409 63.1782 57.7407 73.5416C57.7407 76.9325 57.4053 80.3222 56.7218 83.6471L57.3327 83.7693Z" fill="#43A8AF"/>
<path d="M49.794 45.3893C47.5457 44.6636 45.5791 43.1211 44.3557 41.1241C43.1322 39.1271 42.6621 36.6923 43.0559 34.3917C45.4413 35.0223 47.6819 36.4842 48.9525 38.5732C50.2228 40.6621 50.3526 43.0163 49.794 45.3893Z" fill="#43A8AF"/>
<path d="M52.3041 49.7821C51.7892 48.0535 51.9241 46.1444 52.6773 44.5031C53.4304 42.8619 54.7955 41.5018 56.452 40.7429C57.0881 42.5161 57.1252 44.5617 56.3332 46.2726C55.5413 47.9838 54.0791 49.0948 52.3041 49.7821Z" fill="#43A8AF"/>
<path d="M52.4627 49.6185C51.0871 48.4334 49.2731 47.7546 47.4466 47.742C45.6204 47.7294 43.7968 48.3828 42.4043 49.5488C43.7703 50.8612 45.638 51.751 47.5448 51.758C49.4517 51.7653 51.0869 50.9209 52.4627 49.6185Z" fill="#43A8AF"/>
<path d="M55.1377 56.7522C54.9358 54.9616 55.4058 53.1048 56.4375 51.6182C57.4691 50.1313 59.0537 49.0268 60.8186 48.5641C61.1322 50.4195 60.8071 52.4402 59.7249 53.989C58.6428 55.5378 57.0069 56.3807 55.1377 56.7522Z" fill="#43A8AF"/>
<path d="M55.323 56.6183C54.1778 55.215 52.5112 54.2349 50.7149 53.9084C48.9188 53.5822 47.0077 53.9121 45.4307 54.8208C46.5437 56.348 48.2257 57.5452 50.1023 57.8799C51.9789 58.2148 53.7379 57.6643 55.323 56.6183Z" fill="#43A8AF"/>
<path d="M57.0128 63.7244C56.9699 61.9232 57.6018 60.114 58.7608 58.7213C59.9195 57.3289 61.5954 56.3645 63.3947 56.055C63.5431 57.9302 63.0411 59.9153 61.8265 61.3654C60.6121 62.8155 58.9077 63.5146 57.0128 63.7244Z" fill="#43A8AF"/>
<path d="M57.2097 63.607C56.1926 62.1105 54.619 60.9913 52.8585 60.5121C51.0977 60.0327 49.165 60.1975 47.5137 60.9673C48.4879 62.5844 50.058 63.9214 51.8978 64.4158C53.7375 64.9105 55.5385 64.5129 57.2097 63.607Z" fill="#43A8AF"/>
<path d="M58.0986 71.3966C58.3398 69.6106 59.2493 67.9202 60.6131 66.7221C61.9774 65.524 63.7847 64.8282 65.6107 64.7982C65.4623 66.6735 64.6537 68.5577 63.2254 69.8037C61.7973 71.0503 60.0036 71.4798 58.0986 71.3966Z" fill="#43A8AF"/>
<path d="M58.3111 71.3109C57.542 69.6766 56.1637 68.3297 54.5001 67.5865C52.8363 66.8433 50.9009 66.7097 49.1484 67.2174C49.8562 68.964 51.1967 70.5253 52.9361 71.2956C54.6758 72.0662 56.5178 71.9498 58.3111 71.3109Z" fill="#43A8AF"/>
<path d="M122.286 88.3203C121.483 84.7228 121.089 81.0422 121.089 77.3599C121.089 67.2869 124.039 57.2008 129.629 48.7669L129.107 48.4305C123.449 56.9697 120.466 67.1688 120.466 77.3599C120.466 81.0855 120.864 84.8104 121.678 88.4527L122.286 88.3203Z" fill="#43A8AF"/>
<path d="M128.565 49.9537C130.801 49.1909 132.741 47.6162 133.931 45.5994C135.12 43.5823 135.549 41.14 135.116 38.8461C132.742 39.5165 130.526 41.0147 129.291 43.1244C128.056 45.234 127.967 47.5903 128.565 49.9537Z" fill="#43A8AF"/>
<path d="M126.13 54.3871C126.616 52.6503 126.448 50.7438 125.667 49.1151C124.886 47.4865 123.499 46.1492 121.829 45.4176C121.223 47.2009 121.221 49.247 122.042 50.9449C122.863 52.6425 124.343 53.7293 126.13 54.3871Z" fill="#43A8AF"/>
<path d="M125.968 54.2262C127.323 53.0186 129.125 52.3103 130.951 52.2674C132.777 52.2246 134.612 52.8478 136.024 53.9907C134.68 55.3256 132.828 56.2459 130.921 56.2844C129.015 56.3229 127.365 55.5056 125.968 54.2262Z" fill="#43A8AF"/>
<path d="M123.415 61.403C123.586 59.6093 123.085 57.7606 122.028 56.2909C120.971 54.8215 119.369 53.7434 117.596 53.31C117.314 55.1702 117.673 57.1854 118.781 58.716C119.889 60.2467 121.539 61.0622 123.415 61.403Z" fill="#43A8AF"/>
<path d="M123.228 61.2722C124.349 59.8502 125.999 58.8428 127.789 58.4868C129.579 58.1308 131.496 58.4292 133.088 59.3118C132.001 60.8572 130.339 62.0817 128.469 62.4476C126.598 62.8133 124.83 62.2918 123.228 61.2722Z" fill="#43A8AF"/>
<path d="M121.658 68.4052C121.671 66.6038 121.008 64.805 119.826 63.4316C118.644 62.0583 116.952 61.1217 115.147 60.8422C115.031 62.7197 115.566 64.6963 116.805 66.1261C118.044 67.5558 119.76 68.2269 121.658 68.4052Z" fill="#43A8AF"/>
<path d="M121.459 68.291C122.451 66.778 124.005 65.6331 125.757 65.1247C127.51 64.6165 129.445 64.7493 131.109 65.492C130.163 67.1248 128.615 68.4875 126.784 69.0122C124.953 69.5371 123.145 69.1692 121.459 68.291Z" fill="#43A8AF"/>
<path d="M120.703 76.094C120.432 74.3124 119.494 72.6373 118.11 71.4619C116.725 70.2863 114.906 69.6203 113.08 69.6205C113.26 71.4931 114.101 73.3635 115.55 74.5864C116.999 75.8089 118.8 76.2087 120.703 76.094Z" fill="#43A8AF"/>
<path d="M120.488 76.012C121.23 74.3654 122.585 72.9959 124.236 72.2254C125.887 71.4549 127.82 71.2893 129.581 71.768C128.902 73.5259 127.589 75.1091 125.862 75.9082C124.136 76.7072 122.293 76.6211 120.488 76.012Z" fill="#43A8AF"/>
<path d="M54.8594 97.4916C55.6211 96.1236 56.6331 94.8577 57.298 93.45C55.5245 91.2287 53.3965 89.2325 51.1651 87.4823C49.7066 86.3381 48.1843 85.2663 46.6115 84.2666C45.1685 85.3989 43.7259 86.531 42.2831 87.6631C42.5355 85.6874 42.6808 83.968 42.8908 82.0944C39.6867 80.3806 36.3141 78.9613 32.8392 77.8795C32.038 79.1529 31.3552 80.5045 30.278 81.5957C30.2944 80.1364 30.1526 78.6128 29.9514 77.0647C26.7393 76.2494 23.46 75.7185 20.1651 75.505C20.1541 76.8176 20.2321 78.1285 20.3855 79.4305C21.2466 79.1749 21.9132 78.4584 22.825 78.3236C22.2236 79.7601 21.6799 81.3396 20.9644 82.7984C21.7493 86.2634 23.0928 89.608 24.926 92.6664C26.4429 91.7856 27.8644 90.5743 29.6931 89.8254C29.3746 92.5825 29.3692 95.4673 29.1281 98.2561C30.0913 99.2892 31.1202 100.263 32.2146 101.163C34.1412 102.747 36.2545 104.1 38.4937 105.208C38.9478 103.499 39.4176 101.797 40.5425 100.361C41.8668 102.844 43.3022 105.057 44.5043 107.511C49.5168 108.915 54.8513 109.203 59.9704 108.236C60.8175 108.076 61.5283 106.738 61.7915 105.927C62.055 105.117 62.004 104.241 61.8852 103.398C61.5116 100.747 60.5126 98.2775 59.1073 96.0065C57.6113 96.3557 56.0973 96.7669 54.8594 97.4916Z" fill="#43A8AF"/>
<path d="M56.4515 105.399C44.6944 98.578 33.9441 90.0702 24.6455 80.2269L24.1895 80.646C33.5293 90.5332 44.3261 99.0777 56.1355 105.929L56.4515 105.399Z" fill="#61CBD2"/>
<path d="M124.485 100.228C123.77 99.2905 122.88 98.4548 122.233 97.4773C123.313 95.637 124.68 93.9275 126.151 92.3898C127.113 91.3848 128.13 90.4267 129.193 89.517C130.389 90.208 131.586 90.8984 132.782 91.5893C132.38 90.1453 132.086 88.8811 131.727 87.5084C133.926 85.8958 136.282 84.4844 138.752 83.3136C139.486 84.1768 140.14 85.1105 141.06 85.8094C140.89 84.7252 140.83 83.5759 140.813 82.4027C143.115 81.458 145.498 80.7174 147.927 80.2114C148.078 81.1872 148.161 82.1711 148.188 83.1563C147.52 83.0569 146.946 82.5937 146.253 82.5893C146.856 83.5953 147.431 84.7136 148.122 85.7235C147.912 88.3855 147.275 91.0162 146.241 93.4851C145.017 92.9895 143.828 92.2376 142.386 91.8727C142.921 93.8912 143.238 96.0377 143.719 98.0877C143.114 98.9582 142.453 99.7911 141.736 100.576C140.474 101.958 139.047 103.187 137.501 104.248C136.978 103.024 136.444 101.807 135.451 100.857C134.734 102.844 133.906 104.642 133.276 106.595C129.698 108.168 125.759 108.944 121.844 108.763C121.196 108.733 120.523 107.812 120.239 107.237C119.955 106.661 119.899 106.004 119.896 105.364C119.887 103.351 120.363 101.409 121.163 99.5702C122.314 99.6728 123.486 99.8195 124.485 100.228Z" fill="#43A8AF"/>
<path d="M124.449 106.642C132.496 100.3 139.607 92.8034 145.488 84.4614L145.104 84.1974C139.248 92.5026 132.168 99.9667 124.156 106.281L124.449 106.642Z" fill="#61CBD2"/>
<path d="M123.442 108.803H55.0905C53.6259 108.803 52.4385 107.632 52.4385 106.187V62.9333C52.4385 61.4886 53.6259 60.3173 55.0905 60.3173H123.442C124.907 60.3173 126.094 61.4886 126.094 62.9333V106.187C126.094 107.632 124.907 108.803 123.442 108.803Z" fill="#12182D"/>
<path d="M125.235 84.5601C125.235 85.781 124.232 86.7708 122.994 86.7708C121.756 86.7708 120.753 85.781 120.753 84.5601C120.753 83.3393 121.756 82.3497 122.994 82.3497C124.232 82.3497 125.235 83.3393 125.235 84.5601Z" fill="#222D5B"/>
<path d="M54.0076 92.7579C53.6156 92.7579 53.2979 92.4445 53.2979 92.0578V77.0625C53.2979 76.676 53.6156 76.3626 54.0076 76.3626C54.3994 76.3626 54.7171 76.676 54.7171 77.0625V92.0578C54.7171 92.4445 54.3994 92.7579 54.0076 92.7579Z" fill="#222D5B"/>
<path d="M55.7256 107.012H119.895V62.1067H55.7256V107.012Z" fill="#CEE5EF"/>
<path d="M55.7256 65.1254H119.894V62.1074H55.7256V65.1254Z" fill="#95A6AF"/>
<path d="M56.7783 64.7602H57.5908V63.7411H56.7783V64.7602Z" fill="#F14F4B"/>
<path d="M57.834 64.7602H58.6463V63.0314H57.834V64.7602Z" fill="#F14F4B"/>
<path d="M58.9492 64.7602H59.7618V62.5406H58.9492V64.7602Z" fill="#F14F4B"/>
<path d="M114.796 62.7231V62.8702C114.796 62.9871 114.7 63.0822 114.581 63.0822H114.342C114.223 63.0822 114.127 63.1771 114.127 63.2939V63.9386C114.127 64.0558 114.223 64.1506 114.342 64.1506H114.581C114.7 64.1506 114.796 64.2455 114.796 64.3624V64.5097C114.796 64.6269 114.892 64.7215 115.011 64.7215H118.354C118.472 64.7215 118.568 64.6269 118.568 64.5097V62.7231C118.568 62.6059 118.472 62.5113 118.354 62.5113H115.011C114.892 62.5113 114.796 62.6059 114.796 62.7231Z" fill="#CEE5EF"/>
<path d="M118.363 64.6094H117.766C117.722 64.6094 117.687 64.5746 117.687 64.531V62.6986C117.687 62.655 117.722 62.6202 117.766 62.6202H118.363C118.407 62.6202 118.443 62.655 118.443 62.6986V64.531C118.443 64.5746 118.407 64.6094 118.363 64.6094Z" fill="#80CD32"/>
<path d="M117.439 64.6094H116.841C116.797 64.6094 116.762 64.5746 116.762 64.531V62.6986C116.762 62.655 116.797 62.6202 116.841 62.6202H117.439C117.482 62.6202 117.518 62.655 117.518 62.6986V64.531C117.518 64.5746 117.482 64.6094 117.439 64.6094Z" fill="#80CD32"/>
<path d="M116.514 64.6094H115.916C115.872 64.6094 115.837 64.5746 115.837 64.531V62.6986C115.837 62.655 115.872 62.6202 115.916 62.6202H116.514C116.558 62.6202 116.593 62.655 116.593 62.6986V64.531C116.593 64.5746 116.558 64.6094 116.514 64.6094Z" fill="#80CD32"/>
<path d="M113.12 63.6163C113.12 64.0855 112.735 64.4662 112.259 64.4662C111.783 64.4662 111.397 64.0855 111.397 63.6163C111.397 63.147 111.783 62.7666 112.259 62.7666C112.735 62.7666 113.12 63.147 113.12 63.6163Z" fill="#CEE5EF"/>
<path d="M59.7832 103.553H115.837V68.5151H59.7832V103.553Z" fill="#B2C7D1"/>
<path d="M59.7832 71.5362H115.837V68.5151H59.7832V71.5362Z" fill="#96A8B0"/>
<path d="M78.0059 74.5389H114.703V73.1019H78.0059V74.5389Z" fill="#D2EBF6"/>
<path d="M78.0059 77.2743H98.2594V75.8376H78.0059V77.2743Z" fill="#D2EBF6"/>
<path d="M88.9028 80.0101H78.0059V78.5733H88.9028V80.0101Z" fill="#D2EBF6"/>
<path d="M78.0059 84.7537H114.703V83.3168H78.0059V84.7537Z" fill="#D2EBF6"/>
<path d="M98.2594 87.4891H78.0059V86.0523H98.2594V87.4891Z" fill="#D2EBF6"/>
<path d="M88.9028 90.2249H78.0059V88.7881H88.9028V90.2249Z" fill="#D2EBF6"/>
<path d="M78.0059 94.7288H114.703V93.292H78.0059V94.7288Z" fill="#D2EBF6"/>
<path d="M78.0059 97.4646H98.2594V96.0278H78.0059V97.4646Z" fill="#D2EBF6"/>
<path d="M78.0059 100.2H88.9029V98.7632H78.0059V100.2Z" fill="#D2EBF6"/>
<path d="M61.9814 81.0049H76.2122V73.1019H61.9814V81.0049Z" fill="#D2EBF6"/>
<path d="M61.9814 81.0049L69.0971 77.0533L76.2123 81.0049H61.9814Z" fill="#BED5DF"/>
<path d="M76.2123 73.102L69.0971 77.0533L61.9814 73.102H76.2123Z" fill="#BED5DF"/>
<path d="M61.9814 91.1735H76.2122V83.2708H61.9814V91.1735Z" fill="#D2EBF6"/>
<path d="M61.9814 91.1735L69.0971 87.2221L76.2123 91.1735H61.9814Z" fill="#BED5DF"/>
<path d="M76.2123 83.2708L69.0971 87.2222L61.9814 83.2708H76.2123Z" fill="#BED5DF"/>
<path d="M76.213 101.342H61.9824V93.4394H76.213V101.342Z" fill="#D2EBF6"/>
<path d="M61.9824 101.342L69.0978 97.3908L76.213 101.342H61.9824Z" fill="#BED5DF"/>
<path d="M76.213 93.4394L69.0978 97.3907L61.9824 93.4394H76.213Z" fill="#BED5DF"/>
<path d="M55.7256 84.7274V64.9603L55.7263 64.9596V65.1254H75.5956L72.1597 68.5151H59.7836V80.7242L55.7256 84.7274ZM78.6552 62.1074H58.6203L58.621 62.1066H78.6559L78.6552 62.1074Z" fill="#E2F0F6"/>
<path d="M75.5949 65.1254H55.7256V64.9596L56.7783 63.9219V64.7602H57.5909V63.7411H56.9618L58.6195 62.1074H78.6544L75.5949 65.1254ZM58.9493 62.5406V64.7602H59.7618V62.5406H58.9493ZM57.8335 63.0313V64.7602H58.6458V63.0313H57.8335Z" fill="#C2CBCF"/>
<path d="M57.5909 64.7602H56.7783V63.9219L56.9618 63.7411H57.5909V64.7602Z" fill="#F6878A"/>
<path d="M57.834 64.7602H58.6463V63.0314H57.834V64.7602Z" fill="#F6878A"/>
<path d="M58.9492 64.7602H59.7618V62.5406H58.9492V64.7602Z" fill="#F6878A"/>
<path d="M59.7832 80.7242V68.5151H72.1593H59.7832V71.5362H69.097L67.5095 73.102H61.9819V78.555L59.7832 80.7242Z" fill="#D1E0E3"/>
<path d="M69.097 71.5362H59.7832V68.5151H72.1593L69.097 71.5362Z" fill="#C3CCD0"/>
<path d="M61.9814 78.5549V73.1019H67.5091H61.9814L65.5182 75.066L61.9814 78.5549Z" fill="#E6F3F9"/>
<path d="M65.5182 75.066L61.9814 73.102H67.5091L65.5182 75.066Z" fill="#DBE6EC"/>
<path d="M55.7256 98.4531V88.3419L59.7836 84.339V94.4502L55.7256 98.4531ZM86.076 68.5151H75.8255L79.2619 65.1254H89.5124L86.076 68.5151ZM92.572 62.1074H82.3214L82.3222 62.1067H92.5727" fill="#E2F0F6"/>
<path d="M89.5122 65.1254H79.2617L82.322 62.1067L92.5718 62.1074L89.5122 65.1254Z" fill="#C2CBCF"/>
<path d="M59.7832 94.4502V84.339L63.1632 81.0049H73.4137L71.1166 83.2708H61.9819V91.1735H63.105L59.7832 94.4502ZM76.2127 78.2439V73.1019H71.175L72.7623 71.5362H83.0128L81.4255 73.1019H78.0056V74.5389H79.9687L78.6523 75.8375H78.0056V76.4754L76.2127 78.2439Z" fill="#D1E0E3"/>
<path d="M83.0132 71.5362H72.7627L75.8254 68.5151H86.076L83.0132 71.5362Z" fill="#C3CCD0"/>
<path d="M79.969 74.5389H78.0059V73.1019H81.4258L79.969 74.5389Z" fill="#E6F3F9"/>
<path d="M78.0059 76.4754V75.8375H78.6526L78.0059 76.4754Z" fill="#E6F3F9"/>
<path d="M74.4218 80.0103L69.0974 77.0533L76.2125 73.1019V78.244L74.4218 80.0103ZM64.6846 79.5038L67.8636 76.3682L69.0974 77.0533L64.6846 79.5038Z" fill="#E6F3F9"/>
<path d="M73.4136 81.0049H63.1631L64.6846 79.5038L69.0975 77.0533L74.4219 80.0103L73.4136 81.0049Z" fill="#DBE6EC"/>
<path d="M69.0971 77.0533L67.8633 76.3682L71.1745 73.102H76.2122L69.0971 77.0533Z" fill="#DBE6EC"/>
<path d="M61.9814 91.1735V83.2708H71.1162H61.9814L67.826 86.5162L64.5511 89.7464L61.9814 91.1735Z" fill="#E6F3F9"/>
<path d="M63.1046 91.1735H61.9814L64.5511 89.7464L63.1046 91.1735Z" fill="#DBE6EC"/>
<path d="M67.826 86.5162L61.9814 83.2708H71.1162L67.826 86.5162Z" fill="#DBE6EC"/>
<path d="M99.3601 107.012H79.3252L82.8325 103.553H102.868L99.3601 107.012ZM115.837 90.7612V71.5362V70.9968L119.895 66.9941V86.759L115.837 90.7612Z" fill="#E2F0F6"/>
<path d="M102.868 103.553H82.833L86.2321 100.2H88.9028V98.7632H87.6886L89.0051 97.4646H98.2593V96.0278H90.4619L91.7786 94.7288H111.815L102.868 103.553ZM113.272 93.292H93.2354L101.891 84.7538H114.703V83.3168H103.348L112.247 74.539H114.703V73.102H113.703L115.291 71.5362H115.837V90.7612L113.272 93.292Z" fill="#D1E0E3"/>
<path d="M115.838 71.5362H115.291L115.838 70.9968V71.5362Z" fill="#C3CCD0"/>
<path d="M114.702 74.5389H112.246L113.703 73.1019H114.702V74.5389Z" fill="#E6F3F9"/>
<path d="M114.702 84.7537H101.891L103.347 83.3167H114.702V84.7537Z" fill="#E6F3F9"/>
<path d="M111.814 94.7288H91.7783L93.2351 93.292H113.271L111.814 94.7288Z" fill="#E6F3F9"/>
<path d="M98.2591 97.4646H89.0049L90.4617 96.0278H98.2591V97.4646Z" fill="#E6F3F9"/>
<path d="M88.9021 100.2H86.2314L87.688 98.7632H88.9021V100.2Z" fill="#E6F3F9"/>
<path d="M113.275 107.012H103.026L106.534 103.553H115.837V94.3759L119.895 90.3733V100.485L113.275 107.012Z" fill="#E2F0F6"/>
<path d="M115.837 103.553H106.534L115.837 94.3759V103.553Z" fill="#D1E0E3"/>
<path d="M66.5518 60.8773L85.5764 46.3358C86.779 45.4166 88.4595 45.4166 89.6622 46.3358L108.687 60.8773V85.2465H66.5518V60.8773Z" fill="#F57E24"/>
<path d="M103.813 47.9606H71.4258V83.0936H103.813V47.9606Z" fill="#F9F9F9"/>
<path d="M101.863 50.0754H73.375V51.1467H101.863V50.0754Z" fill="#D5D5D3"/>
<path d="M97.5855 52.2282H73.375V53.2993H97.5855V52.2282Z" fill="#D5D5D3"/>
<path d="M93.657 54.3811H73.375V55.4521H93.657V54.3811Z" fill="#D5D5D3"/>
<path d="M93.657 58.5142H73.375V59.5855H93.657V58.5142Z" fill="#D5D5D3"/>
<path d="M88.4191 60.5809H73.375V61.6522H88.4191V60.5809Z" fill="#D5D5D3"/>
<path d="M102.663 64.911H87.6191V65.9821H102.663V64.911Z" fill="#D5D5D3"/>
<path d="M102.663 67.0202H90.4268V68.0913H102.663V67.0202Z" fill="#D5D5D3"/>
<path d="M87.6195 73.069L66.5518 60.8913V85.2465L87.6195 73.069Z" fill="#F7963A"/>
<path d="M87.6191 73.069L108.687 60.8913V85.2465L87.6191 73.069Z" fill="#F7963A"/>
<path d="M85.5764 70.7052L66.5518 85.2465H108.687L89.6622 70.7052C88.4595 69.786 86.779 69.786 85.5764 70.7052Z" fill="#F9A75B"/>
<path d="M111.982 60.8914C111.982 62.6868 110.507 64.1422 108.687 64.1422C106.867 64.1422 105.392 62.6868 105.392 60.8914C105.392 59.0962 106.867 57.6408 108.687 57.6408C110.507 57.6408 111.982 59.0962 111.982 60.8914Z" fill="#F2545C"/>
<path d="M54.6893 35.5423C54.7433 35.3688 54.717 35.1714 54.6103 34.9497C54.5053 34.7321 54.3674 34.5893 54.1972 34.5211C54.0264 34.4529 53.851 34.4608 53.6716 34.5453C53.4918 34.6295 53.3758 34.758 53.324 34.9306C53.272 35.1034 53.2985 35.2984 53.4033 35.516C53.5083 35.7335 53.6454 35.8778 53.8149 35.9489C53.9844 36.02 54.1589 36.0135 54.3387 35.9293C54.5185 35.8451 54.6353 35.7159 54.6893 35.5423ZM54.3748 32.007C54.9285 32.0287 55.425 32.1812 55.8647 32.4641C56.3041 32.747 56.6424 33.1342 56.8794 33.6259C57.0543 33.9885 57.1461 34.327 57.1549 34.6414C57.1637 34.956 57.0997 35.228 56.9626 35.4579C56.8254 35.6878 56.6262 35.864 56.3647 35.9867C56.1483 36.0883 55.941 36.1309 55.743 36.1152C55.545 36.0994 55.3679 36.0222 55.2106 35.8833C55.1795 36.3276 54.9332 36.6582 54.4717 36.8748C54.2305 36.9878 53.9754 37.0297 53.706 37.0006C53.4364 36.9713 53.1839 36.8712 52.9487 36.6998C52.7131 36.5287 52.5237 36.2942 52.38 35.9958C52.2362 35.6977 52.1705 35.4051 52.1822 35.1179C52.194 34.8309 52.274 34.5758 52.4219 34.3534C52.5701 34.1308 52.7666 33.9618 53.0117 33.8469C53.3711 33.6782 53.7104 33.6598 54.0296 33.792L53.8866 33.4957L54.8853 33.0272L55.7742 34.8705C55.8362 34.9993 55.9054 35.0806 55.9817 35.114C56.058 35.1474 56.1368 35.145 56.2185 35.1067C56.4758 34.986 56.454 34.6133 56.153 33.9889C55.9682 33.6061 55.7133 33.3084 55.3878 33.0955C55.0622 32.8825 54.694 32.7702 54.2823 32.7581C53.8709 32.746 53.4484 32.8416 53.0156 33.0447C52.5868 33.246 52.2497 33.5154 52.0041 33.8527C51.7585 34.1903 51.6212 34.5622 51.592 34.9688C51.5625 35.3754 51.644 35.778 51.8363 36.1769C52.0326 36.5839 52.298 36.9062 52.6334 37.1444C52.9683 37.3825 53.3436 37.5139 53.7587 37.5388C54.1738 37.5638 54.5961 37.4757 55.0252 37.2746C55.4621 37.0696 55.8257 36.7903 56.1159 36.4368L56.6544 36.9772C56.5136 37.1519 56.3257 37.3264 56.0916 37.5004C55.8576 37.6744 55.6098 37.8227 55.3485 37.9454C54.756 38.2232 54.1761 38.3471 53.6084 38.3171C53.0402 38.2871 52.5309 38.1187 52.0797 37.8116C51.6285 37.5045 51.276 37.087 51.0213 36.5592C50.7689 36.0355 50.6656 35.5046 50.7119 34.9666C50.7581 34.4289 50.9504 33.9321 51.2895 33.4766C51.6283 33.0212 52.0959 32.6536 52.6923 32.3738C53.26 32.1076 53.8208 31.9852 54.3748 32.007Z" fill="#A0DEE0"/>
<path d="M109.29 33.1117L108.398 32.9498L108.083 33.9579L108.975 34.1198L109.29 33.1117ZM110.277 33.2908L109.961 34.2989L110.868 34.4635L110.696 35.3865L109.673 35.2009L109.337 36.2422L108.35 36.0631L108.687 35.0218L107.794 34.8599L107.458 35.9012L106.471 35.7221L106.807 34.6808L105.894 34.515L106.066 33.5918L107.096 33.7789L107.411 32.7709L106.497 32.6049L106.67 31.6819L107.7 31.8688L108.036 30.8274L109.023 31.0065L108.686 32.0478L109.578 32.2097L109.915 31.1684L110.902 31.3475L110.565 32.3888L111.479 32.5546L111.307 33.4778L110.277 33.2908Z" fill="#A0DEE0"/>
<path d="M62.9741 95.5668H50.7599C47.0529 95.5668 44.0479 92.6025 44.0479 88.9459C44.0479 85.2893 47.0529 82.325 50.7599 82.325H56.2618C59.9688 82.325 62.9741 85.2893 62.9741 88.9459V95.5668Z" fill="#F9A75B"/>
<path d="M55.5451 92.8123C55.9064 92.1749 56.1427 91.5208 56.2828 90.8715C56.847 90.75 57.3048 90.605 57.6439 90.4768C57.2582 91.4864 56.5063 92.3184 55.5451 92.8123ZM52.4212 93.1664C51.8361 92.4007 51.46 91.6282 51.2373 90.8766C52.1747 91.0542 53.037 91.128 53.8096 91.128C54.4651 91.128 55.0556 91.0767 55.5804 90.9988C55.3868 91.7403 55.0515 92.4822 54.5198 93.1867C54.195 93.2622 53.8582 93.306 53.5105 93.306C53.1342 93.306 52.7706 93.2545 52.4212 93.1664ZM49.3472 90.3964C49.7527 90.5259 50.1455 90.6334 50.5285 90.7246C50.687 91.3877 50.9514 92.0674 51.3523 92.7472C50.4252 92.233 49.7071 91.3983 49.3472 90.3964ZM51.1838 85.2457C50.9946 85.6588 50.7841 86.1985 50.6185 86.8284C50.1642 86.9317 49.7837 87.0491 49.4834 87.158C49.8462 86.3662 50.4416 85.7014 51.1838 85.2457ZM54.6876 84.7474C54.799 84.9599 55.1682 85.7053 55.4521 86.7372C53.7978 86.4627 52.3996 86.5206 51.3109 86.6948C51.6035 85.7343 51.9953 85.0465 52.1465 84.8004C52.5765 84.6625 53.0343 84.5855 53.5105 84.5855C53.9185 84.5855 54.3123 84.6448 54.6876 84.7474ZM57.5821 87.2487C57.0904 87.0948 56.615 86.9695 56.1572 86.8707C55.9788 86.1423 55.7516 85.5272 55.5662 85.0889C56.4651 85.5572 57.1829 86.3202 57.5821 87.2487ZM56.3041 87.5694C56.7916 87.6836 57.2994 87.8291 57.8254 88.0098C57.8929 88.3119 57.9307 88.6243 57.9307 88.9459C57.9307 89.1971 57.9042 89.4417 57.8627 89.6816C57.6265 89.7917 57.127 89.9988 56.3986 90.1738C56.5068 89.2552 56.4445 88.3653 56.3041 87.5694ZM51.1318 87.392C52.2505 87.1827 53.7733 87.0854 55.616 87.424C55.7924 88.2884 55.8772 89.2861 55.7222 90.3117C54.5512 90.5116 52.9715 90.5791 51.0707 90.1832C50.8859 89.1683 50.9568 88.2131 51.1318 87.392ZM49.0903 88.9459C49.0903 88.6105 49.1328 88.285 49.2056 87.9714C49.4377 87.8661 49.8629 87.695 50.4618 87.5401C50.3268 88.2935 50.2765 89.1378 50.3987 90.0279C49.9966 89.9243 49.5805 89.798 49.1534 89.6499C49.1154 89.4202 49.0903 89.186 49.0903 88.9459ZM53.5105 83.9396C50.7122 83.9396 48.4355 86.1856 48.4355 88.9459C48.4355 91.7061 50.7122 93.9517 53.5105 93.9517C56.309 93.9517 58.5855 91.7061 58.5855 88.9459C58.5855 86.1856 56.309 83.9396 53.5105 83.9396Z" fill="#F9F9F9"/>
<path d="M111.025 103.741H123.24C126.946 103.741 129.951 100.777 129.951 97.1197C129.951 93.4633 126.946 90.4991 123.24 90.4991H117.737C114.031 90.4991 111.025 93.4633 111.025 97.1197V103.741Z" fill="#F9A75B"/>
<path d="M125.514 95.2176H125.982C125.982 94.797 125.861 94.3948 125.66 94.0366C125.357 93.4991 124.878 93.0534 124.309 92.7346C123.739 92.4169 123.074 92.2257 122.383 92.2252C121.637 92.2238 120.858 92.4563 120.193 92.9938L120.488 93.351L120.784 92.9938C120.119 92.4563 119.34 92.2238 118.594 92.2252C117.673 92.2269 116.797 92.5633 116.132 93.0945C115.8 93.3609 115.519 93.6782 115.317 94.0366C115.116 94.3945 114.995 94.797 114.995 95.2176H115.463L115.002 95.1382C114.998 95.1609 114.973 95.3144 114.973 95.5694C114.972 96.1251 115.097 97.1709 115.834 98.3573C116.57 99.5441 117.913 100.856 120.288 101.97C120.414 102.029 120.563 102.029 120.689 101.97C123.064 100.856 124.407 99.5441 125.143 98.3573C125.881 97.1709 126.005 96.1251 126.005 95.5694C126.005 95.3144 125.979 95.1609 125.975 95.1384L125.514 95.2176H125.982H125.514L125.054 95.2967L125.2 95.2718L125.053 95.294L125.054 95.2967L125.2 95.2718L125.053 95.294C125.055 95.3011 125.07 95.3995 125.07 95.5694C125.069 95.9946 124.978 96.8569 124.346 97.8755C123.713 98.8933 122.531 100.083 120.288 101.137L120.488 101.553L120.689 101.137C118.446 100.083 117.265 98.8933 116.631 97.8755C115.999 96.8569 115.908 95.9946 115.908 95.5694C115.908 95.4724 115.913 95.3986 115.917 95.3519C115.919 95.3286 115.921 95.3119 115.923 95.3025L115.924 95.294L115.777 95.2718L115.923 95.2969L115.924 95.294L115.777 95.2718L115.923 95.2969C115.928 95.2701 115.93 95.2447 115.93 95.2176C115.93 94.9722 116 94.7251 116.136 94.4836C116.337 94.1218 116.691 93.7808 117.129 93.5374C117.566 93.2929 118.081 93.147 118.594 93.1475C119.15 93.1489 119.699 93.3118 120.193 93.7082C120.364 93.8464 120.613 93.8464 120.784 93.7082C121.278 93.3118 121.827 93.1489 122.383 93.1475C123.066 93.1458 123.756 93.4089 124.256 93.8106C124.506 94.0105 124.707 94.2425 124.842 94.4836C124.977 94.7251 125.047 94.9722 125.047 95.2176C125.047 95.2447 125.049 95.2698 125.054 95.2967L125.514 95.2176Z" fill="#F9F9F9"/>
<path d="M107.017 16.307C106.939 16.2777 106.861 16.253 106.783 16.2319C106.762 16.156 106.737 16.08 106.708 16.0042C106.583 15.6988 106.419 15.3939 106.089 15.0887C105.759 15.3939 105.595 15.6988 105.47 16.0042C105.44 16.0807 105.415 16.1574 105.393 16.2339C105.316 16.2552 105.238 16.2801 105.161 16.3091C104.851 16.4326 104.542 16.5942 104.232 16.9197C104.542 17.2452 104.851 17.4069 105.161 17.5303C105.238 17.5593 105.315 17.584 105.391 17.605C105.413 17.6815 105.438 17.7585 105.467 17.8352C105.592 18.1404 105.757 18.4455 106.089 18.7507C106.421 18.4455 106.585 18.1404 106.71 17.8352C106.739 17.7592 106.764 17.683 106.786 17.607C106.862 17.5862 106.94 17.5612 107.017 17.5324C107.326 17.4095 107.636 17.2471 107.945 16.9197C107.636 16.5923 107.326 16.4299 107.017 16.307Z" fill="#A0DEE0"/>
<path d="M23.5167 67.512C23.4388 67.4827 23.361 67.4578 23.2832 67.4367C23.2618 67.361 23.2368 67.285 23.2075 67.2092C23.0825 66.9038 22.9185 66.5987 22.5885 66.2935C22.2587 66.5987 22.0946 66.9038 21.9697 67.2092C21.94 67.2857 21.9147 67.3622 21.8933 67.4389C21.8158 67.4599 21.7382 67.4849 21.6606 67.5139C21.3511 67.6373 21.0418 67.7992 20.7324 68.1247C21.0418 68.4502 21.3511 68.6119 21.6606 68.735C21.7374 68.7638 21.8143 68.7888 21.8912 68.8098C21.9125 68.8865 21.9378 68.9635 21.9674 69.04C22.0921 69.3454 22.2567 69.6505 22.5885 69.9554C22.9205 69.6505 23.085 69.3454 23.2098 69.04C23.239 68.9642 23.2641 68.888 23.2853 68.812C23.3624 68.7909 23.4395 68.7663 23.5167 68.7372C23.826 68.6143 24.1355 68.4519 24.4448 68.1247C24.1355 67.797 23.826 67.6347 23.5167 67.512Z" fill="#A0DEE0"/>
<path d="M113.415 52.6866C113.337 52.6575 113.259 52.6326 113.182 52.6116C113.16 52.5356 113.135 52.4598 113.106 52.3839C112.981 52.0787 112.817 51.7735 112.487 51.4684C112.157 51.7735 111.993 52.0787 111.868 52.3839C111.838 52.4603 111.813 52.537 111.792 52.6138C111.714 52.6348 111.636 52.6597 111.559 52.6888C111.249 52.8122 110.94 52.9738 110.631 53.2993C110.94 53.6248 111.249 53.7867 111.559 53.9099C111.636 53.9389 111.713 53.9636 111.79 53.9847C111.811 54.0614 111.836 54.1381 111.866 54.2148C111.99 54.52 112.155 54.8251 112.487 55.1303C112.819 54.8251 112.983 54.52 113.108 54.2148C113.137 54.1388 113.162 54.0626 113.184 53.9866C113.261 53.9658 113.338 53.9409 113.415 53.9121C113.725 53.7891 114.034 53.6268 114.343 53.2993C114.034 52.9722 113.725 52.8098 113.415 52.6866Z" fill="#A0DEE0"/>
<path d="M145.707 21.0473C145.668 21.0328 145.629 21.0204 145.59 21.0098C145.579 20.9718 145.567 20.9335 145.552 20.8955C145.489 20.7426 145.407 20.5899 145.242 20.4367C145.076 20.5899 144.994 20.7426 144.931 20.8955C144.917 20.934 144.904 20.9723 144.893 21.0107C144.854 21.0214 144.815 21.0337 144.777 21.0485C144.621 21.1102 144.466 21.1913 144.312 21.3546C144.466 21.5177 144.621 21.5985 144.777 21.6605C144.815 21.675 144.854 21.6874 144.892 21.698C144.903 21.7362 144.916 21.775 144.93 21.8132C144.993 21.9664 145.075 22.1193 145.242 22.2723C145.408 22.1193 145.491 21.9664 145.553 21.8132C145.568 21.7752 145.58 21.737 145.591 21.699C145.63 21.6883 145.668 21.676 145.707 21.6617C145.862 21.6 146.017 21.5187 146.172 21.3546C146.017 21.1903 145.862 21.109 145.707 21.0473Z" fill="#C6ECF1"/>
<path d="M155.263 48.2916C155.225 48.2771 155.186 48.2645 155.147 48.2538C155.136 48.2159 155.123 48.1779 155.109 48.1399C155.046 47.9869 154.964 47.834 154.798 47.681C154.633 47.834 154.551 47.9869 154.488 48.1399C154.473 48.1781 154.461 48.2166 154.45 48.2551C154.411 48.2655 154.372 48.278 154.333 48.2928C154.178 48.3545 154.023 48.4356 153.868 48.5987C154.023 48.7618 154.178 48.8429 154.333 48.9046C154.372 48.9193 154.41 48.9317 154.449 48.9421C154.46 48.9806 154.472 49.019 154.487 49.0575C154.549 49.2105 154.632 49.3634 154.798 49.5164C154.965 49.3634 155.047 49.2105 155.11 49.0575C155.125 49.0195 155.137 48.9813 155.148 48.9433C155.186 48.9327 155.225 48.9203 155.263 48.9058C155.419 48.8441 155.574 48.7628 155.729 48.5987C155.574 48.4346 155.419 48.3533 155.263 48.2916Z" fill="#C6ECF1"/>
<path d="M154.899 47.6535C154.86 47.6387 154.821 47.6264 154.782 47.6157C154.771 47.5777 154.759 47.5397 154.744 47.5017C154.681 47.3488 154.599 47.1958 154.433 47.0429C154.268 47.1958 154.186 47.3488 154.123 47.5017C154.108 47.54 154.096 47.5785 154.085 47.6169C154.046 47.6273 154.007 47.6399 153.968 47.6544C153.813 47.7164 153.658 47.7975 153.503 47.9606C153.658 48.1237 153.813 48.2047 153.968 48.2665C154.007 48.281 154.045 48.2936 154.084 48.304C154.095 48.3424 154.107 48.3809 154.122 48.4194C154.185 48.5723 154.267 48.7253 154.433 48.8782C154.6 48.7253 154.682 48.5723 154.745 48.4194C154.76 48.3812 154.772 48.3432 154.783 48.3049C154.821 48.2945 154.86 48.2822 154.899 48.2677C155.054 48.206 155.209 48.1246 155.364 47.9606C155.209 47.7965 155.054 47.7149 154.899 47.6535Z" fill="#C6ECF1"/>
<path d="M42.8701 55.9785C42.8311 55.964 42.792 55.9516 42.753 55.941C42.7425 55.903 42.7297 55.865 42.715 55.8267C42.6525 55.674 42.5703 55.5209 42.4049 55.3679C42.2396 55.5209 42.1574 55.674 42.0948 55.8267C42.0798 55.8652 42.0671 55.9037 42.0565 55.9419C42.0175 55.9526 41.9785 55.9652 41.9398 55.9797C41.7847 56.0416 41.6297 56.1227 41.4746 56.2856C41.6297 56.4487 41.7847 56.53 41.9398 56.5917C41.9783 56.6062 42.0168 56.6186 42.0553 56.629C42.0661 56.6677 42.0786 56.7062 42.0936 56.7444C42.1561 56.8976 42.2386 57.0505 42.4049 57.2032C42.5712 57.0505 42.6537 56.8976 42.7162 56.7444C42.731 56.7064 42.7435 56.6684 42.754 56.6302C42.7928 56.6198 42.8315 56.6074 42.8701 56.5927C43.0251 56.5312 43.1802 56.4499 43.3352 56.2856C43.1802 56.1218 43.0251 56.0402 42.8701 55.9785Z" fill="#A0DEE0"/>
<path d="M25.8123 104.353C25.7736 104.339 25.7346 104.326 25.6956 104.316C25.6848 104.278 25.6723 104.24 25.6575 104.202C25.595 104.049 25.5128 103.896 25.3472 103.743C25.1821 103.896 25.0999 104.049 25.0371 104.202C25.0224 104.24 25.0096 104.278 24.9988 104.317C24.9601 104.327 24.9211 104.34 24.882 104.354C24.7272 104.416 24.5719 104.497 24.417 104.66C24.5719 104.824 24.7272 104.905 24.882 104.967C24.9208 104.981 24.9593 104.993 24.9978 105.004C25.0086 105.043 25.0211 105.081 25.0359 105.119C25.0984 105.272 25.1811 105.425 25.3472 105.578C25.5138 105.425 25.5962 105.272 25.6585 105.119C25.6732 105.081 25.686 105.043 25.6966 105.005C25.7351 104.994 25.7738 104.982 25.8123 104.967C25.9676 104.906 26.1227 104.824 26.2777 104.66C26.1227 104.497 25.9676 104.415 25.8123 104.353Z" fill="#A0DEE0"/>
<path d="M91.8222 31.6974C91.7832 31.6827 91.7444 31.6703 91.7052 31.6599C91.6946 31.6217 91.6821 31.5837 91.6674 31.5457C91.6046 31.3927 91.5224 31.2398 91.3571 31.0869C91.1917 31.2398 91.1095 31.3927 91.047 31.5457C91.032 31.5842 91.0192 31.6224 91.0087 31.6609C90.9697 31.6715 90.9309 31.6839 90.8919 31.6986C90.7369 31.7603 90.5818 31.8414 90.4268 32.0045C90.5818 32.1676 90.7369 32.2487 90.8919 32.3106C90.9307 32.3252 90.9689 32.3373 91.0077 32.3479C91.0183 32.3864 91.031 32.4249 91.0457 32.4633C91.1083 32.6163 91.1907 32.7692 91.3571 32.9222C91.5234 32.7692 91.6061 32.6163 91.6684 32.4633C91.6831 32.4254 91.6956 32.3871 91.7064 32.3489C91.7449 32.3385 91.7837 32.3261 91.8222 32.3116C91.9773 32.2499 92.1326 32.1686 92.2874 32.0045C92.1326 31.8404 91.9773 31.7591 91.8222 31.6974Z" fill="#A0DEE0"/>
<path d="M46.7673 16.1219C46.7285 16.1073 46.6895 16.0948 46.6503 16.0844C46.6397 16.0464 46.6272 16.0081 46.6125 15.9701C46.5497 15.8174 46.4675 15.6645 46.3021 15.5113C46.137 15.6645 46.0546 15.8174 45.992 15.9701C45.9773 16.0086 45.9645 16.0471 45.9538 16.0853C45.9147 16.096 45.876 16.1083 45.837 16.1231C45.6819 16.1848 45.5269 16.2658 45.3721 16.429C45.5269 16.5921 45.6819 16.6734 45.837 16.7351C45.8757 16.7496 45.914 16.7619 45.9528 16.7723C45.9636 16.8108 45.9761 16.8493 45.9908 16.888C46.0534 17.0407 46.1358 17.1937 46.3021 17.3469C46.4687 17.1937 46.5511 17.0407 46.6137 16.888C46.6284 16.8498 46.6407 16.8116 46.6515 16.7736C46.6902 16.7632 46.7288 16.7506 46.7673 16.7363C46.9226 16.6746 47.0776 16.593 47.2324 16.429C47.0776 16.2651 46.9226 16.1836 46.7673 16.1219Z" fill="#A0DEE0"/>
<path d="M143.05 57.3802C143.011 57.3654 142.972 57.3531 142.933 57.3426C142.922 57.3044 142.909 57.2664 142.895 57.2284C142.832 57.0755 142.75 56.9225 142.585 56.7696C142.419 56.9225 142.337 57.0755 142.274 57.2284C142.259 57.2667 142.247 57.3051 142.236 57.3436C142.197 57.354 142.158 57.3666 142.119 57.3811C141.964 57.4431 141.809 57.5241 141.654 57.6873C141.809 57.8504 141.964 57.9314 142.119 57.9934C142.158 58.0077 142.197 58.02 142.235 58.0307C142.246 58.0691 142.258 58.1076 142.273 58.1461C142.336 58.299 142.418 58.452 142.585 58.6049C142.751 58.452 142.833 58.299 142.896 58.1461C142.911 58.1081 142.923 58.0699 142.934 58.0316C142.972 58.0212 143.011 58.0089 143.05 57.9944C143.205 57.9326 143.36 57.8513 143.515 57.6873C143.36 57.5232 143.205 57.4419 143.05 57.3802Z" fill="#A0DEE0"/>
<path d="M97.01 41.3535C96.9709 41.3387 96.9319 41.3264 96.8929 41.3157C96.8821 41.2777 96.8699 41.2397 96.8549 41.2018C96.7923 41.0488 96.7102 40.8959 96.5446 40.7429C96.3795 40.8959 96.2973 41.0488 96.2347 41.2018C96.2197 41.2402 96.207 41.2785 96.1962 41.3167C96.1574 41.3274 96.1184 41.3399 96.0797 41.3545C95.9246 41.4164 95.7696 41.4975 95.6143 41.6606C95.7696 41.8237 95.9246 41.9048 96.0797 41.9665C96.1182 41.981 96.1567 41.9933 96.1955 42.004C96.206 42.0425 96.2185 42.0809 96.2335 42.1194C96.296 42.2724 96.3785 42.4253 96.5446 42.5782C96.7111 42.4253 96.7936 42.2724 96.8561 42.1194C96.8709 42.0812 96.8834 42.0432 96.8939 42.005C96.9324 41.9945 96.9714 41.982 97.01 41.9677C97.165 41.906 97.3201 41.8247 97.4751 41.6606C97.3201 41.4965 97.165 41.4152 97.01 41.3535Z" fill="#C6ECF1"/>
<path d="M79.4709 23.1955C79.4024 23.1698 79.3342 23.1481 79.2658 23.1297C79.2471 23.0629 79.2251 22.9961 79.1993 22.9295C79.0894 22.6611 78.9451 22.393 78.6551 22.1246C78.3652 22.393 78.2209 22.6611 78.111 22.9295C78.085 22.9968 78.0627 23.0641 78.044 23.1314C77.9756 23.15 77.9076 23.1718 77.8392 23.1974C77.5673 23.3058 77.2955 23.4481 77.0234 23.7342C77.2955 24.0202 77.5673 24.1625 77.8392 24.2709C77.9069 24.2963 77.9746 24.3181 78.0421 24.3365C78.061 24.404 78.083 24.4716 78.109 24.5388C78.2187 24.8072 78.3634 25.0756 78.6551 25.3437C78.9469 25.0756 79.0916 24.8072 79.2013 24.5388C79.227 24.472 79.2489 24.4052 79.2677 24.3385C79.3355 24.3201 79.4032 24.2983 79.4709 24.2729C79.743 24.1647 80.0148 24.0219 80.2869 23.7342C80.0148 23.4464 79.743 23.3037 79.4709 23.1955Z" fill="#A0DEE0"/>
<path d="M37.8215 42.7341C37.753 42.7087 37.6846 42.6867 37.6161 42.6683C37.5975 42.6015 37.5754 42.5349 37.5496 42.4681C37.4397 42.1998 37.2957 41.9316 37.0055 41.6635C36.7155 41.9316 36.5713 42.1998 36.4616 42.4681C36.4356 42.5354 36.4133 42.6027 36.3944 42.67C36.3262 42.6886 36.258 42.7106 36.1898 42.7363C35.9177 42.8444 35.6459 42.9867 35.374 43.2728C35.6459 43.5591 35.9177 43.7011 36.1898 43.8095C36.2575 43.835 36.3249 43.8567 36.3926 43.8754C36.4113 43.9426 36.4334 44.0102 36.4594 44.0777C36.569 44.3461 36.7138 44.6142 37.0055 44.8823C37.2972 44.6142 37.4419 44.3461 37.5516 44.0777C37.5774 44.0109 37.5994 43.9439 37.6181 43.8771C37.6858 43.8587 37.7535 43.8369 37.8215 43.8115C38.0935 43.7033 38.3654 43.5608 38.6372 43.2728C38.3654 42.9853 38.0935 42.8425 37.8215 42.7341Z" fill="#A0DEE0"/>
<path d="M125.85 36.234C125.781 36.2083 125.713 36.1865 125.645 36.1679C125.626 36.1014 125.604 36.0346 125.578 35.9678C125.468 35.6996 125.324 35.4313 125.034 35.1631C124.744 35.4313 124.6 35.6996 124.49 35.9678C124.464 36.035 124.442 36.1026 124.423 36.1696C124.355 36.1882 124.287 36.2103 124.218 36.2359C123.946 36.3443 123.674 36.4866 123.402 36.7727C123.674 37.0587 123.946 37.201 124.218 37.3092C124.286 37.3346 124.353 37.3566 124.421 37.375C124.44 37.4425 124.462 37.51 124.488 37.5773C124.598 37.8457 124.742 38.1138 125.034 38.3822C125.326 38.1138 125.47 37.8457 125.58 37.5773C125.606 37.5105 125.628 37.4437 125.646 37.3767C125.714 37.3585 125.782 37.3368 125.85 37.3114C126.122 37.2032 126.394 37.0604 126.666 36.7727C126.394 36.4849 126.122 36.3421 125.85 36.234Z" fill="#C6ECF1"/>
<path d="M166.621 27.1938C166.553 27.1682 166.484 27.1464 166.416 27.128C166.397 27.0612 166.375 26.9944 166.35 26.9276C166.24 26.6595 166.096 26.3911 165.805 26.123C165.515 26.3911 165.371 26.6595 165.261 26.9276C165.235 26.9951 165.213 27.0624 165.194 27.1297C165.126 27.1483 165.058 27.1701 164.99 27.1957C164.717 27.3042 164.446 27.4465 164.174 27.7325C164.446 28.0185 164.717 28.1608 164.99 28.2693C165.057 28.2947 165.125 28.3164 165.192 28.3348C165.211 28.4024 165.233 28.4699 165.259 28.5371C165.369 28.8055 165.514 29.0739 165.805 29.342C166.097 29.0739 166.242 28.8055 166.351 28.5371C166.377 28.4704 166.399 28.4036 166.418 28.3365C166.486 28.3184 166.554 28.2966 166.621 28.2712C166.893 28.163 167.165 28.0202 167.437 27.7325C167.165 27.4448 166.893 27.302 166.621 27.1938Z" fill="#C6ECF1"/>
<path d="M123.845 14.7715C123.776 14.7458 123.708 14.724 123.64 14.7054C123.621 14.6389 123.599 14.5721 123.573 14.5053C123.463 14.2371 123.319 13.9688 123.029 13.7006C122.739 13.9688 122.595 14.2371 122.485 14.5053C122.459 14.5728 122.437 14.6401 122.418 14.7073C122.35 14.7257 122.282 14.7478 122.213 14.7734C121.941 14.8818 121.67 15.0241 121.397 15.3102C121.67 15.5962 121.941 15.7385 122.213 15.8469C122.281 15.8723 122.349 15.8941 122.416 15.9125C122.435 15.98 122.457 16.0473 122.483 16.1148C122.593 16.3832 122.737 16.6513 123.029 16.9197C123.321 16.6513 123.466 16.3832 123.575 16.1148C123.601 16.048 123.623 15.981 123.642 15.9144C123.709 15.896 123.777 15.8743 123.845 15.8489C124.117 15.7407 124.389 15.5979 124.661 15.3102C124.389 15.0224 124.117 14.8796 123.845 14.7715Z" fill="#C6ECF1"/>
</svg>
