<svg xmlns="http://www.w3.org/2000/svg" viewBox="0 0 142.07 129.51"><defs><style>.cls-1{fill:#96b9d7;}.cls-2{fill:#acd4f7;}.cls-3{fill:#dedede;}.cls-4,.cls-6{fill:none;}.cls-4,.cls-5,.cls-6,.cls-7{stroke:#000;stroke-miterlimit:10;}.cls-4,.cls-5{stroke-width:2px;}.cls-5,.cls-7{fill:#fff;}.cls-6,.cls-7{stroke-linecap:round;stroke-width:0.75px;}</style></defs><g id="Layer_2" data-name="Layer 2"><g id="Layer_1-2" data-name="Layer 1"><path class="cls-1" d="M83.51,68.12A22.08,22.08,0,0,1,42.37,79.27,22.08,22.08,0,0,0,77.48,53,22,22,0,0,1,83.51,68.12Z"/><path class="cls-2" d="M80.51,64.12A22.08,22.08,0,0,1,42.37,79.27,22.08,22.08,0,0,1,77.48,53,21.89,21.89,0,0,1,80.51,64.12Z"/><path class="cls-3" d="M120.93,68.16A60.37,60.37,0,0,1,20.47,113.31,60.38,60.38,0,0,0,95.63,19,60.3,60.3,0,0,1,120.93,68.16Z"/><path class="cls-3" d="M102.59,68.7A41.23,41.23,0,0,1,30.27,95.78,41.23,41.23,0,0,0,88.44,37.61,41.11,41.11,0,0,1,102.59,68.7Z"/><circle class="cls-4" cx="61.38" cy="68.13" r="60.38"/><circle class="cls-4" cx="61.38" cy="68.13" r="41.23"/><circle class="cls-4" cx="61.38" cy="68.13" r="22.09"/><polygon class="cls-5" points="101.21 36.02 101.21 20.47 122.92 2.42 120.36 20.57 138.23 22.08 117.3 39.62 101.21 36.02"/><line class="cls-4" x1="61.38" y1="68.13" x2="132.11" y2="11.1"/><polygon class="cls-5" points="106.47 68.29 113.4 57.02 137.17 53.6 127.23 65.62 139.52 74.68 116.53 78.07 106.47 68.29"/><line class="cls-4" x1="63.29" y1="73.84" x2="139.96" y2="63.99"/><line class="cls-6" x1="24.32" y1="73.84" x2="32.66" y2="93.2"/><line class="cls-6" x1="25.17" y1="61.37" x2="43.21" y2="102.73"/><line class="cls-6" x1="28.49" y1="53.6" x2="48.83" y2="104.6"/><line class="cls-6" x1="30.96" y1="47.24" x2="36.74" y2="60"/><line class="cls-6" x1="50.36" y1="93.2" x2="56.32" y2="106.3"/><line class="cls-6" x1="35.55" y1="42.13" x2="40.49" y2="54.56"/><line class="cls-6" x1="56.32" y1="94.56" x2="61.38" y2="106.3"/><line class="cls-6" x1="40.49" y1="38.39" x2="44.57" y2="48.34"/><line class="cls-6" x1="62.62" y1="94.56" x2="68.23" y2="106.3"/><line class="cls-6" x1="46.79" y1="35.15" x2="50.36" y2="45.37"/><line class="cls-6" x1="68.23" y1="94.05" x2="73.17" y2="104.6"/><line class="cls-6" x1="53.34" y1="32.77" x2="56.32" y2="43.37"/><line class="cls-6" x1="74.53" y1="92.17" x2="79.13" y2="102.73"/><line class="cls-6" x1="59.55" y1="30.9" x2="63.29" y2="43.37"/><line class="cls-6" x1="79.13" y1="88.77" x2="83.47" y2="99.32"/><line class="cls-6" x1="65.43" y1="30.9" x2="69.94" y2="44.34"/><line class="cls-6" x1="82.19" y1="82.81" x2="87.64" y2="95.41"/><line class="cls-6" x1="73.17" y1="32.77" x2="79.13" y2="49.45"/><line class="cls-6" x1="82.19" y1="56.26" x2="86.62" y2="67.33"/><line class="cls-6" x1="89.51" y1="73.84" x2="94.79" y2="86.22"/><line class="cls-6" x1="80.49" y1="35.15" x2="84.4" y2="46.05"/><line class="cls-6" x1="86.62" y1="52.98" x2="92.15" y2="66.13"/><line class="cls-6" x1="94.79" y1="72.77" x2="98.02" y2="80.03"/><line class="cls-7" x1="92.15" y1="48.34" x2="98.87" y2="65.11"/></g></g></svg>