<svg width="136" height="80" viewBox="0 0 136 102" fill="none" xmlns="http://www.w3.org/2000/svg">
<g clip-path="url(#clip0_344_327)">
<path d="M0 89.7053H136V89.6369H0V89.7053Z" fill="#EEEEEE"/>
<path d="M113.364 94.043H122.373V94.1115H113.364V94.043Z" fill="#EEEEEE"/>
<path d="M87.7275 94.8542H90.092V94.7858H87.7275V94.8542Z" fill="#EEEEEE"/>
<path d="M107.871 91.5008H113.091V91.5693H107.871V91.5008" fill="#EEEEEE"/>
<path d="M14.2686 92.0294H26.0172V91.961H14.2686V92.0294Z" fill="#EEEEEE"/>
<path d="M28.4395 92.0294H30.1621V91.961H28.4395V92.0294Z" fill="#EEEEEE"/>
<path d="M35.7598 93.1851H61.2396V93.1167H35.7598V93.1851Z" fill="#EEEEEE"/>
<path d="M11.9451 0.0687045C11.1266 0.0687045 10.4606 0.73884 10.4606 1.56254V75.8656C10.4606 76.6895 11.1266 77.3597 11.9451 77.3597H64.4681C65.2863 77.3597 65.9524 76.6895 65.9524 75.8656V1.56254C65.9524 0.73884 65.2863 0.0687045 64.4681 0.0687045H11.9451ZM64.4681 77.4281H11.9451C11.0891 77.4281 10.3926 76.7274 10.3926 75.8656V1.56254C10.3926 0.701337 11.0891 0.000268367 11.9451 0.000268367H64.4681C65.3238 0.000268367 66.0204 0.701337 66.0204 1.56254V75.8656C66.0204 76.7274 65.3238 77.4281 64.4681 77.4281Z" fill="#EEEEEE"/>
<path d="M70.7779 0.0687045C69.9594 0.0687045 69.2936 0.73884 69.2936 1.56254V75.8656C69.2936 76.6895 69.9594 77.3597 70.7779 77.3597H123.301C124.119 77.3597 124.785 76.6895 124.785 75.8656V1.56254C124.785 0.73884 124.119 0.0687045 123.301 0.0687045H70.7779ZM123.301 77.4281H70.7779C69.9219 77.4281 69.2256 76.7274 69.2256 75.8656V1.56254C69.2256 0.701337 69.9219 0.000268367 70.7779 0.000268367H123.301C124.157 0.000268367 124.853 0.701337 124.853 1.56254V75.8656C124.853 76.7274 124.157 77.4281 123.301 77.4281Z" fill="#EEEEEE"/>
<path d="M102.528 25.5505C102.528 31.8316 97.4683 36.9235 91.2273 36.9235C84.9862 36.9235 79.9268 31.8316 79.9268 25.5505C79.9268 19.2695 84.9862 14.1775 91.2273 14.1775C97.4683 14.1775 102.528 19.2695 102.528 25.5505Z" fill="#F8F8F9"/>
<path d="M111.397 23.3085C111.397 22.2855 110.573 21.4561 109.556 21.4561C109.373 21.4561 109.195 21.484 109.028 21.5344C109.055 21.3485 109.069 21.1588 109.069 20.9658C109.069 18.7991 107.324 17.0428 105.171 17.0428C104.926 17.0428 104.686 17.0666 104.453 17.1104C103.854 16.1235 102.777 15.4627 101.544 15.4627C99.6777 15.4627 98.1637 16.9719 98.136 18.8437L98.0792 18.8407C96.3449 18.8407 94.9395 20.2557 94.9395 22.0008C94.9395 23.7462 96.3449 25.1609 98.0792 25.1609H109.611L109.608 25.1585C110.6 25.1306 111.397 24.314 111.397 23.3085" fill="#EEEEEE"/>
<path d="M82.3111 33.503C82.3111 32.4801 81.487 31.6506 80.4705 31.6506C80.2866 31.6506 80.1096 31.6785 79.942 31.7289C79.969 31.5433 79.9834 31.3536 79.9834 31.1603C79.9834 28.9936 78.2382 27.2373 76.0856 27.2373C75.84 27.2373 75.6004 27.2614 75.3675 27.3049C74.7683 26.3181 73.6915 25.6572 72.4582 25.6572C70.592 25.6572 69.0778 27.1664 69.0503 29.0383L68.9935 29.0353C67.2592 29.0353 65.8535 30.4502 65.8535 32.1954C65.8535 33.9408 67.2592 35.3555 68.9935 35.3555H80.5246L80.5225 35.353C81.5147 35.3251 82.3111 34.5085 82.3111 33.503Z" fill="#EEEEEE"/>
<path d="M31.5399 37.0087C31.5399 35.9857 30.7157 35.1562 29.6992 35.1562C29.5154 35.1562 29.338 35.1841 29.1705 35.2345C29.1974 35.0489 29.2118 34.8589 29.2118 34.6659C29.2118 32.4993 27.4667 30.7429 25.314 30.7429C25.0686 30.7429 24.8288 30.767 24.5959 30.8105C23.9969 29.8237 22.92 29.1629 21.6868 29.1629C19.8204 29.1629 18.3065 30.672 18.2789 32.5439L18.2219 32.5409C16.4878 32.5409 15.082 33.9559 15.082 35.701C15.082 37.4464 16.4878 38.8611 18.2219 38.8611H29.7534L29.7509 38.8586C30.7432 38.8307 31.5399 38.0141 31.5399 37.0087" fill="#EEEEEE"/>
<path d="M110.333 45.8478C110.333 45.2297 109.835 44.7285 109.221 44.7285C109.109 44.7285 109.002 44.7452 108.901 44.7756C108.917 44.6633 108.926 44.5486 108.926 44.432C108.926 43.1224 107.871 42.0608 106.57 42.0608C106.422 42.0608 106.277 42.0753 106.136 42.1016C105.774 41.5054 105.123 41.106 104.378 41.106C103.25 41.106 102.335 42.0181 102.318 43.1495L102.283 43.1476C101.235 43.1476 100.386 44.0028 100.386 45.0575C100.386 46.1125 101.235 46.9677 102.283 46.9677H109.253L109.252 46.9661C109.852 46.9491 110.333 46.4558 110.333 45.8478" fill="#EEEEEE"/>
<path d="M43.0925 9.84468C43.0925 9.22629 42.5945 8.72506 41.9801 8.72506C41.8691 8.72506 41.7619 8.74204 41.6607 8.77243C41.6771 8.66019 41.6858 8.54549 41.6858 8.4286C41.6858 7.11928 40.6309 6.05769 39.3297 6.05769C39.1815 6.05769 39.0365 6.07193 38.8956 6.09848C38.5336 5.50199 37.8827 5.1026 37.1374 5.1026C36.0094 5.1026 35.0944 6.01472 35.0775 7.1461L35.0433 7.14446C33.9952 7.14446 33.1455 7.99937 33.1455 9.05438C33.1455 10.1091 33.9952 10.9643 35.0433 10.9643H42.0127L42.0116 10.9627C42.6114 10.946 43.0925 10.4524 43.0925 9.84468" fill="#EEEEEE"/>
<path d="M24.4414 51.6592L31.8077 85.3303L33.1462 84.6988L25.4104 51.4686L24.4414 51.6592Z" fill="#EEEEEE"/>
<path d="M109.012 85.1688C109.012 85.1688 104.459 53.5302 114.709 20.8073L113.101 19.5585C113.101 19.5585 101.088 44.3056 102.837 86.0565L109.012 85.1688Z" fill="#E9E9E8"/>
<path d="M117.499 12.2164C121.258 9.73791 126.821 13.6826 127.584 19.8459C127.584 19.8459 126.935 19.443 125.859 19.0209C125.567 17.4709 125.287 16.0978 125.287 16.0978L125.486 18.8813C125.156 18.7622 124.795 18.6453 124.404 18.5385L124.144 17.0403L124.022 18.4389C123.52 18.3171 122.978 18.2169 122.406 18.1509L121.704 13.7803L121.34 18.0748C120.802 18.06 120.245 18.0811 119.673 18.1493L119.243 15.175L119.239 18.2081C118.776 18.2823 118.305 18.3915 117.83 18.5352L117.315 14.0992C117.315 14.0992 117.331 16.5938 117.303 18.7085C116.098 19.1427 114.872 19.8268 113.673 20.8574L113.634 20.3113C113.634 20.3113 114.069 14.4786 117.499 12.2164" fill="#E3E3E2"/>
<path d="M112.307 10.2356C109.323 6.85431 102.928 9.19756 100.591 14.9457C100.591 14.9457 101.321 14.7275 102.47 14.6035C103.154 13.1841 103.782 11.9328 103.782 11.9328L102.866 14.5665C103.216 14.5386 103.595 14.5211 103.999 14.5205L104.639 13.143L104.394 14.5252C104.91 14.5394 105.46 14.5857 106.029 14.6725L107.842 10.6383L107.077 14.8794C107.6 15.0064 108.133 15.1737 108.668 15.3902L109.855 12.6325L109.071 15.561C109.498 15.7543 109.924 15.984 110.346 16.2479L111.995 12.1014C111.995 12.1014 111.332 14.5052 110.81 16.5539C111.86 17.2897 112.866 18.2727 113.755 19.5829L113.934 19.0661C113.934 19.0661 115.03 13.3218 112.307 10.2356" fill="#E3E3E2"/>
<path d="M109.43 18.2536C112.421 15.3147 114.669 17.8728 114.669 17.8728C113.545 18.1663 112.543 18.8898 111.67 19.8128L111.265 19.2823L111.33 20.1881C111.121 20.4296 110.921 20.6814 110.729 20.9404L110.044 19.3713L110.336 21.4953C110.061 21.9023 109.804 22.319 109.568 22.7345L109.266 21.178L109.289 23.2407C109.04 23.706 108.816 24.1621 108.618 24.5922L108.292 21.7381L108.25 25.4293C107.771 26.568 107.522 27.3685 107.522 27.3685C107.522 27.3685 106.439 21.1925 109.43 18.2536" fill="#E3E3E2"/>
<path d="M117.507 25.1955L116.889 25.5535C116.799 25.0758 116.695 24.573 116.576 24.0635L116.997 23.2896L116.468 23.6181C116.426 23.449 116.382 23.2803 116.337 23.112L116.875 21.5954L116.069 22.1996C115.634 20.8331 115.078 19.63 114.384 19.0559C114.384 19.0559 121.245 21.262 117.368 28.7057C117.368 28.7057 117.244 27.5269 116.968 25.9803L117.507 25.1955" fill="#E3E3E2"/>
<path d="M110.76 19.1068L109.662 17.0272L110.114 19.1933C110.005 19.2114 109.894 19.2316 109.782 19.2538L108.36 17.472L108.71 19.5237C108.254 19.662 107.778 19.835 107.282 20.0534C106.78 20.2749 106.284 20.53 105.799 20.8065L105.106 18.9864L105.429 21.0233C104.958 21.3063 104.5 21.6075 104.06 21.9176L103.716 20.3129L103.748 22.1413C103.209 22.533 102.7 22.934 102.231 23.3247L102.273 20.4178L101.854 23.6444C101.373 24.0572 100.943 24.4508 100.575 24.8007L100.522 22.7846L100.016 25.3452C99.4868 25.8727 99.1846 26.2102 99.1846 26.2102C99.4607 19.1501 102.177 16.3461 106.677 15.5892C111.177 14.8323 114.418 19.5347 114.418 19.5347C114.418 19.5347 113.037 18.8769 110.76 19.1068" fill="#E3E3E2"/>
<path d="M123.88 27.7347L123.469 29.8392C123.271 29.3167 123.002 28.646 122.662 27.8995L123.03 24.8193L122.356 27.2474C121.862 26.225 121.25 25.1119 120.529 24.0728L121.169 21.9376L120.13 23.522C119.923 23.2472 119.708 22.9797 119.484 22.7235L119.848 21.3792L119.287 22.5029C119.133 22.3351 118.976 22.1736 118.815 22.0178L119.257 20.2248L118.555 21.7747C118.101 21.3649 117.621 21.0088 117.114 20.7279L117.83 18.5352C117.83 18.5352 117.326 19.4282 116.708 20.5226C116.003 20.198 115.252 20.0208 114.455 20.0485C114.455 20.0485 115.806 17.8615 118.314 17.1063C120.821 16.351 126.201 20.9089 123.863 30.9583C123.863 30.9583 123.791 30.7295 123.652 30.3391L123.88 27.7347" fill="#E3E3E2"/>
<path d="M119.757 8.21044L120.183 9.48553C120.045 9.49293 119.888 9.51291 119.715 9.55261L119.2 7.89262L119.544 9.59695C119.266 9.67798 118.954 9.81075 118.62 10.0213L117.911 7.77847L118.327 10.2225C118.215 10.3065 118.1 10.3996 117.983 10.5025L117.183 8.3974L117.787 10.6845C117.302 11.1548 116.794 11.8033 116.289 12.693L116.067 9.60653L115.715 13.8189C115.22 14.8958 114.74 16.2347 114.3 17.8994C114.3 17.8994 113.866 6.68705 116.55 5.41769C119.234 4.14834 120.831 9.54658 120.831 9.54658C120.831 9.54658 120.697 9.50114 120.464 9.48663L119.757 8.21044" fill="#E3E3E2"/>
<path d="M115.922 20.694L115.682 22.8215L114.877 20.7701L113.782 22.3759L113.355 20.8807L112.097 21.9428C112.097 21.9428 112.25 19.2303 113.055 17.9902C113.859 16.7499 116.262 17.6209 115.922 20.694Z" fill="#E3E3E2"/>
<path d="M82.4188 54.8951V40.0647C82.4188 40.0647 79.4295 43.2588 77.4464 42.8257C75.4632 42.3924 72.8809 43.9026 72.8809 43.9026C72.8809 43.9026 75.4747 43.5218 76.4375 44.5815C77.4004 45.6414 81.6977 45.7545 81.6977 45.7545V55.4396L82.4188 54.8951" fill="#EEEEEE"/>
<path d="M95.6073 50.3491H94.9284V51.282H92.6863V50.3491H90.485V51.282H88.2424V50.3491H86.0411V51.282H83.7987V50.3491H81.5974V51.282H79.355V50.3491H77.1537V51.282H74.9114V50.3491H72.7101V51.282H70.4677V50.3491H69.7137L67.5293 67.9235L97.8671 67.7964L95.6073 50.3491" fill="#E3E3E2"/>
<path d="M100.434 63.1061H99.5018V64.3875H96.4208V63.1061H93.3965V64.3875H90.3155V63.1061H87.2909V64.3875H84.2102V63.1061H81.1856V64.3875H78.1046V63.1061H75.0803V64.3875H71.9993V63.1061H68.9747V64.3875H65.8937V63.1061H64.8582L61.8564 87.252L103.539 87.0776L100.434 63.1061Z" fill="#EEEEEE"/>
<path d="M115.83 84.4089C115.187 83.6777 114.579 82.9309 113.906 82.2269C113.848 82.1653 113.82 82.1307 113.809 82.1114C113.589 81.9638 113.354 81.8417 113.116 81.7264C113.074 81.712 112.933 81.6548 112.787 81.6008C112.516 81.5009 112.248 81.3941 111.98 81.2858C110.29 80.6011 108.772 79.8083 107.497 78.4576C106.798 77.7178 106.24 76.8546 105.516 76.1396C105.498 76.1634 105.356 76.0881 105.289 76.0309C105.073 76.006 104.781 75.9628 104.743 75.9619C104.451 75.9572 104.158 75.9669 103.866 75.98C103.449 75.9988 103.033 76.0328 102.617 76.0698C100.996 78.4576 98.9462 81.7166 98.0413 82.148C96.6416 82.8151 83.7308 86.2456 82.7802 86.0435C82.2351 85.9273 80.3629 86.0108 78.6292 86.0946C77.3396 86.1567 76.1265 86.2188 75.5928 86.1989C74.3419 86.1521 72.0764 85.5934 68.7972 84.076C65.5177 82.5587 63.723 82.5471 59.7717 81.2808C55.8204 80.0144 53.1711 79.5315 50.8588 81.4806C48.5465 83.4297 42.1956 79.315 40.2163 78.7284C38.2369 78.1423 34.448 74.7668 31.864 76.3413C29.2797 77.9162 27.1309 78.6652 23.9029 81.4806C20.6748 84.2961 14.2686 89.7329 14.2686 89.7329H123.329L122.077 87.5287C119.664 87.3966 117.462 86.2643 115.83 84.4089" fill="#F8F8F9"/>
<path d="M11.7441 57.4995C11.7441 57.4995 14.9185 51.7602 23.5211 46.7917C23.5211 46.7917 30.5212 46.1911 38.4249 49.6589C38.4249 49.6589 40.0276 52.3375 38.2065 53.3934C36.3855 54.4495 34.8734 52.326 34.8734 52.326C34.8734 52.326 34.5375 55.5611 32.1616 55.655C29.7857 55.7489 29.0866 53.3934 29.0866 53.3934C29.0866 53.3934 28.8533 56.3627 26.0177 57.113C23.5555 57.7645 22.026 55.655 22.026 55.655C22.026 55.655 21.5361 58.0952 19.3303 58.799C17.5571 59.3651 16.3421 57.8294 16.3421 57.8294C16.3421 57.8294 15.8332 60.4776 13.95 60.4776C12.336 60.4779 11.7441 57.4995 11.7441 57.4995" fill="#E3E3E2"/>
<path d="M120.738 98.9004C120.738 100.612 97.127 102 68.0004 102C38.8741 102 15.2627 100.612 15.2627 98.9004C15.2627 97.1884 38.8741 95.8005 68.0004 95.8005C97.127 95.8005 120.738 97.1884 120.738 98.9004" fill="#F8F8F9"/>
<path d="M104.445 85.3963C104.445 85.3963 105.629 83.6525 106.705 83.1653C107.781 82.678 107.958 80.8264 108.542 80.7235C109.126 80.6205 109.772 82.3318 110.794 82.8299C111.816 83.3278 113.364 85.3856 113.364 85.3856L104.445 85.3963Z" fill="#4870C0"/>
<path d="M112.843 84.7357H104.943C105.388 84.1882 106.065 83.4549 106.705 83.1653C107.781 82.678 107.958 80.8264 108.542 80.7236C108.559 80.7204 108.576 80.7192 108.593 80.7192C109.164 80.7192 109.801 82.3462 110.794 82.83C111.442 83.1455 112.301 84.0878 112.843 84.7357" fill="#DBE8F7"/>
<path d="M113.05 97.9519H104.442L103.354 85.3856H114.137L113.05 97.9519" fill="#4870C0"/>
<path d="M102.834 86.0565H114.658V84.7357H102.834V86.0565Z" fill="#4870C0"/>
<path d="M114.658 86.0565H102.834V84.7357H114.658V86.0565Z" fill="#658ACF"/>
<path d="M108.235 85.6646C109.02 86.9016 112.373 92.0086 114.452 92.3804L114.709 91.762C114.709 91.762 112.846 91.9862 108.734 85.3523C108.652 85.22 108.481 85.1721 108.345 85.2463C108.194 85.3276 108.144 85.5198 108.235 85.6646" fill="#1D2A30"/>
<path d="M95.9917 81.7013C96.3638 81.5839 96.759 81.798 96.8662 82.1751L98.3369 87.347L100.248 86.5766C100.248 86.5766 101.399 90.8888 99.2261 91.5693C97.1009 92.235 95.46 88.2552 95.46 88.2552L97.4023 87.7144L95.5478 82.6068C95.4121 82.2328 95.6142 81.8203 95.9917 81.7013" fill="#4870C0"/>
<path d="M95.4609 88.255C95.4609 88.2547 95.4609 88.2547 95.4609 88.2547L95.7588 88.172L95.4609 88.255ZM98.3368 87.3469L98.3365 87.3459L100.248 86.5766L98.3368 87.3469Z" fill="#FBFCFC"/>
<path d="M96.5699 90.1929C95.8861 89.2805 95.468 88.272 95.4609 88.2551L95.7588 88.1721L97.403 87.7155C97.403 87.7155 97.6679 88.1707 97.9905 88.1707C98.0308 88.1707 98.0716 88.1638 98.1129 88.148C98.491 88.0029 98.336 87.3462 98.336 87.3462L98.3365 87.3459L98.3368 87.347L100.248 86.5766C100.251 86.586 100.6 87.9016 100.547 89.1918C100.471 89.1835 100.389 89.1756 100.301 89.1682C100.216 89.1611 100.127 89.1575 100.036 89.1575C98.9744 89.1575 97.5143 89.6287 96.5699 90.1929" fill="#8DAEE0"/>
<path d="M115.51 99.0132C114.44 98.4796 113.349 97.9751 112.999 97.9519C112.246 97.9017 111.815 97.565 111.277 96.9212C110.739 96.2777 110.524 95.5336 109.555 94.4978C108.587 93.4619 109.663 93.0482 107.619 92.7816C105.574 92.515 106.363 92.6842 105.108 91.7734C103.852 90.8626 104.105 90.8626 102.634 90.2128C101.162 89.5632 102.023 89.3147 100.301 89.1682C99.1126 89.0672 97.2312 89.6976 96.2563 90.3979C95.8236 90.7089 95.6019 91.2243 95.1754 91.4975C95.0054 91.6061 94.8017 91.6049 94.6129 91.6035C94.2688 91.601 93.9742 91.5988 94.0251 92.2648C94.0455 92.5349 94.1227 92.8085 94.0605 93.072C93.9217 93.6573 91.5249 93.6565 90.9172 93.8394C90.7769 93.8818 90.6232 93.9347 90.5517 94.0633C90.4129 94.3124 90.6216 94.7531 90.3528 94.8445C90.306 94.8605 90.2565 94.8574 90.2068 94.8544C90.1668 94.8523 90.1265 94.8498 90.0879 94.8572C89.7629 94.9202 89.8485 95.5054 89.5461 95.64C89.4014 95.7047 89.2374 95.6696 89.0674 95.6346C88.8976 95.5998 88.7219 95.5651 88.5533 95.6288C88.2932 95.7269 88.2076 96.0786 87.9818 96.2173C87.5885 96.4591 87.1786 96.6371 86.7904 96.8933C86.1153 97.3386 85.5308 97.8837 84.8065 98.276L82.8696 98.8089L82.291 99.0132H115.51" fill="#4870C0"/>
<path d="M115.51 99.0132H87.734C88.5283 99.0132 89.2763 98.8242 89.9399 98.4876H89.9426C89.9878 98.4657 90.0332 98.4419 90.0778 98.4172C90.2307 98.3348 90.3789 98.2445 90.5215 98.1467C90.584 98.1051 90.6455 98.0605 90.7056 98.0142C91.2814 97.5799 91.7596 97.0217 92.1015 96.3786C92.1695 96.2513 92.2318 96.1205 92.2887 95.9866C92.2889 95.9858 92.2892 95.985 92.2897 95.9839C92.2903 95.9825 92.2911 95.9809 92.2916 95.9795C92.5446 95.3808 92.6844 94.7222 92.6844 94.0312C92.6844 94.028 92.6844 94.025 92.6844 94.0219C92.6844 94.0198 92.6844 94.0175 92.6844 94.0154C92.6844 94.0149 92.6844 94.014 92.6844 94.0135C92.6839 93.8843 92.679 93.757 92.6686 93.6311C92.6681 93.6228 92.6673 93.6146 92.6667 93.6064C93.3584 93.5106 93.9911 93.3644 94.0605 93.072C94.0776 92.999 94.0841 92.925 94.0841 92.8506C94.0844 92.6571 94.0398 92.46 94.0251 92.2648C94.0213 92.2147 94.0194 92.1685 94.0194 92.1255C94.0188 91.633 94.2601 91.6031 94.5517 91.6031C94.5718 91.6031 94.5922 91.6035 94.6129 91.6035C94.6336 91.6037 94.6545 91.6037 94.6757 91.6037C94.846 91.6037 95.0239 91.5942 95.1754 91.4975C95.6019 91.2243 95.8236 90.7089 96.2563 90.3979C97.1615 89.7474 98.8485 89.1575 100.037 89.1575C100.128 89.1575 100.217 89.161 100.301 89.1682C102.023 89.3147 101.162 89.5632 102.634 90.2128C104.105 90.8626 103.852 90.8626 105.108 91.7734C106.363 92.6842 105.574 92.515 107.619 92.7816C109.663 93.0482 108.587 93.4619 109.555 94.4978C110.524 95.5336 110.739 96.2777 111.277 96.9212C111.815 97.565 112.246 97.9017 112.999 97.9519C113.349 97.9751 114.44 98.4796 115.51 99.0132M87.734 99.0132H82.291L82.8696 98.8089L84.8065 98.276C84.8671 98.2432 84.927 98.2092 84.9857 98.1744C85.771 98.7038 86.717 99.0132 87.734 99.0132" fill="#DBE8F7"/>
<path d="M92.6838 94.0312L92.6811 94.0912V94.094C92.6702 95.0548 92.39 95.9527 91.9086 96.7083C91.8678 96.7711 91.827 96.8341 91.7808 96.8971C91.4952 97.3053 91.1497 97.669 90.758 97.973C90.6683 98.044 90.5758 98.1125 90.4806 98.173H90.4779L90.4099 98.2165C90.38 98.2385 90.35 98.2549 90.3201 98.2743C90.2739 98.3069 90.2249 98.3343 90.176 98.3616C90.0998 98.4055 90.0209 98.4492 89.942 98.4876H89.9393C89.2756 98.8242 88.5276 99.0132 87.7334 99.0132C86.3244 99.0132 85.0515 98.4192 84.1539 97.4692C83.822 97.1243 83.5419 96.7301 83.3243 96.3003C82.9761 95.6188 82.7803 94.8468 82.7803 94.0312V94.0146C82.7803 93.875 82.7857 93.7357 82.7993 93.5985C82.8537 92.9387 83.0387 92.3173 83.3243 91.759C83.3977 91.6142 83.4766 91.4742 83.5636 91.3404C83.8492 90.8939 84.2028 90.4969 84.6081 90.163C84.7387 90.0563 84.872 89.9577 85.0134 89.8673C85.0624 89.8317 85.114 89.7989 85.1657 89.7688C85.552 89.5306 85.9708 89.3472 86.4169 89.224C86.455 89.2131 86.4931 89.2021 86.5312 89.194C86.9147 89.0982 87.3172 89.0461 87.7334 89.0461C87.8612 89.0461 87.9864 89.0515 88.1088 89.0626C88.1414 89.0626 88.1713 89.0652 88.204 89.068H88.2067C88.7697 89.1228 89.3028 89.2705 89.7952 89.5006L89.8577 89.5306C90.282 89.7332 90.671 89.9935 91.0192 90.3026C91.8841 91.0772 92.4798 92.1559 92.6403 93.3716V93.3795C92.6702 93.593 92.6838 93.8092 92.6838 94.0312" fill="#4870C0"/>
<path d="M90.0771 98.4172C90.1106 98.3988 90.1435 98.3803 90.1759 98.3616C90.2248 98.3343 90.2738 98.3069 90.32 98.2743C90.35 98.2549 90.3799 98.2385 90.4098 98.2165L90.4778 98.173H90.4805C90.4941 98.1642 90.5075 98.1555 90.5208 98.1467C90.3783 98.2444 90.23 98.3348 90.0771 98.4172M90.7049 98.0142C90.7229 98.0005 90.7403 97.9868 90.758 97.9729C91.1496 97.669 91.4951 97.3053 91.7807 96.8971C91.8269 96.8341 91.8677 96.7711 91.9085 96.7082C91.9768 96.6012 92.041 96.4911 92.1008 96.3786C91.7589 97.0217 91.2808 97.5799 90.7049 98.0142M92.288 95.9866C92.2882 95.9858 92.2885 95.985 92.2891 95.9839C92.2885 95.985 92.2882 95.9858 92.288 95.9866ZM92.291 95.9795C92.5358 95.3992 92.6734 94.7616 92.681 94.094V94.0912L92.6837 94.0312C92.6837 94.7222 92.5439 95.3808 92.291 95.9795ZM92.6837 94.0312C92.6837 94.028 92.6837 94.025 92.6837 94.0219C92.6837 94.025 92.6837 94.028 92.6837 94.0312ZM92.6837 94.0154C92.6837 94.0149 92.6837 94.014 92.6837 94.0135C92.6837 94.014 92.6837 94.0149 92.6837 94.0154Z" fill="#F3F8FD"/>
<path d="M92.6665 93.6064C92.6597 93.5304 92.6513 93.4548 92.6406 93.3795V93.3716C92.4802 92.1559 91.8845 91.0773 91.0195 90.3027C91.9411 91.1264 92.5563 92.2942 92.6665 93.6064" fill="white"/>
<path d="M92.6679 93.6311C92.6674 93.623 92.6666 93.6148 92.666 93.6067C92.6666 93.6148 92.6674 93.623 92.6679 93.6311Z" fill="#F3F8FD"/>
<path d="M89.9427 98.4876H89.94C89.7441 98.3234 89.668 98.1509 89.668 98.1509C90.5819 95.4684 89.668 94.0312 89.668 94.0312C89.668 94.0307 89.6699 94.0151 89.6734 93.9861L89.736 93.5739L89.7496 93.4945C89.7621 93.423 89.7765 93.3461 89.7928 93.2646C89.922 92.6213 90.1668 91.6867 90.5977 90.9174C90.5979 90.9169 90.5982 90.9163 90.5985 90.9158C90.5988 90.9155 90.5988 90.9153 90.599 90.915C90.7233 90.6938 90.8629 90.4861 91.0198 90.3026C91.8848 91.0773 92.4804 92.1559 92.6409 93.3716C92.5267 93.0047 92.3852 92.6486 92.2112 92.3065C91.9446 91.7835 91.6046 91.2938 91.1776 90.8939C91.5692 91.3264 91.8712 91.8304 92.1187 92.353C92.3635 92.8785 92.5512 93.4288 92.6654 93.9982C92.6708 94.0283 92.6763 94.0611 92.6817 94.0912V94.094C92.6741 94.7616 92.5365 95.3992 92.2917 95.9795C92.2911 95.9809 92.2903 95.9825 92.2898 95.9839C92.2892 95.985 92.289 95.9859 92.2887 95.9866C92.2318 96.1205 92.1693 96.2514 92.1016 96.3786C92.0417 96.4911 91.9775 96.6012 91.9092 96.7083C91.9337 96.5988 91.9555 96.4893 91.9664 96.377L92.0235 95.9664L92.0371 95.553C92.0452 95.4161 92.0398 95.2766 92.0289 95.1397C92.018 95 92.0208 94.8632 91.999 94.7263C91.931 94.1761 91.7787 93.6396 91.5584 93.1331C91.3353 92.6295 91.0443 92.1531 90.6635 91.7616C91.0008 92.1887 91.2646 92.6705 91.4632 93.1742C91.659 93.6778 91.8086 94.2035 91.863 94.7428C91.8875 94.8769 91.8875 95.0111 91.9011 95.1452C91.912 95.282 91.9201 95.4161 91.912 95.553L91.9038 95.9582L91.863 96.3633C91.8548 96.544 91.8168 96.7192 91.7814 96.8971C91.4958 97.3053 91.1504 97.6691 90.7587 97.973C90.741 97.9868 90.7236 98.0005 90.7056 98.0142C90.6455 98.0597 90.5841 98.1041 90.5215 98.1467C90.5082 98.1555 90.4948 98.1643 90.4812 98.173C90.522 98.0962 90.5628 98.0167 90.5982 97.9374C90.6934 97.7019 90.8022 97.4665 90.862 97.2174C91.0171 96.7246 91.066 96.2045 91.0606 95.6926C91.047 95.178 90.96 94.6633 90.794 94.1761C90.6308 93.6915 90.4051 93.2235 90.0977 92.8155C90.3561 93.2535 90.5547 93.7245 90.6961 94.209C90.8348 94.6907 90.9219 95.1917 90.9246 95.6954C90.9409 96.1963 90.892 96.7027 90.7614 97.19C90.6825 97.5432 90.5547 97.8826 90.4105 98.2165C90.3806 98.2385 90.3507 98.2549 90.3208 98.2743C90.2745 98.3069 90.2256 98.3343 90.1766 98.3617C90.1442 98.3803 90.1113 98.3989 90.0779 98.4173C90.0333 98.4413 89.9881 98.4648 89.9427 98.4876" fill="#B4CAEC"/>
<path d="M82.7949 93.6492C82.8023 93.5514 82.8123 93.4545 82.8254 93.3586C82.8148 93.4381 82.8064 93.518 82.7996 93.5985C82.7979 93.6155 82.7963 93.6322 82.7949 93.6492ZM83.1368 92.1712C83.2157 91.9738 83.3068 91.7825 83.4094 91.5985C83.3803 91.6511 83.352 91.7047 83.3245 91.759C83.2562 91.8928 83.1934 92.0305 83.1368 92.1712ZM83.5272 91.3982C83.8176 90.9284 84.1838 90.511 84.6084 90.163C84.2031 90.4969 83.8495 90.8939 83.5639 91.3404C83.5514 91.3592 83.5391 91.3787 83.5272 91.3982Z" fill="white"/>
<path d="M83.3243 96.3004C82.9761 95.6188 82.7803 94.8468 82.7803 94.0313C82.7803 94.0256 82.7803 94.02 82.7803 94.0146C82.8755 93.7299 82.9952 93.4562 83.1366 93.1907C83.2916 92.9032 83.4712 92.6267 83.6942 92.3804C83.4331 92.5857 83.2236 92.854 83.0468 93.1386C82.9544 93.2865 82.8728 93.4397 82.7993 93.5985C82.7977 93.6155 82.7961 93.6322 82.7947 93.6492C82.7961 93.6322 82.7977 93.6155 82.7993 93.5985C82.8061 93.518 82.8145 93.4381 82.8252 93.3587C82.8806 92.9445 82.9865 92.5465 83.1366 92.1712C83.1932 92.0305 83.256 91.8928 83.3243 91.759C83.3517 91.7048 83.38 91.6511 83.4091 91.5986C83.38 91.6511 83.3517 91.7048 83.3243 91.759C83.5201 91.5235 83.7214 91.2908 83.9281 91.0557C83.8003 91.1431 83.6806 91.2389 83.5636 91.3405C83.5511 91.3593 83.5389 91.3787 83.5269 91.3982C83.5389 91.3787 83.5511 91.3593 83.5636 91.3405C83.8492 90.8939 84.2028 90.497 84.6081 90.163C84.1294 91.091 83.8764 92.2079 83.9363 93.1688C83.9363 93.1688 83.0686 94.042 83.3243 96.3004" fill="#B4CAEC"/>
<path d="M91.0194 90.3027C90.7779 90.0883 90.5171 89.8975 90.2383 89.733H90.241C90.5187 89.8977 90.7793 90.0888 91.0194 90.3027ZM84.6084 90.163C84.6144 90.1581 84.6204 90.1532 84.6263 90.1483C84.6204 90.1532 84.6144 90.1581 84.6084 90.163ZM84.6269 90.1477C84.6285 90.1466 84.6302 90.1453 84.6318 90.1439C84.6302 90.1453 84.6285 90.1466 84.6269 90.1477ZM84.6334 90.1428C84.6337 90.1425 84.634 90.1422 84.6345 90.142C84.634 90.1422 84.6337 90.1425 84.6334 90.1428ZM84.7398 90.0593C84.8943 89.9412 85.0556 89.8324 85.2231 89.733H85.225C85.2052 89.7447 85.1856 89.7568 85.166 89.7689C85.1143 89.7989 85.0626 89.8318 85.0137 89.8674C84.9193 89.9276 84.8284 89.9916 84.7398 90.0593Z" fill="white"/>
<path d="M90.2405 89.7329H90.2378C90.1143 89.6604 89.9876 89.5928 89.8575 89.5306L89.795 89.5006C89.5238 89.3737 89.2401 89.2719 88.9461 89.1972C89.4066 89.3141 89.8415 89.4964 90.2405 89.7329ZM85.2246 89.7329H85.2227C85.3304 89.6692 85.4408 89.6092 85.5537 89.5534C85.4416 89.609 85.3317 89.6689 85.2246 89.7329ZM86.3651 89.2386C86.3833 89.2333 86.4015 89.2282 86.4197 89.2233C86.4186 89.2235 86.4178 89.2238 86.4167 89.224C86.3993 89.2289 86.3822 89.2337 86.3651 89.2386ZM86.5574 89.1873C86.9248 89.0973 87.3086 89.0483 87.7038 89.0461C87.3075 89.0485 86.924 89.0982 86.5574 89.1873ZM88.1703 89.0652C88.1499 89.0636 88.1298 89.0626 88.1086 89.0626C87.9862 89.0515 87.8611 89.0461 87.7332 89.0461C87.8806 89.0461 88.0264 89.0524 88.1703 89.0652M87.7041 89.0461C87.7071 89.0461 87.7104 89.0461 87.7136 89.0461C87.7104 89.0461 87.7071 89.0461 87.7041 89.0461ZM87.7142 89.0461C87.7169 89.0461 87.7196 89.0461 87.7223 89.0461C87.7196 89.0461 87.7169 89.0461 87.7142 89.0461ZM87.7242 89.0461C87.7272 89.0461 87.7302 89.0461 87.7332 89.0461C87.7302 89.0461 87.7272 89.0461 87.7242 89.0461Z" fill="#FAFAFA"/>
<path d="M88.0324 94.2251C85.7495 94.2251 83.9363 93.1687 83.9363 93.1687C83.8765 92.2078 84.1322 91.0909 84.6082 90.163C84.6142 90.1581 84.6201 90.1531 84.6261 90.1482C84.6264 90.1479 84.6267 90.1479 84.6267 90.1477C84.6283 90.1465 84.6299 90.1452 84.6316 90.1439C84.6321 90.1435 84.6327 90.143 84.6332 90.1428C84.6335 90.1425 84.6337 90.1421 84.6343 90.1419C84.6688 90.1137 84.7042 90.0861 84.7395 90.0593C84.8282 89.9916 84.9191 89.9275 85.0135 89.8673C85.0624 89.8317 85.1141 89.7989 85.1658 89.7688C85.1854 89.7568 85.2049 89.7447 85.2248 89.7329C85.332 89.6689 85.4419 89.609 85.5539 89.5534C85.8126 89.4258 86.0838 89.3198 86.3653 89.2386C86.3824 89.2337 86.3996 89.229 86.417 89.224C86.4181 89.2238 86.4189 89.2235 86.42 89.2233C86.4189 89.2235 86.4181 89.2238 86.417 89.224C86.3925 89.2733 86.3707 89.3253 86.349 89.3746C86.1776 89.7825 86.0525 90.2041 85.9491 90.6311C85.8512 91.0581 85.7669 91.4882 85.7125 91.9232C85.6554 92.3584 85.6119 92.7937 85.6064 93.2317C85.669 92.7994 85.737 92.3694 85.8131 91.9395C85.892 91.5098 85.9736 91.0828 86.0797 90.6612C86.1749 90.2369 86.2973 89.8208 86.4469 89.4156C86.4741 89.3418 86.504 89.2679 86.5312 89.194C86.5399 89.1917 86.5486 89.1896 86.5576 89.1873C86.9243 89.0982 87.3078 89.0486 87.7041 89.0461C87.7041 89.0461 87.7041 89.0461 87.7043 89.0461C87.7073 89.0461 87.7106 89.0461 87.7139 89.0461C87.7139 89.0461 87.7141 89.0461 87.7144 89.0461C87.7171 89.0461 87.7199 89.0461 87.7226 89.0461C87.7231 89.0461 87.7239 89.0461 87.7245 89.0461C87.7275 89.0461 87.7305 89.0461 87.7335 89.0461C87.8613 89.0461 87.9864 89.0515 88.1088 89.0626C88.13 89.0626 88.1502 89.0636 88.1706 89.0652C88.1502 89.0636 88.13 89.0626 88.1088 89.0626C88.0435 89.1693 87.981 89.2816 87.9211 89.3937C87.6954 89.8154 87.5349 90.2672 87.3907 90.7214C87.2574 91.1759 87.1432 91.6384 87.0643 92.1066C86.9827 92.5747 86.9202 93.0456 86.8957 93.5191C86.9746 93.0538 87.0643 92.5884 87.165 92.1285C87.2683 91.6686 87.3771 91.2087 87.5213 90.7598C87.6519 90.3081 87.8123 89.8646 88.0136 89.443C88.0735 89.3172 88.1357 89.1915 88.2037 89.0683C88.4575 89.0924 88.7053 89.1359 88.9463 89.1972C89.2403 89.2719 89.524 89.3737 89.7952 89.5006L89.8578 89.5306C89.9878 89.5928 90.1145 89.6604 90.238 89.7329C90.5168 89.8975 90.7777 90.0882 91.0192 90.3026C90.8623 90.4857 90.7227 90.6935 90.5984 90.9149C90.5982 90.9153 90.5982 90.9155 90.5979 90.9158C90.5976 90.9163 90.5973 90.9169 90.5971 90.9174C90.1651 91.6877 89.9206 92.6213 89.7922 93.2646C89.7212 93.6187 89.6853 93.8845 89.6728 93.9861L89.6701 94.0037L89.6674 94.0312C89.1084 94.169 88.5579 94.2251 88.0324 94.2251M89.7952 89.5006C89.6565 89.673 89.5287 89.8591 89.409 90.0481C89.1859 90.4203 89.0119 90.82 88.8541 91.2253C88.7127 91.636 88.5903 92.0546 88.5005 92.4789C88.4135 92.9032 88.3455 93.3302 88.321 93.7627C88.3999 93.3384 88.495 92.9169 88.6011 92.5007C88.7126 92.0875 88.8296 91.674 88.9819 91.2717C89.1261 90.8693 89.3002 90.4778 89.5015 90.1C89.6103 89.9033 89.7272 89.7141 89.8578 89.5306L89.7952 89.5006M85.1658 89.7688C85.1141 89.7989 85.0624 89.8317 85.0135 89.8673C84.9237 90.1304 84.853 90.3957 84.7904 90.667C84.7197 91.02 84.6626 91.3784 84.6299 91.737C84.6 92.0957 84.5864 92.4572 84.6082 92.8155C84.6408 92.4572 84.6816 92.1011 84.7333 91.7479C84.7877 91.3949 84.8448 91.0417 84.9237 90.694C84.9863 90.3823 85.0733 90.0754 85.1658 89.7688" fill="#658ACF"/>
<path d="M89.668 94.0312L89.6707 94.0037L89.6734 93.9861C89.6699 94.0151 89.668 94.0307 89.668 94.0312ZM89.7928 93.2646C89.9212 92.6213 90.1657 91.6877 90.5977 90.9174C90.1668 91.6867 89.922 92.6213 89.7928 93.2646ZM90.5985 90.9158C90.5988 90.9155 90.5988 90.9153 90.599 90.915C90.5988 90.9153 90.5988 90.9155 90.5985 90.9158Z" fill="#C4D7F1"/>
<path d="M87.7338 99.0132C86.3249 99.0132 85.0519 98.4192 84.1543 97.4692C84.8313 97.8749 86.0243 98.3986 87.6653 98.3986C88.2727 98.3986 88.941 98.3269 89.6677 98.1509C89.6677 98.1509 89.7439 98.3233 89.9397 98.4876C89.2761 98.8242 88.5281 99.0132 87.7338 99.0132Z" fill="#658ACF"/>
<path d="M88.3213 93.7628C88.3458 93.3302 88.4138 92.9032 88.5008 92.4789C88.5906 92.0546 88.713 91.636 88.8544 91.2254C89.0122 90.82 89.1862 90.4203 89.4093 90.0481C89.529 89.8591 89.6568 89.673 89.7955 89.5006L89.8581 89.5306C89.7275 89.7141 89.6106 89.9033 89.5018 90.1C89.3005 90.4778 89.1264 90.8693 88.9822 91.2717C88.8299 91.6741 88.713 92.0875 88.6014 92.5007C88.4954 92.9169 88.4002 93.3385 88.3213 93.7628" fill="#4B70C0"/>
<path d="M88.2038 89.0684C88.1927 89.0672 88.182 89.0661 88.1709 89.0653C88.1817 89.0661 88.1927 89.067 88.2041 89.068L88.2038 89.0684Z" fill="#395EB4"/>
<path d="M86.8955 93.5192C86.92 93.0456 86.9825 92.5747 87.0641 92.1066C87.143 91.6385 87.2573 91.1759 87.3905 90.7214C87.5347 90.2673 87.6952 89.8154 87.9209 89.3938C87.9808 89.2816 88.0434 89.1693 88.1086 89.0626C88.1298 89.0626 88.15 89.0637 88.1704 89.0653C88.1815 89.0661 88.1924 89.0672 88.2036 89.0684C88.1356 89.1916 88.0733 89.3172 88.0134 89.4431C87.8122 89.8647 87.6517 90.3081 87.5211 90.7598C87.3769 91.2087 87.2682 91.6686 87.1648 92.1285C87.0642 92.5884 86.9744 93.0538 86.8955 93.5192Z" fill="#4B70C0"/>
<path d="M86.4199 89.2233C86.4569 89.2127 86.4935 89.2021 86.5302 89.1943C86.4933 89.2035 86.4566 89.2132 86.4199 89.2233Z" fill="#395EB4"/>
<path d="M85.6064 93.2317C85.6119 92.7937 85.6554 92.3584 85.7125 91.9232C85.7669 91.4882 85.8512 91.0581 85.9492 90.6311C86.0525 90.204 86.1776 89.7825 86.349 89.3746C86.3708 89.3253 86.3925 89.2733 86.417 89.224C86.4181 89.2238 86.4189 89.2235 86.42 89.2233C86.457 89.2131 86.494 89.2033 86.5312 89.194C86.504 89.2679 86.4741 89.3417 86.4469 89.4156C86.2973 89.8208 86.1749 90.2369 86.0797 90.6612C85.9736 91.0828 85.892 91.5098 85.8132 91.9395C85.737 92.3694 85.669 92.7994 85.6064 93.2317" fill="#4B70C0"/>
<path d="M84.6083 92.8156C84.5866 92.4572 84.6002 92.0957 84.6301 91.7371C84.6627 91.3784 84.7199 91.0201 84.7906 90.667C84.8531 90.3957 84.9239 90.1304 85.0136 89.8673C85.0626 89.8317 85.1143 89.7989 85.1659 89.7689C85.0735 90.0754 84.9864 90.3823 84.9239 90.694C84.845 91.0418 84.7879 91.3949 84.7335 91.7479C84.6818 92.1012 84.641 92.4572 84.6083 92.8156" fill="#4B70C0"/>
<path d="M90.4105 98.2166C90.5546 97.8826 90.6825 97.5432 90.7613 97.19C90.8919 96.7027 90.9409 96.1963 90.9245 95.6954C90.9218 95.1917 90.8348 94.6907 90.6961 94.209C90.5546 93.7245 90.3561 93.2535 90.0977 92.8155C90.405 93.2235 90.6308 93.6915 90.794 94.1761C90.9599 94.6633 91.0469 95.178 91.0605 95.6927C91.066 96.2045 91.017 96.7246 90.862 97.2174C90.8021 97.4665 90.6933 97.7019 90.5981 97.9374C90.5628 98.0167 90.522 98.0962 90.4812 98.173H90.4785L90.4105 98.2166" fill="#8AA1D3"/>
<path d="M91.781 96.8972C91.8164 96.7192 91.8544 96.5441 91.8626 96.3634L91.9034 95.9582L91.9116 95.553C91.9197 95.4161 91.9116 95.2821 91.9007 95.1452C91.8871 95.0111 91.8871 94.8769 91.8626 94.7428C91.8082 94.2035 91.6586 93.6779 91.4628 93.1742C91.2642 92.6706 91.0004 92.1887 90.6631 91.7617C91.0439 92.1531 91.3349 92.6295 91.558 93.1332C91.7783 93.6396 91.9306 94.1762 91.9986 94.7263C92.0204 94.8632 92.0176 95.0001 92.0285 95.1397C92.0394 95.2766 92.0448 95.4161 92.0367 95.553L92.0231 95.9664L91.966 96.377C91.9551 96.4893 91.9333 96.5988 91.9088 96.7083C91.868 96.7712 91.8272 96.8342 91.781 96.8972" fill="#8AA1D3"/>
<path d="M92.6837 94.022C92.6837 94.0198 92.6837 94.0176 92.6837 94.0154C92.6837 94.0176 92.6837 94.0198 92.6837 94.022ZM92.6837 94.0135C92.6832 93.8849 92.678 93.7573 92.668 93.6311C92.6783 93.757 92.6832 93.8843 92.6837 94.0135Z" fill="#395EB4"/>
<path d="M92.6809 94.0912C92.6755 94.0611 92.67 94.0283 92.6646 93.9982C92.5504 93.4288 92.3627 92.8785 92.1179 92.353C91.8704 91.8304 91.5684 91.3264 91.1768 90.8939C91.6038 91.2938 91.9438 91.7836 92.2104 92.3065C92.3844 92.6486 92.5259 93.0047 92.6401 93.3716V93.3795C92.6518 93.4627 92.6611 93.5467 92.6679 93.6311C92.6779 93.7573 92.6831 93.8849 92.6836 94.0135C92.6836 94.0141 92.6836 94.0149 92.6836 94.0154C92.6836 94.0176 92.6836 94.0198 92.6836 94.022C92.6836 94.0251 92.6836 94.028 92.6836 94.0312L92.6809 94.0912" fill="#8AA1D3"/>
<path d="M82.7803 94.0146C82.7803 93.8923 82.7844 93.7696 82.7947 93.6492C82.7857 93.7699 82.7808 93.8917 82.7803 94.0146Z" fill="#395EB4"/>
<path d="M82.7803 94.0146C82.7808 93.8917 82.7857 93.7699 82.7947 93.6492C82.7961 93.6322 82.7977 93.6155 82.7993 93.5985C82.8728 93.4397 82.9544 93.2865 83.0468 93.1386C83.2236 92.854 83.4331 92.5857 83.6942 92.3804C83.4712 92.6267 83.2916 92.9032 83.1366 93.1907C82.9952 93.4562 82.8755 93.7299 82.7803 94.0146" fill="#8AA1D3"/>
<path d="M83.4092 91.5986C83.4467 91.5304 83.4859 91.4636 83.527 91.3982C83.4862 91.4638 83.447 91.5307 83.4092 91.5986Z" fill="#395EB4"/>
<path d="M83.3242 91.759C83.3517 91.7047 83.38 91.6511 83.4091 91.5986C83.4469 91.5307 83.4861 91.4638 83.5269 91.3982C83.5388 91.3787 83.5511 91.3593 83.5636 91.3404C83.6805 91.2389 83.8002 91.143 83.9281 91.0557C83.7213 91.2908 83.5201 91.5235 83.3242 91.759Z" fill="#8AA1D3"/>
<path d="M87.9501 95.2809C87.5236 95.2809 87.099 95.2278 86.679 95.1607C86.2 95.0709 85.7292 94.9451 85.2687 94.7896C84.8096 94.6313 84.3572 94.4515 83.9277 94.2251C84.3795 94.3997 84.8376 94.5533 85.3 94.6896C85.7632 94.8219 86.2286 94.9489 86.7032 95.0258C87.1808 95.1148 87.6677 95.1709 88.1535 95.1709C88.6257 95.1709 89.0974 95.1181 89.5595 94.9905C89.1091 95.1741 88.6214 95.255 88.1345 95.2773C88.073 95.2799 88.0115 95.2809 87.9501 95.2809Z" fill="#395EB4"/>
<path d="M87.6764 96.3472C87.3636 96.3472 87.0506 96.3272 86.7402 96.2884C86.2509 96.2201 85.7651 96.1222 85.2934 95.9762C84.8229 95.8292 84.3602 95.651 83.9277 95.4154C84.3833 95.5993 84.8495 95.7507 85.3217 95.8755C85.7945 95.9981 86.2732 96.0967 86.7571 96.1528C87.1254 96.2073 87.4972 96.2273 87.869 96.2273C87.9841 96.2273 88.0991 96.2254 88.2142 96.2217L88.5798 96.2048L88.9429 96.1605C89.1879 96.1452 89.4232 96.0731 89.6672 96.0381C89.1991 96.1845 88.7144 96.2987 88.2202 96.327C88.0393 96.3407 87.8579 96.3472 87.6764 96.3472" fill="#395EB4"/>
<path d="M87.5507 97.4081C87.2787 97.4081 87.0065 97.3902 86.7364 97.3586C86.2628 97.2954 85.7925 97.1974 85.3402 97.043C84.8884 96.8899 84.448 96.6981 84.0449 96.444C84.4739 96.648 84.9183 96.8122 85.3712 96.9426C85.8238 97.074 86.2857 97.1719 86.7527 97.2228C86.9852 97.2598 87.2203 97.2663 87.4547 97.2839C87.4942 97.2837 87.5336 97.2833 87.5733 97.2833C87.6035 97.2833 87.6337 97.2833 87.6639 97.2837C87.6949 97.2837 87.7256 97.2837 87.7566 97.2837C87.891 97.2837 88.0254 97.2819 88.1595 97.2707C88.6311 97.2557 89.0943 97.1616 89.5597 97.0666C89.1098 97.216 88.6444 97.3381 88.1676 97.3753C87.9628 97.3978 87.7566 97.4081 87.5507 97.4081" fill="#395EB4"/>
<path d="M87.5147 98.1405C87.2699 98.1405 87.0251 98.1246 86.7822 98.0942C86.3361 98.0321 85.8941 97.9359 85.469 97.7892C85.0447 97.6414 84.6304 97.4597 84.251 97.2201C84.6563 97.4095 85.0746 97.5639 85.5003 97.6893C85.9262 97.8125 86.3598 97.9089 86.7991 97.9587C87.0762 98 87.3561 98.0173 87.636 98.0173C87.7979 98.0173 87.96 98.0115 88.1218 98.0014L88.4528 97.9754L88.7809 97.9217C89.0031 97.8982 89.2133 97.8215 89.4339 97.7796C89.0167 97.9365 88.5807 98.0674 88.1311 98.106C87.9265 98.1293 87.7206 98.1405 87.5147 98.1405Z" fill="#395EB4"/>
<path d="M30.9512 86.1975C30.9512 86.1975 31.9198 84.7357 33.6413 84.6273C35.363 84.5189 36.8158 86.7289 36.8158 86.7289H36.2693C36.2693 86.7289 34.8788 85.223 33.8833 85.223C32.8881 85.223 31.9198 86.4685 31.9198 86.4685L30.9512 86.1975" fill="#1D2A30"/>
<path d="M16.3418 97.7561C16.9387 96.7564 23.6102 97.4049 25.1168 96.8097L25.9236 98.2183C25.9236 98.2183 24.7739 98.8604 22.8631 98.6338C20.9524 98.4071 18.0686 98.346 17.3154 99.0132L16.3418 97.7561Z" fill="#1D2A30"/>
<path d="M23.6705 98.6823C23.4193 98.6823 23.15 98.6677 22.8631 98.6338C22.2046 98.5558 21.4302 98.4971 20.6675 98.4815C21.5975 98.2494 22.5511 97.9223 23.2802 97.4646C23.3756 97.6982 23.4721 97.9174 23.5688 98.1205C23.6124 98.2166 23.6667 98.3039 23.7293 98.3863L23.7428 98.4052C23.8202 98.5057 23.9089 98.5954 24.0066 98.6735C23.8985 98.6792 23.7865 98.6823 23.6705 98.6823M17.9519 97.9993C17.3619 97.9993 16.8074 97.9253 16.3418 97.7561C16.7166 97.1284 19.486 97.1503 21.8682 97.1065C20.804 97.6195 19.2879 97.9993 17.9519 97.9993" fill="#161C1E"/>
<path d="M44.4445 94.7096C44.3901 94.9477 44.3303 95.1808 44.2623 95.408C43.7265 97.2719 42.8805 98.7802 42.2713 99.0132H24.9749C24.4852 99.0132 24.0336 98.7829 23.7426 98.4052L23.7291 98.3862C23.6664 98.3039 23.6121 98.2165 23.5685 98.1205C22.3744 95.6102 21.1695 90.5898 22.8641 88.3012C23.0409 88.0634 23.2448 87.8471 23.4732 87.6554L23.5223 87.6168C23.8677 87.3267 24.2677 87.0886 24.7029 86.8917L24.7083 86.889L24.7164 86.886C25.9077 86.3443 27.3711 86.0949 28.8073 85.9884C29.2234 85.9556 29.6369 85.9361 30.0421 85.9279C31.1029 85.898 32.093 85.9252 32.8818 85.947C35.6617 86.0182 37.8485 86.8504 39.3391 86.7056C39.9293 86.6481 40.4679 86.6947 40.982 86.8367C41.1343 86.8805 41.2839 86.9298 41.4335 86.9903C42.0564 87.2364 42.6575 87.6251 43.3049 88.148C44.9858 89.5057 45.0103 92.2954 44.4445 94.7096" fill="#1D2A30"/>
<path d="M42.2719 99.0132H24.9755C24.4858 99.0132 24.0342 98.7829 23.7432 98.4052C24.0397 98.7421 24.464 98.939 24.9182 98.939H28.0218C29.2863 98.939 29.4365 97.7736 29.2953 95.2683C29.5091 95.1443 29.7721 94.9849 30.0672 94.792C30.364 94.598 30.9909 94.5155 31.7234 94.5155C32.8922 94.5155 34.3295 94.7249 35.1237 95.0244C36.0305 95.3666 37.9707 95.5752 39.6139 95.5763C39.5929 96.0569 39.5723 96.5453 39.5519 97.0447H41.6571C41.6571 97.0447 41.77 96.4177 41.9547 95.3924C42.3246 95.3545 42.6831 95.3403 43.0112 95.3403C43.5258 95.3403 43.9664 95.375 44.2629 95.408C43.7271 97.2719 42.8811 98.7802 42.2719 99.0132" fill="#304047"/>
<path d="M38.2872 94.7472C37.1965 94.7472 35.9077 94.6494 34.4242 94.3209C33.3882 94.0907 32.4569 94.0083 31.6536 94.0083C30.6146 94.0083 29.7902 94.1464 29.2309 94.2815C29.1918 93.7256 29.1461 93.1242 29.0985 92.4622C28.8208 88.6452 26.9246 86.7289 25.4211 86.7289C25.2023 86.7289 24.9918 86.7695 24.7959 86.8504C25.9725 86.3334 27.4031 86.0927 28.8074 85.9884C29.2236 85.9556 29.637 85.9361 30.0423 85.9279C30.378 85.9184 30.7065 85.9147 31.024 85.9147C31.7097 85.9147 32.3429 85.9323 32.882 85.947C35.4399 86.0125 37.4959 86.7226 38.9691 86.7226C39.0969 86.7226 39.2201 86.7172 39.3393 86.7056C39.5041 86.6895 39.6651 86.6816 39.8226 86.6816C39.914 86.6816 40.004 86.6843 40.0933 86.6895C39.9798 88.4165 39.8672 90.3394 39.7595 92.4726C39.5963 92.4693 39.4462 92.465 39.3202 92.4622C38.5668 92.4485 33.8857 92.1529 33.4015 91.9613C32.9146 91.7669 32.6481 91.5041 32.2727 91.0171C31.8946 90.5298 31.843 88.8518 31.1602 87.4037C30.9127 86.8833 30.4857 86.3713 30.0423 85.9279C29.637 85.9361 29.2236 85.9556 28.8074 85.9884C29.5174 86.3906 30.23 87.0776 30.551 88.2547C31.3044 91.0171 31.8212 91.9914 32.0198 92.2626C32.218 92.5331 37.6738 93.1851 38.7183 93.1851C38.7205 93.1851 38.7224 93.1851 38.7246 93.1851C39.0131 93.1844 39.3597 93.1714 39.7258 93.149C39.7013 93.6541 39.6768 94.1709 39.6526 94.699C39.2389 94.7269 38.7836 94.7472 38.2872 94.7472M44.4447 94.7097C43.9421 94.6563 42.9563 94.5616 42.1074 94.5413C42.2053 93.9974 42.3158 93.3845 42.4344 92.7239C42.6767 92.4453 42.8247 91.699 42.7833 90.7839C42.9384 89.923 43.1002 89.0221 43.2634 88.1147C43.2773 88.1256 43.2912 88.1368 43.305 88.148C44.3786 89.0152 44.7766 90.4664 44.7766 92.0308C44.7766 92.3888 44.7556 92.7527 44.7173 93.1167C44.7148 93.1395 44.7124 93.1621 44.7099 93.1851C44.6528 93.6987 44.5611 94.2123 44.4447 94.7097" fill="#304047"/>
<path d="M22.0254 91.5419C22.0257 90.2736 22.2617 89.1148 22.8641 88.3012C23.0409 88.0634 23.2448 87.8471 23.4732 87.6554L23.5223 87.6168C23.8678 87.3267 24.2677 87.0886 24.7029 86.8917L24.7083 86.8889L24.7164 86.886L24.7083 86.8889L24.7029 86.8917C24.254 87.1104 23.8623 87.3541 23.5223 87.6168L23.4732 87.6554C23.2448 87.8471 23.0409 88.0634 22.8641 88.3012C22.2617 89.1148 22.0257 90.2736 22.0254 91.5419" fill="#304047"/>
<path d="M24.7168 86.886C24.7428 86.8736 24.7689 86.8619 24.7955 86.8508C24.7692 86.8625 24.7429 86.8741 24.7168 86.886Z" fill="#C5C4C2"/>
<path d="M28.0212 98.939H24.9176C24.4634 98.939 24.0391 98.7421 23.7426 98.4052L23.7291 98.3862C23.6664 98.3039 23.6121 98.2165 23.5686 98.1205C23.4719 97.9173 23.3753 97.6981 23.28 97.4646C23.7642 97.161 24.1493 96.7997 24.3631 96.3705C24.6534 95.7881 24.7625 95.3324 24.7627 94.9658C24.7632 93.905 23.8513 93.5908 23.7713 93.1166C23.7675 93.0936 23.7655 93.0691 23.7656 93.0436C23.7668 92.3595 25.1165 90.7989 25.1165 90.7989L23.61 91.1794C23.61 91.1794 22.9764 93.0069 22.9758 94.4416C22.9756 94.8711 23.0322 95.2655 23.1795 95.5651C23.2175 95.6423 23.2356 95.7214 23.2355 95.8016C23.235 96.0083 23.1131 96.222 22.8993 96.4314C22.406 94.9472 22.025 93.1558 22.0254 91.5419C22.0257 90.2736 22.2617 89.1148 22.8641 88.3012C23.0409 88.0634 23.2448 87.8471 23.4732 87.6554L23.5223 87.6168C23.8623 87.3541 24.254 87.1104 24.7029 86.8917L24.7083 86.8889L24.7164 86.886C24.7427 86.874 24.7692 86.8622 24.7957 86.8503C24.9917 86.7694 25.2022 86.7289 25.4209 86.7289C26.9245 86.7289 28.8206 88.6451 29.0983 92.4621C29.1459 93.1241 29.1916 93.7255 29.2308 94.2814C29.79 94.1463 30.6144 94.0082 31.6535 94.0082C32.4567 94.0082 33.388 94.0907 34.4241 94.3209C35.9076 94.6494 37.1963 94.7471 38.287 94.7471C38.7834 94.7471 39.2387 94.7268 39.6525 94.6989C39.6394 94.9874 39.6263 95.2809 39.6133 95.5763C37.9701 95.5752 36.03 95.3666 35.1231 95.0244C34.3289 94.7249 32.8916 94.5155 31.7228 94.5155C30.9903 94.5155 30.3634 94.598 30.0666 94.792C29.7715 94.9849 29.5085 95.1443 29.2947 95.2683C29.4359 97.7736 29.2857 98.939 28.0212 98.939M44.2623 95.408C43.9658 95.375 43.5252 95.3403 43.0106 95.3403C42.6825 95.3403 42.324 95.3545 41.9541 95.3924C42.0006 95.1328 42.052 94.8481 42.1073 94.5413C42.9562 94.5615 43.9419 94.6562 44.4446 94.7096C44.3902 94.9477 44.3303 95.1808 44.2623 95.408" fill="#263136"/>
<path d="M38.7185 93.1851C37.674 93.1851 32.2182 92.5331 32.0199 92.2626C31.8214 91.9913 31.3046 91.0171 30.5511 88.2547C30.2302 87.0776 29.5175 86.3906 28.8076 85.9884C29.2238 85.9556 29.6372 85.9361 30.0425 85.9279C30.4859 86.3713 30.9129 86.8833 31.1604 87.4037C31.8431 88.8518 31.8948 90.5298 32.2729 91.0171C32.6483 91.5041 32.9148 91.7669 33.4017 91.9613C33.8859 92.1529 38.567 92.4485 39.3204 92.4622C39.4464 92.465 39.5965 92.4693 39.7597 92.4726C39.7483 92.6962 39.7371 92.9205 39.726 93.149C39.3599 93.1714 39.0133 93.1844 38.7247 93.1851C38.7226 93.1851 38.7207 93.1851 38.7185 93.1851M42.4345 92.7239C42.5447 92.1129 42.6619 91.4609 42.7835 90.7839C42.8249 91.699 42.6769 92.4453 42.4345 92.7239Z" fill="#263136"/>
<path d="M25.1168 90.7989L23.6102 91.1794C23.6102 91.1794 22.5404 94.2656 23.1797 95.5651C23.8192 96.8645 18.8166 98.6554 16.3418 97.7561L17.3154 99.0132C17.3154 99.0132 23.2336 98.6382 24.3633 96.3705C25.4932 94.103 23.8792 93.7548 23.7715 93.1166C23.664 92.4789 25.1168 90.7989 25.1168 90.7989" fill="#1D2A30"/>
<path d="M17.3154 99.0132L16.3418 97.7561C16.8074 97.9252 17.3619 97.9993 17.9519 97.9993C20.3122 97.9989 23.2338 96.8147 23.2357 95.8016C23.2358 95.7214 23.2178 95.6423 23.1797 95.5651C23.0325 95.2655 22.9758 94.8711 22.976 94.4416C22.9767 93.0069 23.6102 91.1794 23.6102 91.1794L25.1168 90.7989C25.1168 90.7989 23.7671 92.3595 23.7659 93.0436C23.7658 93.0691 23.7677 93.0936 23.7715 93.1166C23.8516 93.5908 24.7635 93.9051 24.7629 94.9658C24.7628 95.3324 24.6536 95.7881 24.3633 96.3705C24.1496 96.7997 23.7644 97.161 23.2802 97.4646C22.5511 97.9223 21.5975 98.2494 20.6675 98.4815C18.9515 98.9095 17.3154 99.0132 17.3154 99.0132Z" fill="#304047"/>
<path d="M38.4251 27.1183C38.4251 27.1183 32.6048 23.8402 31.4001 22.9913C30.1955 22.1427 23.7499 15.777 23.3883 15.5953C23.3883 15.5953 23.6293 14.8676 23.0872 14.4433C22.545 14.019 20.4367 12.6246 20.1355 12.6246C19.8343 12.6246 19.0512 15.5953 19.1717 16.3229C19.2922 17.0502 22.2439 17.232 22.2439 17.232C22.2439 17.232 28.3883 24.4326 29.352 25.4397C30.3159 26.447 36.8818 30.7514 36.8818 30.7514L38.4251 27.1183" fill="#F47272"/>
<path d="M40.8136 27.7186C40.8136 27.7186 42.0901 30.3126 38.9912 34.4278L32.1621 29.375L34.8881 24.4063L40.8136 27.7186" fill="#4870C0"/>
<path d="M35.7651 32.0413L35.3435 31.7292V31.7289L35.7654 32.041C35.7651 32.0413 35.7651 32.0413 35.7651 32.0413ZM33.5239 30.3854L32.1611 29.375L32.5572 28.6545L32.1619 29.375L33.526 30.3843L33.5239 30.3854M39.5625 27.0191C39.5623 27.0191 39.562 27.0189 39.562 27.0189L36.9663 25.568L36.9674 25.5672L36.2447 25.1645L36.9674 25.5672L39.5625 27.0191M35.3751 24.6786L34.889 24.4068L34.8893 24.4065L35.3751 24.6786Z" fill="white"/>
<path d="M35.7656 32.041L35.3437 31.7289L35.7653 29.4161L33.5262 30.3843L32.1621 29.375L32.5573 28.6545L33.165 27.5491L33.7335 26.5116L34.8892 24.4068L35.3752 24.6786L36.0047 25.031L36.2448 25.1645L36.0047 25.031V26.1311L36.9664 25.568L39.5621 27.0189C39.1465 26.9217 38.9306 26.8514 38.9289 26.8508C38.6936 27.1993 38.5024 27.5678 38.3479 27.9477L36.6003 28.0977L37.273 29.8294L38.0879 28.715C37.9837 29.0906 37.9095 29.4711 37.8591 29.8483C37.0143 30.3602 36.2331 31.0676 35.7656 32.041ZM33.7335 26.5116L33.165 27.5491L33.6655 28.5565L34.8731 26.8514L33.7335 26.5116" fill="#B4CAEC"/>
<path d="M38.0009 33.6955L35.7656 32.0413C35.7656 32.0413 35.7656 32.0413 35.7659 32.041L38.0006 33.6947C38.0009 33.6949 38.0009 33.6952 38.0009 33.6955Z" fill="#CFCECC"/>
<path d="M38.0004 33.6947L35.7656 32.041C36.2332 31.0676 37.0144 30.3602 37.8592 29.8483C37.7297 30.8171 37.7575 31.7648 37.838 32.5559C37.8821 32.9904 37.9419 33.3772 38.0004 33.6947Z" fill="#8AA1D3"/>
<path d="M36.9667 25.568L36.2451 25.1645L36.9678 25.5672L36.9667 25.568" fill="white"/>
<path d="M36.0049 26.1311V25.0309L36.2451 25.1645L36.9667 25.568L36.0049 26.1311Z" fill="#C4D7F1"/>
<path d="M33.6655 28.5565L33.165 27.5491L33.7335 26.5116L34.8732 26.8514L33.6655 28.5565" fill="#C4D7F1"/>
<path d="M35.3441 31.7292L33.5244 30.3854L33.5266 30.3843L35.3441 31.7289V31.7292" fill="white"/>
<path d="M35.3439 31.7289L33.5264 30.3843L35.7655 29.4161L35.3439 31.7289Z" fill="#C4D7F1"/>
<path d="M37.2732 29.8294L36.6006 28.0977L38.3482 27.9477C38.2459 28.1993 38.16 28.456 38.0882 28.715L37.2732 29.8294Z" fill="#C4D7F1"/>
<path d="M53.5088 26.4916C53.5088 26.4916 59.329 23.2135 60.534 22.3646C61.7387 21.516 68.1843 15.1504 68.5455 14.9686C68.5455 14.9686 68.3048 14.241 68.8469 13.8164C69.389 13.3921 71.4972 11.9979 71.7983 11.9979C72.0997 11.9979 72.8828 14.9686 72.7623 15.6962C72.6418 16.4236 69.6901 16.6053 69.6901 16.6053C69.6901 16.6053 63.5459 23.8059 62.5822 24.813C61.6182 25.8204 55.0524 30.1248 55.0524 30.1248L53.5088 26.4916" fill="#F47272"/>
<path d="M46.553 61.1817C46.553 61.1817 46.4279 63.2536 46.2294 66.013C46.1042 67.7321 45.9492 69.7167 45.7806 71.6357C45.5521 74.2144 45.2937 76.6726 45.0353 78.2C44.7986 79.6044 41.657 97.0447 41.657 97.0447H39.5518C40.2154 80.7815 41.2436 74.4744 41.2817 73.5273C41.2953 73.2179 41.3062 72.7882 41.3198 72.2765C41.3606 70.4205 41.3959 67.4887 41.4177 65.3563C41.434 63.8175 41.4422 62.6982 41.4422 62.6982L46.553 61.1817" fill="#F47272"/>
<path d="M54.677 74.3403C54.6036 75.761 53.7631 96.9738 53.7631 96.9738H51.4484C50.2652 80.0783 50.714 74.2116 50.5018 73.04L50.4991 73.0263C50.1373 71.0337 49.7973 68.4137 49.5634 66.4701C49.3757 64.9071 49.2588 63.7823 49.2588 63.7823L53.978 61.7292C53.978 61.7292 54.2636 64.1819 54.4785 67.1438C54.5845 68.6218 54.677 70.2287 54.7042 71.7233C54.7233 72.6595 54.7178 73.5519 54.677 74.3403" fill="#F47272"/>
<path d="M41.3193 72.2766C41.3313 71.7395 41.3425 71.1123 41.3533 70.4408H45.8827C45.8492 70.8399 45.815 71.2393 45.7801 71.6357L41.3193 72.2766" fill="#CD5A58"/>
<path d="M50.4998 73.0263C50.3564 72.236 50.2163 71.3472 50.085 70.4408H54.6676C54.6845 70.8736 54.6973 71.3028 54.7049 71.7233L50.4998 73.0263" fill="#CD5A58"/>
<path d="M42.1545 96.394H39.3776C39.2838 96.3945 39.203 96.4602 39.1829 96.5521L38.7319 98.6006C38.6936 98.784 38.81 98.9642 38.9922 99.003C39.0167 99.0079 39.0415 99.0107 39.0665 99.0102C39.9649 98.9956 40.6191 98.94 41.7473 98.94C42.4423 98.94 44.5388 99.0132 45.4982 99.0132C46.4578 99.0132 46.5829 98.0591 46.1904 97.9712C44.4284 97.585 43.1024 97.0496 42.5383 96.5404C42.4338 96.4438 42.2962 96.3915 42.1545 96.394" fill="#4870C0"/>
<path d="M53.9307 96.3209H51.1538C51.0603 96.3214 50.9795 96.3868 50.9591 96.4788L50.5084 98.5273C50.4698 98.7107 50.5862 98.8908 50.7684 98.9297C50.7929 98.9351 50.8179 98.9374 50.8427 98.9371C51.7413 98.9225 52.3955 98.867 53.5238 98.867C54.2185 98.867 56.315 98.9401 57.2746 98.9401C58.2343 98.9401 58.3591 97.9861 57.9666 97.8984C56.2046 97.512 54.8786 96.9762 54.3147 96.4674C54.21 96.3705 54.0727 96.3182 53.9307 96.3209" fill="#4870C0"/>
<path d="M46.7421 70.4408C46.7641 70.2544 46.7864 70.0581 46.8087 69.8405C47.0905 67.0371 47.3786 63.6727 47.6345 60.4302C48.5743 62.9728 48.9795 66.5449 49.4681 70.4408H55.1822C54.7111 60.3569 53.47 52.1563 52.8131 48.6587H40.6819C40.6672 49.9121 40.5282 62.0721 40.2168 70.4408H46.7421" fill="#1D2A30"/>
<path d="M55.1822 70.4408H49.4681C48.9795 66.5449 48.5743 62.9728 47.6345 60.4302C47.3786 63.6727 47.0905 67.0371 46.8087 69.8405C46.7864 70.0581 46.7641 70.2544 46.7421 70.4408H45.8831H41.3538H40.2168C40.4349 64.5827 40.5682 56.8666 40.6338 52.3345L53.2837 51.5579C53.2829 51.5029 53.2823 51.4495 53.2818 51.3945C53.9487 55.6151 54.8082 62.434 55.1822 70.4408M44.1132 54.418C44.1132 54.418 42.8106 58.3216 44.1132 60.4171C45.4158 62.5093 45.8896 62.9016 45.8896 62.9016C45.8896 62.9016 46.3958 65.7869 46.8087 69.8342C47.0905 67.0308 47.3786 63.6593 47.6345 60.4171C47.6345 60.4171 44.0724 58.0465 44.1132 54.418" fill="#45555C"/>
<path d="M48.4082 23.6904C48.3796 23.8018 48.3481 23.9113 48.3095 24.0156C48.0856 24.6474 47.6803 25.1678 47.1785 25.5322C47.0474 25.6285 46.9084 25.7147 46.7648 25.7895C46.0051 26.1831 45.1031 26.2568 44.2882 25.8998C43.9548 25.7577 43.6319 25.5398 43.343 25.2417C42.1976 24.0775 42.2284 22.7337 42.0992 20.4583C42.0638 19.9688 42.1408 19.4777 42.3301 19.0272C42.9859 17.4372 44.8001 16.6861 46.3766 17.3464C48.5943 18.2568 48.8981 21.642 48.4082 23.6904" fill="#F47272"/>
<path d="M46.0107 26.063C46.011 25.9524 46.0159 25.8399 46.0249 25.7266C46.0374 25.5407 46.0635 25.3523 46.0948 25.1657C46.4449 25.2281 46.8221 25.3398 47.1782 25.5322C47.0471 25.6286 46.9081 25.7148 46.7645 25.7895C46.5248 25.9138 46.2713 26.006 46.0107 26.063" fill="#CD5A58"/>
<path d="M42.6289 28.4831C43.7425 29.5017 46.4709 29.125 46.4709 29.125C46.4709 29.125 48.1739 28.6558 47.8162 28.1204C46.8131 27.9537 46.3273 27.4826 46.1268 26.8795C46.0104 26.5286 45.993 26.1333 46.0251 25.7265C46.0395 25.513 46.0716 25.2964 46.1094 25.0826L42.7363 22.5688C43.1783 24.2283 43.7191 27.2805 42.6289 28.4831" fill="#F47272"/>
<path d="M47.1783 21.6187L47.666 21.8043L47.422 20.8011C47.422 20.8011 48.1368 19.7206 47.422 18.7556C47.422 18.7556 49.3921 18.1537 48.2794 17.1069C47.8657 16.7173 47.3513 17.1069 45.9932 16.5107C45.2558 16.1868 42.9495 16.1616 42.8345 17.1069C42.8345 17.1069 41.1734 17.0965 40.9941 19.9519C40.8149 22.8076 42.7534 24.452 42.7534 24.452C42.7534 24.452 44.7592 24.9302 45.7332 24.1197C46.7072 23.3091 47.1783 21.6187 47.1783 21.6187Z" fill="#1D2A30"/>
<path d="M45.8933 21.7813C46.0282 22.2765 46.2988 22.64 46.6456 22.7922C47.1061 22.9891 47.4083 22.3362 47.3419 21.6518C47.2788 21.0457 46.9668 20.1922 46.4743 20.305C45.9814 20.4178 45.7328 21.1695 45.8933 21.7813Z" fill="#F47272"/>
<path d="M46.8086 69.8342C46.3957 65.7869 45.8895 62.9016 45.8895 62.9016C45.8895 62.9016 45.4157 62.5093 44.1131 60.4171C42.8105 58.3216 44.1131 54.418 44.1131 54.418C44.0723 58.0465 47.6344 60.4171 47.6344 60.4171C47.3785 63.6593 47.0904 67.0307 46.8086 69.8342" fill="#364248"/>
<path d="M55.5925 69.965L55.3411 70.916H49.2598V70.0381L55.5925 69.965Z" fill="#4870C0"/>
<path d="M47.0384 70.0973L46.8565 70.9752H39.9689L39.5527 70.0973H47.0384Z" fill="#4870C0"/>
<path d="M47.8849 27.8237C47.8849 27.8237 46.8957 26.2485 44.4001 26.1355C41.9047 26.0227 41.7168 27.7522 41.7168 27.7522L47.8849 27.8237Z" fill="#4870C0"/>
<path d="M45.1945 27.588C44.9465 27.588 44.7047 27.585 44.4702 27.5798C44.2036 27.5735 43.9461 27.5642 43.6972 27.5522C43.0577 27.5215 42.4775 27.4736 41.9599 27.4166C41.9118 27.4112 41.8644 27.406 41.8174 27.4005C42.0132 26.9234 42.5782 26.1303 44.171 26.1303C44.2453 26.1303 44.322 26.132 44.4006 26.1355C46.1735 26.2157 47.1861 27.034 47.624 27.501C47.5286 27.5078 47.4339 27.5141 47.3401 27.5201C46.5774 27.5675 45.862 27.588 45.1945 27.588" fill="#A1BCE6"/>
<path d="M38.929 26.8508C38.929 26.8508 40.2166 38.5424 38.6689 52.4552L53.2835 51.5579C53.1179 36.5457 51.1208 27.0928 51.1208 27.0928C51.1208 27.0928 47.3512 27.8877 44.2879 27.7727C41.4031 27.6646 38.929 26.8508 38.929 26.8508" fill="#4870C0"/>
<path d="M51.1209 27.0928C51.1209 27.0928 53.0725 31.6851 53.2836 36.3349C53.4944 40.9848 45.3502 47.3592 45.3502 47.3592C45.3502 47.3592 39.0754 43.0121 34.2332 43.4063C29.3911 43.8002 27.8848 45.533 27.8848 45.533C27.8848 45.533 31.6509 37.4286 38.2063 34.6032C38.2063 34.6032 36.8458 29.9356 38.9291 26.8508C38.9291 26.8508 43.4603 28.3339 51.1209 27.0928" fill="#4870C0"/>
<path d="M30.2873 44.1846L30.2865 44.1837C31.2434 43.8481 32.5327 43.5446 34.2332 43.4063C34.4432 43.3891 34.6557 43.3811 34.8705 43.3811C36.0167 43.3811 37.2214 43.6138 38.3897 43.9669L38.3902 43.9683C37.2225 43.616 36.0181 43.3817 34.873 43.3817C34.6576 43.3817 34.4446 43.3899 34.2341 43.4071C32.5341 43.5467 31.2448 43.8479 30.2873 44.1846M30.1016 41.8033C30.5757 41.1233 31.1229 40.3987 31.7401 39.6722C31.1235 40.3984 30.5759 41.1236 30.1016 41.8033ZM37.8922 34.7437C37.9958 34.6955 38.1003 34.6489 38.2053 34.6035C38.2053 34.6035 38.1049 34.2591 38.0007 33.6955L38.0015 33.696C38.106 34.2591 38.2063 34.6032 38.2063 34.6032C38.1008 34.6487 37.9964 34.6955 37.8922 34.7437Z" fill="white"/>
<path d="M38.0011 33.696L38.0003 33.6955C38.0003 33.6952 38.0003 33.695 38 33.6947L38.0011 33.6955C38.0011 33.6958 38.0011 33.6958 38.0011 33.696Z" fill="#EEEEEE"/>
<path d="M38.0014 33.6955L38.0003 33.6947C37.9418 33.3771 37.882 32.9903 37.8379 32.5559C37.8822 32.9903 37.9423 33.3777 38.0014 33.6955Z" fill="#D4DDEF"/>
<path d="M47.6232 27.5012C47.6232 27.5012 47.6232 27.5012 47.6232 27.5009C48.1245 27.4656 48.6454 27.4186 49.1853 27.3578C49.3972 27.3342 49.6123 27.3085 49.8299 27.2806C49.6123 27.3085 49.3972 27.3342 49.1853 27.3578L49.1856 27.3583C48.6459 27.4191 48.1248 27.4659 47.6232 27.5012M40.9739 27.2872C40.972 27.2869 40.9701 27.2869 40.9682 27.2863C40.9663 27.2861 40.9641 27.2858 40.9619 27.2855C40.9641 27.2858 40.9663 27.2861 40.9682 27.2863C40.9701 27.2869 40.972 27.2869 40.9739 27.2872Z" fill="white"/>
<path d="M44.4702 27.5798C44.2034 27.5738 43.9458 27.5644 43.697 27.5527L43.6972 27.5521C43.0578 27.5215 42.4776 27.4736 41.96 27.4166C42.4776 27.4736 43.0578 27.5215 43.6972 27.5521C43.9461 27.5642 44.2037 27.5735 44.4702 27.5798M47.3401 27.5201C47.434 27.5141 47.5286 27.5078 47.6241 27.5009C47.6241 27.5012 47.6241 27.5012 47.6241 27.5012C47.5286 27.5078 47.434 27.5141 47.3401 27.5201" fill="#DBE8F7"/>
<path d="M45.3507 47.36C45.3507 47.36 43.0278 45.7504 40.1201 44.5815L40.1212 44.5802C43.0292 45.7512 45.3501 47.3592 45.3501 47.3592C45.3501 47.3592 46.5728 46.4019 48.0587 44.9588C46.5744 46.4028 45.3507 47.36 45.3507 47.36" fill="#B4CAEC"/>
<path d="M45.3503 47.3592C45.3503 47.3592 43.0293 45.7512 40.1214 44.5801L41.2817 42.9336L37.5145 41.959L38.3898 43.9669C37.2216 43.6138 36.0169 43.3811 34.8707 43.3811C34.6558 43.3811 34.4434 43.3891 34.2334 43.4063C32.5328 43.5446 31.2436 43.8481 30.2867 44.1838L29.1995 43.1745C29.1002 43.3343 29.0064 43.4887 28.918 43.6365C29.0061 43.4887 29.0999 43.3343 29.1995 43.1745C29.4622 42.751 29.7633 42.2886 30.1017 41.8033C30.5761 41.1236 31.1236 40.3984 31.7402 39.6722C32.1738 39.1619 32.6422 38.6508 33.1435 38.154L33.1462 38.1512C33.239 38.0587 33.3328 37.967 33.4277 37.8759C33.3328 37.967 33.239 38.0587 33.1462 38.1512L36.6006 37.9514L34.8435 36.6429C34.773 36.6982 34.7034 36.7538 34.634 36.8099C34.7034 36.7538 34.773 36.6982 34.8435 36.6429C35.7756 35.9076 36.7937 35.2523 37.8923 34.7437C37.9965 34.6955 38.101 34.6487 38.2065 34.6032C38.2065 34.6032 38.1061 34.2591 38.0017 33.6961C38.0017 33.6958 38.0017 33.6958 38.0017 33.6955C37.9427 33.3777 37.8825 32.9903 37.8382 32.5559C37.789 32.0675 37.7599 31.5198 37.7756 30.9438C37.7838 30.563 37.8137 30.1691 37.8708 29.7749C38.0123 28.7673 38.3278 27.7435 38.9289 26.8513C38.9289 26.8513 39.6367 27.0832 40.9627 27.2855C40.9648 27.2858 40.967 27.286 40.9689 27.2863L42.6281 29.8294L43.6968 27.5527C43.9457 27.5644 44.2033 27.5737 44.4701 27.5798C44.707 27.5852 44.951 27.5883 45.2015 27.5883C45.8666 27.5883 46.58 27.5677 47.34 27.5201C47.4338 27.5141 47.5285 27.5078 47.6239 27.5012C48.1255 27.4659 48.6467 27.4191 49.1863 27.3583L49.7273 28.7484L51.0008 27.4328C50.932 27.6852 50.8586 28.0733 50.8588 28.5828C50.8588 28.5924 50.8588 28.6019 50.8588 28.6115C50.8618 29.0731 50.9249 29.6326 51.1055 30.2794V30.2797C51.1058 30.2811 51.1064 30.2825 51.1066 30.2838C51.1912 30.5863 51.3011 30.9077 51.4426 31.2469L50.644 31.8606L51.7124 32.5682C51.7431 33.4992 51.9501 34.9725 52.7843 36.5917L51.8272 36.3281L52.79 38.7127V38.7152C52.2896 39.9169 51.4627 41.1408 50.5379 42.2769L51.3974 40.0647L47.3528 40.6067L49.1017 43.9029C48.7481 44.2763 48.3967 44.6302 48.0589 44.9587C46.5729 46.4019 45.3503 47.3592 45.3503 47.3592M44.8014 40.8222L43.2722 42.4197L45.5842 42.8257L44.8014 40.8222ZM32.458 40.4433V42.4197L34.2334 41.2013L32.458 40.4433M44.0254 34.6032L40.5862 35.2449L41.7172 38.7141L44.0254 34.6032M47.6346 35.4075V38.0064L50.1051 37.1132L47.6346 35.4075ZM47.8853 30.4801L44.8014 30.805L46.5982 33.2416L47.8853 30.4801ZM40.5854 29.1946L37.8708 29.7749C37.8137 30.1691 37.7838 30.563 37.7756 30.9438L40.2155 32.8077L40.5854 29.1946Z" fill="#B4CAEC"/>
<path d="M27.8877 45.5314V45.5311C27.9331 45.4807 28.541 44.8306 30.1108 44.2481C29.9568 44.3058 29.8115 44.3649 29.6747 44.4227C29.6176 44.4473 29.5605 44.4723 29.5061 44.4966C28.9811 44.732 28.6003 44.9647 28.3419 45.1511C28.3011 45.1785 28.2631 45.2084 28.2277 45.236C28.157 45.288 28.0999 45.3343 28.0509 45.3784L27.9856 45.4358L27.9394 45.4794L27.9067 45.5122L27.8877 45.5314" fill="white"/>
<path d="M52.79 38.7127C52.8784 38.4992 52.9568 38.2865 53.0231 38.0752C52.9568 38.2865 52.8787 38.4992 52.79 38.7127Z" fill="#B4CAEC"/>
<path d="M49.1015 43.9029L47.3525 40.6067L51.3972 40.0647L50.5377 42.2769C50.0753 42.8462 49.5857 43.3937 49.1015 43.9029" fill="#C4D7F1"/>
<path d="M33.4277 37.8759C33.8118 37.5074 34.213 37.1507 34.6341 36.8099C34.2135 37.1518 33.8118 37.5088 33.4277 37.8759Z" fill="white"/>
<path d="M33.1455 38.1512C33.2383 38.0587 33.3321 37.967 33.427 37.8759C33.8111 37.5088 34.2128 37.1518 34.6333 36.8099C34.7027 36.7538 34.7723 36.6982 34.8428 36.6429L36.5999 37.9514L33.1455 38.1512" fill="#C4D7F1"/>
<path d="M40.2152 32.8077L37.7754 30.9438C37.7836 30.563 37.8135 30.1691 37.8706 29.7749L40.5851 29.1946L40.2152 32.8077Z" fill="#C4D7F1"/>
<path d="M41.7169 38.7141L40.5859 35.2449L44.0251 34.6032L41.7169 38.7141" fill="#C4D7F1"/>
<path d="M47.6338 38.0065V35.4075L50.1044 37.1132L47.6338 38.0065Z" fill="#C4D7F1"/>
<path d="M39.2984 44.2684C39.0006 44.1613 38.6981 44.0606 38.3929 43.9683H38.3902L38.3896 43.967C38.6954 44.0592 38.9995 44.1602 39.2987 44.267C39.2984 44.2678 39.2984 44.2676 39.2984 44.2684" fill="white"/>
<path d="M40.1196 44.5815C39.8503 44.4734 39.5761 44.368 39.2979 44.2684C39.2979 44.2676 39.2979 44.2678 39.2981 44.267C39.5764 44.3667 39.8511 44.4715 40.1207 44.5802L40.1196 44.5815Z" fill="#C4D7F1"/>
<path d="M40.1215 44.5801C39.8519 44.4715 39.5772 44.3666 39.299 44.267C38.9998 44.1602 38.6957 44.0592 38.3899 43.967L37.5146 41.959L41.2818 42.9336L40.1215 44.5801" fill="#C4D7F1"/>
<path d="M32.458 42.4197V40.4433L34.2333 41.2013L32.458 42.4197" fill="#C4D7F1"/>
<path d="M27.8857 45.5341C27.8857 45.5341 27.8866 45.5328 27.888 45.5295C27.8888 45.5286 27.8896 45.5278 27.8904 45.527C27.8896 45.5286 27.8891 45.53 27.8885 45.5311C27.8866 45.5333 27.8857 45.5341 27.8857 45.5341Z" fill="white"/>
<path d="M27.8877 45.5295C27.919 45.4632 28.2704 44.7208 28.9178 43.6365C28.8204 43.8002 28.7301 43.956 28.6471 44.1027C28.6063 44.1709 28.5682 44.2393 28.5329 44.305C28.4948 44.3707 28.4594 44.4337 28.4268 44.4942C28.405 44.5322 28.386 44.5678 28.367 44.6034C28.2282 44.8525 28.1222 45.0578 28.046 45.2111C28.0161 45.2686 27.9916 45.3206 27.9698 45.3617C27.9252 45.4517 27.8986 45.5076 27.8901 45.527C27.8893 45.5278 27.8885 45.5287 27.8877 45.5295" fill="#658ACF"/>
<path d="M30.1113 44.2481C30.1687 44.2268 30.2275 44.2054 30.2873 44.1846C30.2275 44.2057 30.1687 44.227 30.1113 44.2481Z" fill="white"/>
<path d="M27.8877 45.5311C27.8882 45.53 27.8888 45.5287 27.8896 45.527C27.9551 45.4553 28.6126 44.7707 30.2859 44.1838L30.2867 44.1846C30.2269 44.2054 30.1681 44.2267 30.1108 44.2481C28.541 44.8306 27.9331 45.4808 27.8877 45.5311" fill="white"/>
<path d="M27.8896 45.527C27.8981 45.5076 27.9247 45.4518 27.9693 45.3617C27.9911 45.3206 28.0156 45.2686 28.0455 45.2111C28.1217 45.0578 28.2277 44.8525 28.3665 44.6034C28.3855 44.5678 28.4045 44.5323 28.4263 44.4942C28.4589 44.4337 28.4943 44.3707 28.5324 44.305C28.5677 44.2393 28.6058 44.1709 28.6466 44.1027C28.7296 43.956 28.8199 43.8003 28.9173 43.6366C29.0057 43.4887 29.0995 43.3343 29.1988 43.1745L30.286 44.1838C28.6126 44.7707 27.9552 45.4553 27.8896 45.527" fill="#C4D7F1"/>
<path d="M45.5835 42.8257L43.2715 42.4197L44.8007 40.8221L45.5835 42.8257Z" fill="#C4D7F1"/>
<path d="M46.5976 33.2416L44.8008 30.805L47.8847 30.4801L46.5976 33.2416Z" fill="#C4D7F1"/>
<path d="M51.712 32.5682L50.6436 31.8606L51.4421 31.2469C51.5243 31.4445 51.6173 31.6482 51.722 31.8576C51.7106 32.0312 51.7025 32.2723 51.712 32.5682Z" fill="#C4D7F1"/>
<path d="M53.0225 38.0751C53.1011 37.8255 53.1628 37.5775 53.2055 37.3327C53.2436 37.1302 53.2681 36.9276 53.279 36.7278C53.2567 37.1663 53.1666 37.6174 53.0225 38.0751Z" fill="#658ACF"/>
<path d="M52.79 38.7127L51.8271 36.3281L52.7843 36.5917C52.9103 36.8359 53.0503 37.0834 53.2062 37.3328C53.1635 37.5775 53.1017 37.8255 53.0231 38.0752C52.9568 38.2865 52.8784 38.4992 52.79 38.7127Z" fill="#C4D7F1"/>
<path d="M49.1858 27.3583L49.1855 27.3578C49.3974 27.3342 49.6126 27.3085 49.8302 27.2806C49.6123 27.3088 49.398 27.3345 49.1858 27.3583ZM50.3565 27.2091C50.607 27.1733 50.8616 27.1341 51.1195 27.092C51.1195 27.0923 51.1192 27.0925 51.1189 27.0931C50.8613 27.1347 50.607 27.1733 50.3565 27.2091" fill="white"/>
<path d="M49.7266 28.7484L49.1855 27.3583C49.3977 27.3345 49.612 27.3088 49.8299 27.2806C50.0034 27.2584 50.1789 27.2346 50.3562 27.2091C50.6067 27.1733 50.8611 27.1347 51.1186 27.0931C51.1132 27.104 51.0583 27.2204 51.0001 27.4328L49.7266 28.7484" fill="#C4D7F1"/>
<path d="M40.9728 27.2871C40.9715 27.2869 40.9701 27.2869 40.9688 27.2865C40.9701 27.2869 40.9715 27.2869 40.9728 27.2871Z" fill="white"/>
<path d="M43.697 27.5527C43.0575 27.522 42.4773 27.4738 41.96 27.4166C42.4776 27.4736 43.0578 27.5215 43.6972 27.5521L43.697 27.5527Z" fill="#E3EDF9"/>
<path d="M42.628 29.8294L40.9688 27.2863C40.9707 27.2869 40.9726 27.2869 40.9745 27.2871C41.2723 27.3331 41.6009 27.3769 41.9596 27.4166C42.477 27.4738 43.0572 27.522 43.6966 27.5527L42.628 29.8294Z" fill="#C4D7F1"/>
<path d="M53.2792 36.7278L52.7839 36.5917C51.9496 34.9725 51.7427 33.4992 51.7119 32.5682L52.3906 33.0177C52.4275 33.0741 52.4654 33.1311 52.504 33.1883C52.64 33.3881 52.7841 33.5934 52.9419 33.8017L53.0047 33.7552C53.1415 34.5923 53.2416 35.4609 53.2819 36.3339C53.2843 36.3919 53.2857 36.4507 53.2857 36.5102C53.2857 36.5819 53.2835 36.6544 53.2792 36.7278Z" fill="#8AA1D3"/>
<path d="M52.3908 33.0177L51.7122 32.5682C51.7027 32.2723 51.7108 32.0311 51.7223 31.8576C51.8243 32.0612 51.9371 32.2707 52.0625 32.4853C52.1637 32.6594 52.2731 32.8368 52.3908 33.0177" fill="#98AAD4"/>
<path d="M53.2061 37.3328C53.0502 37.0834 52.9101 36.8359 52.7842 36.5917L53.2795 36.7278C53.2686 36.9276 53.2441 37.1302 53.2061 37.3328" fill="#98AAD4"/>
<path d="M45.5672 14.9938C48.7956 13.8748 49.6062 18.2027 46.3998 21.1287C43.1935 24.0545 39.5111 24.4044 39.0928 22.93C38.6742 21.4556 40.6405 16.702 45.5672 14.9938" fill="#4870C0"/>
<path d="M42.3329 14.7776C43.9894 14.7707 46.3433 16.474 46.3433 16.474C46.3433 16.474 46.6795 18.2788 45.0295 19.8673C43.3796 21.4556 41.8939 21.7083 40.9688 21.0948C40.044 20.4808 39.793 18.0899 39.793 18.0899C39.793 18.0899 40.0285 17.1597 40.9688 16.8712C40.9688 16.8712 41.2408 14.782 42.3329 14.7776" fill="#4870C0"/>
<path d="M44.5423 15.411C44.0612 15.1786 43.5346 14.9692 43.0308 14.8591C43.0308 14.8589 43.0305 14.8586 43.0303 14.8583C43.5343 14.9678 44.0617 15.1775 44.5437 15.4105C44.5431 15.4107 44.5429 15.4107 44.5423 15.411" fill="#CECDCC"/>
<path d="M40.4121 20.4008C40.3167 20.2133 40.2342 20.0074 40.1641 19.7986C40.2345 20.0074 40.3167 20.2133 40.4121 20.4008ZM46.3716 16.8799C46.3716 16.6253 46.3434 16.4734 46.3434 16.4734C46.3434 16.4734 46.1856 16.3584 45.9245 16.1914C45.9245 16.1917 45.9245 16.1917 45.9248 16.192C45.5948 15.9796 45.099 15.6798 44.5424 15.411C44.543 15.4107 44.5433 15.4107 44.5438 15.4105C45.0998 15.679 45.5954 15.979 45.9245 16.1914C46.1856 16.3584 46.3434 16.4734 46.3434 16.4734C46.3434 16.4734 46.3716 16.6253 46.3716 16.8799Z" fill="#395EB4"/>
<path d="M41.5739 20.8114C41.232 20.8114 40.8931 20.7651 40.5664 20.6674C40.5118 20.5845 40.4603 20.495 40.4125 20.4008C40.317 20.2133 40.2349 20.0074 40.1644 19.7985C39.8856 18.9691 39.7939 18.0885 39.7939 18.0885C40.2631 18.6551 40.7544 18.8793 41.2198 18.8793C42.3195 18.8793 43.2747 17.6283 43.4523 16.6896C43.5938 15.9319 43.4009 15.256 43.0313 14.8591C43.535 14.9691 44.0616 15.1786 44.5428 15.411C45.0993 15.6798 45.5952 15.9795 45.9251 16.192C46.0173 16.9146 45.9409 17.8862 45.2475 18.8577C44.3984 20.0463 42.9627 20.8114 41.5739 20.8114" fill="#395EB4"/>
<path d="M43.7949 20.8361C44.191 20.5963 44.6047 20.276 45.0293 19.8673C46.6792 18.2787 46.343 16.4739 46.343 16.4739C46.343 16.4739 46.1861 16.3603 45.9247 16.192C45.9244 16.1917 45.9244 16.1917 45.9244 16.1914C46.1855 16.3584 46.3433 16.4734 46.3433 16.4734C46.3433 16.4734 46.3716 16.6253 46.3716 16.8799C46.3716 17.5029 46.2016 18.7405 45.0295 19.8678C44.6047 20.2765 44.191 20.5963 43.7949 20.8361Z" fill="#ADC1E8"/>
<path d="M42.0368 21.4019C41.6305 21.4019 41.2701 21.2941 40.969 21.0942C40.8166 20.9932 40.6834 20.8451 40.5664 20.6675C40.8931 20.7652 41.232 20.8114 41.5739 20.8114C42.9627 20.8114 44.3983 20.0463 45.2475 18.8577C45.9409 17.8862 46.0173 16.9147 45.9251 16.192C46.1865 16.3604 46.3434 16.474 46.3434 16.474C46.3434 16.474 46.6796 18.2788 45.0297 19.8673C44.6051 20.276 44.1913 20.5963 43.7953 20.8361C43.1531 21.2245 42.5574 21.4019 42.0368 21.4019" fill="#ADC1E8"/>
<path d="M51.1198 27.0919C51.1198 27.0919 49.8433 29.6859 52.9422 33.8011L59.7713 28.7484L57.0453 23.7796L51.1198 27.0919" fill="#4870C0"/>
<path d="M53.0052 33.7549L53.0049 33.7543L55.3541 32.0163L55.3544 32.0169L53.0052 33.7549Z" fill="white"/>
<path d="M53.0049 33.7552C53.0049 33.7546 53.0049 33.7546 53.0049 33.7541L53.0054 33.7535L53.006 33.7546L53.0049 33.7552Z" fill="#B4CAEC"/>
<path d="M52.9418 33.8017C52.7841 33.5934 52.6399 33.3881 52.5039 33.1882V33.1877C52.6394 33.3883 52.7849 33.5928 52.9418 33.8011L53.0047 33.7546C53.0047 33.7549 53.0047 33.7549 53.0047 33.7552L52.9418 33.8017Z" fill="#D4DDEF"/>
<path d="M51.1062 30.2838C51.1059 30.2824 51.1054 30.2811 51.1051 30.2797C51.1054 30.2811 51.1059 30.2824 51.1062 30.2838ZM51.1051 30.2794C50.9245 29.6326 50.8614 29.073 50.8584 28.6115L50.8592 28.6112C50.8617 29.0733 50.9248 29.6329 51.1051 30.2794Z" fill="#E3EDF9"/>
<path d="M59.0946 29.2491L59.7716 28.7484L59.0527 27.4377C59.053 27.4377 59.0533 27.4374 59.0533 27.4374L59.7724 28.7484L59.0946 29.2491M57.3337 24.3044L57.0459 23.7802L57.047 23.7797L57.3345 24.3039C57.3345 24.3042 57.3339 24.3044 57.3337 24.3044Z" fill="white"/>
<path d="M59.052 27.4377L57.333 24.3044C57.3333 24.3044 57.3338 24.3041 57.3338 24.3039L59.0526 27.4374C59.0526 27.4374 59.0523 27.4377 59.052 27.4377" fill="#FBC7C9"/>
<path d="M51.1201 27.092L52.6379 26.2434L52.8305 26.1361L52.6379 26.2436V26.2434L51.1201 27.092" fill="white"/>
<path d="M52.9421 33.8011C52.7851 33.5928 52.6396 33.3883 52.5042 33.1877L52.9421 31.2392L51.7534 31.9181C51.4521 31.3257 51.2448 30.7793 51.1064 30.2838C51.1061 30.2824 51.1055 30.2811 51.1053 30.2797V30.2794C50.9249 29.6328 50.8618 29.0733 50.8594 28.6112L53.5078 27.9187L52.6374 26.2436L52.83 26.136L55.2514 24.7845L56.3992 24.1412L57.0455 23.7802L57.3332 24.3044L59.0523 27.4377L59.7712 28.7484L59.0942 29.249L57.9904 30.0648L54.1933 29.416L55.3544 32.0163L53.0052 33.7543L53.0049 33.7546L52.9421 33.8011M56.3992 24.1412L55.2514 24.7845L55.3139 26.8513L57.7456 25.882L56.3992 24.1412Z" fill="#B4CAEC"/>
<path d="M55.3548 32.0169L55.3545 32.0164L56.3965 31.2452L55.3548 32.0169" fill="white"/>
<path d="M55.3545 32.0164L54.1934 29.4161L57.9905 30.0648L56.3966 31.2452L55.3545 32.0164" fill="#C4D7F1"/>
<path d="M55.3135 26.8513L55.251 24.7845L56.3988 24.1412L57.7452 25.882L55.3135 26.8513Z" fill="#C4D7F1"/>
<path d="M50.8584 28.6115C50.8584 28.6019 50.8584 28.5923 50.8584 28.5828C50.8581 28.0733 50.9316 27.6852 51.0004 27.4328L51.0009 27.4322C50.9308 27.6893 50.8562 28.0876 50.8592 28.6112L50.8584 28.6115Z" fill="#EAF1FA"/>
<path d="M51.1191 27.0931C51.1195 27.0924 51.1199 27.092 51.1199 27.0916C51.1199 27.092 51.1195 27.0924 51.1191 27.0931Z" fill="white"/>
<path d="M51.001 27.4328C51.0592 27.2204 51.1141 27.104 51.1196 27.0931C51.1141 27.104 51.0595 27.2204 51.0015 27.4323L51.001 27.4328Z" fill="#F0F5FB"/>
<path d="M51.1201 27.092L52.6379 26.2434V26.2436L51.1201 27.092Z" fill="white"/>
<path d="M50.8595 28.6113C50.8565 28.0876 50.931 27.6893 51.0012 27.4322C51.0591 27.2204 51.1138 27.104 51.1192 27.0931C51.1195 27.0925 51.1198 27.0923 51.1198 27.092L52.6375 26.2436L53.5079 27.9187L50.8595 28.6113" fill="#C4D7F1"/>
<path d="M52.5041 33.1882C52.4654 33.131 52.4276 33.0741 52.3906 33.0177L52.3914 33.0182C52.4282 33.0744 52.4657 33.131 52.5041 33.1877V33.1882Z" fill="#DEE4F3"/>
<path d="M52.3916 33.0182L52.3908 33.0177C52.273 32.8368 52.1637 32.6594 52.0625 32.4853C52.164 32.6594 52.2736 32.837 52.3916 33.0182Z" fill="#E2E7F3"/>
<path d="M52.5046 33.1877C52.4663 33.1311 52.4287 33.0744 52.392 33.0183C52.274 32.8371 52.1644 32.6594 52.0629 32.4853C51.95 32.2918 51.8475 32.1026 51.7539 31.9181L52.9425 31.2392L52.5046 33.1877" fill="#C4D7F1"/>
<path d="M69.3755 73.3751L69.4073 72.9655L66.4156 72.7296L67.6752 56.5433L70.2606 56.747L68.9688 73.3428L69.3755 73.3751L69.4073 72.9655L69.3755 73.3751L69.7824 73.4071L71.1378 55.9923L66.9256 55.6602L65.5381 73.484L69.7503 73.8163L69.7824 73.4071L69.3755 73.3751" fill="#1D2A30"/>
<path d="M66.8499 96.7934C66.9434 96.801 67.2962 96.8287 67.39 96.8361C67.9974 96.8838 68.4527 97.3981 68.4051 98.0096C68.3575 98.6207 67.8282 99.0575 67.2209 99.0097C67.127 99.0022 66.7742 98.9743 66.6804 98.9672C66.0733 98.919 65.6177 98.4046 65.6656 97.7936C65.7129 97.1821 66.2425 96.7457 66.8499 96.7934" fill="#1D2A30"/>
<path d="M65.665 97.7891C65.6653 97.7838 65.6656 97.7786 65.6661 97.7735C65.6868 97.5073 65.7994 97.2702 65.97 97.0918L65.9942 97.0937C65.8103 97.2695 65.6879 97.5108 65.665 97.7891" fill="#F9F9F9"/>
<path d="M66.7673 98.9704C66.7385 98.9704 66.7094 98.9693 66.68 98.9672C66.0778 98.9193 65.6265 98.3937 65.6654 97.789C65.6883 97.5108 65.8107 97.2694 65.9945 97.0937L67.5917 97.2193C67.6113 97.2209 67.6306 97.2215 67.6497 97.2215C67.6559 97.2215 67.6622 97.2215 67.6684 97.2215C67.8112 97.4255 67.8869 97.6787 67.8659 97.9469C67.8208 98.5287 67.3377 98.9707 66.7673 98.9704" fill="#304047"/>
<path d="M63.8793 96.5593C63.9729 96.5667 64.3257 96.5946 64.4195 96.602C65.0269 96.6499 65.4822 97.1643 65.4346 97.7752C65.387 98.3869 64.8577 98.8231 64.2504 98.7756C64.1565 98.7682 63.804 98.7402 63.7102 98.7328C63.1028 98.6852 62.6475 98.1709 62.6948 97.5593C62.7424 96.9483 63.272 96.5114 63.8793 96.5593" fill="#1D2A30"/>
<path d="M62.6963 97.5469C62.6966 97.5445 62.6968 97.5418 62.6968 97.5394C62.7205 97.2377 62.8617 96.9735 63.0719 96.7892C63.0785 96.7931 63.085 96.7969 63.0918 96.8005C62.8728 96.9782 62.7235 97.2402 62.6963 97.5469" fill="#FAFAFA"/>
<path d="M63.7978 98.7365C63.769 98.7365 63.7398 98.7353 63.7105 98.7328C63.1055 98.6852 62.6532 98.1553 62.6962 97.5469C62.7234 97.2402 62.8727 96.9782 63.0917 96.8005C63.1795 96.8487 63.2785 96.8796 63.3846 96.8878L64.7019 96.9915C64.8425 97.1949 64.9171 97.4465 64.8964 97.7129C64.851 98.2946 64.3679 98.7365 63.7978 98.7365" fill="#45555C"/>
<path d="M63.3845 96.8878L67.5915 97.2193C67.9949 97.2511 68.3476 96.9478 68.3789 96.5418L70.3827 70.8005C70.4143 70.3945 70.1126 70.0395 69.7095 70.0077L65.5025 69.6762C65.0991 69.6444 64.7464 69.9478 64.7148 70.3534L62.7113 96.095C62.6797 96.501 62.9811 96.856 63.3845 96.8878" fill="#1D2A30"/>
<path d="M65.9705 97.0917L65.4836 97.0535C65.4796 97.0529 65.4758 97.0526 65.4717 97.0524L65.9705 97.0915V97.0917" fill="#FAFAFA"/>
<path d="M65.9947 97.0937L65.9707 97.0918V97.0916L65.9947 97.0935V97.0937Z" fill="#FAFBFB"/>
<path d="M67.6493 97.2216C67.6302 97.2216 67.6109 97.2209 67.5913 97.2193L65.9941 97.0937V97.0935L67.5913 97.2193C67.6109 97.2209 67.6302 97.2216 67.6493 97.2216C67.6555 97.2216 67.6618 97.2216 67.668 97.2216C67.6618 97.2216 67.6555 97.2216 67.6493 97.2216Z" fill="#57676E"/>
<path d="M67.6493 97.2216C67.6303 97.2216 67.6109 97.2209 67.5914 97.2193L65.9942 97.0935L65.97 97.0915L65.4711 97.0524C65.0737 97.0143 64.7786 96.6625 64.8099 96.2604L66.8134 70.5191C66.8434 70.1326 67.1643 69.8394 67.5429 69.8394C67.5623 69.8394 67.5816 69.8402 67.6012 69.8416L69.7094 70.0078C70.0279 70.0329 70.2828 70.2596 70.3603 70.5536L68.3483 70.3951C68.3198 70.3926 68.2912 70.3915 68.2627 70.3915C67.8596 70.3915 67.5005 70.6174 67.3147 70.9582C67.2429 71.0901 67.1967 71.2399 67.1836 71.4006L65.3014 95.5804C65.2552 96.1769 65.704 96.7052 66.2969 96.7518L68.2499 96.9059C68.1199 97.0931 67.9063 97.2153 67.6681 97.2216C67.6618 97.2216 67.6556 97.2216 67.6493 97.2216" fill="#45555C"/>
<path d="M67.2204 56.6082L70.7588 56.8869C71.0583 56.9104 71.3202 56.6854 71.3436 56.3837L71.3697 56.0492C71.3931 55.7475 71.1693 55.4839 70.8698 55.4604L67.3313 55.1817C67.0319 55.1579 66.7699 55.3832 66.7465 55.6848L66.7204 56.0194C66.697 56.3208 66.9209 56.5844 67.2204 56.6082" fill="#1D2A30"/>
<path d="M70.8011 56.8885C70.787 56.8885 70.7726 56.888 70.7582 56.8869L67.2197 56.6082L67.5165 56.6312C67.5309 56.6326 67.5453 56.6331 67.5595 56.6331C67.8407 56.6331 68.079 56.4152 68.1013 56.1284L68.1274 55.7936C68.1505 55.4963 67.9335 55.2362 67.6402 55.2061L70.8691 55.4604C71.1547 55.4829 71.3713 55.7235 71.3707 56.0071C71.3707 56.0211 71.3702 56.035 71.3691 56.0492L71.343 56.3838C71.3207 56.6709 71.0824 56.8885 70.8011 56.8885" fill="#45555C"/>
<path d="M67.6406 55.2061L67.3311 55.1818L67.6278 55.205C67.6322 55.2053 67.6362 55.2056 67.6406 55.2061" fill="#CECDCC"/>
<path d="M67.5601 56.6331C67.5459 56.6331 67.5315 56.6326 67.5171 56.6312L67.2203 56.6082C66.9347 56.5855 66.7182 56.3449 66.7188 56.0615C66.7188 56.0476 66.7193 56.0336 66.7204 56.0194L66.7465 55.6849C66.7688 55.3977 67.0068 55.1798 67.2881 55.1798C67.3022 55.1798 67.3166 55.1804 67.3313 55.1817L67.6408 55.2061C67.9341 55.2362 68.1511 55.4963 68.128 55.7935L68.1019 56.1283C68.0796 56.4152 67.8413 56.6331 67.5601 56.6331" fill="#364248"/>
<path d="M78.2106 72.7313L76.4005 95.9894C76.3341 96.8435 75.5894 97.4841 74.7407 97.4173L66.2973 96.7515C65.7019 96.7045 65.2566 96.1767 65.3031 95.5774L67.1851 71.3992C67.2319 70.7967 67.7533 70.348 68.3487 70.3951L76.7921 71.0606C77.6405 71.1277 78.2773 71.8772 78.2106 72.7313" fill="#4870C0"/>
<path d="M74.8626 97.4219C74.8224 97.4219 74.7818 97.4202 74.741 97.4172L69.8015 97.0277C69.3402 96.8736 69.023 96.4196 69.0611 95.9116L70.9434 71.729C70.9899 71.1555 71.4634 70.7208 72.0229 70.7208C72.0509 70.7208 72.0792 70.7219 72.1075 70.7241L72.4094 70.749L72.4122 70.7162L68.3485 70.3959C68.3199 70.3937 68.2914 70.3926 68.2633 70.3926C67.8602 70.3926 67.5017 70.6171 67.3154 70.9582C67.5012 70.6174 67.8602 70.3915 68.2633 70.3915C68.2919 70.3915 68.3205 70.3926 68.349 70.3951L76.7925 71.0605C77.5995 71.1243 78.215 71.8054 78.2158 72.6069C78.2158 72.648 78.2142 72.6896 78.2109 72.7312L77.1656 86.1635L76.8877 89.7329L76.4008 95.9894C76.3377 96.8024 75.6596 97.4219 74.8626 97.4219M77.2543 72.0039C77.1017 72.0039 76.972 72.1224 76.96 72.2784L75.1148 95.9869C75.102 96.1508 75.2238 96.2943 75.3865 96.3072L75.5121 96.317C75.52 96.3177 75.5279 96.3179 75.5355 96.3179C75.6887 96.3179 75.8182 96.1996 75.8304 96.0432L77.6756 72.3348C77.6884 72.1709 77.5666 72.0277 77.4039 72.0145L77.278 72.005C77.2701 72.0041 77.2622 72.0039 77.2543 72.0039M75.5674 71.9045C75.4145 71.9045 75.2848 72.023 75.2725 72.1788L73.4273 95.8876C73.4145 96.0515 73.5363 96.195 73.6993 96.2078L73.8249 96.2177C73.8328 96.2182 73.8404 96.2185 73.8483 96.2185C74.0012 96.2185 74.1309 96.0999 74.1429 95.9442L75.9884 72.2355C76.0012 72.0715 75.8793 71.928 75.7164 71.9155L75.5908 71.9053C75.5829 71.9048 75.575 71.9045 75.5674 71.9045M73.8799 71.8051C73.727 71.8051 73.5973 71.9234 73.5853 72.0797L71.7398 95.7881C71.7273 95.9521 71.8489 96.0956 72.0118 96.1082L72.1374 96.1185C72.1453 96.1191 72.1529 96.1194 72.1608 96.1194C72.3137 96.1194 72.4434 96.0006 72.4554 95.8448L74.3009 72.1361C74.3137 71.9721 74.1919 71.8287 74.0289 71.8158L73.9033 71.806C73.8954 71.8054 73.8878 71.8051 73.8799 71.8051ZM72.1927 71.5533C72.0398 71.5533 71.9101 71.6715 71.8978 71.8279L70.0526 95.5366C70.0398 95.7003 70.1614 95.8437 70.3243 95.8566L70.45 95.8667C70.4578 95.8673 70.4657 95.8676 70.4733 95.8676C70.6265 95.8676 70.756 95.7488 70.7682 95.593L72.6134 71.8842C72.6262 71.7203 72.5046 71.5768 72.3414 71.564L72.2158 71.5541C72.2082 71.5536 72.2003 71.5533 72.1927 71.5533Z" fill="#658ACF"/>
<path d="M69.8031 97.0286L68.25 96.9059C68.25 96.9059 68.25 96.9056 68.2503 96.9056L69.8009 97.0277C69.8018 97.028 69.8023 97.0282 69.8031 97.0286" fill="#C5C4C2"/>
<path d="M68.2506 96.9059L66.2976 96.7518C65.7047 96.7052 65.2559 96.1769 65.3021 95.5804L67.1843 71.4005C67.1974 71.2399 67.2436 71.0901 67.3154 70.9582C67.2436 71.0901 67.1979 71.239 67.1854 71.3992L65.3035 95.5774C65.3013 95.6067 65.3002 95.6357 65.3002 95.6647C65.3007 96.227 65.7313 96.7069 66.2976 96.7515L68.2509 96.9056C68.2506 96.9056 68.2506 96.9059 68.2506 96.9059" fill="#364248"/>
<path d="M69.8011 97.0276L68.2505 96.9055L66.2972 96.7515C65.7309 96.7069 65.3003 96.2269 65.2998 95.6647C65.2998 95.6356 65.3009 95.6066 65.3031 95.5773L67.185 71.3992C67.1976 71.239 67.2432 71.0901 67.3151 70.9581C67.5014 70.6171 67.8599 70.3926 68.263 70.3926C68.291 70.3926 68.3196 70.3937 68.3481 70.3959L72.4118 70.7162L72.4091 70.749L72.1071 70.7241C72.0789 70.7219 72.0506 70.7208 72.0226 70.7208C71.463 70.7208 70.9895 71.1555 70.943 71.729L69.0607 95.9116C69.0227 96.4196 69.3398 96.8736 69.8011 97.0276Z" fill="#4B70C0"/>
<path d="M70.4735 95.8676C70.4658 95.8676 70.458 95.8673 70.4501 95.8667L70.3244 95.8565C70.1615 95.8437 70.0399 95.7003 70.0527 95.5366L71.8979 71.8278C71.9102 71.6715 72.0399 71.5533 72.1928 71.5533C72.2004 71.5533 72.2083 71.5536 72.2159 71.5541L72.3416 71.564C72.5048 71.5768 72.6263 71.7203 72.6136 71.8842L70.7683 95.593C70.7561 95.7488 70.6266 95.8676 70.4735 95.8676" fill="#4B70C0"/>
<path d="M72.1602 96.1194C72.1523 96.1194 72.1447 96.1191 72.1368 96.1186L72.0112 96.1082C71.8482 96.0956 71.7267 95.9522 71.7392 95.7882L73.5847 72.0797C73.5967 71.9234 73.7264 71.8052 73.8793 71.8052C73.8871 71.8052 73.8948 71.8054 73.9027 71.806L74.0283 71.8158C74.1912 71.8287 74.3131 71.9722 74.3003 72.1361L72.4548 95.8448C72.4428 96.0006 72.3131 96.1194 72.1602 96.1194" fill="#4B70C0"/>
<path d="M73.8478 96.2186C73.8399 96.2186 73.8323 96.2182 73.8244 96.2177L73.6987 96.2079C73.5358 96.195 73.4139 96.0515 73.4267 95.8876L75.272 72.1788C75.2842 72.0231 75.4139 71.9045 75.5668 71.9045C75.5744 71.9045 75.5823 71.9048 75.5902 71.9054L75.7159 71.9155C75.8788 71.9281 76.0006 72.0715 75.9879 72.2355L74.1423 95.9443C74.1304 96.1 74.0006 96.2186 73.8478 96.2186" fill="#4B70C0"/>
<path d="M75.535 96.3179C75.5274 96.3179 75.5195 96.3177 75.5116 96.317L75.3859 96.3072C75.2233 96.2943 75.1014 96.1508 75.1142 95.9869L76.9594 72.2784C76.9714 72.1224 77.1012 72.0039 77.2538 72.0039C77.2616 72.0039 77.2695 72.0041 77.2774 72.005L77.4034 72.0145C77.566 72.0277 77.6879 72.1709 77.6751 72.3348L75.8298 96.0433C75.8176 96.1996 75.6881 96.3179 75.535 96.3179" fill="#4B70C0"/>
</g>
<defs>
<clipPath id="clip0_344_327">
<rect width="136" height="102" fill="white"/>
</clipPath>
</defs>
</svg>
