<svg width="2676" height="2059" viewBox="0 0 2676 2059" fill="none" xmlns="http://www.w3.org/2000/svg">
<path d="M241.438 2055.59C241.438 2055.59 -244.794 1653.01 162.786 1119.64C477.067 708.359 -91.3158 357.292 312.194 92.6388C749.095 -193.921 1186.94 294.732 1793.18 92.2655C2368.13 -99.7345 2588.75 420.012 2351.53 808.786C2166.07 1112.72 2913.69 1199.97 2523.45 2040.07L241.438 2055.59Z" fill="#EBF3FA"/>
<path d="M654.262 440.799H445.028C435.423 440.799 427.564 432.946 427.564 423.346V221.386C427.564 211.786 435.423 203.932 445.028 203.932H654.262C663.867 203.932 671.725 211.786 671.725 221.386V423.346C671.725 432.946 663.867 440.799 654.262 440.799" fill="#C0D8FB"/>
<path d="M645.197 430.545H454.092C445.32 430.545 438.143 423.359 438.143 414.585V230.145C438.143 221.372 445.32 214.185 454.092 214.185H645.197C653.971 214.185 661.15 221.372 661.15 230.145V414.585C661.15 423.359 653.971 430.545 645.197 430.545Z" fill="#DFEBFD"/>
<path d="M544.587 235.812C544.587 233.012 546.851 230.746 549.644 230.746C552.439 230.746 554.702 233.012 554.702 235.812C554.702 238.599 552.439 240.866 549.644 240.866C546.851 240.866 544.587 238.599 544.587 235.812Z" fill="#B7D3F3"/>
<path d="M585.396 242.959C586.756 240.519 589.835 239.639 592.276 240.999C594.718 242.345 595.596 245.425 594.24 247.865C592.884 250.319 589.803 251.199 587.362 249.839C584.92 248.479 584.041 245.399 585.396 242.959" fill="#B7D3F3"/>
<path d="M620.362 270.732C622.711 269.225 625.84 269.892 627.354 272.239C628.867 274.585 628.192 277.719 625.846 279.239C623.499 280.745 620.368 280.079 618.854 277.732C617.34 275.385 618.014 272.252 620.362 270.732Z" fill="#B7D3F3"/>
<path d="M637.68 313.732C640.474 313.732 642.738 315.999 642.738 318.786C642.738 321.586 640.474 323.839 637.68 323.839C634.887 323.839 632.623 321.586 632.623 318.786C632.623 315.999 634.887 313.732 637.68 313.732Z" fill="#B7D3F3"/>
<path d="M628.839 363.626C630.812 365.599 630.812 368.799 628.839 370.772C626.862 372.759 623.662 372.759 621.684 370.772C619.711 368.799 619.711 365.599 621.684 363.626C623.662 361.652 626.862 361.652 628.839 363.626Z" fill="#B7D3F3"/>
<path d="M597.076 395.465C599.054 397.439 599.054 400.639 597.076 402.625C595.103 404.599 591.899 404.599 589.926 402.625C587.951 400.639 587.951 397.439 589.926 395.465C591.899 393.492 595.103 393.492 597.076 395.465Z" fill="#B7D3F3"/>
<path d="M544.587 411.879C544.587 409.092 546.851 406.825 549.644 406.825C552.439 406.825 554.702 409.092 554.702 411.879C554.702 414.679 552.439 416.932 549.644 416.932C546.851 416.932 544.587 414.679 544.587 411.879Z" fill="#B7D3F3"/>
<path d="M513.731 242.959C512.374 240.519 509.294 239.639 506.852 240.999C504.411 242.345 503.532 245.425 504.888 247.865C506.246 250.319 509.326 251.199 511.767 249.839C514.208 248.479 515.087 245.399 513.731 242.959" fill="#B7D3F3"/>
<path d="M478.767 270.732C476.419 269.225 473.288 269.892 471.775 272.239C470.262 274.585 470.936 277.719 473.284 279.239C475.63 280.745 478.762 280.079 480.276 277.732C481.79 275.385 481.115 272.252 478.767 270.732Z" fill="#B7D3F3"/>
<path d="M461.45 313.732C458.656 313.732 456.391 315.999 456.391 318.786C456.391 321.586 458.656 323.839 461.45 323.839C464.242 323.839 466.507 321.586 466.507 318.786C466.507 315.999 464.242 313.732 461.45 313.732Z" fill="#B7D3F3"/>
<path d="M470.291 363.626C468.315 365.599 468.315 368.799 470.291 370.772C472.267 372.759 475.468 372.759 477.444 370.772C479.418 368.799 479.418 365.599 477.444 363.626C475.468 361.652 472.267 361.652 470.291 363.626Z" fill="#B7D3F3"/>
<path d="M502.052 395.465C500.075 397.439 500.075 400.639 502.052 402.625C504.026 404.599 507.23 404.599 509.203 402.625C511.179 400.639 511.179 397.439 509.203 395.465C507.23 393.492 504.026 393.492 502.052 395.465Z" fill="#B7D3F3"/>
<path d="M548.281 318.786C548.281 315.999 550.546 313.732 553.339 313.732C556.132 313.732 558.396 315.999 558.396 318.786C558.396 321.586 556.132 323.839 553.339 323.839C550.546 323.839 548.281 321.586 548.281 318.786Z" fill="#B7D3F3"/>
<path d="M554.028 318.786H552.648V255.599H554.028V318.786Z" fill="#B7D3F3"/>
<path d="M553.981 320.332L551.421 317.065L584.919 290.772L587.477 294.039L553.981 320.332" fill="#B7D3F3"/>
<path d="M2670.34 2058.81H79.8575C77.1562 2058.81 74.9456 2056.6 74.9456 2053.91V2044.55C74.9456 2041.84 77.1562 2039.64 79.8575 2039.64H2670.34C2673.03 2039.64 2675.25 2041.84 2675.25 2044.55V2053.91C2675.25 2056.6 2673.03 2058.81 2670.34 2058.81Z" fill="#2E3552"/>
<path d="M428.596 1794.53C428.596 1794.53 467.923 1748.65 431.022 1719.51C431.022 1719.51 404.066 1703.19 382.088 1704.52C382.088 1704.52 413.23 1756.73 403.156 1761.93C393.082 1767.13 372.65 1701.24 372.65 1701.24C372.65 1701.24 311.311 1695.29 291.578 1704.77C291.578 1704.77 344.015 1747.69 332.972 1750.24C321.928 1752.8 265.288 1710.68 265.288 1710.68C265.288 1710.68 208.2 1720.4 211.243 1755.23C214.287 1790.05 233.958 1800.8 242.604 1799.88C251.251 1798.95 301.827 1779.64 302.928 1786.73C304.028 1793.81 273.586 1816.96 252.268 1818.04C252.268 1818.04 292.516 1862.44 319.266 1849.63C346.015 1836.81 348.299 1816.51 364.974 1808.89C381.648 1801.28 395.883 1801.29 388.999 1809.07C382.114 1816.83 351.938 1824.37 342.399 1841.24C332.864 1858.11 324.31 1869.49 351.984 1865.32C379.66 1861.16 424.647 1840.91 426.62 1817.72C428.596 1794.53 428.596 1794.53 428.596 1794.53" fill="#AEC3FF"/>
<path d="M239.295 1756.16C239.295 1756.16 394.354 1750.19 428.596 1794.53C428.596 1794.53 436.17 1817.21 459.472 1837.87L463.104 1847.76C463.104 1847.76 436.235 1819.44 426.62 1817.72C426.62 1817.72 441.658 1762.79 239.295 1756.16" fill="#AEC3FF"/>
<path d="M459.472 1837.87C459.472 1837.87 492.755 1862.48 495.067 1906.45L489.026 1907C489.026 1907 478.396 1861.52 459.183 1843.75C439.97 1825.96 459.472 1837.87 459.472 1837.87Z" fill="#AEC3FF"/>
<path d="M566.096 1736.84C566.096 1736.84 503.536 1701.8 532.731 1654.25C532.731 1654.25 556.085 1625.07 581.109 1617.56C581.109 1617.56 567.764 1688.45 581.109 1690.12C594.455 1691.79 590.284 1610.05 590.284 1610.05C590.284 1610.05 656.179 1578.35 682.036 1580.85C682.036 1580.85 641.165 1650.08 654.509 1648.41C667.857 1646.75 713.732 1576.68 713.732 1576.68C713.732 1576.68 781.295 1564.17 792.139 1604.21C802.981 1644.24 785.465 1664.27 775.456 1666.77C765.448 1669.27 701.221 1668.44 702.889 1676.77C704.559 1685.12 747.931 1698.47 772.12 1690.96C772.12 1690.96 745.429 1756.85 710.396 1753.52C675.363 1750.17 664.519 1728.49 642.833 1726.83C621.145 1725.16 605.297 1731 616.141 1736.84C626.985 1742.67 663.685 1738.75 681.201 1753.64C698.719 1768.53 712.897 1777.71 680.368 1784.37C647.839 1791.05 589.451 1786.88 577.773 1761.85C566.096 1736.84 566.096 1736.84 566.096 1736.84" fill="#D4E4F8"/>
<path d="M761.278 1616.72C761.278 1616.72 586.115 1673.44 566.096 1736.84C566.096 1736.84 566.93 1765.19 549.414 1797.72V1810.24C549.414 1810.24 567.764 1767.69 577.774 1761.85C577.774 1761.85 538.57 1706.8 761.278 1616.72" fill="#D4E4F8"/>
<path d="M549.413 1797.72C549.413 1797.72 522.4 1838.75 537.799 1888.68L544.749 1886.81C544.749 1886.81 538.004 1831.81 552.136 1804.15C566.27 1776.49 549.413 1797.72 549.413 1797.72Z" fill="#D4E4F8"/>
<path d="M466.57 1688.52C466.57 1688.52 549.034 1642.33 510.551 1579.67C510.551 1579.67 479.764 1541.19 446.78 1531.29C446.78 1531.29 464.371 1624.75 446.78 1626.95C429.187 1629.15 434.684 1521.39 434.684 1521.39C434.684 1521.39 347.822 1479.61 313.738 1482.91C313.738 1482.91 367.615 1574.17 350.02 1571.97C332.428 1569.77 271.955 1477.41 271.955 1477.41C271.955 1477.41 182.896 1460.92 168.602 1513.69C154.308 1566.47 177.398 1592.87 190.594 1596.16C203.786 1599.45 288.448 1598.36 286.248 1609.35C284.051 1620.35 226.875 1637.95 194.991 1628.04C194.991 1628.04 230.174 1714.91 276.354 1710.51C322.534 1706.11 336.828 1677.52 365.414 1675.32C394.002 1673.12 414.894 1680.83 400.6 1688.52C386.306 1696.21 337.927 1691.04 314.838 1710.67C291.747 1730.29 273.055 1742.4 315.938 1751.19C358.818 1759.99 435.784 1754.49 451.176 1721.51C466.57 1688.52 466.57 1688.52 466.57 1688.52" fill="#D2E0FF"/>
<path d="M209.284 1530.19C209.284 1530.19 440.18 1604.96 466.57 1688.52C466.57 1688.52 465.471 1725.91 488.56 1768.79V1785.28C488.56 1785.28 464.371 1729.2 451.176 1721.51C451.176 1721.51 502.853 1648.93 209.284 1530.19" fill="#D2E0FF"/>
<path d="M488.56 1768.79C488.56 1768.79 524.17 1822.85 503.868 1888.68L494.708 1886.21C494.708 1886.21 503.599 1813.72 484.97 1777.25C466.34 1740.79 488.56 1768.79 488.56 1768.79" fill="#D2E0FF"/>
<path d="M469.348 2031.41C380.136 2031.41 307.816 1959.09 307.816 1869.88H630.881C630.881 1959.09 558.562 2031.41 469.348 2031.41Z" fill="#AEC3FF"/>
<path d="M305.585 2039.64H633.112C633.112 2028.63 624.189 2019.71 613.183 2019.71H325.513C314.507 2019.71 305.585 2028.63 305.585 2039.64Z" fill="#AEC3FF"/>
<path d="M304.142 1874.84H636.192V1869.88H304.142V1874.84Z" fill="#D2E0FF"/>
<path d="M1757.49 1117.43L1756.06 1117.28L1830.89 375.986L1832.3 376.132C1857.98 378.812 1876.66 402.212 1874.02 428.372L1808.77 1074.93C1806.13 1101.09 1783.17 1120.12 1757.49 1117.43Z" fill="#F99746"/>
<path d="M1876.35 1206.19H1801.34V1170.72H1876.35C1904.94 1170.72 1931.06 1157.23 1948.01 1133.69C1965.57 1109.33 1970.14 1078.95 1960.59 1050.32L1857.01 739.999L1890.66 728.772L1994.23 1039.09C2007.25 1078.08 2000.73 1121.2 1976.79 1154.43C1953.09 1187.32 1916.49 1206.19 1876.35 1206.19" fill="#F99746"/>
<path d="M1819.35 842.025L1839.27 644.665C1870.65 647.959 1893.47 676.532 1890.25 708.492L1882.01 790.105C1878.78 822.065 1850.73 845.305 1819.35 842.025Z" fill="#F99746"/>
<path d="M2111.02 1188.45H1793.34C1785.66 1188.45 1779.38 1182.17 1779.38 1174.49V1174.23C1779.38 1166.55 1785.66 1160.27 1793.34 1160.27H2111.02C2118.7 1160.27 2124.98 1166.55 2124.98 1174.23V1174.49C2124.98 1182.17 2118.7 1188.45 2111.02 1188.45Z" fill="#F99746"/>
<path d="M2237.99 1181.09H1330.46C1321.26 1181.09 1313.79 1188.56 1313.79 1197.76C1313.79 1206.96 1321.26 1214.43 1330.46 1214.43H2237.99C2247.19 1214.43 2254.66 1206.96 2254.66 1197.76C2254.66 1188.56 2247.19 1181.09 2237.99 1181.09Z" fill="#2C3A64"/>
<path d="M2182.45 2039.64H2170.27L2168.62 2008.92L2124.22 1187.12C2124.06 1183.97 2126.62 1181.27 2129.97 1181.11C2133.34 1180.93 2136.17 1183.39 2136.34 1186.53L2180.79 2008.92L2182.45 2039.64" fill="#2C3A64"/>
<path d="M2180.79 2014.32L2182.45 2039.64H1893.15C1893.15 2025.65 1904.49 2014.32 1918.47 2014.32H2180.79" fill="#2C3A64"/>
<path d="M645.372 1116.78C645.372 1092.68 664.912 1073.13 689.019 1073.13C713.126 1073.13 732.667 1092.68 732.667 1116.78C732.667 1140.89 713.126 1160.43 689.019 1160.43C664.912 1160.43 645.372 1140.89 645.372 1116.78Z" fill="#F77D48"/>
<path d="M689.35 1140.93L669.385 1119.11L678.008 1111.22L687.643 1121.75L703.999 1095.86L713.878 1102.11L689.35 1140.93Z" fill="white"/>
<path d="M1695.75 1453.53C1695.75 1429.43 1715.3 1409.88 1739.41 1409.88C1763.51 1409.88 1783.05 1429.43 1783.05 1453.53C1783.05 1477.64 1763.51 1497.19 1739.41 1497.19C1715.3 1497.19 1695.75 1477.64 1695.75 1453.53Z" fill="#F77D48"/>
<path d="M1739.73 1477.68L1719.77 1455.85L1728.39 1447.97L1738.02 1458.51L1754.38 1432.61L1764.26 1438.85L1739.73 1477.68Z" fill="white"/>
<path d="M824.819 1783.68C824.819 1759.57 844.366 1740.04 868.472 1740.04C892.579 1740.04 912.112 1759.57 912.112 1783.68C912.112 1807.79 892.579 1827.33 868.472 1827.33C844.366 1827.33 824.819 1807.79 824.819 1783.68Z" fill="#F77D48"/>
<path d="M868.792 1807.84L848.832 1786.01L857.459 1778.12L867.086 1788.65L883.446 1762.76L893.326 1769.01L868.792 1807.84Z" fill="white"/>
<path d="M1499.75 884.532C1499.75 860.439 1519.3 840.892 1543.41 840.892C1567.5 840.892 1587.05 860.439 1587.05 884.532C1587.05 908.639 1567.5 928.186 1543.41 928.186C1519.3 928.186 1499.75 908.639 1499.75 884.532Z" fill="#F77D48"/>
<path d="M1543.73 908.692L1523.77 886.866L1532.39 878.972L1542.02 889.506L1558.38 863.626L1568.26 869.866L1543.73 908.692Z" fill="white"/>
<path d="M1424.21 1160.27L1631.99 1137.39V1181.73H1424.21V1160.27Z" fill="#2C3A64"/>
<path d="M1844.5 2039.68H1727.21C1727.21 2039.68 1636.38 2039.68 1633.9 2039.52C1619.02 2038.36 1621.66 1967.23 1623.15 1940.76C1623.49 1934.63 1623.82 1931 1623.82 1931C1623.82 1931 1625.3 1928.84 1627.78 1925.71C1638.86 1912.47 1669.47 1881.36 1687.01 1921.24C1689.98 1928.01 1693.95 1934.47 1698.75 1940.43C1704.54 1948.04 1711.66 1954.99 1719.43 1961.27C1747.89 1984.76 1785.61 1999.48 1808.43 2003.63C1842.35 2009.91 1844.5 2039.68 1844.5 2039.68" fill="#163560"/>
<path d="M1771.46 2039.68H1654.17C1654.17 2039.68 1563.34 2039.68 1560.86 2039.52C1545.97 2038.36 1548.62 1967.23 1550.1 1940.76C1550.43 1934.63 1550.77 1931 1550.77 1931C1550.77 1931 1552.25 1928.84 1554.74 1925.71C1565.82 1912.47 1596.42 1881.36 1613.97 1921.24C1616.94 1928.01 1620.91 1934.47 1625.71 1940.43C1631.5 1948.04 1638.61 1954.99 1646.38 1961.27C1674.85 1984.76 1712.57 1999.48 1735.39 2003.63C1769.3 2009.91 1771.46 2039.68 1771.46 2039.68" fill="#204572"/>
<path d="M1698.07 1932.97C1698.07 1932.97 1690.79 1937.28 1674.91 1940.43C1667.63 1941.75 1658.53 1942.91 1647.61 1943.07C1628.59 1943.57 1614.35 1942.57 1605.1 1941.59C1602.94 1941.25 1600.97 1941.08 1599.3 1940.76C1593.35 1939.93 1590.37 1939.11 1590.37 1939.11C1478.37 1581.93 1548.51 1567.53 1508.49 1535.44C1477.54 1510.63 1392.18 1502.01 1392.18 1502.01H982.232C969.659 1478.2 964.032 1420.79 961.886 1389.2C960.886 1375.96 960.552 1367.36 960.552 1367.36C960.552 1367.36 1080.99 1332.95 1168.67 1314.09C1200.27 1307.13 1215.27 1322.35 1231.15 1321.85L1256.23 1329.87C1308.18 1331.51 1588.21 1368.24 1635.35 1416.72C1644.11 1425.65 1658.37 1441.31 1664.49 1466.95C1698.07 1604.25 1698.07 1932.97 1698.07 1932.97" fill="#153C6B"/>
<path d="M1648.79 1953C1648.79 1953 1622.43 1964.37 1586.75 1964.37C1561.34 1964.37 1542.54 1951.75 1526.77 1947.48C1414.77 1590.31 1515.83 1567.53 1475.81 1535.44C1444.86 1510.63 1359.5 1502.01 1359.5 1502.01H949.552C936.979 1478.2 931.352 1420.79 929.206 1389.2C928.206 1375.96 927.872 1367.36 927.872 1367.36C927.872 1367.36 1048.31 1332.95 1135.99 1314.09C1167.59 1307.13 1194.9 1302.17 1210.78 1301.68H1215.25C1267.19 1303.33 1562.49 1365.04 1609.63 1413.51C1618.41 1422.45 1634.5 1440.72 1631.81 1466.95C1610.26 1677.09 1648.79 1953 1648.79 1953" fill="#1C468A"/>
<path d="M1093.37 769.066C1127.27 784.399 1134.1 822.879 1134.1 822.879C1060.17 852.666 937.726 782.252 937.726 782.252C937.726 782.252 982.659 742.719 991.406 667.612C991.859 663.826 992.206 659.946 992.446 655.999C993.232 643.439 992.992 629.986 991.379 615.639L1030.66 642.546L1095.95 687.279C1095.95 687.279 1097.46 709.186 1095.03 747.519C1094.61 754.199 1094.06 761.399 1093.37 769.066" fill="#FFB27D"/>
<path d="M1189.06 1165.16C1188.69 1182.57 1195.77 1195.61 1199.97 1207.99C1201.59 1212.71 1202.79 1217.33 1202.98 1222.07C1204.95 1269.84 1213.69 1288.45 1210.41 1304.37C1210.41 1304.37 1202.69 1302.44 1171.38 1319.23C1157.77 1326.51 1141.35 1334.56 1122.31 1342.6C1121.31 1343.01 1120.31 1343.43 1119.3 1343.85C1045.5 1374.52 965.659 1389.44 942.859 1391.8C899.299 1396.31 876.179 1287.44 874.192 1146.78C871.086 927.639 891.326 818.559 970.832 731.266C975.832 725.772 974.152 742.466 1006.09 753.039C1035.59 762.772 1069.49 761.519 1094.7 752.372L1117.89 770.652C1166.86 829.479 1181.05 905.039 1185.87 968.926C1191.98 1049.7 1190.19 1115.03 1189.06 1165.16" fill="#8C9DF4"/>
<path d="M1095.95 687.279C1095.95 687.279 1098.63 683.599 1096.21 721.932C1029.01 711.652 1003.61 681.426 992.099 660.679C988.832 654.826 1014.94 648.066 1030.66 642.546L1095.95 687.279" fill="#ED975D"/>
<path d="M1126.06 683.532C1126.06 683.532 1003.47 717.732 983.352 641.065C963.219 564.385 933.846 517.172 1011.27 492.092C1088.69 467.012 1111.63 492.252 1124.58 516.212C1137.53 540.172 1157.43 672.652 1126.06 683.532Z" fill="#FFB27D"/>
<path d="M925.059 504.946C923.899 503.906 921.445 503.252 916.219 503.612C916.219 503.612 920.059 500.506 925.592 499.692C925.792 492.332 928.072 479.066 940.125 474.439C940.125 474.439 933.872 478.812 933.952 486.599C946.539 470.039 976.085 455.492 1062.38 451.759C1176.11 446.839 1147.83 523.519 1134.3 533.906C1120.78 544.292 1081.18 525.212 1054.27 530.706C1027.37 536.186 1027.01 576.079 1018.46 582.599C1009.9 589.119 1012.35 579.146 999.192 575.039C986.032 570.932 987.379 591.746 992.632 604.732C997.872 617.732 982.912 637.559 982.912 637.559C982.912 637.559 982.912 637.559 963.312 621.026C943.712 604.506 917.712 527.519 923.512 509.706C924.032 508.132 924.525 506.546 925.059 504.946" fill="#2C3A64"/>
<path d="M1215.25 1301.73C1215.25 1301.73 1186.75 1315.77 1153.54 1328.36C1009.79 1223.49 1020.93 971.796 1020.14 967.548L1200.69 1126.53L1206.63 1218.33C1207.63 1223.21 1208.23 1227.96 1207.81 1232.68C1203.58 1280.32 1220.57 1286.36 1215.25 1301.73" fill="#6980E2"/>
<path d="M1410.61 1138.77C1410.61 1138.77 1429.19 1136.96 1441.73 1132C1454.26 1127.04 1497.38 1111.62 1505.11 1114.58C1512.85 1117.53 1537.7 1133.68 1543.59 1136.82C1549.47 1139.96 1559.31 1154.8 1559.31 1154.8C1554.58 1159.01 1539.58 1147.74 1532.58 1147.5C1525.58 1147.26 1472.21 1172.24 1456.83 1171.89C1441.45 1171.56 1414.18 1169.32 1414.18 1169.32L1410.61 1138.77" fill="#FFB27D"/>
<path d="M1511.19 1142.44C1511.27 1143.29 1528.71 1165.33 1543.41 1159.6L1528.71 1143.17L1511.19 1142.44Z" fill="#FFB27D"/>
<path d="M1441.73 1132C1441.73 1132 1459.5 1117.49 1465.54 1110.36C1465.54 1110.36 1468.79 1112.1 1468.75 1114.94C1468.69 1119.69 1463.53 1128.09 1463.53 1128.09L1441.73 1132" fill="#FFB27D"/>
<path d="M1092.77 840.852C994.312 795.652 916.926 903.679 973.952 995.792C1040.09 1102.6 1113.1 1157.44 1156.74 1185.88C1183.94 1203.6 1269.19 1215.24 1427.39 1180.95C1427.39 1180.95 1436.99 1162.01 1417.78 1134.36C1417.78 1134.36 1254.97 1108.82 1217.63 1070.46C1197.62 1049.91 1093.54 841.199 1092.77 840.852" fill="#8C9DF4"/>
<path d="M1113.74 2015.91H1077.25L1067.01 1551.47H1122.75L1113.74 2015.91" fill="#2B478B"/>
<path d="M1272.35 2015.91H917.392V1983.84L1098.31 1967.52L1272.35 1983.84V2015.91" fill="#2B478B"/>
<path d="M882.912 2010.87C882.912 1994.75 895.992 1981.67 912.112 1981.67C928.245 1981.67 941.312 1994.75 941.312 2010.87C941.312 2027 928.245 2040.07 912.112 2040.07C895.992 2040.07 882.912 2027 882.912 2010.87" fill="#2B478B"/>
<path d="M1237.87 2010.87C1237.87 1994.75 1250.95 1981.67 1267.07 1981.67C1283.21 1981.67 1296.27 1994.75 1296.27 2010.87C1296.27 2027 1283.21 2040.07 1267.07 2040.07C1250.95 2040.07 1237.87 2027 1237.87 2010.87" fill="#2B478B"/>
<path d="M1259.63 1581.93H930.125C913.299 1581.93 899.646 1568.29 899.646 1551.47H1290.1C1290.1 1568.29 1276.46 1581.93 1259.63 1581.93" fill="#2B478B"/>
<path d="M863.779 1497.19H843.579V1367.36H863.779V1497.19Z" fill="#2B478B"/>
<path d="M849.686 1385.23C848.712 1385.23 847.712 1385.17 846.712 1385.09C828.659 1383.47 815.334 1367.52 816.955 1349.45C828.779 1217.68 811.18 1076.58 794.336 981.422C775.946 877.546 754.408 804.239 754.195 803.519C749.054 786.132 758.976 767.866 776.358 762.719C793.744 757.572 812.006 767.492 817.155 784.866C818.068 787.959 839.779 861.759 858.832 969.06C876.459 1068.39 894.859 1216.04 882.352 1355.32C880.819 1372.39 866.499 1385.23 849.686 1385.23" fill="#F99746"/>
<path d="M1419.54 1599.53C1414.19 1599.53 1408.78 1598.23 1403.77 1595.48L1347.3 1564.45C1332.34 1556.24 1315.42 1551.89 1298.35 1551.89H842.926C824.792 1551.89 810.088 1537.2 810.088 1519.07C810.088 1500.93 824.792 1486.24 842.926 1486.24H1298.35C1326.43 1486.24 1354.3 1493.39 1378.91 1506.91L1435.38 1537.92C1451.27 1546.65 1457.07 1566.61 1448.34 1582.51C1442.37 1593.39 1431.13 1599.53 1419.54 1599.53" fill="#F99746"/>
<path d="M938.885 874.452C938.885 870.132 942.392 866.625 946.712 866.625C951.032 866.625 954.539 870.132 954.539 874.452C954.539 878.772 951.032 882.279 946.712 882.279C942.392 882.279 938.885 878.772 938.885 874.452Z" fill="#F77D48"/>
<path d="M938.885 1033.3C938.885 1028.98 942.392 1025.47 946.712 1025.47C951.032 1025.47 954.539 1028.98 954.539 1033.3C954.539 1037.62 951.032 1041.13 946.712 1041.13C942.392 1041.13 938.885 1037.62 938.885 1033.3Z" fill="#F77D48"/>
<path d="M938.885 1271.57C938.885 1267.25 942.392 1263.75 946.712 1263.75C951.032 1263.75 954.539 1267.25 954.539 1271.57C954.539 1275.89 951.032 1279.4 946.712 1279.4C942.392 1279.4 938.885 1275.89 938.885 1271.57Z" fill="#F77D48"/>
<path d="M938.885 953.875C938.885 949.551 942.392 946.046 946.712 946.046C951.032 946.046 954.539 949.551 954.539 953.875C954.539 958.198 951.032 961.703 946.712 961.703C942.392 961.703 938.885 958.198 938.885 953.875Z" fill="#F77D48"/>
<path d="M938.885 1192.15C938.885 1187.83 942.392 1184.32 946.712 1184.32C951.032 1184.32 954.539 1187.83 954.539 1192.15C954.539 1196.47 951.032 1199.97 946.712 1199.97C942.392 1199.97 938.885 1196.47 938.885 1192.15Z" fill="#F77D48"/>
<path d="M938.885 1112.72C938.885 1108.4 942.392 1104.89 946.712 1104.89C951.032 1104.89 954.539 1108.4 954.539 1112.72C954.539 1117.05 951.032 1120.55 946.712 1120.55C942.392 1120.55 938.885 1117.05 938.885 1112.72Z" fill="#F77D48"/>
</svg>
