<?xml version="1.0" encoding="UTF-8" standalone="no"?>
<!-- Created with Inkscape (http://www.inkscape.org/) -->

<svg
   version="1.1"
   id="svg2"
   xml:space="preserve"
   width="4000"
   height="2666.6667"
   viewBox="0 0 4000 2666.6667"
   sodipodi:docname="24070646_na_january_35.eps"
   xmlns:inkscape="http://www.inkscape.org/namespaces/inkscape"
   xmlns:sodipodi="http://sodipodi.sourceforge.net/DTD/sodipodi-0.dtd"
   xmlns="http://www.w3.org/2000/svg"
   xmlns:svg="http://www.w3.org/2000/svg"><defs
     id="defs6"><clipPath
       clipPathUnits="userSpaceOnUse"
       id="clipPath26"><path
         d="m 12036.2,1569.9 c 0,0 2496.3,-70.6 3346.8,1323.6 0,0 -1680.6,-53.4 -2275.9,-331.2 0,0 1508.2,635 1878.7,1944.8 0,0 -1286,158.7 -2376.1,-1032 0,0 444.5,952.6 -415.5,2143.3 -944.1,-1552.9 -925,-2386.8 -621.8,-4048.5 h 463.8"
         id="path24" /></clipPath><clipPath
       clipPathUnits="userSpaceOnUse"
       id="clipPath42"><path
         d="m 12074.4,9209.9 c -56.6,0 -111.1,8.9 -162.3,25.2 v -634.7 c 0,-185.9 -150.7,-336.7 -336.6,-336.7 h -925.8 c 298.3,-324.1 41.7,-899.3 -405.7,-884.1 -447.18,-15.2 -704.03,560.1 -405.63,884.1 h -925.7 c -185.95,0 -336.7,150.8 -336.7,336.7 v 634.7 c -459.13,-105.2 -688.54,202.4 -688.49,510.1 0.05,307.7 229.63,615.4 688.49,510.1 v 634.6 c 0,186 150.75,336.7 336.7,336.7 h 925.7 c -298.26,324.2 -41.65,899.3 405.73,884.2 447.2,15.1 704.1,-560.1 405.6,-884.2 h 925.8 c 185.9,0 336.6,-150.7 336.6,-336.7 v -634.6 c 785.9,215.6 976.5,-1012.7 162.3,-1045.4 m 3251,-2440.1 -1166.1,2096.9 c 16.8,209.6 16.6,427.3 0,636.9 v 0 c -505.2,5247.7 -8347.88,4613 -7980.98,-668.4 h -0.25 C 6346.51,7580.5 7407.27,4254.5 7408.78,4188.7 L 7089.32,1569.9 h 4946.88 l -73.8,2618.8 c 1555.1,-83.1 2306.5,169.9 2196.9,1901.4 h 766.3 c 338.3,-10.4 573,389.3 399.8,679.7"
         id="path40" /></clipPath><clipPath
       clipPathUnits="userSpaceOnUse"
       id="clipPath56"><path
         d="m 12074.4,10280.4 c -56.6,0 -111.1,-8.8 -162.3,-25.1 v 634.6 c 0,186 -150.7,336.7 -336.6,336.7 h -925.8 c 298.3,324.2 41.7,899.3 -405.7,884.2 -447.19,15.1 -704.03,-560.1 -405.63,-884.2 h -925.7 c -185.95,0 -336.7,-150.7 -336.7,-336.7 v -634.6 c -459.13,105.2 -688.54,-202.5 -688.49,-510.1 0.05,-307.7 229.63,-615.4 688.49,-510.1 v -634.7 c 0,-185.9 150.75,-336.7 336.7,-336.7 h 925.7 c -298.26,-324.1 -41.65,-899.3 405.73,-884.1 447.2,-15.2 704.1,560.1 405.6,884.1 h 925.8 c 185.9,0 336.6,150.8 336.6,336.7 v 634.7 c 785.9,-215.6 976.5,1012.7 162.3,1045.3"
         id="path54" /></clipPath><clipPath
       clipPathUnits="userSpaceOnUse"
       id="clipPath70"><path
         d="m 7089.32,1569.9 c 0,0 -2917.16,550.3 -3555.54,2444.2 0,0 1638.58,-170.3 2745.04,-886.2 0,0 -1562.07,569.5 -1659.69,2343.1 0,0 1962.68,-728.1 2470.19,-1950.6 0,0 -1152.2,1381.1 -1184.74,2975.7 C 7201.81,5387 8699.91,3780.2 8459.22,1569.9 h -1369.9"
         id="path68" /></clipPath><clipPath
       clipPathUnits="userSpaceOnUse"
       id="clipPath94"><path
         d="m 21308.4,1980.7 c 0,0 501.4,2984.5 215.2,4061.1 l -897.1,-37.5 249.9,-4023.6 c 0,0 206.2,-114.3 432,0"
         id="path92" /></clipPath><clipPath
       clipPathUnits="userSpaceOnUse"
       id="clipPath108"><path
         d="m 22922.2,2200 c 0,0 -36.6,3026.2 -509.3,4034.8 l -876.2,-196.2 960.4,-3915.3 c 0,0 223.2,-75.9 425.1,76.7"
         id="path106" /></clipPath><clipPath
       clipPathUnits="userSpaceOnUse"
       id="clipPath120"><path
         d="m 20709.6,8762 h 1794.5 c 0,0 391.5,-479 223.3,-1149.2 -41.8,-166.6 -46.2,-340.4 -12.8,-508.8 l 315.7,-1589.9 c 0,0 -1314.9,-524.4 -2691.6,-176.9 l 370.9,3424.8"
         id="path118" /></clipPath><clipPath
       clipPathUnits="userSpaceOnUse"
       id="clipPath136"><path
         d="m 20794.4,12808.7 c 260,1439.8 1609.8,398.4 915.5,-577.6 10.8,-239.7 200.3,-719.5 -180.1,-768.1 -341.4,-16.2 -298.3,340 -311.3,572.8 -266.2,67.7 -451.6,394.9 -424.1,772.9"
         id="path134" /></clipPath><clipPath
       clipPathUnits="userSpaceOnUse"
       id="clipPath154"><path
         d="m 18843,8538.1 c -1636,27.9 -1635.8,2461.5 0.1,2489.2 1635.9,-28 1635.7,-2461.5 -0.1,-2489.2 m 2342.5,726.2 c 75.2,341.2 75.2,695.6 0,1036.8 h -448.9 c -43.9,160.4 -107.4,312.7 -188.1,453.9 l 317.6,317.6 c -181.7,287.4 -445.8,551.5 -733.2,733.1 l -317.6,-317.6 c -141.2,80.7 -293.5,144.3 -453.9,188.1 v 449 c -341.2,75.2 -695.6,75.2 -1036.8,0 v -449 c -160.4,-43.8 -312.7,-107.4 -453.9,-188.1 l -317.6,317.6 c -287.4,-181.6 -551.4,-445.7 -733.1,-733.1 l 317.6,-317.6 c -80.7,-141.2 -144.3,-293.5 -188.1,-453.9 h -449 c -75.2,-341.2 -75.2,-695.6 0,-1036.8 h 449 c 43.8,-160.4 107.4,-312.7 188.1,-453.9 L 16820,8492.8 c 181.7,-287.4 445.7,-551.5 733.1,-733.2 l 317.6,317.6 c 141.2,-80.7 293.5,-144.2 453.9,-188.1 v -448.9 c 341.2,-75.2 695.6,-75.2 1036.8,0 v 448.9 c 160.4,43.9 312.7,107.4 453.9,188.1 l 317.6,-317.6 c 287.4,181.7 551.5,445.8 733.2,733.2 l -317.6,317.6 c 80.7,141.2 144.2,293.5 188.1,453.9 h 448.9"
         id="path152" /></clipPath><clipPath
       clipPathUnits="userSpaceOnUse"
       id="clipPath170"><path
         d="m 20949.1,9987.1 c 0,0 -409.7,210.1 -511.7,190.5 -101.9,-19.5 169.2,-168.4 160.5,-190.5 -8.6,-22.1 -540.1,-28.6 -559.6,-78.5 -19.6,-49.8 143.1,-438.1 262.4,-418.6 119.4,19.5 622.6,112.6 622.6,112.6 l 25.8,384.5"
         id="path168" /></clipPath><clipPath
       clipPathUnits="userSpaceOnUse"
       id="clipPath186"><path
         d="m 10051.6,13775.6 646.1,-139.9 1068.2,569.3 558.8,-1136.4 -942.3,-546.4 c 49.9,-716.1 -126.4,-2687.6 -126.4,-2687.6 -1148.4,-581.7 -2444.57,619.5 -2444.57,619.5 143.87,332.3 85.9,2924.7 1240.17,3321.5"
         id="path184" /></clipPath><clipPath
       clipPathUnits="userSpaceOnUse"
       id="clipPath198"><path
         d="m 10699.3,13340.4 48.1,396.4 c 188.2,-13.2 416.5,-21.7 411.8,229.4 l -95.8,929.3 -890.6,7.6 -121.2,-1127.5 647.7,-435.2"
         id="path196" /></clipPath><clipPath
       clipPathUnits="userSpaceOnUse"
       id="clipPath218"><path
         d="m 11859.3,14015 c 140.1,69.1 406.1,155.9 508.8,277.9 l 1198.8,1344.5 299.5,-318.8 -948.7,-1567 c -117.3,-228.7 -464.5,-391.3 -670.5,-525.4 l -387.9,788.8"
         id="path216" /></clipPath><clipPath
       clipPathUnits="userSpaceOnUse"
       id="clipPath230"><path
         d="m 17082.7,16525.2 c -54.5,0 -107,-8.6 -156.4,-24.3 v 611.6 c 0,179.1 -145.2,324.4 -324.4,324.4 h -892 c 287.4,312.3 40.2,866.5 -390.9,851.9 -430.9,14.6 -678.4,-539.7 -390.9,-851.9 h -892 c -179.1,0 -324.4,-145.3 -324.4,-324.4 v -611.6 c -442.4,101.4 -663.4,-195 -663.4,-491.5 0.1,-296.5 221.3,-593 663.4,-491.5 v -611.5 c 0,-179.2 145.3,-324.4 324.4,-324.4 h 892 c -287.4,-312.3 -40.1,-866.6 390.9,-851.9 431,-14.7 678.5,539.6 390.9,851.9 h 892 c 179.2,0 324.4,145.2 324.4,324.4 v 611.5 c 757.3,-207.7 940.9,975.8 156.4,1007.3"
         id="path228" /></clipPath><clipPath
       clipPathUnits="userSpaceOnUse"
       id="clipPath246"><path
         d="m 11859.3,11869 c 161.5,-101.5 340.6,-192.3 532.7,-211.1 l 1954.6,-239.5 -43.1,-391.1 -2035.4,-108.9 c -283.4,-32.3 -609.5,145.3 -861.8,253.7 l 453,696.9"
         id="path244" /></clipPath></defs><sodipodi:namedview
     id="namedview4"
     pagecolor="#ffffff"
     bordercolor="#666666"
     borderopacity="1.0"
     inkscape:pageshadow="2"
     inkscape:pageopacity="0.0"
     inkscape:pagecheckerboard="0" /><g
     id="g8"
     inkscape:groupmode="layer"
     inkscape:label="ink_ext_XXXXXX"
     transform="matrix(1.3333333,0,0,-1.3333333,0,2666.6667)"><g
       id="g10"
       transform="scale(0.1)"><path
         d="M 5,5 H 29995 V 19995 H 5 Z"
         style="fill:#ffffff;fill-opacity:1;fill-rule:nonzero;stroke:none"
         id="path12" /><path
         d="M 9.99609,10 H 29990 V 19990 H 9.99609 Z M 30000,0 H 0 V 20000 H 30000 V 0"
         style="fill:#000000;fill-opacity:1;fill-rule:nonzero;stroke:none"
         id="path14" /><path
         d="M 2520.16,1538.4 H 28251.9 l -2915.1,11446.9 c -298.2,1171.2 -1450,1913.4 -2639.8,1701.2 L 6197.78,11743.8 c -980.79,-175 -1756.33,-929.3 -1958.39,-1904.9 L 2520.16,1538.4"
         style="fill:#e3eefd;fill-opacity:1;fill-rule:nonzero;stroke:none"
         id="path16" /><path
         d="m 12036.2,1569.9 c 0,0 2496.3,-70.6 3346.8,1323.6 0,0 -1680.6,-53.4 -2275.9,-331.2 0,0 1508.2,635 1878.7,1944.8 0,0 -1286,158.7 -2376.1,-1032 0,0 444.5,952.6 -415.5,2143.3 -944.1,-1552.9 -925,-2386.8 -621.8,-4048.5 h 463.8"
         style="fill:#a7bd37;fill-opacity:1;fill-rule:nonzero;stroke:none"
         id="path18" /><g
         id="g20"><g
           id="g22"
           clip-path="url(#clipPath26)"><path
             d="m 12132.3,4548.1 c 0,0 -269.3,-2276.4 660.9,-2986.2 930.1,-709.9 0,0 0,0 l -1260.6,-183.6 -244.8,3218.7 844.5,-48.9"
             style="fill:#3e5409;fill-opacity:1;fill-rule:nonzero;stroke:none"
             id="path28" /><path
             d="m 11376.4,1830.3 c -24.3,-0.2 -27.1,39.3 -0.8,40 890.5,33.4 1930.5,314.8 2646.1,545 810.3,244.9 1334.8,524.3 1379.7,486.1 -670.6,-368.6 -2871.9,-1049 -4025,-1071.1"
             style="fill:#3e5409;fill-opacity:1;fill-rule:nonzero;stroke:none"
             id="path30" /><path
             d="m 11576.6,2057.2 c 607.2,750.3 3399.6,2480 3425.9,2460.6 -10.2,-68.8 -2689.8,-1704.2 -3425.9,-2460.6"
             style="fill:#3e5409;fill-opacity:1;fill-rule:nonzero;stroke:none"
             id="path32" /></g></g><path
         d="m 12074.4,9209.9 c -56.6,0 -111.1,8.9 -162.3,25.2 v -634.7 c 0,-185.9 -150.7,-336.7 -336.6,-336.7 h -925.8 c 298.3,-324.1 41.7,-899.3 -405.7,-884.1 -447.18,-15.2 -704.03,560.1 -405.62,884.1 h -925.71 c -185.95,0 -336.7,150.8 -336.7,336.7 v 634.7 c -918.31,-210.4 -917.65,1230.8 0,1020.2 v 634.6 c 0,186 150.75,336.7 336.7,336.7 h 925.71 c -298.27,324.2 -41.66,899.3 405.72,884.2 447.2,15.1 704.1,-560.1 405.6,-884.2 h 925.8 c 185.9,0 336.6,-150.7 336.6,-336.7 v -634.6 c 785.9,215.6 976.5,-1012.7 162.3,-1045.4 z m 3251,-2440.1 -1166.1,2096.9 c 16.8,209.6 16.6,427.3 0,636.9 v 0 c -505.2,5247.7 -8347.88,4613 -7980.98,-668.4 h -0.25 C 6346.51,7580.5 7407.26,4254.4 7408.78,4188.7 L 7089.31,1569.9 h 4946.89 l -73.8,2618.8 c 1555.1,-83.1 2306.5,169.9 2196.9,1901.4 h 766.3 c 338.3,-10.4 573,389.3 399.8,679.7"
         style="fill:#a4c4ff;fill-opacity:1;fill-rule:nonzero;stroke:none"
         id="path34" /><g
         id="g36"><g
           id="g38"
           clip-path="url(#clipPath42)"><path
             d="m 11962.4,4188.7 h -1509.5 c 0,0 414.9,-1265.5 1936,-1265.5 l -426.5,1265.5"
             style="fill:#739bfd;fill-opacity:1;fill-rule:nonzero;stroke:none"
             id="path44" /><path
             d="m 6812.63,6234.8 c 0,0 2397.17,-1892.1 2823.64,-4899.9 H 7346.79 l -534.16,4899.9"
             style="fill:#739bfd;fill-opacity:1;fill-rule:nonzero;stroke:none"
             id="path46" /></g></g><path
         d="m 12074.4,10280.4 c -56.6,0 -111.1,-8.8 -162.3,-25.1 v 634.6 c 0,186 -150.7,336.7 -336.6,336.7 h -925.8 c 298.3,324.1 41.7,899.3 -405.7,884.2 -447.18,15.1 -704.03,-560.1 -405.62,-884.2 h -925.71 c -185.95,0 -336.7,-150.7 -336.7,-336.7 v -634.6 c -918.3,210.4 -917.67,-1230.8 0,-1020.2 v -634.7 c 0,-185.9 150.75,-336.7 336.7,-336.7 h 925.71 c -298.27,-324.1 -41.66,-899.3 405.72,-884.1 447.2,-15.2 704.1,560.1 405.6,884.1 h 925.8 c 185.9,0 336.6,150.8 336.6,336.7 v 634.7 c 785.9,-215.6 976.5,1012.7 162.3,1045.3"
         style="fill:#3875ff;fill-opacity:1;fill-rule:nonzero;stroke:none"
         id="path48" /><g
         id="g50"><g
           id="g52"
           clip-path="url(#clipPath56)"><path
             d="m 12220.3,10225.9 c -56.6,0 -111.1,-8.9 -162.3,-25.2 v 634.7 c 0,185.9 -150.7,336.7 -336.7,336.7 h -925.7 c 298.3,324.1 41.7,899.3 -405.7,884.1 -447.23,15.2 -704.08,-560.1 -405.67,-884.1 h -925.71 c -185.95,0 -336.69,-150.8 -336.69,-336.7 v -634.7 c -918.31,210.4 -917.67,-1230.8 0,-1020.2 v -634.6 c 0,-186 150.74,-336.7 336.69,-336.7 h 925.71 c -298.27,-324.1 -41.65,-899.3 405.67,-884.2 447.3,-15.1 704.1,560.1 405.7,884.2 h 925.7 c 186,0 336.7,150.7 336.7,336.7 v 634.6 c 785.9,-215.5 976.5,1012.7 162.3,1045.4"
             style="fill:#739bfd;fill-opacity:1;fill-rule:nonzero;stroke:none"
             id="path58" /><path
             d="M 8996.41,10388.7 C 8547.47,9621.8 8985.74,8502.3 9561.56,7252 h 1579.24 c 0,0 218.1,2024.2 0,2835.6 l -2144.39,301.1"
             style="fill:#38385d;fill-opacity:1;fill-rule:nonzero;stroke:none"
             id="path60" /></g></g><path
         d="m 7089.31,1569.9 c 0,0 -2917.15,550.3 -3555.53,2444.2 0,0 1638.58,-170.3 2745.05,-886.2 0,0 -1562.08,569.5 -1659.71,2343.1 0,0 1962.69,-728.1 2470.19,-1950.6 0,0 -1152.19,1381.1 -1184.73,2975.7 C 7201.81,5387 8699.91,3780.2 8459.22,1569.9 H 7089.31"
         style="fill:#a7bd37;fill-opacity:1;fill-rule:nonzero;stroke:none"
         id="path62" /><g
         id="g64"><g
           id="g66"
           clip-path="url(#clipPath70)"><path
             d="M 7436.74,5093.8 C 8102.53,3235.7 8807.47,1097.7 5449.08,1915.7 c 0,0 1397.92,-567.9 1441.6,-557 43.69,10.9 2129.64,43.7 2129.64,43.7 0,0 -87.37,3210.8 -1583.58,3691.4"
             style="fill:#3e5409;fill-opacity:1;fill-rule:nonzero;stroke:none"
             id="path72" /><path
             d="M 8459.22,1549.9 C 7517.9,3901.6 5879.97,6453.3 5893.81,6512.8 5930.69,6524.2 7616.47,3873 8459.22,1549.9"
             style="fill:#3e5409;fill-opacity:1;fill-rule:nonzero;stroke:none"
             id="path74" /><path
             d="M 8459.19,1549.9 C 8325.76,1335.5 4771.12,4995.7 4606.81,5486.8 4675.35,5492.3 5207.47,4724 6017.49,3848.6 6698.97,3025.5 7845.6,2020.8 8459.19,1549.9"
             style="fill:#3e5409;fill-opacity:1;fill-rule:nonzero;stroke:none"
             id="path76" /><path
             d="m 8459.23,1549.9 c -990.62,136.9 -4400.73,2043.3 -4942.45,2474.8 62.75,28.5 863.83,-537.9 1940.92,-1108 C 6394.05,2349.1 7833.35,1776 8459.23,1549.9"
             style="fill:#3e5409;fill-opacity:1;fill-rule:nonzero;stroke:none"
             id="path78" /></g></g><path
         d="m 20771.3,13580.2 c -240.8,-284.8 -63.3,-696 -150.7,-1026.5 -46,-174.2 -160.3,-322.9 -218,-493.6 -95.1,-281.7 -16.6,-614.4 194.4,-823.9 343.2,-336 871.3,-312 1312.4,-228.3 244.9,59.4 832.7,120.6 875.3,414.9 86.7,312.8 102.2,694.3 -133.6,945.6 -83.5,88.2 -192,149.3 -276.4,236.6 -297.2,290.5 -215.3,869.6 -606.6,1083.9 -136.9,67.2 -290.8,36.8 -433.2,7.8 -61.3,-9.4 -117.3,10.9 -177.3,19.5 -140.3,20.3 -292,-28.4 -386.3,-136"
         style="fill:#38385d;fill-opacity:1;fill-rule:nonzero;stroke:none"
         id="path80" /><path
         d="M 20231.9,10905 C 19082.6,9217.6 19444.1,9692 17598.4,8946.1 l 233.8,-559.2 c 282.4,102.3 1970.7,419.1 2161.2,640.7 l 708.6,586.1 -470.1,1291.3"
         style="fill:#38385d;fill-opacity:1;fill-rule:nonzero;stroke:none"
         id="path82" /><path
         d="m 20876.4,1980.7 -606.7,-207 c -110.8,-37.8 -198,-124.6 -236.2,-235.3 h 1331.2 c 43.3,193.3 70.3,271.9 -56.3,442.3 h -432"
         style="fill:#38385d;fill-opacity:1;fill-rule:nonzero;stroke:none"
         id="path84" /><path
         d="m 21308.4,1980.7 v 0 c 0,0 501.4,2984.5 215.2,4061.1 l -897.1,-37.5 249.9,-4023.6 c 0,0 206.2,-114.3 432,0"
         style="fill:#ffb6a6;fill-opacity:1;fill-rule:nonzero;stroke:none"
         id="path86" /><g
         id="g88"><g
           id="g90"
           clip-path="url(#clipPath94)"><path
             d="m 20438.8,4904.2 c 0,0 410.1,-76.5 1245.7,101.9 l -22.4,611.7 -1095.8,-17 -127.5,-696.6"
             style="fill:#ff8370;fill-opacity:1;fill-rule:nonzero;stroke:none"
             id="path96" /></g></g><path
         d="m 22497.1,2123.3 -560.3,-311.4 c -102.4,-56.8 -172.8,-157.8 -190.7,-273.5 l 1310,236.3 c 8,199.5 21.7,278.6 -133.9,425.3 l -425.1,-76.7"
         style="fill:#38385d;fill-opacity:1;fill-rule:nonzero;stroke:none"
         id="path98" /><path
         d="m 22922.2,2200 v 0 c 0,0 -36.6,3026.2 -509.3,4034.8 l -876.2,-196.2 960.4,-3915.3 c 0,0 223.2,-75.9 425.1,76.7"
         style="fill:#ffb6a6;fill-opacity:1;fill-rule:nonzero;stroke:none"
         id="path100" /><g
         id="g102"><g
           id="g104"
           clip-path="url(#clipPath108)"><path
             d="m 21547.3,4922.6 c 0,0 417.2,-2.4 1207.8,321.6 l -130.6,597.9 -1075.5,-211.3 -1.7,-708.2"
             style="fill:#ff8370;fill-opacity:1;fill-rule:nonzero;stroke:none"
             id="path110" /></g></g><path
         d="m 20709.6,8762 h 1794.5 c 0,0 391.5,-479 223.3,-1149.2 -41.8,-166.6 -46.2,-340.4 -12.8,-508.8 l 315.7,-1589.9 c 0,0 -1314.9,-524.4 -2691.6,-176.9 l 370.9,3424.8"
         style="fill:#38385d;fill-opacity:1;fill-rule:nonzero;stroke:none"
         id="path112" /><g
         id="g114"><g
           id="g116"
           clip-path="url(#clipPath120)"><path
             d="m 20487.8,8353.1 c 0,0 1412.1,-24.2 2138.3,468 l -2025.4,48.4 -112.9,-516.4"
             style="fill:#1a1a35;fill-opacity:1;fill-rule:nonzero;stroke:none"
             id="path122" /></g></g><path
         d="m 20742.5,9139 -32.9,-377 h 1794.5 c 0,0 -119.9,145.6 -113.1,377 h -1648.5"
         style="fill:#ffb6a6;fill-opacity:1;fill-rule:nonzero;stroke:none"
         id="path124" /><path
         d="m 21769.8,11765.1 c 0,0 976.7,-319.6 1082,-588.8 105.4,-269.2 -347.7,-2225.8 -347.7,-2225.8 h -1877.6 c 0,0 -176,1937.8 -179.5,2093.9 -7.6,335.1 800.7,686.6 800.7,686.6 l 522.1,34.1"
         style="fill:#ff5c3d;fill-opacity:1;fill-rule:nonzero;stroke:none"
         id="path126" /><path
         d="m 20794.4,12808.7 c 260,1439.8 1609.8,398.4 915.5,-577.6 10.8,-239.7 200.3,-719.5 -180,-768.1 -341.5,-16.2 -298.4,340 -311.4,572.8 -266.2,67.7 -451.6,394.9 -424.1,772.9"
         style="fill:#ffb6a6;fill-opacity:1;fill-rule:nonzero;stroke:none"
         id="path128" /><g
         id="g130"><g
           id="g132"
           clip-path="url(#clipPath136)"><path
             d="m 21709.9,12231.1 c 0,0 -151.8,-177.2 -418.4,-193.7 0,0 294.2,-107 494,-22.5 l -75.6,216.2"
             style="fill:#ff8370;fill-opacity:1;fill-rule:nonzero;stroke:none"
             id="path138" /><path
             d="m 21108.1,12217.6 c -10,1.8 227,154.4 227,154.4 0,0 -12.4,-193.9 -227,-154.4"
             style="fill:#ffffff;fill-opacity:1;fill-rule:nonzero;stroke:none"
             id="path140" /><path
             d="m 20854.7,13214.5 c 0,0 -65.5,-301.3 191,-489.6 0,0 -13,194.8 55.2,360.4 122.8,-411.2 549.1,-231.7 724,-500 0,0 -70,331.1 -221.7,444.8 -151.7,113.6 -379,399.3 -379,399.3 0,0 -281.3,-14.3 -369.5,-214.9"
             style="fill:#ff8370;fill-opacity:1;fill-rule:nonzero;stroke:none"
             id="path142" /></g></g><path
         d="m 20854.7,11519.8 c 328.7,-375.2 1100.7,-218.7 1361.4,75.8 -515.7,239.9 -831.1,285.5 -1361.4,-75.8"
         style="fill:#ffb6a6;fill-opacity:1;fill-rule:nonzero;stroke:none"
         id="path144" /><path
         d="m 18843,8538.1 c -1636,27.9 -1635.8,2461.5 0.1,2489.2 1635.9,-28 1635.7,-2461.5 -0.1,-2489.2 z m 2342.5,726.2 c 75.2,341.2 75.2,695.6 0,1036.8 h -448.9 c -43.9,160.4 -107.4,312.7 -188.1,453.9 l 317.6,317.6 c -181.7,287.4 -445.8,551.4 -733.2,733.1 l -317.6,-317.6 c -141.2,80.7 -293.5,144.3 -453.9,188.1 v 449 c -341.2,75.2 -695.6,75.2 -1036.8,0 v -449 c -160.4,-43.8 -312.7,-107.4 -453.9,-188.1 l -317.6,317.6 c -287.4,-181.7 -551.4,-445.7 -733.1,-733.1 l 317.6,-317.6 c -80.7,-141.2 -144.3,-293.5 -188.1,-453.9 h -449 c -75.2,-341.2 -75.2,-695.6 0,-1036.8 h 449 c 43.8,-160.4 107.4,-312.7 188.1,-453.9 L 16820,8492.8 c 181.7,-287.4 445.7,-551.5 733.1,-733.2 l 317.6,317.6 c 141.2,-80.7 293.5,-144.2 453.9,-188.1 v -448.9 c 341.2,-75.2 695.6,-75.2 1036.8,0 v 448.9 c 160.4,43.9 312.7,107.4 453.9,188.1 l 317.6,-317.6 c 287.4,181.7 551.5,445.8 733.2,733.2 l -317.6,317.6 c 80.7,141.2 144.2,293.5 188.1,453.9 h 448.9"
         style="fill:#a4c4ff;fill-opacity:1;fill-rule:nonzero;stroke:none"
         id="path146" /><g
         id="g148"><g
           id="g150"
           clip-path="url(#clipPath154)"><path
             d="m 20146.8,9621.7 c 0,0 37.5,-200.3 153.5,-214.8 116.1,-14.5 713.8,150.9 713.8,150.9 l -8.7,174.1 -858.6,-110.2"
             style="fill:#739bfd;fill-opacity:1;fill-rule:nonzero;stroke:none"
             id="path156" /></g></g><path
         d="m 18980.1,9237 c -717.2,12.3 -717.1,1079.2 0.1,1091.3 717.2,-12.2 717.1,-1079.1 -0.1,-1091.3 z m -47.1,1790.3 c -1636,-28 -1635.7,-2461.5 0.1,-2489.2 1636,27.9 1635.7,2461.5 -0.1,2489.2"
         style="fill:#3875ff;fill-opacity:1;fill-rule:nonzero;stroke:none"
         id="path158" /><path
         d="m 22851.8,11176.3 439.1,-1264.1 c 68.6,-197.6 12.5,-417.1 -142.5,-557.5 -115.6,-104.8 -272,-152.3 -426.2,-129.5 l -1806.3,266.3 37.8,564.2 1550.4,-119.6 c 0,0 -98.1,945.4 347.7,1240.2"
         style="fill:#38385d;fill-opacity:1;fill-rule:nonzero;stroke:none"
         id="path160" /><path
         d="m 20949.1,9987.1 c 0,0 -409.7,210.1 -511.7,190.5 -101.9,-19.5 169.2,-168.4 160.5,-190.5 -8.6,-22.1 -540.1,-28.6 -559.6,-78.5 -19.6,-49.8 143.1,-438.1 262.4,-418.6 119.4,19.5 622.6,112.6 622.6,112.6 l 25.8,384.5"
         style="fill:#ffb6a6;fill-opacity:1;fill-rule:nonzero;stroke:none"
         id="path162" /><g
         id="g164"><g
           id="g166"
           clip-path="url(#clipPath170)"><path
             d="m 20869.9,10085.4 c -28.3,-368.6 -13.5,-419.8 -353.2,-618.1 l 529.8,113.5 25.3,416.3 -201.9,88.3"
             style="fill:#ff8370;fill-opacity:1;fill-rule:nonzero;stroke:none"
             id="path172" /></g></g><path
         d="m 21129.7,13309.5 c -42.3,-280.5 231.5,-460.9 466.5,-533.3 -18.9,39.2 -37.9,78.5 -56.8,117.7 272.9,-173.4 237.6,-405 228.9,-688.1 391.1,251.7 373.2,866.6 76.8,1185.6 -127.6,135.4 -318.8,222.4 -505.9,209.5 -119,-38.9 -190.6,-173.7 -209.5,-291.4"
         style="fill:#38385d;fill-opacity:1;fill-rule:nonzero;stroke:none"
         id="path174" /><path
         d="m 21119.5,13541.8 c -206.8,-137 -217.8,-434.2 -156.7,-654.7 39.3,209.6 136.8,393.5 236.3,582.1 -25.4,22.3 -54.2,50.4 -79.6,72.6"
         style="fill:#38385d;fill-opacity:1;fill-rule:nonzero;stroke:none"
         id="path176" /><path
         d="m 10051.6,13775.6 646.1,-139.9 1068.2,569.3 558.8,-1136.4 -942.3,-546.4 c 49.9,-716.1 -126.4,-2687.6 -126.4,-2687.6 -1148.4,-581.7 -2444.57,619.5 -2444.57,619.5 143.88,332.3 85.9,2924.7 1240.17,3321.5"
         style="fill:#f85c3d;fill-opacity:1;fill-rule:nonzero;stroke:none"
         id="path178" /><g
         id="g180"><g
           id="g182"
           clip-path="url(#clipPath186)"><path
             d="m 10670.7,13717.9 c 0,0 669,-867.9 729.8,-1409.6 60.8,-541.8 0,0 0,0 l 1044.8,702.1 -591.5,1343.3 -1183.1,-635.8"
             style="fill:#38385d;fill-opacity:1;fill-rule:nonzero;stroke:none"
             id="path188" /></g></g><path
         d="m 10699.3,13340.4 48.1,396.4 c 188.2,-13.2 416.5,-21.7 411.8,229.4 l -95.8,929.3 -890.6,7.6 -121.2,-1127.5 647.7,-435.2"
         style="fill:#ffb6a6;fill-opacity:1;fill-rule:nonzero;stroke:none"
         id="path190" /><g
         id="g192"><g
           id="g194"
           clip-path="url(#clipPath198)"><path
             d="m 10747.4,13736.8 c 0,0 -190.8,37.8 -263.7,242.8 0,0 -17.3,-370.5 279.9,-445.8 l -16.2,203"
             style="fill:#ff8370;fill-opacity:1;fill-rule:nonzero;stroke:none"
             id="path200" /><path
             d="m 11012.3,14003.4 c -8,0.2 -224.1,21.5 -288,170.5 0,0 9.9,-263.1 156.9,-271.5 147,-8.2 131.1,101 131.1,101"
             style="fill:#ffffff;fill-opacity:1;fill-rule:nonzero;stroke:none"
             id="path202" /><path
             d="m 11136.7,14502.9 c 0,0 -188.4,61.1 -262.4,125.9 l 97.5,-141.3 c 0,0 -283.2,28.9 -438.2,229.6 l -127.4,-116.8 50.5,280.7 735,-195.2 -55,-182.9"
             style="fill:#ff8370;fill-opacity:1;fill-rule:nonzero;stroke:none"
             id="path204" /></g></g><path
         d="m 10470.9,14830.2 c 0,0 100.1,-106 366.3,-214.3 L 10723,14758 c 0,0 242.8,-167.8 464.9,-161 l -129.4,188.5 c 0,0 248.5,-234.6 539.3,74.8 0,0 -472.4,564 -989.6,534.6 -517.1,-29.4 -793.91,-380.4 -725.01,-599.8 33.77,-107.5 205.21,-687.8 205.21,-687.8 l 286.6,406.8 c 0,0 -97.8,-49.8 -138.9,-9.2 -41,40.6 -47.7,227.1 -14.8,259.5 129.7,127.6 184.9,-164.1 184.9,-164.1 l 64.7,229.9"
         style="fill:#38385d;fill-opacity:1;fill-rule:nonzero;stroke:none"
         id="path206" /><path
         d="m 10396.1,13182.8 1620.4,-1072 -752,-1156.9 c -1287.59,841.2 -1677.54,591.8 -868.4,2228.9"
         style="fill:#38385d;fill-opacity:1;fill-rule:nonzero;stroke:none"
         id="path208" /><path
         d="m 11859.3,14015 c 140.1,69.2 406.1,155.9 508.8,277.9 l 1198.8,1344.5 299.5,-318.8 -948.7,-1567 c -117.3,-228.7 -464.5,-391.3 -670.5,-525.4 l -387.9,788.8"
         style="fill:#ffb6a6;fill-opacity:1;fill-rule:nonzero;stroke:none"
         id="path210" /><g
         id="g212"><g
           id="g214"
           clip-path="url(#clipPath218)"><path
             d="m 11929.7,14121.8 c 0,0 314.2,-544.6 723.9,-735.4 l -527.5,-376 -448.9,1010 252.5,101.4"
             style="fill:#ff8370;fill-opacity:1;fill-rule:nonzero;stroke:none"
             id="path220" /></g></g><path
         d="m 17082.7,16525.2 c -54.5,0 -107,-8.6 -156.4,-24.3 v 611.6 c 0,179.1 -145.2,324.4 -324.4,324.4 h -892 c 287.4,312.3 40.2,866.5 -390.9,851.9 -430.9,14.6 -678.4,-539.7 -390.9,-851.9 h -892 c -179.1,0 -324.4,-145.3 -324.4,-324.4 v -611.6 c -884.8,202.8 -884.2,-1185.9 0,-983 v -611.5 c 0,-179.2 145.3,-324.4 324.4,-324.4 h 892 c -287.4,-312.3 -40.1,-866.6 390.9,-852 431,-14.6 678.5,539.7 390.9,852 h 892 c 179.2,0 324.4,145.2 324.4,324.4 v 611.5 c 757.3,-207.7 940.9,975.8 156.4,1007.3"
         style="fill:#a4c4ff;fill-opacity:1;fill-rule:nonzero;stroke:none"
         id="path222" /><g
         id="g224"><g
           id="g226"
           clip-path="url(#clipPath230)"><path
             d="m 13991.7,17581.1 c -107.5,-1629.2 723.2,-2733 2310.9,-3149.3 l -677.9,-917.5 -1407,544 -143.8,421 -409.2,123.3 -625.1,906.4 -249.5,901.2 1201.6,1170.9"
             style="fill:#739bfd;fill-opacity:1;fill-rule:nonzero;stroke:none"
             id="path232" /></g></g><path
         d="m 13472.3,15500.4 c 0,0 407.8,183.4 440.4,156.3 32.5,-27.1 -22,-141.8 -46.3,-156.3 -24.2,-14.5 -230.3,-141.9 -230.3,-141.9 l -163.8,141.9"
         style="fill:#ffb6a6;fill-opacity:1;fill-rule:nonzero;stroke:none"
         id="path234" /><path
         d="m 13711.7,15405.2 c 0,0 -211.4,-207.1 0,-342.2 v 342.2"
         style="fill:#ff8370;fill-opacity:1;fill-rule:nonzero;stroke:none"
         id="path236" /><path
         d="m 11859.3,11869 c 161.5,-101.5 340.6,-192.3 532.7,-211.1 l 1954.6,-239.5 -43.1,-391.1 -2035.4,-108.9 c -283.5,-32.3 -609.5,145.3 -861.8,253.7 l 453,696.9"
         style="fill:#ffb6a6;fill-opacity:1;fill-rule:nonzero;stroke:none"
         id="path238" /><g
         id="g240"><g
           id="g242"
           clip-path="url(#clipPath246)"><path
             d="m 11375,11015 c -88.2,62 -161,113.2 -161,113.2 l 564.7,856.2 238.4,-128.5 c 0,0 -345.8,-740.4 -333.1,-1058 0,0 -172.9,121.5 -309,217.1"
             style="fill:#ff8370;fill-opacity:1;fill-rule:nonzero;stroke:none"
             id="path248" /></g></g><path
         d="m 14302.7,11423.8 c 0,0 511.7,212.3 536.5,168.9 24.8,-43.4 -195.3,-155 -182.9,-182.9 12.4,-27.9 514.5,-114.6 517.6,-151.9 3.1,-37.1 -282,-319.2 -303.7,-322.3 -21.7,-3.1 -591.9,90.3 -591.9,90.3 l 24.4,397.9"
         style="fill:#ffb6a6;fill-opacity:1;fill-rule:nonzero;stroke:none"
         id="path250" /><path
         d="m 27488.4,4536.5 -27.7,108.8 c 22.4,-68.2 27.6,-108.3 27.7,-108.8"
         style="fill:#d8e6ff;fill-opacity:1;fill-rule:nonzero;stroke:none"
         id="path252" /><path
         d="m 28251.9,1538.4 v 0 l -1454.5,19.5 h -3166.3 c 0,0 503.3,233.6 1060.6,450.9 -588,414.5 -944.9,972.8 -944.9,972.8 196.2,45.5 408.6,64.1 624.8,64.1 424.8,0 864.3,-71.8 1223.7,-152.2 -1265.8,567.8 -1562,1909.5 -1562,1909.5 163.4,22.9 321.6,33.2 474.2,33.2 657.9,0 1211.7,-192.3 1625,-406.9 -588.4,701.8 -693.3,1694.3 -693.3,1694.3 1540.2,-428.7 1928.6,-1195.4 2021.5,-1478.3 l 27.7,-108.8 v 0 l 763.5,-2998.1"
         style="fill:#c8dcfe;fill-opacity:1;fill-rule:nonzero;stroke:none"
         id="path254" /><path
         d="m 28704.5,1490.8 c -47.8,47.5 -26703.85,-90.9 -26693.5,47.4 -64.77,48 26986.6,176.8 26693.5,-47.4"
         style="fill:#38385c;fill-opacity:1;fill-rule:nonzero;stroke:none"
         id="path256" /><path
         d="M 10017.6,16534.6 H 7950.91 c -151.82,0 -274.9,-123.1 -274.9,-274.9 23.57,-242.3 -115.64,-776.3 274.9,-782.4 h 1465.66 l 284.98,-267.3 c 43.45,-40.7 114.6,-9.9 114.6,49.7 v 217.6 c 218.75,-12 461.85,-4.2 476.35,274.9 -23.4,242 115.5,776.5 -274.9,782.4"
         style="fill:#a4c4ff;fill-opacity:1;fill-rule:nonzero;stroke:none"
         id="path258" /><path
         d="m 8269.58,15998.9 c 1.48,-101.6 -158.13,-101.6 -156.64,0 -1.48,101.6 158.14,101.6 156.64,0"
         style="fill:#ffffff;fill-opacity:1;fill-rule:nonzero;stroke:none"
         id="path260" /><path
         d="m 8831.98,15998.9 c 1.48,-101.6 -158.13,-101.6 -156.64,0 -1.48,101.6 158.13,101.6 156.64,0"
         style="fill:#ffffff;fill-opacity:1;fill-rule:nonzero;stroke:none"
         id="path262" /><path
         d="m 9343.79,15998.9 c 1.49,-101.6 -158.13,-101.6 -156.63,0 -1.49,101.6 158.13,101.6 156.63,0"
         style="fill:#ffffff;fill-opacity:1;fill-rule:nonzero;stroke:none"
         id="path264" /><path
         d="m 9855.61,15998.9 c 1.48,-101.6 -158.13,-101.6 -156.64,0 -1.48,101.6 158.14,101.6 156.64,0"
         style="fill:#ffffff;fill-opacity:1;fill-rule:nonzero;stroke:none"
         id="path266" /><path
         d="m 7256.88,7436.1 h -1944.5 c -106.63,0 -193.07,86.4 -193.07,193 v 584.4 c 0,106.7 86.44,193.1 193.07,193.1 h 1944.5 c 106.64,0 193.08,-86.4 193.08,-193.1 v -584.4 c 0,-106.6 -86.44,-193 -193.08,-193"
         style="fill:#ffffff;fill-opacity:1;fill-rule:nonzero;stroke:none"
         id="path268" /><path
         d="M 7133.9,8089 H 5435.37 v 138.1 H 7133.9 V 8089"
         style="fill:#e3eefd;fill-opacity:1;fill-rule:nonzero;stroke:none"
         id="path270" /><path
         d="M 7133.9,7852.3 H 5435.37 v 138.1 H 7133.9 v -138.1"
         style="fill:#e3eefd;fill-opacity:1;fill-rule:nonzero;stroke:none"
         id="path272" /><path
         d="m 6243.76,7615.6 h -808.39 v 138 h 808.39 v -138"
         style="fill:#e3eefd;fill-opacity:1;fill-rule:nonzero;stroke:none"
         id="path274" /><path
         d="m 24505.1,6043.8 h -2890.2 c -158.5,0 -287,128.5 -287,287 v 868.6 c 0,158.5 128.5,287 287,287 h 2890.2 c 158.4,0 286.9,-128.5 286.9,-287 v -868.6 c 0,-158.5 -128.5,-287 -286.9,-287"
         style="fill:#ffffff;fill-opacity:1;fill-rule:nonzero;stroke:none"
         id="path276" /><path
         d="m 24322.3,7014.4 h -2524.6 v 205.1 h 2524.6 v -205.1"
         style="fill:#e3eefd;fill-opacity:1;fill-rule:nonzero;stroke:none"
         id="path278" /><path
         d="m 24322.3,6662.5 h -2524.6 v 205.2 h 2524.6 v -205.2"
         style="fill:#e3eefd;fill-opacity:1;fill-rule:nonzero;stroke:none"
         id="path280" /><path
         d="m 22999.2,6310.6 h -1201.5 v 205.2 h 1201.5 v -205.2"
         style="fill:#e3eefd;fill-opacity:1;fill-rule:nonzero;stroke:none"
         id="path282" /><path
         d="m 18508.5,2586.3 h -518.6 v 238 c -160,34 -315.2,101.8 -449,195.7 l -175.2,-175.1 -366.6,366.6 188.2,188.3 c -79.7,133.1 -134.4,283.1 -158.8,435.9 h -288 v 518.6 h 314.3 c 36.9,137.9 99,271 180.8,387.6 l -236.5,236.6 366.6,366.7 249.8,-249.8 c 115.1,68.9 243.4,119.6 374.4,147.4 v 360.9 h 518.6 v -360.9 c 131,-27.8 259.4,-78.5 374.5,-147.4 l 249.7,249.8 366.7,-366.7 -236.6,-236.6 c 81.8,-116.6 143.9,-249.7 180.9,-387.6 h 314.2 v -518.6 h -288 c -24.4,-152.8 -79.1,-302.8 -158.8,-435.9 l 188.3,-188.3 -366.7,-366.6 -175.2,175.1 c -133.7,-93.9 -289,-161.7 -449,-195.7 v -238 m -259.3,2326 c -1161.3,-34.8 -1161.6,-1722.5 0,-1757.5 1161.3,34.8 1161.6,1722.6 0,1757.5"
         style="fill:#c8dcfe;fill-opacity:1;fill-rule:nonzero;stroke:none"
         id="path284" /><path
         d="m 16354.3,4377.2 h -184 v 84.4 c -56.7,12.1 -111.8,36.1 -159.2,69.4 l -62.2,-62.1 -130,130.1 66.8,66.8 c -28.3,47.2 -47.7,100.4 -56.4,154.6 h -102.1 v 183.9 h 111.4 c 13.1,48.9 35.2,96.1 64.2,137.5 l -83.9,83.9 130,130.1 88.6,-88.6 c 40.8,24.4 86.4,42.4 132.8,52.3 v 128 h 184 v -128 c 46.4,-9.9 92,-27.9 132.8,-52.3 l 88.6,88.6 130,-130.1 -83.9,-83.9 c 29,-41.4 51.1,-88.6 64.2,-137.5 h 111.4 v -183.9 h -102.1 c -8.7,-54.3 -28.1,-107.4 -56.4,-154.6 l 66.8,-66.8 -130,-130.1 -62.2,62.1 c -47.4,-33.3 -102.5,-57.3 -159.2,-69.4 v -84.4 m -92,825 c -411,-10 -411.1,-613.3 0,-623.3 411,10 411.1,613.3 0,623.3"
         style="fill:#c8dcfe;fill-opacity:1;fill-rule:nonzero;stroke:none"
         id="path286" /></g></g></svg>
