<?xml version="1.0" encoding="UTF-8" standalone="no"?>
<!-- Created with Inkscape (http://www.inkscape.org/) -->

<svg
   version="1.1"
   id="svg2"
   xml:space="preserve"
   width="666.66669"
   height="666.66669"
   viewBox="0 0 666.66669 666.66669"
   sodipodi:docname="12297154_4904578.eps"
   xmlns:inkscape="http://www.inkscape.org/namespaces/inkscape"
   xmlns:sodipodi="http://sodipodi.sourceforge.net/DTD/sodipodi-0.dtd"
   xmlns="http://www.w3.org/2000/svg"
   xmlns:svg="http://www.w3.org/2000/svg"><defs
     id="defs6" /><sodipodi:namedview
     id="namedview4"
     pagecolor="#ffffff"
     bordercolor="#666666"
     borderopacity="1.0"
     inkscape:pageshadow="2"
     inkscape:pageopacity="0.0"
     inkscape:pagecheckerboard="0" /><g
     id="g8"
     inkscape:groupmode="layer"
     inkscape:label="ink_ext_XXXXXX"
     transform="matrix(1.3333333,0,0,-1.3333333,0,666.66667)"><g
       id="g10"
       transform="scale(0.1)"><path
         d="M 0,0 H 5000 V 5000 H 0 Z"
         style="fill:#ffffff;fill-opacity:1;fill-rule:nonzero;stroke:none"
         id="path12" /><path
         d="m 2639.73,2781.02 h -279.46 v 334.59 h 279.46 v -334.59"
         style="fill:#726b87;fill-opacity:1;fill-rule:nonzero;stroke:none"
         id="path14" /><path
         d="M 2705.32,3115.61 H 2294.68 V 3217 h 410.64 v -101.39"
         style="fill:#bdafd6;fill-opacity:1;fill-rule:nonzero;stroke:none"
         id="path16" /><path
         d="m 3087.28,2559.69 -232.18,155.53 186.22,277.99 232.18,-155.54 -186.22,-277.98"
         style="fill:#726b87;fill-opacity:1;fill-rule:nonzero;stroke:none"
         id="path18" /><path
         d="m 3327.99,2801.17 -341.16,228.54 56.42,84.24 341.16,-228.54 -56.42,-84.24"
         style="fill:#bdafd6;fill-opacity:1;fill-rule:nonzero;stroke:none"
         id="path20" /><path
         d="m 1912.72,2559.69 232.18,155.53 -186.21,277.99 -232.19,-155.54 186.22,-277.98"
         style="fill:#726b87;fill-opacity:1;fill-rule:nonzero;stroke:none"
         id="path22" /><path
         d="m 1672.02,2801.17 341.15,228.54 -56.42,84.24 -341.16,-228.54 56.43,-84.24"
         style="fill:#bdafd6;fill-opacity:1;fill-rule:nonzero;stroke:none"
         id="path24" /><path
         d="m 3606.4,1912.5 c 0,-611.04 -495.36,-1106.398 -1106.4,-1106.398 -611.05,0 -1106.4,495.358 -1106.4,1106.398 0,611.04 495.35,1106.4 1106.4,1106.4 611.04,0 1106.4,-495.36 1106.4,-1106.4"
         style="fill:#bdafd6;fill-opacity:1;fill-rule:nonzero;stroke:none"
         id="path26" /><path
         d="m 3456.64,1912.5 c 0,-528.34 -428.3,-956.641 -956.64,-956.641 -528.33,0 -956.64,428.301 -956.64,956.641 0,528.34 428.31,956.64 956.64,956.64 528.34,0 956.64,-428.3 956.64,-956.64"
         style="fill:#ffffff;fill-opacity:1;fill-rule:nonzero;stroke:none"
         id="path28" /><path
         d="m 2545.63,2752.5 c 0,-25.2 -20.43,-45.63 -45.63,-45.63 -25.2,0 -45.62,20.43 -45.62,45.63 0,25.2 20.42,45.63 45.62,45.63 25.2,0 45.63,-20.43 45.63,-45.63"
         style="fill:#9888b6;fill-opacity:1;fill-rule:nonzero;stroke:none"
         id="path30" /><path
         d="m 2545.63,1072.5 c 0,-25.21 -20.43,-45.63 -45.63,-45.63 -25.2,0 -45.62,20.42 -45.62,45.63 0,25.2 20.42,45.62 45.62,45.62 25.2,0 45.63,-20.42 45.63,-45.62"
         style="fill:#9888b6;fill-opacity:1;fill-rule:nonzero;stroke:none"
         id="path32" /><path
         d="m 3340,1866.87 c -25.2,0 -45.62,20.43 -45.62,45.63 0,25.2 20.42,45.62 45.62,45.62 25.21,0 45.63,-20.42 45.63,-45.62 0,-25.2 -20.42,-45.63 -45.63,-45.63"
         style="fill:#9888b6;fill-opacity:1;fill-rule:nonzero;stroke:none"
         id="path34" /><path
         d="m 1660,1866.87 c -25.2,0 -45.63,20.43 -45.63,45.63 0,25.2 20.43,45.62 45.63,45.62 25.2,0 45.63,-20.42 45.63,-45.62 0,-25.2 -20.43,-45.63 -45.63,-45.63"
         style="fill:#9888b6;fill-opacity:1;fill-rule:nonzero;stroke:none"
         id="path36" /><path
         d="m 3119.16,2545.81 -94.99,-95 c -3.91,-3.9 -3.91,-10.24 0,-14.14 3.9,-3.91 10.24,-3.91 14.14,0 l 94.99,94.99 c 3.91,3.91 3.91,10.24 0,14.15 -3.9,3.9 -10.24,3.9 -14.14,0"
         style="fill:#394177;fill-opacity:1;fill-rule:nonzero;stroke:none"
         id="path38" /><path
         d="m 1961.69,1388.33 -95,-94.99 c -3.9,-3.9 -3.9,-10.24 0,-14.14 3.91,-3.91 10.24,-3.91 14.15,0 l 94.99,94.99 c 3.91,3.9 3.91,10.24 0,14.14 -3.9,3.91 -10.24,3.91 -14.14,0"
         style="fill:#394177;fill-opacity:1;fill-rule:nonzero;stroke:none"
         id="path40" /><path
         d="m 1866.69,2531.66 95,-94.99 c 3.9,-3.91 10.24,-3.91 14.14,0 3.91,3.9 3.91,10.24 0,14.14 l -94.99,95 c -3.91,3.9 -10.24,3.9 -14.15,0 -3.9,-3.91 -3.9,-10.24 0,-14.15"
         style="fill:#394177;fill-opacity:1;fill-rule:nonzero;stroke:none"
         id="path42" /><path
         d="m 3024.17,1374.19 94.99,-94.99 c 3.9,-3.91 10.24,-3.91 14.14,0 3.91,3.9 3.91,10.24 0,14.14 l -94.99,94.99 c -3.9,3.91 -10.24,3.91 -14.14,0 -3.91,-3.9 -3.91,-10.24 0,-14.14"
         style="fill:#394177;fill-opacity:1;fill-rule:nonzero;stroke:none"
         id="path44" /><path
         d="m 2449.59,1964.7 499.57,374.92 -399.56,-480.09 c -27.96,-33.59 -78.98,-35.28 -109.1,-3.6 -30.12,31.67 -25.87,82.54 9.09,108.77"
         style="fill:#394177;fill-opacity:1;fill-rule:nonzero;stroke:none"
         id="path46" /><path
         d="M 1952.7,3415.16 H 569.164 c -17.078,0 -30.926,13.85 -30.926,30.93 v 5.81 c 0,17.08 13.848,30.93 30.926,30.93 H 1952.7 c 17.09,0 30.93,-13.85 30.93,-30.93 v -5.81 c 0,-17.08 -13.84,-30.93 -30.93,-30.93"
         style="fill:#726b87;fill-opacity:1;fill-rule:nonzero;stroke:none"
         id="path48" /><path
         d="M 1952.7,806.102 H 569.164 c -17.078,0 -30.926,13.847 -30.926,30.929 v 5.809 c 0,17.082 13.848,30.93 30.926,30.93 H 1952.7 c 17.09,0 30.93,-13.848 30.93,-30.93 v -5.809 c 0,-17.082 -13.84,-30.929 -30.93,-30.929"
         style="fill:#726b87;fill-opacity:1;fill-rule:nonzero;stroke:none"
         id="path50" /><path
         d="m 1729.78,1652.72 c -57.04,92.26 -131.39,155.09 -213.57,223.24 -60.74,50.37 -210.54,173.13 -206.4,268.5 -4.14,95.38 145.66,218.15 206.4,268.51 82.18,68.15 156.53,130.99 213.57,223.24 54.95,88.87 91.55,187.94 117.15,288.9 7.55,29.81 76.9,490.05 58.24,490.05 H 1260.93 616.699 c -18.664,0 50.684,-460.24 58.239,-490.05 25.593,-100.96 62.195,-200.03 117.144,-288.9 57.039,-92.25 131.395,-155.09 213.568,-223.24 60.75,-50.36 210.55,-173.13 206.41,-268.51 4.14,-95.37 -145.66,-218.13 -206.41,-268.5 -82.173,-68.15 -156.529,-130.98 -213.568,-223.24 -54.949,-88.87 -91.551,-187.93 -117.144,-288.9 -7.555,-29.81 -76.903,-490.05 -58.239,-490.05 h 644.231 644.24 c 18.66,0 -50.69,460.24 -58.24,490.05 -25.6,100.97 -62.2,200.03 -117.15,288.9"
         style="fill:#e3d4ed;fill-opacity:1;fill-rule:nonzero;stroke:none"
         id="path52" /><path
         d="m 1500.56,2455.35 c 77.13,65.27 146.93,125.45 200.47,213.8 51.58,85.11 85.93,180 109.96,276.69 1.61,6.5 6.24,34.42 12.21,73.6 -51.51,2.07 -103.81,-2.75 -154.83,-10.35 -95.89,-14.29 -190.85,-37.71 -287.76,-40.74 -138.1,-4.3 -273.73,32.92 -406.864,69.82 -96.512,26.75 -193.019,53.5 -289.527,80.25 12.152,-86.65 23.875,-161.38 26.66,-172.58 24.023,-96.69 58.379,-191.58 109.957,-276.69 53.543,-88.35 123.332,-148.53 200.474,-213.8 57.02,-48.23 223.16,-165.81 219.28,-257.15 V 1479.43 C 837.27,1460.25 732.84,873.77 732.84,873.77 h 528.09 528.09 c 0,0 -104.43,586.48 -507.74,605.66 v 718.77 c -3.88,91.34 162.26,208.92 219.28,257.15"
         style="fill:#a8b0e0;fill-opacity:1;fill-rule:nonzero;stroke:none"
         id="path54" /><path
         d="M 732.84,873.77 H 616.699 c -2.195,0 -3.172,6.371 -3.176,17.671 -0.019,84.688 54.75,446.079 61.415,472.379 25.593,100.97 62.195,200.03 117.144,288.9 57.039,92.26 131.395,155.09 213.568,223.24 59.92,49.68 206.47,169.79 206.49,264.58 0,1.31 -0.02,2.62 -0.08,3.92 0.06,1.31 0.08,2.62 0.08,3.93 -0.02,94.8 -146.57,214.91 -206.49,264.58 -82.173,68.15 -156.529,130.99 -213.568,223.24 -54.949,88.87 -91.551,187.94 -117.144,288.9 -6.665,26.3 -61.434,387.69 -61.415,472.38 0.004,11.29 0.981,17.67 3.176,17.67 0.012,0 66.192,0 156.082,0 -11.898,0 11.973,-187.05 32.797,-330.38 -40.457,11.22 -80.902,22.43 -121.359,33.64 12.152,-86.65 23.875,-161.38 26.66,-172.58 24.023,-96.69 58.379,-191.58 109.957,-276.69 53.543,-88.35 123.332,-148.53 200.474,-213.8 57.02,-48.23 223.16,-165.81 219.28,-257.15 v -253.83 c -30.12,-28.15 -59.17,-52.09 -78.86,-68.41 -82.17,-68.15 -156.53,-130.98 -213.57,-223.24 -54.945,-88.87 -91.547,-187.93 -117.144,-288.9 -4.336,-17.12 -29.055,-176.2 -45.778,-308.54 C 747.055,953.582 732.84,873.77 732.84,873.77 m 548.44,1110.98 v 213.45 c -1.02,23.94 9.64,49.68 26.96,75.5 6.37,-7.73 12.45,-15.55 18.12,-23.41 -25.8,-35.78 -43.17,-72.47 -41.73,-105.83 -1.44,-33.34 15.93,-70.04 41.73,-105.81 -13.27,-18.41 -28.77,-36.57 -45.08,-53.9"
         style="fill:#c5aedd;fill-opacity:1;fill-rule:nonzero;stroke:none"
         id="path56" /><path
         d="M 772.781,873.77 H 732.84 v 0 c 0,0 14.215,79.812 52.398,181.51 -12.398,-98.1 -20.402,-181.51 -12.457,-181.51 m 467.809,1070.6 v 253.83 c 3.88,91.34 -162.26,208.92 -219.28,257.15 -77.142,65.27 -146.931,125.45 -200.474,213.8 -51.578,85.11 -85.934,180 -109.957,276.69 -2.785,11.2 -14.508,85.93 -26.66,172.58 40.457,-11.21 80.902,-22.42 121.359,-33.64 11.84,-81.49 22.699,-148.86 25.438,-159.67 25.597,-100.96 62.199,-200.03 117.144,-288.9 57.04,-92.25 131.4,-155.09 213.57,-223.24 34.84,-28.89 98.93,-81.58 146.51,-139.27 -17.32,-25.82 -27.98,-51.56 -26.96,-75.5 v -213.45 c -13.28,-14.11 -27.09,-27.67 -40.69,-40.38"
         style="fill:#918fd0;fill-opacity:1;fill-rule:nonzero;stroke:none"
         id="path58" /><path
         d="m 1338.95,2057.28 c -17.78,28.34 -29.22,56.78 -29.23,83.26 0,0.98 0.02,1.97 0.05,2.95 -0.88,-27.29 10.77,-56.79 29.2,-86.17 0,-0.01 -0.01,-0.02 -0.02,-0.04"
         style="fill:#e3d4ed;fill-opacity:1;fill-rule:nonzero;stroke:none"
         id="path60" /><path
         d="m 1309.77,2143.5 c 0,0.1 0.01,0.2 0.01,0.3 0,-0.1 -0.01,-0.2 -0.01,-0.3 m 0.01,0.33 c 0,0.09 0.01,0.19 0.01,0.28 0,-0.09 -0.01,-0.19 -0.01,-0.28 m 0.01,0.32 c 0.01,0.1 0.01,0.21 0.02,0.31 -0.01,-0.1 -0.01,-0.21 -0.02,-0.31 m 0.02,0.31 c -0.01,0.11 -0.01,0.22 -0.02,0.32 0.01,-0.11 0.01,-0.21 0.02,-0.32"
         style="fill:#e3d4ed;fill-opacity:1;fill-rule:nonzero;stroke:none"
         id="path62" /><path
         d="m 1309.79,2144.81 c 0,0.09 -0.01,0.2 -0.01,0.29 0,-0.1 0.01,-0.19 0.01,-0.29"
         style="fill:#e3d4ed;fill-opacity:1;fill-rule:nonzero;stroke:none"
         id="path64" /><path
         d="m 1309.78,2145.12 c -0.04,1.09 -0.06,2.18 -0.06,3.27 0.01,26.47 11.45,54.92 29.23,83.26 0.01,-0.01 0.02,-0.02 0.02,-0.04 -18.5,-29.49 -30.17,-59.1 -29.19,-86.49"
         style="fill:#e3d4ed;fill-opacity:1;fill-rule:nonzero;stroke:none"
         id="path66" /><path
         d="m 1905.17,873.77 h -25.18 c 18.67,0 -50.68,460.24 -58.23,490.05 -25.6,100.97 -62.2,200.03 -117.15,288.9 -57.04,92.26 -131.39,155.09 -213.57,223.24 -39.51,32.76 -116.68,96.13 -164.68,162.69 4.47,6.19 8.68,12.41 12.59,18.63 45.9,-73.12 134.08,-145.51 177.26,-181.32 82.18,-68.15 156.53,-130.98 213.57,-223.24 54.95,-88.87 91.55,-187.93 117.15,-288.9 6.66,-26.3 61.44,-387.691 61.41,-472.379 0,-11.3 -0.98,-17.671 -3.17,-17.671"
         style="fill:#f0e7f5;fill-opacity:1;fill-rule:nonzero;stroke:none"
         id="path68" /><path
         d="m 1309.77,2143.49 c 0,0 0,0 0,0.01 0,-0.01 0,0 0,-0.01"
         style="fill:#f0e7f5;fill-opacity:1;fill-rule:nonzero;stroke:none"
         id="path70" /><path
         d="m 1309.78,2143.8 c 0,0.01 0,0.02 0,0.03 0,-0.01 0,-0.02 0,-0.03"
         style="fill:#f0e7f5;fill-opacity:1;fill-rule:nonzero;stroke:none"
         id="path72" /><path
         d="m 1309.79,2144.11 c 0,0.02 0,0.03 0,0.04 0,-0.01 0,-0.02 0,-0.04"
         style="fill:#f0e7f5;fill-opacity:1;fill-rule:nonzero;stroke:none"
         id="path74" /><path
         d="m 1309.79,2144.78 c 0,0.01 0,0.02 0,0.03 0,-0.01 0,-0.02 0,-0.03 m -0.01,0.32 c 0,0.01 0,0.02 0,0.02 0,-0.01 0,-0.01 0,-0.02"
         style="fill:#f0e7f5;fill-opacity:1;fill-rule:nonzero;stroke:none"
         id="path76" /><path
         d="m 1338.95,2231.65 c -3.91,6.22 -8.12,12.45 -12.59,18.64 48,66.55 125.18,129.93 164.68,162.68 82.18,68.15 156.53,130.99 213.57,223.24 54.95,88.87 91.55,187.94 117.15,288.9 7.55,29.81 76.9,490.05 58.23,490.05 16.01,0 25.18,0 25.18,0 2.19,0 3.17,-6.38 3.17,-17.67 0.03,-84.69 -54.75,-446.08 -61.41,-472.38 -13.76,-54.28 -30.7,-108.01 -51.97,-159.91 -18.29,-44.63 -39.77,-87.9 -65.18,-128.99 -57.04,-92.25 -131.39,-155.09 -213.57,-223.24 -1.77,-1.47 -3.61,-2.99 -5.52,-4.58 -44.81,-37.15 -127.72,-106.61 -171.74,-176.74"
         style="fill:#f0e7f5;fill-opacity:1;fill-rule:nonzero;stroke:none"
         id="path78" /><path
         d="m 1326.36,2038.65 c -25.8,35.77 -43.17,72.47 -41.73,105.81 -1.44,33.36 15.93,70.05 41.73,105.83 4.47,-6.19 8.68,-12.42 12.59,-18.64 -17.78,-28.34 -29.22,-56.79 -29.23,-83.26 0,-1.09 0.02,-2.18 0.06,-3.27 0,0 0,-0.01 0,-0.02 0,-0.09 0.01,-0.2 0.01,-0.29 0,-0.01 0,-0.02 0,-0.03 0.01,-0.1 0.01,-0.21 0.02,-0.32 -0.01,-0.1 -0.01,-0.21 -0.02,-0.31 0,-0.01 0,-0.02 0,-0.04 0,-0.09 -0.01,-0.19 -0.01,-0.28 0,-0.01 0,-0.02 0,-0.03 0,-0.1 -0.01,-0.2 -0.01,-0.3 0,-0.01 0,-0.01 0,-0.01 -0.03,-0.98 -0.05,-1.97 -0.05,-2.95 0.01,-26.48 11.45,-54.92 29.23,-83.26 -3.91,-6.22 -8.12,-12.44 -12.59,-18.63"
         style="fill:#e1d2ec;fill-opacity:1;fill-rule:nonzero;stroke:none"
         id="path80" /><path
         d="M 4660,750.66 H 340 v 55.442 H 4660 V 750.66"
         style="fill:#9888b6;fill-opacity:1;fill-rule:nonzero;stroke:none"
         id="path82" /><path
         d="m 4020.02,1406.92 h -449.57 c -18.54,0 -33.57,15.03 -33.57,33.57 v 11.06 c 0,18.55 15.03,33.57 33.57,33.57 h 449.57 c 18.53,0 33.56,-15.02 33.56,-33.57 v -11.06 c 0,-18.54 -15.03,-33.57 -33.56,-33.57"
         style="fill:#1d2135;fill-opacity:1;fill-rule:nonzero;stroke:none"
         id="path84" /><path
         d="m 3615.34,1406.92 -91.72,-600.818 h 26.52 l 124.06,600.818 h -58.86"
         style="fill:#394177;fill-opacity:1;fill-rule:nonzero;stroke:none"
         id="path86" /><path
         d="m 3975.13,1406.92 91.72,-600.818 h -26.52 l -124.06,600.818 h 58.86"
         style="fill:#394177;fill-opacity:1;fill-rule:nonzero;stroke:none"
         id="path88" /><path
         d="m 3556.79,2471.14 c 0,-16.71 -13.55,-30.25 -30.27,-30.25 -16.71,0 -30.25,13.54 -30.25,30.25 0,16.72 13.54,30.27 30.25,30.27 16.72,0 30.27,-13.55 30.27,-30.27"
         style="fill:#823b37;fill-opacity:1;fill-rule:nonzero;stroke:none"
         id="path90" /><path
         d="m 3770.4,2438.31 -182.79,-45.32 93.87,-101.99 88.92,147.31"
         style="fill:#586189;fill-opacity:1;fill-rule:nonzero;stroke:none"
         id="path92" /><path
         d="m 3738.28,2512.42 19.94,-94.29 249.42,-75.9 c 40.55,-12.35 71.17,-45.81 79.87,-87.31 l 96,-441.75 c 8.12,-38.77 -21.48,-75.22 -61.1,-75.22 h -810.46 l 91.46,504.59 c 7.7,36.89 33.03,67.67 67.74,82.35 l 207.59,87.77 13.7,99.76 h 45.84"
         style="fill:#823b37;fill-opacity:1;fill-rule:nonzero;stroke:none"
         id="path94" /><path
         d="m 3592.6,2376.24 v 0 l 7.5,3.17 v 0 l -7.5,-3.17"
         style="fill:#c39e9b;fill-opacity:1;fill-rule:nonzero;stroke:none"
         id="path96" /><path
         d="m 3600.1,2379.41 v 0 l 78.64,33.25 -78.64,-33.25"
         style="fill:#40394e;fill-opacity:1;fill-rule:nonzero;stroke:none"
         id="path98" /><path
         d="m 3641.8,2364.67 c -17.4,0 -34.17,4.14 -49.2,11.57 l 7.5,3.17 78.64,33.25 13.7,99.76 h 45.84 l 12.35,-58.43 c -8.64,-43.07 -42.47,-78.73 -88.3,-87.39 -6.9,-1.3 -13.76,-1.93 -20.53,-1.93"
         style="fill:#5e2422;fill-opacity:1;fill-rule:nonzero;stroke:none"
         id="path100" /><path
         d="m 3360.72,2007.02 h 105.73 l 31.4,-269.07 h -185.9 l 48.77,269.07"
         style="fill:#5e2a27;fill-opacity:1;fill-rule:nonzero;stroke:none"
         id="path102" /><path
         d="m 3436.39,1830.98 15.62,176.04 h 14.44 l 18,-154.25 -48.06,-21.79"
         style="fill:#421c1a;fill-opacity:1;fill-rule:nonzero;stroke:none"
         id="path104" /><path
         d="m 3579.31,2370.62 102.17,-79.62 100.3,119.97 234.41,-71.35 c 35.9,-10.93 64.32,-38.53 76.28,-74.1 l 85.09,-253.01 h -216.53 l 41.59,-170.41 -372.74,-16.45 v -87.7 h -132.03 l -31.4,269.07 h -143.32 l 54.33,227.44 c 8.49,35.55 33.38,64.93 67.03,79.16 l 134.82,57"
         style="fill:#96bce7;fill-opacity:1;fill-rule:nonzero;stroke:none"
         id="path106" /><path
         d="m 4002.62,1842.1 -41.59,170.41 h 0.6 l 40.99,-170.41"
         style="fill:#4f2830;fill-opacity:1;fill-rule:nonzero;stroke:none"
         id="path108" /><path
         d="m 3951.58,1839.85 v 214.42 l 10.05,-41.76 h -0.6 l 41.59,-170.41 -51.04,-2.25"
         style="fill:#5d7ac5;fill-opacity:1;fill-rule:nonzero;stroke:none"
         id="path110" /><path
         d="m 3466.45,2007.02 h -143.32 l 8.84,37.01 h 130.16 l 4.32,-37.01"
         style="fill:#f9eff8;fill-opacity:1;fill-rule:nonzero;stroke:none"
         id="path112" /><path
         d="m 3681.48,2291 c 6.23,-38.34 11.37,-76.79 16.34,-115.27 5,-38.46 9.1,-77.03 13.7,-115.53 3.79,-38.61 8.01,-77.15 11.4,-115.8 l 4.87,-57.98 c 1.27,-19.37 2.87,-38.71 3.84,-58.1 -3.22,19.15 -5.79,38.38 -8.71,57.57 l -7.66,57.68 c -4.97,38.47 -9.1,77.04 -13.67,115.55 -3.77,38.59 -8.02,77.15 -11.38,115.79 -3.38,38.64 -6.6,77.31 -8.73,116.09"
         style="fill:#1c1d25;fill-opacity:1;fill-rule:nonzero;stroke:none"
         id="path114" /><path
         d="m 3629.88,1825.65 -143.89,27.82 -165.59,-75.09 h 309.48 v 47.27"
         style="fill:#823b37;fill-opacity:1;fill-rule:nonzero;stroke:none"
         id="path116" /><path
         d="m 3336.08,1853.47 -329.03,-35.35 v -80.17 h 304.9 l 24.13,115.52"
         style="fill:#ffffff;fill-opacity:1;fill-rule:nonzero;stroke:none"
         id="path118" /><path
         d="m 3336.08,1853.47 -0.53,4.97 -333.5,-35.83 v -89.66 h 313.97 l 26.36,126.22 -6.83,-0.73 0.53,-4.97 -4.89,1.02 -23.3,-111.54 h -295.84 v 70.67 l 324.57,34.88 -0.54,4.97 -4.89,1.02 4.89,-1.02"
         style="fill:#100f0d;fill-opacity:1;fill-rule:nonzero;stroke:none"
         id="path120" /><path
         d="M 3416.03,1778.38 H 2862.4 l -93.66,378.7 h 553.63 l 93.66,-378.7"
         style="fill:#e3d4ed;fill-opacity:1;fill-rule:nonzero;stroke:none"
         id="path122" /><path
         d="m 2862.4,1737.95 h 859.223 v 40.4297 H 2862.4 Z"
         style="fill:#9888b6;fill-opacity:1;fill-rule:nonzero;stroke:none"
         id="path124" /><path
         d="m 3485.99,1853.47 c -4.67,21.07 -8.26,42.27 -11.67,63.5 -3.54,21.22 -6.28,42.53 -9.04,63.84 -2.51,21.34 -5.01,42.69 -6.73,64.12 l -2.55,32.16 c -0.48,10.76 -1.31,21.48 -1.51,32.29 2.44,-10.52 4.24,-21.13 6.38,-31.68 l 5.32,-31.83 c 3.52,-21.21 6.28,-42.53 9.02,-63.84 2.5,-21.34 4.99,-42.68 6.7,-64.12 1.84,-21.43 3.5,-42.87 4.08,-64.44"
         style="fill:#1c1d25;fill-opacity:1;fill-rule:nonzero;stroke:none"
         id="path126" /><path
         d="m 3681.48,2291 -39.74,-49.34 -62.43,128.96 8.3,22.37 93.87,-101.99"
         style="fill:#f9eff8;fill-opacity:1;fill-rule:nonzero;stroke:none"
         id="path128" /><path
         d="m 3681.48,2291 58.23,-49.34 42.07,169.31 -11.38,27.34 -88.92,-147.31"
         style="fill:#f9eff8;fill-opacity:1;fill-rule:nonzero;stroke:none"
         id="path130" /><path
         d="m 3951.58,2054.27 h 211.93 l 14.05,-41.76 h -216.52 l -9.46,41.76"
         style="fill:#f9eff8;fill-opacity:1;fill-rule:nonzero;stroke:none"
         id="path132" /><path
         d="m 3826.12,1691.45 24.18,-113.95 c 10.1,-47.59 -26.19,-92.38 -74.82,-92.38 h -509.12 l 57.56,-544.722 h -142.24 l -173.55,620.612 c -18.33,65.52 30.93,130.44 98.96,130.44 h 719.03"
         style="fill:#1d2135;fill-opacity:1;fill-rule:nonzero;stroke:none"
         id="path134" /><path
         d="m 4064.57,1691.45 24.18,-113.95 c 10.1,-47.59 -26.19,-92.38 -74.83,-92.38 H 3504.8 l 57.55,-544.722 h -142.23 l -173.55,620.612 c -18.32,65.52 30.94,130.44 98.97,130.44 h 719.03"
         style="fill:#394177;fill-opacity:1;fill-rule:nonzero;stroke:none"
         id="path136" /><path
         d="M 3181.68,940.398 2935.31,806.102 h 422.77 l -34.16,134.296 h -142.24"
         style="fill:#7782b2;fill-opacity:1;fill-rule:nonzero;stroke:none"
         id="path138" /><path
         d="M 3420.12,940.398 3173.76,806.102 h 422.75 l -34.16,134.296 h -142.23"
         style="fill:#a8b0e0;fill-opacity:1;fill-rule:nonzero;stroke:none"
         id="path140" /><path
         d="m 3776.21,2533.52 c 0,-16.77 -13.5,-30.28 -30.28,-30.28 -2.21,0 -4.43,0.23 -6.41,0.7 -0.35,2.79 -0.81,5.7 -1.28,8.5 l -8.74,46.47 c 4.78,3.15 10.37,4.89 16.43,4.89 16.78,0 30.28,-13.62 30.28,-30.28"
         style="fill:#823b37;fill-opacity:1;fill-rule:nonzero;stroke:none"
         id="path142" /><path
         d="m 3649.71,2382.58 v 0 c -60.33,-11.4 -118.45,28.25 -129.85,88.56 l -15.77,83.45 c -11.39,60.31 28.26,118.45 88.58,129.84 60.31,11.4 118.44,-28.26 129.84,-88.57 l 15.77,-83.44 c 11.4,-60.32 -28.26,-118.45 -88.57,-129.84"
         style="fill:#823b37;fill-opacity:1;fill-rule:nonzero;stroke:none"
         id="path144" /><path
         d="m 3735.79,2525.56 -29.24,48.48 -5.89,42.32 c 0,0 -54.81,-34.26 -135.66,-12.34 0,0 -17.67,-37.2 -60.91,-49.43 l 11.2,-21.07 4.57,-62.38 c 0,0 -37.8,60.26 -43.61,98.63 -5.8,38.36 7.9,95.92 38.05,113.74 0,0 62.19,89.07 164.7,31.51 102.51,-57.55 56.79,-189.46 56.79,-189.46"
         style="fill:#1c1a19;fill-opacity:1;fill-rule:nonzero;stroke:none"
         id="path146" /><path
         d="m 4002.62,1842.1 c -7.83,24.16 -14.6,48.58 -21.21,73.04 -6.72,24.42 -12.67,49.03 -18.63,73.64 -5.71,24.67 -11.41,49.34 -16.36,74.18 l -7.39,37.27 c -2.1,12.51 -4.54,24.95 -6.35,37.52 4.02,-12.05 7.4,-24.25 11.13,-36.38 l 10.1,-36.64 c 6.71,-24.43 12.66,-49.04 18.6,-73.65 5.7,-24.66 11.41,-49.33 16.35,-74.19 5.05,-24.82 9.94,-49.67 13.76,-74.79"
         style="fill:#1c1d25;fill-opacity:1;fill-rule:nonzero;stroke:none"
         id="path148" /><path
         d="M 4471.33,1691.45 H 2461.56 v 46.5 h 2009.77 v -46.5"
         style="fill:#bdafd6;fill-opacity:1;fill-rule:nonzero;stroke:none"
         id="path150" /><path
         d="M 2613.81,1691.45 2446.88,806.102 h 51.36 l 192.12,885.348 h -76.55"
         style="fill:#394177;fill-opacity:1;fill-rule:nonzero;stroke:none"
         id="path152" /><path
         d="m 4319.08,1691.45 166.93,-885.348 h -51.36 l -192.12,885.348 h 76.55"
         style="fill:#394177;fill-opacity:1;fill-rule:nonzero;stroke:none"
         id="path154" /><path
         d="M 4344.7,2961.12 H 3693.67 V 3787 h 651.03 v -825.88"
         style="fill:#e3d4ed;fill-opacity:1;fill-rule:nonzero;stroke:none"
         id="path156" /><path
         d="m 3886.04,3570.83 h -99.7 v 99.71 h 99.7 v -99.71"
         style="fill:#9888b6;fill-opacity:1;fill-rule:nonzero;stroke:none"
         id="path158" /><path
         d="m 3791.62,3658.88 45.12,-42.12 63.6,79.63 -63.6,-109.56 -64.71,41.39 19.59,30.66"
         style="fill:#ffffff;fill-opacity:1;fill-rule:nonzero;stroke:none"
         id="path160" /><path
         d="m 4266.34,3652.9 h -323.62 v 17.64 h 323.62 v -17.64"
         style="fill:#9888b6;fill-opacity:1;fill-rule:nonzero;stroke:none"
         id="path162" /><path
         d="m 4163.98,3603.04 h -221.26 v 17.65 h 221.26 v -17.65"
         style="fill:#9888b6;fill-opacity:1;fill-rule:nonzero;stroke:none"
         id="path164" /><path
         d="m 3886.04,3393.04 h -99.7 v 99.71 h 99.7 v -99.71"
         style="fill:#9888b6;fill-opacity:1;fill-rule:nonzero;stroke:none"
         id="path166" /><path
         d="m 3791.62,3481.09 45.12,-42.13 63.6,79.63 -63.6,-109.56 -64.71,41.39 19.59,30.67"
         style="fill:#ffffff;fill-opacity:1;fill-rule:nonzero;stroke:none"
         id="path168" /><path
         d="m 4266.34,3475.1 h -323.62 v 17.65 h 323.62 v -17.65"
         style="fill:#9888b6;fill-opacity:1;fill-rule:nonzero;stroke:none"
         id="path170" /><path
         d="m 4163.98,3425.25 h -221.26 v 17.65 h 221.26 v -17.65"
         style="fill:#9888b6;fill-opacity:1;fill-rule:nonzero;stroke:none"
         id="path172" /><path
         d="m 3886.04,3215.25 h -99.7 v 99.71 h 99.7 v -99.71"
         style="fill:#9888b6;fill-opacity:1;fill-rule:nonzero;stroke:none"
         id="path174" /><path
         d="m 3791.62,3303.3 45.12,-42.13 63.6,79.63 -63.6,-109.56 -64.71,41.39 19.59,30.67"
         style="fill:#ffffff;fill-opacity:1;fill-rule:nonzero;stroke:none"
         id="path176" /><path
         d="m 4266.34,3297.31 h -323.62 v 17.65 h 323.62 v -17.65"
         style="fill:#9888b6;fill-opacity:1;fill-rule:nonzero;stroke:none"
         id="path178" /><path
         d="m 4163.98,3247.46 h -221.26 v 17.64 h 221.26 v -17.64"
         style="fill:#9888b6;fill-opacity:1;fill-rule:nonzero;stroke:none"
         id="path180" /><path
         d="m 2773.2,3448.99 h -136.7 v 369.76 h 136.7 v -369.76"
         style="fill:#e3d4ed;fill-opacity:1;fill-rule:nonzero;stroke:none"
         id="path182" /><path
         d="m 2973.32,3448.99 h -136.69 v 458 h 136.69 v -458"
         style="fill:#e3d4ed;fill-opacity:1;fill-rule:nonzero;stroke:none"
         id="path184" /><path
         d="m 3173.44,3448.99 h -136.69 v 264.29 h 136.69 v -264.29"
         style="fill:#e3d4ed;fill-opacity:1;fill-rule:nonzero;stroke:none"
         id="path186" /><path
         d="m 3373.56,3448.99 h -136.69 v 528.58 h 136.69 v -528.58"
         style="fill:#e3d4ed;fill-opacity:1;fill-rule:nonzero;stroke:none"
         id="path188" /><path
         d="m 2573.26,4048.16 v -604.17 h 862.58 v 10 h -852.58 v 594.17 h -10"
         style="fill:#c7b9df;fill-opacity:1;fill-rule:nonzero;stroke:none"
         id="path190" /><path
         d="m 2227.65,3697.24 h -541.18 v 280.33 h 541.18 v -280.33"
         style="fill:#e3d4ed;fill-opacity:1;fill-rule:nonzero;stroke:none"
         id="path192" /><path
         d="m 1686.47,3697.24 270.59,190.33 270.59,-190.33 z"
         style="fill:#c7b9df;fill-opacity:1;fill-rule:nonzero;stroke:none"
         id="path194" /><path
         d="m 1686.47,3977.57 270.59,-180 270.59,180 z"
         style="fill:#c7b9df;fill-opacity:1;fill-rule:nonzero;stroke:none"
         id="path196" /><path
         d="m 1686.47,3977.57 270.59,183.54 270.59,-183.54 z"
         style="fill:#e3d4ed;fill-opacity:1;fill-rule:nonzero;stroke:none"
         id="path198" /><path
         d="m 1957.06,4249.34 h -200.65 v -318.29 l 200.65,-133.48 200.65,133.48 v 318.29 h -200.65"
         style="fill:#9888b6;fill-opacity:1;fill-rule:nonzero;stroke:none"
         id="path200" /><path
         d="m 1845.42,4170.22 h 263.27 v 10 h -263.27 z"
         style="fill:#ffffff;fill-opacity:1;fill-rule:nonzero;stroke:none"
         id="path202" /><path
         d="m 1805.42,4112.57 h 303.27 v 10 h -303.27 z"
         style="fill:#ffffff;fill-opacity:1;fill-rule:nonzero;stroke:none"
         id="path204" /><path
         d="m 1805.42,4054.93 h 303.27 v 10 h -303.27 z"
         style="fill:#ffffff;fill-opacity:1;fill-rule:nonzero;stroke:none"
         id="path206" /><path
         d="m 1805.42,3997.28 h 303.27 v 10 h -303.27 z"
         style="fill:#ffffff;fill-opacity:1;fill-rule:nonzero;stroke:none"
         id="path208" /><path
         d="m 1805.42,3939.63 h 203.27 v 10 h -203.27 z"
         style="fill:#ffffff;fill-opacity:1;fill-rule:nonzero;stroke:none"
         id="path210" /><path
         d="m 769.605,3886.43 c 0,93.71 123.168,169.68 275.115,169.68 151.94,0 275.11,-75.97 275.11,-169.68 0,-93.72 -123.17,-169.69 -275.11,-169.69 -37.24,0 -72.724,4.59 -105.111,12.85 l -65.199,-64.81 19.867,79.6 c -75.054,30.3 -124.672,82.59 -124.672,142.05"
         style="fill:#c7b9df;fill-opacity:1;fill-rule:nonzero;stroke:none"
         id="path212" /><path
         d="m 1469.55,3934.68 c 0,93.71 -123.17,169.69 -275.11,169.69 -151.94,0 -275.116,-75.98 -275.116,-169.69 0,-93.71 123.176,-169.68 275.116,-169.68 37.23,0 72.71,4.58 105.11,12.85 l 65.19,-64.82 -19.86,79.61 c 75.05,30.3 124.67,82.58 124.67,142.04"
         style="fill:#e3d4ed;fill-opacity:1;fill-rule:nonzero;stroke:none"
         id="path214" /><path
         d="m 1108.97,3891.32 c 0,-11.02 -8.94,-19.96 -19.96,-19.96 -11.03,0 -19.97,8.94 -19.97,19.96 0,11.03 8.94,19.96 19.97,19.96 11.02,0 19.96,-8.93 19.96,-19.96"
         style="fill:#ffffff;fill-opacity:1;fill-rule:nonzero;stroke:none"
         id="path216" /><path
         d="m 1214.4,3891.32 c 0,-11.02 -8.94,-19.96 -19.97,-19.96 -11.02,0 -19.96,8.94 -19.96,19.96 0,11.03 8.94,19.96 19.96,19.96 11.03,0 19.97,-8.93 19.97,-19.96"
         style="fill:#ffffff;fill-opacity:1;fill-rule:nonzero;stroke:none"
         id="path218" /><path
         d="m 1319.83,3891.32 c 0,-11.02 -8.94,-19.96 -19.97,-19.96 -11.02,0 -19.96,8.94 -19.96,19.96 0,11.03 8.94,19.96 19.96,19.96 11.03,0 19.97,-8.93 19.97,-19.96"
         style="fill:#ffffff;fill-opacity:1;fill-rule:nonzero;stroke:none"
         id="path220" /><path
         d="m 1736.44,3158.81 -0.05,-0.79 c -0.55,-8.88 -6.36,-91.12 -32.73,-192.99 -26.27,-101.92 -73.4,-223.16 -154.23,-310.35 -7.5,-8.1 -7,-20.76 1.1,-28.26 8.11,-7.5 20.77,-7.01 28.27,1.1 45.38,49.08 80.15,106.71 107.01,165.39 40.25,88.05 62.74,178.61 75.34,247.37 12.57,68.75 15.19,115.69 15.23,116.32 0.61,11.02 -7.84,20.46 -18.87,21.07 -11.03,0.61 -20.46,-7.84 -21.07,-18.86"
         style="fill:#ffffff;fill-opacity:1;fill-rule:nonzero;stroke:none"
         id="path222" /><path
         d="m 1458.31,1811.77 0.08,-0.05 c 2.37,-1.61 54.02,-37.35 112.61,-99.61 58.66,-62.26 124,-150.97 155.09,-257.79 3.1,-10.6 14.2,-16.69 24.8,-13.6 10.61,3.09 16.7,14.2 13.6,24.8 -34.29,117.37 -105.23,211.75 -167.28,277.09 -62.11,65.33 -115.62,101.69 -116.43,102.26 -9.14,6.2 -21.57,3.82 -27.78,-5.31 -6.21,-9.14 -3.83,-21.58 5.31,-27.79"
         style="fill:#ffffff;fill-opacity:1;fill-rule:nonzero;stroke:none"
         id="path224" /><path
         d="m 4078.1,2681.63 h -5 c -0.01,-14.9 -6.03,-28.35 -15.8,-38.12 -9.77,-9.77 -23.22,-15.79 -38.12,-15.8 -14.9,0.01 -28.34,6.03 -38.12,15.8 -9.76,9.77 -15.78,23.22 -15.79,38.12 0.01,14.9 6.03,28.35 15.79,38.12 9.77,9.77 23.22,15.79 38.12,15.79 14.9,0 28.35,-6.02 38.12,-15.79 9.77,-9.77 15.79,-23.22 15.8,-38.12 h 5 5 c -0.01,35.3 -28.62,63.91 -63.92,63.91 -35.29,0 -63.9,-28.61 -63.91,-63.91 0.01,-35.3 28.62,-63.91 63.91,-63.91 35.3,0 63.91,28.61 63.92,63.91 h -5"
         style="fill:#e3d4ed;fill-opacity:1;fill-rule:nonzero;stroke:none"
         id="path226" /><path
         d="m 4222.89,1227.35 h -5 c 0,-14.9 -6.03,-28.35 -15.79,-38.12 -9.77,-9.76 -23.22,-15.78 -38.12,-15.78 -14.9,0 -28.35,6.02 -38.12,15.78 -9.77,9.77 -15.79,23.22 -15.79,38.12 0,14.91 6.02,28.36 15.79,38.13 9.77,9.76 23.22,15.79 38.12,15.79 14.9,0 28.35,-6.03 38.12,-15.79 9.76,-9.77 15.79,-23.22 15.79,-38.13 h 5 5 c 0,35.31 -28.61,63.92 -63.91,63.92 -35.3,0 -63.91,-28.61 -63.91,-63.92 0,-35.3 28.61,-63.9 63.91,-63.9 35.3,0 63.91,28.6 63.91,63.9 h -5"
         style="fill:#e3d4ed;fill-opacity:1;fill-rule:nonzero;stroke:none"
         id="path228" /><path
         d="m 964.555,2086.42 h -5 c 0,-14.91 -6.028,-28.36 -15.789,-38.13 -9.774,-9.76 -23.219,-15.79 -38.121,-15.79 -14.907,0 -28.352,6.03 -38.125,15.79 -9.766,9.77 -15.79,23.22 -15.79,38.13 0,14.9 6.024,28.35 15.79,38.12 9.773,9.77 23.218,15.79 38.125,15.79 14.902,0 28.347,-6.02 38.121,-15.79 9.761,-9.77 15.789,-23.22 15.789,-38.12 h 5 5 c -0.004,35.3 -28.614,63.91 -63.91,63.91 -35.301,0 -63.915,-28.61 -63.915,-63.91 0,-35.31 28.614,-63.92 63.915,-63.92 35.296,0 63.906,28.61 63.91,63.92 h -5"
         style="fill:#e3d4ed;fill-opacity:1;fill-rule:nonzero;stroke:none"
         id="path230" /><path
         d="m 2353.59,3448.99 h -5 c 0,-14.9 -6.02,-28.35 -15.79,-38.12 -9.77,-9.76 -23.22,-15.78 -38.12,-15.79 -14.9,0.01 -28.35,6.03 -38.12,15.79 -9.76,9.77 -15.79,23.22 -15.79,38.12 0,14.91 6.03,28.35 15.79,38.12 9.77,9.77 23.22,15.79 38.12,15.8 14.9,-0.01 28.35,-6.03 38.12,-15.8 9.77,-9.77 15.79,-23.21 15.79,-38.12 h 5 5 c 0,35.3 -28.61,63.91 -63.91,63.92 -35.3,-0.01 -63.91,-28.62 -63.91,-63.92 0,-35.3 28.62,-63.9 63.91,-63.91 35.3,0.01 63.91,28.61 63.91,63.91 h -5"
         style="fill:#e3d4ed;fill-opacity:1;fill-rule:nonzero;stroke:none"
         id="path232" /><path
         d="m 3462.62,3199.36 h -5 c -0.01,-10.14 -4.1,-19.27 -10.74,-25.92 -6.65,-6.64 -15.78,-10.74 -25.92,-10.74 -20.25,0.04 -36.62,16.41 -36.65,36.66 0.03,20.24 16.4,36.62 36.65,36.66 20.24,-0.04 36.62,-16.42 36.66,-36.66 h 5 5 c -0.01,25.77 -20.89,46.65 -46.66,46.66 -25.78,-0.01 -46.65,-20.89 -46.65,-46.66 0,-25.77 20.87,-46.66 46.65,-46.66 25.77,0 46.65,20.89 46.66,46.66 h -5"
         style="fill:#e3d4ed;fill-opacity:1;fill-rule:nonzero;stroke:none"
         id="path234" /><path
         d="m 4346.64,2456.63 -40.48,-40.48 -40.48,40.48 -23.15,-23.16 40.48,-40.48 -40.48,-40.48 23.15,-23.16 40.48,40.47 40.48,-40.47 23.16,23.16 -40.47,40.48 40.47,40.48 -23.16,23.16"
         style="fill:#e3d4ed;fill-opacity:1;fill-rule:nonzero;stroke:none"
         id="path236" /><path
         d="m 3835.71,1066.93 -40.48,-40.47 -40.47,40.47 -23.17,-23.16 40.48,-40.48 -40.48,-40.481 23.17,-23.149 40.47,40.469 40.48,-40.481 23.17,23.161 -40.48,40.481 40.48,40.48 -23.17,23.16"
         style="fill:#e3d4ed;fill-opacity:1;fill-rule:nonzero;stroke:none"
         id="path238" /><path
         d="m 3670.36,4111.8 -40.48,-40.48 -40.48,40.48 -23.16,-23.16 40.48,-40.48 -40.48,-40.47 23.16,-23.17 40.48,40.48 40.48,-40.48 23.16,23.17 -40.48,40.47 40.48,40.48 -23.16,23.16"
         style="fill:#e3d4ed;fill-opacity:1;fill-rule:nonzero;stroke:none"
         id="path240" /><path
         d="m 661.059,2418.27 -40.477,-40.48 -40.48,40.48 -23.161,-23.16 40.477,-40.48 -40.477,-40.48 23.161,-23.15 40.48,40.47 40.477,-40.47 23.16,23.15 -40.481,40.48 40.481,40.48 -23.16,23.16"
         style="fill:#e3d4ed;fill-opacity:1;fill-rule:nonzero;stroke:none"
         id="path242" /><path
         d="M 3416.03,1778.38 H 2862.4 l -87.13,352.3 -6.53,26.4 c 0,0 143.91,-319.74 647.29,-378.7"
         style="fill:#d4c0e5;fill-opacity:1;fill-rule:nonzero;stroke:none"
         id="path244" /></g></g></svg>
