<svg width="667" height="583" viewBox="0 0 667 583" fill="none" xmlns="http://www.w3.org/2000/svg">
<path d="M0 583H667V3.15905e-06H0V583Z" fill="white"/>
<path d="M351.964 295.864H314.703V251.252H351.964V295.864Z" fill="#726B87"/>
<path d="M360.709 251.252H305.957V237.733H360.709V251.252" fill="#BDAFD6"/>
<path d="M411.637 325.375L380.68 304.637L405.509 267.572L436.467 288.311L411.637 325.375Z" fill="#726B87"/>
<path d="M443.732 293.177L398.244 262.705L405.767 251.473L451.255 281.945L443.732 293.177Z" fill="#BDAFD6"/>
<path d="M255.029 325.375L285.987 304.637L261.159 267.572L230.2 288.311L255.029 325.375Z" fill="#726B87"/>
<path d="M222.936 293.177L268.423 262.705L260.9 251.473L215.412 281.945L222.936 293.177Z" fill="#BDAFD6"/>
<path d="M480.853 411.667C480.853 493.139 414.805 559.186 333.333 559.186C251.86 559.186 185.813 493.139 185.813 411.667C185.813 330.195 251.86 264.147 333.333 264.147C414.805 264.147 480.853 330.195 480.853 411.667Z" fill="#BDAFD6"/>
<path d="M460.885 411.667C460.885 482.112 403.779 539.219 333.333 539.219C262.889 539.219 205.781 482.112 205.781 411.667C205.781 341.221 262.889 284.115 333.333 284.115C403.779 284.115 460.885 341.221 460.885 411.667Z" fill="white"/>
<path d="M339.417 299.667C339.417 303.027 336.693 305.751 333.333 305.751C329.973 305.751 327.251 303.027 327.251 299.667C327.251 296.307 329.973 293.583 333.333 293.583C336.693 293.583 339.417 296.307 339.417 299.667Z" fill="#9888B6"/>
<path d="M339.417 523.667C339.417 527.028 336.693 529.751 333.333 529.751C329.973 529.751 327.251 527.028 327.251 523.667C327.251 520.307 329.973 517.584 333.333 517.584C336.693 517.584 339.417 520.307 339.417 523.667Z" fill="#9888B6"/>
<path d="M445.333 417.751C441.973 417.751 439.251 415.027 439.251 411.667C439.251 408.307 441.973 405.584 445.333 405.584C448.695 405.584 451.417 408.307 451.417 411.667C451.417 415.027 448.695 417.751 445.333 417.751Z" fill="#9888B6"/>
<path d="M221.333 417.751C217.973 417.751 215.249 415.027 215.249 411.667C215.249 408.307 217.973 405.584 221.333 405.584C224.693 405.584 227.417 408.307 227.417 411.667C227.417 415.027 224.693 417.751 221.333 417.751Z" fill="#9888B6"/>
<path d="M415.888 327.225L403.223 339.892C402.701 340.412 402.701 341.257 403.223 341.777C403.743 342.299 404.588 342.299 405.108 341.777L417.773 329.112C418.295 328.591 418.295 327.747 417.773 327.225C417.253 326.705 416.408 326.705 415.888 327.225Z" fill="#394177"/>
<path d="M261.559 481.556L248.892 494.221C248.372 494.741 248.372 495.587 248.892 496.107C249.413 496.628 250.257 496.628 250.779 496.107L263.444 483.441C263.965 482.921 263.965 482.076 263.444 481.556C262.924 481.035 262.079 481.035 261.559 481.556Z" fill="#394177"/>
<path d="M248.892 329.112L261.559 341.777C262.079 342.299 262.924 342.299 263.444 341.777C263.965 341.257 263.965 340.412 263.444 339.892L250.779 327.225C250.257 326.705 249.413 326.705 248.892 327.225C248.372 327.747 248.372 328.591 248.892 329.112Z" fill="#394177"/>
<path d="M403.223 483.441L415.888 496.107C416.408 496.628 417.253 496.628 417.773 496.107C418.295 495.587 418.295 494.741 417.773 494.221L405.108 481.556C404.588 481.035 403.743 481.035 403.223 481.556C402.701 482.076 402.701 482.921 403.223 483.441Z" fill="#394177"/>
<path d="M326.612 404.707L393.221 354.717L339.947 418.729C336.219 423.208 329.416 423.433 325.4 419.209C321.384 414.987 321.951 408.204 326.612 404.707" fill="#394177"/>
<path d="M260.36 211.312H75.8885C73.6115 211.312 71.7651 209.465 71.7651 207.188V206.413C71.7651 204.136 73.6115 202.289 75.8885 202.289H260.36C262.639 202.289 264.484 204.136 264.484 206.413V207.188C264.484 209.465 262.639 211.312 260.36 211.312Z" fill="#726B87"/>
<path d="M260.36 559.186H75.8885C73.6115 559.186 71.7651 557.34 71.7651 555.063V554.288C71.7651 552.01 73.6115 550.164 75.8885 550.164H260.36C262.639 550.164 264.484 552.01 264.484 554.288V555.063C264.484 557.34 262.639 559.186 260.36 559.186Z" fill="#726B87"/>
<path d="M230.637 446.304C223.032 434.003 213.119 425.625 202.161 416.539C194.063 409.823 174.089 393.455 174.641 380.739C174.089 368.021 194.063 351.652 202.161 344.937C213.119 335.851 223.032 327.472 230.637 315.172C237.964 303.323 242.844 290.113 246.257 276.652C247.264 272.677 256.511 211.312 254.023 211.312H168.124H82.2265C79.738 211.312 88.9844 272.677 89.9917 276.652C93.4041 290.113 98.2844 303.323 105.611 315.172C113.216 327.472 123.13 335.851 134.087 344.937C142.187 351.652 162.16 368.021 161.608 380.739C162.16 393.455 142.187 409.823 134.087 416.539C123.13 425.625 113.216 434.003 105.611 446.304C98.2844 458.153 93.4041 471.361 89.9917 484.824C88.9844 488.799 79.738 550.164 82.2265 550.164H168.124H254.023C256.511 550.164 247.264 488.799 246.257 484.824C242.844 471.361 237.964 458.153 230.637 446.304" fill="#E3D4ED"/>
<path d="M200.075 339.287C210.359 330.584 219.665 322.56 226.804 310.78C233.681 299.432 238.261 286.78 241.465 273.888C241.68 273.021 242.297 269.299 243.093 264.075C236.225 263.799 229.252 264.441 222.449 265.455C209.664 267.36 197.003 270.483 184.081 270.887C165.668 271.46 147.584 266.497 129.833 261.577C116.965 258.011 104.097 254.444 91.2292 250.877C92.8495 262.431 94.4125 272.395 94.7839 273.888C97.9869 286.78 102.568 299.432 109.445 310.78C116.584 322.56 125.889 330.584 136.175 339.287C143.777 345.717 165.929 361.395 165.412 373.573V469.409C111.636 471.967 97.712 550.164 97.712 550.164H168.124H238.536C238.536 550.164 224.612 471.967 170.837 469.409V373.573C170.32 361.395 192.472 345.717 200.075 339.287Z" fill="#A8B0E0"/>
<path d="M97.712 550.164H82.2265C81.9339 550.164 81.8036 549.315 81.8031 547.808C81.8005 536.516 89.1031 488.331 89.9917 484.824C93.4041 471.361 98.2844 458.153 105.611 446.304C113.216 434.003 123.13 425.625 134.087 416.539C142.076 409.915 161.616 393.9 161.619 381.261C161.619 381.087 161.616 380.912 161.608 380.739C161.616 380.564 161.619 380.389 161.619 380.215C161.616 367.575 142.076 351.56 134.087 344.937C123.13 335.851 113.216 327.472 105.611 315.172C98.2844 303.323 93.4041 290.113 89.9917 276.652C89.1031 273.145 81.8005 224.96 81.8031 213.668C81.8036 212.163 81.9339 211.312 82.2265 211.312C82.2281 211.312 91.0521 211.312 103.037 211.312C101.451 211.312 104.634 236.252 107.41 255.363C102.016 253.867 96.6235 252.372 91.2292 250.877C92.8495 262.431 94.4125 272.395 94.7839 273.888C97.9869 286.78 102.568 299.432 109.445 310.78C116.584 322.56 125.889 330.584 136.175 339.287C143.777 345.717 165.929 361.395 165.412 373.573V407.417C161.396 411.171 157.523 414.363 154.897 416.539C143.941 425.625 134.027 434.003 126.421 446.304C119.095 458.153 114.215 471.361 110.802 484.824C110.224 487.107 106.928 508.317 104.698 525.963C99.6073 539.522 97.712 550.164 97.712 550.164ZM170.837 402.033V373.573C170.701 370.381 172.123 366.949 174.432 363.507C175.281 364.537 176.092 365.58 176.848 366.628C173.408 371.399 171.092 376.291 171.284 380.739C171.092 385.184 173.408 390.077 176.848 394.847C175.079 397.301 173.012 399.723 170.837 402.033Z" fill="#C5AEDD"/>
<path d="M103.037 550.164H97.712C97.712 550.164 99.6073 539.522 104.698 525.963C103.045 539.043 101.978 550.164 103.037 550.164M165.412 407.417V373.573C165.929 361.395 143.777 345.717 136.175 339.287C125.889 330.584 116.584 322.56 109.445 310.78C102.568 299.432 97.9869 286.78 94.7839 273.888C94.4125 272.395 92.8495 262.431 91.2292 250.877C96.6235 252.372 102.016 253.867 107.41 255.363C108.989 266.228 110.437 275.211 110.802 276.652C114.215 290.113 119.095 303.323 126.421 315.172C134.027 327.472 143.941 335.851 154.897 344.937C159.543 348.789 168.088 355.815 174.432 363.507C172.123 366.949 170.701 370.381 170.837 373.573V402.033C169.067 403.915 167.225 405.723 165.412 407.417" fill="#918FD0"/>
<path d="M178.527 392.363C176.156 388.584 174.631 384.792 174.629 381.261C174.629 381.131 174.632 380.999 174.636 380.868C174.519 384.507 176.072 388.44 178.529 392.357C178.529 392.359 178.528 392.36 178.527 392.363Z" fill="#E3D4ED"/>
<path d="M174.636 380.867C174.636 380.853 174.637 380.84 174.637 380.827C174.637 380.84 174.636 380.853 174.636 380.867ZM174.637 380.823C174.637 380.811 174.639 380.797 174.639 380.785C174.639 380.797 174.637 380.811 174.637 380.823ZM174.639 380.78C174.64 380.767 174.64 380.752 174.641 380.739C174.64 380.752 174.64 380.767 174.639 380.78ZM174.641 380.739C174.64 380.724 174.64 380.709 174.639 380.696C174.64 380.711 174.64 380.724 174.641 380.739Z" fill="#E3D4ED"/>
<path d="M174.639 380.692C174.639 380.68 174.637 380.665 174.637 380.653C174.637 380.667 174.639 380.679 174.639 380.692Z" fill="#E3D4ED"/>
<path d="M174.637 380.651C174.632 380.505 174.629 380.36 174.629 380.215C174.631 376.685 176.156 372.892 178.527 369.113C178.528 369.115 178.529 369.116 178.529 369.119C176.063 373.051 174.507 376.999 174.637 380.651" fill="#E3D4ED"/>
<path d="M254.023 550.164H250.665C253.155 550.164 243.908 488.799 242.901 484.824C239.488 471.361 234.608 458.153 227.281 446.304C219.676 434.003 209.763 425.625 198.805 416.539C193.537 412.171 183.248 403.721 176.848 394.847C177.444 394.021 178.005 393.192 178.527 392.363C184.647 402.112 196.404 411.764 202.161 416.539C213.119 425.625 223.032 434.003 230.637 446.304C237.964 458.153 242.844 471.361 246.257 484.824C247.145 488.331 254.449 536.516 254.445 547.808C254.445 549.315 254.315 550.164 254.023 550.164" fill="#F0E7F5"/>
<path d="M174.639 380.696C174.639 380.695 174.639 380.693 174.639 380.692C174.639 380.693 174.639 380.695 174.639 380.696ZM174.637 380.653C174.637 380.652 174.637 380.651 174.637 380.651C174.637 380.652 174.637 380.652 174.637 380.653Z" fill="#F0E7F5"/>
<path d="M178.527 369.113C178.005 368.284 177.444 367.453 176.848 366.628C183.248 357.755 193.539 349.304 198.805 344.937C209.763 335.851 219.676 327.472 227.281 315.172C234.608 303.323 239.488 290.113 242.901 276.652C243.908 272.677 253.155 211.312 250.665 211.312C252.8 211.312 254.023 211.312 254.023 211.312C254.315 211.312 254.445 212.163 254.445 213.668C254.449 224.96 247.145 273.145 246.257 276.652C244.423 283.889 242.164 291.053 239.328 297.973C236.889 303.924 234.025 309.693 230.637 315.172C223.032 327.472 213.119 335.851 202.161 344.937C201.925 345.133 201.68 345.336 201.425 345.548C195.451 350.501 184.396 359.763 178.527 369.113" fill="#F0E7F5"/>
<path d="M176.848 394.847C173.408 390.077 171.092 385.184 171.284 380.739C171.092 376.291 173.408 371.399 176.848 366.628C177.444 367.453 178.005 368.284 178.527 369.113C176.156 372.892 174.631 376.685 174.629 380.215C174.629 380.36 174.632 380.505 174.637 380.651C174.637 380.651 174.637 380.652 174.637 380.653C174.637 380.665 174.639 380.68 174.639 380.692C174.639 380.693 174.639 380.695 174.639 380.696C174.64 380.709 174.64 380.724 174.641 380.739C174.64 380.752 174.64 380.767 174.639 380.78C174.639 380.781 174.639 380.783 174.639 380.785C174.639 380.797 174.637 380.811 174.637 380.823C174.637 380.824 174.637 380.825 174.637 380.827C174.637 380.84 174.636 380.853 174.636 380.867C174.636 380.868 174.636 380.868 174.636 380.868C174.632 380.999 174.629 381.131 174.629 381.261C174.631 384.792 176.156 388.584 178.527 392.363C178.005 393.192 177.444 394.021 176.848 394.847" fill="#E1D2EC"/>
<path d="M621.333 566.579H45.3333V559.186H621.333V566.579Z" fill="#9888B6"/>
<path d="M536.003 479.077H476.06C473.588 479.077 471.584 477.073 471.584 474.601V473.127C471.584 470.653 473.588 468.651 476.06 468.651H536.003C538.473 468.651 540.477 470.653 540.477 473.127V474.601C540.477 477.073 538.473 479.077 536.003 479.077Z" fill="#1D2135"/>
<path d="M482.045 479.077L469.816 559.186H473.352L489.893 479.077H482.045Z" fill="#394177"/>
<path d="M530.017 479.077L542.247 559.186H538.711L522.169 479.077H530.017Z" fill="#394177"/>
<path d="M474.239 337.181C474.239 339.409 472.432 341.215 470.203 341.215C467.975 341.215 466.169 339.409 466.169 337.181C466.169 334.952 467.975 333.145 470.203 333.145C472.432 333.145 474.239 334.952 474.239 337.181Z" fill="#823B37"/>
<path d="M502.72 341.559L478.348 347.601L490.864 361.2L502.72 341.559Z" fill="#586189"/>
<path d="M498.437 331.677L501.096 344.249L534.352 354.369C539.759 356.016 543.841 360.477 545.001 366.011L557.801 424.911C558.884 430.08 554.937 434.94 549.655 434.94H441.593L453.788 367.661C454.815 362.743 458.192 358.639 462.82 356.681L490.499 344.979L492.325 331.677H498.437" fill="#823B37"/>
<path d="M479.013 349.835L480.013 349.412L479.013 349.835Z" fill="#C39E9B"/>
<path d="M480.013 349.412L490.499 344.979L480.013 349.412Z" fill="#40394E"/>
<path d="M485.573 351.377C483.253 351.377 481.017 350.825 479.013 349.835L480.013 349.412L490.499 344.979L492.325 331.677H498.437L500.084 339.468C498.932 345.211 494.421 349.965 488.311 351.12C487.391 351.293 486.476 351.377 485.573 351.377" fill="#5E2422"/>
<path d="M448.096 399.064H462.193L466.38 434.94H441.593L448.096 399.064Z" fill="#5E2A27"/>
<path d="M458.185 422.536L460.268 399.064H462.193L464.593 419.631L458.185 422.536Z" fill="#421C1A"/>
<path d="M477.241 350.584L490.864 361.2L504.237 345.204L535.492 354.717C540.279 356.175 544.068 359.855 545.663 364.597L557.008 398.332H528.137L533.683 421.053L483.984 423.247V434.94H466.38L462.193 399.064H443.084L450.328 368.739C451.46 363.999 454.779 360.081 459.265 358.184L477.241 350.584" fill="#96BCE7"/>
<path d="M533.683 421.053L528.137 398.332H528.217L533.683 421.053" fill="#4F2830"/>
<path d="M526.877 421.353V392.764L528.217 398.332H528.137L533.683 421.053L526.877 421.353" fill="#5D7AC5"/>
<path d="M462.193 399.064H443.084L444.263 394.129H461.617L462.193 399.064Z" fill="#F9EFF8"/>
<path d="M490.864 361.2C491.695 366.312 492.38 371.439 493.043 376.569C493.709 381.697 494.256 386.84 494.869 391.973C495.375 397.121 495.937 402.26 496.389 407.413L497.039 415.144C497.208 417.727 497.421 420.305 497.551 422.891C497.121 420.337 496.779 417.773 496.389 415.215L495.368 407.524C494.705 402.395 494.155 397.252 493.545 392.117C493.043 386.972 492.476 381.831 492.028 376.679C491.577 371.527 491.148 366.371 490.864 361.2Z" fill="#1C1D25"/>
<path d="M483.984 423.247L464.799 419.537L442.72 429.549H483.984V423.247Z" fill="#823B37"/>
<path d="M444.811 419.537L400.94 424.251V434.94H441.593L444.811 419.537" fill="white"/>
<path d="M444.811 419.537L444.74 418.875L400.273 423.652V435.607H442.136L445.651 418.777L444.74 418.875L444.811 419.537L444.159 419.401L441.052 434.273H401.607V424.851L444.883 420.2L444.811 419.537L444.159 419.401L444.811 419.537" fill="#100F0D"/>
<path d="M455.471 429.549H381.653L369.165 379.056H442.983L455.471 429.549" fill="#E3D4ED"/>
<path d="M381.653 434.94H496.216V429.549H381.653V434.94Z" fill="#9888B6"/>
<path d="M464.799 419.537C464.176 416.728 463.697 413.901 463.243 411.071C462.771 408.241 462.405 405.4 462.037 402.559C461.703 399.713 461.369 396.867 461.14 394.009L460.8 389.721C460.736 388.287 460.625 386.857 460.599 385.416C460.924 386.819 461.164 388.233 461.449 389.64L462.159 393.884C462.628 396.712 462.996 399.555 463.361 402.396C463.695 405.241 464.027 408.087 464.255 410.945C464.5 413.803 464.721 416.661 464.799 419.537" fill="#1C1D25"/>
<path d="M490.864 361.2L485.565 367.779L477.241 350.584L478.348 347.601L490.864 361.2" fill="#F9EFF8"/>
<path d="M490.864 361.2L498.628 367.779L504.237 345.204L502.72 341.559L490.864 361.2Z" fill="#F9EFF8"/>
<path d="M526.877 392.764H555.135L557.008 398.332H528.139L526.877 392.764" fill="#F9EFF8"/>
<path d="M510.149 441.14L513.373 456.333C514.72 462.679 509.881 468.651 503.397 468.651H435.515L443.189 541.28H424.224L401.084 458.532C398.64 449.796 405.208 441.14 414.279 441.14H510.149" fill="#1D2135"/>
<path d="M541.943 441.14L545.167 456.333C546.513 462.679 541.675 468.651 535.189 468.651H467.307L474.98 541.28H456.016L432.876 458.532C430.433 449.796 437.001 441.14 446.072 441.14H541.943" fill="#394177"/>
<path d="M424.224 541.28L391.375 559.186H447.744L443.189 541.28H424.224" fill="#7782B2"/>
<path d="M456.016 541.28L423.168 559.186H479.535L474.98 541.28H456.016" fill="#A8B0E0"/>
<path d="M503.495 328.864C503.495 331.1 501.695 332.901 499.457 332.901C499.163 332.901 498.867 332.871 498.603 332.808C498.556 332.436 498.495 332.048 498.432 331.675L497.267 325.479C497.904 325.059 498.649 324.827 499.457 324.827C501.695 324.827 503.495 326.643 503.495 328.864" fill="#823B37"/>
<path d="M486.628 348.989C478.584 350.509 470.835 345.223 469.315 337.181L467.212 326.055C465.693 318.013 470.98 310.261 479.023 308.743C487.064 307.223 494.815 312.511 496.335 320.552L498.437 331.677C499.957 339.72 494.669 347.471 486.628 348.989" fill="#823B37"/>
<path d="M498.105 329.925L494.207 323.461L493.421 317.819C493.421 317.819 486.113 322.387 475.333 319.464C475.333 319.464 472.977 324.424 467.212 326.055L468.705 328.864L469.315 337.181C469.315 337.181 464.275 329.147 463.5 324.031C462.727 318.916 464.553 311.241 468.573 308.865C468.573 308.865 476.865 296.989 490.533 304.664C504.201 312.337 498.105 329.925 498.105 329.925" fill="#1C1A19"/>
<path d="M533.683 421.053C532.639 417.832 531.736 414.576 530.855 411.315C529.959 408.059 529.165 404.777 528.371 401.496C527.609 398.207 526.849 394.917 526.189 391.605L525.204 386.636C524.924 384.968 524.599 383.309 524.357 381.633C524.893 383.24 525.344 384.867 525.841 386.484L527.188 391.369C528.083 394.627 528.876 397.908 529.668 401.189C530.428 404.477 531.189 407.767 531.848 411.081C532.521 414.391 533.173 417.704 533.683 421.053Z" fill="#1C1D25"/>
<path d="M596.177 441.14H328.208V434.94H596.177V441.14Z" fill="#BDAFD6"/>
<path d="M348.508 441.14L326.251 559.186H333.099L358.715 441.14H348.508" fill="#394177"/>
<path d="M575.877 441.14L598.135 559.186H591.287L565.671 441.14H575.877" fill="#394177"/>
<path d="M579.293 271.851H492.489V161.733H579.293V271.851Z" fill="#E3D4ED"/>
<path d="M518.139 190.556H504.845V177.261H518.139V190.556Z" fill="#9888B6"/>
<path d="M505.549 178.816L511.565 184.432L520.045 173.815L511.565 188.423L502.937 182.904L505.549 178.816Z" fill="white"/>
<path d="M568.845 179.613H525.696V177.261H568.845V179.613Z" fill="#9888B6"/>
<path d="M555.197 186.261H525.696V183.908H555.197V186.261Z" fill="#9888B6"/>
<path d="M518.139 214.261H504.845V200.967H518.139V214.261Z" fill="#9888B6"/>
<path d="M505.549 202.521L511.565 208.139L520.045 197.521L511.565 212.129L502.937 206.611L505.549 202.521Z" fill="white"/>
<path d="M568.845 203.32H525.696V200.967H568.845V203.32Z" fill="#9888B6"/>
<path d="M555.197 209.967H525.696V207.613H555.197V209.967Z" fill="#9888B6"/>
<path d="M518.139 237.967H504.845V224.672H518.139V237.967Z" fill="#9888B6"/>
<path d="M505.549 226.227L511.565 231.844L520.045 221.227L511.565 235.835L502.937 230.316L505.549 226.227Z" fill="white"/>
<path d="M568.845 227.025H525.696V224.672H568.845V227.025Z" fill="#9888B6"/>
<path d="M555.197 233.672H525.696V231.32H555.197V233.672Z" fill="#9888B6"/>
<path d="M369.76 206.801H351.533V157.5H369.76V206.801Z" fill="#E3D4ED"/>
<path d="M396.443 206.801H378.217V145.735H396.443V206.801Z" fill="#E3D4ED"/>
<path d="M423.125 206.801H404.9V171.563H423.125V206.801Z" fill="#E3D4ED"/>
<path d="M449.808 206.801H431.583V136.324H449.808V206.801Z" fill="#E3D4ED"/>
<path d="M343.101 126.912V207.468H458.112V206.135H344.435V126.912H343.101Z" fill="#C7B9DF"/>
<path d="M297.02 173.701H224.863V136.324H297.02V173.701Z" fill="#E3D4ED"/>
<path d="M224.863 173.701L260.941 148.324L297.02 173.701H224.863Z" fill="#C7B9DF"/>
<path d="M224.863 136.324L260.941 160.324L297.02 136.324H224.863Z" fill="#C7B9DF"/>
<path d="M224.863 136.324L260.941 111.852L297.02 136.324H224.863Z" fill="#E3D4ED"/>
<path d="M260.941 100.088H234.188V142.527L260.941 160.324L287.695 142.527V100.088H260.941Z" fill="#9888B6"/>
<path d="M246.056 110.637H281.159V109.304H246.056V110.637Z" fill="white"/>
<path d="M240.723 118.324H281.159V116.991H240.723V118.324Z" fill="white"/>
<path d="M240.723 126.009H281.159V124.676H240.723V126.009Z" fill="white"/>
<path d="M240.723 133.696H281.159V132.363H240.723V133.696Z" fill="white"/>
<path d="M240.723 141.383H267.825V140.049H240.723V141.383Z" fill="white"/>
<path d="M102.614 148.476C102.614 135.981 119.036 125.852 139.296 125.852C159.555 125.852 175.977 135.981 175.977 148.476C175.977 160.972 159.555 171.101 139.296 171.101C134.331 171.101 129.599 170.489 125.281 169.388L116.588 178.029L119.237 167.416C109.23 163.376 102.614 156.404 102.614 148.476" fill="#C7B9DF"/>
<path d="M195.94 142.043C195.94 129.548 179.517 119.417 159.259 119.417C139 119.417 122.577 129.548 122.577 142.043C122.577 154.537 139 164.667 159.259 164.667C164.223 164.667 168.953 164.056 173.273 162.953L181.965 171.596L179.317 160.981C189.324 156.941 195.94 149.971 195.94 142.043" fill="#E3D4ED"/>
<path d="M147.863 147.824C147.863 149.293 146.671 150.485 145.201 150.485C143.731 150.485 142.539 149.293 142.539 147.824C142.539 146.353 143.731 145.163 145.201 145.163C146.671 145.163 147.863 146.353 147.863 147.824Z" fill="white"/>
<path d="M161.92 147.824C161.92 149.293 160.728 150.485 159.257 150.485C157.788 150.485 156.596 149.293 156.596 147.824C156.596 146.353 157.788 145.163 159.257 145.163C160.728 145.163 161.92 146.353 161.92 147.824Z" fill="white"/>
<path d="M175.977 147.824C175.977 149.293 174.785 150.485 173.315 150.485C171.845 150.485 170.653 149.293 170.653 147.824C170.653 146.353 171.845 145.163 173.315 145.163C174.785 145.163 175.977 146.353 175.977 147.824Z" fill="white"/>
<path d="M231.525 245.492L231.519 245.597C231.445 246.781 230.671 257.747 227.155 271.329C223.652 284.919 217.368 301.084 206.591 312.709C205.591 313.789 205.657 315.477 206.737 316.477C207.819 317.477 209.507 317.412 210.507 316.331C216.557 309.787 221.193 302.103 224.775 294.279C230.141 282.539 233.14 270.464 234.82 261.296C236.496 252.129 236.845 245.871 236.851 245.787C236.932 244.317 235.805 243.059 234.335 242.977C232.864 242.896 231.607 244.023 231.525 245.492" fill="white"/>
<path d="M194.441 425.097L194.452 425.104C194.768 425.319 201.655 430.084 209.467 438.385C217.288 446.687 226 458.515 230.145 472.757C230.559 474.171 232.039 474.983 233.452 474.571C234.867 474.159 235.679 472.677 235.265 471.264C230.693 455.615 221.235 443.031 212.961 434.319C204.68 425.608 197.545 420.76 197.437 420.684C196.219 419.857 194.561 420.175 193.733 421.392C192.905 422.611 193.223 424.269 194.441 425.097" fill="white"/>
<path d="M543.747 309.116H543.08C543.079 311.103 542.276 312.896 540.973 314.199C539.671 315.501 537.877 316.304 535.891 316.305C533.904 316.304 532.112 315.501 530.808 314.199C529.507 312.896 528.704 311.103 528.703 309.116C528.704 307.129 529.507 305.336 530.808 304.033C532.111 302.731 533.904 301.928 535.891 301.928C537.877 301.928 539.671 302.731 540.973 304.033C542.276 305.336 543.079 307.129 543.08 309.116H543.747H544.413C544.412 304.409 540.597 300.595 535.891 300.595C531.185 300.595 527.371 304.409 527.369 309.116C527.371 313.823 531.185 317.637 535.891 317.637C540.597 317.637 544.412 313.823 544.413 309.116H543.747Z" fill="#E3D4ED"/>
<path d="M563.052 503.02H562.385C562.385 505.007 561.581 506.8 560.28 508.103C558.977 509.404 557.184 510.207 555.197 510.207C553.211 510.207 551.417 509.404 550.115 508.103C548.812 506.8 548.009 505.007 548.009 503.02C548.009 501.032 548.812 499.239 550.115 497.936C551.417 496.635 553.211 495.831 555.197 495.831C557.184 495.831 558.977 496.635 560.28 497.936C561.581 499.239 562.385 501.032 562.385 503.02H563.052H563.719C563.719 498.312 559.904 494.497 555.197 494.497C550.491 494.497 546.676 498.312 546.676 503.02C546.676 507.727 550.491 511.54 555.197 511.54C559.904 511.54 563.719 507.727 563.719 503.02H563.052Z" fill="#E3D4ED"/>
<path d="M128.607 388.477H127.941C127.941 390.465 127.137 392.259 125.835 393.561C124.532 394.863 122.74 395.667 120.753 395.667C118.765 395.667 116.972 394.863 115.669 393.561C114.367 392.259 113.564 390.465 113.564 388.477C113.564 386.491 114.367 384.697 115.669 383.395C116.972 382.092 118.765 381.289 120.753 381.289C122.74 381.289 124.532 382.092 125.835 383.395C127.137 384.697 127.941 386.491 127.941 388.477H128.607H129.274C129.273 383.771 125.459 379.956 120.753 379.956C116.046 379.956 112.231 383.771 112.231 388.477C112.231 393.185 116.046 397 120.753 397C125.459 397 129.273 393.185 129.274 388.477H128.607Z" fill="#E3D4ED"/>
<path d="M313.812 206.801H313.145C313.145 208.788 312.343 210.581 311.04 211.884C309.737 213.185 307.944 213.988 305.957 213.989C303.971 213.988 302.177 213.185 300.875 211.884C299.573 210.581 298.769 208.788 298.769 206.801C298.769 204.813 299.573 203.021 300.875 201.719C302.177 200.416 303.971 199.613 305.957 199.612C307.944 199.613 309.737 200.416 311.04 201.719C312.343 203.021 313.145 204.813 313.145 206.801H313.812H314.479C314.479 202.095 310.664 198.28 305.957 198.279C301.251 198.28 297.436 202.095 297.436 206.801C297.436 211.508 301.252 215.321 305.957 215.323C310.664 215.321 314.479 211.508 314.479 206.801H313.812Z" fill="#E3D4ED"/>
<path d="M461.683 240.085H461.016C461.015 241.437 460.469 242.655 459.584 243.541C458.697 244.427 457.48 244.973 456.128 244.973C453.428 244.968 451.245 242.785 451.241 240.085C451.245 237.387 453.428 235.203 456.128 235.197C458.827 235.203 461.011 237.387 461.016 240.085H461.683H462.349C462.348 236.649 459.564 233.865 456.128 233.864C452.691 233.865 449.908 236.649 449.908 240.085C449.908 243.521 452.691 246.307 456.128 246.307C459.564 246.307 462.348 243.521 462.349 240.085H461.683Z" fill="#E3D4ED"/>
<path d="M579.552 339.116L574.155 344.513L568.757 339.116L565.671 342.204L571.068 347.601L565.671 352.999L568.757 356.087L574.155 350.691L579.552 356.087L582.64 352.999L577.244 347.601L582.64 342.204L579.552 339.116Z" fill="#E3D4ED"/>
<path d="M511.428 524.409L506.031 529.805L500.635 524.409L497.545 527.497L502.943 532.895L497.545 538.292L500.635 541.379L506.031 535.983L511.428 541.38L514.517 538.292L509.12 532.895L514.517 527.497L511.428 524.409Z" fill="#E3D4ED"/>
<path d="M489.381 118.427L483.984 123.824L478.587 118.427L475.499 121.515L480.896 126.912L475.499 132.308L478.587 135.397L483.984 130L489.381 135.397L492.469 132.308L487.072 126.912L492.469 121.515L489.381 118.427Z" fill="#E3D4ED"/>
<path d="M88.1412 344.231L82.7443 349.628L77.3469 344.231L74.2588 347.319L79.6557 352.716L74.2588 358.113L77.3469 361.2L82.7443 355.804L88.1412 361.2L91.2292 358.113L85.8317 352.716L91.2292 347.319L88.1412 344.231" fill="#E3D4ED"/>
<path d="M455.471 429.549H381.653L370.036 382.576L369.165 379.056C369.165 379.056 388.353 421.688 455.471 429.549" fill="#D4C0E5"/>
</svg>
